# axe
# generated by tools/assets/build-tiles.js — do not edit
mtllib axe.mtl
o axe
v 0.12717 0.45970 0.14077
v 0.87283 1.06221 0.96615
v 0.87283 0.45970 0.14077
v 0.12717 0.45970 0.14077
v 0.12717 1.06221 0.96615
v 0.87283 1.06221 0.96615
vt 0.79666 0.74250
vt 1.00125 1.00035
vt 1.00125 0.74250
vt 0.79666 0.74250
vt 0.79666 1.00035
vt 1.00125 1.00035
vn 0.0000 0.8077 -0.5896
vn 0.0000 0.8077 -0.5896
vn 0.0000 0.8077 -0.5896
vn 0.0000 0.8077 -0.5896
vn 0.0000 0.8077 -0.5896
vn 0.0000 0.8077 -0.5896
g axe_0
usemtl Decoration
f 1/1/1 2/2/2 3/3/3
f 4/4/4 5/5/5 6/6/6
