# axe_rotated
# generated by tools/assets/build-tiles.js — do not edit
mtllib axe_rotated.mtl
o axe_rotated
v 0.32011 0.52801 0.66907
v 1.47326 0.99390 0.43785
v 0.70884 0.44609 0.03805
v 0.32011 0.52801 0.66907
v 1.08453 1.07582 1.06887
v 1.47326 0.99390 0.43785
vt 0.79666 0.74250
vt 1.00125 1.00035
vt 1.00125 0.74250
vt 0.79666 0.74250
vt 0.79666 1.00035
vt 1.00125 1.00035
vn -0.4107 0.8370 -0.3616
vn -0.4107 0.8370 -0.3616
vn -0.4107 0.8370 -0.3616
vn -0.4107 0.8370 -0.3616
vn -0.4107 0.8370 -0.3616
vn -0.4107 0.8370 -0.3616
g axe_rotated_0
usemtl Decoration
f 1/1/1 2/2/2 3/3/3
f 4/4/4 5/5/5 6/6/6
