# fat_log
# generated by tools/assets/build-tiles.js — do not edit
mtllib fat_log.mtl
o fat_log
v 0.00000 0.14430 0.00000
v 2.00000 0.95233 1.10692
v 2.00000 0.14430 0.00000
v 0.00000 0.14430 0.00000
v 0.00000 0.95233 1.10692
v 2.00000 0.95233 1.10692
vt 0.50304 0.00394
vt 0.99958 0.26981
vt 0.99958 0.00394
vt 0.50304 0.00394
vt 0.50304 0.26981
vt 0.99958 0.26981
vn 0.0000 0.8077 -0.5896
vn 0.0000 0.8077 -0.5896
vn 0.0000 0.8077 -0.5896
vn 0.0000 0.8077 -0.5896
vn 0.0000 0.8077 -0.5896
vn 0.0000 0.8077 -0.5896
g fat_log_0
usemtl Decoration
f 1/1/1 2/2/2 3/3/3
f 4/4/4 5/5/5 6/6/6
