# little_rocks
# generated by tools/assets/build-tiles.js — do not edit
mtllib little_rocks.mtl
o little_rocks
v 0.12990 0.14430 0.12538
v 0.87010 0.14430 0.87462
v 0.87010 0.14430 0.12538
v 0.12990 0.14430 0.12538
v 0.12990 0.14430 0.87462
v 0.87010 0.14430 0.87462
vt 0.79819 0.54301
vt 0.99479 0.71751
vt 0.99479 0.54301
vt 0.79819 0.54301
vt 0.79819 0.71751
vt 0.99479 0.71751
vn 0.0000 1.0000 0.0000
vn 0.0000 1.0000 0.0000
vn 0.0000 1.0000 0.0000
vn 0.0000 1.0000 0.0000
vn 0.0000 1.0000 0.0000
vn 0.0000 1.0000 0.0000
g little_rocks_0
usemtl Decoration
f 1/1/1 2/2/2 3/3/3
f 4/4/4 5/5/5 6/6/6
