# log
# generated by tools/assets/build-tiles.js — do not edit
mtllib log.mtl
o log
v 0.00000 0.10000 0.10000
v 1.00000 0.80000 1.03593
v 1.00000 0.10000 0.10000
v 0.00000 0.10000 0.10000
v 0.00000 0.80000 1.03593
v 1.00000 0.80000 1.03593
vt 0.72545 0.28609
vt 0.99384 0.52478
vt 0.99384 0.28609
vt 0.72545 0.28609
vt 0.72545 0.52478
vt 0.99384 0.52478
vn 0.0000 0.8008 -0.5989
vn 0.0000 0.8008 -0.5989
vn 0.0000 0.8008 -0.5989
vn 0.0000 0.8008 -0.5989
vn 0.0000 0.8008 -0.5989
vn 0.0000 0.8008 -0.5989
g log_0
usemtl Decoration
f 1/1/1 2/2/2 3/3/3
f 4/4/4 5/5/5 6/6/6
