# long_logs
# generated by tools/assets/build-tiles.js — do not edit
mtllib long_logs.mtl
o long_logs
v 0.00000 0.34034 2.13024
v 1.00000 0.34034 3.14829
v 1.00000 0.34034 2.13024
v 0.00000 0.34034 2.13024
v 0.00000 0.34034 3.14829
v 1.00000 0.34034 3.14829
v 0.00000 0.10000 0.10000
v 1.00000 0.34034 1.11220
v 1.00000 0.10000 0.10000
v 0.00000 0.10000 0.10000
v 0.00000 0.34034 1.11220
v 1.00000 0.34034 1.11220
v 0.00000 0.34034 1.11220
v 1.00000 0.34034 2.13024
v 1.00000 0.34034 1.11220
v 0.00000 0.34034 1.11220
v 0.00000 0.34034 2.13024
v 1.00000 0.34034 2.13024
vt 0.52145 0.80177
vt 0.79097 1.00598
vt 0.79097 0.80177
vt 0.52145 0.80177
vt 0.52145 1.00598
vt 0.79097 1.00598
vt 0.52145 0.52185
vt 0.79097 0.73867
vt 0.79097 0.52185
vt 0.52145 0.52185
vt 0.52145 0.73867
vt 0.79097 0.73867
vt 0.52145 0.72674
vt 0.79097 0.87483
vt 0.79097 0.72674
vt 0.52145 0.72674
vt 0.52145 0.87483
vt 0.79097 0.87483
vn 0.0000 1.0000 0.0000
vn 0.0000 1.0000 0.0000
vn 0.0000 1.0000 0.0000
vn 0.0000 1.0000 0.0000
vn 0.0000 1.0000 0.0000
vn 0.0000 1.0000 0.0000
vn 0.0000 0.9729 -0.2310
vn 0.0000 0.9729 -0.2310
vn 0.0000 0.9729 -0.2310
vn 0.0000 0.9729 -0.2310
vn 0.0000 0.9729 -0.2310
vn 0.0000 0.9729 -0.2310
vn 0.0000 1.0000 0.0000
vn 0.0000 1.0000 0.0000
vn 0.0000 1.0000 0.0000
vn 0.0000 1.0000 0.0000
vn 0.0000 1.0000 0.0000
vn 0.0000 1.0000 0.0000
g long_logs_0
usemtl Decoration
f 1/1/1 2/2/2 3/3/3
f 4/4/4 5/5/5 6/6/6
f 7/7/7 8/8/8 9/9/9
f 10/10/10 11/11/11 12/12/12
f 13/13/13 14/14/14 15/15/15
f 16/16/16 17/17/17 18/18/18
