# mush_room2
# generated by tools/assets/build-tiles.js — do not edit
mtllib mush_room2.mtl
o mush_room2
v 0.00000 0.10000 0.00000
v 1.00000 0.10000 1.00000
v 1.00000 0.10000 0.00000
v 0.00000 0.10000 0.00000
v 0.00000 0.10000 1.00000
v 1.00000 0.10000 1.00000
vt 0.53000 -0.01173
vt 0.97000 0.47267
vt 0.97000 -0.01173
vt 0.53000 -0.01173
vt 0.53000 0.47267
vt 0.97000 0.47267
vn 0.0000 1.0000 0.0000
vn 0.0000 1.0000 0.0000
vn 0.0000 1.0000 0.0000
vn 0.0000 1.0000 0.0000
vn 0.0000 1.0000 0.0000
vn 0.0000 1.0000 0.0000
g mush_room2_0
usemtl TreeMushroom
f 1/1/1 2/2/2 3/3/3
f 4/4/4 5/5/5 6/6/6
