# pile_of_logs
# generated by tools/assets/build-tiles.js — do not edit
mtllib pile_of_logs.mtl
o pile_of_logs
v 0.00000 0.14430 0.00000
v 2.00000 1.98717 2.14176
v 2.00000 0.14430 0.00000
v 0.00000 0.14430 0.00000
v 0.00000 1.98717 2.14176
v 2.00000 1.98717 2.14176
vt 0.01187 0.00535
vt 0.47197 0.58338
vt 0.47197 0.00535
vt 0.01187 0.00535
vt 0.01187 0.58338
vt 0.47197 0.58338
vn 0.0000 0.7580 -0.6522
vn 0.0000 0.7580 -0.6522
vn 0.0000 0.7580 -0.6522
vn 0.0000 0.7580 -0.6522
vn 0.0000 0.7580 -0.6522
vn 0.0000 0.7580 -0.6522
g pile_of_logs_0
usemtl Decoration
f 1/1/1 2/2/2 3/3/3
f 4/4/4 5/5/5 6/6/6
