# rock_tall
# generated by tools/assets/build-tiles.js — do not edit
mtllib rock_tall.mtl
o rock_tall
v 0.00000 0.10000 0.10000
v 1.00000 1.61717 1.57510
v 1.00000 0.10000 0.10000
v 0.00000 0.10000 0.10000
v 0.00000 1.61717 1.57510
v 1.00000 1.61717 1.57510
vt 0.00702 0.58472
vt 0.25611 0.99628
vt 0.25611 0.58472
vt 0.00702 0.58472
vt 0.00702 0.99628
vt 0.25611 0.99628
vn 0.0000 0.6971 -0.7170
vn 0.0000 0.6971 -0.7170
vn 0.0000 0.6971 -0.7170
vn 0.0000 0.6971 -0.7170
vn 0.0000 0.6971 -0.7170
vn 0.0000 0.6971 -0.7170
g rock_tall_0
usemtl Decoration
f 1/1/1 2/2/2 3/3/3
f 4/4/4 5/5/5 6/6/6
