# rock_small
# generated by tools/assets/build-tiles.js — do not edit
mtllib rock_small.mtl
o rock_small
v 0.00000 0.10000 0.10000
v 1.00000 0.80000 1.20000
v 1.00000 0.10000 0.10000
v 0.00000 0.10000 0.10000
v 0.00000 0.80000 1.20000
v 1.00000 0.80000 1.20000
vt 0.47716 0.27281
vt 0.70576 0.52566
vt 0.70576 0.27281
vt 0.47716 0.27281
vt 0.47716 0.52566
vt 0.70576 0.52566
vn 0.0000 0.8437 -0.5369
vn 0.0000 0.8437 -0.5369
vn 0.0000 0.8437 -0.5369
vn 0.0000 0.8437 -0.5369
vn 0.0000 0.8437 -0.5369
vn 0.0000 0.8437 -0.5369
g rock_small_0
usemtl Decoration
f 1/1/1 2/2/2 3/3/3
f 4/4/4 5/5/5 6/6/6
