# cave_big_rock
# generated by tools/assets/build-tiles.js — do not edit
mtllib cave_big_rock.mtl
o cave_big_rock
v 6.25293 2.03321 4.97949
v 7.50293 2.35450 5.72949
v 7.50293 2.03321 5.72949
v 6.25293 2.03321 4.97949
v 6.25293 2.35450 4.97949
v 7.50293 2.35450 5.72949
v 7.50293 2.03321 9.22949
v 4.25293 2.35450 10.22949
v 4.25293 2.03321 10.22949
v 7.50293 2.03321 9.22949
v 7.50293 2.35450 9.22949
v 4.25293 2.35450 10.22949
v 0.25293 2.03321 4.72949
v 4.25293 2.35450 4.72949
v 4.25293 2.03321 4.72949
v 0.25293 2.03321 4.72949
v 0.25293 2.35450 4.72949
v 4.25293 2.35450 4.72949
v -3.99707 2.35450 6.47949
v -3.99707 2.03321 8.47949
v -3.99707 2.35450 8.47949
v -3.99707 2.35450 6.47949
v -3.99707 2.03321 6.47949
v -3.99707 2.03321 8.47949
v 8.00293 2.03321 7.47949
v 7.50293 2.35450 9.22949
v 7.50293 2.03321 9.22949
v 8.00293 2.03321 7.47949
v 8.00293 2.35450 7.47949
v 7.50293 2.35450 9.22949
v 4.93457 4.52637 5.99316
v 0.00293 2.35450 10.22949
v 4.25293 2.35450 10.22949
v 4.93457 4.52637 5.99316
v -0.45215 4.52637 5.99316
v 0.00293 2.35450 10.22949
v -1.74707 2.03321 5.22949
v 0.25293 2.35450 4.72949
v 0.25293 2.03321 4.72949
v -1.74707 2.03321 5.22949
v -1.74707 2.35450 5.22949
v 0.25293 2.35450 4.72949
v 4.25293 2.35450 4.72949
v 6.25293 2.03321 4.97949
v 4.25293 2.03321 4.72949
v 4.25293 2.35450 4.72949
v 6.25293 2.35450 4.97949
v 6.25293 2.03321 4.97949
v 7.50293 2.35450 5.72949
v 8.00293 2.03321 7.47949
v 7.50293 2.03321 5.72949
v 7.50293 2.35450 5.72949
v 8.00293 2.35450 7.47949
v 8.00293 2.03321 7.47949
v -1.74707 2.35450 5.22949
v -3.99707 2.03321 6.47949
v -3.99707 2.35450 6.47949
v -1.74707 2.35450 5.22949
v -1.74707 2.03321 5.22949
v -3.99707 2.03321 6.47949
v 4.25293 2.35450 10.22949
v 0.00293 2.03321 10.22949
v 4.25293 2.03321 10.22949
v 4.25293 2.35450 10.22949
v 0.00293 2.35450 10.22949
v 0.00293 2.03321 10.22949
v 1.17090 4.50000 0.97949
v 0.50293 5.43848 -0.21973
v 1.04492 5.26172 0.09473
v 1.17090 4.50000 0.97949
v -0.16016 4.83985 1.35547
v 0.50293 5.43848 -0.21973
v 3.33203 5.89356 0.85156
v 3.15820 6.15821 2.97363
v 3.83594 5.84668 2.59180
v 3.33203 5.89356 0.85156
v 2.24121 6.48242 1.03027
v 3.15820 6.15821 2.97363
v -3.99707 2.35450 8.47949
v -2.99707 2.03321 9.22949
v -2.99707 2.35450 9.22949
v -3.99707 2.35450 8.47949
v -3.99707 2.03321 8.47949
v -2.99707 2.03321 9.22949
v 6.25293 2.35450 4.97949
v 4.93457 3.80762 2.68262
v 6.59961 4.03028 3.70605
v 6.25293 2.35450 4.97949
v 4.25293 2.35450 4.72949
v 4.93457 3.80762 2.68262
v 3.83594 5.84668 2.59180
v 4.93457 4.52637 5.99316
v 6.59961 4.30469 4.97070
v 3.83594 5.84668 2.59180
v 3.15820 6.15821 2.97363
v 4.93457 4.52637 5.99316
v 3.15820 6.15821 2.97363
v -0.45215 4.52637 5.99316
v 4.93457 4.52637 5.99316
v 3.15820 6.15821 2.97363
v 1.32422 6.15821 2.97363
v -0.45215 4.52637 5.99316
v -0.45215 3.80762 2.68262
v -1.74707 2.35450 5.22949
v -2.11719 4.03028 3.70605
v -0.45215 3.80762 2.68262
v 0.25293 2.35450 4.72949
v -1.74707 2.35450 5.22949
v -2.99707 2.35450 9.22949
v -3.29590 3.25781 5.48828
v -3.99707 2.35450 8.47949
v -2.99707 2.35450 9.22949
v -0.45215 4.52637 5.99316
v -3.29590 3.25781 5.48828
v 4.40332 5.34278 1.97949
v 6.59961 4.30469 4.97070
v 6.59961 4.03028 3.70605
v 4.40332 5.34278 1.97949
v 3.83594 5.84668 2.59180
v 6.59961 4.30469 4.97070
v 6.72070 3.25781 4.00098
v 7.50293 2.35450 5.72949
v 6.25293 2.35450 4.97949
v 6.72070 3.25781 4.00098
v 7.50781 3.25781 4.70605
v 7.50293 2.35450 5.72949
v 2.75293 5.86524 -1.25098
v 3.62500 4.50000 0.97949
v 2.30078 5.02442 0.10644
v 2.75293 5.86524 -1.25098
v 3.90625 5.42285 0.27148
v 3.62500 4.50000 0.97949
v 7.50781 3.25781 4.70605
v 6.72070 3.25782 6.97461
v 8.00293 2.35450 7.47949
v 7.50781 3.25781 4.70605
v 6.59961 4.30469 4.97070
v 6.72070 3.25782 6.97461
v 2.24121 6.48242 1.03027
v 1.32422 6.15821 2.97363
v 3.15820 6.15821 2.97363
v 2.24121 6.48242 1.03027
v 1.10449 6.04883 0.53027
v 1.32422 6.15821 2.97363
v 4.40332 5.34278 1.97949
v 3.33203 5.89356 0.85156
v 3.83594 5.84668 2.59180
v 4.40332 5.34278 1.97949
v 3.90625 5.42285 0.27148
v 3.33203 5.89356 0.85156
v 4.25293 2.35450 4.72949
v -0.45215 3.80762 2.68262
v 4.93457 3.80762 2.68262
v 4.25293 2.35450 4.72949
v 0.25293 2.35450 4.72949
v -0.45215 3.80762 2.68262
v -2.99707 2.35450 9.22949
v 0.00293 2.03321 10.22949
v 0.00293 2.35450 10.22949
v -2.99707 2.35450 9.22949
v -2.99707 2.03321 9.22949
v 0.00293 2.03321 10.22949
v -0.45215 3.80762 2.68262
v 1.17090 4.50000 0.97949
v 4.93457 3.80762 2.68262
v 4.93457 3.80762 2.68262
v 1.17090 4.50000 0.97949
v 3.62500 4.50000 0.97949
v 4.93457 3.80762 2.68262
v 3.62500 4.50000 0.97949
v 6.59961 4.03028 3.70605
v 6.59961 4.03028 3.70605
v 3.62500 4.50000 0.97949
v 4.40332 5.34278 1.97949
v 3.62500 4.50000 0.97949
v 3.90625 5.42285 0.27148
v 4.40332 5.34278 1.97949
v 3.90625 5.42285 0.27148
v 2.75293 5.86524 -1.25098
v 3.33203 5.89356 0.85156
v 3.33203 5.89356 0.85156
v 2.75293 5.86524 -1.25098
v 2.24121 6.48242 1.03027
v 2.75293 5.86524 -1.25098
v 1.10449 6.04883 0.53027
v 2.24121 6.48242 1.03027
v 1.10449 6.04883 0.53027
v -0.74707 5.84668 3.22949
v 1.32422 6.15821 2.97363
v 1.32422 6.15821 2.97363
v -0.74707 5.84668 3.22949
v -0.45215 4.52637 5.99316
v -0.74707 5.84668 3.22949
v -2.11719 4.03028 3.70605
v -0.45215 4.52637 5.99316
v -0.45215 4.52637 5.99316
v -2.11719 4.03028 3.70605
v -3.29590 3.25781 5.48828
v -2.11719 4.03028 3.70605
v -1.74707 2.35450 5.22949
v -3.29590 3.25781 5.48828
v -3.29590 3.25781 5.48828
v -1.74707 2.35450 5.22949
v -3.99707 2.35450 6.47949
v 6.59961 4.30469 4.97070
v 7.50781 3.25781 4.70605
v 6.59961 4.03028 3.70605
v 6.59961 4.03028 3.70605
v 7.50781 3.25781 4.70605
v 6.72070 3.25781 4.00098
v 4.93457 4.52637 5.99316
v 6.72070 3.25782 6.97461
v 6.59961 4.30469 4.97070
v 7.50781 3.25781 4.70605
v 8.00293 2.35450 7.47949
v 7.50293 2.35450 5.72949
v 2.75293 5.86524 -1.25098
v 1.04492 5.26172 0.09473
v 1.10449 6.04883 0.53027
v 1.10449 6.04883 0.53027
v 1.04492 5.26172 0.09473
v 0.50293 5.43848 -0.21973
v 0.50293 5.43848 -0.21973
v -0.16016 4.83985 1.35547
v -0.74707 5.84668 3.22949
v -0.16016 4.83985 1.35547
v -2.11719 4.03028 3.70605
v -0.74707 5.84668 3.22949
v 3.62500 4.50000 0.97949
v 1.17090 4.50000 0.97949
v 2.30078 5.02442 0.10644
v 2.30078 5.02442 0.10644
v 1.17090 4.50000 0.97949
v 1.04492 5.26172 0.09473
v 0.00293 2.35450 10.22949
v -0.45215 4.52637 5.99316
v -2.99707 2.35450 9.22949
v 4.93457 4.52637 5.99316
v 4.25293 2.35450 10.22949
v 6.72070 3.25782 6.97461
v 6.72070 3.25782 6.97461
v 4.25293 2.35450 10.22949
v 7.50293 2.35450 9.22949
v 1.17090 4.50000 0.97949
v -0.45215 3.80762 2.68262
v -0.16016 4.83985 1.35547
v -0.16016 4.83985 1.35547
v -0.45215 3.80762 2.68262
v -2.11719 4.03028 3.70605
v -3.99707 2.35450 6.47949
v -3.99707 2.35450 8.47949
v -3.29590 3.25781 5.48828
v 1.04492 5.26172 0.09473
v 2.75293 5.86524 -1.25098
v 2.30078 5.02442 0.10644
v 1.10449 6.04883 0.53027
v 0.50293 5.43848 -0.21973
v -0.74707 5.84668 3.22949
v 8.00293 2.35450 7.47949
v 6.72070 3.25782 6.97461
v 7.50293 2.35450 9.22949
v 6.25293 2.35450 4.97949
v 6.59961 4.03028 3.70605
v 6.72070 3.25781 4.00098
vt 0.50000 -2.00000
vt 0.78125 -1.81250
vt 0.78125 -2.00000
vt 0.50000 -2.00000
vt 0.50000 -1.87500
vt 0.78125 -1.81250
vt 1.28125 -2.00000
vt 1.57617 -1.87500
vt 1.57617 -2.00000
vt 1.28125 -2.00000
vt 1.28125 -1.89063
vt 1.57617 -1.87500
vt -0.65625 -2.00000
vt 0.03809 -1.87500
vt -0.12500 -2.00000
vt -0.65625 -2.00000
vt -0.50000 -1.87500
vt 0.03809 -1.87500
vt 2.60938 -1.90625
vt 2.50000 -2.00000
vt 2.50000 -1.90625
vt 2.60938 -1.90625
vt 2.60938 -2.00000
vt 2.50000 -2.00000
vt 1.14063 -2.00000
vt 1.28125 -1.89063
vt 1.28125 -2.00000
vt 1.14063 -2.00000
vt 1.14063 -1.89063
vt 1.28125 -1.89063
vt 1.45117 -1.26563
vt 2.09375 -1.90625
vt 1.57617 -1.87500
vt 1.45117 -1.26563
vt 2.18750 -1.28125
vt 2.09375 -1.90625
vt -1.00000 -2.00000
vt -0.50000 -1.87500
vt -0.65625 -2.00000
vt -1.00000 -2.00000
vt -1.00000 -1.75000
vt -0.50000 -1.87500
vt 0.03809 -1.87500
vt 0.50000 -2.00000
vt -0.12500 -2.00000
vt 0.03809 -1.87500
vt 0.50000 -1.87500
vt 0.50000 -2.00000
vt 0.78125 -1.81250
vt 1.14063 -2.00000
vt 0.78125 -2.00000
vt 0.78125 -1.81250
vt 1.14063 -1.89063
vt 1.14063 -2.00000
vt 3.00000 -1.75000
vt 2.60938 -2.00000
vt 2.60938 -1.90625
vt 3.00000 -1.75000
vt 3.00000 -2.00000
vt 2.60938 -2.00000
vt 1.57617 -1.87500
vt 2.09375 -2.00000
vt 1.57617 -2.00000
vt 1.57617 -1.87500
vt 2.09375 -1.90625
vt 2.09375 -2.00000
vt -0.54785 -0.77930
vt 2.84375 -0.25977
vt 3.00000 0.00000
vt -0.54785 -0.77930
vt -1.00000 -0.67188
vt 2.84375 -0.25977
vt 1.07813 -0.18750
vt 1.57617 -0.84375
vt 1.10938 -0.50000
vt 1.07813 -0.18750
vt 1.84375 -0.46875
vt 1.57617 -0.84375
vt 2.50000 -1.90625
vt 2.29688 -2.00000
vt 2.29688 -1.87500
vt 2.50000 -1.90625
vt 2.50000 -2.00000
vt 2.29688 -2.00000
vt 0.50000 -1.87500
vt 0.25684 -1.09668
vt 0.78125 -1.03125
vt 0.50000 -1.87500
vt 0.03809 -1.87500
vt 0.25684 -1.09668
vt 1.10938 -0.50000
vt 1.45117 -1.26563
vt 1.23438 -1.29688
vt 1.10938 -0.50000
vt 1.57617 -0.84375
vt 1.45117 -1.26563
vt 1.57617 -0.84375
vt 2.18750 -1.28125
vt 1.45117 -1.26563
vt 1.57617 -0.84375
vt 2.16992 -0.84375
vt 2.18750 -1.28125
vt -0.75000 -1.00195
vt -1.00000 -1.75000
vt -1.00000 -1.31250
vt -0.75000 -1.00195
vt -0.50000 -1.87500
vt -1.00000 -1.75000
vt 2.29688 -1.87500
vt 2.48438 -1.65625
vt 2.50000 -1.90625
vt 2.29688 -1.87500
vt 2.18750 -1.28125
vt 2.48438 -1.65625
vt 0.78125 -0.56250
vt 1.23438 -1.29688
vt 0.78125 -1.03125
vt 0.78125 -0.56250
vt 1.10938 -0.50000
vt 1.23438 -1.29688
vt 0.78125 -1.43750
vt 0.78125 -1.81250
vt 0.50000 -1.87500
vt 0.78125 -1.43750
vt 0.87500 -1.56250
vt 0.78125 -1.81250
vt -0.18750 0.00000
vt 0.18750 -0.59375
vt -0.37500 -0.46875
vt -0.18750 0.00000
vt 0.78125 0.00000
vt 0.18750 -0.59375
vt 0.87500 -1.56250
vt 1.37500 -1.71875
vt 1.14063 -1.89063
vt 0.87500 -1.56250
vt 1.23438 -1.29688
vt 1.37500 -1.71875
vt 1.84375 -0.46875
vt 2.16992 -0.84375
vt 1.57617 -0.84375
vt 1.84375 -0.46875
vt 2.48438 -0.23438
vt 2.16992 -0.84375
vt 0.78125 -0.56250
vt 1.07813 -0.18750
vt 1.10938 -0.50000
vt 0.78125 -0.56250
vt 0.78125 0.00000
vt 1.07813 -0.18750
vt 0.03809 -1.87500
vt -0.75000 -1.00195
vt 0.25684 -1.09668
vt 0.03809 -1.87500
vt -0.50000 -1.87500
vt -0.75000 -1.00195
vt 2.29688 -1.87500
vt 2.09375 -2.00000
vt 2.09375 -1.90625
vt 2.29688 -1.87500
vt 2.29688 -2.00000
vt 2.09375 -2.00000
vt -0.75000 -1.00195
vt -0.54785 -0.77930
vt 0.25684 -1.09668
vt 0.25684 -1.09668
vt -0.54785 -0.77930
vt 0.18750 -0.59375
vt 0.25684 -1.09668
vt 0.18750 -0.59375
vt 0.78125 -1.03125
vt 0.78125 -1.03125
vt 0.18750 -0.59375
vt 0.78125 -0.56250
vt 0.18750 -0.59375
vt 0.78125 0.00000
vt 0.78125 -0.56250
vt 0.78125 0.00000
vt 1.85938 0.00000
vt 1.07813 -0.18750
vt 1.07813 -0.18750
vt 1.85938 0.00000
vt 1.84375 -0.46875
vt 1.85938 0.00000
vt 2.48438 -0.23438
vt 1.84375 -0.46875
vt 2.48438 -0.23438
vt 2.48438 -0.85938
vt 2.16992 -0.84375
vt 2.16992 -0.84375
vt 2.48438 -0.85938
vt 2.18750 -1.28125
vt 2.48438 -0.85938
vt 3.00000 -1.31250
vt 2.18750 -1.28125
vt 2.18750 -1.28125
vt 3.00000 -1.31250
vt 2.48438 -1.65625
vt 3.00000 -1.31250
vt 3.00000 -1.75000
vt 2.48438 -1.65625
vt 2.48438 -1.65625
vt 3.00000 -1.75000
vt 2.60938 -1.90625
vt 1.23438 -1.29688
vt 0.87500 -1.56250
vt 0.78125 -1.03125
vt 0.78125 -1.03125
vt 0.87500 -1.56250
vt 0.78125 -1.43750
vt 1.45117 -1.26563
vt 1.37500 -1.71875
vt 1.23438 -1.29688
vt 0.87500 -1.56250
vt 1.14063 -1.89063
vt 0.78125 -1.81250
vt 1.85938 0.00000
vt 3.00000 0.00000
vt 2.48438 -0.23438
vt 2.48438 -0.23438
vt 3.00000 0.00000
vt 2.84375 -0.25977
vt 2.84375 -0.25977
vt 3.00000 -0.67188
vt 2.48438 -0.85938
vt 3.00000 -0.67188
vt 3.00000 -1.31250
vt 2.48438 -0.85938
vt 0.18750 -0.59375
vt -0.54785 -0.77930
vt -0.37500 -0.46875
vt -0.37500 -0.46875
vt -0.54785 -0.77930
vt -1.00000 0.00000
vt 2.09375 -1.90625
vt 2.18750 -1.28125
vt 2.29688 -1.87500
vt 1.45117 -1.26563
vt 1.57617 -1.87500
vt 1.37500 -1.71875
vt 1.37500 -1.71875
vt 1.57617 -1.87500
vt 1.28125 -1.89063
vt -0.54785 -0.77930
vt -0.75000 -1.00195
vt -1.00000 -0.67188
vt -1.00000 -0.67188
vt -0.75000 -1.00195
vt -1.00000 -1.31250
vt 2.60938 -1.90625
vt 2.50000 -1.90625
vt 2.48438 -1.65625
vt -1.00000 0.00000
vt -0.18750 0.00000
vt -0.37500 -0.46875
vt 2.48438 -0.23438
vt 2.84375 -0.25977
vt 2.48438 -0.85938
vt 1.14063 -1.89063
vt 1.37500 -1.71875
vt 1.28125 -1.89063
vt 0.50000 -1.87500
vt 0.78125 -1.03125
vt 0.78125 -1.43750
vn 0.3263 0.0000 -0.9453
vn 0.8221 -0.2600 -0.5065
vn 0.7935 0.0000 -0.6086
vn 0.3263 0.0000 -0.9453
vn 0.3253 -0.4233 -0.8456
vn 0.8221 -0.2600 -0.5065
vn 0.7142 0.0000 0.6999
vn 0.1377 0.5056 0.8517
vn 0.1487 0.0000 0.9889
vn 0.7142 0.0000 0.6999
vn 0.6087 0.4919 0.6225
vn 0.1377 0.5056 0.8517
vn -0.1222 0.0000 -0.9925
vn 0.0985 -0.4464 -0.8894
vn 0.0621 0.0000 -0.9981
vn -0.1222 0.0000 -0.9925
vn -0.1414 -0.4606 -0.8763
vn 0.0985 -0.4464 -0.8894
vn -0.8969 0.2047 -0.3921
vn -0.8944 0.0000 0.4472
vn -0.8019 0.4489 0.3942
vn -0.8969 0.2047 -0.3921
vn -0.8619 0.0000 -0.5071
vn -0.8944 0.0000 0.4472
vn 1.0000 0.0000 0.0000
vn 0.6087 0.4919 0.6225
vn 0.7142 0.0000 0.6999
vn 1.0000 0.0000 0.0000
vn 0.9218 0.3810 0.0717
vn 0.6087 0.4919 0.6225
vn 0.2109 0.8886 0.4074
vn -0.1337 0.4950 0.8585
vn 0.1377 0.5056 0.8517
vn 0.2109 0.8886 0.4074
vn -0.2284 0.8918 0.3905
vn -0.1337 0.4950 0.8585
vn -0.3672 0.0000 -0.9301
vn -0.1414 -0.4606 -0.8763
vn -0.1222 0.0000 -0.9925
vn -0.3672 0.0000 -0.9301
vn -0.4037 -0.3777 -0.8333
vn -0.1414 -0.4606 -0.8763
vn 0.0985 -0.4464 -0.8894
vn 0.3263 0.0000 -0.9453
vn 0.0621 0.0000 -0.9981
vn 0.0985 -0.4464 -0.8894
vn 0.3253 -0.4233 -0.8456
vn 0.3263 0.0000 -0.9453
vn 0.8221 -0.2600 -0.5065
vn 1.0000 0.0000 0.0000
vn 0.7935 0.0000 -0.6086
vn 0.8221 -0.2600 -0.5065
vn 0.9218 0.3810 0.0717
vn 1.0000 0.0000 0.0000
vn -0.4037 -0.3777 -0.8333
vn -0.8619 0.0000 -0.5071
vn -0.8969 0.2047 -0.3921
vn -0.4037 -0.3777 -0.8333
vn -0.3672 0.0000 -0.9301
vn -0.8619 0.0000 -0.5071
vn 0.1377 0.5056 0.8517
vn -0.1602 0.0000 0.9871
vn 0.1487 0.0000 0.9889
vn 0.1377 0.5056 0.8517
vn -0.1337 0.4950 0.8585
vn -0.1602 0.0000 0.9871
vn -0.1247 -0.8556 -0.5024
vn -0.3865 0.0655 -0.9200
vn -0.1852 -0.4337 -0.8818
vn -0.1247 -0.8556 -0.5024
vn -0.7278 -0.3461 -0.5920
vn -0.3865 0.0655 -0.9200
vn 0.4959 0.8596 -0.1230
vn 0.1691 0.9603 0.2217
vn 0.4709 0.8822 -0.0013
vn 0.4959 0.8596 -0.1230
vn 0.0709 0.9944 -0.0782
vn 0.1691 0.9603 0.2217
vn -0.8019 0.4489 0.3942
vn -0.4641 0.0000 0.8858
vn -0.4442 0.5030 0.7414
vn -0.8019 0.4489 0.3942
vn -0.8944 0.0000 0.4472
vn -0.4641 0.0000 0.8858
vn 0.3253 -0.4233 -0.8456
vn 0.2581 -0.7650 -0.5901
vn 0.7239 0.1726 -0.6680
vn 0.3253 -0.4233 -0.8456
vn 0.0985 -0.4464 -0.8894
vn 0.2581 -0.7650 -0.5901
vn 0.4709 0.8822 -0.0013
vn 0.2109 0.8886 0.4074
vn 0.5559 0.8211 0.1297
vn 0.4709 0.8822 -0.0013
vn 0.1691 0.9603 0.2217
vn 0.2109 0.8886 0.4074
vn 0.1691 0.9603 0.2217
vn -0.2284 0.8918 0.3905
vn 0.2109 0.8886 0.4074
vn 0.1691 0.9603 0.2217
vn -0.0961 0.9651 0.2438
vn -0.2284 0.8918 0.3905
vn -0.2592 -0.7721 -0.5803
vn -0.4037 -0.3777 -0.8333
vn -0.8961 0.0439 -0.4417
vn -0.2592 -0.7721 -0.5803
vn -0.1414 -0.4606 -0.8763
vn -0.4037 -0.3777 -0.8333
vn -0.4442 0.5030 0.7414
vn -0.8279 0.3464 -0.4412
vn -0.8019 0.4489 0.3942
vn -0.4442 0.5030 0.7414
vn -0.2284 0.8918 0.3905
vn -0.8279 0.3464 -0.4412
vn 0.7354 0.5580 -0.3844
vn 0.5559 0.8211 0.1297
vn 0.7239 0.1726 -0.6680
vn 0.7354 0.5580 -0.3844
vn 0.4709 0.8822 -0.0013
vn 0.5559 0.8211 0.1297
vn 0.0302 -0.5029 -0.8638
vn 0.8221 -0.2600 -0.5065
vn 0.3253 -0.4233 -0.8456
vn 0.0302 -0.5029 -0.8638
vn 0.9193 0.0378 -0.3917
vn 0.8221 -0.2600 -0.5065
vn 0.1771 0.2011 -0.9634
vn 0.3818 -0.7604 -0.5254
vn 0.0187 -0.8214 -0.5700
vn 0.1771 0.2011 -0.9634
vn 0.8355 0.0519 -0.5470
vn 0.3818 -0.7604 -0.5254
vn 0.9193 0.0378 -0.3917
vn 0.4404 0.8362 0.3268
vn 0.9218 0.3810 0.0717
vn 0.9193 0.0378 -0.3917
vn 0.5559 0.8211 0.1297
vn 0.4404 0.8362 0.3268
vn 0.0709 0.9944 -0.0782
vn -0.0961 0.9651 0.2438
vn 0.1691 0.9603 0.2217
vn 0.0709 0.9944 -0.0782
vn -0.3225 0.8806 -0.3473
vn -0.0961 0.9651 0.2438
vn 0.7354 0.5580 -0.3844
vn 0.4959 0.8596 -0.1230
vn 0.4709 0.8822 -0.0013
vn 0.7354 0.5580 -0.3844
vn 0.8355 0.0519 -0.5470
vn 0.4959 0.8596 -0.1230
vn 0.0985 -0.4464 -0.8894
vn -0.2592 -0.7721 -0.5803
vn 0.2581 -0.7650 -0.5901
vn 0.0985 -0.4464 -0.8894
vn -0.1414 -0.4606 -0.8763
vn -0.2592 -0.7721 -0.5803
vn -0.4442 0.5030 0.7414
vn -0.1602 0.0000 0.9871
vn -0.1337 0.4950 0.8585
vn -0.4442 0.5030 0.7414
vn -0.4641 0.0000 0.8858
vn -0.1602 0.0000 0.9871
vn -0.2592 -0.7721 -0.5803
vn -0.1247 -0.8556 -0.5024
vn 0.2581 -0.7650 -0.5901
vn 0.2581 -0.7650 -0.5901
vn -0.1247 -0.8556 -0.5024
vn 0.3818 -0.7604 -0.5254
vn 0.2581 -0.7650 -0.5901
vn 0.3818 -0.7604 -0.5254
vn 0.7239 0.1726 -0.6680
vn 0.7239 0.1726 -0.6680
vn 0.3818 -0.7604 -0.5254
vn 0.7354 0.5580 -0.3844
vn 0.3818 -0.7604 -0.5254
vn 0.8355 0.0519 -0.5470
vn 0.7354 0.5580 -0.3844
vn 0.8355 0.0519 -0.5470
vn 0.1771 0.2011 -0.9634
vn 0.4959 0.8596 -0.1230
vn 0.4959 0.8596 -0.1230
vn 0.1771 0.2011 -0.9634
vn 0.0709 0.9944 -0.0782
vn 0.1771 0.2011 -0.9634
vn -0.3225 0.8806 -0.3473
vn 0.0709 0.9944 -0.0782
vn -0.3225 0.8806 -0.3473
vn -0.5589 0.8287 0.0309
vn -0.0961 0.9651 0.2438
vn -0.0961 0.9651 0.2438
vn -0.5589 0.8287 0.0309
vn -0.2284 0.8918 0.3905
vn -0.5589 0.8287 0.0309
vn -0.8961 0.0439 -0.4417
vn -0.2284 0.8918 0.3905
vn -0.2284 0.8918 0.3905
vn -0.8961 0.0439 -0.4417
vn -0.8279 0.3464 -0.4412
vn -0.8961 0.0439 -0.4417
vn -0.4037 -0.3777 -0.8333
vn -0.8279 0.3464 -0.4412
vn -0.8279 0.3464 -0.4412
vn -0.4037 -0.3777 -0.8333
vn -0.8969 0.2047 -0.3921
vn 0.5559 0.8211 0.1297
vn 0.9193 0.0378 -0.3917
vn 0.7239 0.1726 -0.6680
vn 0.7239 0.1726 -0.6680
vn 0.9193 0.0378 -0.3917
vn 0.0302 -0.5029 -0.8638
vn 0.2109 0.8886 0.4074
vn 0.4404 0.8362 0.3268
vn 0.5559 0.8211 0.1297
vn 0.9193 0.0378 -0.3917
vn 0.9218 0.3810 0.0717
vn 0.8221 -0.2600 -0.5065
vn 0.1771 0.2011 -0.9634
vn -0.1852 -0.4337 -0.8818
vn -0.3225 0.8806 -0.3473
vn -0.3225 0.8806 -0.3473
vn -0.1852 -0.4337 -0.8818
vn -0.3865 0.0655 -0.9200
vn -0.3865 0.0655 -0.9200
vn -0.7278 -0.3461 -0.5920
vn -0.5589 0.8287 0.0309
vn -0.7278 -0.3461 -0.5920
vn -0.8961 0.0439 -0.4417
vn -0.5589 0.8287 0.0309
vn 0.3818 -0.7604 -0.5254
vn -0.1247 -0.8556 -0.5024
vn 0.0187 -0.8214 -0.5700
vn 0.0187 -0.8214 -0.5700
vn -0.1247 -0.8556 -0.5024
vn -0.1852 -0.4337 -0.8818
vn -0.1337 0.4950 0.8585
vn -0.2284 0.8918 0.3905
vn -0.4442 0.5030 0.7414
vn 0.2109 0.8886 0.4074
vn 0.1377 0.5056 0.8517
vn 0.4404 0.8362 0.3268
vn 0.4404 0.8362 0.3268
vn 0.1377 0.5056 0.8517
vn 0.6087 0.4919 0.6225
vn -0.1247 -0.8556 -0.5024
vn -0.2592 -0.7721 -0.5803
vn -0.7278 -0.3461 -0.5920
vn -0.7278 -0.3461 -0.5920
vn -0.2592 -0.7721 -0.5803
vn -0.8961 0.0439 -0.4417
vn -0.8969 0.2047 -0.3921
vn -0.8019 0.4489 0.3942
vn -0.8279 0.3464 -0.4412
vn -0.1852 -0.4337 -0.8818
vn 0.1771 0.2011 -0.9634
vn 0.0187 -0.8214 -0.5700
vn -0.3225 0.8806 -0.3473
vn -0.3865 0.0655 -0.9200
vn -0.5589 0.8287 0.0309
vn 0.9218 0.3810 0.0717
vn 0.4404 0.8362 0.3268
vn 0.6087 0.4919 0.6225
vn 0.3253 -0.4233 -0.8456
vn 0.7239 0.1726 -0.6680
vn 0.0302 -0.5029 -0.8638
g cave_big_rock_0
usemtl d0iwa_01
f 1/1/1 2/2/2 3/3/3
f 4/4/4 5/5/5 6/6/6
f 7/7/7 8/8/8 9/9/9
f 10/10/10 11/11/11 12/12/12
f 13/13/13 14/14/14 15/15/15
f 16/16/16 17/17/17 18/18/18
f 19/19/19 20/20/20 21/21/21
f 22/22/22 23/23/23 24/24/24
f 25/25/25 26/26/26 27/27/27
f 28/28/28 29/29/29 30/30/30
f 31/31/31 32/32/32 33/33/33
f 34/34/34 35/35/35 36/36/36
f 37/37/37 38/38/38 39/39/39
f 40/40/40 41/41/41 42/42/42
f 43/43/43 44/44/44 45/45/45
f 46/46/46 47/47/47 48/48/48
f 49/49/49 50/50/50 51/51/51
f 52/52/52 53/53/53 54/54/54
f 55/55/55 56/56/56 57/57/57
f 58/58/58 59/59/59 60/60/60
f 61/61/61 62/62/62 63/63/63
f 64/64/64 65/65/65 66/66/66
f 67/67/67 68/68/68 69/69/69
f 70/70/70 71/71/71 72/72/72
f 73/73/73 74/74/74 75/75/75
f 76/76/76 77/77/77 78/78/78
f 79/79/79 80/80/80 81/81/81
f 82/82/82 83/83/83 84/84/84
f 85/85/85 86/86/86 87/87/87
f 88/88/88 89/89/89 90/90/90
f 91/91/91 92/92/92 93/93/93
f 94/94/94 95/95/95 96/96/96
f 97/97/97 98/98/98 99/99/99
f 100/100/100 101/101/101 102/102/102
f 103/103/103 104/104/104 105/105/105
f 106/106/106 107/107/107 108/108/108
f 109/109/109 110/110/110 111/111/111
f 112/112/112 113/113/113 114/114/114
f 115/115/115 116/116/116 117/117/117
f 118/118/118 119/119/119 120/120/120
f 121/121/121 122/122/122 123/123/123
f 124/124/124 125/125/125 126/126/126
f 127/127/127 128/128/128 129/129/129
f 130/130/130 131/131/131 132/132/132
f 133/133/133 134/134/134 135/135/135
f 136/136/136 137/137/137 138/138/138
f 139/139/139 140/140/140 141/141/141
f 142/142/142 143/143/143 144/144/144
f 145/145/145 146/146/146 147/147/147
f 148/148/148 149/149/149 150/150/150
f 151/151/151 152/152/152 153/153/153
f 154/154/154 155/155/155 156/156/156
f 157/157/157 158/158/158 159/159/159
f 160/160/160 161/161/161 162/162/162
f 163/163/163 164/164/164 165/165/165
f 166/166/166 167/167/167 168/168/168
f 169/169/169 170/170/170 171/171/171
f 172/172/172 173/173/173 174/174/174
f 175/175/175 176/176/176 177/177/177
f 178/178/178 179/179/179 180/180/180
f 181/181/181 182/182/182 183/183/183
f 184/184/184 185/185/185 186/186/186
f 187/187/187 188/188/188 189/189/189
f 190/190/190 191/191/191 192/192/192
f 193/193/193 194/194/194 195/195/195
f 196/196/196 197/197/197 198/198/198
f 199/199/199 200/200/200 201/201/201
f 202/202/202 203/203/203 204/204/204
f 205/205/205 206/206/206 207/207/207
f 208/208/208 209/209/209 210/210/210
f 211/211/211 212/212/212 213/213/213
f 214/214/214 215/215/215 216/216/216
f 217/217/217 218/218/218 219/219/219
f 220/220/220 221/221/221 222/222/222
f 223/223/223 224/224/224 225/225/225
f 226/226/226 227/227/227 228/228/228
f 229/229/229 230/230/230 231/231/231
f 232/232/232 233/233/233 234/234/234
f 235/235/235 236/236/236 237/237/237
f 238/238/238 239/239/239 240/240/240
f 241/241/241 242/242/242 243/243/243
f 244/244/244 245/245/245 246/246/246
f 247/247/247 248/248/248 249/249/249
f 250/250/250 251/251/251 252/252/252
f 253/253/253 254/254/254 255/255/255
f 256/256/256 257/257/257 258/258/258
f 259/259/259 260/260/260 261/261/261
f 262/262/262 263/263/263 264/264/264
