# cave_rock_border_top_edge_w
# generated by tools/assets/build-tiles.js — do not edit
mtllib cave_rock_border_top_edge_w.mtl
o cave_rock_border_top_edge_w
v 0.62500 0.87500 1.00000
v 1.00000 1.00000 0.00000
v 0.62500 0.87500 0.00000
v 0.62500 0.87500 1.00000
v 1.00000 1.00000 1.00000
v 1.00000 1.00000 0.00000
vt -2.50000 -1.00000
vt -2.00000 0.00000
vt -2.00000 -1.00000
vt -2.50000 -1.00000
vt -2.50000 0.00000
vt -2.00000 0.00000
vn -0.3162 0.9487 0.0000
vn -0.3162 0.9487 0.0000
vn -0.3162 0.9487 0.0000
vn -0.3162 0.9487 0.0000
vn -0.3162 0.9487 0.0000
vn -0.3162 0.9487 0.0000
g cave_rock_border_top_edge_w_0
usemtl d0gake_002b
f 1/1/1 2/2/2 3/3/3
f 4/4/4 5/5/5 6/6/6
v 0.37500 0.25000 0.00000
v 0.62500 0.87500 1.00000
v 0.62500 0.87500 0.00000
v 0.37500 0.25000 0.00000
v 0.37500 0.25000 1.00000
v 0.62500 0.87500 1.00000
v 0.00000 0.00000 0.00000
v 0.37500 0.25000 1.00000
v 0.37500 0.25000 0.00000
v 0.00000 0.00000 0.00000
v 0.00000 0.00000 1.00000
v 0.37500 0.25000 1.00000
vt -2.00000 -0.56250
vt -2.50000 0.00000
vt -2.00000 0.00000
vt -2.00000 -0.56250
vt -2.50000 -0.56250
vt -2.50000 0.00000
vt -2.00000 -1.00000
vt -2.50000 -0.56250
vt -2.00000 -0.56250
vt -2.00000 -1.00000
vt -2.50000 -1.00000
vt -2.50000 -0.56250
vn -0.7765 0.6301 0.0000
vn -0.9285 0.3714 0.0000
vn -0.9285 0.3714 0.0000
vn -0.7765 0.6301 0.0000
vn -0.7765 0.6301 0.0000
vn -0.9285 0.3714 0.0000
vn -0.5547 0.8321 0.0000
vn -0.7765 0.6301 0.0000
vn -0.7765 0.6301 0.0000
vn -0.5547 0.8321 0.0000
vn -0.5547 0.8321 0.0000
vn -0.7765 0.6301 0.0000
g cave_rock_border_top_edge_w_1
usemtl d0gake_001b
f 7/7/7 8/8/8 9/9/9
f 10/10/10 11/11/11 12/12/12
f 13/13/13 14/14/14 15/15/15
f 16/16/16 17/17/17 18/18/18
