# cave_rock_inner_sw
# generated by tools/assets/build-tiles.js — do not edit
mtllib cave_rock_inner_sw.mtl
o cave_rock_inner_sw
v 0.37500 0.25000 1.00000
v 0.62500 0.87500 0.00000
v 0.37500 0.25000 0.00000
v 0.37500 0.25000 1.00000
v 0.62500 0.87500 1.00000
v 0.62500 0.87500 0.00000
v 1.00000 0.25000 0.62500
v 0.00000 0.87500 0.37500
v 0.00000 0.25000 0.62500
v 1.00000 0.25000 0.62500
v 1.00000 0.87500 0.37500
v 0.00000 0.87500 0.37500
vt -0.50000 -0.56250
vt 0.00000 0.00000
vt 0.00000 -0.56250
vt -0.50000 -0.56250
vt -0.50000 0.00000
vt 0.00000 0.00000
vt -0.50000 -0.56250
vt 0.00000 0.00000
vt 0.00000 -0.56250
vt -0.50000 -0.56250
vt -0.50000 0.00000
vt 0.00000 0.00000
vn -0.9285 0.3714 0.0000
vn -0.9285 0.3714 0.0000
vn -0.9285 0.3714 0.0000
vn -0.9285 0.3714 0.0000
vn -0.9285 0.3714 0.0000
vn -0.9285 0.3714 0.0000
vn 0.0000 0.3714 0.9285
vn 0.0000 0.3714 0.9285
vn 0.0000 0.3714 0.9285
vn 0.0000 0.3714 0.9285
vn 0.0000 0.3714 0.9285
vn 0.0000 0.3714 0.9285
g cave_rock_inner_sw_0
usemtl d0gake_001b
f 1/1/1 2/2/2 3/3/3
f 4/4/4 5/5/5 6/6/6
f 7/7/7 8/8/8 9/9/9
f 10/10/10 11/11/11 12/12/12
v 0.62500 0.87500 1.00000
v 1.00000 1.00000 0.00000
v 0.62500 0.87500 0.00000
v 0.62500 0.87500 1.00000
v 1.00000 1.00000 1.00000
v 1.00000 1.00000 0.00000
v 1.00000 0.87500 0.37500
v 0.00000 1.00000 0.00000
v 0.00000 0.87500 0.37500
v 1.00000 0.87500 0.37500
v 1.00000 1.00000 0.00000
v 0.00000 1.00000 0.00000
vt -0.50000 -1.00000
vt 0.00000 0.00000
vt 0.00000 -1.00000
vt -0.50000 -1.00000
vt -0.50000 0.00000
vt 0.00000 0.00000
vt -0.50000 -1.00000
vt 0.00000 0.00000
vt 0.00000 -1.00000
vt -0.50000 -1.00000
vt -0.50000 0.00000
vt 0.00000 0.00000
vn -0.3162 0.9487 0.0000
vn -0.3162 0.9487 0.0000
vn -0.3162 0.9487 0.0000
vn -0.3162 0.9487 0.0000
vn -0.3162 0.9487 0.0000
vn -0.3162 0.9487 0.0000
vn 0.0000 0.9487 0.3162
vn 0.0000 0.9487 0.3162
vn 0.0000 0.9487 0.3162
vn 0.0000 0.9487 0.3162
vn 0.0000 0.9487 0.3162
vn 0.0000 0.9487 0.3162
g cave_rock_inner_sw_1
usemtl d0gake_002
f 13/13/13 14/14/14 15/15/15
f 16/16/16 17/17/17 18/18/18
f 19/19/19 20/20/20 21/21/21
f 22/22/22 23/23/23 24/24/24
v 0.00000 0.00000 1.00000
v 0.37500 0.25000 0.00000
v 0.00000 0.00000 0.00000
v 0.00000 0.00000 1.00000
v 0.37500 0.25000 1.00000
v 0.37500 0.25000 0.00000
v 1.00000 0.00000 1.00000
v 0.00000 0.25000 0.62500
v 0.00000 0.00000 1.00000
v 1.00000 0.00000 1.00000
v 1.00000 0.25000 0.62500
v 0.00000 0.25000 0.62500
vt -0.50000 -1.00000
vt 0.00000 -0.56250
vt 0.00000 -1.00000
vt -0.50000 -1.00000
vt -0.50000 -0.56250
vt 0.00000 -0.56250
vt -0.50000 -1.00000
vt 0.00000 -0.56250
vt 0.00000 -1.00000
vt -0.50000 -1.00000
vt -0.50000 -0.56250
vt 0.00000 -0.56250
vn -0.5547 0.8321 0.0000
vn -0.5547 0.8321 0.0000
vn -0.5547 0.8321 0.0000
vn -0.5547 0.8321 0.0000
vn -0.5547 0.8321 0.0000
vn -0.5547 0.8321 0.0000
vn 0.0000 0.8321 0.5547
vn 0.0000 0.8321 0.5547
vn 0.0000 0.8321 0.5547
vn 0.0000 0.8321 0.5547
vn 0.0000 0.8321 0.5547
vn 0.0000 0.8321 0.5547
g cave_rock_inner_sw_2
usemtl d0gake_001
f 25/25/25 26/26/26 27/27/27
f 28/28/28 29/29/29 30/30/30
f 31/31/31 32/32/32 33/33/33
f 34/34/34 35/35/35 36/36/36
