# cave_rock_corner_sw
# generated by tools/assets/build-tiles.js — do not edit
mtllib cave_rock_corner_sw.mtl
o cave_rock_corner_sw
v 1.00000 0.25000 0.62500
v 0.62500 0.87500 0.00000
v 0.37500 0.25000 0.00000
v 1.00000 0.25000 0.62500
v 1.00000 0.87500 0.37500
v 0.62500 0.87500 0.00000
vt 0.03125 -0.56250
vt 0.43750 0.00000
vt 0.43750 -0.56250
vt 0.03125 -0.56250
vt 0.03125 0.00000
vt 0.43750 0.00000
vn -0.6804 0.2722 0.6804
vn -0.6804 0.2722 0.6804
vn -0.6804 0.2722 0.6804
vn -0.6804 0.2722 0.6804
vn -0.6804 0.2722 0.6804
vn -0.6804 0.2722 0.6804
g cave_rock_corner_sw_0
usemtl d0gake_001b
f 1/1/1 2/2/2 3/3/3
f 4/4/4 5/5/5 6/6/6
v 1.00000 1.00000 0.00000
v 0.62500 0.87500 0.00000
v 1.00000 0.87500 0.37500
vt 0.25000 0.00000
vt 0.50000 -1.00000
vt 0.00000 -1.00000
vn -0.3015 0.9045 0.3015
vn -0.3015 0.9045 0.3015
vn -0.3015 0.9045 0.3015
g cave_rock_corner_sw_1
usemtl d0gake_002
f 7/7/7 8/8/8 9/9/9
v 0.00000 0.00000 0.00000
v 0.25000 0.00000 0.75000
v 0.37500 0.25000 0.00000
v 0.37500 0.25000 0.00000
v 0.25000 0.00000 0.75000
v 1.00000 0.25000 0.62500
v 0.25000 0.00000 0.75000
v 1.00000 0.00000 1.00000
v 1.00000 0.25000 0.62500
vt 0.43750 -1.00000
vt 0.25000 -1.00000
vt 0.43750 -0.56250
vt 0.43750 -0.56250
vt 0.25000 -1.00000
vt 0.03125 -0.56250
vt 0.25000 -1.00000
vt 0.03125 -1.00000
vt 0.03125 -0.56250
vn -0.5455 0.8182 0.1818
vn -0.3204 0.8915 0.3204
vn -0.4276 0.8766 0.2209
vn -0.4276 0.8766 0.2209
vn -0.3204 0.8915 0.3204
vn -0.2209 0.8766 0.4276
vn -0.3204 0.8915 0.3204
vn -0.1818 0.8182 0.5455
vn -0.2209 0.8766 0.4276
g cave_rock_corner_sw_2
usemtl d0gake_001
f 10/10/10 11/11/11 12/12/12
f 13/13/13 14/14/14 15/15/15
f 16/16/16 17/17/17 18/18/18
