# cave_exit_v2
# generated by tools/assets/build-tiles.js — do not edit
mtllib cave_exit_v2.mtl
o cave_exit_v2
v 1.37500 0.87500 0.00000
v 1.00000 1.00000 0.43576
v 1.37500 0.87500 0.43576
v 1.37500 0.87500 0.00000
v 1.00000 1.00000 0.00000
v 1.00000 1.00000 0.43576
v 0.37500 1.87500 0.00000
v 0.00000 2.00000 0.43576
v 0.37500 1.87500 0.43576
v 0.37500 1.87500 0.00000
v 0.00000 2.00000 0.00000
v 0.00000 2.00000 0.43576
v 1.37500 0.87500 2.56250
v 1.00000 1.00000 3.00000
v 1.37500 0.87500 3.00000
v 1.37500 0.87500 2.56250
v 1.00000 1.00000 2.56250
v 1.00000 1.00000 3.00000
v 0.37500 1.87500 2.56250
v 0.00000 2.00000 3.00000
v 0.37500 1.87500 3.00000
v 0.37500 1.87500 2.56250
v 0.00000 2.00000 2.56250
v 0.00000 2.00000 3.00000
vt -0.50000 -1.00000
vt -0.25000 0.00000
vt -0.25000 -1.00000
vt -0.50000 -1.00000
vt -0.50000 0.00000
vt -0.25000 0.00000
vt -0.50000 -1.00000
vt -0.25000 0.00000
vt -0.25000 -1.00000
vt -0.50000 -1.00000
vt -0.50000 0.00000
vt -0.25000 0.00000
vt -1.25000 -1.00000
vt -1.00000 0.00000
vt -1.00000 -1.00000
vt -1.25000 -1.00000
vt -1.25000 0.00000
vt -1.00000 0.00000
vt -0.25000 -1.00000
vt 0.00000 0.00000
vt 0.00000 -1.00000
vt -0.25000 -1.00000
vt -0.25000 0.00000
vt 0.00000 0.00000
vn 0.3162 0.9487 0.0000
vn 0.3162 0.9487 0.0000
vn 0.3162 0.9487 0.0000
vn 0.3162 0.9487 0.0000
vn 0.3162 0.9487 0.0000
vn 0.3162 0.9487 0.0000
vn 0.3162 0.9487 0.0000
vn 0.3162 0.9487 0.0000
vn 0.3162 0.9487 0.0000
vn 0.3162 0.9487 0.0000
vn 0.3162 0.9487 0.0000
vn 0.3162 0.9487 0.0000
vn 0.3162 0.9487 0.0000
vn 0.3162 0.9487 0.0000
vn 0.3162 0.9487 0.0000
vn 0.3162 0.9487 0.0000
vn 0.3162 0.9487 0.0000
vn 0.3162 0.9487 0.0000
vn 0.3162 0.9487 0.0000
vn 0.3162 0.9487 0.0000
vn 0.3162 0.9487 0.0000
vn 0.3162 0.9487 0.0000
vn 0.3162 0.9487 0.0000
vn 0.3162 0.9487 0.0000
g cave_exit_v2_0
usemtl d0gake_002b
f 1/1/1 2/2/2 3/3/3
f 4/4/4 5/5/5 6/6/6
f 7/7/7 8/8/8 9/9/9
f 10/10/10 11/11/11 12/12/12
f 13/13/13 14/14/14 15/15/15
f 16/16/16 17/17/17 18/18/18
f 19/19/19 20/20/20 21/21/21
f 22/22/22 23/23/23 24/24/24
v 0.98828 1.60742 1.93750
v 2.00000 0.06250 2.56250
v 2.00000 0.06250 1.93750
v 0.98828 1.60742 1.93750
v 0.81250 1.87500 2.56250
v 2.00000 0.06250 2.56250
v -0.12500 0.06250 0.06250
v 0.81250 1.87500 0.43750
v 2.00000 0.06250 0.43750
v -0.12500 0.06250 0.06250
v 0.00000 2.00000 0.43750
v 0.81250 1.87500 0.43750
v 2.00000 0.06250 1.06250
v 0.81250 1.87500 0.43750
v 0.98828 1.60742 1.06250
v 2.00000 0.06250 1.06250
v 2.00000 0.06250 0.43750
v 0.81250 1.87500 0.43750
v 0.00000 2.00000 2.56250
v 0.81250 1.87500 0.43750
v 0.00000 2.00000 0.43750
v 0.00000 2.00000 2.56250
v 0.81250 1.87500 2.56250
v 0.81250 1.87500 0.43750
v -0.12500 0.06250 2.93750
v 0.81250 1.87500 2.56250
v 0.00000 2.00000 2.56250
v -0.12500 0.06250 2.93750
v 2.00000 0.06250 2.56250
v 0.81250 1.87500 2.56250
v 0.98828 1.60742 1.06250
v 0.81250 1.87500 2.56250
v 0.98828 1.60742 1.93750
v 0.98828 1.60742 1.06250
v 0.81250 1.87500 0.43750
v 0.81250 1.87500 2.56250
vt 0.76563 -0.39063
vt 1.00000 -1.00000
vt 0.76563 -1.00000
vt 0.76563 -0.39063
vt 1.00000 -0.23438
vt 1.00000 -1.00000
vt -1.12500 -0.17188
vt -1.00000 -0.20313
vt -1.00000 -1.00000
vt -1.12500 -0.17188
vt -1.00000 0.00000
vt -1.00000 -0.20313
vt 0.26563 -1.00000
vt 0.00000 -0.23438
vt 0.26563 -0.39063
vt 0.26563 -1.00000
vt 0.00000 -1.00000
vt 0.00000 -0.23438
vt 1.00000 0.00000
vt 0.00000 -0.23438
vt 0.00000 0.00000
vt 1.00000 0.00000
vt 1.00000 -0.23438
vt 0.00000 -0.23438
vt -1.12500 -0.17188
vt -1.00000 -0.20313
vt -1.00000 0.00000
vt -1.12500 -0.17188
vt -1.00000 -1.00000
vt -1.00000 -0.20313
vt 0.26563 -0.39063
vt 1.00000 -0.23438
vt 0.76563 -0.39063
vt 0.26563 -0.39063
vt 0.00000 -0.23438
vt 1.00000 -0.23438
vn 0.8361 0.5486 0.0001
vn 0.8365 0.5479 0.0003
vn 0.8365 0.5479 0.0003
vn 0.8361 0.5486 0.0001
vn 0.8363 0.5483 0.0002
vn 0.8365 0.5479 0.0003
vn 0.1311 0.1354 -0.9821
vn 0.1311 0.1354 -0.9821
vn 0.1311 0.1354 -0.9821
vn 0.1311 0.1354 -0.9821
vn 0.1311 0.1354 -0.9821
vn 0.1311 0.1354 -0.9821
vn 0.8365 0.5479 -0.0003
vn 0.8363 0.5483 -0.0002
vn 0.8361 0.5486 -0.0001
vn 0.8365 0.5479 -0.0003
vn 0.8365 0.5479 -0.0003
vn 0.8363 0.5483 -0.0002
vn 0.1521 0.9884 0.0000
vn 0.1521 0.9884 0.0000
vn 0.1521 0.9884 0.0000
vn 0.1521 0.9884 0.0000
vn 0.1521 0.9884 0.0000
vn 0.1521 0.9884 0.0000
vn 0.1311 0.1354 0.9821
vn 0.1311 0.1354 0.9821
vn 0.1311 0.1354 0.9821
vn 0.1311 0.1354 0.9821
vn 0.1311 0.1354 0.9821
vn 0.1311 0.1354 0.9821
vn 0.8361 0.5486 -0.0001
vn 0.8363 0.5483 0.0002
vn 0.8361 0.5486 0.0001
vn 0.8361 0.5486 -0.0001
vn 0.8363 0.5483 -0.0002
vn 0.8363 0.5483 0.0002
g cave_exit_v2_1
usemtl d0ana_001b
f 25/25/25 26/26/26 27/27/27
f 28/28/28 29/29/29 30/30/30
f 31/31/31 32/32/32 33/33/33
f 34/34/34 35/35/35 36/36/36
f 37/37/37 38/38/38 39/39/39
f 40/40/40 41/41/41 42/42/42
f 43/43/43 44/44/44 45/45/45
f 46/46/46 47/47/47 48/48/48
f 49/49/49 50/50/50 51/51/51
f 52/52/52 53/53/53 54/54/54
f 55/55/55 56/56/56 57/57/57
f 58/58/58 59/59/59 60/60/60
v 2.00000 0.00000 0.43576
v 1.62500 0.25000 0.00000
v 1.62500 0.25000 0.43576
v 2.00000 0.00000 0.43576
v 2.00000 0.00000 0.00000
v 1.62500 0.25000 0.00000
v 1.62500 0.25000 0.43576
v 1.37500 0.87500 0.00000
v 1.37500 0.87500 0.43576
v 1.62500 0.25000 0.43576
v 1.62500 0.25000 0.00000
v 1.37500 0.87500 0.00000
v 1.62500 0.25000 3.00000
v 1.37500 0.87500 2.56250
v 1.37500 0.87500 3.00000
v 1.62500 0.25000 3.00000
v 1.62500 0.25000 2.56250
v 1.37500 0.87500 2.56250
v 2.00000 0.00000 3.00000
v 1.62500 0.25000 2.56250
v 1.62500 0.25000 3.00000
v 2.00000 0.00000 3.00000
v 2.00000 0.00000 2.56250
v 1.62500 0.25000 2.56250
vt -0.25000 -1.00000
vt -0.50000 -0.56250
vt -0.25000 -0.56250
vt -0.25000 -1.00000
vt -0.50000 -1.00000
vt -0.50000 -0.56250
vt -0.25000 -0.56250
vt -0.50000 0.00000
vt -0.25000 0.00000
vt -0.25000 -0.56250
vt -0.50000 -0.56250
vt -0.50000 0.00000
vt -1.00000 -0.56250
vt -1.25000 0.00000
vt -1.00000 0.00000
vt -1.00000 -0.56250
vt -1.25000 -0.56250
vt -1.25000 0.00000
vt -1.00000 -1.00000
vt -1.25000 -0.56250
vt -1.00000 -0.56250
vt -1.00000 -1.00000
vt -1.25000 -1.00000
vt -1.25000 -0.56250
vn 0.5547 0.8321 0.0000
vn 0.7765 0.6301 0.0000
vn 0.7765 0.6301 0.0000
vn 0.5547 0.8321 0.0000
vn 0.5547 0.8321 0.0000
vn 0.7765 0.6301 0.0000
vn 0.7765 0.6301 0.0000
vn 0.9285 0.3714 0.0000
vn 0.9285 0.3714 0.0000
vn 0.7765 0.6301 0.0000
vn 0.7765 0.6301 0.0000
vn 0.9285 0.3714 0.0000
vn 0.7765 0.6301 0.0000
vn 0.9285 0.3714 0.0000
vn 0.9285 0.3714 0.0000
vn 0.7765 0.6301 0.0000
vn 0.7765 0.6301 0.0000
vn 0.9285 0.3714 0.0000
vn 0.5547 0.8321 0.0000
vn 0.7765 0.6301 0.0000
vn 0.7765 0.6301 0.0000
vn 0.5547 0.8321 0.0000
vn 0.5547 0.8321 0.0000
vn 0.7765 0.6301 0.0000
g cave_exit_v2_2
usemtl d0gake_001
f 61/61/61 62/62/62 63/63/63
f 64/64/64 65/65/65 66/66/66
f 67/67/67 68/68/68 69/69/69
f 70/70/70 71/71/71 72/72/72
f 73/73/73 74/74/74 75/75/75
f 76/76/76 77/77/77 78/78/78
f 79/79/79 80/80/80 81/81/81
f 82/82/82 83/83/83 84/84/84
v 0.12500 1.78125 2.50020
v 0.37500 0.37500 0.49976
v 0.12500 1.78125 0.49976
v 0.12500 1.78125 2.50020
v 0.37500 0.37500 2.50020
v 0.37500 0.37500 0.49976
v 0.75000 1.68750 2.50024
v 0.37500 0.37500 2.50020
v 0.12500 1.78125 2.50024
v 0.75000 1.68750 2.50024
v 1.81250 0.12500 2.50020
v 0.37500 0.37500 2.50020
v 0.37500 0.37500 0.43750
v 1.81250 0.12500 2.50020
v 1.81250 0.12500 0.43750
v 0.37500 0.37500 0.43750
v 0.37500 0.37500 2.50020
v 1.81250 0.12500 2.50020
v 0.75000 1.68750 0.49976
v 0.37500 0.37500 0.49976
v 1.81250 0.12500 0.49976
v 0.75000 1.68750 0.49976
v 0.12500 1.78125 0.49976
v 0.37500 0.37500 0.49976
v 1.50000 0.06250 2.37500
v 3.00000 0.06250 0.75000
v 1.50000 0.06250 0.62500
v 1.50000 0.06250 2.37500
v 3.00000 0.06250 2.25000
v 3.00000 0.06250 0.75000
vt 0.00000 -0.07227
vt 0.00000 0.00000
vt 0.00000 -0.07227
vt 0.00000 -0.07227
vt 0.00000 0.00000
vt 0.00000 0.00000
vt 1.00000 -0.07227
vt 0.00000 0.00000
vt 1.00000 0.00000
vt 1.00000 -0.07227
vt 0.00000 -0.07227
vt 0.00000 0.00000
vt 0.00000 -0.07227
vt 0.00000 0.00000
vt 0.00000 -0.07227
vt 0.00000 -0.07227
vt 0.00000 0.00000
vt 0.00000 0.00000
vt 1.00000 -0.07227
vt 0.00000 0.00000
vt 0.00000 -0.07227
vt 1.00000 -0.07227
vt 1.00000 0.00000
vt 0.00000 0.00000
vt 1.00000 0.00000
vt 0.00000 -0.97266
vt 0.00000 0.00000
vt 1.00000 0.00000
vt 1.00000 -0.97266
vt 0.00000 -0.97266
vn 0.9846 0.1750 0.0000
vn 0.9846 0.1750 0.0000
vn 0.9846 0.1750 0.0000
vn 0.9846 0.1750 0.0000
vn 0.9846 0.1750 0.0000
vn 0.9846 0.1750 0.0000
vn 0.0000 0.0000 -1.0000
vn 0.1085 0.6241 -0.7738
vn 0.0000 0.0000 -1.0000
vn 0.0000 0.0000 -1.0000
vn 0.1526 0.8776 -0.4545
vn 0.1085 0.6241 -0.7738
vn 0.1713 0.9852 0.0000
vn 0.1526 0.8776 -0.4545
vn 0.1713 0.9852 0.0000
vn 0.1713 0.9852 0.0000
vn 0.1085 0.6241 -0.7738
vn 0.1526 0.8776 -0.4545
vn 0.0000 0.0000 1.0000
vn 0.0000 0.0000 1.0000
vn 0.0000 0.0000 1.0000
vn 0.0000 0.0000 1.0000
vn 0.0000 0.0000 1.0000
vn 0.0000 0.0000 1.0000
vn 0.0000 1.0000 0.0000
vn 0.0000 1.0000 0.0000
vn 0.0000 1.0000 0.0000
vn 0.0000 1.0000 0.0000
vn 0.0000 1.0000 0.0000
vn 0.0000 1.0000 0.0000
g cave_exit_v2_3
usemtl d0ana_002b
f 85/85/85 86/86/86 87/87/87
f 88/88/88 89/89/89 90/90/90
f 91/91/91 92/92/92 93/93/93
f 94/94/94 95/95/95 96/96/96
f 97/97/97 98/98/98 99/99/99
f 100/100/100 101/101/101 102/102/102
f 103/103/103 104/104/104 105/105/105
f 106/106/106 107/107/107 108/108/108
f 109/109/109 110/110/110 111/111/111
f 112/112/112 113/113/113 114/114/114
v 0.62500 1.25000 0.43576
v 0.37500 1.87500 0.00000
v 0.37500 1.87500 0.43576
v 0.62500 1.25000 0.43576
v 0.62500 1.25000 0.00000
v 0.37500 1.87500 0.00000
v 0.62500 1.25000 3.00000
v 0.37500 1.87500 2.56250
v 0.37500 1.87500 3.00000
v 0.62500 1.25000 3.00000
v 0.62500 1.25000 2.56250
v 0.37500 1.87500 2.56250
v 1.00000 1.00000 3.00000
v 0.62500 1.25000 2.56250
v 0.62500 1.25000 3.00000
v 1.00000 1.00000 3.00000
v 1.00000 1.00000 2.56250
v 0.62500 1.25000 2.56250
v 1.00000 1.00000 0.43576
v 0.62500 1.25000 0.00000
v 0.62500 1.25000 0.43576
v 1.00000 1.00000 0.43576
v 1.00000 1.00000 0.00000
v 0.62500 1.25000 0.00000
vt -0.25000 -0.56250
vt -0.50000 0.00000
vt -0.25000 0.00000
vt -0.25000 -0.56250
vt -0.50000 -0.56250
vt -0.50000 0.00000
vt 0.00000 -0.56250
vt -0.25000 0.00000
vt 0.00000 0.00000
vt 0.00000 -0.56250
vt -0.25000 -0.56250
vt -0.25000 0.00000
vt 0.00000 -1.00000
vt -0.25000 -0.56250
vt 0.00000 -0.56250
vt 0.00000 -1.00000
vt -0.25000 -1.00000
vt -0.25000 -0.56250
vt -0.25000 -1.00000
vt -0.50000 -0.56250
vt -0.25000 -0.56250
vt -0.25000 -1.00000
vt -0.50000 -1.00000
vt -0.50000 -0.56250
vn 0.7765 0.6301 0.0000
vn 0.9285 0.3714 0.0000
vn 0.9285 0.3714 0.0000
vn 0.7765 0.6301 0.0000
vn 0.7765 0.6301 0.0000
vn 0.9285 0.3714 0.0000
vn 0.7765 0.6301 0.0000
vn 0.9285 0.3714 0.0000
vn 0.9285 0.3714 0.0000
vn 0.7765 0.6301 0.0000
vn 0.7765 0.6301 0.0000
vn 0.9285 0.3714 0.0000
vn 0.5547 0.8321 0.0000
vn 0.7765 0.6301 0.0000
vn 0.7765 0.6301 0.0000
vn 0.5547 0.8321 0.0000
vn 0.5547 0.8321 0.0000
vn 0.7765 0.6301 0.0000
vn 0.5547 0.8321 0.0000
vn 0.7765 0.6301 0.0000
vn 0.7765 0.6301 0.0000
vn 0.5547 0.8321 0.0000
vn 0.5547 0.8321 0.0000
vn 0.7765 0.6301 0.0000
g cave_exit_v2_4
usemtl d0gake_001b
f 115/115/115 116/116/116 117/117/117
f 118/118/118 119/119/119 120/120/120
f 121/121/121 122/122/122 123/123/123
f 124/124/124 125/125/125 126/126/126
f 127/127/127 128/128/128 129/129/129
f 130/130/130 131/131/131 132/132/132
f 133/133/133 134/134/134 135/135/135
f 136/136/136 137/137/137 138/138/138
