# grass_path_cornerin_dr_inner_sw
# generated by tools/assets/build-tiles.js — do not edit
mtllib grass_path_cornerin_dr_inner_sw.mtl
o grass_path_cornerin_dr_inner_sw
v 1.00000 0.07000 1.00000
v 1.00000 0.07000 0.00000
v 0.00000 0.07000 0.00000
vt 0.99990 0.00010
vt 0.99990 0.99990
vt 0.00010 0.99990
vn 0.0000 1.0000 0.0000
vn 0.0000 1.0000 0.0000
vn 0.0000 1.0000 0.0000
g grass_path_cornerin_dr_inner_sw_0
usemtl michi01b
f 1/1/1 2/2/2 3/3/3
v 0.00000 0.07000 0.00000
v 0.00000 0.07000 1.00000
v 1.00000 0.07000 1.00000
vt 0.00000 -0.94375
vt 0.50000 -0.05625
vt 1.00000 -0.94375
vn 0.0000 1.0000 0.0000
vn 0.0000 1.0000 0.0000
vn 0.0000 1.0000 0.0000
g grass_path_cornerin_dr_inner_sw_1
usemtl michi01a
f 4/4/4 5/5/5 6/6/6
