# grass_path_corner_corner_nw_v2
# generated by tools/assets/build-tiles.js — do not edit
mtllib grass_path_corner_corner_nw_v2.mtl
o grass_path_corner_corner_nw_v2
v 0.00000 0.07000 1.00000
v 1.00000 0.07000 1.00000
v 0.00000 0.07000 0.00000
v 0.00000 0.07000 0.00000
v 1.00000 0.07000 1.00000
v 1.00000 0.07000 0.00000
vt 1.00000 -0.05625
vt 0.75000 -0.94375
vt 0.00000 -0.05625
vt 0.00000 -0.05625
vt 1.00000 -0.94375
vt 1.00000 -0.05625
vn 0.0000 1.0000 0.0000
vn 0.0000 1.0000 0.0000
vn 0.0000 1.0000 0.0000
vn 0.0000 1.0000 0.0000
vn 0.0000 1.0000 0.0000
vn 0.0000 1.0000 0.0000
g grass_path_corner_corner_nw_v2_0
usemtl michi03a
f 1/1/1 2/2/2 3/3/3
f 4/4/4 5/5/5 6/6/6
