# grass_path_center
# generated by tools/assets/build-tiles.js — do not edit
mtllib grass_path_center.mtl
o grass_path_center
v -0.00501 0.07000 -0.00501
v 1.00802 0.07000 1.00802
v 1.00802 0.07000 -0.00501
v -0.00501 0.07000 -0.00501
v -0.00501 0.07000 1.00802
v 1.00802 0.07000 1.00802
vt 0.00000 0.00000
vt 1.00000 1.00000
vt 1.00000 0.00000
vt 0.00000 0.00000
vt 0.00000 1.00000
vt 1.00000 1.00000
vn 0.0000 1.0000 0.0000
vn 0.0000 1.0000 0.0000
vn 0.0000 1.0000 0.0000
vn 0.0000 1.0000 0.0000
vn 0.0000 1.0000 0.0000
vn 0.0000 1.0000 0.0000
g grass_path_center_0
usemtl michi01b
f 1/1/1 2/2/2 3/3/3
f 4/4/4 5/5/5 6/6/6
