# rot_dirtpatch
# generated by tools/assets/build-tiles.js — do not edit
mtllib rot_dirtpatch.mtl
o rot_dirtpatch
v -0.25543 0.12500 -0.10416
v 0.47979 0.12500 1.10373
v 0.71613 0.12500 0.13218
v -0.25543 0.12500 -0.10416
v -0.49224 0.12500 0.86825
v 0.47979 0.12500 1.10373
vt 1.00000 1.00000
vt 0.00000 0.00000
vt 0.00000 1.00000
vt 1.00000 1.00000
vt 1.00000 0.00000
vt 0.00000 0.00000
vn 0.0000 1.0000 0.0000
vn 0.0000 1.0000 0.0000
vn 0.0000 1.0000 0.0000
vn 0.0000 1.0000 0.0000
vn 0.0000 1.0000 0.0000
vn 0.0000 1.0000 0.0000
g rot_dirtpatch_0
usemtl michi_hibi
f 1/1/1 2/2/2 3/3/3
f 4/4/4 5/5/5 6/6/6
