# grass_small
# generated by tools/assets/build-tiles.js — do not edit
mtllib grass_small.mtl
o grass_small
v 1.00000 0.06250 1.00000
v 0.00000 0.06250 0.00000
v 0.00000 0.06250 1.00000
v 1.00000 0.06250 1.00000
v 1.00000 0.06250 0.00000
v 0.00000 0.06250 0.00000
vt 1.00000 0.00000
vt 0.00000 -1.00000
vt 0.00000 0.00000
vt 1.00000 0.00000
vt 1.00000 -1.00000
vt 0.00000 -1.00000
vn 0.0000 1.0000 0.0000
vn 0.0000 1.0000 0.0000
vn 0.0000 1.0000 0.0000
vn 0.0000 1.0000 0.0000
vn 0.0000 1.0000 0.0000
vn 0.0000 1.0000 0.0000
g grass_small_0
usemtl grass01_a
f 1/1/1 2/2/2 3/3/3
f 4/4/4 5/5/5 6/6/6
