# ice_path_edge_n_v4
# generated by tools/assets/build-tiles.js — do not edit
mtllib ice_path_edge_n_v4.mtl
o ice_path_edge_n_v4
v 0.00000 0.00000 1.00000
v 1.00000 0.00000 0.00000
v 0.00000 0.00000 0.00000
v 0.00000 0.00000 1.00000
v 1.00000 0.00000 1.00000
v 1.00000 0.00000 0.00000
vt 0.48828 0.50000
vt 0.01172 0.00000
vt 0.01172 0.50000
vt 0.48828 0.50000
vt 0.48828 0.00000
vt 0.01172 0.00000
vn 0.0000 1.0000 0.0000
vn 0.0000 1.0000 0.0000
vn 0.0000 1.0000 0.0000
vn 0.0000 1.0000 0.0000
vn 0.0000 1.0000 0.0000
vn 0.0000 1.0000 0.0000
g ice_path_edge_n_v4_0
usemtl grass02_r
f 1/1/1 2/2/2 3/3/3
f 4/4/4 5/5/5 6/6/6
