# tree_tileable
# generated by tools/assets/build-tiles.js — do not edit
mtllib tree_tileable.mtl
o tree_tileable
v 2.00000 0.00000 2.00000
v 0.00000 0.00000 0.00000
v 0.00000 0.00000 2.00000
v 2.00000 0.00000 2.00000
v 2.00000 0.00000 0.00000
v 0.00000 0.00000 0.00000
vt 0.00000 0.00000
vt -1.00000 -1.00000
vt -1.00000 0.00000
vt 0.00000 0.00000
vt 0.00000 -1.00000
vt -1.00000 -1.00000
vn 0.0000 1.0000 0.0000
vn 0.0000 1.0000 0.0000
vn 0.0000 1.0000 0.0000
vn 0.0000 1.0000 0.0000
vn 0.0000 1.0000 0.0000
vn 0.0000 1.0000 0.0000
g tree_tileable_0
usemtl tree01_un
f 1/1/1 2/2/2 3/3/3
f 4/4/4 5/5/5 6/6/6
v 2.00000 3.08398 2.98535
v 0.00000 0.00000 0.43750
v 0.00000 3.08398 2.98535
v 2.00000 3.08398 2.98535
v 2.00000 0.00000 0.43750
v 0.00000 0.00000 0.43750
vt 0.50000 0.00000
vt 0.00000 -1.00000
vt 0.00000 0.00000
vt 0.50000 0.00000
vt 0.50000 -1.00000
vt 0.00000 -1.00000
vn 0.0000 0.6365 -0.7712
vn 0.0000 0.6365 -0.7712
vn 0.0000 0.6365 -0.7712
vn 0.0000 0.6365 -0.7712
vn 0.0000 0.6365 -0.7712
vn 0.0000 0.6365 -0.7712
g tree_tileable_1
usemtl tree01_re
f 7/7/7 8/8/8 9/9/9
f 10/10/10 11/11/11 12/12/12
