# Blender 5.2.1 LTS
# www.blender.org
mtllib hedge.mtl
o pt-overworld-7__hedge
v 0.000000 0.000000 0.000000
v 1.000000 0.000000 0.000000
v 1.000000 0.000000 0.420000
v 0.000000 0.000000 0.420000
v 1.000000 1.000000 0.000000
v 0.000000 1.000000 0.000000
v 0.000000 1.000000 0.420000
v 1.000000 1.000000 0.420000
v 1.000000 0.000000 0.000000
v 1.000000 1.000000 0.000000
v 1.000000 1.000000 0.420000
v 1.000000 0.000000 0.420000
v 0.000000 1.000000 0.000000
v 0.000000 0.000000 0.000000
v 0.000000 0.000000 0.420000
v 0.000000 1.000000 0.420000
v 1.000000 0.500000 0.420000
v 0.853553 0.853553 0.420000
v 0.500000 1.000000 0.420000
v 0.146447 0.853553 0.420000
v 0.000000 0.500000 0.420000
v 0.146447 0.146447 0.420000
v 0.500000 0.000000 0.420000
v 0.853553 0.146447 0.420000
v 0.960000 0.500000 0.613333
v 0.825269 0.825269 0.613333
v 0.500000 0.960000 0.613333
v 0.174731 0.825269 0.613333
v 0.040000 0.500000 0.613333
v 0.174731 0.174731 0.613333
v 0.500000 0.040000 0.613333
v 0.825269 0.174731 0.613333
v 0.800000 0.500000 0.806667
v 0.712132 0.712132 0.806667
v 0.500000 0.800000 0.806667
v 0.287868 0.712132 0.806667
v 0.200000 0.500000 0.806667
v 0.287868 0.287868 0.806667
v 0.500000 0.200000 0.806667
v 0.712132 0.287868 0.806667
vn -0.0000 -1.0000 -0.0000
vn -0.0000 1.0000 -0.0000
vn 1.0000 -0.0000 -0.0000
vn -1.0000 -0.0000 -0.0000
vn 0.9075 0.3759 0.1877
vn 0.3759 0.9075 0.1877
vn -0.3759 0.9075 0.1877
vn -0.9075 0.3759 0.1877
vn -0.9075 -0.3759 0.1877
vn -0.3759 -0.9075 0.1877
vn 0.3759 -0.9075 0.1877
vn 0.9075 -0.3759 0.1877
vn 0.7339 0.3040 0.6074
vn 0.3040 0.7339 0.6074
vn -0.3040 0.7339 0.6074
vn -0.7339 0.3040 0.6074
vn -0.7339 -0.3040 0.6074
vn -0.3040 -0.7339 0.6074
vn 0.3040 -0.7339 0.6074
vn 0.7339 -0.3040 0.6074
vn -0.0000 -0.0000 1.0000
vt 0.750000 0.250000
vt 0.515625 0.348437
vt 0.515625 0.250000
vt 0.574219 0.355469
vt 0.515625 0.414062
vt 0.515625 0.355469
vt 0.632812 0.355469
vt 0.574219 0.414062
vt 0.691406 0.355469
vt 0.632812 0.414062
vt 0.750000 0.355469
vt 0.691406 0.414062
vt 0.750000 0.414062
vt 0.515625 0.472656
vt 0.632812 0.472656
vt 0.574219 0.472656
vt 0.691406 0.472656
vt 0.750000 0.472656
vt 0.583094 0.451562
vt 0.682531 0.451562
vt 0.750000 0.348437
vt 0.703125 0.451562
vt 0.632812 0.451562
vt 0.562500 0.451562
s 0
usemtl imped_lm53.001
f 2/1/1 4/2/1 1/3/1
f 6/1/2 8/2/2 5/3/2
f 10/1/3 12/2/3 9/3/3
f 14/1/4 16/2/4 13/3/4
f 18/4/5 25/5/5 17/6/5
f 19/7/6 26/8/6 18/4/6
f 20/9/7 27/10/7 19/7/7
f 21/11/8 28/12/8 20/9/8
f 22/9/9 29/13/9 21/11/9
f 23/7/10 30/12/10 22/9/10
f 24/4/11 31/10/11 23/7/11
f 17/6/12 32/8/12 24/4/12
f 26/8/13 33/14/13 25/5/13
f 26/8/14 35/15/14 34/16/14
f 27/10/15 36/17/15 35/15/15
f 29/13/16 36/17/16 28/12/16
f 30/12/17 37/18/17 29/13/17
f 31/10/18 38/17/18 30/12/18
f 32/8/19 39/15/19 31/10/19
f 25/5/20 40/16/20 32/8/20
f 36/19/21 38/19/21 40/20/21
f 2/1/1 3/21/1 4/2/1
f 6/1/2 7/21/2 8/2/2
f 10/1/3 11/21/3 12/2/3
f 14/1/4 15/21/4 16/2/4
f 18/4/5 26/8/5 25/5/5
f 19/7/6 27/10/6 26/8/6
f 20/9/7 28/12/7 27/10/7
f 21/11/8 29/13/8 28/12/8
f 22/9/9 30/12/9 29/13/9
f 23/7/10 31/10/10 30/12/10
f 24/4/11 32/8/11 31/10/11
f 17/6/12 25/5/12 32/8/12
f 26/8/13 34/16/13 33/14/13
f 26/8/14 27/10/14 35/15/14
f 27/10/15 28/12/15 36/17/15
f 29/13/16 37/18/16 36/17/16
f 30/12/17 38/17/17 37/18/17
f 31/10/18 39/15/18 38/17/18
f 32/8/19 40/16/19 39/15/19
f 25/5/20 33/14/20 40/16/20
f 40/20/21 33/22/21 34/20/21
f 34/20/21 35/23/21 36/19/21
f 36/19/21 37/24/21 38/19/21
f 38/19/21 39/23/21 40/20/21
f 40/20/21 34/20/21 36/19/21
