# artroad3_edge_e
# generated by tools/assets/build-tiles.js — do not edit
mtllib artroad3_edge_e.mtl
o artroad3_edge_e
v 1.00000 0.00000 0.00000
v 0.00000 0.00000 1.00000
v 1.00000 0.00000 1.00000
v 1.00000 0.00000 0.00000
v 0.00000 0.00000 0.00000
v 0.00000 0.00000 1.00000
vt -0.00000 -0.99219
vt 0.50000 -0.50781
vt 0.50000 -0.99219
vt -0.00000 -0.99219
vt -0.00000 -0.50781
vt 0.50000 -0.50781
vn 0.0000 1.0000 0.0000
vn 0.0000 1.0000 0.0000
vn 0.0000 1.0000 0.0000
vn 0.0000 1.0000 0.0000
vn 0.0000 1.0000 0.0000
vn 0.0000 1.0000 0.0000
g artroad3_edge_e_0
usemtl blueglayp_lm64
f 1/1/1 2/2/2 3/3/3
f 4/4/4 5/5/5 6/6/6
