# gcorout_corner_nw
# generated by tools/assets/build-tiles.js — do not edit
mtllib gcorout_corner_nw.mtl
o gcorout_corner_nw
v 1.00000 0.00000 1.00000
v 0.00000 0.00000 0.00000
v 0.00000 0.00000 1.00000
v 0.00000 0.00000 0.00000
v 1.00000 0.00000 1.00000
v 1.00000 0.00000 0.00000
vt 0.99609 -0.99609
vt 0.00391 -0.00391
vt 0.99609 -0.00391
vt 0.00391 -0.00391
vt 0.99609 -0.99609
vt 0.00391 -0.99609
vn 0.0000 1.0000 0.0000
vn 0.0000 1.0000 0.0000
vn 0.0000 1.0000 0.0000
vn 0.0000 1.0000 0.0000
vn 0.0000 1.0000 0.0000
vn 0.0000 1.0000 0.0000
g gcorout_corner_nw_0
usemtl c3_road_ko_lm24
f 1/1/1 2/2/2 3/3/3
f 4/4/4 5/5/5 6/6/6
