# grasspathcorner_v2
# generated by tools/assets/build-tiles.js — do not edit
mtllib grasspathcorner_v2.mtl
o grasspathcorner_v2
v 1.00000 0.00000 0.00000
v 0.00000 0.00000 1.00000
v 1.00000 0.00000 1.00000
v 1.00000 0.00000 0.00000
v 0.00000 0.00000 0.00000
v 0.00000 0.00000 1.00000
vt 0.49219 -0.00781
vt 0.00781 -0.49219
vt 0.00781 -0.00781
vt 0.49219 -0.00781
vt 0.49219 -0.49219
vt 0.00781 -0.49219
vn 0.0000 1.0000 0.0000
vn 0.0000 1.0000 0.0000
vn 0.0000 1.0000 0.0000
vn 0.0000 1.0000 0.0000
vn 0.0000 1.0000 0.0000
vn 0.0000 1.0000 0.0000
g grasspathcorner_v2_0
usemtl puddlep
f 1/1/1 2/2/2 3/3/3
f 4/4/4 5/5/5 6/6/6
