# Blender 5.2.1 LTS
# www.blender.org
mtllib hedge.mtl
o pt-forest__hedge
v 0.000000 0.000000 0.000000
v 1.000000 0.000000 0.000000
v 1.000000 0.000000 0.448000
v 0.000000 0.000000 0.448000
v 1.000000 1.000000 0.000000
v 0.000000 1.000000 0.000000
v 0.000000 1.000000 0.448000
v 1.000000 1.000000 0.448000
v 1.000000 0.000000 0.000000
v 1.000000 1.000000 0.000000
v 1.000000 1.000000 0.448000
v 1.000000 0.000000 0.448000
v 0.000000 1.000000 0.000000
v 0.000000 0.000000 0.000000
v 0.000000 0.000000 0.448000
v 0.000000 1.000000 0.448000
v 1.000000 0.500000 0.448000
v 0.853553 0.853553 0.448000
v 0.500000 1.000000 0.448000
v 0.146447 0.853553 0.448000
v 0.000000 0.500000 0.448000
v 0.146447 0.146447 0.448000
v 0.500000 0.000000 0.448000
v 0.853553 0.146447 0.448000
v 0.960000 0.500000 0.654222
v 0.825269 0.825269 0.654222
v 0.500000 0.960000 0.654222
v 0.174731 0.825269 0.654222
v 0.040000 0.500000 0.654222
v 0.174731 0.174731 0.654222
v 0.500000 0.040000 0.654222
v 0.825269 0.174731 0.654222
v 0.800000 0.500000 0.860444
v 0.712132 0.712132 0.860444
v 0.500000 0.800000 0.860444
v 0.287868 0.712132 0.860444
v 0.200000 0.500000 0.860444
v 0.287868 0.287868 0.860444
v 0.500000 0.200000 0.860444
v 0.712132 0.287868 0.860444
vn -0.0000 -1.0000 -0.0000
vn -0.0000 1.0000 -0.0000
vn 1.0000 -0.0000 -0.0000
vn -1.0000 -0.0000 -0.0000
vn 0.9094 0.3767 0.1764
vn 0.3767 0.9094 0.1764
vn -0.3767 0.9094 0.1764
vn -0.9094 0.3767 0.1764
vn -0.9094 -0.3767 0.1764
vn -0.3767 -0.9094 0.1764
vn 0.3767 -0.9094 0.1764
vn 0.9094 -0.3767 0.1764
vn 0.7509 0.3110 0.5826
vn 0.3110 0.7509 0.5826
vn -0.3110 0.7509 0.5826
vn -0.7509 0.3110 0.5826
vn -0.7509 -0.3110 0.5826
vn -0.3110 -0.7509 0.5826
vn 0.3110 -0.7509 0.5826
vn 0.7509 -0.3110 0.5826
vn -0.0000 -0.0000 1.0000
vt 0.750000 0.250000
vt 0.515625 0.355000
vt 0.515625 0.250000
vt 0.574219 0.362500
vt 0.515625 0.425000
vt 0.515625 0.362500
vt 0.632812 0.362500
vt 0.574219 0.425000
vt 0.691406 0.362500
vt 0.632812 0.425000
vt 0.750000 0.362500
vt 0.691406 0.425000
vt 0.750000 0.425000
vt 0.515625 0.487500
vt 0.574219 0.487500
vt 0.632812 0.487500
vt 0.750000 0.487500
vt 0.691406 0.487500
vt 0.583094 0.465000
vt 0.682531 0.465000
vt 0.750000 0.355000
vt 0.703125 0.465000
vt 0.632812 0.465000
vt 0.562500 0.465000
s 0
usemtl imped.005
f 2/1/1 4/2/1 1/3/1
f 6/1/2 8/2/2 5/3/2
f 10/1/3 12/2/3 9/3/3
f 14/1/4 16/2/4 13/3/4
f 18/4/5 25/5/5 17/6/5
f 19/7/6 26/8/6 18/4/6
f 20/9/7 27/10/7 19/7/7
f 21/11/8 28/12/8 20/9/8
f 22/9/9 29/13/9 21/11/9
f 23/7/10 30/12/10 22/9/10
f 24/4/11 31/10/11 23/7/11
f 24/4/12 25/5/12 32/8/12
f 26/8/13 33/14/13 25/5/13
f 27/10/14 34/15/14 26/8/14
f 28/12/15 35/16/15 27/10/15
f 28/12/16 37/17/16 36/18/16
f 30/12/17 37/17/17 29/13/17
f 31/10/18 38/18/18 30/12/18
f 32/8/19 39/16/19 31/10/19
f 25/5/20 40/15/20 32/8/20
f 36/19/21 38/19/21 40/20/21
f 2/1/1 3/21/1 4/2/1
f 6/1/2 7/21/2 8/2/2
f 10/1/3 11/21/3 12/2/3
f 14/1/4 15/21/4 16/2/4
f 18/4/5 26/8/5 25/5/5
f 19/7/6 27/10/6 26/8/6
f 20/9/7 28/12/7 27/10/7
f 21/11/8 29/13/8 28/12/8
f 22/9/9 30/12/9 29/13/9
f 23/7/10 31/10/10 30/12/10
f 24/4/11 32/8/11 31/10/11
f 24/4/12 17/6/12 25/5/12
f 26/8/13 34/15/13 33/14/13
f 27/10/14 35/16/14 34/15/14
f 28/12/15 36/18/15 35/16/15
f 28/12/16 29/13/16 37/17/16
f 30/12/17 38/18/17 37/17/17
f 31/10/18 39/16/18 38/18/18
f 32/8/19 40/15/19 39/16/19
f 25/5/20 33/14/20 40/15/20
f 40/20/21 33/22/21 34/20/21
f 34/20/21 35/23/21 36/19/21
f 36/19/21 37/24/21 38/19/21
f 38/19/21 39/23/21 40/20/21
f 40/20/21 34/20/21 36/19/21
