# stairs_v14
# generated by tools/assets/build-tiles.js — do not edit
mtllib stairs_v14.mtl
o stairs_v14
v 0.00000 1.00000 1.59375
v 0.00000 5.09375 -2.48438
v 0.00000 1.00000 -2.48438
vt -3.09375 -1.00000
vt 1.11328 -0.00781
vt 1.11328 -1.00000
vn -0.8845 -0.1481 0.4425
vn -1.0000 0.0000 0.0000
vn -0.8506 0.3718 0.3717
g stairs_v14_0
usemtl yamagake01
f 1/1/1 2/2/2 3/3/3
v 0.00000 1.00000 1.59375
v 0.00000 0.00000 -2.48438
v 0.00000 0.03125 2.56250
v 0.00000 1.00000 1.59375
v 0.00000 1.00000 -2.48438
v 0.00000 0.00000 -2.48438
vt 1.82861 1.00000
vt -2.37548 0.00000
vt 3.01611 0.00000
vt 1.82861 1.00000
vt -2.37548 1.00000
vt -2.37548 0.00000
vn -1.0000 0.0000 0.0000
vn -1.0000 0.0000 0.0000
vn -1.0000 0.0000 0.0000
vn -1.0000 0.0000 0.0000
vn -1.0000 0.0000 0.0000
vn -1.0000 0.0000 0.0000
g stairs_v14_1
usemtl gake01a
f 4/4/4 5/5/5 6/6/6
f 7/7/7 8/8/8 9/9/9
v 0.12500 5.09375 -2.50000
v 1.00000 5.09375 -2.00000
v 1.00000 5.09375 -2.50000
v 0.12500 5.09375 -2.50000
v 0.12500 5.09375 -2.00000
v 1.00000 5.09375 -2.00000
v 0.00000 5.21875 -1.84375
v 0.12500 5.09375 -2.50000
v 0.00000 5.09375 -2.48438
v 0.00000 5.21875 -1.84375
v 0.12500 5.21875 -1.84375
v 0.12500 5.09375 -2.50000
v 0.00000 5.21875 -1.84375
v 0.12500 0.15625 3.21875
v 0.12500 5.21875 -1.84375
v 0.00000 5.21875 -1.84375
v 0.00000 0.15625 3.21875
v 0.12500 0.15625 3.21875
v 0.12500 5.09375 -2.00000
v 1.00000 0.09375 3.00000
v 1.00000 5.09375 -2.00000
v 0.12500 5.09375 -2.00000
v 0.12500 0.09375 3.00000
v 1.00000 0.09375 3.00000
v 0.12500 0.03125 2.56250
v 0.12500 5.21875 -1.84375
v 0.12500 0.15625 3.21875
v 0.12500 0.03125 2.56250
v 0.12500 5.09375 -2.50000
v 0.12500 5.21875 -1.84375
v 0.00000 0.03125 2.56250
v 0.00000 5.21875 -1.84375
v 0.00000 5.09375 -2.48438
v 0.00000 0.03125 2.56250
v 0.00000 0.15625 3.21875
v 0.00000 5.21875 -1.84375
vt -0.83594 0.00000
vt -0.54261 -0.43750
vt -0.54261 0.00000
vt -0.83594 0.00000
vt -0.83594 -0.43750
vt -0.54261 -0.43750
vt -1.89453 -0.70313
vt -1.98047 -0.54688
vt -1.89453 -0.54688
vt -1.89453 -0.70313
vt -1.98047 -0.70313
vt -1.98047 -0.54688
vt -1.98438 -0.43750
vt -1.89063 -0.06250
vt -1.89063 -0.43750
vt -1.98438 -0.43750
vt -1.98438 -0.06250
vt -1.89063 -0.06250
vt -0.83594 -0.43750
vt -0.54261 -18.00000
vt -0.54261 -0.43750
vt -0.83594 -0.43750
vt -0.83594 -18.00000
vt -0.54261 -18.00000
vt -1.93750 -0.87500
vt -1.93750 -0.87500
vt -1.93750 -0.87500
vt -1.93750 -0.87500
vt -1.93750 -0.87500
vt -1.93750 -0.87500
vt -1.93750 -0.87500
vt -1.93750 -0.87500
vt -1.93750 -0.87500
vt -1.93750 -0.87500
vt -1.93750 -0.87500
vt -1.93750 -0.87500
vn 0.0000 1.0000 0.0000
vn 0.2692 0.6943 0.6674
vn 0.0000 1.0000 0.0000
vn 0.0000 1.0000 0.0000
vn -0.2211 0.9752 -0.0107
vn 0.2692 0.6943 0.6674
vn -0.6314 0.7557 0.1742
vn 0.6198 0.7679 -0.1617
vn -0.4554 0.8607 -0.2277
vn -0.6314 0.7557 0.1742
vn 0.6034 0.7772 0.1787
vn 0.6198 0.7679 -0.1617
vn -0.6314 0.7557 0.1742
vn 0.5268 0.6010 0.6010
vn 0.6034 0.7772 0.1787
vn -0.6314 0.7557 0.1742
vn -0.5268 0.6010 0.6010
vn 0.5268 0.6010 0.6010
vn -0.2211 0.9752 -0.0107
vn -0.5000 0.8536 0.1465
vn 0.2692 0.6943 0.6674
vn -0.2211 0.9752 -0.0107
vn 0.0000 1.0000 0.0000
vn -0.5000 0.8536 0.1465
vn 1.0000 0.0000 0.0000
vn 0.6034 0.7772 0.1787
vn 0.5268 0.6010 0.6010
vn 1.0000 0.0000 0.0000
vn 0.6198 0.7679 -0.1617
vn 0.6034 0.7772 0.1787
vn -1.0000 0.0000 0.0000
vn -0.6314 0.7557 0.1742
vn -0.4554 0.8607 -0.2277
vn -1.0000 0.0000 0.0000
vn -0.5268 0.6010 0.6010
vn -0.6314 0.7557 0.1742
g stairs_v14_2
usemtl kaidan01a
f 10/10/10 11/11/11 12/12/12
f 13/13/13 14/14/14 15/15/15
f 16/16/16 17/17/17 18/18/18
f 19/19/19 20/20/20 21/21/21
f 22/22/22 23/23/23 24/24/24
f 25/25/25 26/26/26 27/27/27
f 28/28/28 29/29/29 30/30/30
f 31/31/31 32/32/32 33/33/33
f 34/34/34 35/35/35 36/36/36
f 37/37/37 38/38/38 39/39/39
f 40/40/40 41/41/41 42/42/42
f 43/43/43 44/44/44 45/45/45
