# stairs_v19
# generated by tools/assets/build-tiles.js — do not edit
mtllib stairs_v19.mtl
o stairs_v19
v 6.50000 5.09375 0.87500
v 6.00000 5.09375 0.00000
v 6.00000 5.09375 0.87500
v 6.50000 5.09375 0.87500
v 6.50000 5.09375 0.00000
v 6.00000 5.09375 0.00000
v 5.84375 5.21875 1.00000
v 6.50000 5.09375 0.87500
v 5.84375 5.21875 0.87500
v 5.84375 5.21875 1.00000
v 6.50000 5.09375 1.00000
v 6.50000 5.09375 0.87500
v 5.84375 5.21875 1.00000
v 0.78125 0.15625 0.87500
v 0.78125 0.15625 1.00000
v 5.84375 5.21875 1.00000
v 5.84375 5.21875 0.87500
v 0.78125 0.15625 0.87500
v 6.00000 5.09375 0.87500
v 1.00000 0.09375 0.00000
v 1.00000 0.09375 0.87500
v 6.00000 5.09375 0.87500
v 6.00000 5.09375 0.00000
v 1.00000 0.09375 0.00000
v 1.43750 0.03125 0.87500
v 5.84375 5.21875 0.87500
v 6.50000 5.09375 0.87500
v 1.43750 0.03125 0.87500
v 0.78125 0.15625 0.87500
v 5.84375 5.21875 0.87500
v 1.43750 0.03125 1.00000
v 5.84375 5.21875 1.00000
v 0.78125 0.15625 1.00000
v 1.43750 0.03125 1.00000
v 6.50000 5.09375 1.00000
v 5.84375 5.21875 1.00000
vt -0.83594 0.00000
vt -0.54261 -0.43750
vt -0.83594 -0.43750
vt -0.83594 0.00000
vt -0.54261 0.00000
vt -0.54261 -0.43750
vt -1.89453 -0.70313
vt -1.98047 -0.54688
vt -1.98047 -0.70313
vt -1.89453 -0.70313
vt -1.89453 -0.54688
vt -1.98047 -0.54688
vt -1.98438 -0.43750
vt -1.89063 -0.06250
vt -1.98438 -0.06250
vt -1.98438 -0.43750
vt -1.89063 -0.43750
vt -1.89063 -0.06250
vt -0.83594 -0.43750
vt -0.54261 -18.00000
vt -0.83594 -18.00000
vt -0.83594 -0.43750
vt -0.54261 -0.43750
vt -0.54261 -18.00000
vt -1.93750 -0.87500
vt -1.93750 -0.87500
vt -1.93750 -0.87500
vt -1.93750 -0.87500
vt -1.93750 -0.87500
vt -1.93750 -0.87500
vt -1.93750 -0.87500
vt -1.93750 -0.87500
vt -1.93750 -0.87500
vt -1.93750 -0.87500
vt -1.93750 -0.87500
vt -1.93750 -0.87500
vn 0.0000 1.0000 0.0000
vn -0.0191 0.9629 -0.2692
vn -0.6971 0.6820 0.2211
vn 0.0000 1.0000 0.0000
vn 0.0000 1.0000 0.0000
vn -0.0191 0.9629 -0.2692
vn -0.2419 0.7861 0.5688
vn 0.2342 0.8417 -0.4864
vn -0.2147 0.7901 -0.5742
vn -0.2419 0.7861 0.5688
vn 0.1306 0.7926 0.5956
vn 0.2342 0.8417 -0.4864
vn -0.2419 0.7861 0.5688
vn -0.6010 0.6010 -0.5268
vn -0.6010 0.6010 0.5268
vn -0.2419 0.7861 0.5688
vn -0.2147 0.7901 -0.5742
vn -0.6010 0.6010 -0.5268
vn -0.6971 0.6820 0.2211
vn -0.1465 0.8535 0.5000
vn -0.5000 0.5000 -0.7071
vn -0.6971 0.6820 0.2211
vn -0.0191 0.9629 -0.2692
vn -0.1465 0.8535 0.5000
vn 0.0000 0.0000 -1.0000
vn -0.2147 0.7901 -0.5742
vn 0.2342 0.8417 -0.4864
vn 0.0000 0.0000 -1.0000
vn -0.6010 0.6010 -0.5268
vn -0.2147 0.7901 -0.5742
vn 0.0000 0.0000 1.0000
vn -0.2419 0.7861 0.5688
vn -0.6010 0.6010 0.5268
vn 0.0000 0.0000 1.0000
vn 0.1306 0.7926 0.5956
vn -0.2419 0.7861 0.5688
g stairs_v19_0
usemtl kaidan01a
f 1/1/1 2/2/2 3/3/3
f 4/4/4 5/5/5 6/6/6
f 7/7/7 8/8/8 9/9/9
f 10/10/10 11/11/11 12/12/12
f 13/13/13 14/14/14 15/15/15
f 16/16/16 17/17/17 18/18/18
f 19/19/19 20/20/20 21/21/21
f 22/22/22 23/23/23 24/24/24
f 25/25/25 26/26/26 27/27/27
f 28/28/28 29/29/29 30/30/30
f 31/31/31 32/32/32 33/33/33
f 34/34/34 35/35/35 36/36/36
