# stairs_v20
# generated by tools/assets/build-tiles.js — do not edit
mtllib stairs_v20.mtl
o stairs_v20
v -2.50000 5.09375 0.87500
v -2.00000 5.09375 -0.00000
v -2.50000 5.09375 -0.00000
v -2.50000 5.09375 0.87500
v -2.00000 5.09375 0.87500
v -2.00000 5.09375 -0.00000
v -1.84375 5.21875 1.00000
v -2.50000 5.09375 0.87500
v -2.50000 5.09375 1.00000
v -1.84375 5.21875 1.00000
v -1.84375 5.21875 0.87500
v -2.50000 5.09375 0.87500
v -1.84375 5.21875 1.00000
v 3.21875 0.15625 0.87500
v -1.84375 5.21875 0.87500
v -1.84375 5.21875 1.00000
v 3.21875 0.15625 1.00000
v 3.21875 0.15625 0.87500
v -2.00000 5.09375 0.87500
v 3.00000 0.09375 0.00000
v -2.00000 5.09375 -0.00000
v -2.00000 5.09375 0.87500
v 3.00000 0.09375 0.87500
v 3.00000 0.09375 0.00000
v 2.56250 0.03125 0.87500
v -1.84375 5.21875 0.87500
v 3.21875 0.15625 0.87500
v 2.56250 0.03125 0.87500
v -2.50000 5.09375 0.87500
v -1.84375 5.21875 0.87500
v 2.56250 0.03125 1.00000
v -1.84375 5.21875 1.00000
v -2.50000 5.09375 1.00000
v 2.56250 0.03125 1.00000
v 3.21875 0.15625 1.00000
v -1.84375 5.21875 1.00000
vt -0.83594 0.00000
vt -0.54261 -0.43750
vt -0.54261 0.00000
vt -0.83594 0.00000
vt -0.83594 -0.43750
vt -0.54261 -0.43750
vt -1.89453 -0.70313
vt -1.98047 -0.54688
vt -1.89453 -0.54688
vt -1.89453 -0.70313
vt -1.98047 -0.70313
vt -1.98047 -0.54688
vt -1.98438 -0.43750
vt -1.89063 -0.06250
vt -1.89063 -0.43750
vt -1.98438 -0.43750
vt -1.98438 -0.06250
vt -1.89063 -0.06250
vt -0.83594 -0.43750
vt -0.54261 -18.00000
vt -0.54261 -0.43750
vt -0.83594 -0.43750
vt -0.83594 -18.00000
vt -0.54261 -18.00000
vt -1.93750 -0.87500
vt -1.93750 -0.87500
vt -1.93750 -0.87500
vt -1.93750 -0.87500
vt -1.93750 -0.87500
vt -1.93750 -0.87500
vt -1.93750 -0.87500
vt -1.93750 -0.87500
vt -1.93750 -0.87500
vt -1.93750 -0.87500
vt -1.93750 -0.87500
vt -1.93750 -0.87500
vn 0.0000 1.0000 0.0000
vn 0.6674 0.6943 -0.2692
vn 0.0000 1.0000 0.0000
vn 0.0000 1.0000 0.0000
vn -0.0107 0.9752 0.2211
vn 0.6674 0.6943 -0.2692
vn 0.1757 0.7577 0.6285
vn -0.1586 0.7862 -0.5972
vn -0.2176 0.8564 0.4682
vn 0.1757 0.7577 0.6285
vn 0.1789 0.7747 -0.6065
vn -0.1586 0.7862 -0.5972
vn 0.1757 0.7577 0.6285
vn 0.6010 0.6010 -0.5268
vn 0.1789 0.7747 -0.6065
vn 0.1757 0.7577 0.6285
vn 0.6010 0.6010 0.5268
vn 0.6010 0.6010 -0.5268
vn -0.0107 0.9752 0.2211
vn 0.1465 0.8536 0.5000
vn 0.6674 0.6943 -0.2692
vn -0.0107 0.9752 0.2211
vn 0.0000 1.0000 0.0000
vn 0.1465 0.8536 0.5000
vn 0.0000 0.0000 -1.0000
vn 0.1789 0.7747 -0.6065
vn 0.6010 0.6010 -0.5268
vn 0.0000 0.0000 -1.0000
vn -0.1586 0.7862 -0.5972
vn 0.1789 0.7747 -0.6065
vn 0.0000 0.0000 1.0000
vn 0.1757 0.7577 0.6285
vn -0.2176 0.8564 0.4682
vn 0.0000 0.0000 1.0000
vn 0.6010 0.6010 0.5268
vn 0.1757 0.7577 0.6285
g stairs_v20_0
usemtl kaidan01a
f 1/1/1 2/2/2 3/3/3
f 4/4/4 5/5/5 6/6/6
f 7/7/7 8/8/8 9/9/9
f 10/10/10 11/11/11 12/12/12
f 13/13/13 14/14/14 15/15/15
f 16/16/16 17/17/17 18/18/18
f 19/19/19 20/20/20 21/21/21
f 22/22/22 23/23/23 24/24/24
f 25/25/25 26/26/26 27/27/27
f 28/28/28 29/29/29 30/30/30
f 31/31/31 32/32/32 33/33/33
f 34/34/34 35/35/35 36/36/36
