# stairs_size2_v4
# generated by tools/assets/build-tiles.js — do not edit
mtllib stairs_size2_v4.mtl
o stairs_size2_v4
v 1.21875 0.11250 1.87500
v 0.15625 1.17500 2.00000
v 1.21875 0.11250 2.00000
v 1.21875 0.11250 1.87500
v 0.15625 1.17500 1.87500
v 0.15625 1.17500 2.00000
v -0.50000 1.05000 0.00000
v 0.15625 1.17500 0.12500
v 0.15625 1.17500 0.00000
v -0.50000 1.05000 0.00000
v -0.50000 1.05000 0.12500
v 0.15625 1.17500 0.12500
v -0.50000 1.05000 1.91657
v 0.00000 1.05000 1.00000
v -0.50000 1.05000 1.00000
v -0.50000 1.05000 1.91657
v 0.00000 1.05000 1.91657
v 0.00000 1.05000 1.00000
v 0.00000 1.05000 1.91657
v 1.00000 0.05000 1.00000
v 0.00000 1.05000 1.00000
v 0.00000 1.05000 1.91657
v 1.00000 0.05000 1.91657
v 1.00000 0.05000 1.00000
v 0.56250 -0.01250 1.87500
v 0.15625 1.17500 1.87500
v 1.21875 0.11250 1.87500
v 0.56250 -0.01250 1.87500
v -0.50000 1.05000 1.87500
v 0.15625 1.17500 1.87500
v 1.21875 0.11250 2.00000
v -0.50000 1.05000 2.00000
v 0.56250 -0.01250 2.00000
v 1.21875 0.11250 2.00000
v 0.15625 1.17500 2.00000
v -0.50000 1.05000 2.00000
v -0.50000 1.05000 1.87500
v 0.15625 1.17500 2.00000
v 0.15625 1.17500 1.87500
v -0.50000 1.05000 1.87500
v -0.50000 1.05000 2.00000
v 0.15625 1.17500 2.00000
v 0.15625 1.17500 0.12500
v 1.21875 0.11250 0.00000
v 0.15625 1.17500 0.00000
v 0.15625 1.17500 0.12500
v 1.21875 0.11250 0.12500
v 1.21875 0.11250 0.00000
v 0.15625 1.17500 0.00000
v 0.56250 -0.01250 0.00000
v -0.50000 1.05000 0.00000
v 0.15625 1.17500 0.00000
v 1.21875 0.11250 0.00000
v 0.56250 -0.01250 0.00000
v -0.50000 1.05000 0.12500
v 1.21875 0.11250 0.12500
v 0.15625 1.17500 0.12500
v -0.50000 1.05000 0.12500
v 0.56250 -0.01250 0.12500
v 1.21875 0.11250 0.12500
v 0.00000 1.05000 1.00000
v 1.00000 0.05000 0.08343
v 0.00000 1.05000 0.08343
v 0.00000 1.05000 1.00000
v 1.00000 0.05000 1.00000
v 1.00000 0.05000 0.08343
v -0.50000 1.05000 1.00000
v 0.00000 1.05000 0.08343
v -0.50000 1.05000 0.08343
v -0.50000 1.05000 1.00000
v 0.00000 1.05000 1.00000
v 0.00000 1.05000 0.08343
vt -1.89063 -0.06250
vt -1.98438 -0.43750
vt -1.98438 -0.06250
vt -1.89063 -0.06250
vt -1.89063 -0.43750
vt -1.98438 -0.43750
vt -1.98047 -0.54688
vt -1.89453 -0.70313
vt -1.98047 -0.70313
vt -1.98047 -0.54688
vt -1.89453 -0.54688
vt -1.89453 -0.70313
vt -0.83594 0.00000
vt -0.37500 -0.43750
vt -0.37500 0.00000
vt -0.83594 0.00000
vt -0.83594 -0.43750
vt -0.37500 -0.43750
vt -0.83594 -0.43750
vt -0.37500 -4.00000
vt -0.37500 -0.43750
vt -0.83594 -0.43750
vt -0.83594 -4.00000
vt -0.37500 -4.00000
vt -1.93750 -0.87500
vt -1.93750 -0.87500
vt -1.93750 -0.87500
vt -1.93750 -0.87500
vt -1.93750 -0.87500
vt -1.93750 -0.87500
vt -1.93750 -0.87500
vt -1.93750 -0.87500
vt -1.93750 -0.87500
vt -1.93750 -0.87500
vt -1.93750 -0.87500
vt -1.93750 -0.87500
vt -1.98047 -0.54688
vt -1.89453 -0.70313
vt -1.98047 -0.70313
vt -1.98047 -0.54688
vt -1.89453 -0.54688
vt -1.89453 -0.70313
vt -1.89063 -0.06250
vt -1.98438 -0.43750
vt -1.98438 -0.06250
vt -1.89063 -0.06250
vt -1.89063 -0.43750
vt -1.98438 -0.43750
vt -1.93750 -0.87500
vt -1.93750 -0.87500
vt -1.93750 -0.87500
vt -1.93750 -0.87500
vt -1.93750 -0.87500
vt -1.93750 -0.87500
vt -1.93750 -0.87500
vt -1.93750 -0.87500
vt -1.93750 -0.87500
vt -1.93750 -0.87500
vt -1.93750 -0.87500
vt -1.93750 -0.87500
vt -0.37500 -0.43750
vt -0.83594 -4.00000
vt -0.83594 -0.43750
vt -0.37500 -0.43750
vt -0.37500 -4.00000
vt -0.83594 -4.00000
vt -0.37500 0.00000
vt -0.83594 -0.43750
vt -0.83594 0.00000
vt -0.37500 0.00000
vt -0.37500 -0.43750
vt -0.83594 -0.43750
vn 0.6618 0.7497 0.0000
vn 0.6618 0.7497 0.0000
vn 0.6618 0.7497 0.0000
vn 0.6618 0.7497 0.0000
vn 0.6618 0.7497 0.0000
vn 0.6618 0.7497 0.0000
vn -0.3162 0.9487 0.0000
vn -0.3162 0.9487 0.0000
vn -0.3162 0.9487 0.0000
vn -0.3162 0.9487 0.0000
vn -0.3162 0.9487 0.0000
vn -0.3162 0.9487 0.0000
vn 0.0000 1.0000 0.0000
vn 0.0000 1.0000 0.0000
vn 0.0000 1.0000 0.0000
vn 0.0000 1.0000 0.0000
vn 0.0000 1.0000 0.0000
vn 0.0000 1.0000 0.0000
vn 0.0000 1.0000 0.0000
vn 0.0000 1.0000 0.0000
vn 0.0000 1.0000 0.0000
vn 0.0000 1.0000 0.0000
vn 0.0000 1.0000 0.0000
vn 0.0000 1.0000 0.0000
vn 0.0000 0.0000 -1.0000
vn 0.0000 0.0000 -1.0000
vn 0.0000 0.0000 -1.0000
vn 0.0000 0.0000 -1.0000
vn 0.0000 0.0000 -1.0000
vn 0.0000 0.0000 -1.0000
vn 0.0000 0.0000 1.0000
vn 0.0000 0.0000 1.0000
vn 0.0000 0.0000 1.0000
vn 0.0000 0.0000 1.0000
vn 0.0000 0.0000 1.0000
vn 0.0000 0.0000 1.0000
vn -0.3162 0.9487 0.0000
vn -0.3162 0.9487 0.0000
vn -0.3162 0.9487 0.0000
vn -0.3162 0.9487 0.0000
vn -0.3162 0.9487 0.0000
vn -0.3162 0.9487 0.0000
vn 0.6618 0.7497 0.0000
vn 0.6618 0.7497 0.0000
vn 0.6618 0.7497 0.0000
vn 0.6618 0.7497 0.0000
vn 0.6618 0.7497 0.0000
vn 0.6618 0.7497 0.0000
vn 0.0000 0.0000 -1.0000
vn 0.0000 0.0000 -1.0000
vn 0.0000 0.0000 -1.0000
vn 0.0000 0.0000 -1.0000
vn 0.0000 0.0000 -1.0000
vn 0.0000 0.0000 -1.0000
vn 0.0000 0.0000 1.0000
vn 0.0000 0.0000 1.0000
vn 0.0000 0.0000 1.0000
vn 0.0000 0.0000 1.0000
vn 0.0000 0.0000 1.0000
vn 0.0000 0.0000 1.0000
vn 0.0000 1.0000 0.0000
vn 0.0000 1.0000 0.0000
vn 0.0000 1.0000 0.0000
vn 0.0000 1.0000 0.0000
vn 0.0000 1.0000 0.0000
vn 0.0000 1.0000 0.0000
vn 0.0000 1.0000 0.0000
vn 0.0000 1.0000 0.0000
vn 0.0000 1.0000 0.0000
vn 0.0000 1.0000 0.0000
vn 0.0000 1.0000 0.0000
vn 0.0000 1.0000 0.0000
g stairs_size2_v4_0
usemtl kaidan01a
f 1/1/1 2/2/2 3/3/3
f 4/4/4 5/5/5 6/6/6
f 7/7/7 8/8/8 9/9/9
f 10/10/10 11/11/11 12/12/12
f 13/13/13 14/14/14 15/15/15
f 16/16/16 17/17/17 18/18/18
f 19/19/19 20/20/20 21/21/21
f 22/22/22 23/23/23 24/24/24
f 25/25/25 26/26/26 27/27/27
f 28/28/28 29/29/29 30/30/30
f 31/31/31 32/32/32 33/33/33
f 34/34/34 35/35/35 36/36/36
f 37/37/37 38/38/38 39/39/39
f 40/40/40 41/41/41 42/42/42
f 43/43/43 44/44/44 45/45/45
f 46/46/46 47/47/47 48/48/48
f 49/49/49 50/50/50 51/51/51
f 52/52/52 53/53/53 54/54/54
f 55/55/55 56/56/56 57/57/57
f 58/58/58 59/59/59 60/60/60
f 61/61/61 62/62/62 63/63/63
f 64/64/64 65/65/65 66/66/66
f 67/67/67 68/68/68 69/69/69
f 70/70/70 71/71/71 72/72/72
