# stairs_v8
# generated by tools/assets/build-tiles.js — do not edit
mtllib stairs_v8.mtl
o stairs_v8
v 1.12500 1.00000 1.00000
v 5.48438 0.75000 1.50000
v 5.48438 1.00000 1.00000
v 1.12500 1.00000 1.00000
v 1.12500 0.75000 1.50000
v 5.48438 0.75000 1.50000
v 1.12500 1.00000 1.00000
v 0.62500 0.75000 1.00000
v 1.12500 0.75000 1.50000
vt -4.00000 0.00000
vt 0.64844 -1.00000
vt 0.64844 0.00000
vt -4.00000 0.00000
vt -4.00000 -1.00000
vt 0.64844 -1.00000
vt -3.50000 0.00000
vt -4.00000 -1.00000
vt -3.00000 -1.00000
vn -0.2299 0.9703 0.0758
vn 0.2842 0.7188 0.6345
vn -0.3717 0.5946 0.7129
vn -0.2299 0.9703 0.0758
vn -0.4974 0.7689 0.4018
vn 0.2842 0.7188 0.6345
vn -0.2299 0.9703 0.0758
vn -0.6524 0.7133 0.2559
vn -0.4974 0.7689 0.4018
g stairs_v8_0
usemtl gake1_0
f 1/1/1 2/2/2 3/3/3
f 4/4/4 5/5/5 6/6/6
f 7/7/7 8/8/8 9/9/9
v 5.48438 0.75000 1.50000
v 1.12500 0.00000 2.00000
v 5.48438 0.00000 2.00000
v 5.48438 0.75000 1.50000
v 1.12500 0.75000 1.50000
v 1.12500 0.00000 2.00000
v 0.62500 0.75000 1.00000
v 0.37500 0.00000 1.75000
v 1.12500 0.75000 1.50000
v 0.62500 0.75000 1.00000
v 0.12500 0.00000 1.00000
v 0.37500 0.00000 1.75000
v 1.12500 0.00000 2.00000
v 1.12500 0.75000 1.50000
v 0.37500 0.00000 1.75000
vt 0.64844 0.00000
vt -4.00000 -1.00000
vt 0.64844 -1.00000
vt 0.64844 0.00000
vt -4.00000 0.00000
vt -4.00000 -1.00000
vt -4.00000 0.00000
vt -3.50000 -1.00000
vt -3.00000 0.00000
vt -4.00000 0.00000
vt -4.00000 -1.00000
vt -3.50000 -1.00000
vt -3.00000 -1.00000
vt -3.00000 0.00000
vt -3.50000 -1.00000
vn 0.2842 0.7188 0.6345
vn -0.1409 0.4257 0.8938
vn 0.0352 0.5544 0.8315
vn 0.2842 0.7188 0.6345
vn -0.4974 0.7689 0.4018
vn -0.1409 0.4257 0.8938
vn -0.6524 0.7133 0.2559
vn -0.5340 0.6240 0.5704
vn -0.4974 0.7689 0.4018
vn -0.6524 0.7133 0.2559
vn -0.6695 0.6249 0.4017
vn -0.5340 0.6240 0.5704
vn -0.1409 0.4257 0.8938
vn -0.4974 0.7689 0.4018
vn -0.5340 0.6240 0.5704
g stairs_v8_1
usemtl gake01a
f 10/10/10 11/11/11 12/12/12
f 13/13/13 14/14/14 15/15/15
f 16/16/16 17/17/17 18/18/18
f 19/19/19 20/20/20 21/21/21
f 22/22/22 23/23/23 24/24/24
v 5.50000 5.09375 0.87500
v 5.00000 5.09375 0.00000
v 5.00000 5.09375 0.87500
v 5.50000 5.09375 0.87500
v 5.50000 5.09375 0.00000
v 5.00000 5.09375 0.00000
v 4.84375 5.21875 1.00000
v 5.50000 5.09375 0.87500
v 4.84375 5.21875 0.87500
v 4.84375 5.21875 1.00000
v 5.50000 5.09375 1.00000
v 5.50000 5.09375 0.87500
v 4.84375 5.21875 0.87500
v 0.43750 0.03125 0.87500
v -0.21875 0.15625 0.87500
v 4.84375 5.21875 0.87500
v 5.50000 5.09375 0.87500
v 0.43750 0.03125 0.87500
v 4.84375 5.21875 1.00000
v -0.21875 0.15625 0.87500
v -0.21875 0.15625 1.00000
v 4.84375 5.21875 1.00000
v 4.84375 5.21875 0.87500
v -0.21875 0.15625 0.87500
v 5.00000 5.09375 0.87500
v 0.00000 0.09375 0.00000
v 0.00000 0.09375 0.87500
v 5.00000 5.09375 0.87500
v 5.00000 5.09375 0.00000
v 0.00000 0.09375 0.00000
vt -0.83594 0.00000
vt -0.54261 -0.43750
vt -0.83594 -0.43750
vt -0.83594 0.00000
vt -0.54261 0.00000
vt -0.54261 -0.43750
vt -1.89453 -0.70313
vt -1.98047 -0.54688
vt -1.98047 -0.70313
vt -1.89453 -0.70313
vt -1.89453 -0.54688
vt -1.98047 -0.54688
vt -1.93750 -0.87500
vt -1.93750 -0.87500
vt -1.93750 -0.87500
vt -1.93750 -0.87500
vt -1.93750 -0.87500
vt -1.93750 -0.87500
vt -1.98438 -0.43750
vt -1.89063 -0.06250
vt -1.98438 -0.06250
vt -1.98438 -0.43750
vt -1.89063 -0.43750
vt -1.89063 -0.06250
vt -0.83594 -0.43750
vt -0.54261 -18.00000
vt -0.83594 -18.00000
vt -0.83594 -0.43750
vt -0.54261 -0.43750
vt -0.54261 -18.00000
vn 0.0000 1.0000 0.0000
vn -0.0191 0.9629 -0.2692
vn -0.6971 0.6820 0.2211
vn 0.0000 1.0000 0.0000
vn 0.0000 1.0000 0.0000
vn -0.0191 0.9629 -0.2692
vn -0.3450 0.9386 0.0000
vn 0.2423 0.8259 -0.5091
vn -0.2532 0.7818 -0.5698
vn -0.3450 0.9386 0.0000
vn 0.1404 0.9890 0.0471
vn 0.2423 0.8259 -0.5091
vn -0.2532 0.7818 -0.5698
vn 0.0000 0.0000 -1.0000
vn -0.6010 0.6010 -0.5268
vn -0.2532 0.7818 -0.5698
vn 0.2423 0.8259 -0.5091
vn 0.0000 0.0000 -1.0000
vn -0.3450 0.9386 0.0000
vn -0.6010 0.6010 -0.5268
vn -0.7071 0.7071 0.0000
vn -0.3450 0.9386 0.0000
vn -0.2532 0.7818 -0.5698
vn -0.6010 0.6010 -0.5268
vn -0.6971 0.6820 0.2211
vn -0.1465 0.8535 0.5000
vn -0.5000 0.5000 -0.7071
vn -0.6971 0.6820 0.2211
vn -0.0191 0.9629 -0.2692
vn -0.1465 0.8535 0.5000
g stairs_v8_2
usemtl kaidan01a
f 25/25/25 26/26/26 27/27/27
f 28/28/28 29/29/29 30/30/30
f 31/31/31 32/32/32 33/33/33
f 34/34/34 35/35/35 36/36/36
f 37/37/37 38/38/38 39/39/39
f 40/40/40 41/41/41 42/42/42
f 43/43/43 44/44/44 45/45/45
f 46/46/46 47/47/47 48/48/48
f 49/49/49 50/50/50 51/51/51
f 52/52/52 53/53/53 54/54/54
