# stairs_v10
# generated by tools/assets/build-tiles.js — do not edit
mtllib stairs_v10.mtl
o stairs_v10
v 0.00000 0.09375 0.00000
v 5.00000 5.09375 1.00000
v 5.00000 5.09375 0.00000
v 0.00000 0.09375 0.00000
v 0.00000 0.09375 1.00000
v 5.00000 5.09375 1.00000
v 5.00000 5.09375 1.00000
v 5.50000 5.09375 0.00000
v 5.00000 5.09375 0.00000
v 5.00000 5.09375 1.00000
v 5.50000 5.09375 1.00000
v 5.50000 5.09375 0.00000
vt -0.54261 -18.00000
vt -0.54261 -0.43750
vt -0.54261 -0.43750
vt -0.54261 -18.00000
vt -0.54261 -18.00000
vt -0.54261 -0.43750
vt -0.48011 -0.43750
vt -0.14070 0.00000
vt -0.14070 -0.43750
vt -0.48011 -0.43750
vt -0.48011 0.00000
vt -0.14070 0.00000
vn -0.1465 0.8535 0.5000
vn -0.6674 0.6943 0.2692
vn -0.0543 0.9483 -0.3127
vn -0.1465 0.8535 0.5000
vn -0.1465 0.8536 -0.5000
vn -0.6674 0.6943 0.2692
vn -0.6674 0.6943 0.2692
vn 0.0000 1.0000 0.0000
vn -0.0543 0.9483 -0.3127
vn -0.6674 0.6943 0.2692
vn 0.0000 1.0000 0.0000
vn 0.0000 1.0000 0.0000
g stairs_v10_0
usemtl kaidan01a
f 1/1/1 2/2/2 3/3/3
f 4/4/4 5/5/5 6/6/6
f 7/7/7 8/8/8 9/9/9
f 10/10/10 11/11/11 12/12/12
