# stairs_v18
# generated by tools/assets/build-tiles.js — do not edit
mtllib stairs_v18.mtl
o stairs_v18
v 1.00000 1.00000 1.87500
v 1.50000 0.75000 -2.48438
v 1.00000 1.00000 -2.48438
v 1.00000 1.00000 1.87500
v 1.50000 0.75000 1.87500
v 1.50000 0.75000 -2.48438
v 1.00000 1.00000 1.87500
v 1.00000 0.75000 2.37500
v 1.50000 0.75000 1.87500
vt -4.00000 0.00000
vt 0.64844 -1.00000
vt 0.64844 0.00000
vt -4.00000 0.00000
vt -4.00000 -1.00000
vt 0.64844 -1.00000
vt -3.50000 0.00000
vt -4.00000 -1.00000
vt -3.00000 -1.00000
vn 0.2235 0.9502 0.2173
vn 0.6345 0.7188 -0.2842
vn 0.7129 0.5946 0.3717
vn 0.2235 0.9502 0.2173
vn 0.4018 0.7689 0.4974
vn 0.6345 0.7188 -0.2842
vn 0.2235 0.9502 0.2173
vn 0.2559 0.7133 0.6524
vn 0.4018 0.7689 0.4974
g stairs_v18_0
usemtl gake1_0
f 1/1/1 2/2/2 3/3/3
f 4/4/4 5/5/5 6/6/6
f 7/7/7 8/8/8 9/9/9
v 1.50000 0.75000 -2.48438
v 2.00000 0.00000 1.87500
v 2.00000 0.00000 -2.48438
v 1.50000 0.75000 -2.48438
v 1.50000 0.75000 1.87500
v 2.00000 0.00000 1.87500
v 1.00000 0.75000 2.37500
v 1.75000 0.00000 2.62500
v 1.50000 0.75000 1.87500
v 1.00000 0.75000 2.37500
v 1.00000 0.00000 2.87500
v 1.75000 0.00000 2.62500
v 2.00000 0.00000 1.87500
v 1.50000 0.75000 1.87500
v 1.75000 0.00000 2.62500
vt 0.64844 0.00000
vt -4.00000 -1.00000
vt 0.64844 -1.00000
vt 0.64844 0.00000
vt -4.00000 0.00000
vt -4.00000 -1.00000
vt -4.00000 0.00000
vt -3.50000 -1.00000
vt -3.00000 0.00000
vt -4.00000 0.00000
vt -4.00000 -1.00000
vt -3.50000 -1.00000
vt -3.00000 -1.00000
vt -3.00000 0.00000
vt -3.50000 -1.00000
vn 0.6345 0.7188 -0.2842
vn 0.8938 0.4257 0.1409
vn 0.8315 0.5544 -0.0352
vn 0.6345 0.7188 -0.2842
vn 0.4018 0.7689 0.4974
vn 0.8938 0.4257 0.1409
vn 0.2559 0.7133 0.6524
vn 0.5704 0.6240 0.5340
vn 0.4018 0.7689 0.4974
vn 0.2559 0.7133 0.6524
vn 0.4017 0.6249 0.6695
vn 0.5704 0.6240 0.5340
vn 0.8938 0.4257 0.1409
vn 0.4018 0.7689 0.4974
vn 0.5704 0.6240 0.5340
g stairs_v18_1
usemtl gake01a
f 10/10/10 11/11/11 12/12/12
f 13/13/13 14/14/14 15/15/15
f 16/16/16 17/17/17 18/18/18
f 19/19/19 20/20/20 21/21/21
f 22/22/22 23/23/23 24/24/24
v 1.00000 1.00000 1.59375
v 1.00000 1.00000 -2.48438
v 1.00000 5.09375 -2.48438
vt -3.09375 -1.00000
vt 1.11328 -1.00000
vt 1.11328 -0.00781
vn 0.8845 -0.2090 0.4172
vn 0.8506 0.3717 0.3718
vn 1.0000 0.0000 0.0000
g stairs_v18_2
usemtl yamagake01
f 25/25/25 26/26/26 27/27/27
v 0.87500 5.09375 -2.50000
v 0.00000 5.09375 -2.00000
v 0.87500 5.09375 -2.00000
v 0.87500 5.09375 -2.50000
v 0.00000 5.09375 -2.50000
v 0.00000 5.09375 -2.00000
v 1.00000 5.21875 -1.84375
v 0.87500 5.09375 -2.50000
v 0.87500 5.21875 -1.84375
v 1.00000 5.21875 -1.84375
v 1.00000 5.09375 -2.48438
v 0.87500 5.09375 -2.50000
v 1.00000 5.21875 -1.84375
v 0.87500 0.15625 3.21875
v 1.00000 0.15625 3.21875
v 1.00000 5.21875 -1.84375
v 0.87500 5.21875 -1.84375
v 0.87500 0.15625 3.21875
v 0.87500 5.09375 -2.00000
v 0.00000 0.09375 3.00000
v 0.87500 0.09375 3.00000
v 0.87500 5.09375 -2.00000
v 0.00000 5.09375 -2.00000
v 0.00000 0.09375 3.00000
v 0.87500 0.03125 2.56250
v 0.87500 5.21875 -1.84375
v 0.87500 5.09375 -2.50000
v 0.87500 0.03125 2.56250
v 0.87500 0.15625 3.21875
v 0.87500 5.21875 -1.84375
v 1.00000 0.03125 2.56250
v 1.00000 5.21875 -1.84375
v 1.00000 0.15625 3.21875
v 1.00000 0.03125 2.56250
v 1.00000 5.09375 -2.48438
v 1.00000 5.21875 -1.84375
vt -0.83594 0.00000
vt -0.54261 -0.43750
vt -0.83594 -0.43750
vt -0.83594 0.00000
vt -0.54261 0.00000
vt -0.54261 -0.43750
vt -1.89453 -0.70313
vt -1.98047 -0.54688
vt -1.98047 -0.70313
vt -1.89453 -0.70313
vt -1.89453 -0.54688
vt -1.98047 -0.54688
vt -1.98438 -0.43750
vt -1.89063 -0.06250
vt -1.98438 -0.06250
vt -1.98438 -0.43750
vt -1.89063 -0.43750
vt -1.89063 -0.06250
vt -0.83594 -0.43750
vt -0.54261 -18.00000
vt -0.83594 -18.00000
vt -0.83594 -0.43750
vt -0.54261 -0.43750
vt -0.54261 -18.00000
vt -1.93750 -0.87500
vt -1.93750 -0.87500
vt -1.93750 -0.87500
vt -1.93750 -0.87500
vt -1.93750 -0.87500
vt -1.93750 -0.87500
vt -1.93750 -0.87500
vt -1.93750 -0.87500
vt -1.93750 -0.87500
vt -1.93750 -0.87500
vt -1.93750 -0.87500
vt -1.93750 -0.87500
vn 0.0000 1.0000 0.0000
vn -0.2692 0.9629 0.0191
vn 0.2211 0.6820 0.6971
vn 0.0000 1.0000 0.0000
vn 0.0000 1.0000 0.0000
vn -0.2692 0.9629 0.0191
vn 0.5716 0.7845 0.2405
vn -0.5041 0.8327 -0.2289
vn -0.5709 0.7924 0.2146
vn 0.5716 0.7845 0.2405
vn 0.5772 0.8058 -0.1322
vn -0.5041 0.8327 -0.2289
vn 0.5716 0.7845 0.2405
vn -0.5268 0.6010 0.6010
vn 0.5268 0.6010 0.6010
vn 0.5716 0.7845 0.2405
vn -0.5709 0.7924 0.2146
vn -0.5268 0.6010 0.6010
vn 0.2211 0.6820 0.6971
vn 0.5000 0.8535 0.1465
vn -0.7071 0.5000 0.5000
vn 0.2211 0.6820 0.6971
vn -0.2692 0.9629 0.0191
vn 0.5000 0.8535 0.1465
vn -1.0000 0.0000 0.0000
vn -0.5709 0.7924 0.2146
vn -0.5041 0.8327 -0.2289
vn -1.0000 0.0000 0.0000
vn -0.5268 0.6010 0.6010
vn -0.5709 0.7924 0.2146
vn 1.0000 0.0000 0.0000
vn 0.5716 0.7845 0.2405
vn 0.5268 0.6010 0.6010
vn 1.0000 0.0000 0.0000
vn 0.5772 0.8058 -0.1322
vn 0.5716 0.7845 0.2405
g stairs_v18_3
usemtl kaidan01a
f 28/28/28 29/29/29 30/30/30
f 31/31/31 32/32/32 33/33/33
f 34/34/34 35/35/35 36/36/36
f 37/37/37 38/38/38 39/39/39
f 40/40/40 41/41/41 42/42/42
f 43/43/43 44/44/44 45/45/45
f 46/46/46 47/47/47 48/48/48
f 49/49/49 50/50/50 51/51/51
f 52/52/52 53/53/53 54/54/54
f 55/55/55 56/56/56 57/57/57
f 58/58/58 59/59/59 60/60/60
f 61/61/61 62/62/62 63/63/63
