# stairs_v9
# generated by tools/assets/build-tiles.js — do not edit
mtllib stairs_v9.mtl
o stairs_v9
v 1.87500 1.00000 1.00000
v -2.48438 0.75000 1.50000
v 1.87500 0.75000 1.50000
v 1.87500 1.00000 1.00000
v -2.48438 1.00000 1.00000
v -2.48438 0.75000 1.50000
v 1.87500 1.00000 1.00000
v 1.87500 0.75000 1.50000
v 2.37500 0.75000 1.00000
vt -4.00000 0.00000
vt 0.64844 -1.00000
vt -4.00000 -1.00000
vt -4.00000 0.00000
vt 0.64844 0.00000
vt 0.64844 -1.00000
vt -3.50000 0.00000
vt -3.00000 -1.00000
vt -4.00000 -1.00000
vn 0.2061 0.9756 0.0756
vn -0.2842 0.7187 0.6346
vn 0.2536 0.9085 0.3323
vn 0.2061 0.9756 0.0756
vn 0.3718 0.5946 0.7129
vn -0.2842 0.7187 0.6346
vn 0.2061 0.9756 0.0756
vn 0.2536 0.9085 0.3323
vn 0.6092 0.7507 0.2556
g stairs_v9_0
usemtl gake1_0
f 1/1/1 2/2/2 3/3/3
f 4/4/4 5/5/5 6/6/6
f 7/7/7 8/8/8 9/9/9
v -2.48438 0.75000 1.50000
v 1.87500 0.00000 2.00000
v 1.87500 0.75000 1.50000
v -2.48438 0.75000 1.50000
v -2.48438 0.00000 2.00000
v 1.87500 0.00000 2.00000
v 2.37500 0.75000 1.00000
v 2.62500 0.00000 1.75000
v 2.87500 0.00000 1.00000
v 2.37500 0.75000 1.00000
v 1.87500 0.75000 1.50000
v 2.62500 0.00000 1.75000
v 1.87500 0.00000 2.00000
v 2.62500 0.00000 1.75000
v 1.87500 0.75000 1.50000
vt 0.64844 0.00000
vt -4.00000 -1.00000
vt -4.00000 0.00000
vt 0.64844 0.00000
vt 0.64844 -1.00000
vt -4.00000 -1.00000
vt -4.00000 0.00000
vt -3.50000 -1.00000
vt -4.00000 -1.00000
vt -4.00000 0.00000
vt -3.00000 0.00000
vt -3.50000 -1.00000
vt -3.00000 -1.00000
vt -3.50000 -1.00000
vt -3.00000 0.00000
vn -0.2842 0.7187 0.6346
vn 0.1353 0.4256 0.8947
vn 0.2536 0.9085 0.3323
vn -0.2842 0.7187 0.6346
vn 0.0000 0.5251 0.8510
vn 0.1353 0.4256 0.8947
vn 0.6092 0.7507 0.2556
vn 0.5340 0.6240 0.5704
vn 0.6695 0.6249 0.4017
vn 0.6092 0.7507 0.2556
vn 0.2536 0.9085 0.3323
vn 0.5340 0.6240 0.5704
vn 0.1353 0.4256 0.8947
vn 0.5340 0.6240 0.5704
vn 0.2536 0.9085 0.3323
g stairs_v9_1
usemtl gake01a
f 10/10/10 11/11/11 12/12/12
f 13/13/13 14/14/14 15/15/15
f 16/16/16 17/17/17 18/18/18
f 19/19/19 20/20/20 21/21/21
f 22/22/22 23/23/23 24/24/24
v -2.50000 5.09375 0.87500
v -2.00000 5.09375 0.00000
v -2.50000 5.09375 0.00000
v -2.50000 5.09375 0.87500
v -2.00000 5.09375 0.87500
v -2.00000 5.09375 0.00000
v -1.84375 5.21875 1.00000
v -2.50000 5.09375 0.87500
v -2.50000 5.09375 1.00000
v -1.84375 5.21875 1.00000
v -1.84375 5.21875 0.87500
v -2.50000 5.09375 0.87500
v -1.84375 5.21875 0.87500
v 2.56250 0.03125 0.87500
v -2.50000 5.09375 0.87500
v -1.84375 5.21875 0.87500
v 3.21875 0.15625 0.87500
v 2.56250 0.03125 0.87500
v -1.84375 5.21875 1.00000
v 3.21875 0.15625 0.87500
v -1.84375 5.21875 0.87500
v -1.84375 5.21875 1.00000
v 3.21875 0.15625 1.00000
v 3.21875 0.15625 0.87500
v -2.00000 5.09375 0.87500
v 3.00000 0.09375 0.00000
v -2.00000 5.09375 0.00000
v -2.00000 5.09375 0.87500
v 3.00000 0.09375 0.87500
v 3.00000 0.09375 0.00000
vt -0.83594 0.00000
vt -0.54261 -0.43750
vt -0.54261 0.00000
vt -0.83594 0.00000
vt -0.83594 -0.43750
vt -0.54261 -0.43750
vt -1.89453 -0.70313
vt -1.98047 -0.54688
vt -1.89453 -0.54688
vt -1.89453 -0.70313
vt -1.98047 -0.70313
vt -1.98047 -0.54688
vt -1.93750 -0.87500
vt -1.93750 -0.87500
vt -1.93750 -0.87500
vt -1.93750 -0.87500
vt -1.93750 -0.87500
vt -1.93750 -0.87500
vt -1.98438 -0.43750
vt -1.89063 -0.06250
vt -1.89063 -0.43750
vt -1.98438 -0.43750
vt -1.98438 -0.06250
vt -1.89063 -0.06250
vt -0.83594 -0.43750
vt -0.54261 -18.00000
vt -0.54261 -0.43750
vt -0.83594 -0.43750
vt -0.83594 -18.00000
vt -0.54261 -18.00000
vn 0.0000 1.0000 0.0000
vn 0.6674 0.6943 -0.2692
vn 0.0000 1.0000 0.0000
vn 0.0000 1.0000 0.0000
vn -0.0107 0.9752 0.2211
vn 0.6674 0.6943 -0.2692
vn 0.2425 0.9702 0.0000
vn -0.1866 0.7850 -0.5907
vn -0.2330 0.9713 -0.0472
vn 0.2425 0.9702 0.0000
vn 0.1784 0.7498 -0.6372
vn -0.1866 0.7850 -0.5907
vn 0.1784 0.7498 -0.6372
vn 0.0000 0.0000 -1.0000
vn -0.1866 0.7850 -0.5907
vn 0.1784 0.7498 -0.6372
vn 0.6010 0.6010 -0.5268
vn 0.0000 0.0000 -1.0000
vn 0.2425 0.9702 0.0000
vn 0.6010 0.6010 -0.5268
vn 0.1784 0.7498 -0.6372
vn 0.2425 0.9702 0.0000
vn 0.7071 0.7071 0.0000
vn 0.6010 0.6010 -0.5268
vn -0.0107 0.9752 0.2211
vn 0.1465 0.8536 0.5000
vn 0.6674 0.6943 -0.2692
vn -0.0107 0.9752 0.2211
vn 0.0000 1.0000 0.0000
vn 0.1465 0.8536 0.5000
g stairs_v9_2
usemtl kaidan01a
f 25/25/25 26/26/26 27/27/27
f 28/28/28 29/29/29 30/30/30
f 31/31/31 32/32/32 33/33/33
f 34/34/34 35/35/35 36/36/36
f 37/37/37 38/38/38 39/39/39
f 40/40/40 41/41/41 42/42/42
f 43/43/43 44/44/44 45/45/45
f 46/46/46 47/47/47 48/48/48
f 49/49/49 50/50/50 51/51/51
f 52/52/52 53/53/53 54/54/54
