# stairs_v13
# generated by tools/assets/build-tiles.js — do not edit
mtllib stairs_v13.mtl
o stairs_v13
v 1.87500 1.00000 1.00000
v -2.48438 0.75000 0.50000
v -2.48438 1.00000 1.00000
v 1.87500 1.00000 1.00000
v 1.87500 0.75000 0.50000
v -2.48438 0.75000 0.50000
v 1.87500 1.00000 1.00000
v 2.37500 0.75000 1.00000
v 1.87500 0.75000 0.50000
vt -4.00000 0.00000
vt 0.64844 -1.00000
vt 0.64844 0.00000
vt -4.00000 0.00000
vt -4.00000 -1.00000
vt 0.64844 -1.00000
vt -3.50000 0.00000
vt -4.00000 -1.00000
vt -3.00000 -1.00000
vn 0.2173 0.9502 -0.2235
vn -0.2842 0.7188 -0.6345
vn 0.3717 0.5946 -0.7129
vn 0.2173 0.9502 -0.2235
vn 0.4974 0.7689 -0.4018
vn -0.2842 0.7188 -0.6345
vn 0.2173 0.9502 -0.2235
vn 0.6524 0.7133 -0.2559
vn 0.4974 0.7689 -0.4018
g stairs_v13_0
usemtl gake1_0
f 1/1/1 2/2/2 3/3/3
f 4/4/4 5/5/5 6/6/6
f 7/7/7 8/8/8 9/9/9
v -2.48438 0.75000 0.50000
v 1.87500 0.00000 0.00000
v -2.48438 0.00000 0.00000
v -2.48438 0.75000 0.50000
v 1.87500 0.75000 0.50000
v 1.87500 0.00000 0.00000
v 2.37500 0.75000 1.00000
v 2.62500 0.00000 0.25000
v 1.87500 0.75000 0.50000
v 2.37500 0.75000 1.00000
v 2.87500 0.00000 1.00000
v 2.62500 0.00000 0.25000
v 1.87500 0.00000 0.00000
v 1.87500 0.75000 0.50000
v 2.62500 0.00000 0.25000
vt 0.64844 0.00000
vt -4.00000 -1.00000
vt 0.64844 -1.00000
vt 0.64844 0.00000
vt -4.00000 0.00000
vt -4.00000 -1.00000
vt -4.00000 0.00000
vt -3.50000 -1.00000
vt -3.00000 0.00000
vt -4.00000 0.00000
vt -4.00000 -1.00000
vt -3.50000 -1.00000
vt -3.00000 -1.00000
vt -3.00000 0.00000
vt -3.50000 -1.00000
vn -0.2842 0.7188 -0.6345
vn 0.1409 0.4257 -0.8938
vn -0.0352 0.5544 -0.8315
vn -0.2842 0.7188 -0.6345
vn 0.4974 0.7689 -0.4018
vn 0.1409 0.4257 -0.8938
vn 0.6524 0.7133 -0.2559
vn 0.5340 0.6240 -0.5704
vn 0.4974 0.7689 -0.4018
vn 0.6524 0.7133 -0.2559
vn 0.6695 0.6249 -0.4017
vn 0.5340 0.6240 -0.5704
vn 0.1409 0.4257 -0.8938
vn 0.4974 0.7689 -0.4018
vn 0.5340 0.6240 -0.5704
g stairs_v13_1
usemtl gake01a
f 10/10/10 11/11/11 12/12/12
f 13/13/13 14/14/14 15/15/15
f 16/16/16 17/17/17 18/18/18
f 19/19/19 20/20/20 21/21/21
f 22/22/22 23/23/23 24/24/24
v 1.59375 1.00000 1.00000
v -2.48438 1.00000 1.00000
v -2.50000 5.09375 1.00000
vt -3.09375 -1.00000
vt 1.11328 -1.00000
vt 1.11328 -0.00781
vn 0.4174 -0.2086 -0.8845
vn 0.3711 0.3725 -0.8506
vn 0.0000 0.0000 -1.0000
g stairs_v13_2
usemtl yamagake01
f 25/25/25 26/26/26 27/27/27
v -2.50000 5.09375 1.12500
v -2.00000 5.09375 2.00000
v -2.00000 5.09375 1.12500
v -2.50000 5.09375 1.12500
v -2.50000 5.09375 2.00000
v -2.00000 5.09375 2.00000
v -1.84375 5.21875 1.00000
v -2.50000 5.09375 1.12500
v -1.84375 5.21875 1.12500
v -1.84375 5.21875 1.00000
v -2.50000 5.09375 1.00000
v -2.50000 5.09375 1.12500
v -1.84375 5.21875 1.00000
v 3.21875 0.15625 1.12500
v 3.21875 0.15625 1.00000
v -1.84375 5.21875 1.00000
v -1.84375 5.21875 1.12500
v 3.21875 0.15625 1.12500
v -2.00000 5.09375 1.12500
v 3.00000 0.09375 2.00000
v 3.00000 0.09375 1.12500
v -2.00000 5.09375 1.12500
v -2.00000 5.09375 2.00000
v 3.00000 0.09375 2.00000
v 2.56250 0.03125 1.00000
v -1.84375 5.21875 1.00000
v 3.21875 0.15625 1.00000
v 2.56250 0.03125 1.00000
v -2.50000 5.09375 1.00000
v -1.84375 5.21875 1.00000
vt -0.83594 0.00000
vt -0.54261 -0.43750
vt -0.83594 -0.43750
vt -0.83594 0.00000
vt -0.54261 0.00000
vt -0.54261 -0.43750
vt -1.89453 -0.70313
vt -1.98047 -0.54688
vt -1.98047 -0.70313
vt -1.89453 -0.70313
vt -1.89453 -0.54688
vt -1.98047 -0.54688
vt -1.98438 -0.43750
vt -1.89063 -0.06250
vt -1.98438 -0.06250
vt -1.98438 -0.43750
vt -1.89063 -0.43750
vt -1.89063 -0.06250
vt -0.83594 -0.43750
vt -0.54261 -18.00000
vt -0.83594 -18.00000
vt -0.83594 -0.43750
vt -0.54261 -0.43750
vt -0.54261 -18.00000
vt -1.93750 -0.87500
vt -1.93750 -0.87500
vt -1.93750 -0.87500
vt -1.93750 -0.87500
vt -1.93750 -0.87500
vt -1.93750 -0.87500
vn 0.0000 1.0000 0.0000
vn 0.0191 0.9629 0.2692
vn 0.6971 0.6820 -0.2211
vn 0.0000 1.0000 0.0000
vn 0.0000 1.0000 0.0000
vn 0.0191 0.9629 0.2692
vn 0.2419 0.7861 -0.5688
vn -0.2522 0.9677 0.0000
vn 0.2681 0.9623 -0.0465
vn 0.2419 0.7861 -0.5688
vn -0.1306 0.7926 -0.5956
vn -0.2522 0.9677 0.0000
vn 0.2419 0.7861 -0.5688
vn 0.7071 0.7071 0.0000
vn 0.6010 0.6010 -0.5268
vn 0.2419 0.7861 -0.5688
vn 0.2681 0.9623 -0.0465
vn 0.7071 0.7071 0.0000
vn 0.6971 0.6820 -0.2211
vn 0.1465 0.8535 -0.5000
vn 0.5000 0.5000 0.7071
vn 0.6971 0.6820 -0.2211
vn 0.0191 0.9629 0.2692
vn 0.1465 0.8535 -0.5000
vn 0.0000 0.0000 -1.0000
vn 0.2419 0.7861 -0.5688
vn 0.6010 0.6010 -0.5268
vn 0.0000 0.0000 -1.0000
vn -0.1306 0.7926 -0.5956
vn 0.2419 0.7861 -0.5688
g stairs_v13_3
usemtl kaidan01a
f 28/28/28 29/29/29 30/30/30
f 31/31/31 32/32/32 33/33/33
f 34/34/34 35/35/35 36/36/36
f 37/37/37 38/38/38 39/39/39
f 40/40/40 41/41/41 42/42/42
f 43/43/43 44/44/44 45/45/45
f 46/46/46 47/47/47 48/48/48
f 49/49/49 50/50/50 51/51/51
f 52/52/52 53/53/53 54/54/54
f 55/55/55 56/56/56 57/57/57
