# Blender 5.2.1 LTS
# www.blender.org
mtllib barrel.mtl
o sylvan-town__barrel
v 0.812500 0.500000 0.000000
v 0.720971 0.720971 0.000000
v 0.500000 0.812500 0.000000
v 0.279029 0.720971 0.000000
v 0.187500 0.500000 0.000000
v 0.279029 0.279029 0.000000
v 0.500000 0.187500 0.000000
v 0.720971 0.279029 0.000000
v 1.000000 0.500000 0.280330
v 0.853553 0.853553 0.280330
v 0.500000 1.000000 0.280330
v 0.146447 0.853553 0.280330
v 0.000000 0.500000 0.280330
v 0.146447 0.146447 0.280330
v 0.500000 0.000000 0.280330
v 0.853553 0.146447 0.280330
v 1.000000 0.500000 0.560660
v 0.853553 0.853553 0.560660
v 0.500000 1.000000 0.560660
v 0.146447 0.853553 0.560660
v 0.000000 0.500000 0.560660
v 0.146447 0.146447 0.560660
v 0.500000 0.000000 0.560660
v 0.853553 0.146447 0.560660
v 1.000000 0.500000 0.840990
v 0.853553 0.853553 0.840990
v 0.500000 1.000000 0.840990
v 0.146447 0.853553 0.840990
v 0.000000 0.500000 0.840990
v 0.146447 0.146447 0.840990
v 0.500000 0.000000 0.840990
v 0.853553 0.146447 0.840990
v 0.812500 0.500000 1.121320
v 0.720971 0.720971 1.121320
v 0.500000 0.812500 1.121320
v 0.279029 0.720971 1.121320
v 0.187500 0.500000 1.121320
v 0.279029 0.279029 1.121320
v 0.500000 0.187500 1.121320
v 0.720971 0.279029 1.121320
vn 0.7859 0.3255 -0.5257
vn 0.3255 0.7859 -0.5257
vn -0.3255 0.7859 -0.5257
vn -0.7859 0.3255 -0.5257
vn -0.7859 -0.3255 -0.5257
vn -0.3255 -0.7859 -0.5257
vn 0.3255 -0.7859 -0.5257
vn 0.7859 -0.3255 -0.5257
vn 0.9239 0.3827 -0.0000
vn 0.3827 0.9239 -0.0000
vn -0.3827 0.9239 -0.0000
vn -0.9239 0.3827 -0.0000
vn -0.9239 -0.3827 -0.0000
vn -0.3827 -0.9239 -0.0000
vn 0.3827 -0.9239 -0.0000
vn 0.9239 -0.3827 -0.0000
vn 0.7859 0.3255 0.5257
vn 0.3255 0.7859 0.5257
vn -0.3255 0.7859 0.5257
vn -0.7859 0.3255 0.5257
vn -0.7859 -0.3255 0.5257
vn -0.3255 -0.7859 0.5257
vn 0.3255 -0.7859 0.5257
vn 0.7859 -0.3255 0.5257
vn -0.0000 -0.0000 -1.0000
vn -0.0000 -0.0000 1.0000
vt 0.332596 0.600550
vt 0.270321 0.695526
vt 0.270321 0.600550
vt 0.394870 0.600550
vt 0.332596 0.695526
vt 0.457144 0.695526
vt 0.394870 0.695526
vt 0.519419 0.600550
vt 0.457144 0.600550
vt 0.519419 0.695526
vt 0.270321 0.790502
vt 0.332596 0.790502
vt 0.394870 0.790502
vt 0.457144 0.790502
vt 0.519419 0.790502
vt 0.270321 0.885478
vt 0.332596 0.885478
vt 0.394870 0.885478
vt 0.457144 0.885478
vt 0.519419 0.885478
vt 0.270321 0.980454
vt 0.332596 0.980454
vt 0.457144 0.980454
vt 0.394870 0.980454
vt 0.519419 0.980454
vt 0.368403 0.642340
vt 0.394870 0.654212
vt 0.421337 0.642340
vt 0.376155 0.884154
vt 0.376155 0.864007
vt 0.413585 0.864007
vt 0.413585 0.633945
vt 0.394870 0.630468
vt 0.376155 0.633945
vt 0.376155 0.650734
vt 0.413585 0.650734
vt 0.421337 0.874081
vt 0.413585 0.884154
vt 0.394870 0.888327
vt 0.368403 0.874081
vt 0.394870 0.859834
s 0
usemtl Decoration.041
f 2/1/1 9/2/1 1/3/1
f 3/4/2 10/5/2 2/1/2
f 3/4/3 12/6/3 11/7/3
f 5/8/4 12/6/4 4/9/4
f 6/9/5 13/10/5 5/8/5
f 7/4/6 14/6/6 6/9/6
f 7/4/7 16/5/7 15/7/7
f 1/3/8 16/5/8 8/1/8
f 10/5/9 17/11/9 9/2/9
f 11/7/10 18/12/10 10/5/10
f 12/6/11 19/13/11 11/7/11
f 13/10/12 20/14/12 12/6/12
f 14/6/13 21/15/13 13/10/13
f 15/7/14 22/14/14 14/6/14
f 16/5/15 23/13/15 15/7/15
f 9/2/16 24/12/16 16/5/16
f 18/12/9 25/16/9 17/11/9
f 19/13/10 26/17/10 18/12/10
f 20/14/11 27/18/11 19/13/11
f 21/15/12 28/19/12 20/14/12
f 22/14/13 29/20/13 21/15/13
f 23/13/14 30/19/14 22/14/14
f 24/12/15 31/18/15 23/13/15
f 17/11/16 32/17/16 24/12/16
f 26/17/17 33/21/17 25/16/17
f 27/18/18 34/22/18 26/17/18
f 27/18/19 36/23/19 35/24/19
f 28/19/20 37/25/20 36/23/20
f 30/19/21 37/25/21 29/20/21
f 31/18/22 38/23/22 30/19/22
f 32/17/23 39/24/23 31/18/23
f 25/16/24 40/22/24 32/17/24
f 5/26/25 3/27/25 1/28/25
f 36/29/26 38/30/26 40/31/26
f 2/1/1 10/5/1 9/2/1
f 3/4/2 11/7/2 10/5/2
f 3/4/3 4/9/3 12/6/3
f 5/8/4 13/10/4 12/6/4
f 6/9/5 14/6/5 13/10/5
f 7/4/6 15/7/6 14/6/6
f 7/4/7 8/1/7 16/5/7
f 1/3/8 9/2/8 16/5/8
f 10/5/9 18/12/9 17/11/9
f 11/7/10 19/13/10 18/12/10
f 12/6/11 20/14/11 19/13/11
f 13/10/12 21/15/12 20/14/12
f 14/6/13 22/14/13 21/15/13
f 15/7/14 23/13/14 22/14/14
f 16/5/15 24/12/15 23/13/15
f 9/2/16 17/11/16 24/12/16
f 18/12/9 26/17/9 25/16/9
f 19/13/10 27/18/10 26/17/10
f 20/14/11 28/19/11 27/18/11
f 21/15/12 29/20/12 28/19/12
f 22/14/13 30/19/13 29/20/13
f 23/13/14 31/18/14 30/19/14
f 24/12/15 32/17/15 31/18/15
f 17/11/16 25/16/16 32/17/16
f 26/17/17 34/22/17 33/21/17
f 27/18/18 35/24/18 34/22/18
f 27/18/19 28/19/19 36/23/19
f 28/19/20 29/20/20 37/25/20
f 30/19/21 38/23/21 37/25/21
f 31/18/22 39/24/22 38/23/22
f 32/17/23 40/22/23 39/24/23
f 25/16/24 33/21/24 40/22/24
f 1/28/25 8/32/25 7/33/25
f 7/33/25 6/34/25 5/26/25
f 5/26/25 4/35/25 3/27/25
f 3/27/25 2/36/25 1/28/25
f 1/28/25 7/33/25 5/26/25
f 40/31/26 33/37/26 34/38/26
f 34/38/26 35/39/26 36/29/26
f 36/29/26 37/40/26 38/30/26
f 38/30/26 39/41/26 40/31/26
f 40/31/26 34/38/26 36/29/26
