# r0_big_rock
# generated by tools/assets/build-tiles.js — do not edit
mtllib r0_big_rock.mtl
o r0_big_rock
v 0.00000 0.16789 0.29289
v 2.00000 1.58211 1.70711
v 2.00000 0.16789 0.29289
v 0.00000 0.16789 0.29289
v 0.00000 1.58211 1.70711
v 2.00000 1.58211 1.70711
vt 0.00000 0.00000
vt 1.00000 1.00000
vt 1.00000 0.00000
vt 0.00000 0.00000
vt 0.00000 1.00000
vt 1.00000 1.00000
vn 0.0000 0.7071 -0.7071
vn 0.0000 0.7071 -0.7071
vn 0.0000 0.7071 -0.7071
vn 0.0000 0.7071 -0.7071
vn 0.0000 0.7071 -0.7071
vn 0.0000 0.7071 -0.7071
g r0_big_rock_0
usemtl rock01
f 1/1/1 2/2/2 3/3/3
f 4/4/4 5/5/5 6/6/6
