# r0_small_rock01
# generated by tools/assets/build-tiles.js — do not edit
mtllib r0_small_rock01.mtl
o r0_small_rock01
v 0.00000 0.02145 0.14645
v 1.00000 0.72855 0.85355
v 1.00000 0.02145 0.14645
v 0.00000 0.02145 0.14645
v 0.00000 0.72855 0.85355
v 1.00000 0.72855 0.85355
vt 0.00000 0.00000
vt 1.00000 1.00000
vt 1.00000 0.00000
vt 0.00000 0.00000
vt 0.00000 1.00000
vt 1.00000 1.00000
vn 0.0000 0.7071 -0.7071
vn 0.0000 0.7071 -0.7071
vn 0.0000 0.7071 -0.7071
vn 0.0000 0.7071 -0.7071
vn 0.0000 0.7071 -0.7071
vn 0.0000 0.7071 -0.7071
g r0_small_rock01_0
usemtl rock01
f 1/1/1 2/2/2 3/3/3
f 4/4/4 5/5/5 6/6/6
