# river_wave_2_v2
# generated by tools/assets/build-tiles.js — do not edit
mtllib river_wave_2_v2.mtl
o river_wave_2_v2
v 0.00000 -0.50000 0.50000
v 1.00000 -0.50000 1.50000
v 1.00000 -0.50000 0.50000
v 0.00000 -0.50000 0.50000
v 0.00000 -0.50000 1.50000
v 1.00000 -0.50000 1.50000
vt 1.00000 0.00000
vt 0.00000 -1.00000
vt 0.00000 0.00000
vt 1.00000 0.00000
vt 1.00000 -1.00000
vt 0.00000 -1.00000
vn 0.0000 1.0000 0.0000
vn 0.0000 1.0000 0.0000
vn 0.0000 1.0000 0.0000
vn 0.0000 1.0000 0.0000
vn 0.0000 1.0000 0.0000
vn 0.0000 1.0000 0.0000
g river_wave_2_v2_0
usemtl kawa_nose_1
f 1/1/1 2/2/2 3/3/3
f 4/4/4 5/5/5 6/6/6
