# street_lamp
# generated by tools/structures/build.js — edit that, not this
mtllib street_lamp.mtl
o street_lamp
v 0.2500 0.7500 0.0000
v 0.2500 0.7500 0.2000
v 0.7500 0.7500 0.2000
v 0.7500 0.7500 0.0000
v 0.7500 0.2500 0.0000
v 0.7500 0.2500 0.2000
v 0.2500 0.2500 0.2000
v 0.2500 0.2500 0.0000
v 0.7500 0.7500 0.0000
v 0.7500 0.7500 0.2000
v 0.7500 0.2500 0.2000
v 0.7500 0.2500 0.0000
v 0.2500 0.2500 0.0000
v 0.2500 0.2500 0.2000
v 0.2500 0.7500 0.2000
v 0.2500 0.7500 0.0000
v 0.2500 0.2500 0.2000
v 0.7500 0.2500 0.2000
v 0.7500 0.7500 0.2000
v 0.2500 0.7500 0.2000
v 0.3500 0.6500 0.1800
v 0.3500 0.6500 3.4000
v 0.6500 0.6500 3.4000
v 0.6500 0.6500 0.1800
v 0.6500 0.3500 0.1800
v 0.6500 0.3500 3.4000
v 0.3500 0.3500 3.4000
v 0.3500 0.3500 0.1800
v 0.6500 0.6500 0.1800
v 0.6500 0.6500 3.4000
v 0.6500 0.3500 3.4000
v 0.6500 0.3500 0.1800
v 0.3500 0.3500 0.1800
v 0.3500 0.3500 3.4000
v 0.3500 0.6500 3.4000
v 0.3500 0.6500 0.1800
v 0.3800 0.6200 3.4000
v 0.3800 0.6200 3.7000
v 0.6200 0.6200 3.7000
v 0.6200 0.6200 3.4000
v 0.6200 0.3800 3.4000
v 0.6200 0.3800 3.7000
v 0.3800 0.3800 3.7000
v 0.3800 0.3800 3.4000
v 0.6200 0.6200 3.4000
v 0.6200 0.6200 3.7000
v 0.6200 0.3800 3.7000
v 0.6200 0.3800 3.4000
v 0.3800 0.3800 3.4000
v 0.3800 0.3800 3.7000
v 0.3800 0.6200 3.7000
v 0.3800 0.6200 3.4000
v 0.3800 0.3800 3.7000
v 0.6200 0.3800 3.7000
v 0.6200 0.6200 3.7000
v 0.3800 0.6200 3.7000
v 0.4000 0.6000 3.6600
v 0.4000 0.6000 3.8600
v 1.1200 0.6000 3.8600
v 1.1200 0.6000 3.6600
v 1.1200 0.4000 3.6600
v 1.1200 0.4000 3.8600
v 0.4000 0.4000 3.8600
v 0.4000 0.4000 3.6600
v 1.1200 0.6000 3.6600
v 1.1200 0.6000 3.8600
v 1.1200 0.4000 3.8600
v 1.1200 0.4000 3.6600
v 0.4000 0.4000 3.6600
v 0.4000 0.4000 3.8600
v 0.4000 0.6000 3.8600
v 0.4000 0.6000 3.6600
v 0.4000 0.4000 3.8600
v 1.1200 0.4000 3.8600
v 1.1200 0.6000 3.8600
v 0.4000 0.6000 3.8600
v 0.4000 0.6000 3.6600
v 1.1200 0.6000 3.6600
v 1.1200 0.4000 3.6600
v 0.4000 0.4000 3.6600
v 1.0200 0.5900 3.5600
v 1.0200 0.5900 3.7400
v 1.4800 0.5900 3.7400
v 1.4800 0.5900 3.5600
v 1.4800 0.4100 3.5600
v 1.4800 0.4100 3.7400
v 1.0200 0.4100 3.7400
v 1.0200 0.4100 3.5600
v 1.4800 0.5900 3.5600
v 1.4800 0.5900 3.7400
v 1.4800 0.4100 3.7400
v 1.4800 0.4100 3.5600
v 1.0200 0.4100 3.5600
v 1.0200 0.4100 3.7400
v 1.0200 0.5900 3.7400
v 1.0200 0.5900 3.5600
v 1.0200 0.4100 3.7400
v 1.4800 0.4100 3.7400
v 1.4800 0.5900 3.7400
v 1.0200 0.5900 3.7400
v 1.0200 0.5900 3.5600
v 1.4800 0.5900 3.5600
v 1.4800 0.4100 3.5600
v 1.0200 0.4100 3.5600
v 1.0800 0.7600 3.3000
v 1.0800 0.7600 3.6000
v 1.5600 0.7600 3.6000
v 1.5600 0.7600 3.3000
v 1.5600 0.2400 3.3000
v 1.5600 0.2400 3.6000
v 1.0800 0.2400 3.6000
v 1.0800 0.2400 3.3000
v 1.5600 0.7600 3.3000
v 1.5600 0.7600 3.6000
v 1.5600 0.2400 3.6000
v 1.5600 0.2400 3.3000
v 1.0800 0.2400 3.3000
v 1.0800 0.2400 3.6000
v 1.0800 0.7600 3.6000
v 1.0800 0.7600 3.3000
v 1.0800 0.2400 3.6000
v 1.5600 0.2400 3.6000
v 1.5600 0.7600 3.6000
v 1.0800 0.7600 3.6000
v 1.0800 0.2400 3.3000
v 1.0800 0.7600 3.3000
v 1.5600 0.7600 3.3000
v 1.5600 0.2400 3.3000
vt 0.00000 1.00000
vt 0.00000 0.80000
vt 0.50000 0.80000
vt 0.50000 1.00000
vt 0.00000 1.00000
vt 0.00000 0.80000
vt 0.50000 0.80000
vt 0.50000 1.00000
vt 0.00000 1.00000
vt 0.00000 0.80000
vt 0.50000 0.80000
vt 0.50000 1.00000
vt 0.00000 1.00000
vt 0.00000 0.80000
vt 0.50000 0.80000
vt 0.50000 1.00000
vt 0.00000 1.00000
vt 0.50000 1.00000
vt 0.50000 0.50000
vt 0.00000 0.50000
vt 0.00000 1.00000
vt 0.00000 -2.22000
vt 0.30000 -2.22000
vt 0.30000 1.00000
vt 0.00000 1.00000
vt 0.00000 -2.22000
vt 0.30000 -2.22000
vt 0.30000 1.00000
vt 0.00000 1.00000
vt 0.00000 -2.22000
vt 0.30000 -2.22000
vt 0.30000 1.00000
vt 0.00000 1.00000
vt 0.00000 -2.22000
vt 0.30000 -2.22000
vt 0.30000 1.00000
vt 0.00000 1.00000
vt 0.00000 0.70000
vt 0.24000 0.70000
vt 0.24000 1.00000
vt 0.00000 1.00000
vt 0.00000 0.70000
vt 0.24000 0.70000
vt 0.24000 1.00000
vt 0.00000 1.00000
vt 0.00000 0.70000
vt 0.24000 0.70000
vt 0.24000 1.00000
vt 0.00000 1.00000
vt 0.00000 0.70000
vt 0.24000 0.70000
vt 0.24000 1.00000
vt 0.00000 1.00000
vt 0.24000 1.00000
vt 0.24000 0.76000
vt 0.00000 0.76000
vt 0.00000 1.00000
vt 0.00000 0.80000
vt 0.72000 0.80000
vt 0.72000 1.00000
vt 0.00000 1.00000
vt 0.00000 0.80000
vt 0.72000 0.80000
vt 0.72000 1.00000
vt 0.00000 1.00000
vt 0.00000 0.80000
vt 0.20000 0.80000
vt 0.20000 1.00000
vt 0.00000 1.00000
vt 0.00000 0.80000
vt 0.20000 0.80000
vt 0.20000 1.00000
vt 0.00000 1.00000
vt 0.72000 1.00000
vt 0.72000 0.80000
vt 0.00000 0.80000
vt 0.00000 1.00000
vt 0.72000 1.00000
vt 0.72000 0.80000
vt 0.00000 0.80000
vt 0.00000 1.00000
vt 0.00000 0.82000
vt 0.46000 0.82000
vt 0.46000 1.00000
vt 0.00000 1.00000
vt 0.00000 0.82000
vt 0.46000 0.82000
vt 0.46000 1.00000
vt 0.00000 1.00000
vt 0.00000 0.82000
vt 0.18000 0.82000
vt 0.18000 1.00000
vt 0.00000 1.00000
vt 0.00000 0.82000
vt 0.18000 0.82000
vt 0.18000 1.00000
vt 0.00000 1.00000
vt 0.46000 1.00000
vt 0.46000 0.82000
vt 0.00000 0.82000
vt 0.00000 1.00000
vt 0.46000 1.00000
vt 0.46000 0.82000
vt 0.00000 0.82000
vt 0.00000 0.50000
vt 0.00000 0.35000
vt 0.24000 0.35000
vt 0.24000 0.50000
vt 0.00000 0.50000
vt 0.00000 0.35000
vt 0.24000 0.35000
vt 0.24000 0.50000
vt 0.00000 0.50000
vt 0.00000 0.35000
vt 0.26000 0.35000
vt 0.26000 0.50000
vt 0.00000 0.50000
vt 0.00000 0.35000
vt 0.26000 0.35000
vt 0.26000 0.50000
vt 0.00000 0.50000
vt 0.24000 0.50000
vt 0.24000 0.24000
vt 0.00000 0.24000
vt 0.08000 0.96000
vt 0.92000 0.96000
vt 0.92000 0.54000
vt 0.08000 0.54000
vn 0.0000 1.0000 0.0000
vn 0.0000 1.0000 0.0000
vn 0.0000 1.0000 0.0000
vn 0.0000 1.0000 0.0000
vn 0.0000 -1.0000 0.0000
vn 0.0000 -1.0000 0.0000
vn 0.0000 -1.0000 0.0000
vn 0.0000 -1.0000 0.0000
vn 1.0000 0.0000 0.0000
vn 1.0000 0.0000 0.0000
vn 1.0000 0.0000 0.0000
vn 1.0000 0.0000 0.0000
vn -1.0000 0.0000 0.0000
vn -1.0000 0.0000 0.0000
vn -1.0000 0.0000 0.0000
vn -1.0000 0.0000 0.0000
vn 0.0000 0.0000 1.0000
vn 0.0000 0.0000 1.0000
vn 0.0000 0.0000 1.0000
vn 0.0000 0.0000 1.0000
vn 0.0000 1.0000 0.0000
vn 0.0000 1.0000 0.0000
vn 0.0000 1.0000 0.0000
vn 0.0000 1.0000 0.0000
vn 0.0000 -1.0000 0.0000
vn 0.0000 -1.0000 0.0000
vn 0.0000 -1.0000 0.0000
vn 0.0000 -1.0000 0.0000
vn 1.0000 0.0000 0.0000
vn 1.0000 0.0000 0.0000
vn 1.0000 0.0000 0.0000
vn 1.0000 0.0000 0.0000
vn -1.0000 0.0000 0.0000
vn -1.0000 0.0000 0.0000
vn -1.0000 0.0000 0.0000
vn -1.0000 0.0000 0.0000
vn 0.0000 1.0000 0.0000
vn 0.0000 1.0000 0.0000
vn 0.0000 1.0000 0.0000
vn 0.0000 1.0000 0.0000
vn 0.0000 -1.0000 0.0000
vn 0.0000 -1.0000 0.0000
vn 0.0000 -1.0000 0.0000
vn 0.0000 -1.0000 0.0000
vn 1.0000 0.0000 0.0000
vn 1.0000 0.0000 0.0000
vn 1.0000 0.0000 0.0000
vn 1.0000 0.0000 0.0000
vn -1.0000 0.0000 0.0000
vn -1.0000 0.0000 0.0000
vn -1.0000 0.0000 0.0000
vn -1.0000 0.0000 0.0000
vn 0.0000 0.0000 1.0000
vn 0.0000 0.0000 1.0000
vn 0.0000 0.0000 1.0000
vn 0.0000 0.0000 1.0000
vn 0.0000 1.0000 0.0000
vn 0.0000 1.0000 0.0000
vn 0.0000 1.0000 0.0000
vn 0.0000 1.0000 0.0000
vn 0.0000 -1.0000 0.0000
vn 0.0000 -1.0000 0.0000
vn 0.0000 -1.0000 0.0000
vn 0.0000 -1.0000 0.0000
vn 1.0000 0.0000 0.0000
vn 1.0000 0.0000 0.0000
vn 1.0000 0.0000 0.0000
vn 1.0000 0.0000 0.0000
vn -1.0000 0.0000 0.0000
vn -1.0000 0.0000 0.0000
vn -1.0000 0.0000 0.0000
vn -1.0000 0.0000 0.0000
vn 0.0000 0.0000 1.0000
vn 0.0000 0.0000 1.0000
vn 0.0000 0.0000 1.0000
vn 0.0000 0.0000 1.0000
vn 0.0000 0.0000 -1.0000
vn 0.0000 0.0000 -1.0000
vn 0.0000 0.0000 -1.0000
vn 0.0000 0.0000 -1.0000
vn 0.0000 1.0000 0.0000
vn 0.0000 1.0000 0.0000
vn 0.0000 1.0000 0.0000
vn 0.0000 1.0000 0.0000
vn 0.0000 -1.0000 0.0000
vn 0.0000 -1.0000 0.0000
vn 0.0000 -1.0000 0.0000
vn 0.0000 -1.0000 0.0000
vn 1.0000 0.0000 0.0000
vn 1.0000 0.0000 0.0000
vn 1.0000 0.0000 0.0000
vn 1.0000 0.0000 0.0000
vn -1.0000 0.0000 0.0000
vn -1.0000 0.0000 0.0000
vn -1.0000 0.0000 0.0000
vn -1.0000 0.0000 0.0000
vn 0.0000 0.0000 1.0000
vn 0.0000 0.0000 1.0000
vn 0.0000 0.0000 1.0000
vn 0.0000 0.0000 1.0000
vn 0.0000 0.0000 -1.0000
vn 0.0000 0.0000 -1.0000
vn 0.0000 0.0000 -1.0000
vn 0.0000 0.0000 -1.0000
vn 0.0000 1.0000 0.0000
vn 0.0000 1.0000 0.0000
vn 0.0000 1.0000 0.0000
vn 0.0000 1.0000 0.0000
vn 0.0000 -1.0000 0.0000
vn 0.0000 -1.0000 0.0000
vn 0.0000 -1.0000 0.0000
vn 0.0000 -1.0000 0.0000
vn 1.0000 0.0000 0.0000
vn 1.0000 0.0000 0.0000
vn 1.0000 0.0000 0.0000
vn 1.0000 0.0000 0.0000
vn -1.0000 0.0000 0.0000
vn -1.0000 0.0000 0.0000
vn -1.0000 0.0000 0.0000
vn -1.0000 0.0000 0.0000
vn 0.0000 0.0000 1.0000
vn 0.0000 0.0000 1.0000
vn 0.0000 0.0000 1.0000
vn 0.0000 0.0000 1.0000
vn 0.0000 0.0000 -1.0000
vn 0.0000 0.0000 -1.0000
vn 0.0000 0.0000 -1.0000
vn 0.0000 0.0000 -1.0000
usemtl post
f 1/1/1 2/2/2 3/3/3 4/4/4
f 5/5/5 6/6/6 7/7/7 8/8/8
f 9/9/9 10/10/10 11/11/11 12/12/12
f 13/13/13 14/14/14 15/15/15 16/16/16
f 17/17/17 18/18/18 19/19/19 20/20/20
f 21/21/21 22/22/22 23/23/23 24/24/24
f 25/25/25 26/26/26 27/27/27 28/28/28
f 29/29/29 30/30/30 31/31/31 32/32/32
f 33/33/33 34/34/34 35/35/35 36/36/36
f 37/37/37 38/38/38 39/39/39 40/40/40
f 41/41/41 42/42/42 43/43/43 44/44/44
f 45/45/45 46/46/46 47/47/47 48/48/48
f 49/49/49 50/50/50 51/51/51 52/52/52
f 53/53/53 54/54/54 55/55/55 56/56/56
f 57/57/57 58/58/58 59/59/59 60/60/60
f 61/61/61 62/62/62 63/63/63 64/64/64
f 65/65/65 66/66/66 67/67/67 68/68/68
f 69/69/69 70/70/70 71/71/71 72/72/72
f 73/73/73 74/74/74 75/75/75 76/76/76
f 77/77/77 78/78/78 79/79/79 80/80/80
f 81/81/81 82/82/82 83/83/83 84/84/84
f 85/85/85 86/86/86 87/87/87 88/88/88
f 89/89/89 90/90/90 91/91/91 92/92/92
f 93/93/93 94/94/94 95/95/95 96/96/96
f 97/97/97 98/98/98 99/99/99 100/100/100
f 101/101/101 102/102/102 103/103/103 104/104/104
usemtl head
f 105/105/105 106/106/106 107/107/107 108/108/108
f 109/109/109 110/110/110 111/111/111 112/112/112
f 113/113/113 114/114/114 115/115/115 116/116/116
f 117/117/117 118/118/118 119/119/119 120/120/120
f 121/121/121 122/122/122 123/123/123 124/124/124
f 125/125/125 126/126/126 127/127/127 128/128/128
