# bshadow3
# generated by tools/assets/build-tiles.js — do not edit
mtllib bshadow3.mtl
o bshadow3
v 0.25000 0.18750 0.18750
v 0.75000 0.06250 0.00000
v 0.25000 0.06250 0.00000
v 0.75000 0.18750 0.18750
v 0.75000 0.06250 0.00000
v 0.25000 0.18750 0.18750
v 0.25000 0.93750 0.68750
v 0.75000 0.18750 0.18750
v 0.25000 0.18750 0.18750
v 0.75000 0.93750 0.68750
v 0.75000 0.18750 0.18750
v 0.25000 0.93750 0.68750
v 0.25000 1.00000 1.00000
v 0.75000 0.93750 0.68750
v 0.25000 0.93750 0.68750
v 0.75000 1.00000 1.00000
v 0.75000 0.93750 0.68750
v 0.25000 1.00000 1.00000
vt -0.00000 -0.81250
vt 1.00000 -1.00000
vt -0.00000 -1.00000
vt 1.00000 -0.81250
vt 1.00000 -1.00000
vt 0.00000 -0.81250
vt 0.00000 -0.12500
vt 1.00000 -0.81250
vt 0.00000 -0.81250
vt 1.00000 -0.12500
vt 1.00000 -0.81250
vt -0.00000 -0.12500
vt -0.00000 -0.00000
vt 1.00000 -0.12500
vt -0.00000 -0.12500
vt 1.00000 0.00000
vt 1.00000 -0.12500
vt 0.00000 0.00000
vn 0.0000 0.8321 -0.5547
vn 0.0000 0.8321 -0.5547
vn 0.0000 0.8321 -0.5547
vn 0.0000 0.8321 -0.5547
vn 0.0000 0.8321 -0.5547
vn 0.0000 0.8321 -0.5547
vn -0.0000 0.5547 -0.8321
vn -0.0000 0.5547 -0.8321
vn -0.0000 0.5547 -0.8321
vn 0.0000 0.5547 -0.8321
vn 0.0000 0.5547 -0.8321
vn 0.0000 0.5547 -0.8321
vn 0.0000 0.9806 -0.1961
vn 0.0000 0.9806 -0.1961
vn 0.0000 0.9806 -0.1961
vn 0.0000 0.9806 -0.1961
vn 0.0000 0.9806 -0.1961
vn 0.0000 0.9806 -0.1961
g bshadow3_0
usemtl shadowchip
f 1/1/1 2/2/2 3/3/3
f 4/4/4 5/5/5 6/6/6
f 7/7/7 8/8/8 9/9/9
f 10/10/10 11/11/11 12/12/12
f 13/13/13 14/14/14 15/15/15
f 16/16/16 17/17/17 18/18/18
