# shadow_ground
# generated by tools/assets/build-tiles.js — do not edit
mtllib shadow_ground.mtl
o shadow_ground
v 0.00000 0.06250 0.00000
v 1.00000 0.06250 1.00000
v 1.00000 0.06250 0.00000
v 0.00000 0.06250 0.00000
v 0.00000 0.06250 1.00000
v 1.00000 0.06250 1.00000
vt 0.33333 -0.75000
vt 0.50000 -0.62500
vt 0.50000 -0.75000
vt 0.33333 -0.75000
vt 0.33333 -0.62500
vt 0.50000 -0.62500
vn 0.0000 1.0000 0.0000
vn 0.0000 1.0000 0.0000
vn 0.0000 1.0000 0.0000
vn 0.0000 1.0000 0.0000
vn 0.0000 1.0000 0.0000
vn 0.0000 1.0000 0.0000
g shadow_ground_0
usemtl shadowchip
f 1/1/1 2/2/2 3/3/3
f 4/4/4 5/5/5 6/6/6
