# mar_center
# generated by tools/assets/build-tiles.js — do not edit
mtllib mar_center.mtl
o mar_center
v 0.00000 -0.50000 0.00000
v 1.00000 -0.50000 1.00000
v 1.00000 -0.50000 0.00000
v 0.00000 -0.50000 0.00000
v 0.00000 -0.50000 1.00000
v 1.00000 -0.50000 1.00000
vt 3.07322 1.84145
vt 4.05747 2.82570
vt 4.05747 1.84145
vt 3.07322 1.84145
vt 3.07322 2.82570
vt 4.05747 2.82570
vn 0.0000 1.0000 0.0000
vn 0.0000 1.0000 0.0000
vn 0.0000 1.0000 0.0000
vn 0.0000 1.0000 0.0000
vn 0.0000 1.0000 0.0000
vn 0.0000 1.0000 0.0000
g mar_center_0
usemtl sea
f 1/1/1 2/2/2 3/3/3
f 4/4/4 5/5/5 6/6/6
