# sealimitincorner_inner_sw
# generated by tools/assets/build-tiles.js — do not edit
mtllib sealimitincorner_inner_sw.mtl
o sealimitincorner_inner_sw
v 0.12500 -0.00500 0.87500
v 0.12500 -0.00500 1.00000
v 0.25000 -0.44250 0.75000
v 0.12500 -0.00500 0.87500
v 0.25000 -0.44250 0.75000
v 0.00000 -0.00500 0.87500
v 0.00000 -0.00500 0.87500
v 0.00000 0.12000 1.00000
v 0.12500 -0.00500 0.87500
v 0.12500 -0.00500 0.87500
v 0.00000 0.12000 1.00000
v 0.12500 -0.00500 1.00000
v 0.00000 -0.44250 0.75000
v 0.00000 -0.00500 0.87500
v 0.25000 -0.44250 0.75000
v 0.25000 -0.44250 1.00000
v 0.25000 -0.44250 0.75000
v 0.12500 -0.00500 1.00000
vt 0.50000 -0.50000
vt 0.59375 -0.50000
vt 0.43750 -1.00000
vt 0.50000 -0.50000
vt 0.56250 -1.00000
vt 0.40000 -0.50000
vt 0.39063 -0.50000
vt 0.43750 -0.25000
vt 0.50000 -0.50000
vt 0.50000 -0.50000
vt 0.56250 -0.25000
vt 0.60000 -0.50000
vt 0.36250 -1.00000
vt 0.40000 -0.50000
vt 0.56250 -1.00000
vt 0.62500 -1.00000
vt 0.43750 -1.00000
vt 0.59375 -0.50000
vn 0.9615 0.2747 0.0000
vn 0.9615 0.2747 0.0000
vn 0.9615 0.2747 0.0000
vn 0.0000 0.2747 -0.9615
vn 0.0000 0.2747 -0.9615
vn 0.0000 0.2747 -0.9615
vn 0.0000 0.7071 -0.7071
vn 0.0000 0.7071 -0.7071
vn 0.0000 0.7071 -0.7071
vn 0.7071 0.7071 0.0000
vn 0.7071 0.7071 0.0000
vn 0.7071 0.7071 0.0000
vn 0.0000 0.2747 -0.9615
vn 0.0000 0.2747 -0.9615
vn 0.0000 0.2747 -0.9615
vn 0.9615 0.2747 0.0000
vn 0.9615 0.2747 0.0000
vn 0.9615 0.2747 0.0000
g sealimitincorner_inner_sw_0
usemtl seaside3
f 1/1/1 2/2/2 3/3/3
f 4/4/4 5/5/5 6/6/6
f 7/7/7 8/8/8 9/9/9
f 10/10/10 11/11/11 12/12/12
f 13/13/13 14/14/14 15/15/15
f 16/16/16 17/17/17 18/18/18
