# sealimitside_edge_s
# generated by tools/assets/build-tiles.js — do not edit
mtllib sealimitside_edge_s.mtl
o sealimitside_edge_s
v 0.00000 -0.00500 0.87500
v 0.00000 -0.09250 0.85000
v 0.00000 -0.44250 0.75000
v 0.00000 -0.00500 0.87500
v 1.00000 -0.44250 0.75000
v 0.00000 -0.44250 0.75000
v 1.00000 0.05750 1.25000
v 1.00000 0.12000 1.00000
v 0.00000 0.05750 1.25000
v 0.00000 0.12000 1.00000
v 0.00000 0.05750 1.25000
v 1.00000 0.12000 1.00000
v 1.00000 0.12000 1.00000
v 1.00000 -0.00500 0.87500
v 0.00000 0.12000 1.00000
v 0.00000 0.12000 1.00000
v 1.00000 -0.00500 0.87500
v 0.00000 -0.00500 0.87500
v 1.00000 -0.44250 0.75000
v 0.00000 -0.00500 0.87500
v 1.00000 -0.00500 0.87500
vt 0.00000 -0.50000
vt 0.00000 -0.60000
vt 0.00000 -1.00000
vt 0.00000 -0.50000
vt 1.00000 -1.00000
vt 0.00000 -1.00000
vt 1.00000 -0.02796
vt 1.00000 -0.27796
vt -0.00000 -0.02796
vt -0.00000 -0.27796
vt -0.00000 -0.02796
vt 1.00000 -0.27796
vt 1.00000 -0.25000
vt 1.00000 -0.50000
vt -0.00000 -0.25000
vt -0.00000 -0.25000
vt 1.00000 -0.50000
vt -0.00000 -0.50000
vt 1.00000 -1.00000
vt -0.00000 -0.50000
vt 1.00000 -0.50000
vn 0.0000 0.2747 -0.9615
vn 0.0000 0.2747 -0.9615
vn 0.0000 0.2747 -0.9615
vn 0.0000 0.2747 -0.9615
vn 0.0000 0.2747 -0.9615
vn 0.0000 0.2747 -0.9615
vn -0.0000 0.9701 0.2425
vn -0.0000 0.9701 0.2425
vn -0.0000 0.9701 0.2425
vn -0.0000 0.9701 0.2425
vn -0.0000 0.9701 0.2425
vn -0.0000 0.9701 0.2425
vn 0.0000 0.7071 -0.7071
vn 0.0000 0.7071 -0.7071
vn 0.0000 0.7071 -0.7071
vn 0.0000 0.7071 -0.7071
vn 0.0000 0.7071 -0.7071
vn 0.0000 0.7071 -0.7071
vn 0.0000 0.2747 -0.9615
vn 0.0000 0.2747 -0.9615
vn 0.0000 0.2747 -0.9615
g sealimitside_edge_s_0
usemtl seaside3
f 1/1/1 2/2/2 3/3/3
f 4/4/4 5/5/5 6/6/6
f 7/7/7 8/8/8 9/9/9
f 10/10/10 11/11/11 12/12/12
f 13/13/13 14/14/14 15/15/15
f 16/16/16 17/17/17 18/18/18
f 19/19/19 20/20/20 21/21/21
