# seaplate_center
# generated by tools/assets/build-tiles.js — do not edit
mtllib seaplate_center.mtl
o seaplate_center
v 1.00000 -0.40000 1.00000
v 0.00000 -0.40000 0.00000
v 0.00000 -0.40000 1.00000
v 1.00000 -0.40000 1.00000
v 1.00000 -0.40000 0.00000
v 0.00000 -0.40000 0.00000
vt 1.00000 0.00000
vt 0.00000 -1.00000
vt 0.00000 0.00000
vt 1.00000 0.00000
vt 1.00000 -1.00000
vt 0.00000 -1.00000
vn 0.0000 1.0000 0.0000
vn 0.0000 1.0000 0.0000
vn 0.0000 1.0000 0.0000
vn 0.0000 1.0000 0.0000
vn 0.0000 1.0000 0.0000
vn 0.0000 1.0000 0.0000
g seaplate_center_0
usemtl asasea
f 1/1/1 2/2/2 3/3/3
f 4/4/4 5/5/5 6/6/6
