# seaplatesidedown_edge_n
# generated by tools/assets/build-tiles.js — do not edit
mtllib seaplatesidedown_edge_n.mtl
o seaplatesidedown_edge_n
v 1.00000 -0.40000 0.50000
v 0.00000 -0.40000 1.00000
v 1.00000 -0.40000 1.00000
v 1.00000 -0.40000 0.50000
v 0.00000 -0.40000 0.50000
v 0.00000 -0.40000 1.00000
vt -1.00000 -0.50000
vt -2.00000 0.00000
vt -1.00000 0.00000
vt -1.00000 -0.50000
vt -2.00000 -0.50000
vt -2.00000 0.00000
vn 0.0000 1.0000 0.0000
vn 0.0000 1.0000 0.0000
vn 0.0000 1.0000 0.0000
vn 0.0000 1.0000 0.0000
vn 0.0000 1.0000 0.0000
vn 0.0000 1.0000 0.0000
g seaplatesidedown_edge_n_0
usemtl asasea
f 1/1/1 2/2/2 3/3/3
f 4/4/4 5/5/5 6/6/6
