# searock
# generated by tools/assets/build-tiles.js — do not edit
mtllib searock.mtl
o searock
v 2.00000 1.16406 1.41406
v 0.00000 -0.25000 0.00000
v 0.00000 1.16406 1.41406
v 2.00000 1.16406 1.41406
v 2.00000 -0.25000 0.00000
v 0.00000 -0.25000 0.00000
vt 1.00000 0.00000
vt 0.00000 -1.00000
vt 0.00000 0.00000
vt 1.00000 0.00000
vt 1.00000 -1.00000
vt 0.00000 -1.00000
vn 0.0000 0.7497 -0.6618
vn 0.0000 0.7497 -0.6618
vn 0.0000 0.7497 -0.6618
vn 0.0000 0.7497 -0.6618
vn 0.0000 0.7497 -0.6618
vn 0.0000 0.7497 -0.6618
g searock_0
usemtl searock
f 1/1/1 2/2/2 3/3/3
f 4/4/4 5/5/5 6/6/6
