# sand_path_corner_ne
# generated by tools/assets/build-tiles.js — do not edit
mtllib sand_path_corner_ne.mtl
o sand_path_corner_ne
v 0.00000 -0.00000 0.00000
v 0.00000 -0.00000 1.00000
v 1.00000 0.00000 0.00000
v 1.00000 0.00000 0.00000
v 0.00000 -0.00000 1.00000
v 1.00000 0.00000 1.00000
vt 1.00000 0.96875
vt 0.50000 0.03125
vt 0.00000 0.96875
vt 0.00000 0.96875
vt 1.00000 0.03125
vt 1.00000 0.96875
vn 0.0000 1.0000 0.0000
vn 0.0000 1.0000 0.0000
vn 0.0000 1.0000 0.0000
vn 0.0000 1.0000 0.0000
vn 0.0000 1.0000 0.0000
vn 0.0000 1.0000 0.0000
g sand_path_corner_ne_0
usemtl michi01a
f 1/1/1 2/2/2 3/3/3
f 4/4/4 5/5/5 6/6/6
