# sand_path_inner_nw
# generated by tools/assets/build-tiles.js — do not edit
mtllib sand_path_inner_nw.mtl
o sand_path_inner_nw
v 0.00000 -0.00000 1.00000
v 1.00000 -0.00000 1.00000
v 1.00000 -0.00000 0.00000
vt 5.00000 -6.00000
vt 5.00000 -7.00000
vt 4.00000 -7.00000
vn 0.0000 1.0000 0.0000
vn 0.0000 1.0000 0.0000
vn 0.0000 1.0000 0.0000
g sand_path_inner_nw_0
usemtl michi01b
f 1/1/1 2/2/2 3/3/3
v 1.00000 -0.00000 0.00000
v 0.00000 -0.00000 0.00000
v 0.00000 -0.00000 1.00000
vt -0.50000 0.03125
vt 0.00000 0.96875
vt 0.50000 0.03125
vn 0.0000 1.0000 0.0000
vn 0.0000 1.0000 0.0000
vn 0.0000 1.0000 0.0000
g sand_path_inner_nw_1
usemtl michi01a
f 4/4/4 5/5/5 6/6/6
