# wall_v3
# generated by tools/assets/build-tiles.js — do not edit
mtllib wall_v3.mtl
o wall_v3
v 0.00000 0.00000 0.00000
v 1.00000 4.00000 0.00000
v 1.00000 0.00000 0.00000
v 0.00000 0.00000 0.00000
v 0.00000 4.00000 0.00000
v 1.00000 4.00000 0.00000
vt 0.00000 0.00000
vt 0.50000 1.00000
vt 0.50000 0.00000
vt 0.00000 0.00000
vt 0.00000 1.00000
vt 0.50000 1.00000
vn 0.0000 0.0000 -1.0000
vn 0.0000 0.0000 -1.0000
vn 0.0000 0.0000 -1.0000
vn 0.0000 0.0000 -1.0000
vn 0.0000 0.0000 -1.0000
vn 0.0000 0.0000 -1.0000
g wall_v3_0
usemtl la_walla
f 1/1/1 2/2/2 3/3/3
f 4/4/4 5/5/5 6/6/6
