# sand_border_t_2_edge_w
# generated by tools/assets/build-tiles.js — do not edit
mtllib sand_border_t_2_edge_w.mtl
o sand_border_t_2_edge_w
v 1.00000 -0.00000 1.00000
v 0.00000 0.00000 0.00000
v 0.00000 -0.00000 1.00000
v 1.00000 -0.00000 1.00000
v 1.00000 0.00000 0.00000
v 0.00000 0.00000 0.00000
vt 0.48828 1.00000
vt 0.01172 0.50000
vt 0.01172 1.00000
vt 0.48828 1.00000
vt 0.48828 0.50000
vt 0.01172 0.50000
vn 0.0000 1.0000 0.0000
vn 0.0000 1.0000 0.0000
vn 0.0000 1.0000 0.0000
vn 0.0000 1.0000 0.0000
vn 0.0000 1.0000 0.0000
vn 0.0000 1.0000 0.0000
g sand_border_t_2_edge_w_0
usemtl beach01_r
f 1/1/1 2/2/2 3/3/3
f 4/4/4 5/5/5 6/6/6
