# sand_border_c_1_inner_nw
# generated by tools/assets/build-tiles.js — do not edit
mtllib sand_border_c_1_inner_nw.mtl
o sand_border_c_1_inner_nw
v 1.00000 0.00000 0.00000
v 0.00000 0.00000 1.00000
v 1.00000 0.00000 1.00000
v 1.00000 0.00000 0.00000
v 0.00000 0.00000 0.00000
v 0.00000 0.00000 1.00000
vt 0.98633 -0.00781
vt 0.50781 -0.49219
vt 0.50781 -0.00781
vt 0.98633 -0.00781
vt 0.98633 -0.49219
vt 0.50781 -0.49219
vn 0.0000 1.0000 0.0000
vn 0.0000 1.0000 0.0000
vn 0.0000 1.0000 0.0000
vn 0.0000 1.0000 0.0000
vn 0.0000 1.0000 0.0000
vn 0.0000 1.0000 0.0000
g sand_border_c_1_inner_nw_0
usemtl beach01_r
f 1/1/1 2/2/2 3/3/3
f 4/4/4 5/5/5 6/6/6
