# sand_border_tr_1_corner_se
# generated by tools/assets/build-tiles.js — do not edit
mtllib sand_border_tr_1_corner_se.mtl
o sand_border_tr_1_corner_se
v 0.00000 0.00000 1.00000
v 1.00000 0.00000 0.00000
v 0.00000 0.00000 0.00000
v 0.00000 0.00000 1.00000
v 1.00000 0.00000 1.00000
v 1.00000 0.00000 0.00000
vt 0.98633 -0.50586
vt 0.50586 -0.99219
vt 0.50586 -0.50586
vt 0.98633 -0.50586
vt 0.98633 -0.99219
vt 0.50586 -0.99219
vn 0.0000 1.0000 0.0000
vn 0.0000 1.0000 0.0000
vn 0.0000 1.0000 0.0000
vn 0.0000 1.0000 0.0000
vn 0.0000 1.0000 0.0000
vn 0.0000 1.0000 0.0000
g sand_border_tr_1_corner_se_0
usemtl beach01_r
f 1/1/1 2/2/2 3/3/3
f 4/4/4 5/5/5 6/6/6
