# tree_mush
# generated by tools/assets/build-tiles.js — do not edit
mtllib tree_mush.mtl
o tree_mush
v 1.84700 2.28398 2.22285
v 0.15300 0.00000 0.17500
v 0.15300 2.28398 2.22285
v 1.84700 2.28398 2.22285
v 1.84700 0.00000 0.17500
v 0.15300 0.00000 0.17500
vt 0.48990 0.98858
vt 0.01010 0.01142
vt 0.01010 0.98858
vt 0.48990 0.98858
vt 0.48990 0.01142
vt 0.01010 0.01142
vn 0.0000 0.6671 -0.7450
vn 0.0000 0.6671 -0.7450
vn 0.0000 0.6671 -0.7450
vn 0.0000 0.6671 -0.7450
vn 0.0000 0.6671 -0.7450
vn 0.0000 0.6671 -0.7450
g tree_mush_0
usemtl TreeMushroom
f 1/1/1 2/2/2 3/3/3
f 4/4/4 5/5/5 6/6/6
