# tree_shadow_v3
# generated by tools/assets/build-tiles.js — do not edit
mtllib tree_shadow_v3.mtl
o tree_shadow_v3
v 2.00000 0.10000 2.00000
v 0.00000 0.10000 0.00000
v 0.00000 0.10000 2.00000
v 2.00000 0.10000 2.00000
v 2.00000 0.10000 0.00000
v 0.00000 0.10000 0.00000
vt 1.00000 0.00000
vt 0.00000 -1.00000
vt 0.00000 0.00000
vt 1.00000 0.00000
vt 1.00000 -1.00000
vt 0.00000 -1.00000
vn 0.0000 1.0000 0.0000
vn 0.0000 1.0000 0.0000
vn 0.0000 1.0000 0.0000
vn 0.0000 1.0000 0.0000
vn 0.0000 1.0000 0.0000
vn 0.0000 1.0000 0.0000
g tree_shadow_v3_0
usemtl tree1_b
f 1/1/1 2/2/2 3/3/3
f 4/4/4 5/5/5 6/6/6
v 3.00000 3.08398 2.92285
v -1.00000 0.00000 0.37500
v -1.00000 3.08398 2.92285
v 3.00000 3.08398 2.92285
v 3.00000 0.00000 0.37500
v -1.00000 0.00000 0.37500
vt 1.00000 0.00000
vt 0.00000 -1.00000
vt 0.00000 0.00000
vt 1.00000 0.00000
vt 1.00000 -1.00000
vt 0.00000 -1.00000
vn 0.0000 0.6364 -0.7714
vn 0.0000 0.6364 -0.7714
vn 0.0000 0.6364 -0.7714
vn 0.0000 0.6364 -0.7714
vn 0.0000 0.6364 -0.7714
vn 0.0000 0.6364 -0.7714
g tree_shadow_v3_1
usemtl Tree_round
f 7/7/7 8/8/8 9/9/9
f 10/10/10 11/11/11 12/12/12
v 3.00000 0.17851 2.91934
v -1.00000 0.17851 -0.52291
v -1.00000 0.17851 2.91934
v 3.00000 0.17851 2.91934
v 3.00000 0.17851 -0.52291
v -1.00000 0.17851 -0.52291
vt 1.00000 0.00000
vt 0.00000 -1.00000
vt 0.00000 0.00000
vt 1.00000 0.00000
vt 1.00000 -1.00000
vt 0.00000 -1.00000
vn 0.0000 1.0000 -0.0007
vn 0.0000 1.0000 -0.0007
vn 0.0000 1.0000 -0.0007
vn 0.0000 1.0000 -0.0007
vn 0.0000 1.0000 -0.0007
vn 0.0000 1.0000 -0.0007
g tree_shadow_v3_2
usemtl Tree_round_shadow
f 13/13/13 14/14/14 15/15/15
f 16/16/16 17/17/17 18/18/18
