# stairs_small
# generated by tools/assets/build-tiles.js — do not edit
mtllib stairs_small.mtl
o stairs_small
v 0.00000 0.00000 0.00000
v 1.00000 1.00000 1.00000
v 1.00000 0.00000 0.00000
v 0.00000 0.00000 0.00000
v 0.00000 1.00000 1.00000
v 1.00000 1.00000 1.00000
vt 0.00000 0.02500
vt 1.00000 0.97500
vt 1.00000 0.02500
vt 0.00000 0.02500
vt 0.00000 0.97500
vt 1.00000 0.97500
vn 0.0000 0.7071 -0.7071
vn 0.0000 1.0000 0.0000
vn 0.0000 0.7071 -0.7071
vn 0.0000 0.7071 -0.7071
vn 0.0000 1.0000 0.0000
vn 0.0000 1.0000 0.0000
g stairs_small_0
usemtl Stairs
f 1/1/1 2/2/2 3/3/3
f 4/4/4 5/5/5 6/6/6
