# cave_door
# generated by tools/assets/build-tiles.js — do not edit
mtllib cave_door.mtl
o cave_door
v 0.00000 0.18750 0.31250
v 0.37500 0.00000 0.00000
v 0.00000 0.00000 0.00000
v 0.00000 0.18750 0.31250
v 0.37500 0.18750 0.31250
v 0.37500 0.00000 0.00000
v 0.00000 0.87500 0.62500
v 0.37500 0.18750 0.31250
v 0.00000 0.18750 0.31250
v 0.00000 0.87500 0.62500
v 0.37500 0.87500 0.62500
v 0.37500 0.18750 0.31250
v 0.00000 1.18750 1.31250
v 0.37500 1.00000 1.00000
v 0.00000 1.00000 1.00000
v 0.00000 1.18750 1.31250
v 0.37500 1.18750 1.31250
v 0.37500 1.00000 1.00000
v 2.62500 1.18750 1.31250
v 3.00000 1.00000 1.00000
v 2.62500 1.00000 1.00000
v 2.62500 1.18750 1.31250
v 3.00000 1.18750 1.31250
v 3.00000 1.00000 1.00000
v 0.00000 1.87500 1.62500
v 0.37500 1.18750 1.31250
v 0.00000 1.18750 1.31250
v 0.00000 1.87500 1.62500
v 0.37500 1.87500 1.62500
v 0.37500 1.18750 1.31250
v 2.62500 0.18750 0.31250
v 3.00000 0.00000 0.00000
v 2.62500 0.00000 0.00000
v 2.62500 0.18750 0.31250
v 3.00000 0.18750 0.31250
v 3.00000 0.00000 0.00000
v 2.62500 1.87500 1.62500
v 3.00000 1.18750 1.31250
v 2.62500 1.18750 1.31250
v 2.62500 1.87500 1.62500
v 3.00000 1.87500 1.62500
v 3.00000 1.18750 1.31250
v 2.62500 0.87500 0.62500
v 3.00000 0.18750 0.31250
v 2.62500 0.18750 0.31250
v 2.62500 0.87500 0.62500
v 3.00000 0.87500 0.62500
v 3.00000 0.18750 0.31250
vt 0.00000 -0.62891
vt 0.37500 -0.98047
vt 0.00000 -0.98438
vt 0.00000 -0.62891
vt 0.37500 -0.62891
vt 0.37500 -0.98047
vt 0.00000 -0.01953
vt 0.37500 -0.62891
vt 0.00000 -0.62891
vt 0.00000 -0.01953
vt 0.37500 -0.01953
vt 0.37500 -0.62891
vt 0.00000 -0.62891
vt 0.37500 -0.98047
vt 0.00000 -0.98438
vt 0.00000 -0.62891
vt 0.37500 -0.62891
vt 0.37500 -0.98047
vt 0.62500 -0.62891
vt 1.00000 -0.98047
vt 0.62500 -0.98047
vt 0.62500 -0.62891
vt 1.00000 -0.62891
vt 1.00000 -0.98047
vt 0.00000 -0.01953
vt 0.37500 -0.62891
vt 0.00000 -0.62891
vt 0.00000 -0.01953
vt 0.37500 -0.01953
vt 0.37500 -0.62891
vt 0.62500 -0.62891
vt 1.00000 -0.98047
vt 0.62500 -0.98047
vt 0.62500 -0.62891
vt 1.00000 -0.62891
vt 1.00000 -0.98047
vt 0.62500 -0.01953
vt 1.00000 -0.62891
vt 0.62500 -0.62891
vt 0.62500 -0.01953
vt 1.00000 -0.01953
vt 1.00000 -0.62891
vt 0.62500 -0.01953
vt 1.00000 -0.62891
vt 0.62500 -0.62891
vt 0.62500 -0.01953
vt 1.00000 -0.01953
vt 1.00000 -0.62891
vn 0.0000 0.8575 -0.5145
vn 0.0000 0.8575 -0.5145
vn 0.0000 0.8575 -0.5145
vn 0.0000 0.8575 -0.5145
vn 0.0000 0.8575 -0.5145
vn 0.0000 0.8575 -0.5145
vn 0.0000 0.4138 -0.9104
vn 0.0000 0.4138 -0.9104
vn 0.0000 0.4138 -0.9104
vn 0.0000 0.4138 -0.9104
vn 0.0000 0.4138 -0.9104
vn 0.0000 0.4138 -0.9104
vn 0.0000 0.8575 -0.5145
vn 0.0000 0.8575 -0.5145
vn 0.0000 0.8575 -0.5145
vn 0.0000 0.8575 -0.5145
vn 0.0000 0.8575 -0.5145
vn 0.0000 0.8575 -0.5145
vn 0.0000 0.8575 -0.5145
vn 0.0000 0.8575 -0.5145
vn 0.0000 0.8575 -0.5145
vn 0.0000 0.8575 -0.5145
vn 0.0000 0.8575 -0.5145
vn 0.0000 0.8575 -0.5145
vn 0.0000 0.4138 -0.9104
vn 0.0000 0.4138 -0.9104
vn 0.0000 0.4138 -0.9104
vn 0.0000 0.4138 -0.9104
vn 0.0000 0.4138 -0.9104
vn 0.0000 0.4138 -0.9104
vn 0.0000 0.8575 -0.5145
vn 0.0000 0.8575 -0.5145
vn 0.0000 0.8575 -0.5145
vn 0.0000 0.8575 -0.5145
vn 0.0000 0.8575 -0.5145
vn 0.0000 0.8575 -0.5145
vn 0.0000 0.4138 -0.9104
vn 0.0000 0.4138 -0.9104
vn 0.0000 0.4138 -0.9104
vn 0.0000 0.4138 -0.9104
vn 0.0000 0.4138 -0.9104
vn 0.0000 0.4138 -0.9104
vn 0.0000 0.4138 -0.9104
vn 0.0000 0.4138 -0.9104
vn 0.0000 0.4138 -0.9104
vn 0.0000 0.4138 -0.9104
vn 0.0000 0.4138 -0.9104
vn 0.0000 0.4138 -0.9104
g cave_door_0
usemtl d7cliff2
f 1/1/1 2/2/2 3/3/3
f 4/4/4 5/5/5 6/6/6
f 7/7/7 8/8/8 9/9/9
f 10/10/10 11/11/11 12/12/12
f 13/13/13 14/14/14 15/15/15
f 16/16/16 17/17/17 18/18/18
f 19/19/19 20/20/20 21/21/21
f 22/22/22 23/23/23 24/24/24
f 25/25/25 26/26/26 27/27/27
f 28/28/28 29/29/29 30/30/30
f 31/31/31 32/32/32 33/33/33
f 34/34/34 35/35/35 36/36/36
f 37/37/37 38/38/38 39/39/39
f 40/40/40 41/41/41 42/42/42
f 43/43/43 44/44/44 45/45/45
f 46/46/46 47/47/47 48/48/48
v 2.56250 1.92285 1.87500
v 0.43750 0.14160 1.87500
v 0.43750 1.92285 1.87500
v 2.56250 1.92285 1.87500
v 2.56250 0.14160 1.87500
v 0.43750 0.14160 1.87500
v 0.43750 0.14160 1.87500
v 2.56250 0.20410 0.12500
v 0.43750 0.20410 0.12500
v 0.43750 0.14160 1.87500
v 2.56250 0.14160 1.87500
v 2.56250 0.20410 0.12500
v 2.62500 0.14160 0.50000
v 0.50000 0.14160 -1.00000
v 0.37500 0.14160 0.50000
v 2.62500 0.14160 0.50000
v 2.50000 0.14160 -1.00000
v 0.50000 0.14160 -1.00000
v 0.43750 0.14160 1.87500
v 0.43750 1.82910 1.25000
v 0.43750 1.92285 1.87500
v 0.43750 1.82910 1.25000
v 0.43750 0.14160 1.87500
v 0.43750 0.20410 0.12500
v 2.56250 1.92285 1.87500
v 2.56250 0.20410 0.12500
v 2.56250 0.14160 1.87500
v 2.56250 0.20410 0.12500
v 2.56250 1.92285 1.87500
v 2.56250 1.82910 1.25000
vt 0.00000 -0.07227
vt 0.00000 0.00000
vt 0.00000 -0.07227
vt 0.00000 -0.07227
vt 0.00000 0.00000
vt 0.00000 0.00000
vt 0.00000 -0.07227
vt 0.00000 0.00000
vt 0.00000 -0.07227
vt 0.00000 -0.07227
vt 0.00000 0.00000
vt 0.00000 0.00000
vt 1.00000 -0.03320
vt 0.00000 -0.97266
vt 0.00000 -0.03320
vt 1.00000 -0.03320
vt 1.00000 -0.97266
vt 0.00000 -0.97266
vt 0.00000 0.00000
vt 1.00000 -0.07227
vt 1.00000 0.00000
vt 1.00000 -0.07227
vt 0.00000 0.00000
vt 0.00000 -0.07227
vt 0.00000 0.00000
vt 1.00000 -0.07227
vt 1.00000 0.00000
vt 1.00000 -0.07227
vt 0.00000 0.00000
vt 0.00000 -0.07227
vn 0.0000 0.0000 -1.0000
vn 0.0000 0.0000 -1.0000
vn 0.0000 0.0000 -1.0000
vn 0.0000 0.0000 -1.0000
vn 0.0000 0.0000 -1.0000
vn 0.0000 0.0000 -1.0000
vn 0.0000 0.9994 0.0357
vn 0.0000 0.9994 0.0357
vn 0.0000 0.9994 0.0357
vn 0.0000 0.9994 0.0357
vn 0.0000 0.9994 0.0357
vn 0.0000 0.9994 0.0357
vn 0.0000 1.0000 0.0000
vn 0.0000 1.0000 0.0000
vn 0.0000 1.0000 0.0000
vn 0.0000 1.0000 0.0000
vn 0.0000 1.0000 0.0000
vn 0.0000 1.0000 0.0000
vn 1.0000 0.0000 0.0000
vn 1.0000 0.0000 0.0000
vn 1.0000 0.0000 0.0000
vn 1.0000 0.0000 0.0000
vn 1.0000 0.0000 0.0000
vn 1.0000 0.0000 0.0000
vn -1.0000 0.0000 0.0000
vn -1.0000 0.0000 0.0000
vn -1.0000 0.0000 0.0000
vn -1.0000 0.0000 0.0000
vn -1.0000 0.0000 0.0000
vn -1.0000 0.0000 0.0000
g cave_door_1
usemtl d7_ana02
f 49/49/49 50/50/50 51/51/51
f 52/52/52 53/53/53 54/54/54
f 55/55/55 56/56/56 57/57/57
f 58/58/58 59/59/59 60/60/60
f 61/61/61 62/62/62 63/63/63
f 64/64/64 65/65/65 66/66/66
f 67/67/67 68/68/68 69/69/69
f 70/70/70 71/71/71 72/72/72
f 73/73/73 74/74/74 75/75/75
f 76/76/76 77/77/77 78/78/78
v 2.62500 1.95410 1.18750
v 0.25000 2.07910 2.00000
v 2.75000 2.07910 2.00000
v 2.62500 1.95410 1.18750
v 0.37500 1.95410 1.18750
v 0.25000 2.07910 2.00000
v 2.00000 1.68652 1.01172
v 0.37500 1.95410 1.18750
v 2.62500 1.95410 1.18750
v 2.00000 1.68652 1.01172
v 1.00000 1.68652 1.01172
v 0.37500 1.95410 1.18750
v 2.00000 1.68652 1.01172
v 2.62500 1.04785 0.59375
v 2.00000 0.14160 0.00000
v 2.00000 0.14160 0.00000
v 2.62500 1.04785 0.59375
v 2.62500 0.14160 0.00000
v 2.62500 1.04785 0.59375
v 2.75000 1.04785 1.25000
v 2.62500 0.14160 0.00000
v 2.62500 0.14160 0.00000
v 2.75000 1.04785 1.25000
v 2.75000 0.14160 0.31250
v 1.00000 0.14160 0.00000
v 0.37500 0.14160 0.00000
v 1.00000 1.68652 1.01172
v 1.00000 1.68652 1.01172
v 0.37500 0.14160 0.00000
v 0.37500 1.04785 0.59375
v 0.37500 0.14160 0.00000
v 0.25000 0.14160 0.31250
v 0.37500 1.04785 0.59375
v 0.37500 1.04785 0.59375
v 0.25000 0.14160 0.31250
v 0.25000 1.04785 1.25000
v 2.75000 1.04785 1.25000
v 2.62500 1.95410 1.18750
v 2.75000 2.07910 2.00000
v 2.62500 1.95410 1.18750
v 2.75000 1.04785 1.25000
v 2.62500 1.04785 0.59375
v 0.25000 1.04785 1.25000
v 0.37500 1.95410 1.18750
v 0.37500 1.04785 0.59375
v 0.37500 1.95410 1.18750
v 0.25000 1.04785 1.25000
v 0.25000 2.07910 2.00000
v 0.37500 1.95410 1.18750
v 1.00000 1.68652 1.01172
v 0.37500 1.04785 0.59375
v 2.62500 1.04785 0.59375
v 2.00000 1.68652 1.01172
v 2.62500 1.95410 1.18750
vt 0.91504 -0.23438
vt 0.00000 0.00000
vt 1.00000 0.00000
vt 0.91504 -0.23438
vt 0.08496 -0.23438
vt 0.00000 0.00000
vt 0.73340 -0.39063
vt 0.08496 -0.23438
vt 0.91504 -0.23438
vt 0.73340 -0.39063
vt 0.29395 -0.39063
vt 0.08496 -0.23438
vt 0.73340 -0.39063
vt 0.91504 -0.61719
vt 0.73340 -1.00000
vt 0.73340 -1.00000
vt 0.91504 -0.61719
vt 0.91504 -1.00000
vt 0.91504 -0.61719
vt 1.00000 -0.53809
vt 0.91504 -1.00000
vt 0.91504 -1.00000
vt 1.00000 -0.53809
vt 1.00000 -1.00000
vt 0.29395 -1.00000
vt 0.08496 -1.00000
vt 0.29395 -0.39063
vt 0.29395 -0.39063
vt 0.08496 -1.00000
vt 0.08496 -0.61719
vt 0.08496 -1.00000
vt 0.00000 -1.00000
vt 0.08496 -0.61719
vt 0.08496 -0.61719
vt 0.00000 -1.00000
vt 0.00000 -0.53809
vt 1.00000 -0.53809
vt 0.91504 -0.23438
vt 1.00000 0.00000
vt 0.91504 -0.23438
vt 1.00000 -0.53809
vt 0.91504 -0.61719
vt 0.00000 -0.53809
vt 0.08496 -0.23438
vt 0.08496 -0.61719
vt 0.08496 -0.23438
vt 0.00000 -0.53809
vt 0.00000 0.00000
vt 0.08496 -0.23438
vt 0.29395 -0.39063
vt 0.08496 -0.61719
vt 0.91504 -0.61719
vt 0.73340 -0.39063
vt 0.91504 -0.23438
vn 0.0000 0.9482 -0.3178
vn 0.0000 0.9884 -0.1521
vn 0.0000 0.9884 -0.1521
vn 0.0000 0.9482 -0.3178
vn 0.0000 0.9482 -0.3178
vn 0.0000 0.9884 -0.1521
vn 0.0000 0.5491 -0.8358
vn 0.0000 0.9482 -0.3178
vn 0.0000 0.9482 -0.3178
vn 0.0000 0.5491 -0.8358
vn 0.0000 0.5491 -0.8358
vn 0.0000 0.9482 -0.3178
vn 0.0004 0.5478 -0.8366
vn 0.5800 0.4463 -0.6814
vn 0.0001 0.5480 -0.8365
vn 0.0001 0.5480 -0.8365
vn 0.5800 0.4463 -0.6814
vn 0.4317 0.5223 -0.7354
vn 0.5800 0.4463 -0.6814
vn 0.9602 0.1716 -0.2204
vn 0.4317 0.5223 -0.7354
vn 0.4317 0.5223 -0.7354
vn 0.9602 0.1716 -0.2204
vn 0.8667 0.3586 -0.3467
vn 0.0000 0.5478 -0.8366
vn -0.4206 0.4971 -0.7589
vn -0.0003 0.5479 -0.8365
vn -0.0003 0.5479 -0.8365
vn -0.4206 0.4971 -0.7589
vn -0.5564 0.4794 -0.6787
vn -0.4206 0.4971 -0.7589
vn -0.9191 0.2268 -0.3223
vn -0.5564 0.4794 -0.6787
vn -0.5564 0.4794 -0.6787
vn -0.9191 0.2268 -0.3223
vn -0.9644 0.1900 -0.1837
vn 0.9760 0.1222 -0.1804
vn 0.9770 0.1228 -0.1741
vn 0.9778 0.1232 -0.1694
vn 0.9770 0.1228 -0.1741
vn 0.9760 0.1222 -0.1804
vn 0.9750 0.1217 -0.1857
vn -0.9760 0.1222 -0.1804
vn -0.9770 0.1228 -0.1741
vn -0.9750 0.1217 -0.1857
vn -0.9770 0.1228 -0.1741
vn -0.9760 0.1222 -0.1804
vn -0.9778 0.1232 -0.1694
vn -0.0006 0.5480 -0.8365
vn -0.0006 0.5480 -0.8365
vn -0.0006 0.5480 -0.8365
vn 0.0006 0.5480 -0.8365
vn 0.0006 0.5480 -0.8365
vn 0.0006 0.5480 -0.8365
g cave_door_2
usemtl d7_ana01
f 79/79/79 80/80/80 81/81/81
f 82/82/82 83/83/83 84/84/84
f 85/85/85 86/86/86 87/87/87
f 88/88/88 89/89/89 90/90/90
f 91/91/91 92/92/92 93/93/93
f 94/94/94 95/95/95 96/96/96
f 97/97/97 98/98/98 99/99/99
f 100/100/100 101/101/101 102/102/102
f 103/103/103 104/104/104 105/105/105
f 106/106/106 107/107/107 108/108/108
f 109/109/109 110/110/110 111/111/111
f 112/112/112 113/113/113 114/114/114
f 115/115/115 116/116/116 117/117/117
f 118/118/118 119/119/119 120/120/120
f 121/121/121 122/122/122 123/123/123
f 124/124/124 125/125/125 126/126/126
f 127/127/127 128/128/128 129/129/129
f 130/130/130 131/131/131 132/132/132
v 2.62500 1.87500 1.62500
v 3.00000 2.00000 2.00000
v 3.00000 1.87500 1.62500
v 2.62500 1.87500 1.62500
v 2.62500 2.00000 2.00000
v 3.00000 2.00000 2.00000
v 0.00000 0.87500 0.62500
v 0.37500 1.00000 1.00000
v 0.37500 0.87500 0.62500
v 0.00000 0.87500 0.62500
v 0.00000 1.00000 1.00000
v 0.37500 1.00000 1.00000
v 0.00000 1.87500 1.62500
v 0.37500 2.00000 2.00000
v 0.37500 1.87500 1.62500
v 0.00000 1.87500 1.62500
v 0.00000 2.00000 2.00000
v 0.37500 2.00000 2.00000
v 2.62500 0.87500 0.62500
v 3.00000 1.00000 1.00000
v 3.00000 0.87500 0.62500
v 2.62500 0.87500 0.62500
v 2.62500 1.00000 1.00000
v 3.00000 1.00000 1.00000
vt 0.62500 -0.97656
vt 1.00000 -0.01563
vt 1.00000 -0.97656
vt 0.62500 -0.97656
vt 0.62500 -0.01563
vt 1.00000 -0.01563
vt 0.00000 -0.97656
vt 0.37500 -0.01563
vt 0.37500 -0.97656
vt 0.00000 -0.97656
vt 0.00000 -0.01563
vt 0.37500 -0.01563
vt 0.00000 -0.97656
vt 0.37500 -0.01563
vt 0.37500 -0.97656
vt 0.00000 -0.97656
vt 0.00000 -0.01563
vt 0.37500 -0.01563
vt 0.62500 -0.97656
vt 1.00000 -0.01563
vt 1.00000 -0.97656
vt 0.62500 -0.97656
vt 0.62500 -0.01563
vt 1.00000 -0.01563
vn 0.0000 0.9487 -0.3162
vn 0.0000 0.9487 -0.3162
vn 0.0000 0.9487 -0.3162
vn 0.0000 0.9487 -0.3162
vn 0.0000 0.9487 -0.3162
vn 0.0000 0.9487 -0.3162
vn 0.0000 0.9487 -0.3162
vn 0.0000 0.9487 -0.3162
vn 0.0000 0.9487 -0.3162
vn 0.0000 0.9487 -0.3162
vn 0.0000 0.9487 -0.3162
vn 0.0000 0.9487 -0.3162
vn 0.0000 0.9487 -0.3162
vn 0.0000 0.9487 -0.3162
vn 0.0000 0.9487 -0.3162
vn 0.0000 0.9487 -0.3162
vn 0.0000 0.9487 -0.3162
vn 0.0000 0.9487 -0.3162
vn 0.0000 0.9487 -0.3162
vn 0.0000 0.9487 -0.3162
vn 0.0000 0.9487 -0.3162
vn 0.0000 0.9487 -0.3162
vn 0.0000 0.9487 -0.3162
vn 0.0000 0.9487 -0.3162
g cave_door_3
usemtl d7cliffue2
f 133/133/133 134/134/134 135/135/135
f 136/136/136 137/137/137 138/138/138
f 139/139/139 140/140/140 141/141/141
f 142/142/142 143/143/143 144/144/144
f 145/145/145 146/146/146 147/147/147
f 148/148/148 149/149/149 150/150/150
f 151/151/151 152/152/152 153/153/153
f 154/154/154 155/155/155 156/156/156
v 0.00000 0.00000 0.00000
v 3.00000 0.00000 0.87500
v 3.00000 0.00000 0.00000
v 0.00000 0.00000 0.00000
v 0.00000 0.00000 0.87500
v 3.00000 0.00000 0.87500
vt 0.76563 -0.05469
vt 0.76563 -0.05469
vt 0.76563 -0.05469
vt 0.76563 -0.05469
vt 0.76563 -0.05469
vt 0.76563 -0.05469
vn 0.0000 1.0000 0.0000
vn 0.0000 1.0000 0.0000
vn 0.0000 1.0000 0.0000
vn 0.0000 1.0000 0.0000
vn 0.0000 1.0000 0.0000
vn 0.0000 1.0000 0.0000
g cave_door_4
usemtl d7bedrock2
f 157/157/157 158/158/158 159/159/159
f 160/160/160 161/161/161 162/162/162
