# tree_tileable_v2
# generated by tools/assets/build-tiles.js — do not edit
mtllib tree_tileable_v2.mtl
o tree_tileable_v2
v 0.00000 1.85547 0.87695
v 2.00000 2.64453 2.00293
v 2.00000 1.85547 0.87695
v 0.00000 1.85547 0.87695
v 0.00000 2.64453 2.00293
v 2.00000 2.64453 2.00293
v 0.00000 1.14941 0.54688
v 2.00000 2.22558 2.08300
v 2.00000 1.14941 0.54688
v 0.00000 1.14941 0.54688
v 0.00000 2.22558 2.08300
v 2.00000 2.22558 2.08300
vt 1.00000 0.59375
vt 1.50000 0.93750
vt 1.50000 0.59375
vt 1.00000 0.59375
vt 1.00000 0.93750
vt 1.50000 0.93750
vt 1.00000 0.03125
vt 1.50000 0.50000
vt 1.50000 0.03125
vt 1.00000 0.03125
vt 1.00000 0.50000
vt 1.50000 0.50000
vn 0.0000 0.8187 -0.5743
vn 0.0000 0.8187 -0.5743
vn 0.0005 0.8189 -0.5739
vn 0.0000 0.8187 -0.5743
vn 0.0005 0.8189 -0.5739
vn 0.0000 0.8187 -0.5743
vn 0.0000 0.8186 -0.5743
vn 0.0000 0.8186 -0.5743
vn 0.0007 0.8190 -0.5738
vn 0.0000 0.8186 -0.5743
vn 0.0007 0.8190 -0.5738
vn 0.0000 0.8186 -0.5743
g tree_tileable_v2_0
usemtl t22
f 1/1/1 2/2/2 3/3/3
f 4/4/4 5/5/5 6/6/6
f 7/7/7 8/8/8 9/9/9
f 10/10/10 11/11/11 12/12/12
v 0.00000 0.45312 0.38184
v 2.00000 1.67187 2.12304
v 2.00000 0.45312 0.38184
v 0.00000 0.45312 0.38184
v 0.00000 1.67187 2.12304
v 2.00000 1.67187 2.12304
v 0.00000 0.05664 0.06347
v 2.00000 0.05664 1.93848
v 2.00000 0.05664 0.06347
v 0.00000 0.05664 0.06347
v 0.00000 0.05664 1.93848
v 2.00000 0.05664 1.93848
vt 1.00000 0.43750
vt 1.50000 1.00000
vt 1.50000 0.43750
vt 1.00000 0.43750
vt 1.00000 1.00000
vt 1.50000 1.00000
vt 1.00000 0.03125
vt 1.50000 0.43750
vt 1.50000 0.03125
vt 1.00000 0.03125
vt 1.00000 0.43750
vt 1.50000 0.43750
vn 0.0000 0.8186 -0.5744
vn 0.0000 0.8186 -0.5744
vn 0.0012 0.8193 -0.5734
vn 0.0000 0.8186 -0.5744
vn 0.0012 0.8193 -0.5734
vn 0.0000 0.8186 -0.5744
vn 0.0000 1.0000 0.0000
vn 0.0000 1.0000 0.0000
vn 0.0000 1.0000 0.0000
vn 0.0000 1.0000 0.0000
vn 0.0000 1.0000 0.0000
vn 0.0000 1.0000 0.0000
g tree_tileable_v2_1
usemtl t21
f 13/13/13 14/14/14 15/15/15
f 16/16/16 17/17/17 18/18/18
f 19/19/19 20/20/20 21/21/21
f 22/22/22 23/23/23 24/24/24
v 0.00000 -0.00000 0.00000
v 2.00000 -0.00000 2.00000
v 2.00000 -0.00000 0.00000
v 0.00000 -0.00000 0.00000
v 0.00000 -0.00000 2.00000
v 2.00000 -0.00000 2.00000
vt 0.00000 0.00000
vt 1.00000 1.00000
vt 1.00000 0.00000
vt 0.00000 0.00000
vt 0.00000 1.00000
vt 1.00000 1.00000
vn 0.0000 1.0000 0.0000
vn 0.0000 1.0000 0.0000
vn 0.0000 1.0000 0.0000
vn 0.0000 1.0000 0.0000
vn 0.0000 1.0000 0.0000
vn 0.0000 1.0000 0.0000
g tree_tileable_v2_2
usemtl tshadow
f 25/25/25 26/26/26 27/27/27
f 28/28/28 29/29/29 30/30/30
