# r0_round_forest_enter
# generated by tools/assets/build-tiles.js — do not edit
mtllib r0_round_forest_enter.mtl
o r0_round_forest_enter
v 6.00000 0.24072 1.12500
v 6.00000 0.24072 3.12500
v 6.00000 3.48730 3.12500
v 6.00000 0.24072 1.12500
v 6.00000 3.48730 3.12500
v 6.00000 3.48730 1.12500
v 5.00000 0.24072 2.12500
v 7.00000 0.24072 2.12500
v 7.00000 3.48730 2.12500
v 5.00000 0.24072 2.12500
v 7.00000 3.48730 2.12500
v 5.00000 3.48730 2.12500
v 1.00000 0.24072 1.12500
v 1.00000 0.24072 3.12500
v 1.00000 3.48730 3.12500
v 1.00000 0.24072 1.12500
v 1.00000 3.48730 3.12500
v 1.00000 3.48730 1.12500
v 0.00000 0.24072 2.12500
v 2.00000 0.24072 2.12500
v 2.00000 3.48730 2.12500
v 0.00000 0.24072 2.12500
v 2.00000 3.48730 2.12500
v 0.00000 3.48730 2.12500
v 5.30000 0.18000 1.89500
v 5.30000 4.14000 -0.02500
v 5.30000 0.18000 -0.02500
v 5.30000 0.18000 1.89500
v 5.30000 4.14000 1.89500
v 5.30000 4.14000 -0.02500
v 1.70000 0.18000 1.89500
v 1.70000 4.14000 -0.02500
v 1.70000 0.18000 -0.02500
v 1.70000 0.18000 1.89500
v 1.70000 4.14000 1.89500
v 1.70000 4.14000 -0.02500
v 4.34000 0.18000 0.93500
v 6.26000 4.14000 0.93500
v 6.26000 0.18000 0.93500
v 4.34000 0.18000 0.93500
v 4.34000 4.14000 0.93500
v 6.26000 4.14000 0.93500
v 0.74000 0.18000 0.93500
v 2.66000 4.14000 0.93500
v 2.66000 0.18000 0.93500
v 0.74000 0.18000 0.93500
v 0.74000 4.14000 0.93500
v 2.66000 4.14000 0.93500
v 2.54000 0.30000 2.85500
v 2.54000 4.26000 0.93500
v 2.54000 0.30000 0.93500
v 2.54000 0.30000 2.85500
v 2.54000 4.26000 2.85500
v 2.54000 4.26000 0.93500
v 4.46000 0.30000 2.85500
v 4.46000 4.26000 0.93500
v 4.46000 0.30000 0.93500
v 4.46000 0.30000 2.85500
v 4.46000 4.26000 2.85500
v 4.46000 4.26000 0.93500
v 1.58000 0.30000 1.89500
v 5.42000 4.26000 1.89500
v 5.42000 0.30000 1.89500
v 1.58000 0.30000 1.89500
v 1.58000 4.26000 1.89500
v 5.42000 4.26000 1.89500
vt 0.00000 0.00000
vt 1.00000 0.00000
vt 1.00000 1.00000
vt 0.00000 0.00000
vt 1.00000 1.00000
vt 0.00000 1.00000
vt 0.00000 0.00000
vt 1.00000 0.00000
vt 1.00000 1.00000
vt 0.00000 0.00000
vt 1.00000 1.00000
vt 0.00000 1.00000
vt 0.00000 0.00000
vt 1.00000 0.00000
vt 1.00000 1.00000
vt 0.00000 0.00000
vt 1.00000 1.00000
vt 0.00000 1.00000
vt 0.00000 0.00000
vt 1.00000 0.00000
vt 1.00000 1.00000
vt 0.00000 0.00000
vt 1.00000 1.00000
vt 0.00000 1.00000
vt -1.00000 0.00000
vt 0.00000 1.00000
vt 0.00000 0.00000
vt -1.00000 0.00000
vt -1.00000 1.00000
vt 0.00000 1.00000
vt -1.00000 0.00000
vt 0.00000 1.00000
vt 0.00000 0.00000
vt -1.00000 0.00000
vt -1.00000 1.00000
vt 0.00000 1.00000
vt -1.00000 0.00000
vt 0.00000 1.00000
vt 0.00000 0.00000
vt -1.00000 0.00000
vt -1.00000 1.00000
vt 0.00000 1.00000
vt -1.00000 0.00000
vt 0.00000 1.00000
vt 0.00000 0.00000
vt -1.00000 0.00000
vt -1.00000 1.00000
vt 0.00000 1.00000
vt -1.00000 0.00000
vt 0.00000 1.00000
vt 0.00000 0.00000
vt -1.00000 0.00000
vt -1.00000 1.00000
vt 0.00000 1.00000
vt -1.00000 0.00000
vt 0.00000 1.00000
vt 0.00000 0.00000
vt -1.00000 0.00000
vt -1.00000 1.00000
vt 0.00000 1.00000
vt -2.00000 0.00000
vt 0.00000 1.00000
vt 0.00000 0.00000
vt -2.00000 0.00000
vt -2.00000 1.00000
vt 0.00000 1.00000
vn -0.0014 1.0000 0.0066
vn -0.0014 1.0000 0.0066
vn -0.0014 1.0000 0.0066
vn -0.0014 1.0000 0.0066
vn -0.0014 1.0000 0.0066
vn -0.0014 1.0000 0.0066
vn -0.0014 1.0000 0.0066
vn -0.0014 1.0000 0.0066
vn -0.0014 1.0000 0.0066
vn -0.0014 1.0000 0.0066
vn -0.0014 1.0000 0.0066
vn -0.0014 1.0000 0.0066
vn -0.0014 1.0000 0.0066
vn -0.0014 1.0000 0.0066
vn -0.0014 1.0000 0.0066
vn -0.0014 1.0000 0.0066
vn -0.0014 1.0000 0.0066
vn -0.0014 1.0000 0.0066
vn -0.0014 1.0000 0.0066
vn -0.0014 1.0000 0.0066
vn -0.0014 1.0000 0.0066
vn -0.0014 1.0000 0.0066
vn -0.0014 1.0000 0.0066
vn -0.0014 1.0000 0.0066
vn -0.0316 0.9975 -0.0627
vn -0.0316 0.9975 -0.0627
vn -0.0316 0.9975 -0.0627
vn -0.0316 0.9975 -0.0627
vn -0.0316 0.9975 -0.0627
vn -0.0316 0.9975 -0.0627
vn -0.0316 0.9975 -0.0627
vn -0.0316 0.9975 -0.0627
vn -0.0316 0.9975 -0.0627
vn -0.0316 0.9975 -0.0627
vn -0.0316 0.9975 -0.0627
vn -0.0316 0.9975 -0.0627
vn -0.0316 0.9975 -0.0627
vn -0.0316 0.9975 -0.0627
vn -0.0316 0.9975 -0.0627
vn -0.0316 0.9975 -0.0627
vn -0.0316 0.9975 -0.0627
vn -0.0316 0.9975 -0.0627
vn -0.0316 0.9975 -0.0627
vn -0.0316 0.9975 -0.0627
vn -0.0316 0.9975 -0.0627
vn -0.0316 0.9975 -0.0627
vn -0.0316 0.9975 -0.0627
vn -0.0316 0.9975 -0.0627
vn -0.0316 0.9975 -0.0627
vn -0.0316 0.9975 -0.0627
vn -0.0316 0.9975 -0.0627
vn -0.0316 0.9975 -0.0627
vn -0.0316 0.9975 -0.0627
vn -0.0316 0.9975 -0.0627
vn -0.0316 0.9975 -0.0627
vn -0.0316 0.9975 -0.0627
vn -0.0316 0.9975 -0.0627
vn -0.0316 0.9975 -0.0627
vn -0.0316 0.9975 -0.0627
vn -0.0316 0.9975 -0.0627
vn -0.0316 0.9975 -0.0627
vn -0.0316 0.9975 -0.0627
vn -0.0316 0.9975 -0.0627
vn -0.0316 0.9975 -0.0627
vn -0.0316 0.9975 -0.0627
vn -0.0316 0.9975 -0.0627
g r0_round_forest_enter_0
usemtl ki03ax
f 1/1/1 2/2/2 3/3/3
f 4/4/4 5/5/5 6/6/6
f 7/7/7 8/8/8 9/9/9
f 10/10/10 11/11/11 12/12/12
f 13/13/13 14/14/14 15/15/15
f 16/16/16 17/17/17 18/18/18
f 19/19/19 20/20/20 21/21/21
f 22/22/22 23/23/23 24/24/24
f 25/25/25 26/26/26 27/27/27
f 28/28/28 29/29/29 30/30/30
f 31/31/31 32/32/32 33/33/33
f 34/34/34 35/35/35 36/36/36
f 37/37/37 38/38/38 39/39/39
f 40/40/40 41/41/41 42/42/42
f 43/43/43 44/44/44 45/45/45
f 46/46/46 47/47/47 48/48/48
f 49/49/49 50/50/50 51/51/51
f 52/52/52 53/53/53 54/54/54
f 55/55/55 56/56/56 57/57/57
f 58/58/58 59/59/59 60/60/60
f 61/61/61 62/62/62 63/63/63
f 64/64/64 65/65/65 66/66/66
v 5.00000 0.25928 1.12500
v 7.00000 0.25928 3.12500
v 7.00000 0.25928 1.12500
v 5.00000 0.25928 1.12500
v 5.00000 0.25928 3.12500
v 7.00000 0.25928 3.12500
v 0.00000 0.25928 1.12500
v 2.00000 0.25928 3.12500
v 2.00000 0.25928 1.12500
v 0.00000 0.25928 1.12500
v 0.00000 0.25928 3.12500
v 2.00000 0.25928 3.12500
vt 0.00000 0.00000
vt 1.00000 1.00000
vt 1.00000 0.00000
vt 0.00000 0.00000
vt 0.00000 1.00000
vt 1.00000 1.00000
vt 0.00000 0.00000
vt 1.00000 1.00000
vt 1.00000 0.00000
vt 0.00000 0.00000
vt 0.00000 1.00000
vt 1.00000 1.00000
vn -0.0014 1.0000 0.0066
vn -0.0014 1.0000 0.0066
vn -0.0014 1.0000 0.0066
vn -0.0014 1.0000 0.0066
vn -0.0014 1.0000 0.0066
vn -0.0014 1.0000 0.0066
vn -0.0014 1.0000 0.0066
vn -0.0014 1.0000 0.0066
vn -0.0014 1.0000 0.0066
vn -0.0014 1.0000 0.0066
vn -0.0014 1.0000 0.0066
vn -0.0014 1.0000 0.0066
g r0_round_forest_enter_1
usemtl ki02c
f 67/67/67 68/68/68 69/69/69
f 70/70/70 71/71/71 72/72/72
f 73/73/73 74/74/74 75/75/75
f 76/76/76 77/77/77 78/78/78
v 5.00000 2.95605 1.12500
v 7.00000 2.95605 3.12500
v 7.00000 2.95605 1.12500
v 5.00000 2.95605 1.12500
v 5.00000 2.95605 3.12500
v 7.00000 2.95605 3.12500
v 0.00000 2.95605 1.12500
v 2.00000 2.95605 3.12500
v 2.00000 2.95605 1.12500
v 0.00000 2.95605 1.12500
v 0.00000 2.95605 3.12500
v 2.00000 2.95605 3.12500
v 3.50000 3.57000 0.93500
v 1.58000 3.57000 2.85500
v 3.50000 3.57000 2.85500
v 3.50000 3.57000 0.93500
v 1.58000 3.57000 0.93500
v 1.58000 3.57000 2.85500
v 6.38000 2.31000 1.89500
v 0.62000 2.31000 3.81500
v 6.38000 2.31000 3.81500
v 6.38000 2.31000 1.89500
v 0.62000 2.31000 1.89500
v 0.62000 2.31000 3.81500
v 2.66000 3.45000 -0.02500
v 0.74000 3.45000 1.89500
v 2.66000 3.45000 1.89500
v 2.66000 3.45000 -0.02500
v 0.74000 3.45000 -0.02500
v 0.74000 3.45000 1.89500
v 6.26000 3.45000 -0.02500
v 4.34000 3.45000 1.89500
v 6.26000 3.45000 1.89500
v 6.26000 3.45000 -0.02500
v 4.34000 3.45000 -0.02500
v 4.34000 3.45000 1.89500
v 5.42000 3.57000 0.93500
v 3.50000 3.57000 2.85500
v 5.42000 3.57000 2.85500
v 5.42000 3.57000 0.93500
v 3.50000 3.57000 0.93500
v 3.50000 3.57000 2.85500
vt 0.00000 0.00000
vt 1.00000 1.00000
vt 1.00000 0.00000
vt 0.00000 0.00000
vt 0.00000 1.00000
vt 1.00000 1.00000
vt 0.00000 0.00000
vt 1.00000 1.00000
vt 1.00000 0.00000
vt 0.00000 0.00000
vt 0.00000 1.00000
vt 1.00000 1.00000
vt 0.00000 0.00000
vt -1.00000 1.00000
vt 0.00000 1.00000
vt 0.00000 0.00000
vt -1.00000 0.00000
vt -1.00000 1.00000
vt -3.00000 1.00000
vt 0.00000 0.00000
vt -3.00000 0.00000
vt -3.00000 1.00000
vt 0.00000 1.00000
vt 0.00000 0.00000
vt 0.00000 0.00000
vt -1.00000 1.00000
vt 0.00000 1.00000
vt 0.00000 0.00000
vt -1.00000 0.00000
vt -1.00000 1.00000
vt 0.00000 0.00000
vt -1.00000 1.00000
vt 0.00000 1.00000
vt 0.00000 0.00000
vt -1.00000 0.00000
vt -1.00000 1.00000
vt 0.00000 0.00000
vt -1.00000 1.00000
vt 0.00000 1.00000
vt 0.00000 0.00000
vt -1.00000 0.00000
vt -1.00000 1.00000
vn -0.0014 1.0000 0.0066
vn -0.0014 1.0000 0.0066
vn -0.0014 1.0000 0.0066
vn -0.0014 1.0000 0.0066
vn -0.0014 1.0000 0.0066
vn -0.0014 1.0000 0.0066
vn -0.0014 1.0000 0.0066
vn -0.0014 1.0000 0.0066
vn -0.0014 1.0000 0.0066
vn -0.0014 1.0000 0.0066
vn -0.0014 1.0000 0.0066
vn -0.0014 1.0000 0.0066
vn -0.0316 0.9975 -0.0627
vn -0.0316 0.9975 -0.0627
vn -0.0316 0.9975 -0.0627
vn -0.0316 0.9975 -0.0627
vn -0.0316 0.9975 -0.0627
vn -0.0316 0.9975 -0.0627
vn -0.0316 0.9975 -0.0627
vn -0.0316 0.9975 -0.0627
vn -0.0316 0.9975 -0.0627
vn -0.0316 0.9975 -0.0627
vn -0.0316 0.9975 -0.0627
vn -0.0316 0.9975 -0.0627
vn -0.0316 0.9975 -0.0627
vn -0.0316 0.9975 -0.0627
vn -0.0316 0.9975 -0.0627
vn -0.0316 0.9975 -0.0627
vn -0.0316 0.9975 -0.0627
vn -0.0316 0.9975 -0.0627
vn -0.0316 0.9975 -0.0627
vn -0.0316 0.9975 -0.0627
vn -0.0316 0.9975 -0.0627
vn -0.0316 0.9975 -0.0627
vn -0.0316 0.9975 -0.0627
vn -0.0316 0.9975 -0.0627
vn -0.0316 0.9975 -0.0627
vn -0.0316 0.9975 -0.0627
vn -0.0316 0.9975 -0.0627
vn -0.0316 0.9975 -0.0627
vn -0.0316 0.9975 -0.0627
vn -0.0316 0.9975 -0.0627
g r0_round_forest_enter_2
usemtl ki03dx
f 79/79/79 80/80/80 81/81/81
f 82/82/82 83/83/83 84/84/84
f 85/85/85 86/86/86 87/87/87
f 88/88/88 89/89/89 90/90/90
f 91/91/91 92/92/92 93/93/93
f 94/94/94 95/95/95 96/96/96
f 97/97/97 98/98/98 99/99/99
f 100/100/100 101/101/101 102/102/102
f 103/103/103 104/104/104 105/105/105
f 106/106/106 107/107/107 108/108/108
f 109/109/109 110/110/110 111/111/111
f 112/112/112 113/113/113 114/114/114
f 115/115/115 116/116/116 117/117/117
f 118/118/118 119/119/119 120/120/120
v 5.00000 1.50000 1.12500
v 7.00000 1.50000 3.12500
v 7.00000 1.50000 1.12500
v 5.00000 1.50000 1.12500
v 5.00000 1.50000 3.12500
v 7.00000 1.50000 3.12500
v 0.00000 1.50000 1.12500
v 2.00000 1.50000 3.12500
v 2.00000 1.50000 1.12500
v 0.00000 1.50000 1.12500
v 0.00000 1.50000 3.12500
v 2.00000 1.50000 3.12500
v 6.38000 1.68000 1.89500
v 0.62000 1.68000 3.81500
v 6.38000 1.68000 3.81500
v 6.38000 1.68000 1.89500
v 0.62000 1.68000 1.89500
v 0.62000 1.68000 3.81500
v 2.66000 1.68000 -0.02500
v 0.74000 1.68000 1.89500
v 2.66000 1.68000 1.89500
v 2.66000 1.68000 -0.02500
v 0.74000 1.68000 -0.02500
v 0.74000 1.68000 1.89500
v 6.26000 1.68000 -0.02500
v 4.34000 1.68000 1.89500
v 6.26000 1.68000 1.89500
v 6.26000 1.68000 -0.02500
v 4.34000 1.68000 -0.02500
v 4.34000 1.68000 1.89500
v 3.50000 1.80000 0.93500
v 1.58000 1.80000 2.85500
v 3.50000 1.80000 2.85500
v 3.50000 1.80000 0.93500
v 1.58000 1.80000 0.93500
v 1.58000 1.80000 2.85500
v 5.42000 1.80000 0.93500
v 3.50000 1.80000 2.85500
v 5.42000 1.80000 2.85500
v 5.42000 1.80000 0.93500
v 3.50000 1.80000 0.93500
v 3.50000 1.80000 2.85500
vt 0.00000 0.00000
vt 1.00000 1.00000
vt 1.00000 0.00000
vt 0.00000 0.00000
vt 0.00000 1.00000
vt 1.00000 1.00000
vt 0.00000 0.00000
vt 1.00000 1.00000
vt 1.00000 0.00000
vt 0.00000 0.00000
vt 0.00000 1.00000
vt 1.00000 1.00000
vt 0.00000 0.00000
vt -3.00000 1.00000
vt 0.00000 1.00000
vt 0.00000 0.00000
vt -3.00000 0.00000
vt -3.00000 1.00000
vt 0.00000 0.00000
vt -1.00000 1.00000
vt 0.00000 1.00000
vt 0.00000 0.00000
vt -1.00000 0.00000
vt -1.00000 1.00000
vt 0.00000 0.00000
vt -1.00000 1.00000
vt 0.00000 1.00000
vt 0.00000 0.00000
vt -1.00000 0.00000
vt -1.00000 1.00000
vt -0.15625 0.00000
vt -1.00000 1.00000
vt -0.15625 1.00000
vt -0.15625 0.00000
vt -1.00000 0.00000
vt -1.00000 1.00000
vt 0.00000 0.00000
vt -0.84375 1.00000
vt 0.00000 1.00000
vt 0.00000 0.00000
vt -0.84375 0.00000
vt -0.84375 1.00000
vn -0.0014 1.0000 0.0066
vn -0.0014 1.0000 0.0066
vn -0.0014 1.0000 0.0066
vn -0.0014 1.0000 0.0066
vn -0.0014 1.0000 0.0066
vn -0.0014 1.0000 0.0066
vn -0.0014 1.0000 0.0066
vn -0.0014 1.0000 0.0066
vn -0.0014 1.0000 0.0066
vn -0.0014 1.0000 0.0066
vn -0.0014 1.0000 0.0066
vn -0.0014 1.0000 0.0066
vn -0.0316 0.9975 -0.0627
vn -0.0316 0.9975 -0.0627
vn -0.0316 0.9975 -0.0627
vn -0.0316 0.9975 -0.0627
vn -0.0316 0.9975 -0.0627
vn -0.0316 0.9975 -0.0627
vn -0.0316 0.9975 -0.0627
vn -0.0316 0.9975 -0.0627
vn -0.0316 0.9975 -0.0627
vn -0.0316 0.9975 -0.0627
vn -0.0316 0.9975 -0.0627
vn -0.0316 0.9975 -0.0627
vn -0.0316 0.9975 -0.0627
vn -0.0316 0.9975 -0.0627
vn -0.0316 0.9975 -0.0627
vn -0.0316 0.9975 -0.0627
vn -0.0316 0.9975 -0.0627
vn -0.0316 0.9975 -0.0627
vn -0.0316 0.9975 -0.0627
vn -0.0316 0.9975 -0.0627
vn -0.0316 0.9975 -0.0627
vn -0.0316 0.9975 -0.0627
vn -0.0316 0.9975 -0.0627
vn -0.0316 0.9975 -0.0627
vn -0.0316 0.9975 -0.0627
vn -0.0316 0.9975 -0.0627
vn -0.0316 0.9975 -0.0627
vn -0.0316 0.9975 -0.0627
vn -0.0316 0.9975 -0.0627
vn -0.0316 0.9975 -0.0627
g r0_round_forest_enter_3
usemtl ki03bx
f 121/121/121 122/122/122 123/123/123
f 124/124/124 125/125/125 126/126/126
f 127/127/127 128/128/128 129/129/129
f 130/130/130 131/131/131 132/132/132
f 133/133/133 134/134/134 135/135/135
f 136/136/136 137/137/137 138/138/138
f 139/139/139 140/140/140 141/141/141
f 142/142/142 143/143/143 144/144/144
f 145/145/145 146/146/146 147/147/147
f 148/148/148 149/149/149 150/150/150
f 151/151/151 152/152/152 153/153/153
f 154/154/154 155/155/155 156/156/156
f 157/157/157 158/158/158 159/159/159
f 160/160/160 161/161/161 162/162/162
v 5.66000 0.12000 0.93500
v 5.42000 1.56000 1.17500
v 5.42000 1.56000 3.09500
v 5.66000 0.12000 0.93500
v 5.42000 1.56000 3.09500
v 5.66000 0.12000 3.09500
v 5.66000 0.12000 3.09500
v 1.58000 1.56000 3.09500
v 5.42000 1.56000 3.09500
v 5.66000 0.12000 3.09500
v 1.34000 0.12000 3.09500
v 1.58000 1.56000 3.09500
v 1.34000 0.12000 3.09500
v 1.58000 1.56000 3.09500
v 1.58000 1.56000 1.17500
v 1.34000 0.12000 3.09500
v 1.58000 1.56000 1.17500
v 1.34000 0.12000 0.93500
v 5.66000 0.12000 3.09500
v 5.66000 0.12000 0.93500
v 3.50000 0.12000 0.93500
v 2.06000 0.12000 -0.26500
v 1.34000 0.12000 0.93500
v 3.50000 0.12000 0.93500
v 5.66000 0.12000 0.93500
v 4.94000 0.12000 -0.26500
v 3.50000 0.12000 0.93500
v 4.94000 0.12000 -0.26500
v 2.06000 0.12000 -0.26500
v 3.50000 0.12000 0.93500
v 3.50000 0.12000 0.93500
v 1.34000 0.12000 0.93500
v 1.34000 0.12000 3.09500
v 5.66000 0.12000 3.09500
v 3.50000 0.12000 0.93500
v 1.34000 0.12000 3.09500
vt 0.46875 0.96875
vt 0.46875 0.96875
vt 0.46875 0.96875
vt 0.46875 0.96875
vt 0.46875 0.96875
vt 0.46875 0.96875
vt 0.46875 0.96875
vt 0.46875 0.96875
vt 0.46875 0.96875
vt 0.46875 0.96875
vt 0.46875 0.96875
vt 0.46875 0.96875
vt 0.46875 0.96875
vt 0.46875 0.96875
vt 0.46875 0.96875
vt 0.46875 0.96875
vt 0.46875 0.96875
vt 0.46875 0.96875
vt 1.00000 1.00000
vt 1.00000 0.62500
vt 0.50000 0.62500
vt 0.00000 0.00000
vt 0.00000 0.62500
vt 0.50000 0.62500
vt 1.00000 0.62500
vt 1.00000 0.00000
vt 0.50000 0.62500
vt 1.00000 0.00000
vt 0.00000 0.00000
vt 0.50000 0.62500
vt 0.50000 0.62500
vt 0.00000 0.62500
vt 0.00000 1.00000
vt 1.00000 1.00000
vt 0.50000 0.62500
vt 0.00000 1.00000
vn -0.0316 0.9975 -0.0627
vn -0.0316 0.9975 -0.0627
vn -0.0316 0.9975 -0.0627
vn -0.0316 0.9975 -0.0627
vn -0.0316 0.9975 -0.0627
vn -0.0316 0.9975 -0.0627
vn -0.0316 0.9975 -0.0627
vn -0.0316 0.9975 -0.0627
vn -0.0316 0.9975 -0.0627
vn -0.0316 0.9975 -0.0627
vn -0.0316 0.9975 -0.0627
vn -0.0316 0.9975 -0.0627
vn -0.0316 0.9975 -0.0627
vn -0.0316 0.9975 -0.0627
vn -0.0316 0.9975 -0.0627
vn -0.0316 0.9975 -0.0627
vn -0.0316 0.9975 -0.0627
vn -0.0316 0.9975 -0.0627
vn -0.0316 0.9975 -0.0627
vn -0.0316 0.9975 -0.0627
vn -0.0316 0.9975 -0.0627
vn -0.0316 0.9975 -0.0627
vn -0.0316 0.9975 -0.0627
vn -0.0316 0.9975 -0.0627
vn -0.0316 0.9975 -0.0627
vn -0.0316 0.9975 -0.0627
vn -0.0316 0.9975 -0.0627
vn -0.0316 0.9975 -0.0627
vn -0.0316 0.9975 -0.0627
vn -0.0316 0.9975 -0.0627
vn -0.0316 0.9975 -0.0627
vn -0.0316 0.9975 -0.0627
vn -0.0316 0.9975 -0.0627
vn -0.0316 0.9975 -0.0627
vn -0.0316 0.9975 -0.0627
vn -0.0316 0.9975 -0.0627
g r0_round_forest_enter_4
usemtl mori01s
f 163/163/163 164/164/164 165/165/165
f 166/166/166 167/167/167 168/168/168
f 169/169/169 170/170/170 171/171/171
f 172/172/172 173/173/173 174/174/174
f 175/175/175 176/176/176 177/177/177
f 178/178/178 179/179/179 180/180/180
f 181/181/181 182/182/182 183/183/183
f 184/184/184 185/185/185 186/186/186
f 187/187/187 188/188/188 189/189/189
f 190/190/190 191/191/191 192/192/192
f 193/193/193 194/194/194 195/195/195
f 196/196/196 197/197/197 198/198/198
