# r0_tree08
# generated by tools/assets/build-tiles.js — do not edit
mtllib r0_tree08.mtl
o r0_tree08
v 1.00000 0.24551 0.00000
v 1.00000 0.24551 2.00000
v 1.00000 4.30374 2.00000
v 1.00000 0.24551 0.00000
v 1.00000 4.30374 2.00000
v 1.00000 4.30374 0.00000
v 0.00000 0.24551 1.00000
v 2.00000 0.24551 1.00000
v 2.00000 4.30374 1.00000
v 0.00000 0.24551 1.00000
v 2.00000 4.30374 1.00000
v 0.00000 4.30374 1.00000
vt 0.00000 0.00000
vt 1.00000 0.00000
vt 1.00000 1.00000
vt 0.00000 0.00000
vt 1.00000 1.00000
vt 0.00000 1.00000
vt 0.00000 0.00000
vt 1.00000 0.00000
vt 1.00000 1.00000
vt 0.00000 0.00000
vt 1.00000 1.00000
vt 0.00000 1.00000
vn -0.0017 1.0000 0.0082
vn -0.0017 1.0000 0.0082
vn -0.0017 1.0000 0.0082
vn -0.0017 1.0000 0.0082
vn -0.0017 1.0000 0.0082
vn -0.0017 1.0000 0.0082
vn -0.0017 1.0000 0.0082
vn -0.0017 1.0000 0.0082
vn -0.0017 1.0000 0.0082
vn -0.0017 1.0000 0.0082
vn -0.0017 1.0000 0.0082
vn -0.0017 1.0000 0.0082
g r0_tree08_0
usemtl ki03ax
f 1/1/1 2/2/2 3/3/3
f 4/4/4 5/5/5 6/6/6
f 7/7/7 8/8/8 9/9/9
f 10/10/10 11/11/11 12/12/12
v 0.00000 0.26871 0.00000
v 2.00000 0.26871 2.00000
v 2.00000 0.26871 0.00000
v 0.00000 0.26871 0.00000
v 0.00000 0.26871 2.00000
v 2.00000 0.26871 2.00000
vt 0.00000 0.00000
vt 1.00000 1.00000
vt 1.00000 0.00000
vt 0.00000 0.00000
vt 0.00000 1.00000
vt 1.00000 1.00000
vn -0.0017 1.0000 0.0082
vn -0.0017 1.0000 0.0082
vn -0.0017 1.0000 0.0082
vn -0.0017 1.0000 0.0082
vn -0.0017 1.0000 0.0082
vn -0.0017 1.0000 0.0082
g r0_tree08_1
usemtl ki02c
f 13/13/13 14/14/14 15/15/15
f 16/16/16 17/17/17 18/18/18
v 0.00000 3.63968 0.00000
v 2.00000 3.63968 2.00000
v 2.00000 3.63968 0.00000
v 0.00000 3.63968 0.00000
v 0.00000 3.63968 2.00000
v 2.00000 3.63968 2.00000
vt 0.00000 0.00000
vt 1.00000 1.00000
vt 1.00000 0.00000
vt 0.00000 0.00000
vt 0.00000 1.00000
vt 1.00000 1.00000
vn -0.0017 1.0000 0.0082
vn -0.0017 1.0000 0.0082
vn -0.0017 1.0000 0.0082
vn -0.0017 1.0000 0.0082
vn -0.0017 1.0000 0.0082
vn -0.0017 1.0000 0.0082
g r0_tree08_2
usemtl ki03dx
f 19/19/19 20/20/20 21/21/21
f 22/22/22 23/23/23 24/24/24
v 0.00000 1.81961 0.00000
v 2.00000 1.81961 2.00000
v 2.00000 1.81961 0.00000
v 0.00000 1.81961 0.00000
v 0.00000 1.81961 2.00000
v 2.00000 1.81961 2.00000
vt 0.00000 0.00000
vt 1.00000 1.00000
vt 1.00000 0.00000
vt 0.00000 0.00000
vt 0.00000 1.00000
vt 1.00000 1.00000
vn -0.0017 1.0000 0.0082
vn -0.0017 1.0000 0.0082
vn -0.0017 1.0000 0.0082
vn -0.0017 1.0000 0.0082
vn -0.0017 1.0000 0.0082
vn -0.0017 1.0000 0.0082
g r0_tree08_3
usemtl ki03bx
f 25/25/25 26/26/26 27/27/27
f 28/28/28 29/29/29 30/30/30
