# mountain_sea_inner_nw_v3
# generated by tools/assets/build-tiles.js — do not edit
mtllib mountain_sea_inner_nw_v3.mtl
o mountain_sea_inner_nw_v3
v 0.00000 0.75000 0.50000
v 1.00000 1.00000 0.00000
v 0.00000 1.00000 0.00000
v 0.00000 0.75000 0.50000
v 1.00000 0.75000 0.50000
v 1.00000 1.00000 0.00000
v 0.50000 0.75000 1.00000
v 0.00000 1.00000 0.00000
v 0.00000 1.00000 1.00000
v 0.50000 0.75000 1.00000
v 0.50000 0.75000 0.00000
v 0.00000 1.00000 0.00000
vt 1.00000 -1.00000
vt 0.00000 0.00000
vt 1.00000 0.00000
vt 1.00000 -1.00000
vt 0.00000 -1.00000
vt 0.00000 0.00000
vt 1.00000 -1.00000
vt 0.00000 0.00000
vt 1.00000 0.00000
vt 1.00000 -1.00000
vt 0.00000 -1.00000
vt 0.00000 0.00000
vn 0.0000 0.7497 0.6618
vn 0.0000 1.0000 0.0000
vn 0.0000 1.0000 0.0000
vn 0.0000 0.7497 0.6618
vn 0.0000 0.7497 0.6618
vn 0.0000 1.0000 0.0000
vn 0.6618 0.7497 0.0000
vn 0.0000 1.0000 0.0000
vn 0.0000 1.0000 0.0000
vn 0.6618 0.7497 0.0000
vn 0.6618 0.7497 0.0000
vn 0.0000 1.0000 0.0000
g mountain_sea_inner_nw_v3_0
usemtl gake1_1
f 1/1/1 2/2/2 3/3/3
f 4/4/4 5/5/5 6/6/6
f 7/7/7 8/8/8 9/9/9
f 10/10/10 11/11/11 12/12/12
v 1.00000 0.00000 0.00000
v 0.50000 0.75000 1.00000
v 1.00000 0.00000 1.00000
v 1.00000 0.00000 0.00000
v 0.50000 0.75000 0.00000
v 0.50000 0.75000 1.00000
v 1.00000 0.00000 1.00000
v 0.00000 0.75000 0.50000
v 0.00000 0.00000 1.00000
v 1.00000 0.00000 1.00000
v 1.00000 0.75000 0.50000
v 0.00000 0.75000 0.50000
vt 0.00000 -1.00000
vt 1.00000 0.00000
vt 1.00000 -1.00000
vt 0.00000 -1.00000
vt 0.00000 0.00000
vt 1.00000 0.00000
vt 0.00000 -1.00000
vt 1.00000 0.00000
vt 1.00000 -1.00000
vt 0.00000 -1.00000
vt 0.00000 0.00000
vt 1.00000 0.00000
vn 0.8112 0.5845 -0.0176
vn 0.6618 0.7497 0.0000
vn 0.8112 0.5845 -0.0176
vn 0.8112 0.5845 -0.0176
vn 0.6618 0.7497 0.0000
vn 0.6618 0.7497 0.0000
vn 0.0176 0.5845 0.8112
vn 0.0000 0.7497 0.6618
vn 0.0176 0.5845 0.8112
vn 0.0176 0.5845 0.8112
vn 0.0000 0.7497 0.6618
vn 0.0000 0.7497 0.6618
g mountain_sea_inner_nw_v3_1
usemtl gake01a
f 13/13/13 14/14/14 15/15/15
f 16/16/16 17/17/17 18/18/18
f 19/19/19 20/20/20 21/21/21
f 22/22/22 23/23/23 24/24/24
v 0.00000 0.00000 1.00000
v 1.00000 0.00000 0.00000
v 0.00000 0.00000 0.00000
v 0.00000 0.00000 1.00000
v 1.00000 0.00000 1.00000
v 1.00000 0.00000 0.00000
vt 13.00000 5.00000
vt 12.00000 4.00000
vt 12.00000 5.00000
vt 13.00000 5.00000
vt 13.00000 4.00000
vt 12.00000 4.00000
vn 0.0000 1.0000 0.0000
vn 0.0000 1.0000 0.0000
vn 0.0000 1.0000 0.0000
vn 0.0000 1.0000 0.0000
vn 0.0000 1.0000 0.0000
vn 0.0000 1.0000 0.0000
g mountain_sea_inner_nw_v3_2
usemtl gake_futa
f 25/25/25 26/26/26 27/27/27
f 28/28/28 29/29/29 30/30/30
