# mountain_sea_sw
# generated by tools/assets/build-tiles.js — do not edit
mtllib mountain_sea_sw.mtl
o mountain_sea_sw
v 1.00000 1.00000 1.00000
v 1.00000 0.75000 0.50000
v 0.50000 0.75000 1.00000
vt 0.50000 0.00000
vt 1.00000 -1.00000
vt 0.00000 -1.00000
vn 0.0000 1.0000 0.0000
vn 0.0039 0.8030 -0.5959
vn -0.5959 0.8030 -0.0020
g mountain_sea_sw_0
usemtl gake1_1
f 1/1/1 2/2/2 3/3/3
v 1.00000 0.00000 0.00000
v 0.25000 0.00000 0.25000
v 1.00000 0.75000 0.50000
v 1.00000 0.75000 0.50000
v 0.25000 0.00000 0.25000
v 0.50000 0.75000 1.00000
v 0.25000 0.00000 0.25000
v 0.00000 0.00000 1.00000
v 0.50000 0.75000 1.00000
vt 1.00000 -1.00000
vt 0.50000 -1.00000
vt 1.00000 0.00000
vt 1.00000 0.00000
vt 0.50000 -1.00000
vt 0.00000 0.00000
vt 0.50000 -1.00000
vt 0.00000 -1.00000
vt 0.00000 0.00000
vn -0.0176 0.5845 -0.8112
vn -0.5565 0.6170 -0.5565
vn 0.0039 0.8030 -0.5959
vn 0.0039 0.8030 -0.5959
vn -0.5565 0.6170 -0.5565
vn -0.5959 0.8031 -0.0020
vn -0.5565 0.6170 -0.5565
vn -0.8095 0.5871 0.0019
vn -0.5959 0.8031 -0.0020
g mountain_sea_sw_1
usemtl gake01a
f 4/4/4 5/5/5 6/6/6
f 7/7/7 8/8/8 9/9/9
f 10/10/10 11/11/11 12/12/12
v 0.00000 0.00000 1.00000
v 1.00000 0.00000 1.00000
v 0.25000 0.00000 0.25000
v 0.25000 0.00000 0.25000
v 1.00000 0.00000 1.00000
v 1.00000 0.00000 0.00000
vt 11.00000 5.00000
vt 12.00000 5.00000
vt 11.25000 4.25000
vt 11.25000 4.25000
vt 12.00000 5.00000
vt 12.00000 4.00000
vn 0.0000 1.0000 0.0000
vn 0.0000 1.0000 0.0000
vn 0.0000 1.0000 0.0000
vn 0.0000 1.0000 0.0000
vn 0.0000 1.0000 0.0000
vn 0.0000 1.0000 0.0000
g mountain_sea_sw_2
usemtl gake_futa
f 13/13/13 14/14/14 15/15/15
f 16/16/16 17/17/17 18/18/18
