# mountain_edge_w
# generated by tools/assets/build-tiles.js — do not edit
mtllib mountain_edge_w.mtl
o mountain_edge_w
v 1.00000 1.00000 1.00000
v 0.50000 0.75000 0.00000
v 0.50000 0.75000 1.00000
v 1.00000 1.00000 1.00000
v 1.00000 1.00000 0.00000
v 0.50000 0.75000 0.00000
vt 0.00000 0.00000
vt 1.00000 -1.00000
vt 0.00000 -1.00000
vt 0.00000 0.00000
vt 1.00000 0.00000
vt 1.00000 -1.00000
vn -0.4472 0.8944 0.0000
vn -0.6618 0.7497 0.0000
vn -0.6618 0.7497 0.0000
vn -0.4472 0.8944 0.0000
vn -0.4472 0.8944 0.0000
vn -0.6618 0.7497 0.0000
g mountain_edge_w_0
usemtl gake1_1
f 1/1/1 2/2/2 3/3/3
f 4/4/4 5/5/5 6/6/6
v 0.00000 0.00000 1.00000
v 0.50000 0.75000 0.00000
v 0.00000 0.00000 0.00000
v 0.00000 0.00000 1.00000
v 0.50000 0.75000 1.00000
v 0.50000 0.75000 0.00000
vt 0.00000 -1.00000
vt 1.00000 0.00000
vt 1.00000 -1.00000
vt 0.00000 -1.00000
vt 0.00000 0.00000
vt 1.00000 0.00000
vn -0.8321 0.5547 0.0000
vn -0.6618 0.7497 0.0000
vn -0.8321 0.5547 0.0000
vn -0.8321 0.5547 0.0000
vn -0.6618 0.7497 0.0000
vn -0.6618 0.7497 0.0000
g mountain_edge_w_1
usemtl gake01a
f 7/7/7 8/8/8 9/9/9
f 10/10/10 11/11/11 12/12/12
