# mountain_sea_s_v4
# generated by tools/assets/build-tiles.js — do not edit
mtllib mountain_sea_s_v4.mtl
o mountain_sea_s_v4
v 0.50000 0.75000 1.00000
v 0.00000 1.00000 0.00000
v 0.00000 1.00000 1.00000
v 0.50000 0.75000 1.00000
v 0.50000 0.75000 0.00000
v 0.00000 1.00000 0.00000
vt -2.00000 -1.00000
vt -3.00000 0.00000
vt -2.00000 0.00000
vt -2.00000 -1.00000
vt -3.00000 -1.00000
vt -3.00000 0.00000
vn 0.4322 0.8645 0.2567
vn 0.0000 1.0000 0.0000
vn 0.0000 1.0000 0.0000
vn 0.4322 0.8645 0.2567
vn 0.6618 0.7497 0.0000
vn 0.0000 1.0000 0.0000
g mountain_sea_s_v4_0
usemtl gake1_1
f 1/1/1 2/2/2 3/3/3
f 4/4/4 5/5/5 6/6/6
v 1.00000 0.00000 0.00000
v 0.50000 0.75000 1.00000
v 1.00000 0.00000 1.00000
v 1.00000 0.00000 0.00000
v 0.50000 0.75000 0.00000
v 0.50000 0.75000 1.00000
vt -3.00000 -1.00000
vt -2.00000 0.00000
vt -2.00000 -1.00000
vt -3.00000 -1.00000
vt -3.00000 0.00000
vt -2.00000 0.00000
vn 0.8112 0.5845 -0.0176
vn 0.6618 0.7497 0.0000
vn 0.8411 0.5396 -0.0363
vn 0.8112 0.5845 -0.0176
vn 0.6618 0.7497 0.0000
vn 0.6618 0.7497 0.0000
g mountain_sea_s_v4_1
usemtl gake01a
f 7/7/7 8/8/8 9/9/9
f 10/10/10 11/11/11 12/12/12
v 0.00000 0.00000 1.00000
v 1.00000 0.00000 0.00000
v 0.00000 0.00000 0.00000
v 0.00000 0.00000 1.00000
v 1.00000 0.00000 1.00000
v 1.00000 0.00000 0.00000
vt 13.00000 5.00000
vt 12.00000 4.00000
vt 12.00000 5.00000
vt 13.00000 5.00000
vt 13.00000 4.00000
vt 12.00000 4.00000
vn 0.0000 1.0000 0.0000
vn 0.0000 1.0000 0.0000
vn 0.0000 1.0000 0.0000
vn 0.0000 1.0000 0.0000
vn 0.0000 1.0000 0.0000
vn 0.0000 1.0000 0.0000
g mountain_sea_s_v4_2
usemtl gake_futa
f 13/13/13 14/14/14 15/15/15
f 16/16/16 17/17/17 18/18/18
