# sea_cliff_n
# generated by tools/assets/build-tiles.js — do not edit
mtllib sea_cliff_n.mtl
o sea_cliff_n
v 1.00000 0.12500 0.06250
v 0.00000 -0.50000 0.43750
v 1.00000 -0.50000 0.43750
v 1.00000 0.12500 0.06250
v 0.00000 0.12500 0.06250
v 0.00000 -0.50000 0.43750
v 1.00000 0.06250 -0.25000
v 0.00000 0.12500 0.06250
v 1.00000 0.12500 0.06250
v 1.00000 0.06250 -0.25000
v 0.00000 0.06250 -0.25000
v 0.00000 0.12500 0.06250
vt 7.00000 -0.31250
vt 8.00000 -1.00000
vt 7.00000 -1.00000
vt 7.00000 -0.31250
vt 8.00000 -0.31250
vt 8.00000 -1.00000
vt 7.00000 0.00000
vt 8.00000 -0.31250
vt 7.00000 -0.31250
vt 7.00000 0.00000
vt 8.00000 0.00000
vt 8.00000 -0.31250
vn 0.0000 0.9145 0.4046
vn -0.0007 0.5145 0.8575
vn 0.0000 0.5139 0.8578
vn 0.0000 0.9145 0.4046
vn 0.0000 0.9145 0.4046
vn -0.0007 0.5145 0.8575
vn -0.0009 0.9806 -0.1961
vn 0.0000 0.9145 0.4046
vn 0.0000 0.9145 0.4046
vn -0.0009 0.9806 -0.1961
vn 0.0000 0.9807 -0.1953
vn 0.0000 0.9145 0.4046
g sea_cliff_n_0
usemtl sea_gake01
f 1/1/1 2/2/2 3/3/3
f 4/4/4 5/5/5 6/6/6
f 7/7/7 8/8/8 9/9/9
f 10/10/10 11/11/11 12/12/12
v 1.00000 0.00000 0.37500
v 0.00000 -0.31250 0.56250
v 1.00000 -0.31250 0.56250
v 1.00000 0.00000 0.37500
v 0.00000 0.00000 0.37500
v 0.00000 -0.31250 0.56250
v 1.00000 -0.31250 0.56250
v 0.00000 -0.31250 1.00000
v 1.00000 -0.31250 1.00000
v 1.00000 -0.31250 0.56250
v 0.00000 -0.31250 0.56250
v 0.00000 -0.31250 1.00000
v 1.00000 -0.50000 0.43750
v 0.00000 -0.31250 0.56250
v 1.00000 -0.31250 0.56250
v 1.00000 -0.50000 0.43750
v 0.00000 -0.50000 0.43750
v 0.00000 -0.31250 0.56250
vt 7.00000 0.00000
vt 8.00000 -0.37500
vt 7.00000 -0.37500
vt 7.00000 0.00000
vt 8.00000 0.00000
vt 8.00000 -0.37500
vt 7.00000 -0.37500
vt 8.00000 -0.87500
vt 7.00000 -0.87500
vt 7.00000 -0.37500
vt 8.00000 -0.37500
vt 8.00000 -0.87500
vt -6.00000 -0.56250
vt -7.00000 -0.37500
vt -6.00000 -0.37500
vt -6.00000 -0.56250
vt -7.00000 -0.56250
vt -7.00000 -0.37500
vn 0.8575 0.2647 0.4412
vn 0.4640 0.7708 0.4364
vn -0.4640 0.7708 0.4365
vn 0.8575 0.2647 0.4412
vn 0.0000 1.0000 0.0000
vn 0.4640 0.7708 0.4364
vn -0.4640 0.7708 0.4365
vn 0.0000 1.0000 0.0000
vn 0.0000 1.0000 0.0000
vn -0.4640 0.7708 0.4365
vn 0.4640 0.7708 0.4364
vn 0.0000 1.0000 0.0000
vn -0.8320 0.3077 -0.4615
vn -0.8320 0.3077 -0.4616
vn 0.0000 1.0000 0.0000
vn -0.8320 0.3077 -0.4615
vn 0.0000 1.0000 0.0000
vn -0.8320 0.3077 -0.4616
g sea_cliff_n_1
usemtl sea_gake02
f 13/13/13 14/14/14 15/15/15
f 16/16/16 17/17/17 18/18/18
f 19/19/19 20/20/20 21/21/21
f 22/22/22 23/23/23 24/24/24
f 25/25/25 26/26/26 27/27/27
f 28/28/28 29/29/29 30/30/30
