# sea_cliff_inner_sw_v2
# generated by tools/assets/build-tiles.js — do not edit
mtllib sea_cliff_inner_sw_v2.mtl
o sea_cliff_inner_sw_v2
v 1.25000 0.06250 1.25000
v 0.93750 0.12500 0.00000
v 0.93750 0.12500 0.93750
v 1.25000 0.06250 1.25000
v 1.25000 0.06250 0.00000
v 0.93750 0.12500 0.00000
v 0.93750 0.12500 0.93750
v 0.56250 -0.50000 0.00000
v 0.56250 -0.50000 0.56250
v 0.93750 0.12500 0.93750
v 0.93750 0.12500 0.00000
v 0.56250 -0.50000 0.00000
v 0.00000 0.06250 1.25000
v 0.93750 0.12500 0.93750
v 0.00000 0.12500 0.93750
v 0.00000 0.06250 1.25000
v 1.25000 0.06250 1.25000
v 0.93750 0.12500 0.93750
v 0.00000 0.12500 0.93750
v 0.56250 -0.50000 0.56250
v 0.00000 -0.50000 0.56250
v 0.00000 0.12500 0.93750
v 0.93750 0.12500 0.93750
v 0.56250 -0.50000 0.56250
vt -1.50000 0.00000
vt -1.00000 -0.31250
vt -1.50000 -0.31250
vt -1.50000 0.00000
vt -1.00000 0.00000
vt -1.00000 -0.31250
vt -1.50000 -0.31250
vt -1.00000 -1.00000
vt -1.50000 -1.00000
vt -1.50000 -0.31250
vt -1.00000 -0.31250
vt -1.00000 -1.00000
vt -1.00000 0.00000
vt -0.50000 -0.31250
vt -1.00000 -0.31250
vt -1.00000 0.00000
vt -0.50000 0.00000
vt -0.50000 -0.31250
vt -1.00000 -0.31250
vt -0.50000 -1.00000
vt -1.00000 -1.00000
vt -1.00000 -0.31250
vt -0.50000 -0.31250
vt -0.50000 -1.00000
vn 0.2306 0.9731 0.0000
vn -0.3821 0.9241 0.0000
vn -0.0033 1.0000 0.0000
vn 0.2306 0.9731 0.0000
vn 0.2306 0.9731 0.0000
vn -0.3821 0.9241 0.0000
vn -0.0033 1.0000 0.0000
vn -0.8578 0.5139 0.0000
vn -0.8578 0.5139 0.0000
vn -0.0033 1.0000 0.0000
vn -0.3821 0.9241 0.0000
vn -0.8578 0.5139 0.0000
vn 0.0000 0.9807 0.1953
vn 0.0000 0.9115 -0.4113
vn 0.0000 0.9145 -0.4046
vn 0.0000 0.9807 0.1953
vn 0.0000 0.9807 0.1954
vn 0.0000 0.9115 -0.4113
vn 0.0000 0.9145 -0.4046
vn 0.0000 0.5139 -0.8578
vn 0.0000 0.5139 -0.8578
vn 0.0000 0.9145 -0.4046
vn 0.0000 0.9115 -0.4113
vn 0.0000 0.5139 -0.8578
g sea_cliff_inner_sw_v2_0
usemtl sea_gake01
f 1/1/1 2/2/2 3/3/3
f 4/4/4 5/5/5 6/6/6
f 7/7/7 8/8/8 9/9/9
f 10/10/10 11/11/11 12/12/12
f 13/13/13 14/14/14 15/15/15
f 16/16/16 17/17/17 18/18/18
f 19/19/19 20/20/20 21/21/21
f 22/22/22 23/23/23 24/24/24
v 0.62500 0.00000 0.00000
v 0.43750 -0.31250 0.43750
v 0.62500 0.00000 0.62500
v 0.62500 0.00000 0.00000
v 0.43750 -0.31250 0.00000
v 0.43750 -0.31250 0.43750
v 0.62500 0.00000 0.62500
v 0.00000 -0.31250 0.43750
v 0.00000 0.00000 0.62500
v 0.62500 0.00000 0.62500
v 0.43750 -0.31250 0.43750
v 0.00000 -0.31250 0.43750
v 0.00000 -0.50000 0.56250
v 0.43750 -0.31250 0.43750
v 0.00000 -0.31250 0.43750
v 0.00000 -0.50000 0.56250
v 0.56250 -0.50000 0.56250
v 0.43750 -0.31250 0.43750
v 0.56250 -0.50000 0.56250
v 0.43750 -0.31250 0.00000
v 0.43750 -0.31250 0.43750
v 0.56250 -0.50000 0.56250
v 0.56250 -0.50000 0.00000
v 0.43750 -0.31250 0.00000
v 0.00000 -0.31250 0.00000
v 0.43750 -0.31250 0.43750
v 0.43750 -0.31250 0.00000
v 0.00000 -0.31250 0.00000
v 0.00000 -0.31250 0.43750
v 0.43750 -0.31250 0.43750
vt -1.00000 0.00000
vt -1.50000 -0.37500
vt -1.50000 0.00000
vt -1.00000 0.00000
vt -1.00000 -0.37500
vt -1.50000 -0.37500
vt -0.50000 0.00000
vt -1.00000 -0.37500
vt -1.00000 0.00000
vt -0.50000 0.00000
vt -0.50000 -0.37500
vt -1.00000 -0.37500
vt -1.00000 -0.56250
vt -0.50000 -0.37500
vt -1.00000 -0.37500
vt -1.00000 -0.56250
vt -0.50000 -0.56250
vt -0.50000 -0.37500
vt -1.50000 -0.56250
vt -1.00000 -0.37500
vt -1.50000 -0.37500
vt -1.50000 -0.56250
vt -1.00000 -0.56250
vt -1.00000 -0.37500
vt -1.25000 -0.87500
vt -1.50000 -0.37500
vt -1.00000 -0.37500
vt -0.75000 -0.87500
vt -1.00000 -0.37500
vt -0.50000 -0.37500
vn 0.0000 1.0000 0.0000
vn 0.0000 1.0000 0.0000
vn 0.0000 1.0000 0.0000
vn 0.0000 1.0000 0.0000
vn 0.0000 1.0000 0.0000
vn 0.0000 1.0000 0.0000
vn 0.0000 1.0000 0.0000
vn 0.0000 1.0000 0.0000
vn 0.0000 1.0000 0.0000
vn 0.0000 1.0000 0.0000
vn 0.0000 1.0000 0.0000
vn 0.0000 1.0000 0.0000
vn 0.0000 1.0000 0.0000
vn 0.0001 1.0000 0.0000
vn 0.0000 1.0000 0.0000
vn 0.0000 1.0000 0.0000
vn 0.0000 1.0000 0.0000
vn 0.0001 1.0000 0.0000
vn 0.0000 1.0000 0.0000
vn 0.0000 1.0000 0.0000
vn 0.0000 1.0000 0.0001
vn 0.0000 1.0000 0.0000
vn 0.0000 1.0000 0.0000
vn 0.0000 1.0000 0.0000
vn 0.0000 1.0000 0.0000
vn 0.0000 1.0000 0.0000
vn 0.0000 1.0000 0.0000
vn 0.0000 1.0000 0.0000
vn 0.0000 1.0000 0.0000
vn 0.0000 1.0000 0.0000
g sea_cliff_inner_sw_v2_1
usemtl sea_gake02
f 25/25/25 26/26/26 27/27/27
f 28/28/28 29/29/29 30/30/30
f 31/31/31 32/32/32 33/33/33
f 34/34/34 35/35/35 36/36/36
f 37/37/37 38/38/38 39/39/39
f 40/40/40 41/41/41 42/42/42
f 43/43/43 44/44/44 45/45/45
f 46/46/46 47/47/47 48/48/48
f 49/49/49 50/50/50 51/51/51
f 52/52/52 53/53/53 54/54/54
