# tall_mountain_corner_nw
# generated by tools/assets/build-tiles.js — do not edit
mtllib tall_mountain_corner_nw.mtl
o tall_mountain_corner_nw
v 1.00000 4.75000 0.50000
v 0.50000 1.00000 1.00000
v 0.50000 4.75000 1.00000
v 1.00000 4.75000 0.50000
v 1.00000 1.00000 0.50000
v 0.50000 1.00000 1.00000
vt 0.00000 0.00000
vt -1.00000 -1.00000
vt -1.00000 0.00000
vt 0.00000 0.00000
vt 0.00000 -1.00000
vt -1.00000 -1.00000
vn -0.6284 0.4586 -0.6284
vn -0.6968 0.1698 -0.6968
vn -0.6284 0.4586 -0.6284
vn -0.6284 0.4586 -0.6284
vn -0.6968 0.1698 -0.6968
vn -0.6968 0.1698 -0.6968
g tall_mountain_corner_nw_0
usemtl yamagake01
f 1/1/1 2/2/2 3/3/3
f 4/4/4 5/5/5 6/6/6
v 0.50000 4.75000 1.00000
v 1.00000 5.00000 1.00000
v 1.00000 4.75000 0.50000
vt -1.00000 -1.00000
vt -0.50000 0.00000
vt 0.00000 -1.00000
vn -0.6284 0.4586 -0.6283
vn 0.0000 1.0000 0.0000
vn -0.6283 0.4586 -0.6284
g tall_mountain_corner_nw_1
usemtl gake1_1
f 7/7/7 8/8/8 9/9/9
v 1.00000 1.00000 0.50000
v 0.00000 0.00000 1.00000
v 0.50000 1.00000 1.00000
v 1.00000 1.00000 0.50000
v 1.00000 0.00000 0.00000
v 0.00000 0.00000 1.00000
vt 0.00000 0.00000
vt -1.00000 -1.00000
vt -1.00000 0.00000
vt 0.00000 0.00000
vt 0.00000 -1.00000
vt -1.00000 -1.00000
vn -0.6968 0.1698 -0.6968
vn -0.6665 0.3340 -0.6665
vn -0.6968 0.1698 -0.6968
vn -0.6968 0.1698 -0.6968
vn -0.6665 0.3340 -0.6665
vn -0.6665 0.3340 -0.6665
g tall_mountain_corner_nw_2
usemtl gake01a
f 10/10/10 11/11/11 12/12/12
f 13/13/13 14/14/14 15/15/15
