# tall_mountain_big_rock
# generated by tools/assets/build-tiles.js — do not edit
mtllib tall_mountain_big_rock.mtl
o tall_mountain_big_rock
v 0.50000 1.50000 0.25000
v 1.50000 5.00000 0.50000
v 1.00000 1.50000 0.50000
v 0.50000 1.50000 0.25000
v 0.50000 5.00000 0.00000
v 1.50000 5.00000 0.50000
v 0.00000 1.50000 0.50000
v 0.50000 5.00000 0.00000
v 0.50000 1.50000 0.25000
v 0.00000 1.50000 0.50000
v -0.50000 5.00000 0.50000
v 0.50000 5.00000 0.00000
vt -1.50000 -0.79297
vt 0.00000 -0.25977
vt 0.00000 -0.79297
vt -1.50000 -0.79297
vt -1.50000 -0.25977
vt 0.00000 -0.25977
vt -3.00000 -0.79297
vt -1.50000 -0.25977
vt -1.50000 -0.79297
vt -3.00000 -0.79297
vt -3.00000 -0.25977
vt -1.50000 -0.25977
vn 0.0000 -0.0703 -0.9975
vn 0.3263 0.6838 -0.6526
vn 0.4470 -0.0644 -0.8922
vn 0.0000 -0.0703 -0.9975
vn 0.0000 0.7692 -0.6390
vn 0.3263 0.6838 -0.6526
vn -0.4471 -0.0645 -0.8921
vn 0.0000 0.7692 -0.6390
vn 0.0000 -0.0703 -0.9975
vn -0.4471 -0.0645 -0.8921
vn -0.3263 0.6838 -0.6526
vn 0.0000 0.7692 -0.6390
g tall_mountain_big_rock_0
usemtl yamagake01
f 1/1/1 2/2/2 3/3/3
f 4/4/4 5/5/5 6/6/6
f 7/7/7 8/8/8 9/9/9
f 10/10/10 11/11/11 12/12/12
v 1.50000 5.00000 0.50000
v 0.50000 5.00000 0.00000
v 2.00000 5.00000 1.00000
v 2.00000 5.00000 1.00000
v 0.50000 5.00000 0.00000
v 0.50000 5.00000 1.00000
v 0.50000 5.00000 0.00000
v -0.50000 5.00000 0.50000
v 0.50000 5.00000 1.00000
v 0.50000 5.00000 1.00000
v -0.50000 5.00000 0.50000
v -1.00000 5.00000 1.00000
vt 0.00000 -1.00000
vt -1.50000 -1.00000
vt 0.00000 0.00000
vt 0.00000 0.00000
vt -1.50000 -1.00000
vt -1.50000 0.00000
vt -1.50000 -1.00000
vt -3.00000 -1.00000
vt -1.50000 0.00000
vt -1.50000 0.00000
vt -3.00000 -1.00000
vt -3.00000 0.00000
vn 0.3263 0.6838 -0.6526
vn 0.0000 0.7497 -0.6618
vn 0.0000 1.0000 0.0000
vn 0.0000 1.0000 0.0000
vn 0.0000 0.7497 -0.6618
vn 0.0000 1.0000 0.0000
vn 0.0000 0.7497 -0.6618
vn -0.3263 0.6838 -0.6526
vn 0.0000 1.0000 0.0000
vn 0.0000 1.0000 0.0000
vn -0.3263 0.6838 -0.6526
vn 0.0000 1.0000 0.0000
g tall_mountain_big_rock_1
usemtl gake1_1
f 13/13/13 14/14/14 15/15/15
f 16/16/16 17/17/17 18/18/18
f 19/19/19 20/20/20 21/21/21
f 22/22/22 23/23/23 24/24/24
