# modern_wall_e
# generated by tools/assets/build-tiles.js — do not edit
mtllib modern_wall_e.mtl
o modern_wall_e
v 0.00000 -0.12500 1.00000
v 0.00000 2.87500 0.00000
v 0.00000 -0.12500 0.00000
v 0.00000 -0.12500 1.00000
v 0.00000 2.87500 1.00000
v 0.00000 2.87500 0.00000
vt 0.39844 -1.00000
vt 0.44922 0.00000
vt 0.44922 -1.00000
vt 0.39844 -1.00000
vt 0.39844 0.00000
vt 0.44922 0.00000
vn -1.0000 0.0000 0.0000
vn -1.0000 0.0000 0.0000
vn -1.0000 0.0000 0.0000
vn -1.0000 0.0000 0.0000
vn -1.0000 0.0000 0.0000
vn -1.0000 0.0000 0.0000
g modern_wall_e_0
usemtl labo_02
f 1/1/1 2/2/2 3/3/3
f 4/4/4 5/5/5 6/6/6
