# modern_wall_s
# generated by tools/assets/build-tiles.js — do not edit
mtllib modern_wall_s.mtl
o modern_wall_s
v 0.00000 -0.12500 0.00000
v 1.00000 -0.12500 0.37500
v 1.00000 -0.12500 0.00000
v 0.00000 -0.12500 0.00000
v 0.00000 -0.12500 0.37500
v 1.00000 -0.12500 0.37500
vt 0.00000 0.00000
vt 1.00000 0.37500
vt 1.00000 0.00000
vt 0.00000 0.00000
vt 0.00000 0.37500
vt 1.00000 0.37500
vn 0.0000 1.0000 0.0000
vn 0.0000 1.0000 0.0000
vn 0.0000 1.0000 0.0000
vn 0.0000 1.0000 0.0000
vn 0.0000 1.0000 0.0000
vn 0.0000 1.0000 0.0000
g modern_wall_s_0
usemtl labo_01
f 1/1/1 2/2/2 3/3/3
f 4/4/4 5/5/5 6/6/6
v 0.00000 -0.12500 0.37500
v 1.00000 2.87500 0.37500
v 1.00000 -0.12500 0.37500
v 0.00000 -0.12500 0.37500
v 0.00000 2.87500 0.37500
v 1.00000 2.87500 0.37500
vt 0.39844 -1.00000
vt 0.44922 0.00000
vt 0.44922 -1.00000
vt 0.39844 -1.00000
vt 0.39844 0.00000
vt 0.44922 0.00000
vn 0.0000 0.0000 -1.0000
vn 0.0000 0.0000 -1.0000
vn 0.0000 0.0000 -1.0000
vn 0.0000 0.0000 -1.0000
vn 0.0000 0.0000 -1.0000
vn 0.0000 0.0000 -1.0000
g modern_wall_s_1
usemtl labo_02
f 7/7/7 8/8/8 9/9/9
f 10/10/10 11/11/11 12/12/12
