# wall_top_n
# generated by tools/assets/build-tiles.js — do not edit
mtllib wall_top_n.mtl
o wall_top_n
v 0.00000 2.87500 0.00000
v 1.00000 2.87500 0.37500
v 1.00000 2.87500 0.00000
v 0.00000 2.87500 0.00000
v 0.00000 2.87500 0.37500
v 1.00000 2.87500 0.37500
vt 1.68359 -0.78125
vt 0.06641 -0.78125
vt 0.06641 -0.78125
vt 1.68359 -0.78125
vt 1.68359 -0.78125
vt 0.06641 -0.78125
vn 0.0000 1.0000 0.0000
vn 0.0000 1.0000 0.0000
vn 0.0000 1.0000 0.0000
vn 0.0000 1.0000 0.0000
vn 0.0000 1.0000 0.0000
vn 0.0000 1.0000 0.0000
g wall_top_n_0
usemtl wall01_mat
f 1/1/1 2/2/2 3/3/3
f 4/4/4 5/5/5 6/6/6
