# rock_corner_ne
# generated by tools/assets/build-tiles.js — do not edit
mtllib rock_corner_ne.mtl
o rock_corner_ne
v 0.43750 0.18750 0.31250
v 0.00000 0.00000 0.00000
v 0.00000 0.18750 0.31250
v 0.43750 0.18750 0.31250
v 0.50000 0.00000 0.00000
v 0.00000 0.00000 0.00000
v 0.37500 0.87500 0.87500
v 0.68750 0.18750 1.00000
v 0.68750 0.18750 0.56250
v 0.37500 0.87500 0.87500
v 0.37500 0.87500 1.00000
v 0.68750 0.18750 1.00000
v 0.43750 0.18750 0.31250
v 0.00000 0.87500 0.62500
v 0.12500 0.87500 0.62500
v 0.43750 0.18750 0.31250
v 0.00000 0.18750 0.31250
v 0.00000 0.87500 0.62500
v 1.00000 0.00000 0.50000
v 0.68750 0.18750 1.00000
v 1.00000 0.00000 1.00000
v 1.00000 0.00000 0.50000
v 0.68750 0.18750 0.56250
v 0.68750 0.18750 1.00000
v 0.68750 0.18750 0.56250
v 0.50000 0.00000 0.00000
v 0.43750 0.18750 0.31250
v 0.68750 0.18750 0.56250
v 1.00000 0.00000 0.50000
v 0.50000 0.00000 0.00000
v 0.68750 0.18750 0.56250
v 0.12500 0.87500 0.62500
v 0.37500 0.87500 0.87500
v 0.68750 0.18750 0.56250
v 0.43750 0.18750 0.31250
v 0.12500 0.87500 0.62500
vt 0.50000 -0.62109
vt 1.03906 -0.98438
vt 1.05078 -0.62109
vt 0.50000 -0.62109
vt 0.51563 -0.98438
vt 1.03906 -0.98438
vt 1.06250 -0.01953
vt 1.48438 -0.71875
vt 1.01172 -0.71875
vt 1.06250 -0.01953
vt 1.43750 -0.01953
vt 1.48438 -0.71875
vt 0.44141 -0.71875
vt 0.01172 -0.01953
vt 0.23828 -0.01953
vt 0.44141 -0.71875
vt 0.01172 -0.71875
vt 0.01172 -0.01953
vt 0.50000 -0.98438
vt 1.03906 -0.62109
vt 1.05078 -0.98438
vt 0.50000 -0.98438
vt 0.51563 -0.62109
vt 1.03906 -0.62109
vt 0.64453 -0.63672
vt 0.26172 -0.98438
vt 0.31641 -0.63672
vt 0.64453 -0.63672
vt 0.74219 -0.98438
vt 0.26172 -0.98438
vt 1.15234 -0.71875
vt 0.50000 -0.01953
vt 0.81250 -0.01953
vt 1.15234 -0.71875
vt 0.30469 -0.71875
vt 0.50000 -0.01953
vn 0.0000 0.8575 -0.5145
vn 0.0000 0.8575 -0.5145
vn 0.0000 0.8575 -0.5145
vn 0.0000 0.8575 -0.5145
vn 0.0000 0.8575 -0.5145
vn 0.0000 0.8575 -0.5145
vn 0.9104 0.4138 0.0000
vn 0.9104 0.4138 0.0000
vn 0.9104 0.4138 0.0000
vn 0.9104 0.4138 0.0000
vn 0.9104 0.4138 0.0000
vn 0.9104 0.4138 0.0000
vn 0.0000 0.4138 -0.9104
vn 0.0000 0.4138 -0.9104
vn 0.0000 0.4138 -0.9104
vn 0.0000 0.4138 -0.9104
vn 0.0000 0.4138 -0.9104
vn 0.0000 0.4138 -0.9104
vn 0.5145 0.8575 0.0000
vn 0.5145 0.8575 0.0000
vn 0.5145 0.8575 0.0000
vn 0.5145 0.8575 0.0000
vn 0.5145 0.8575 0.0000
vn 0.5145 0.8575 0.0000
vn 0.4082 0.8165 -0.4082
vn 0.4082 0.8165 -0.4082
vn 0.4082 0.8165 -0.4082
vn 0.4082 0.8165 -0.4082
vn 0.4082 0.8165 -0.4082
vn 0.4082 0.8165 -0.4082
vn 0.5948 0.5407 -0.5948
vn 0.5948 0.5407 -0.5948
vn 0.5948 0.5407 -0.5948
vn 0.5948 0.5407 -0.5948
vn 0.5948 0.5407 -0.5948
vn 0.5948 0.5407 -0.5948
g rock_corner_ne_0
usemtl d7cliff2
f 1/1/1 2/2/2 3/3/3
f 4/4/4 5/5/5 6/6/6
f 7/7/7 8/8/8 9/9/9
f 10/10/10 11/11/11 12/12/12
f 13/13/13 14/14/14 15/15/15
f 16/16/16 17/17/17 18/18/18
f 19/19/19 20/20/20 21/21/21
f 22/22/22 23/23/23 24/24/24
f 25/25/25 26/26/26 27/27/27
f 28/28/28 29/29/29 30/30/30
f 31/31/31 32/32/32 33/33/33
f 34/34/34 35/35/35 36/36/36
v 0.37500 0.87500 0.87500
v 0.00000 1.00000 1.00000
v 0.37500 0.87500 1.00000
v 0.37500 0.87500 0.87500
v 0.12500 0.87500 0.62500
v 0.00000 1.00000 1.00000
v 0.12500 0.87500 0.62500
v 0.00000 0.87500 0.62500
v 0.00000 1.00000 1.00000
vt 1.25000 -0.97656
vt 1.00000 -0.01563
vt 0.75000 -0.97656
vt -0.75000 -0.97656
vt -1.31250 -0.97656
vt -1.00000 -0.01563
vt 1.25000 -0.97656
vt 0.81250 -0.97656
vt 1.00000 -0.01563
vn 0.3162 0.9487 0.0000
vn 0.3162 0.9487 0.0000
vn 0.3162 0.9487 0.0000
vn 0.2357 0.9428 -0.2357
vn 0.2357 0.9428 -0.2357
vn 0.2357 0.9428 -0.2357
vn 0.0000 0.9487 -0.3162
vn 0.0000 0.9487 -0.3162
vn 0.0000 0.9487 -0.3162
g rock_corner_ne_1
usemtl d7cliffue4
f 37/37/37 38/38/38 39/39/39
f 40/40/40 41/41/41 42/42/42
f 43/43/43 44/44/44 45/45/45
v 0.00000 0.00000 0.00000
v 1.00000 0.00000 1.00000
v 1.00000 0.00000 0.00000
vt 0.77734 -0.03516
vt 0.77734 -0.03516
vt 0.77734 -0.03516
vn 0.0000 1.0000 0.0000
vn 0.0000 1.0000 0.0000
vn 0.0000 1.0000 0.0000
g rock_corner_ne_2
usemtl d7bedrock2
f 46/46/46 47/47/47 48/48/48
