# rock_w_inner_sw_v2
# generated by tools/assets/build-tiles.js — do not edit
mtllib rock_w_inner_sw_v2.mtl
o rock_w_inner_sw_v2
v 1.00000 0.87500 0.37500
v 0.00000 0.18750 0.68750
v 1.00000 0.18750 0.68750
v 1.00000 0.87500 0.37500
v 0.00000 0.87500 0.37500
v 0.00000 0.18750 0.68750
v 1.00000 0.00000 1.00000
v 0.00000 0.18750 0.68750
v 0.00000 0.00000 1.00000
v 1.00000 0.00000 1.00000
v 1.00000 0.18750 0.68750
v 0.00000 0.18750 0.68750
v 0.62500 0.87500 1.00000
v 0.31250 0.18750 0.00000
v 0.31250 0.18750 1.00000
v 0.62500 0.87500 1.00000
v 0.62500 0.87500 0.00000
v 0.31250 0.18750 0.00000
v 0.00000 0.00000 1.00000
v 0.31250 0.18750 0.00000
v 0.00000 0.00000 0.00000
v 0.00000 0.00000 1.00000
v 0.31250 0.18750 1.00000
v 0.31250 0.18750 0.00000
vt 8.94717 -0.01953
vt 9.84189 -0.62891
vt 8.94717 -0.62891
vt 8.94717 -0.01953
vt 9.84189 -0.01953
vt 9.84189 -0.62891
vt 8.94717 -0.98438
vt 9.84189 -0.62891
vt 9.84189 -0.98438
vt 8.94717 -0.98438
vt 8.94717 -0.62891
vt 9.84189 -0.62891
vt 8.94717 -0.01953
vt 9.84189 -0.62891
vt 8.94717 -0.62891
vt 8.94717 -0.01953
vt 9.84189 -0.01953
vt 9.84189 -0.62891
vt 8.94717 -0.98438
vt 9.84189 -0.62891
vt 9.84189 -0.98438
vt 8.94717 -0.98438
vt 8.94717 -0.62891
vt 9.84189 -0.62891
vn 0.0000 0.7432 0.6691
vn 0.0000 0.6658 0.7462
vn 0.0000 0.6658 0.7462
vn 0.0000 0.7432 0.6691
vn 0.0000 0.7432 0.6691
vn 0.0000 0.6658 0.7462
vn 0.0000 0.8575 0.5145
vn 0.0000 0.6658 0.7462
vn 0.0000 0.8575 0.5145
vn 0.0000 0.8575 0.5145
vn 0.0000 0.6658 0.7462
vn 0.0000 0.6658 0.7462
vn -0.6691 0.7432 0.0000
vn -0.7462 0.6658 0.0000
vn -0.7462 0.6658 0.0000
vn -0.6691 0.7432 0.0000
vn -0.6691 0.7432 0.0000
vn -0.7462 0.6658 0.0000
vn -0.5145 0.8575 0.0000
vn -0.7462 0.6658 0.0000
vn -0.5145 0.8575 0.0000
vn -0.5145 0.8575 0.0000
vn -0.7462 0.6658 0.0000
vn -0.7462 0.6658 0.0000
g rock_w_inner_sw_v2_0
usemtl d7cliff2
f 1/1/1 2/2/2 3/3/3
f 4/4/4 5/5/5 6/6/6
f 7/7/7 8/8/8 9/9/9
f 10/10/10 11/11/11 12/12/12
f 13/13/13 14/14/14 15/15/15
f 16/16/16 17/17/17 18/18/18
f 19/19/19 20/20/20 21/21/21
f 22/22/22 23/23/23 24/24/24
v 1.00000 0.87500 0.37500
v 0.00000 1.00000 0.00000
v 0.00000 0.87500 0.37500
v 1.00000 0.87500 0.37500
v 1.00000 1.00000 0.00000
v 0.00000 1.00000 0.00000
v 0.62500 0.87500 1.00000
v 1.00000 1.00000 0.00000
v 0.62500 0.87500 0.00000
v 0.62500 0.87500 1.00000
v 1.00000 1.00000 1.00000
v 1.00000 1.00000 0.00000
vt 8.94717 -0.97656
vt 9.84189 -0.01563
vt 9.84189 -0.97656
vt 8.94717 -0.97656
vt 8.94717 -0.01563
vt 9.84189 -0.01563
vt 8.94717 -0.97656
vt 9.84189 -0.01563
vt 9.84189 -0.97656
vt 8.94717 -0.97656
vt 8.94717 -0.01563
vt 9.84189 -0.01563
vn 0.0000 0.7432 0.6691
vn 0.0000 0.9487 0.3162
vn 0.0000 0.7432 0.6691
vn 0.0000 0.7432 0.6691
vn 0.0000 0.9487 0.3162
vn 0.0000 0.9487 0.3162
vn -0.6691 0.7432 0.0000
vn -0.3162 0.9487 0.0000
vn -0.6691 0.7432 0.0000
vn -0.6691 0.7432 0.0000
vn -0.3162 0.9487 0.0000
vn -0.3162 0.9487 0.0000
g rock_w_inner_sw_v2_1
usemtl d7cliffue2
f 25/25/25 26/26/26 27/27/27
f 28/28/28 29/29/29 30/30/30
f 31/31/31 32/32/32 33/33/33
f 34/34/34 35/35/35 36/36/36
