# rock_edge_e
# generated by tools/assets/build-tiles.js — do not edit
mtllib rock_edge_e.mtl
o rock_edge_e
v 1.00000 0.00000 0.00000
v 0.68750 0.18750 1.00000
v 1.00000 0.00000 1.00000
v 1.00000 0.00000 0.00000
v 0.68750 0.18750 0.00000
v 0.68750 0.18750 1.00000
v 0.37500 0.87500 0.00000
v 0.68750 0.18750 1.00000
v 0.68750 0.18750 0.00000
v 0.37500 0.87500 0.00000
v 0.37500 0.87500 1.00000
v 0.68750 0.18750 1.00000
vt 0.00000 -0.98438
vt 1.00000 -0.62891
vt 1.00000 -0.98438
vt 0.00000 -0.98438
vt 0.00000 -0.62891
vt 1.00000 -0.62891
vt 0.00000 -0.01953
vt 1.00000 -0.62891
vt 0.00000 -0.62891
vt 0.00000 -0.01953
vt 1.00000 -0.01953
vt 1.00000 -0.62891
vn 0.5145 0.8575 0.0000
vn 0.7462 0.6658 0.0000
vn 0.5145 0.8575 0.0000
vn 0.5145 0.8575 0.0000
vn 0.7462 0.6658 0.0000
vn 0.7462 0.6658 0.0000
vn 0.6691 0.7432 0.0000
vn 0.7462 0.6658 0.0000
vn 0.7462 0.6658 0.0000
vn 0.6691 0.7432 0.0000
vn 0.6691 0.7432 0.0000
vn 0.7462 0.6658 0.0000
g rock_edge_e_0
usemtl d7cliff2
f 1/1/1 2/2/2 3/3/3
f 4/4/4 5/5/5 6/6/6
f 7/7/7 8/8/8 9/9/9
f 10/10/10 11/11/11 12/12/12
v 0.37500 0.87500 0.00000
v 0.00000 1.00000 1.00000
v 0.37500 0.87500 1.00000
v 0.37500 0.87500 0.00000
v 0.00000 1.00000 0.00000
v 0.00000 1.00000 1.00000
vt 0.00000 -0.97656
vt 1.00000 -0.01563
vt 1.00000 -0.97656
vt 0.00000 -0.97656
vt 0.00000 -0.01563
vt 1.00000 -0.01563
vn 0.6691 0.7432 0.0000
vn 0.3162 0.9487 0.0000
vn 0.6691 0.7432 0.0000
vn 0.6691 0.7432 0.0000
vn 0.3162 0.9487 0.0000
vn 0.3162 0.9487 0.0000
g rock_edge_e_1
usemtl d7cliffue4
f 13/13/13 14/14/14 15/15/15
f 16/16/16 17/17/17 18/18/18
