# small_rock
# generated by tools/assets/build-tiles.js — do not edit
mtllib small_rock.mtl
o small_rock
v 1.00000 0.62500 1.00000
v 0.00000 0.12500 0.00000
v 0.00000 0.62500 1.00000
v 1.00000 0.62500 1.00000
v 1.00000 0.12500 0.00000
v 0.00000 0.12500 0.00000
vt 1.00000 0.00000
vt 0.00000 -1.00000
vt 0.00000 0.00000
vt 1.00000 0.00000
vt 1.00000 -1.00000
vt 0.00000 -1.00000
vn 0.0000 0.8944 -0.4472
vn 0.0000 0.8944 -0.4472
vn 0.0000 0.8944 -0.4472
vn 0.0000 0.8944 -0.4472
vn 0.0000 0.8944 -0.4472
vn 0.0000 0.8944 -0.4472
g small_rock_0
usemtl d7_rock01
f 1/1/1 2/2/2 3/3/3
f 4/4/4 5/5/5 6/6/6
