# stairs_cave_v3
# generated by tools/assets/build-tiles.js — do not edit
mtllib stairs_cave_v3.mtl
o stairs_cave_v3
v 3.00000 0.00000 0.00000
v 3.00000 1.00000 1.00000
v 3.00000 0.87500 0.62500
v 3.00000 0.00000 0.00000
v 3.00000 0.00000 0.75000
v 3.00000 1.00000 1.00000
v 3.00000 1.00000 1.00000
v 0.00000 0.00000 0.00000
v 0.00000 1.00000 1.00000
v 3.00000 1.00000 1.00000
v 3.00000 0.00000 0.00000
v 0.00000 0.00000 0.00000
v 0.00000 1.00000 1.00000
v 0.00000 0.00000 0.00000
v 0.00000 0.87500 0.62500
v 0.00000 1.00000 1.00000
v 0.00000 0.00000 0.75000
v 0.00000 0.00000 0.00000
vt 0.97266 -0.03125
vt 0.93750 -0.06250
vt 0.97266 -0.03125
vt 0.97266 -0.03125
vt 0.93750 -0.06250
vt 0.93750 -0.06250
vt 1.00000 1.06250
vt 0.00000 -3.00000
vt 0.00000 1.06250
vt 1.00000 1.06250
vt 1.00000 -3.00000
vt 0.00000 -3.00000
vt 0.97266 -0.03125
vt 0.93750 -0.06250
vt 0.97266 -0.03125
vt 0.97266 -0.03125
vt 0.93750 -0.06250
vt 0.93750 -0.06250
vn -1.0000 0.0000 0.0000
vn -1.0000 0.0000 0.0000
vn -1.0000 0.0000 0.0000
vn -1.0000 0.0000 0.0000
vn -1.0000 0.0000 0.0000
vn -1.0000 0.0000 0.0000
vn 0.0000 0.7071 -0.7071
vn 0.0000 0.7071 -0.7071
vn 0.0000 0.7071 -0.7071
vn 0.0000 0.7071 -0.7071
vn 0.0000 0.7071 -0.7071
vn 0.0000 0.7071 -0.7071
vn 1.0000 0.0000 0.0000
vn 1.0000 0.0000 0.0000
vn 1.0000 0.0000 0.0000
vn 1.0000 0.0000 0.0000
vn 1.0000 0.0000 0.0000
vn 1.0000 0.0000 0.0000
g stairs_cave_v3_0
usemtl d0kaidan_01
f 1/1/1 2/2/2 3/3/3
f 4/4/4 5/5/5 6/6/6
f 7/7/7 8/8/8 9/9/9
f 10/10/10 11/11/11 12/12/12
f 13/13/13 14/14/14 15/15/15
f 16/16/16 17/17/17 18/18/18
