# carpet_rombo_corner_sw
# generated by tools/assets/build-tiles.js — do not edit
mtllib carpet_rombo_corner_sw.mtl
o carpet_rombo_corner_sw
v 0.00000 0.00000 0.50000
v 0.75000 0.00000 0.50000
v 0.50000 0.00000 0.25000
v 0.00000 0.00000 0.50000
v 0.50000 0.00000 1.00000
v 0.75000 0.00000 0.50000
v 0.50000 0.00000 1.00000
v 1.00000 0.00000 0.50000
v 0.75000 0.00000 0.50000
v 0.50000 0.00000 1.00000
v 1.00000 0.00000 1.00000
v 1.00000 0.00000 0.50000
v 0.00000 0.00000 0.50000
v 0.50000 0.00000 0.00000
v 0.00000 0.00000 0.00000
v 0.00000 0.00000 0.50000
v 0.50000 0.00000 0.25000
v 0.50000 0.00000 0.00000
vt 0.75000 -0.93750
vt 0.25000 -0.06250
vt 0.75000 -0.06250
vt 0.75000 -0.93750
vt 0.25000 -0.93750
vt 0.25000 -0.06250
vt 0.25000 -0.93750
vt 2.25000 -0.10156
vt 1.00000 -0.10156
vt 0.25000 -0.93750
vt 2.25000 -0.89844
vt 2.25000 -0.10156
vt 0.75000 -0.93750
vt -2.00000 -0.10156
vt -2.00000 -0.89844
vt 0.75000 -0.93750
vt 0.75000 -0.06250
vt -2.00000 -0.10156
vn 0.0000 1.0000 0.0000
vn 0.0000 1.0000 0.0000
vn 0.0000 1.0000 0.0000
vn 0.0000 1.0000 0.0000
vn 0.0000 1.0000 0.0000
vn 0.0000 1.0000 0.0000
vn 0.0000 1.0000 0.0000
vn 0.0000 1.0000 0.0000
vn 0.0000 1.0000 0.0000
vn 0.0000 1.0000 0.0000
vn 0.0000 1.0000 0.0000
vn 0.0000 1.0000 0.0000
vn 0.0000 1.0000 0.0000
vn 0.0000 1.0000 0.0000
vn 0.0000 1.0000 0.0000
vn 0.0000 1.0000 0.0000
vn 0.0000 1.0000 0.0000
vn 0.0000 1.0000 0.0000
g carpet_rombo_corner_sw_0
usemtl carpet01_2mat
f 1/1/1 2/2/2 3/3/3
f 4/4/4 5/5/5 6/6/6
f 7/7/7 8/8/8 9/9/9
f 10/10/10 11/11/11 12/12/12
f 13/13/13 14/14/14 15/15/15
f 16/16/16 17/17/17 18/18/18
v 1.00000 0.00000 -0.00000
v 0.75000 0.00000 0.50000
v 1.00000 0.00000 0.50000
v 0.75000 0.00000 0.50000
v 1.00000 0.00000 -0.00000
v 0.50000 0.00000 0.25000
v 0.50000 0.00000 0.25000
v 1.00000 0.00000 -0.00000
v 0.50000 0.00000 0.00000
vt 1.00000 0.00000
vt 0.50000 1.00000
vt 1.00000 1.00000
vt 0.50000 1.00000
vt 1.00000 0.00000
vt 0.00000 0.50000
vt 0.00000 0.50000
vt 1.00000 0.00000
vt 0.00000 0.00000
vn 0.0000 1.0000 0.0000
vn 0.0000 1.0000 0.0000
vn 0.0000 1.0000 0.0000
vn 0.0000 1.0000 0.0000
vn 0.0000 1.0000 0.0000
vn 0.0000 1.0000 0.0000
vn 0.0000 1.0000 0.0000
vn 0.0000 1.0000 0.0000
vn 0.0000 1.0000 0.0000
g carpet_rombo_corner_sw_1
usemtl carpet01_1mat
f 19/19/19 20/20/20 21/21/21
f 22/22/22 23/23/23 24/24/24
f 25/25/25 26/26/26 27/27/27
