# carpet_corner_nw
# generated by tools/assets/build-tiles.js — do not edit
mtllib carpet_corner_nw.mtl
o carpet_corner_nw
v 1.00000 0.00000 1.00000
v 0.50000 0.00000 0.75000
v 0.50000 0.00000 1.00000
v 0.50000 0.00000 0.75000
v 1.00000 0.00000 1.00000
v 0.75000 0.00000 0.50000
v 0.75000 0.00000 0.50000
v 1.00000 0.00000 1.00000
v 1.00000 0.00000 0.50000
vt -1.50000 -2.25000
vt -2.50000 -3.00000
vt -2.50000 -2.25000
vt -2.50000 -3.00000
vt -1.50000 -2.25000
vt -2.00000 -3.50000
vt -2.00000 -3.50000
vt -1.50000 -2.25000
vt -1.50000 -3.50000
vn 0.0000 1.0000 0.0000
vn 0.0000 1.0000 0.0000
vn 0.0000 1.0000 0.0000
vn 0.0000 1.0000 0.0000
vn 0.0000 1.0000 0.0000
vn 0.0000 1.0000 0.0000
vn 0.0000 1.0000 0.0000
vn 0.0000 1.0000 0.0000
vn 0.0000 1.0000 0.0000
g carpet_corner_nw_0
usemtl carpet03_1mat
f 1/1/1 2/2/2 3/3/3
f 4/4/4 5/5/5 6/6/6
f 7/7/7 8/8/8 9/9/9
v 0.50000 0.00000 0.00000
v 0.50000 0.00000 0.75000
v 0.75000 0.00000 0.50000
v 0.50000 0.00000 0.00000
v 0.00000 0.00000 0.50000
v 0.50000 0.00000 0.75000
v 0.00000 0.00000 0.50000
v 0.50000 0.00000 1.00000
v 0.50000 0.00000 0.75000
v 0.00000 0.00000 0.50000
v 0.00000 0.00000 1.00000
v 0.50000 0.00000 1.00000
v 0.50000 0.00000 0.00000
v 1.00000 0.00000 0.50000
v 1.00000 0.00000 0.00000
v 0.50000 0.00000 0.00000
v 0.75000 0.00000 0.50000
v 1.00000 0.00000 0.50000
vt 0.75000 -0.93750
vt 0.25000 -0.06250
vt 0.75000 -0.06250
vt 0.75000 -0.93750
vt 0.25000 -0.93750
vt 0.25000 -0.06250
vt 0.25000 -0.93750
vt 2.25000 -0.10156
vt 1.00000 -0.10156
vt 0.25000 -0.93750
vt 2.25000 -0.89844
vt 2.25000 -0.10156
vt 0.75000 -0.93750
vt -2.00000 -0.10156
vt -2.00000 -0.89844
vt 0.75000 -0.93750
vt 0.75000 -0.06250
vt -2.00000 -0.10156
vn 0.0000 1.0000 0.0000
vn 0.0000 1.0000 0.0000
vn 0.0000 1.0000 0.0000
vn 0.0000 1.0000 0.0000
vn 0.0000 1.0000 0.0000
vn 0.0000 1.0000 0.0000
vn 0.0000 1.0000 0.0000
vn 0.0000 1.0000 0.0000
vn 0.0000 1.0000 0.0000
vn 0.0000 1.0000 0.0000
vn 0.0000 1.0000 0.0000
vn 0.0000 1.0000 0.0000
vn 0.0000 1.0000 0.0000
vn 0.0000 1.0000 0.0000
vn 0.0000 1.0000 0.0000
vn 0.0000 1.0000 0.0000
vn 0.0000 1.0000 0.0000
vn 0.0000 1.0000 0.0000
g carpet_corner_nw_1
usemtl carpet03_2mat
f 10/10/10 11/11/11 12/12/12
f 13/13/13 14/14/14 15/15/15
f 16/16/16 17/17/17 18/18/18
f 19/19/19 20/20/20 21/21/21
f 22/22/22 23/23/23 24/24/24
f 25/25/25 26/26/26 27/27/27
