# carpet_corner_inner_nw
# generated by tools/assets/build-tiles.js — do not edit
mtllib carpet_corner_inner_nw.mtl
o carpet_corner_inner_nw
v 1.00000 0.00000 1.00000
v 0.50000 0.00000 0.00000
v 0.50000 0.00000 0.50000
v 1.00000 0.00000 1.00000
v 1.00000 0.00000 0.00000
v 0.50000 0.00000 0.00000
v 1.00000 0.00000 1.00000
v 0.00000 0.00000 0.50000
v 0.00000 0.00000 1.00000
v 1.00000 0.00000 1.00000
v 0.50000 0.00000 0.50000
v 0.00000 0.00000 0.50000
vt 1.00000 1.00000
vt 0.50000 0.00000
vt 0.50000 0.50000
vt 1.00000 1.00000
vt 1.00000 0.00000
vt 0.50000 0.00000
vt 1.00000 1.00000
vt 0.00000 0.50000
vt 0.00000 1.00000
vt 1.00000 1.00000
vt 0.50000 0.50000
vt 0.00000 0.50000
vn 0.0000 1.0000 0.0000
vn 0.0000 1.0000 0.0000
vn 0.0000 1.0000 0.0000
vn 0.0000 1.0000 0.0000
vn 0.0000 1.0000 0.0000
vn 0.0000 1.0000 0.0000
vn 0.0000 1.0000 0.0000
vn 0.0000 1.0000 0.0000
vn 0.0000 1.0000 0.0000
vn 0.0000 1.0000 0.0000
vn 0.0000 1.0000 0.0000
vn 0.0000 1.0000 0.0000
g carpet_corner_inner_nw_0
usemtl carpet03_1mat
f 1/1/1 2/2/2 3/3/3
f 4/4/4 5/5/5 6/6/6
f 7/7/7 8/8/8 9/9/9
f 10/10/10 11/11/11 12/12/12
v 0.50000 0.00000 0.50000
v 0.50000 0.00000 0.00000
v 0.00000 0.00000 0.00000
v 0.50000 0.00000 0.50000
v 0.00000 0.00000 0.00000
v 0.00000 0.00000 0.50000
vt 0.55000 -0.10156
vt 2.25000 -0.10156
vt 2.25000 -0.89844
vt 0.55000 -0.10156
vt 2.25000 -0.89844
vt 2.23750 -0.10156
vn 0.0000 1.0000 0.0000
vn 0.0000 1.0000 0.0000
vn 0.0000 1.0000 0.0000
vn 0.0000 1.0000 0.0000
vn 0.0000 1.0000 0.0000
vn 0.0000 1.0000 0.0000
g carpet_corner_inner_nw_1
usemtl carpet03_2mat
f 13/13/13 14/14/14 15/15/15
f 16/16/16 17/17/17 18/18/18
