# carpet_edge_w
# generated by tools/assets/build-tiles.js — do not edit
mtllib carpet_edge_w.mtl
o carpet_edge_w
v 0.50000 0.00000 1.00000
v 0.00000 0.00000 0.00000
v 0.00000 0.00000 1.00000
v 0.50000 0.00000 1.00000
v 0.50000 0.00000 0.00000
v 0.00000 0.00000 0.00000
vt -1.15000 -0.10156
vt 2.25000 -0.89844
vt -1.15000 -0.89844
vt -1.15000 -0.10156
vt 2.25000 -0.10156
vt 2.25000 -0.89844
vn 0.0000 1.0000 0.0000
vn 0.0000 1.0000 0.0000
vn 0.0000 1.0000 0.0000
vn 0.0000 1.0000 0.0000
vn 0.0000 1.0000 0.0000
vn 0.0000 1.0000 0.0000
g carpet_edge_w_0
usemtl carpet03_2mat
f 1/1/1 2/2/2 3/3/3
f 4/4/4 5/5/5 6/6/6
v 1.00000 0.00000 1.00000
v 0.50000 0.00000 0.00000
v 0.50000 0.00000 1.00000
v 1.00000 0.00000 1.00000
v 1.00000 0.00000 0.00000
v 0.50000 0.00000 0.00000
vt -1.50000 1.15000
vt -2.50000 -2.25000
vt -2.50000 1.15000
vt -1.50000 1.15000
vt -1.50000 -2.25000
vt -2.50000 -2.25000
vn 0.0000 1.0000 0.0000
vn 0.0000 1.0000 0.0000
vn 0.0000 1.0000 0.0000
vn 0.0000 1.0000 0.0000
vn 0.0000 1.0000 0.0000
vn 0.0000 1.0000 0.0000
g carpet_edge_w_1
usemtl carpet03_1mat
f 7/7/7 8/8/8 9/9/9
f 10/10/10 11/11/11 12/12/12
