# carpet_rombo_edge_n
# generated by tools/assets/build-tiles.js — do not edit
mtllib carpet_rombo_edge_n.mtl
o carpet_rombo_edge_n
v 1.00000 0.00000 -0.00000
v 0.00000 0.00000 0.50000
v 1.00000 0.00000 0.50000
v 1.00000 0.00000 -0.00000
v 0.00000 0.00000 -0.00000
v 0.00000 0.00000 0.50000
vt -1.50000 1.15000
vt -2.50000 -2.25000
vt -2.50000 1.15000
vt -1.50000 1.15000
vt -1.50000 -2.25000
vt -2.50000 -2.25000
vn 0.0000 1.0000 0.0000
vn 0.0000 1.0000 0.0000
vn 0.0000 1.0000 0.0000
vn 0.0000 1.0000 0.0000
vn 0.0000 1.0000 0.0000
vn 0.0000 1.0000 0.0000
g carpet_rombo_edge_n_0
usemtl carpet01_2mat
f 1/1/1 2/2/2 3/3/3
f 4/4/4 5/5/5 6/6/6
v 1.00000 0.00000 0.50000
v 0.00000 0.00000 1.00000
v 1.00000 0.00000 1.00000
v 1.00000 0.00000 0.50000
v 0.00000 0.00000 0.50000
v 0.00000 0.00000 1.00000
vt 2.00000 0.00000
vt 0.00000 1.00000
vt 2.00000 1.00000
vt 2.00000 0.00000
vt 0.00000 0.00000
vt 0.00000 1.00000
vn 0.0000 1.0000 0.0000
vn 0.0000 1.0000 0.0000
vn 0.0000 1.0000 0.0000
vn 0.0000 1.0000 0.0000
vn 0.0000 1.0000 0.0000
vn 0.0000 1.0000 0.0000
g carpet_rombo_edge_n_1
usemtl carpet01_1mat
f 7/7/7 8/8/8 9/9/9
f 10/10/10 11/11/11 12/12/12
