# modern_floor_light
# generated by tools/assets/build-tiles.js — do not edit
mtllib modern_floor_light.mtl
o modern_floor_light
v 2.00000 -0.12500 1.00000
v 1.00000 -0.12500 1.00000
v 2.00000 -0.12500 2.00000
v 2.00000 -0.12500 2.00000
v 1.00000 -0.12500 1.00000
v 1.00000 -0.12500 2.00000
v 0.00000 -0.12500 2.00000
v 1.00000 -0.12500 1.00000
v 0.00000 -0.12500 1.00000
v 1.00000 -0.12500 1.00000
v 2.00000 -0.12500 0.00000
v 1.00000 -0.12500 0.00000
v 0.00000 -0.12500 2.00000
v 1.00000 -0.12500 2.00000
v 1.00000 -0.12500 1.00000
v 1.00000 -0.12500 0.00000
v 0.00000 -0.12500 0.00000
v 1.00000 -0.12500 1.00000
v 1.00000 -0.12500 1.00000
v 0.00000 -0.12500 0.00000
v 0.00000 -0.12500 1.00000
v 1.00000 -0.12500 1.00000
v 2.00000 -0.12500 1.00000
v 2.00000 -0.12500 0.00000
vt -2.50000 2.00000
vt -3.50000 2.00000
vt -2.50000 3.00000
vt -2.50000 3.00000
vt -3.50000 2.00000
vt -3.50000 3.00000
vt -4.50000 3.00000
vt -3.50000 2.00000
vt -4.50000 2.00000
vt -3.50000 2.00000
vt -2.50000 1.00000
vt -3.50000 1.00000
vt -4.50000 3.00000
vt -3.50000 3.00000
vt -3.50000 2.00000
vt -3.50000 1.00000
vt -4.50000 1.00000
vt -3.50000 2.00000
vt -3.50000 2.00000
vt -4.50000 1.00000
vt -4.50000 2.00000
vt -3.50000 2.00000
vt -2.50000 2.00000
vt -2.50000 1.00000
vn 0.0000 1.0000 0.0000
vn 0.0000 1.0000 0.0000
vn 0.0000 1.0000 0.0000
vn 0.0000 1.0000 0.0000
vn 0.0000 1.0000 0.0000
vn 0.0000 1.0000 0.0000
vn 0.0000 1.0000 0.0000
vn 0.0000 1.0000 0.0000
vn 0.0000 1.0000 0.0000
vn 0.0000 1.0000 0.0000
vn 0.0000 1.0000 0.0000
vn 0.0000 1.0000 0.0000
vn 0.0000 1.0000 0.0000
vn 0.0000 1.0000 0.0000
vn 0.0000 1.0000 0.0000
vn 0.0000 1.0000 0.0000
vn 0.0000 1.0000 0.0000
vn 0.0000 1.0000 0.0000
vn 0.0000 1.0000 0.0000
vn 0.0000 1.0000 0.0000
vn 0.0000 1.0000 0.0000
vn 0.0000 1.0000 0.0000
vn 0.0000 1.0000 0.0000
vn 0.0000 1.0000 0.0000
g modern_floor_light_0
usemtl labo_01
f 1/1/1 2/2/2 3/3/3
f 4/4/4 5/5/5 6/6/6
f 7/7/7 8/8/8 9/9/9
f 10/10/10 11/11/11 12/12/12
f 13/13/13 14/14/14 15/15/15
f 16/16/16 17/17/17 18/18/18
f 19/19/19 20/20/20 21/21/21
f 22/22/22 23/23/23 24/24/24
