# wooden_floor_v5
# generated by tools/assets/build-tiles.js — do not edit
mtllib wooden_floor_v5.mtl
o wooden_floor_v5
v 1.00000 -0.12500 0.00000
v 0.00000 -0.12500 1.00000
v 1.00000 -0.12500 1.00000
v 1.00000 -0.12500 0.00000
v 0.00000 -0.12500 0.00000
v 0.00000 -0.12500 1.00000
vt 1.00000 0.00000
vt 0.00000 1.00000
vt 1.00000 1.00000
vt 1.00000 0.00000
vt 0.00000 0.00000
vt 0.00000 1.00000
vn 0.0000 1.0000 0.0000
vn 0.0000 1.0000 0.0000
vn 0.0000 1.0000 0.0000
vn 0.0000 1.0000 0.0000
vn 0.0000 1.0000 0.0000
vn 0.0000 1.0000 0.0000
g wooden_floor_v5_0
usemtl floor03
f 1/1/1 2/2/2 3/3/3
f 4/4/4 5/5/5 6/6/6
