# jump_s
# generated by tools/assets/build-tiles.js — do not edit
mtllib jump_s.mtl
o jump_s
v 0.00000 0.00000 1.12500
v 1.00000 0.25000 0.62500
v 0.00000 0.25000 0.62500
v 0.00000 0.00000 1.12500
v 1.00000 0.00000 1.12500
v 1.00000 0.25000 0.62500
v 0.00000 0.25000 0.62500
v 1.00000 0.00000 0.50000
v 0.00000 0.00000 0.50000
v 0.00000 0.25000 0.62500
v 1.00000 0.25000 0.62500
v 1.00000 0.00000 0.50000
vt -2.00000 0.00000
vt -1.00000 -0.50000
vt -2.00000 -0.50000
vt -2.00000 0.00000
vt -1.00000 0.00000
vt -1.00000 -0.50000
vt -2.00000 -0.50000
vt -1.00000 -1.00000
vt -2.00000 -1.00000
vt -2.00000 -0.50000
vt -1.00000 -0.50000
vt -1.00000 -1.00000
vn 0.0000 0.9285 0.3714
vn 0.0433 0.9478 -0.3159
vn 0.0000 0.9340 -0.3573
vn 0.0000 0.9285 0.3714
vn 0.0000 0.9285 0.3714
vn 0.0433 0.9478 -0.3159
vn 0.0000 0.9340 -0.3573
vn 0.0000 0.4472 -0.8944
vn 0.0000 0.4472 -0.8944
vn 0.0000 0.9340 -0.3573
vn 0.0433 0.9478 -0.3159
vn 0.0000 0.4472 -0.8944
g jump_s_0
usemtl dansa01a
f 1/1/1 2/2/2 3/3/3
f 4/4/4 5/5/5 6/6/6
f 7/7/7 8/8/8 9/9/9
f 10/10/10 11/11/11 12/12/12
