# Blender 5.2.1 LTS
# www.blender.org
mtllib rock_small.mtl
o sylvan-town__rock_small
v 0.821429 0.500000 0.000000
v 0.727284 0.727284 0.000000
v 0.500000 0.821429 0.000000
v 0.272716 0.727284 0.000000
v 0.178571 0.500000 0.000000
v 0.272716 0.272716 0.000000
v 0.500000 0.178571 0.000000
v 0.727284 0.272716 0.000000
v 1.000000 0.500000 0.128807
v 0.853553 0.853553 0.128807
v 0.500000 1.000000 0.128807
v 0.146447 0.853553 0.128807
v 0.000000 0.500000 0.128807
v 0.146447 0.146447 0.128807
v 0.500000 0.000000 0.128807
v 0.853553 0.146447 0.128807
v 1.000000 0.500000 0.257614
v 0.853553 0.853553 0.257614
v 0.500000 1.000000 0.257614
v 0.146447 0.853553 0.257614
v 0.000000 0.500000 0.257614
v 0.146447 0.146447 0.257614
v 0.500000 0.000000 0.257614
v 0.853553 0.146447 0.257614
v 0.928571 0.500000 0.386422
v 0.803046 0.803046 0.386422
v 0.500000 0.928571 0.386422
v 0.196954 0.803046 0.386422
v 0.071429 0.500000 0.386422
v 0.196954 0.196954 0.386422
v 0.500000 0.071429 0.386422
v 0.803046 0.196954 0.386422
v 0.785714 0.500000 0.515229
v 0.702031 0.702031 0.515229
v 0.500000 0.785714 0.515229
v 0.297969 0.702031 0.515229
v 0.214286 0.500000 0.515229
v 0.297969 0.297969 0.515229
v 0.500000 0.214286 0.515229
v 0.702031 0.297969 0.515229
vn 0.5686 0.2355 -0.7882
vn 0.2355 0.5686 -0.7882
vn -0.2355 0.5686 -0.7882
vn -0.5686 0.2355 -0.7882
vn -0.5686 -0.2355 -0.7882
vn -0.2355 -0.5686 -0.7882
vn 0.2355 -0.5686 -0.7882
vn 0.5686 -0.2355 -0.7882
vn 0.9239 0.3827 -0.0000
vn 0.3827 0.9239 -0.0000
vn -0.3827 0.9239 -0.0000
vn -0.9239 0.3827 -0.0000
vn -0.9239 -0.3827 -0.0000
vn -0.3827 -0.9239 -0.0000
vn 0.3827 -0.9239 -0.0000
vn 0.9239 -0.3827 -0.0000
vn 0.8222 0.3406 0.4560
vn 0.3406 0.8222 0.4560
vn -0.3406 0.8222 0.4560
vn -0.8222 0.3406 0.4560
vn -0.8222 -0.3406 0.4560
vn -0.3406 -0.8222 0.4560
vn 0.3406 -0.8222 0.4560
vn 0.8222 -0.3406 0.4560
vn 0.6453 0.2673 0.7157
vn 0.2673 0.6453 0.7157
vn -0.2673 0.6453 0.7157
vn -0.6453 0.2673 0.7157
vn -0.6453 -0.2673 0.7157
vn -0.2673 -0.6453 0.7157
vn 0.2673 -0.6453 0.7157
vn 0.6453 -0.2673 0.7157
vn -0.0000 -0.0000 -1.0000
vn -0.0000 -0.0000 1.0000
vt 0.545740 0.272811
vt 0.492399 0.332073
vt 0.492399 0.272811
vt 0.599082 0.272811
vt 0.545740 0.332073
vt 0.652423 0.272811
vt 0.599082 0.332073
vt 0.705764 0.272811
vt 0.652423 0.332073
vt 0.705764 0.332073
vt 0.492399 0.391335
vt 0.545740 0.391335
vt 0.599082 0.391335
vt 0.652423 0.391335
vt 0.705764 0.391335
vt 0.545740 0.450598
vt 0.492399 0.450598
vt 0.652423 0.450598
vt 0.599082 0.450598
vt 0.705764 0.450598
vt 0.492399 0.509860
vt 0.599082 0.509860
vt 0.545740 0.509860
vt 0.705764 0.509860
vt 0.652423 0.509860
vt 0.575764 0.298886
vt 0.599082 0.306506
vt 0.622399 0.298886
vt 0.584426 0.449233
vt 0.584426 0.437739
vt 0.613738 0.437739
vt 0.615570 0.293499
vt 0.599082 0.291267
vt 0.582594 0.293499
vt 0.582594 0.304274
vt 0.615570 0.304274
vt 0.619808 0.443486
vt 0.613738 0.449233
vt 0.599082 0.451613
vt 0.578355 0.443486
vt 0.599082 0.435359
s 0
usemtl Decoration.042
f 2/1/1 9/2/1 1/3/1
f 3/4/2 10/5/2 2/1/2
f 4/6/3 11/7/3 3/4/3
f 5/8/4 12/9/4 4/6/4
f 6/6/5 13/10/5 5/8/5
f 7/4/6 14/9/6 6/6/6
f 8/1/7 15/7/7 7/4/7
f 8/1/8 9/2/8 16/5/8
f 10/5/9 17/11/9 9/2/9
f 11/7/10 18/12/10 10/5/10
f 12/9/11 19/13/11 11/7/11
f 13/10/12 20/14/12 12/9/12
f 14/9/13 21/15/13 13/10/13
f 15/7/14 22/14/14 14/9/14
f 16/5/15 23/13/15 15/7/15
f 9/2/16 24/12/16 16/5/16
f 17/11/17 26/16/17 25/17/17
f 19/13/18 26/16/18 18/12/18
f 19/13/19 28/18/19 27/19/19
f 21/15/20 28/18/20 20/14/20
f 22/14/21 29/20/21 21/15/21
f 23/13/22 30/18/22 22/14/22
f 24/12/23 31/19/23 23/13/23
f 17/11/24 32/16/24 24/12/24
f 26/16/25 33/21/25 25/17/25
f 26/16/26 35/22/26 34/23/26
f 28/18/27 35/22/27 27/19/27
f 28/18/28 37/24/28 36/25/28
f 30/18/29 37/24/29 29/20/29
f 31/19/30 38/25/30 30/18/30
f 32/16/31 39/22/31 31/19/31
f 25/17/32 40/23/32 32/16/32
f 5/26/33 3/27/33 1/28/33
f 36/29/34 38/30/34 40/31/34
f 2/1/1 10/5/1 9/2/1
f 3/4/2 11/7/2 10/5/2
f 4/6/3 12/9/3 11/7/3
f 5/8/4 13/10/4 12/9/4
f 6/6/5 14/9/5 13/10/5
f 7/4/6 15/7/6 14/9/6
f 8/1/7 16/5/7 15/7/7
f 8/1/8 1/3/8 9/2/8
f 10/5/9 18/12/9 17/11/9
f 11/7/10 19/13/10 18/12/10
f 12/9/11 20/14/11 19/13/11
f 13/10/12 21/15/12 20/14/12
f 14/9/13 22/14/13 21/15/13
f 15/7/14 23/13/14 22/14/14
f 16/5/15 24/12/15 23/13/15
f 9/2/16 17/11/16 24/12/16
f 17/11/17 18/12/17 26/16/17
f 19/13/18 27/19/18 26/16/18
f 19/13/19 20/14/19 28/18/19
f 21/15/20 29/20/20 28/18/20
f 22/14/21 30/18/21 29/20/21
f 23/13/22 31/19/22 30/18/22
f 24/12/23 32/16/23 31/19/23
f 17/11/24 25/17/24 32/16/24
f 26/16/25 34/23/25 33/21/25
f 26/16/26 27/19/26 35/22/26
f 28/18/27 36/25/27 35/22/27
f 28/18/28 29/20/28 37/24/28
f 30/18/29 38/25/29 37/24/29
f 31/19/30 39/22/30 38/25/30
f 32/16/31 40/23/31 39/22/31
f 25/17/32 33/21/32 40/23/32
f 1/28/33 8/32/33 7/33/33
f 7/33/33 6/34/33 5/26/33
f 5/26/33 4/35/33 3/27/33
f 3/27/33 2/36/33 1/28/33
f 1/28/33 7/33/33 5/26/33
f 40/31/34 33/37/34 34/38/34
f 34/38/34 35/39/34 36/29/34
f 36/29/34 37/40/34 38/30/34
f 38/30/34 39/41/34 40/31/34
f 40/31/34 34/38/34 36/29/34
