# water_sand_center_v2
# generated by tools/assets/build-tiles.js — do not edit
mtllib water_sand_center_v2.mtl
o water_sand_center_v2
v 2.12500 -0.18750 0.00000
v 2.87500 0.06250 2.87500
v 2.87500 0.06250 0.00000
v 2.12500 -0.18750 0.00000
v 2.12500 -0.18750 2.12500
v 2.87500 0.06250 2.87500
v 1.25000 -0.43750 0.00000
v 2.12500 -0.18750 2.12500
v 2.12500 -0.18750 0.00000
v 1.25000 -0.43750 0.00000
v 1.25000 -0.43750 1.25000
v 2.12500 -0.18750 2.12500
v 2.12500 -0.18750 2.12500
v 0.00000 -0.43750 1.25000
v 0.00000 -0.18750 2.12500
v 2.12500 -0.18750 2.12500
v 1.25000 -0.43750 1.25000
v 0.00000 -0.43750 1.25000
v 0.00000 0.06250 2.87500
v 2.12500 -0.18750 2.12500
v 0.00000 -0.18750 2.12500
v 0.00000 0.06250 2.87500
v 2.87500 0.06250 2.87500
v 2.12500 -0.18750 2.12500
vt 3.00000 -0.12500
vt 1.00000 0.00000
vt 3.00000 0.00000
vt 3.00000 -0.12500
vt 1.00000 -0.12500
vt 1.00000 0.00000
vt 3.00000 -0.34375
vt 1.00000 -0.12500
vt 3.00000 -0.12500
vt 3.00000 -0.34375
vt 1.00000 -0.34375
vt 1.00000 -0.12500
vt 3.00000 -0.12500
vt 1.00000 -0.34375
vt 1.00000 -0.12500
vt 3.00000 -0.12500
vt 3.00000 -0.34375
vt 1.00000 -0.34375
vt 1.00000 0.00000
vt 3.00000 -0.12500
vt 1.00000 -0.12500
vt 1.00000 0.00000
vt 3.00000 0.00000
vt 3.00000 -0.12500
vn -0.0004 1.0000 0.0000
vn 0.0000 1.0000 0.0000
vn 0.0000 1.0000 0.0000
vn -0.0004 1.0000 0.0000
vn 0.0001 1.0000 0.0000
vn 0.0000 1.0000 0.0000
vn 0.0000 1.0000 0.0000
vn 0.0001 1.0000 0.0000
vn -0.0004 1.0000 0.0000
vn 0.0000 1.0000 0.0000
vn 0.0000 1.0000 0.0000
vn 0.0001 1.0000 0.0000
vn 0.0000 1.0000 -0.0003
vn 0.0000 1.0000 0.0000
vn -0.0001 1.0000 -0.0001
vn 0.0000 1.0000 -0.0003
vn 0.0000 1.0000 0.0000
vn 0.0000 1.0000 0.0000
vn 0.0000 1.0000 0.0000
vn 0.0000 1.0000 -0.0003
vn -0.0001 1.0000 -0.0001
vn 0.0000 1.0000 0.0000
vn 0.0000 1.0000 0.0000
vn 0.0000 1.0000 -0.0003
g water_sand_center_v2_0
usemtl sea_zanami
f 1/1/1 2/2/2 3/3/3
f 4/4/4 5/5/5 6/6/6
f 7/7/7 8/8/8 9/9/9
f 10/10/10 11/11/11 12/12/12
f 13/13/13 14/14/14 15/15/15
f 16/16/16 17/17/17 18/18/18
f 19/19/19 20/20/20 21/21/21
f 22/22/22 23/23/23 24/24/24
v 2.00000 -0.50000 2.00000
v 1.25000 -0.56250 0.00000
v 1.25000 -0.56250 1.25000
v 2.00000 -0.50000 2.00000
v 2.00000 -0.50000 0.00000
v 1.25000 -0.56250 0.00000
v 1.25000 -0.56250 1.25000
v 0.00000 -0.50000 2.00000
v 2.00000 -0.50000 2.00000
v 1.25000 -0.56250 1.25000
v 0.00000 -0.56250 1.25000
v 0.00000 -0.50000 2.00000
v 3.00000 0.00000 3.00000
v 2.00000 -0.50000 0.00000
v 2.00000 -0.50000 2.00000
v 3.00000 0.00000 3.00000
v 3.00000 0.00000 0.00000
v 2.00000 -0.50000 0.00000
v 0.00000 -0.50000 2.00000
v 3.00000 0.00000 3.00000
v 2.00000 -0.50000 2.00000
v 0.00000 -0.50000 2.00000
v 0.00000 -0.00000 3.00000
v 3.00000 0.00000 3.00000
vt -1.00000 -1.00000
vt 1.00000 -1.00000
vt -1.00000 -1.00000
vt -1.00000 -1.00000
vt 1.00000 -1.00000
vt 1.00000 -1.00000
vt 1.00000 -1.00000
vt -1.00000 -1.00000
vt 1.00000 -1.00000
vt 1.00000 -1.00000
vt -1.00000 -1.00000
vt -1.00000 -1.00000
vt -1.00000 0.00000
vt 1.00000 -1.00000
vt -1.00000 -1.00000
vt -1.00000 0.00000
vt 1.00000 0.00000
vt 1.00000 -1.00000
vt -1.00000 -1.00000
vt 1.00000 0.00000
vt 1.00000 -1.00000
vt -1.00000 -1.00000
vt -1.00000 0.00000
vt 1.00000 0.00000
vn 0.0005 1.0000 0.0000
vn -0.0840 0.9965 0.0000
vn 0.0000 1.0000 0.0000
vn 0.0005 1.0000 0.0000
vn -0.0029 1.0000 0.0000
vn -0.0840 0.9965 0.0000
vn 0.0000 1.0000 0.0000
vn -0.0001 1.0000 -0.0014
vn 0.0000 1.0000 -0.0027
vn 0.0000 1.0000 0.0000
vn 0.0000 0.9965 -0.0840
vn -0.0001 1.0000 -0.0014
vn 0.0000 1.0000 0.0000
vn -0.0029 1.0000 0.0000
vn 0.0005 1.0000 0.0000
vn 0.0000 1.0000 0.0000
vn 0.0000 1.0000 0.0000
vn -0.0029 1.0000 0.0000
vn -0.0001 1.0000 -0.0014
vn 0.0000 1.0000 0.0000
vn 0.0000 1.0000 -0.0027
vn -0.0001 1.0000 -0.0014
vn 0.0000 1.0000 0.0000
vn 0.0000 1.0000 0.0000
g water_sand_center_v2_1
usemtl sea_simi_1
f 25/25/25 26/26/26 27/27/27
f 28/28/28 29/29/29 30/30/30
f 31/31/31 32/32/32 33/33/33
f 34/34/34 35/35/35 36/36/36
f 37/37/37 38/38/38 39/39/39
f 40/40/40 41/41/41 42/42/42
f 43/43/43 44/44/44 45/45/45
f 46/46/46 47/47/47 48/48/48
v 0.00000 -0.43750 0.00000
v 1.25000 -0.43750 1.25000
v 1.25000 -0.43750 0.00000
v 0.00000 -0.43750 0.00000
v 0.00000 -0.43750 1.25000
v 1.25000 -0.43750 1.25000
vt 0.00000 -1.00000
vt 1.00000 0.00000
vt 0.00000 0.00000
vt 2.00000 -1.00000
vt 2.00000 0.00000
vt 1.00000 0.00000
vn 0.0000 1.0000 0.0000
vn 0.0000 1.0000 0.0000
vn 0.0000 1.0000 0.0000
vn 0.0000 1.0000 0.0000
vn 0.0000 1.0000 0.0000
vn 0.0000 1.0000 0.0000
g water_sand_center_v2_2
usemtl sea_zanami2
f 49/49/49 50/50/50 51/51/51
f 52/52/52 53/53/53 54/54/54
