# river_bottom_rock
# generated by tools/assets/build-tiles.js — do not edit
mtllib river_bottom_rock.mtl
o river_bottom_rock
v 0.99297 -0.81250 1.03848
v -0.00703 -0.81250 0.03848
v -0.00703 -0.81250 1.03848
v 0.99297 -0.81250 1.03848
v 0.99297 -0.81250 0.03848
v -0.00703 -0.81250 0.03848
vt 1.00000 0.00000
vt 0.00000 -1.00000
vt 0.00000 0.00000
vt 1.00000 0.00000
vt 1.00000 -1.00000
vt 0.00000 -1.00000
vn 0.0000 1.0000 0.0000
vn 0.0000 1.0000 0.0000
vn 0.0000 1.0000 0.0000
vn 0.0000 1.0000 0.0000
vn 0.0000 1.0000 0.0000
vn 0.0000 1.0000 0.0000
g river_bottom_rock_0
usemtl kawasoko_isi
f 1/1/1 2/2/2 3/3/3
f 4/4/4 5/5/5 6/6/6
