# river_bottom_rock_small
# generated by tools/assets/build-tiles.js — do not edit
mtllib river_bottom_rock_small.mtl
o river_bottom_rock_small
v 0.69297 -0.81250 0.73848
v 0.29297 -0.81250 0.33848
v 0.29297 -0.81250 0.73848
v 0.69297 -0.81250 0.73848
v 0.69297 -0.81250 0.33848
v 0.29297 -0.81250 0.33848
vt 1.00000 0.00000
vt 0.00000 -1.00000
vt 0.00000 0.00000
vt 1.00000 0.00000
vt 1.00000 -1.00000
vt 0.00000 -1.00000
vn 0.0000 1.0000 0.0000
vn 0.0000 1.0000 0.0000
vn 0.0000 1.0000 0.0000
vn 0.0000 1.0000 0.0000
vn 0.0000 1.0000 0.0000
vn 0.0000 1.0000 0.0000
g river_bottom_rock_small_0
usemtl kawasoko_isi
f 1/1/1 2/2/2 3/3/3
f 4/4/4 5/5/5 6/6/6
