# rock_corner_nw
# generated by tools/assets/build-tiles.js — do not edit
mtllib rock_corner_nw.mtl
o rock_corner_nw
v 0.49883 0.75000 1.00195
v 0.99883 0.75000 0.50195
v 0.24883 0.00000 0.25195
v 0.49883 0.75000 1.00195
v 0.24883 0.00000 0.25195
v -0.00117 0.00000 1.00195
v 0.99883 0.75000 0.50195
v 0.99883 0.00000 0.00195
v 0.24883 0.00000 0.25195
vt 0.00000 0.00000
vt 1.00000 0.00000
vt 0.50000 -1.00000
vt 0.00000 0.00000
vt 0.50000 -1.00000
vt 0.00000 -1.00000
vt 1.00000 0.00000
vt 1.00000 -1.00000
vt 0.50000 -1.00000
vn -0.6947 0.7186 -0.0309
vn -0.0280 0.6886 -0.7246
vn -0.5609 0.6090 -0.5609
vn -0.6947 0.7186 -0.0309
vn -0.5609 0.6090 -0.5609
vn -0.8515 0.5233 -0.0338
vn -0.0280 0.6886 -0.7246
vn 0.0025 0.5364 -0.8440
vn -0.5609 0.6090 -0.5609
g rock_corner_nw_0
usemtl gake01
f 1/1/1 2/2/2 3/3/3
f 4/4/4 5/5/5 6/6/6
f 7/7/7 8/8/8 9/9/9
v 0.99883 1.00000 1.00195
v 0.99883 0.75000 0.50195
v 0.49883 0.75000 1.00195
vt 0.50058 -0.00008
vt 1.00000 -0.99992
vt 0.00000 -0.99992
vn -0.0062 0.9999 -0.0149
vn -0.0280 0.6886 -0.7246
vn -0.6947 0.7186 -0.0309
g rock_corner_nw_1
usemtl gake1_1
f 10/10/10 11/11/11 12/12/12
