# rock_edge_n_v3
# generated by tools/assets/build-tiles.js — do not edit
mtllib rock_edge_n_v3.mtl
o rock_edge_n_v3
v 0.00000 0.75000 0.50000
v 1.00000 0.00000 0.00000
v 0.00000 0.00000 0.00000
v 0.00000 0.75000 0.50000
v 1.00000 0.75000 0.50000
v 1.00000 0.00000 0.00000
vt 0.00000 0.00000
vt 1.00000 -1.00000
vt 0.00000 -1.00000
vt 0.00000 0.00000
vt 1.00000 0.00000
vt 1.00000 -1.00000
vn 0.0000 0.7071 -0.7071
vn 0.0000 0.5547 -0.8321
vn 0.0000 0.5547 -0.8321
vn 0.0000 0.7071 -0.7071
vn 0.0000 0.7071 -0.7071
vn 0.0000 0.5547 -0.8321
g rock_edge_n_v3_0
usemtl gake01
f 1/1/1 2/2/2 3/3/3
f 4/4/4 5/5/5 6/6/6
v 0.00000 1.00000 1.00000
v 1.00000 0.75000 0.50000
v 0.00000 0.75000 0.50000
v 0.00000 1.00000 1.00000
v 1.00000 1.00000 1.00000
v 1.00000 0.75000 0.50000
vt 0.00000 -0.00006
vt 1.00005 -1.00000
vt 0.00000 -1.00000
vt 0.00000 -0.00006
vt 1.00000 -0.00006
vt 1.00005 -1.00000
vn 0.0000 0.9991 -0.0434
vn 0.0000 0.7071 -0.7071
vn 0.0000 0.7071 -0.7071
vn 0.0000 0.9991 -0.0434
vn 0.0000 0.9991 -0.0434
vn 0.0000 0.7071 -0.7071
g rock_edge_n_v3_1
usemtl gake1_3
f 7/7/7 8/8/8 9/9/9
f 10/10/10 11/11/11 12/12/12
