# rock_tall_corner_ne
# generated by tools/assets/build-tiles.js — do not edit
mtllib rock_tall_corner_ne.mtl
o rock_tall_corner_ne
v 0.00000 0.75000 0.50000
v 0.50000 0.75000 1.00000
v 0.75000 0.00000 0.25000
v 0.00000 0.75000 0.50000
v 0.75000 0.00000 0.25000
v 0.00000 0.00000 0.00000
v 0.50000 0.75000 1.00000
v 1.00000 0.00000 1.00000
v 0.75000 0.00000 0.25000
vt 0.00000 0.00000
vt 1.00000 0.00000
vt 0.50000 -1.00000
vt 0.00000 0.00000
vt 0.50000 -1.00000
vt 0.00000 -1.00000
vt 1.00000 0.00000
vt 1.00000 -1.00000
vt 0.50000 -1.00000
vn 0.0355 0.1406 -0.9894
vn 0.9832 0.1648 -0.0781
vn 0.5609 0.6090 -0.5609
vn 0.0355 0.1406 -0.9894
vn 0.5609 0.6090 -0.5609
vn 0.0198 0.5267 -0.8498
vn 0.9832 0.1648 -0.0781
vn 0.7882 0.6129 -0.0560
vn 0.5609 0.6090 -0.5609
g rock_tall_corner_ne_0
usemtl gake01
f 1/1/1 2/2/2 3/3/3
f 4/4/4 5/5/5 6/6/6
f 7/7/7 8/8/8 9/9/9
v 0.00000 5.00000 1.00000
v 0.50000 4.75000 1.00000
v 0.00000 4.75000 0.50000
vt 0.50058 -0.00008
vt 1.00000 -0.99992
vt 0.00000 -0.99992
vn -0.0314 0.9992 0.0237
vn 0.7069 0.0245 -0.7069
vn 0.7069 0.0245 -0.7069
g rock_tall_corner_ne_1
usemtl gake1_1
f 10/10/10 11/11/11 12/12/12
v 0.00000 0.75000 0.50000
v 0.50000 4.75000 1.00000
v 0.50000 0.75000 1.00000
v 0.00000 0.75000 0.50000
v 0.00000 4.75000 0.50000
v 0.50000 4.75000 1.00000
vt 0.00000 0.00199
vt 1.00000 0.99801
vt 1.00000 0.00199
vt 0.00000 0.00199
vt 0.00000 0.99801
vt 1.00000 0.99801
vn 0.0355 0.1406 -0.9894
vn 0.7069 0.0245 -0.7069
vn 0.9832 0.1648 -0.0781
vn 0.0355 0.1406 -0.9894
vn 0.7069 0.0245 -0.7069
vn 0.7069 0.0245 -0.7069
g rock_tall_corner_ne_2
usemtl yamagake01
f 13/13/13 14/14/14 15/15/15
f 16/16/16 17/17/17 18/18/18
