# rock_inner_ne_v2
# generated by tools/assets/build-tiles.js — do not edit
mtllib rock_inner_ne_v2.mtl
o rock_inner_ne_v2
v -0.00195 0.75000 0.49844
v 0.99805 0.00000 -0.00156
v -0.00195 0.00000 -0.00156
v -0.00195 0.75000 0.49844
v 0.99805 0.75000 0.49844
v 0.99805 0.00000 -0.00156
v 0.49805 0.75000 -0.00156
v 0.99805 0.00000 0.99844
v 0.99805 0.00000 -0.00156
v 0.49805 0.75000 -0.00156
v 0.49805 0.75000 0.99844
v 0.99805 0.00000 0.99844
vt 0.00000 0.00000
vt 1.00000 -1.00000
vt 0.00000 -1.00000
vt 0.00000 0.00000
vt 1.00000 0.00000
vt 1.00000 -1.00000
vt 0.00000 0.00000
vt 1.00000 -1.00000
vt 0.00000 -1.00000
vt 0.00000 0.00000
vt 1.00000 0.00000
vt 1.00000 -1.00000
vn 0.0000 0.9998 0.0189
vn 0.0000 0.5547 -0.8321
vn 0.0000 0.9998 0.0188
vn 0.0000 0.9998 0.0189
vn 0.0000 0.7071 -0.7071
vn 0.0000 0.5547 -0.8321
vn 0.0000 0.7071 -0.7071
vn 0.7071 0.7071 0.0000
vn 0.0000 0.5547 -0.8321
vn 0.0000 0.7071 -0.7071
vn -0.0188 0.9827 -0.1841
vn 0.7071 0.7071 0.0000
g rock_inner_ne_v2_0
usemtl gake01
f 1/1/1 2/2/2 3/3/3
f 4/4/4 5/5/5 6/6/6
f 7/7/7 8/8/8 9/9/9
f 10/10/10 11/11/11 12/12/12
v -0.00195 1.00000 0.99844
v 0.99805 0.75000 0.49844
v -0.00195 0.75000 0.49844
v -0.00195 1.00000 0.99844
v 0.99805 1.00000 0.99844
v 0.99805 0.75000 0.49844
v -0.00195 1.00000 -0.00156
v 0.49805 0.75000 0.99844
v 0.49805 0.75000 -0.00156
v -0.00195 1.00000 -0.00156
v -0.00195 1.00000 0.99844
v 0.49805 0.75000 0.99844
vt 0.00005 0.00000
vt 1.00005 -0.99998
vt 0.00005 -0.99998
vt 0.00005 0.00000
vt 1.00000 0.00000
vt 1.00005 -0.99998
vt 0.00005 0.00000
vt 1.00005 -0.99998
vt 0.00005 -0.99998
vt 0.00005 0.00000
vt 1.00000 0.00000
vt 1.00005 -0.99998
vn -0.0187 0.9827 -0.1841
vn 0.0000 0.7071 -0.7071
vn 0.0000 0.9998 0.0189
vn -0.0187 0.9827 -0.1841
vn -0.0187 0.9827 -0.1841
vn 0.0000 0.7071 -0.7071
vn 0.0000 0.5547 -0.8321
vn -0.0188 0.9827 -0.1841
vn 0.0000 0.7071 -0.7071
vn 0.0000 0.5547 -0.8321
vn -0.0187 0.9827 -0.1841
vn -0.0188 0.9827 -0.1841
g rock_inner_ne_v2_1
usemtl gake1_0
f 13/13/13 14/14/14 15/15/15
f 16/16/16 17/17/17 18/18/18
f 19/19/19 20/20/20 21/21/21
f 22/22/22 23/23/23 24/24/24
