# rock_tall_edge_e_v3
# generated by tools/assets/build-tiles.js — do not edit
mtllib rock_tall_edge_e_v3.mtl
o rock_tall_edge_e_v3
v 0.50000 0.75000 0.00000
v 1.00000 0.00000 1.00000
v 1.00000 0.00000 0.00000
v 0.50000 0.75000 0.00000
v 0.50000 0.75000 1.00000
v 1.00000 0.00000 1.00000
vt 0.00000 0.00000
vt 1.00000 -1.00000
vt 0.00000 -1.00000
vt 0.00000 0.00000
vt 1.00000 0.00000
vt 1.00000 -1.00000
vn 0.9945 0.1047 0.0000
vn 0.8321 0.5547 0.0000
vn 0.8321 0.5547 0.0000
vn 0.9945 0.1047 0.0000
vn 0.9945 0.1047 0.0000
vn 0.8321 0.5547 0.0000
g rock_tall_edge_e_v3_0
usemtl gake01
f 1/1/1 2/2/2 3/3/3
f 4/4/4 5/5/5 6/6/6
v 0.00000 5.00000 0.00000
v 0.50000 4.75000 1.00000
v 0.50000 4.75000 0.00000
v 0.00000 5.00000 0.00000
v 0.00000 5.00000 1.00000
v 0.50000 4.75000 1.00000
vt 0.00005 0.00002
vt 1.00005 -0.99998
vt 0.00005 -0.99998
vt 0.00005 0.00002
vt 1.00000 -0.00014
vt 1.00005 -0.99998
vn -0.0314 0.9992 0.0237
vn 0.9932 0.1168 0.0000
vn 0.9932 0.1168 0.0000
vn -0.0314 0.9992 0.0237
vn -0.0314 0.9992 0.0237
vn 0.9932 0.1168 0.0000
g rock_tall_edge_e_v3_1
usemtl gake1_3
f 7/7/7 8/8/8 9/9/9
f 10/10/10 11/11/11 12/12/12
v 0.50000 0.75000 0.00000
v 0.50000 4.75000 1.00000
v 0.50000 0.75000 1.00000
v 0.50000 0.75000 0.00000
v 0.50000 4.75000 0.00000
v 0.50000 4.75000 1.00000
vt 0.00000 0.00199
vt 1.00000 0.99801
vt 1.00000 0.00199
vt 0.00000 0.00199
vt 0.00000 0.99801
vt 1.00000 0.99801
vn 0.9945 0.1047 0.0000
vn 0.9932 0.1168 0.0000
vn 0.9945 0.1047 0.0000
vn 0.9945 0.1047 0.0000
vn 0.9932 0.1168 0.0000
vn 0.9932 0.1168 0.0000
g rock_tall_edge_e_v3_2
usemtl yamagake01
f 13/13/13 14/14/14 15/15/15
f 16/16/16 17/17/17 18/18/18
