# rock_tall_inner_ne_v2
# generated by tools/assets/build-tiles.js — do not edit
mtllib rock_tall_inner_ne_v2.mtl
o rock_tall_inner_ne_v2
v 0.00000 0.75000 0.50000
v 1.00000 0.00000 0.00000
v 0.00000 0.00000 0.00000
v 0.00000 0.75000 0.50000
v 1.00000 0.75000 0.50000
v 1.00000 0.00000 0.00000
v 0.50000 0.75000 0.00000
v 1.00000 0.00000 1.00000
v 1.00000 0.00000 0.00000
v 0.50000 0.75000 0.00000
v 0.50000 0.75000 1.00000
v 1.00000 0.00000 1.00000
vt 0.00000 0.00000
vt 1.00000 -1.00000
vt 0.00000 -1.00000
vt 0.00000 0.00000
vt 1.00000 0.00000
vt 1.00000 -1.00000
vt 0.00000 0.00000
vt 1.00000 -1.00000
vt 0.00000 -1.00000
vt 0.00000 0.00000
vt 1.00000 0.00000
vt 1.00000 -1.00000
vn 0.0000 0.2898 -0.9571
vn 0.5145 0.6860 -0.5145
vn 0.0000 0.5547 -0.8321
vn 0.0000 0.2898 -0.9571
vn 0.0000 0.2898 -0.9571
vn 0.5145 0.6860 -0.5145
vn 0.9571 0.2898 0.0000
vn 0.8321 0.5547 0.0000
vn 0.5145 0.6860 -0.5145
vn 0.9571 0.2898 0.0000
vn 0.9571 0.2898 0.0000
vn 0.8321 0.5547 0.0000
g rock_tall_inner_ne_v2_0
usemtl gake01
f 1/1/1 2/2/2 3/3/3
f 4/4/4 5/5/5 6/6/6
f 7/7/7 8/8/8 9/9/9
f 10/10/10 11/11/11 12/12/12
v 0.00000 5.00000 1.00000
v 1.00000 4.75000 0.50000
v 0.00000 4.75000 0.50000
v 0.00000 5.00000 1.00000
v 1.00000 5.00000 1.00000
v 1.00000 4.75000 0.50000
v 0.00000 5.00000 0.00000
v 0.50000 4.75000 1.00000
v 0.50000 4.75000 0.00000
v 0.00000 5.00000 0.00000
v 0.00000 5.00000 1.00000
v 0.50000 4.75000 1.00000
vt 0.00005 0.00002
vt 1.00005 -0.99998
vt 0.00005 -0.99998
vt 0.00005 0.00002
vt 1.00000 -0.00014
vt 1.00005 -0.99998
vt 0.00005 0.00002
vt 1.00005 -0.99998
vt 0.00005 -0.99998
vt 0.00005 0.00002
vt 1.00000 -0.00014
vt 1.00005 -0.99998
vn 0.2357 0.9428 -0.2357
vn 0.0000 0.5257 -0.8507
vn 0.0000 0.5257 -0.8507
vn 0.2357 0.9428 -0.2357
vn 0.0000 0.8944 -0.4472
vn 0.0000 0.5257 -0.8507
vn 0.4472 0.8944 0.0000
vn 0.8507 0.5257 0.0000
vn 0.8507 0.5257 0.0000
vn 0.4472 0.8944 0.0000
vn 0.2357 0.9428 -0.2357
vn 0.8507 0.5257 0.0000
g rock_tall_inner_ne_v2_1
usemtl gake1_0
f 13/13/13 14/14/14 15/15/15
f 16/16/16 17/17/17 18/18/18
f 19/19/19 20/20/20 21/21/21
f 22/22/22 23/23/23 24/24/24
v 0.00000 0.75000 0.50000
v 1.00000 4.75000 0.50000
v 1.00000 0.75000 0.50000
v 0.00000 0.75000 0.50000
v 0.00000 4.75000 0.50000
v 1.00000 4.75000 0.50000
v 0.50000 0.75000 0.00000
v 0.50000 4.75000 1.00000
v 0.50000 0.75000 1.00000
v 0.50000 0.75000 0.00000
v 0.50000 4.75000 0.00000
v 0.50000 4.75000 1.00000
vt 0.00134 0.00199
vt 1.00034 0.99801
vt 1.00034 0.00199
vt 0.00134 0.00199
vt 0.00134 0.99801
vt 1.00034 0.99801
vt 0.00000 0.00199
vt 1.00000 0.99801
vt 1.00000 0.00199
vt 0.00000 0.00199
vt 0.00000 0.99801
vt 1.00000 0.99801
vn 0.0000 0.2898 -0.9571
vn 0.0000 0.5257 -0.8507
vn 0.0000 0.2898 -0.9571
vn 0.0000 0.2898 -0.9571
vn 0.0000 0.5257 -0.8507
vn 0.0000 0.5257 -0.8507
vn 0.9571 0.2898 0.0000
vn 0.8507 0.5257 0.0000
vn 0.9571 0.2898 0.0000
vn 0.9571 0.2898 0.0000
vn 0.8507 0.5257 0.0000
vn 0.8507 0.5257 0.0000
g rock_tall_inner_ne_v2_2
usemtl yamagake01
f 25/25/25 26/26/26 27/27/27
f 28/28/28 29/29/29 30/30/30
f 31/31/31 32/32/32 33/33/33
f 34/34/34 35/35/35 36/36/36
