# Blender 5.2.1 LTS
# www.blender.org
mtllib rock.mtl
o hgss-overworld__rock
v 1.566667 1.000000 0.000000
v 1.400694 1.400694 0.000000
v 1.000000 1.566667 0.000000
v 0.599306 1.400694 0.000000
v 0.433333 1.000000 0.000000
v 0.599306 0.599306 0.000000
v 1.000000 0.433333 0.000000
v 1.400694 0.599306 0.000000
v 2.000000 1.000000 0.207107
v 1.707107 1.707107 0.207107
v 1.000000 2.000000 0.207107
v 0.292893 1.707107 0.207107
v 0.000000 1.000000 0.207107
v 0.292893 0.292893 0.207107
v 1.000000 0.000000 0.207107
v 1.707107 0.292893 0.207107
v 1.866667 1.000000 0.414214
v 1.612826 1.612826 0.414214
v 1.000000 1.866667 0.414214
v 0.387174 1.612826 0.414214
v 0.133333 1.000000 0.414214
v 0.387174 0.387174 0.414214
v 1.000000 0.133333 0.414214
v 1.612826 0.387174 0.414214
v 1.666667 1.000000 0.621320
v 1.471405 1.471405 0.621320
v 1.000000 1.666667 0.621320
v 0.528595 1.471405 0.621320
v 0.333333 1.000000 0.621320
v 0.528595 0.528595 0.621320
v 1.000000 0.333333 0.621320
v 1.471405 0.528595 0.621320
v 1.060000 1.000000 0.828427
v 1.042426 1.042426 0.828427
v 1.000000 1.060000 0.828427
v 0.957574 1.042426 0.828427
v 0.940000 1.000000 0.828427
v 0.957574 0.957574 0.828427
v 1.000000 0.940000 0.828427
v 1.042426 0.957574 0.828427
vn 0.4245 0.1758 -0.8882
vn 0.1758 0.4245 -0.8882
vn -0.1758 0.4245 -0.8882
vn -0.4245 0.1758 -0.8882
vn -0.4245 -0.1758 -0.8882
vn -0.1758 -0.4245 -0.8882
vn 0.1758 -0.4245 -0.8882
vn 0.4245 -0.1758 -0.8882
vn 0.7940 0.3289 0.5112
vn 0.3289 0.7940 0.5112
vn -0.3289 0.7940 0.5112
vn -0.7940 0.3289 0.5112
vn -0.7940 -0.3289 0.5112
vn -0.3289 -0.7940 0.5112
vn 0.3289 -0.7940 0.5112
vn 0.7940 -0.3289 0.5112
vn 0.6894 0.2856 0.6657
vn 0.2856 0.6894 0.6657
vn -0.2856 0.6894 0.6657
vn -0.6894 0.2856 0.6657
vn -0.6894 -0.2856 0.6657
vn -0.2856 -0.6894 0.6657
vn 0.2856 -0.6894 0.6657
vn 0.6894 -0.2856 0.6657
vn 0.3202 0.1326 0.9380
vn 0.1326 0.3202 0.9380
vn -0.1326 0.3202 0.9380
vn -0.3202 0.1326 0.9380
vn -0.3202 -0.1326 0.9380
vn -0.1326 -0.3202 0.9380
vn 0.1326 -0.3202 0.9380
vn 0.3202 -0.1326 0.9380
vn -0.0000 -0.0000 -1.0000
vn -0.0000 -0.0000 1.0000
vt 0.265625 0.031250
vt 0.031250 0.265625
vt 0.031250 0.031250
vt 0.500000 0.031250
vt 0.265625 0.265625
vt 0.734375 0.031250
vt 0.500000 0.265625
vt 0.968750 0.031250
vt 0.734375 0.265625
vt 0.968750 0.265625
vt 0.031250 0.500000
vt 0.265625 0.500000
vt 0.500000 0.500000
vt 0.734375 0.500000
vt 0.968750 0.500000
vt 0.031250 0.734375
vt 0.500000 0.734375
vt 0.265625 0.734375
vt 0.968750 0.734375
vt 0.734375 0.734375
vt 0.031250 0.968750
vt 0.265625 0.968750
vt 0.500000 0.968750
vt 0.734375 0.968750
vt 0.968750 0.968750
vt 0.409687 0.134375
vt 0.500000 0.160938
vt 0.590312 0.134375
vt 0.493238 0.708636
vt 0.493238 0.703864
vt 0.506762 0.703864
vt 0.563861 0.115592
vt 0.500000 0.107813
vt 0.436139 0.115592
vt 0.436139 0.153158
vt 0.563861 0.153158
vt 0.509562 0.706250
vt 0.506762 0.708636
vt 0.500000 0.709625
vt 0.490438 0.706250
vt 0.500000 0.702875
s 0
usemtl rock01.005
f 2/1/1 9/2/1 1/3/1
f 3/4/2 10/5/2 2/1/2
f 4/6/3 11/7/3 3/4/3
f 5/8/4 12/9/4 4/6/4
f 6/6/5 13/10/5 5/8/5
f 7/4/6 14/9/6 6/6/6
f 8/1/7 15/7/7 7/4/7
f 1/3/8 16/5/8 8/1/8
f 10/5/9 17/11/9 9/2/9
f 11/7/10 18/12/10 10/5/10
f 12/9/11 19/13/11 11/7/11
f 13/10/12 20/14/12 12/9/12
f 14/9/13 21/15/13 13/10/13
f 15/7/14 22/14/14 14/9/14
f 16/5/15 23/13/15 15/7/15
f 9/2/16 24/12/16 16/5/16
f 18/12/17 25/16/17 17/11/17
f 18/12/18 27/17/18 26/18/18
f 20/14/19 27/17/19 19/13/19
f 20/14/20 29/19/20 28/20/20
f 21/15/21 30/20/21 29/19/21
f 23/13/22 30/20/22 22/14/22
f 24/12/23 31/17/23 23/13/23
f 24/12/24 25/16/24 32/18/24
f 26/18/25 33/21/25 25/16/25
f 27/17/26 34/22/26 26/18/26
f 28/20/27 35/23/27 27/17/27
f 29/19/28 36/24/28 28/20/28
f 29/19/29 38/24/29 37/25/29
f 31/17/30 38/24/30 30/20/30
f 32/18/31 39/23/31 31/17/31
f 25/16/32 40/22/32 32/18/32
f 5/26/33 3/27/33 1/28/33
f 36/29/34 38/30/34 40/31/34
f 2/1/1 10/5/1 9/2/1
f 3/4/2 11/7/2 10/5/2
f 4/6/3 12/9/3 11/7/3
f 5/8/4 13/10/4 12/9/4
f 6/6/5 14/9/5 13/10/5
f 7/4/6 15/7/6 14/9/6
f 8/1/7 16/5/7 15/7/7
f 1/3/8 9/2/8 16/5/8
f 10/5/9 18/12/9 17/11/9
f 11/7/10 19/13/10 18/12/10
f 12/9/11 20/14/11 19/13/11
f 13/10/12 21/15/12 20/14/12
f 14/9/13 22/14/13 21/15/13
f 15/7/14 23/13/14 22/14/14
f 16/5/15 24/12/15 23/13/15
f 9/2/16 17/11/16 24/12/16
f 18/12/17 26/18/17 25/16/17
f 18/12/18 19/13/18 27/17/18
f 20/14/19 28/20/19 27/17/19
f 20/14/20 21/15/20 29/19/20
f 21/15/21 22/14/21 30/20/21
f 23/13/22 31/17/22 30/20/22
f 24/12/23 32/18/23 31/17/23
f 24/12/24 17/11/24 25/16/24
f 26/18/25 34/22/25 33/21/25
f 27/17/26 35/23/26 34/22/26
f 28/20/27 36/24/27 35/23/27
f 29/19/28 37/25/28 36/24/28
f 29/19/29 30/20/29 38/24/29
f 31/17/30 39/23/30 38/24/30
f 32/18/31 40/22/31 39/23/31
f 25/16/32 33/21/32 40/22/32
f 1/28/33 8/32/33 7/33/33
f 7/33/33 6/34/33 5/26/33
f 5/26/33 4/35/33 3/27/33
f 3/27/33 2/36/33 1/28/33
f 1/28/33 7/33/33 5/26/33
f 40/31/34 33/37/34 34/38/34
f 34/38/34 35/39/34 36/29/34
f 36/29/34 37/40/34 38/30/34
f 38/30/34 39/41/34 40/31/34
f 40/31/34 34/38/34 36/29/34
