# flower_2
# generated by tools/assets/build-tiles.js — do not edit
mtllib flower_2.mtl
o flower_2
v 1.00000 0.12500 0.00000
v 0.00000 0.12500 1.00000
v 1.00000 0.12500 1.00000
v 1.00000 0.12500 0.00000
v 0.00000 0.12500 0.00000
v 0.00000 0.12500 1.00000
vt 1.00000 -0.50000
vt 0.50000 0.00000
vt 1.00000 0.00000
vt 1.00000 -0.50000
vt 0.50000 -0.50000
vt 0.50000 0.00000
vn 0.0000 1.0000 0.0000
vn 0.0000 1.0000 0.0000
vn 0.0000 1.0000 0.0000
vn 0.0000 1.0000 0.0000
vn 0.0000 1.0000 0.0000
vn 0.0000 1.0000 0.0000
g flower_2_0
usemtl kisetu_hana
f 1/1/1 2/2/2 3/3/3
f 4/4/4 5/5/5 6/6/6
