# grass_patch_half
# generated by tools/assets/build-tiles.js — do not edit
mtllib grass_patch_half.mtl
o grass_patch_half
v 1.00000 0.20000 0.50000
v 0.00000 0.20000 1.50000
v 1.00000 0.20000 1.50000
v 1.00000 0.20000 0.50000
v 0.00000 0.20000 0.50000
v 0.00000 0.20000 1.50000
vt 1.00000 -0.50000
vt -0.00000 0.00000
vt 1.00000 0.00000
vt 1.00000 -0.50000
vt -0.00000 -0.50000
vt -0.00000 0.00000
vn 0.0000 1.0000 0.0000
vn 0.0000 1.0000 0.0000
vn 0.0000 1.0000 0.0000
vn 0.0000 1.0000 0.0000
vn 0.0000 1.0000 0.0000
vn 0.0000 1.0000 0.0000
g grass_patch_half_0
usemtl ue_grass50
f 1/1/1 2/2/2 3/3/3
f 4/4/4 5/5/5 6/6/6
