# hedge4_v2
# generated by tools/assets/build-tiles.js — do not edit
mtllib hedge4_v2.mtl
o hedge4_v2
v 0.93750 0.12500 4.00000
v 0.06250 0.12500 0.00000
v 0.06250 0.12500 4.00000
v 0.93750 0.12500 4.00000
v 0.93750 0.12500 0.00000
v 0.06250 0.12500 0.00000
vt -0.11719 -2.92969
vt -0.88281 -2.07031
vt -0.11719 -2.07031
vt -0.11719 -2.92969
vt -0.88281 -2.92969
vt -0.88281 -2.07031
vn 0.0000 1.0000 0.0000
vn 0.0000 1.0000 0.0000
vn 0.0000 1.0000 0.0000
vn 0.0000 1.0000 0.0000
vn 0.0000 1.0000 0.0000
vn 0.0000 1.0000 0.0000
g hedge4_v2_0
usemtl kage_out
f 1/1/1 2/2/2 3/3/3
f 4/4/4 5/5/5 6/6/6
v 0.75000 0.12500 3.87500
v 0.18750 0.75000 3.87500
v 0.25000 0.12500 3.87500
v 0.75000 0.12500 3.87500
v 0.81250 0.75000 3.87500
v 0.18750 0.75000 3.87500
v 0.18750 0.75000 0.12500
v 0.25000 0.12500 3.87500
v 0.18750 0.75000 3.87500
v 0.18750 0.75000 0.12500
v 0.25000 0.12500 0.12500
v 0.25000 0.12500 3.87500
v 0.75000 0.12500 0.12500
v 0.81250 0.75000 3.87500
v 0.75000 0.12500 3.87500
v 0.75000 0.12500 0.12500
v 0.81250 0.75000 0.12500
v 0.81250 0.75000 3.87500
v 0.25000 0.12500 0.12500
v 0.81250 0.75000 0.12500
v 0.75000 0.12500 0.12500
v 0.25000 0.12500 0.12500
v 0.18750 0.75000 0.12500
v 0.81250 0.75000 0.12500
v 0.00000 0.75000 0.00000
v 0.50000 1.00000 3.87500
v 0.50000 1.00000 0.12500
v 0.00000 0.75000 0.00000
v 0.00000 0.75000 4.00000
v 0.50000 1.00000 3.87500
v 0.50000 1.00000 0.12500
v 1.00000 0.75000 4.00000
v 1.00000 0.75000 0.00000
v 0.50000 1.00000 0.12500
v 0.50000 1.00000 3.87500
v 1.00000 0.75000 4.00000
v 0.00000 0.75000 0.00000
v 0.50000 1.00000 0.12500
v 1.00000 0.75000 0.00000
v 0.50000 1.00000 3.87500
v 0.00000 0.75000 4.00000
v 1.00000 0.75000 4.00000
vt 1.00000 -1.00000
vt 0.65625 0.00000
vt 1.00000 0.00000
vt 1.00000 -1.00000
vt 0.65625 -1.00000
vt 0.65625 0.00000
vt 0.65625 -1.00000
vt 1.00000 -5.00000
vt 0.65625 -5.00000
vt 0.65625 -1.00000
vt 1.00000 -1.00000
vt 1.00000 -5.00000
vt 1.00000 -1.00000
vt 0.65625 -5.00000
vt 1.00000 -5.00000
vt 1.00000 -1.00000
vt 0.65625 -1.00000
vt 0.65625 -5.00000
vt 1.00000 0.00000
vt 0.65625 -1.00000
vt 1.00000 -1.00000
vt 1.00000 0.00000
vt 0.65625 0.00000
vt 0.65625 -1.00000
vt 0.56250 -1.00000
vt 0.28125 -5.00000
vt 0.28125 -1.00000
vt 0.56250 -1.00000
vt 0.56250 -5.00000
vt 0.28125 -5.00000
vt 0.28125 -1.00000
vt 0.00000 -5.00000
vt 0.00000 -1.00000
vt 0.28125 -1.00000
vt 0.28125 -5.00000
vt 0.00000 -5.00000
vt 0.56250 -0.06250
vt 0.46875 -0.50000
vt 0.56250 -0.93750
vt 0.46875 -0.50000
vt 0.56250 -0.93750
vt 0.56250 -0.06250
vn 0.3797 -0.8918 0.2461
vn -0.2629 0.9341 0.2414
vn -0.1989 -0.8887 0.4131
vn 0.3797 -0.8918 0.2461
vn 0.2223 0.9492 0.2225
vn -0.2629 0.9341 0.2414
vn -0.2223 0.9492 -0.2225
vn -0.1989 -0.8887 0.4131
vn -0.2629 0.9341 0.2414
vn -0.2223 0.9492 -0.2225
vn -0.3797 -0.8918 -0.2461
vn -0.1989 -0.8887 0.4131
vn 0.6931 -0.1364 -0.7078
vn 0.2223 0.9492 0.2225
vn 0.3797 -0.8918 0.2461
vn 0.6931 -0.1364 -0.7078
vn 0.5215 0.6641 -0.5358
vn 0.2223 0.9492 0.2225
vn -0.3797 -0.8918 -0.2461
vn 0.5215 0.6641 -0.5358
vn 0.6931 -0.1364 -0.7078
vn -0.3797 -0.8918 -0.2461
vn -0.2223 0.9492 -0.2225
vn 0.5215 0.6641 -0.5358
vn -0.5767 0.4285 -0.6955
vn -0.4593 0.7041 0.5416
vn 0.0000 0.9954 0.0958
vn -0.5767 0.4285 -0.6955
vn -0.7156 0.4118 0.5642
vn -0.4593 0.7041 0.5416
vn 0.0000 0.9954 0.0958
vn 0.5767 0.4285 0.6955
vn 0.7156 0.4118 -0.5642
vn 0.0000 0.9954 0.0958
vn -0.4593 0.7041 0.5416
vn 0.5767 0.4285 0.6955
vn -0.5767 0.4285 -0.6955
vn 0.0000 0.9954 0.0958
vn 0.7156 0.4118 -0.5642
vn -0.4593 0.7041 0.5416
vn -0.7156 0.4118 0.5642
vn 0.5767 0.4285 0.6955
g hedge4_v2_1
usemtl plant01
f 7/7/7 8/8/8 9/9/9
f 10/10/10 11/11/11 12/12/12
f 13/13/13 14/14/14 15/15/15
f 16/16/16 17/17/17 18/18/18
f 19/19/19 20/20/20 21/21/21
f 22/22/22 23/23/23 24/24/24
f 25/25/25 26/26/26 27/27/27
f 28/28/28 29/29/29 30/30/30
f 31/31/31 32/32/32 33/33/33
f 34/34/34 35/35/35 36/36/36
f 37/37/37 38/38/38 39/39/39
f 40/40/40 41/41/41 42/42/42
f 43/43/43 44/44/44 45/45/45
f 46/46/46 47/47/47 48/48/48
