# jump_b_w_v4
# generated by tools/assets/build-tiles.js — do not edit
mtllib jump_b_w_v4.mtl
o jump_b_w_v4
v 1.00000 0.00000 1.12500
v 0.50000 0.25000 0.75000
v 0.00000 0.00000 1.25000
v 1.00000 0.00000 1.12500
v 1.00000 0.25000 0.62500
v 0.50000 0.25000 0.75000
v 0.50000 0.25000 0.75000
v 0.25000 0.00000 0.75000
v 0.00000 0.00000 1.25000
v 0.25000 0.00000 0.75000
v 0.50000 0.25000 0.75000
v 1.00000 0.00000 0.50000
v 1.00000 0.00000 0.50000
v 0.50000 0.25000 0.75000
v 1.00000 0.25000 0.62500
vt -3.00000 0.00000
vt -3.50000 -0.50000
vt -4.00000 -0.25000
vt -3.00000 0.00000
vt -3.00000 -0.50000
vt -3.50000 -0.50000
vt -3.50000 -0.50000
vt -4.00000 -1.00000
vt -4.00000 -0.25000
vt -4.00000 -1.00000
vt -3.50000 -0.50000
vt -3.00000 -1.00000
vt -3.00000 -1.00000
vt -3.50000 -0.50000
vt -3.00000 -0.50000
vn -0.0075 0.9257 0.3781
vn -0.3137 0.9209 -0.2315
vn -0.3752 0.9071 0.1907
vn -0.0075 0.9257 0.3781
vn -0.0164 0.9527 -0.3036
vn -0.3137 0.9209 -0.2315
vn -0.3137 0.9209 -0.2315
vn -0.4359 0.7115 -0.5512
vn -0.3752 0.9071 0.1907
vn -0.4359 0.7115 -0.5512
vn -0.3124 0.9216 -0.2304
vn 0.0000 0.4472 -0.8944
vn 0.0000 0.4472 -0.8944
vn -0.3124 0.9216 -0.2304
vn 0.0000 0.9348 -0.3552
g jump_b_w_v4_0
usemtl dansa01a
f 1/1/1 2/2/2 3/3/3
f 4/4/4 5/5/5 6/6/6
f 7/7/7 8/8/8 9/9/9
f 10/10/10 11/11/11 12/12/12
f 13/13/13 14/14/14 15/15/15
