# beachextcorner_corner_nw
# generated by tools/assets/build-tiles.js — do not edit
mtllib beachextcorner_corner_nw.mtl
o beachextcorner_corner_nw
v 0.00000 0.00000 0.00000
v 1.00000 -0.50000 1.00000
v 1.00000 0.00000 0.00000
v 0.00000 0.00000 0.00000
v 0.00000 0.00000 1.00000
v 1.00000 -0.50000 1.00000
vt 0.99219 -0.49219
vt 0.50781 -0.00781
vt 0.99219 -0.00781
vt 0.99219 -0.49219
vt 0.50781 -0.49219
vt 0.50781 -0.00781
vn 0.2357 0.9428 0.2357
vn -0.1352 0.9815 -0.1352
vn -0.0014 1.0000 -0.0004
vn 0.2357 0.9428 0.2357
vn -0.0004 1.0000 -0.0014
vn -0.1352 0.9815 -0.1352
g beachextcorner_corner_nw_0
usemtl hamabe
f 1/1/1 2/2/2 3/3/3
f 4/4/4 5/5/5 6/6/6
