# beachextincorner_inner_se
# generated by tools/assets/build-tiles.js — do not edit
mtllib beachextincorner_inner_se.mtl
o beachextincorner_inner_se
v 1.00000 0.00000 1.00000
v 1.00000 -0.50000 0.00000
v 0.00000 -0.50000 1.00000
v 0.00000 -0.50000 1.00000
v 1.00000 -0.50000 0.00000
v 0.00000 -0.50000 0.00000
vt 0.49219 -0.49219
vt 0.00781 -0.49219
vt 0.49219 -0.00781
vt 0.49219 -0.00781
vt 0.00781 -0.49219
vt 0.00781 -0.00781
vn 0.0000 1.0000 0.0000
vn 0.0000 1.0000 0.0000
vn 0.0000 1.0000 0.0000
vn 0.0000 1.0000 0.0000
vn 0.0000 1.0000 0.0000
vn 0.0000 1.0000 0.0000
g beachextincorner_inner_se_0
usemtl hamabe
f 1/1/1 2/2/2 3/3/3
f 4/4/4 5/5/5 6/6/6
