# nsandp_lm2_inner_sw
# generated by tools/assets/build-tiles.js — do not edit
mtllib nsandp_lm2_inner_sw.mtl
o nsandp_lm2_inner_sw
v 0.00000 0.00000 0.00000
v 1.00000 0.00000 1.00000
v 1.00000 0.00000 0.00000
v 0.00000 0.00000 0.00000
v 0.00000 0.00000 1.00000
v 1.00000 0.00000 1.00000
vt 0.50781 0.50781
vt 0.99219 0.99219
vt 0.99219 0.50781
vt 0.50781 0.50781
vt 0.50781 0.99219
vt 0.99219 0.99219
vn 0.0000 1.0000 0.0000
vn 0.0000 1.0000 0.0000
vn 0.0000 1.0000 0.0000
vn 0.0000 1.0000 0.0000
vn 0.0000 1.0000 0.0000
vn 0.0000 1.0000 0.0000
g nsandp_lm2_inner_sw_0
usemtl nsandp
f 1/1/1 2/2/2 3/3/3
f 4/4/4 5/5/5 6/6/6
