# r0_stair_skinny_bluff
# generated by tools/assets/build-tiles.js — do not edit
mtllib r0_stair_skinny_bluff.mtl
o r0_stair_skinny_bluff
v 2.01462 5.00000 5.00156
v 2.01462 0.00000 0.00156
v 2.01462 1.00000 1.00156
v 2.01462 5.00000 5.00156
v 2.01462 0.00000 5.00156
v 2.01462 0.00000 0.00156
v 0.98225 5.00000 5.00156
v 0.98225 0.00000 1.00156
v 0.98225 0.00000 5.00156
v 0.98225 5.00000 5.00156
v 0.98225 0.00000 0.00156
v 0.98225 0.00000 1.00156
vt 4.37500 1.00000
vt -0.62488 0.05424
vt 0.37509 0.26485
vt 4.37500 1.00000
vt 4.37500 0.00000
vt -0.62488 0.05424
vt 4.37500 1.00000
vt 0.37507 0.02192
vt 4.37500 0.00000
vt 4.37500 1.00000
vt -0.62488 0.04134
vt 0.37507 0.02192
vn 1.0000 0.0000 0.0000
vn 1.0000 0.0000 0.0000
vn 1.0000 0.0000 0.0000
vn 1.0000 0.0000 0.0000
vn 1.0000 0.0000 0.0000
vn 1.0000 0.0000 0.0000
vn -1.0000 0.0000 0.0000
vn -1.0000 0.0000 0.0000
vn -1.0000 0.0000 0.0000
vn -1.0000 0.0000 0.0000
vn -1.0000 0.0000 0.0000
vn -1.0000 0.0000 0.0000
g r0_stair_skinny_bluff_0
usemtl yamagake01
f 1/1/1 2/2/2 3/3/3
f 4/4/4 5/5/5 6/6/6
f 7/7/7 8/8/8 9/9/9
f 10/10/10 11/11/11 12/12/12
v 1.00000 1.00000 5.00000
v 0.49922 0.75000 1.00078
v 0.50000 0.75000 5.00000
v 1.00000 1.00000 5.00000
v 0.99922 1.00000 1.00078
v 0.49922 0.75000 1.00078
v 1.99668 1.00000 1.00020
v 2.49688 0.75000 5.00000
v 2.49668 0.75000 1.00020
v 1.99668 1.00000 1.00020
v 1.99687 1.00000 5.00000
v 2.49688 0.75000 5.00000
v 0.99922 1.00000 1.00078
v 0.99844 0.75000 0.50156
v 0.49922 0.75000 1.00078
v 1.99668 1.00000 1.00020
v 2.49668 0.75000 1.00020
v 1.99648 0.75000 0.50039
vt 0.01255 0.00002
vt 4.01154 -1.00103
vt 0.01255 -0.99998
vt 0.01255 0.00002
vt 4.01153 -0.00159
vt 4.01154 -1.00103
vt -1.98711 0.00027
vt 2.01255 -0.99998
vt -1.98701 -0.99908
vt -1.98711 0.00027
vt 2.01245 -0.00014
vt 2.01255 -0.99998
vt 0.00084 -0.00062
vt 1.00000 -0.99992
vt 0.00013 -0.99939
vt 0.00084 -0.00062
vt 0.99933 -0.99938
vt 0.00000 -0.99992
vn -0.4472 0.8944 0.0001
vn -0.6343 0.7437 -0.2108
vn -0.6618 0.7497 0.0001
vn -0.4472 0.8944 0.0001
vn -0.4387 0.8774 -0.1942
vn -0.6343 0.7437 -0.2108
vn 0.4386 0.8773 -0.1946
vn 0.6618 0.7497 0.0000
vn 0.6343 0.7437 -0.2110
vn 0.4386 0.8773 -0.1946
vn 0.4472 0.8944 0.0000
vn 0.6618 0.7497 0.0000
vn -0.4387 0.8774 -0.1942
vn -0.4247 0.7005 -0.5736
vn -0.6343 0.7437 -0.2108
vn 0.4386 0.8773 -0.1946
vn 0.6343 0.7437 -0.2110
vn 0.4246 0.7003 -0.5738
g r0_stair_skinny_bluff_1
usemtl gake1_0
f 13/13/13 14/14/14 15/15/15
f 16/16/16 17/17/17 18/18/18
f 19/19/19 20/20/20 21/21/21
f 22/22/22 23/23/23 24/24/24
f 25/25/25 26/26/26 27/27/27
f 28/28/28 29/29/29 30/30/30
v 0.50000 0.75000 5.00000
v -0.00078 0.00000 1.00078
v 0.00000 0.00000 5.00000
v 0.50000 0.75000 5.00000
v 0.49922 0.75000 1.00078
v -0.00078 0.00000 1.00078
v 2.49668 0.75000 1.00020
v 2.99687 0.00000 5.00000
v 2.99668 0.00000 1.00020
v 2.49668 0.75000 1.00020
v 2.49688 0.75000 5.00000
v 2.99687 0.00000 5.00000
v 0.49922 0.75000 1.00078
v 0.99844 0.75000 0.50156
v 0.24844 0.00000 0.25156
v 0.49922 0.75000 1.00078
v 0.24844 0.00000 0.25156
v -0.00078 0.00000 1.00078
v 0.99844 0.75000 0.50156
v 0.99844 0.00000 0.00156
v 0.24844 0.00000 0.25156
v 1.99648 0.75000 0.50039
v 2.49668 0.75000 1.00020
v 2.74648 0.00000 0.25039
v 1.99648 0.75000 0.50039
v 2.74648 0.00000 0.25039
v 1.99648 0.00000 0.00039
v 2.49668 0.75000 1.00020
v 2.99668 0.00000 1.00020
v 2.74648 0.00000 0.25039
vt 0.01245 0.00000
vt 4.01156 -1.00041
vt 0.01245 -1.00000
vt 0.01245 0.00000
vt 4.01154 -0.00062
vt 4.01156 -1.00041
vt -1.98723 -0.00001
vt 2.01245 -1.00000
vt -1.98725 -0.99980
vt -1.98723 -0.00001
vt 2.01245 0.00000
vt 2.01245 -1.00000
vt 0.00104 -0.00044
vt 1.00000 0.00000
vt 0.50000 -1.00000
vt 0.00104 -0.00044
vt 0.50000 -1.00000
vt 0.00007 -0.99990
vt 1.00000 0.00000
vt 1.00000 -1.00000
vt 0.50000 -1.00000
vt 0.00000 0.00000
vt 0.99896 -0.00044
vt 0.50000 -1.00000
vt 0.00000 0.00000
vt 0.50000 -1.00000
vt 0.00000 -1.00000
vt 0.99896 -0.00044
vt 0.99993 -0.99990
vt 0.50000 -1.00000
vn -0.6618 0.7497 0.0001
vn -0.8253 0.5502 -0.1265
vn -0.8320 0.5547 0.0002
vn -0.6618 0.7497 0.0001
vn -0.6343 0.7437 -0.2108
vn -0.8253 0.5502 -0.1265
vn 0.6343 0.7437 -0.2110
vn 0.8320 0.5547 0.0000
vn 0.8253 0.5502 -0.1270
vn 0.6343 0.7437 -0.2110
vn 0.6618 0.7497 0.0000
vn 0.8320 0.5547 0.0000
vn -0.6343 0.7437 -0.2108
vn -0.4247 0.7005 -0.5736
vn -0.5614 0.6082 -0.5611
vn -0.6343 0.7437 -0.2108
vn -0.5614 0.6082 -0.5611
vn -0.8253 0.5502 -0.1265
vn -0.4247 0.7005 -0.5736
vn -0.2673 0.5345 -0.8018
vn -0.5614 0.6082 -0.5611
vn 0.4246 0.7003 -0.5738
vn 0.6343 0.7437 -0.2110
vn 0.5612 0.6081 -0.5614
vn 0.4246 0.7003 -0.5738
vn 0.5612 0.6081 -0.5614
vn 0.2673 0.5345 -0.8018
vn 0.6343 0.7437 -0.2110
vn 0.8253 0.5502 -0.1270
vn 0.5612 0.6081 -0.5614
g r0_stair_skinny_bluff_2
usemtl gake01
f 31/31/31 32/32/32 33/33/33
f 34/34/34 35/35/35 36/36/36
f 37/37/37 38/38/38 39/39/39
f 40/40/40 41/41/41 42/42/42
f 43/43/43 44/44/44 45/45/45
f 46/46/46 47/47/47 48/48/48
f 49/49/49 50/50/50 51/51/51
f 52/52/52 53/53/53 54/54/54
f 55/55/55 56/56/56 57/57/57
f 58/58/58 59/59/59 60/60/60
v 1.87344 0.00000 -0.49844
v 2.12344 5.00000 4.50156
v 2.12344 0.00000 -0.49844
v 1.87344 0.00000 -0.49844
v 1.87344 5.00000 4.50156
v 2.12344 5.00000 4.50156
v 1.87344 0.00000 -0.49844
v 1.87344 5.00000 5.00156
v 1.87344 5.00000 4.50156
v 1.87344 0.00000 -0.49844
v 1.87344 1.00000 1.00156
v 1.87344 5.00000 5.00156
v 0.99844 0.14645 -0.10199
v 1.99844 4.85355 4.60512
v 1.99844 0.14645 -0.10199
v 0.99844 0.14645 -0.10199
v 0.99844 4.85355 4.60512
v 1.99844 4.85355 4.60512
v 0.87344 0.00000 -0.49844
v 1.12344 5.00000 4.50156
v 1.12344 0.00000 -0.49844
v 0.87344 0.00000 -0.49844
v 0.87344 5.00000 4.50156
v 1.12344 5.00000 4.50156
v 1.12344 0.00000 -0.49844
v 1.12344 5.00000 5.00156
v 1.12344 0.00000 0.00156
v 1.12344 0.00000 -0.49844
v 1.12344 5.00000 4.50156
v 1.12344 5.00000 5.00156
v 0.87344 0.00000 -0.49844
v 0.87344 5.00000 5.00156
v 0.87344 5.00000 4.50156
v 0.87344 0.00000 -0.49844
v 0.87344 0.00000 0.00156
v 0.87344 5.00000 5.00156
v 2.12344 0.00000 -0.49844
v 2.12344 5.00000 5.00156
v 2.12344 0.00000 0.00156
v 2.12344 0.00000 -0.49844
v 2.12344 5.00000 4.50156
v 2.12344 5.00000 5.00156
v 1.87344 5.00000 4.50156
v 2.12344 5.00000 5.00156
v 2.12344 5.00000 4.50156
v 1.87344 5.00000 4.50156
v 1.87344 5.00000 5.00156
v 2.12344 5.00000 5.00156
v 0.87344 5.00000 4.50156
v 1.12344 5.00000 5.00156
v 1.12344 5.00000 4.50156
v 0.87344 5.00000 4.50156
v 0.87344 5.00000 5.00156
v 1.12344 5.00000 5.00156
v 0.99844 4.85355 4.60512
v 1.99844 5.00000 5.00156
v 1.99844 4.85355 4.60512
v 0.99844 4.85355 4.60512
v 0.99844 5.00000 5.00156
v 1.99844 5.00000 5.00156
v 1.87344 0.00000 0.00156
v 2.12344 0.00000 -0.49844
v 2.12344 0.00000 0.00156
v 1.87344 0.00000 0.00156
v 1.87344 0.00000 -0.49844
v 2.12344 0.00000 -0.49844
vt 0.00329 0.64704
vt 0.12146 0.79497
vt 0.12132 0.64704
vt 0.00329 0.64704
vt 0.00311 0.79497
vt 0.12146 0.79497
vt 0.12159 -0.05634
vt 0.02747 0.17905
vt 0.12163 0.17905
vt 0.12159 -0.05634
vt 0.02744 0.17903
vt 0.02747 0.17905
vt 0.74739 -14.12854
vt 0.43843 2.50000
vt 0.43843 -14.12853
vt 0.74739 -14.12854
vt 0.74737 2.50000
vt 0.43843 2.50000
vt 0.00329 0.64704
vt 0.12146 0.79497
vt 0.12132 0.64704
vt 0.00329 0.64704
vt 0.00311 0.79497
vt 0.12146 0.79497
vt 0.02753 0.06751
vt 0.12163 0.18520
vt 0.12155 0.06752
vt 0.02753 0.06751
vt 0.02747 0.18520
vt 0.12163 0.18520
vt 0.10394 0.02029
vt 0.04513 0.16742
vt 0.10397 0.16742
vt 0.10394 0.02029
vt 0.04514 0.09606
vt 0.04513 0.16742
vt 0.10394 0.02029
vt 0.04513 0.16742
vt 0.04514 0.09606
vt 0.10394 0.02029
vt 0.10397 0.16742
vt 0.04513 0.16742
vt 0.00000 0.25000
vt 0.12500 0.50000
vt 0.12500 0.25000
vt 0.00000 0.25000
vt 0.00000 0.50000
vt 0.12500 0.50000
vt 0.00000 0.25000
vt 0.12500 0.50000
vt 0.12500 0.25000
vt 0.00000 0.25000
vt 0.00000 0.50000
vt 0.12500 0.50000
vt 0.73891 0.52865
vt 0.38734 0.98834
vt 0.38734 0.52865
vt 0.73891 0.52865
vt 0.73891 0.98834
vt 0.38734 0.98834
vt 0.03342 0.07188
vt 0.09551 0.19630
vt 0.09556 0.07183
vt 0.03342 0.07188
vt 0.03337 0.19632
vt 0.09551 0.19630
vn 0.0000 0.7071 -0.7071
vn 0.0000 0.7071 -0.7071
vn 0.0000 0.7071 -0.7071
vn 0.0000 0.7071 -0.7071
vn 0.0000 0.7071 -0.7071
vn 0.0000 0.7071 -0.7071
vn -1.0000 0.0000 0.0000
vn -1.0000 0.0000 0.0000
vn -1.0000 0.0000 0.0000
vn -1.0000 0.0000 0.0000
vn -1.0000 0.0000 0.0000
vn -1.0000 0.0000 0.0000
vn 0.0000 0.7071 -0.7071
vn 0.0000 0.7071 -0.7071
vn 0.0000 0.7071 -0.7071
vn 0.0000 0.7071 -0.7071
vn 0.0000 0.7071 -0.7071
vn 0.0000 0.7071 -0.7071
vn 0.0000 0.7071 -0.7071
vn 0.0000 0.7071 -0.7071
vn 0.0000 0.7071 -0.7071
vn 0.0000 0.7071 -0.7071
vn 0.0000 0.7071 -0.7071
vn 0.0000 0.7071 -0.7071
vn 1.0000 0.0000 0.0000
vn 1.0000 0.0000 0.0000
vn 1.0000 0.0000 0.0000
vn 1.0000 0.0000 0.0000
vn 1.0000 0.0000 0.0000
vn 1.0000 0.0000 0.0000
vn -1.0000 0.0000 0.0000
vn -1.0000 0.0000 0.0000
vn -1.0000 0.0000 0.0000
vn -1.0000 0.0000 0.0000
vn -1.0000 0.0000 0.0000
vn -1.0000 0.0000 0.0000
vn 1.0000 0.0000 0.0000
vn 1.0000 0.0000 0.0000
vn 1.0000 0.0000 0.0000
vn 1.0000 0.0000 0.0000
vn 1.0000 0.0000 0.0000
vn 1.0000 0.0000 0.0000
vn 0.0000 1.0000 0.0000
vn 0.0000 1.0000 0.0000
vn 0.0000 1.0000 0.0000
vn 0.0000 1.0000 0.0000
vn 0.0000 1.0000 0.0000
vn 0.0000 1.0000 0.0000
vn 0.0000 1.0000 0.0000
vn 0.0000 1.0000 0.0000
vn 0.0000 1.0000 0.0000
vn 0.0000 1.0000 0.0000
vn 0.0000 1.0000 0.0000
vn 0.0000 1.0000 0.0000
vn 0.0000 0.9380 -0.3465
vn 0.0000 0.9380 -0.3465
vn 0.0000 0.9380 -0.3465
vn 0.0000 0.9380 -0.3465
vn 0.0000 0.9380 -0.3465
vn 0.0000 0.9380 -0.3465
vn 0.0000 -1.0000 0.0000
vn 0.0000 -0.3827 -0.9239
vn 0.0000 -1.0000 0.0000
vn 0.0000 -1.0000 0.0000
vn -0.1620 -0.3776 -0.9116
vn 0.0000 -0.3827 -0.9239
g r0_stair_skinny_bluff_3
usemtl kaidan01a
f 61/61/61 62/62/62 63/63/63
f 64/64/64 65/65/65 66/66/66
f 67/67/67 68/68/68 69/69/69
f 70/70/70 71/71/71 72/72/72
f 73/73/73 74/74/74 75/75/75
f 76/76/76 77/77/77 78/78/78
f 79/79/79 80/80/80 81/81/81
f 82/82/82 83/83/83 84/84/84
f 85/85/85 86/86/86 87/87/87
f 88/88/88 89/89/89 90/90/90
f 91/91/91 92/92/92 93/93/93
f 94/94/94 95/95/95 96/96/96
f 97/97/97 98/98/98 99/99/99
f 100/100/100 101/101/101 102/102/102
f 103/103/103 104/104/104 105/105/105
f 106/106/106 107/107/107 108/108/108
f 109/109/109 110/110/110 111/111/111
f 112/112/112 113/113/113 114/114/114
f 115/115/115 116/116/116 117/117/117
f 118/118/118 119/119/119 120/120/120
f 121/121/121 122/122/122 123/123/123
f 124/124/124 125/125/125 126/126/126
