# r0_short_stair
# generated by tools/assets/build-tiles.js — do not edit
mtllib r0_short_stair.mtl
o r0_short_stair
v 0.00000 0.14645 -0.10355
v 1.00000 0.85355 0.60355
v 1.00000 0.14645 -0.10355
v 0.00000 0.14645 -0.10355
v 0.00000 0.85355 0.60355
v 1.00000 0.85355 0.60355
v 0.00000 0.85355 0.60355
v 1.00000 1.00000 1.00000
v 1.00000 0.85355 0.60355
v 0.00000 0.85355 0.60355
v 0.00000 1.00000 1.00000
v 1.00000 1.00000 1.00000
vt 0.50000 -1.00000
vt 0.50000 2.51563
vt 0.50000 -1.00000
vt 0.50000 -1.00000
vt 0.50000 2.51563
vt 0.50000 2.51563
vt 0.85867 0.50057
vt 0.27183 1.00057
vt 0.27183 0.50057
vt 0.85867 0.50057
vt 0.85804 1.00000
vt 0.27183 1.00057
vn 0.0000 0.7071 -0.7071
vn 0.0000 0.7071 -0.7071
vn 0.0000 0.7071 -0.7071
vn 0.0000 0.7071 -0.7071
vn 0.0000 0.7071 -0.7071
vn 0.0000 0.7071 -0.7071
vn 0.0000 0.7071 -0.7071
vn 0.0000 0.9380 -0.3465
vn 0.0000 0.7071 -0.7071
vn 0.0000 0.7071 -0.7071
vn 0.0000 0.9380 -0.3465
vn 0.0000 0.9380 -0.3465
g r0_short_stair_0
usemtl kaidan01a
f 1/1/1 2/2/2 3/3/3
f 4/4/4 5/5/5 6/6/6
f 7/7/7 8/8/8 9/9/9
f 10/10/10 11/11/11 12/12/12
