# r0_stair_right_bluff
# generated by tools/assets/build-tiles.js — do not edit
mtllib r0_stair_right_bluff.mtl
o r0_stair_right_bluff
v 0.87500 5.00000 5.00000
v 0.87500 0.00000 5.00078
v 0.87500 0.00000 0.00000
vt 2.62468 1.24984
vt 2.62481 0.00020
vt -2.37500 0.00000
vn 1.0000 0.0000 0.0000
vn 1.0000 0.0000 0.0000
vn 1.0000 0.0000 0.0000
g r0_stair_right_bluff_0
usemtl yamagake01
f 1/1/1 2/2/2 3/3/3
v 0.99824 1.00000 0.99863
v 1.49844 0.75000 4.99922
v 1.49824 0.75000 0.99863
v 0.99824 1.00000 0.99863
v 0.99844 1.00000 4.99922
v 1.49844 0.75000 4.99922
v 0.99824 1.00000 0.99863
v 1.49824 0.75000 0.99863
v 0.99805 0.75000 0.49883
vt -1.99883 0.00023
vt 2.00005 -0.99998
vt -1.99874 -0.99912
vt -1.99883 0.00023
vt 1.99995 -0.00014
vt 2.00005 -0.99998
vt 0.00084 -0.00062
vt 0.99933 -0.99938
vt 0.00000 -0.99992
vn 0.4386 0.8773 -0.1946
vn 0.6618 0.7497 0.0000
vn 0.6343 0.7437 -0.2110
vn 0.4386 0.8773 -0.1946
vn 0.4472 0.8944 0.0000
vn 0.6618 0.7497 0.0000
vn 0.4386 0.8773 -0.1946
vn 0.6343 0.7437 -0.2110
vn 0.4246 0.7003 -0.5738
g r0_stair_right_bluff_1
usemtl gake1_0
f 4/4/4 5/5/5 6/6/6
f 7/7/7 8/8/8 9/9/9
f 10/10/10 11/11/11 12/12/12
v 1.49824 0.75000 0.99863
v 1.99844 0.00000 4.99922
v 1.99824 0.00000 0.99863
v 1.49824 0.75000 0.99863
v 1.49844 0.75000 4.99922
v 1.99844 0.00000 4.99922
v 0.99805 0.75000 0.49883
v 1.49824 0.75000 0.99863
v 1.74805 0.00000 0.24883
v 0.99805 0.75000 0.49883
v 1.74805 0.00000 0.24883
v 0.99805 0.00000 -0.00117
v 1.49824 0.75000 0.99863
v 1.99824 0.00000 0.99863
v 1.74805 0.00000 0.24883
vt -1.99895 -0.00001
vt 1.99995 -1.00000
vt -1.99897 -0.99981
vt -1.99895 -0.00001
vt 1.99995 0.00000
vt 1.99995 -1.00000
vt 0.00000 0.00000
vt 0.99896 -0.00044
vt 0.50000 -1.00000
vt 0.00000 0.00000
vt 0.50000 -1.00000
vt 0.00000 -1.00000
vt 0.99896 -0.00044
vt 0.99993 -0.99990
vt 0.50000 -1.00000
vn 0.6343 0.7437 -0.2110
vn 0.8320 0.5547 0.0000
vn 0.8253 0.5502 -0.1270
vn 0.6343 0.7437 -0.2110
vn 0.6618 0.7497 0.0000
vn 0.8320 0.5547 0.0000
vn 0.4246 0.7003 -0.5738
vn 0.6343 0.7437 -0.2110
vn 0.5612 0.6081 -0.5614
vn 0.4246 0.7003 -0.5738
vn 0.5612 0.6081 -0.5614
vn 0.2673 0.5345 -0.8018
vn 0.6343 0.7437 -0.2110
vn 0.8253 0.5502 -0.1270
vn 0.5612 0.6081 -0.5614
g r0_stair_right_bluff_2
usemtl gake01
f 13/13/13 14/14/14 15/15/15
f 16/16/16 17/17/17 18/18/18
f 19/19/19 20/20/20 21/21/21
f 22/22/22 23/23/23 24/24/24
f 25/25/25 26/26/26 27/27/27
v 0.00000 0.14645 -0.10355
v 1.00000 4.85355 4.60355
v 1.00000 0.14645 -0.10355
v 0.00000 0.14645 -0.10355
v 0.00000 4.85355 4.60355
v 1.00000 4.85355 4.60355
v 0.00000 4.85355 4.60355
v 1.00000 5.00000 5.00000
v 1.00000 4.85355 4.60355
v 0.00000 4.85355 4.60355
v 0.00000 5.00000 5.00000
v 1.00000 5.00000 5.00000
v 0.87500 5.00000 4.50000
v 1.12500 5.00000 5.00000
v 1.12500 5.00000 4.50000
v 0.87500 5.00000 4.50000
v 0.87500 5.00000 5.00000
v 1.12500 5.00000 5.00000
v 0.87500 0.00000 -0.50000
v 1.12500 5.00000 4.50000
v 1.12500 0.00000 -0.50000
v 0.87500 0.00000 -0.50000
v 0.87500 5.00000 4.50000
v 1.12500 5.00000 4.50000
v 0.87500 0.00000 -0.50000
v 0.87500 5.00000 5.00000
v 0.87500 5.00000 4.50000
v 0.87500 0.00000 -0.50000
v 0.87500 0.00000 0.00000
v 0.87500 5.00000 5.00000
v 1.12500 0.00000 0.00000
v 0.87500 5.00000 5.00000
v 0.87500 0.00000 0.00000
v 1.12500 0.00000 0.00000
v 1.12500 5.00000 5.00000
v 0.87500 5.00000 5.00000
v 0.87500 0.00000 0.00000
v 1.12500 0.00000 -0.50000
v 1.12500 0.00000 0.00000
v 0.87500 0.00000 0.00000
v 0.87500 0.00000 -0.50000
v 1.12500 0.00000 -0.50000
v 1.12500 5.00000 5.00000
v 1.12500 0.00000 -0.50000
v 1.12500 5.00000 4.50000
v 1.12500 5.00000 5.00000
v 1.12500 0.00000 0.00000
v 1.12500 0.00000 -0.50000
vt 0.62496 -14.12853
vt 0.12500 2.50000
vt 0.12505 -14.12853
vt 0.62496 -14.12853
vt 0.62500 2.50000
vt 0.12500 2.50000
vt 1.00094 0.50057
vt 0.12957 1.00057
vt 0.12957 0.50057
vt 1.00094 0.50057
vt 1.00094 1.00057
vt 0.12957 1.00057
vt 0.00020 0.25008
vt 0.12500 0.50000
vt 0.12482 0.25019
vt 0.00020 0.25008
vt 0.00010 0.49995
vt 0.12500 0.50000
vt 0.00327 0.63894
vt 0.12122 0.93478
vt 0.12123 0.63894
vt 0.00327 0.63894
vt 0.00321 0.93478
vt 0.12122 0.93478
vt 0.07098 0.09328
vt 0.04729 0.23447
vt 0.07036 0.21081
vt 0.07098 0.09328
vt 0.04733 0.11679
vt 0.04729 0.23447
vt 0.08115 0.18725
vt 0.03135 0.06275
vt 0.03135 0.18725
vt 0.08115 0.18725
vt 0.08115 0.06275
vt 0.03135 0.06275
vt 0.03336 0.07186
vt 0.09546 0.19628
vt 0.09549 0.07186
vt 0.03336 0.07186
vt 0.03337 0.19632
vt 0.09546 0.19628
vt 0.06924 0.14289
vt 0.03232 0.10711
vt 0.06588 0.14289
vt 0.06924 0.14289
vt 0.03568 0.10711
vt 0.03232 0.10711
vn 0.0000 0.7071 -0.7071
vn 0.0000 0.7071 -0.7071
vn 0.0000 0.7071 -0.7071
vn 0.0000 0.7071 -0.7071
vn 0.0000 0.7071 -0.7071
vn 0.0000 0.7071 -0.7071
vn 0.0000 0.9380 -0.3465
vn 0.0000 0.9380 -0.3465
vn 0.0000 0.9380 -0.3465
vn 0.0000 0.9380 -0.3465
vn 0.0000 0.9380 -0.3465
vn 0.0000 0.9380 -0.3465
vn 0.0000 1.0000 0.0000
vn 0.0000 1.0000 0.0000
vn 0.0000 1.0000 0.0000
vn 0.0000 1.0000 0.0000
vn 0.0000 1.0000 0.0000
vn 0.0000 1.0000 0.0000
vn 0.0000 0.7071 -0.7071
vn 0.0000 0.7071 -0.7071
vn 0.0000 0.7071 -0.7071
vn 0.0000 0.7071 -0.7071
vn 0.0000 0.7071 -0.7071
vn 0.0000 0.7071 -0.7071
vn -1.0000 0.0000 0.0000
vn -1.0000 0.0000 0.0000
vn -1.0000 0.0000 0.0000
vn -1.0000 0.0000 0.0000
vn -1.0000 0.0000 0.0000
vn -1.0000 0.0000 0.0000
vn 0.0000 -0.7071 0.7071
vn 0.0000 -0.7071 0.7071
vn 0.0000 -0.7071 0.7071
vn 0.0000 -0.7071 0.7071
vn 0.0000 -0.7071 0.7071
vn 0.0000 -0.7071 0.7071
vn 0.0000 -1.0000 0.0000
vn 0.0000 -1.0000 0.0000
vn 0.0000 -1.0000 0.0000
vn 0.0000 -1.0000 0.0000
vn 0.0000 -1.0000 0.0000
vn 0.0000 -1.0000 0.0000
vn 1.0000 0.0000 0.0000
vn 1.0000 0.0000 0.0000
vn 1.0000 0.0000 0.0000
vn 1.0000 0.0000 0.0000
vn 1.0000 0.0000 0.0000
vn 1.0000 0.0000 0.0000
g r0_stair_right_bluff_3
usemtl kaidan01a
f 28/28/28 29/29/29 30/30/30
f 31/31/31 32/32/32 33/33/33
f 34/34/34 35/35/35 36/36/36
f 37/37/37 38/38/38 39/39/39
f 40/40/40 41/41/41 42/42/42
f 43/43/43 44/44/44 45/45/45
f 46/46/46 47/47/47 48/48/48
f 49/49/49 50/50/50 51/51/51
f 52/52/52 53/53/53 54/54/54
f 55/55/55 56/56/56 57/57/57
f 58/58/58 59/59/59 60/60/60
f 61/61/61 62/62/62 63/63/63
f 64/64/64 65/65/65 66/66/66
f 67/67/67 68/68/68 69/69/69
f 70/70/70 71/71/71 72/72/72
f 73/73/73 74/74/74 75/75/75
