# r0_stair_mid_bluff
# generated by tools/assets/build-tiles.js — do not edit
mtllib r0_stair_mid_bluff.mtl
o r0_stair_mid_bluff
v 0.00000 4.85355 4.60355
v 1.00000 5.00000 5.00000
v 1.00000 4.85355 4.60355
v 0.00000 4.85355 4.60355
v 0.00000 5.00000 5.00000
v 1.00000 5.00000 5.00000
v 0.00000 0.14645 -0.10355
v 1.00000 4.85355 4.60355
v 1.00000 0.14645 -0.10355
v 0.00000 0.14645 -0.10355
v 0.00000 4.85355 4.60355
v 1.00000 4.85355 4.60355
vt 0.85848 0.50057
vt 0.27183 1.00057
vt 0.27197 0.50085
vt 0.85848 0.50057
vt 0.85804 1.00000
vt 0.27183 1.00057
vt 0.31251 -14.12853
vt 0.43750 2.50000
vt 0.43749 -14.12853
vt 0.31251 -14.12853
vt 0.31250 2.50000
vt 0.43750 2.50000
vn 0.0000 0.9380 -0.3465
vn 0.0000 0.9380 -0.3465
vn 0.0000 0.9380 -0.3465
vn 0.0000 0.9380 -0.3465
vn 0.0000 0.9380 -0.3465
vn 0.0000 0.9380 -0.3465
vn 0.0000 0.7071 -0.7071
vn 0.0000 0.9380 -0.3465
vn 0.0000 0.7071 -0.7071
vn 0.0000 0.7071 -0.7071
vn 0.0000 0.9380 -0.3465
vn 0.0000 0.9380 -0.3465
g r0_stair_mid_bluff_0
usemtl kaidan01a
f 1/1/1 2/2/2 3/3/3
f 4/4/4 5/5/5 6/6/6
f 7/7/7 8/8/8 9/9/9
f 10/10/10 11/11/11 12/12/12
