# river_light
# generated by tools/assets/build-tiles.js — do not edit
mtllib river_light.mtl
o river_light
v 1.75000 -0.62500 1.00000
v -0.00977 -0.62500 0.00000
v -0.00977 -0.62500 1.00000
v 1.75000 -0.62500 1.00000
v 1.75000 -0.62500 0.00000
v -0.00977 -0.62500 0.00000
v 3.50977 -0.62500 1.00000
v 1.75000 -0.62500 0.00000
v 1.75000 -0.62500 1.00000
v 3.50977 -0.62500 1.00000
v 3.50977 -0.62500 0.00000
v 1.75000 -0.62500 0.00000
vt 0.01563 0.02051
vt 0.94531 0.34375
vt 0.94531 0.02051
vt 0.01563 0.02051
vt 0.01563 0.34375
vt 0.94531 0.34375
vt 0.94531 0.47949
vt 0.01563 0.15625
vt 0.01563 0.47949
vt 0.94531 0.47949
vt 0.94531 0.15625
vt 0.01563 0.15625
vn 0.0000 1.0000 0.0000
vn 0.0000 1.0000 0.0000
vn 0.0000 1.0000 0.0000
vn 0.0000 1.0000 0.0000
vn 0.0000 1.0000 0.0000
vn 0.0000 1.0000 0.0000
vn 0.0000 1.0000 0.0000
vn 0.0000 1.0000 0.0000
vn 0.0000 1.0000 0.0000
vn 0.0000 1.0000 0.0000
vn 0.0000 1.0000 0.0000
vn 0.0000 1.0000 0.0000
g river_light_0
usemtl kawa_kage
f 1/1/1 2/2/2 3/3/3
f 4/4/4 5/5/5 6/6/6
f 7/7/7 8/8/8 9/9/9
f 10/10/10 11/11/11 12/12/12
