# montain_w_v22
# generated by tools/assets/build-tiles.js — do not edit
mtllib montain_w_v22.mtl
o montain_w_v22
v 0.25000 0.87500 0.00000
v 0.75000 0.12500 1.00000
v 0.75000 0.12500 0.00000
v 0.25000 0.87500 0.00000
v 0.25000 0.87500 1.00000
v 0.75000 0.12500 1.00000
v 0.75000 0.12500 0.00000
v 1.00000 0.00000 1.00000
v 1.00000 0.00000 0.00000
v 0.75000 0.12500 0.00000
v 0.75000 0.12500 1.00000
v 1.00000 0.00000 1.00000
v 0.00000 1.00000 0.00000
v 0.25000 0.87500 1.00000
v 0.25000 0.87500 0.00000
v 0.00000 1.00000 0.00000
v 0.00000 1.00000 1.00000
v 0.25000 0.87500 1.00000
vt 0.00000 -0.12500
vt 1.00000 -0.81250
vt 0.00000 -0.81250
vt 0.00000 -0.12500
vt 1.00000 -0.12500
vt 1.00000 -0.81250
vt 0.00000 -0.81250
vt 1.00000 -1.00000
vt 0.00000 -1.00000
vt 0.00000 -0.81250
vt 1.00000 -0.81250
vt 1.00000 -1.00000
vt 0.00000 0.00000
vt 1.00000 -0.12500
vt 0.00000 -0.12500
vt 0.00000 0.00000
vt 1.00000 0.00000
vt 1.00000 -0.12500
vn 0.6618 0.7497 0.0000
vn 0.6618 0.7497 0.0000
vn 0.6618 0.7497 0.0000
vn 0.6618 0.7497 0.0000
vn 0.6618 0.7497 0.0000
vn 0.6618 0.7497 0.0000
vn 0.6618 0.7497 0.0000
vn 0.4472 0.8944 0.0000
vn 0.4472 0.8944 0.0000
vn 0.6618 0.7497 0.0000
vn 0.6618 0.7497 0.0000
vn 0.4472 0.8944 0.0000
vn 0.0000 1.0000 0.0000
vn 0.6618 0.7497 0.0000
vn 0.6618 0.7497 0.0000
vn 0.0000 1.0000 0.0000
vn 0.0000 1.0000 0.0000
vn 0.6618 0.7497 0.0000
g montain_w_v22_0
usemtl hanger_lm4
f 1/1/1 2/2/2 3/3/3
f 4/4/4 5/5/5 6/6/6
f 7/7/7 8/8/8 9/9/9
f 10/10/10 11/11/11 12/12/12
f 13/13/13 14/14/14 15/15/15
f 16/16/16 17/17/17 18/18/18
