# shadow_mountain_w
# generated by tools/assets/build-tiles.js — do not edit
mtllib shadow_mountain_w.mtl
o shadow_mountain_w
v 0.00000 0.18750 0.18750
v 1.00000 0.06250 -0.00000
v 0.00000 0.06250 -0.00000
v 0.00000 0.18750 0.18750
v 1.00000 0.18750 0.18750
v 1.00000 0.06250 -0.00000
v 0.00000 1.00000 1.00000
v 1.00000 0.93750 0.68750
v 0.00000 0.93750 0.68750
v 0.00000 1.00000 1.00000
v 1.00000 1.00000 1.00000
v 1.00000 0.93750 0.68750
v 0.00000 0.93750 0.68750
v 1.00000 0.18750 0.18750
v 0.00000 0.18750 0.18750
v 0.00000 0.93750 0.68750
v 1.00000 0.93750 0.68750
v 1.00000 0.18750 0.18750
vt 0.00000 -0.81250
vt 0.33333 -1.00000
vt 0.00000 -1.00000
vt 0.00000 -0.81250
vt 0.33333 -0.81250
vt 0.33333 -1.00000
vt 0.00000 0.00000
vt 0.33333 -0.12500
vt 0.00000 -0.12500
vt 0.00000 0.00000
vt 0.33333 0.00000
vt 0.33333 -0.12500
vt 0.00000 -0.12500
vt 0.33333 -0.81250
vt 0.00000 -0.81250
vt 0.00000 -0.12500
vt 0.33333 -0.12500
vt 0.33333 -0.81250
vn 0.0000 0.9999 -0.0156
vn -0.5547 0.6923 -0.4615
vn 0.0000 1.0000 0.0000
vn 0.0000 0.9999 -0.0156
vn -0.6979 0.5064 -0.5064
vn -0.5547 0.6923 -0.4615
vn 0.0000 1.0000 0.0000
vn -0.5692 0.6833 -0.4574
vn 0.0003 0.9999 0.0125
vn 0.0000 1.0000 0.0000
vn 0.0000 1.0000 0.0000
vn -0.5692 0.6833 -0.4574
vn 0.0003 0.9999 0.0125
vn -0.6979 0.5064 -0.5064
vn 0.0000 0.9999 -0.0156
vn 0.0003 0.9999 0.0125
vn -0.5692 0.6833 -0.4574
vn -0.6979 0.5064 -0.5064
g shadow_mountain_w_0
usemtl shadowchip
f 1/1/1 2/2/2 3/3/3
f 4/4/4 5/5/5 6/6/6
f 7/7/7 8/8/8 9/9/9
f 10/10/10 11/11/11 12/12/12
f 13/13/13 14/14/14 15/15/15
f 16/16/16 17/17/17 18/18/18
