# cave
# generated by tools/assets/build-tiles.js — do not edit
mtllib cave.mtl
o cave
v 2.12500 1.56250 1.19336
v 2.75000 1.12500 1.50000
v 2.37500 1.12500 0.67773
v 2.12500 1.56250 1.19336
v 2.37500 1.56250 1.75000
v 2.75000 1.12500 1.50000
v 1.12500 1.12500 0.95312
v 0.62500 0.06250 -0.23731
v 0.87500 1.12500 0.55273
v 1.12500 1.12500 0.95312
v 0.93750 0.06250 0.41211
v 0.62500 0.06250 -0.23731
v 1.50000 1.81250 1.06836
v 1.87500 1.81250 1.75000
v 1.87500 1.81250 1.06836
v 1.50000 1.81250 1.06836
v 1.50000 1.81250 1.75000
v 1.87500 1.81250 1.75000
v 2.37500 0.06250 -0.23731
v 2.37500 1.12500 0.67773
v 2.75000 0.06250 -0.11231
v 2.37500 0.06250 -0.23731
v 2.00000 1.12500 0.55273
v 2.37500 1.12500 0.67773
v 0.87500 1.56250 1.19336
v 1.12500 1.81250 1.75000
v 1.12500 1.81250 1.06836
v 0.87500 1.56250 1.19336
v 0.62500 1.56250 1.75000
v 1.12500 1.81250 1.75000
v 1.87500 1.81250 1.06836
v 2.37500 1.56250 1.75000
v 2.12500 1.56250 1.19336
v 1.87500 1.81250 1.06836
v 1.87500 1.81250 1.75000
v 2.37500 1.56250 1.75000
v 2.06250 0.06250 0.41211
v 1.50000 1.12500 0.95312
v 1.87500 1.12500 0.95312
v 2.06250 0.06250 0.41211
v 1.50000 0.06250 0.41211
v 1.50000 1.12500 0.95312
v 0.62500 1.12500 0.67773
v -0.25000 0.06250 1.00000
v 0.25000 1.12500 1.50000
v 0.62500 1.12500 0.67773
v 0.25000 0.06250 -0.11231
v -0.25000 0.06250 1.00000
v 2.06250 0.06250 0.41211
v 2.37500 0.06250 -0.23731
v 2.00000 1.12500 0.55273
v 2.06250 0.06250 0.41211
v 2.00000 1.12500 0.55273
v 1.87500 1.12500 0.95312
v 1.50000 1.50000 0.80273
v 1.12500 1.81250 1.06836
v 1.50000 1.81250 1.06836
v 1.50000 1.50000 0.80273
v 1.25000 1.50000 0.80273
v 1.12500 1.81250 1.06836
v 0.62500 1.12500 0.67773
v 0.62500 1.56250 1.75000
v 0.87500 1.56250 1.19336
v 0.62500 1.12500 0.67773
v 0.25000 1.12500 1.50000
v 0.62500 1.56250 1.75000
v 1.50000 1.12500 0.95312
v 1.50000 1.50000 0.80273
v 1.25000 1.50000 0.80273
v 1.50000 1.12500 0.95312
v 1.25000 1.50000 0.80273
v 1.12500 1.12500 0.95312
v 1.87500 1.12500 0.95312
v 1.75000 1.50000 0.80273
v 1.50000 1.50000 0.80273
v 1.87500 1.12500 0.95312
v 1.50000 1.50000 0.80273
v 1.50000 1.12500 0.95312
v 0.93750 0.06250 0.41211
v 1.50000 0.06250 -0.23731
v 0.62500 0.06250 -0.23731
v 0.93750 0.06250 0.41211
v 1.50000 0.06250 0.41211
v 1.50000 0.06250 -0.23731
v 1.75000 1.50000 0.80273
v 1.50000 1.81250 1.06836
v 1.87500 1.81250 1.06836
v 1.75000 1.50000 0.80273
v 1.50000 1.50000 0.80273
v 1.50000 1.81250 1.06836
v 2.75000 0.06250 -0.11231
v 2.75000 1.12500 1.50000
v 3.25000 0.06250 1.00000
v 2.75000 0.06250 -0.11231
v 2.37500 1.12500 0.67773
v 2.75000 1.12500 1.50000
v 1.12500 1.12500 0.95312
v 1.50000 0.06250 0.41211
v 0.93750 0.06250 0.41211
v 1.12500 1.12500 0.95312
v 1.50000 1.12500 0.95312
v 1.50000 0.06250 0.41211
v 0.87500 1.12500 0.55273
v 0.25000 0.06250 -0.11231
v 0.62500 1.12500 0.67773
v 0.87500 1.12500 0.55273
v 0.62500 0.06250 -0.23731
v 0.25000 0.06250 -0.11231
v 2.37500 0.06250 -0.23731
v 1.50000 0.06250 0.41211
v 2.06250 0.06250 0.41211
v 2.37500 0.06250 -0.23731
v 1.50000 0.06250 -0.23731
v 1.50000 0.06250 0.41211
v 1.12500 1.81250 1.06836
v 1.50000 1.81250 1.75000
v 1.50000 1.81250 1.06836
v 1.12500 1.81250 1.06836
v 1.12500 1.81250 1.75000
v 1.50000 1.81250 1.75000
v 2.12500 1.56250 1.19336
v 2.37500 1.12500 0.67773
v 1.87500 1.81250 1.06836
v 1.87500 1.81250 1.06836
v 2.37500 1.12500 0.67773
v 1.75000 1.50000 0.80273
v 2.37500 1.12500 0.67773
v 2.00000 1.12500 0.55273
v 1.75000 1.50000 0.80273
v 1.75000 1.50000 0.80273
v 1.87500 1.12500 0.95312
v 2.00000 1.12500 0.55273
v 1.12500 1.12500 0.95312
v 1.25000 1.50000 0.80273
v 0.87500 1.12500 0.55273
v 1.25000 1.50000 0.80273
v 0.87500 1.12500 0.55273
v 0.62500 1.12500 0.67773
v 0.87500 1.56250 1.19336
v 1.12500 1.81250 1.06836
v 0.62500 1.12500 0.67773
v 0.62500 1.12500 0.67773
v 1.12500 1.81250 1.06836
v 1.25000 1.50000 0.80273
vt 0.40625 -0.27539
vt 0.16406 -0.32422
vt 0.37305 -0.49023
vt 0.40625 -0.27539
vt 0.34570 -0.09375
vt 0.16406 -0.32422
vt 0.68750 -0.59375
vt 0.46875 -0.96875
vt 0.53125 -0.59375
vt 0.68750 -0.59375
vt 0.68750 -0.96875
vt 0.46875 -0.96875
vt 0.72070 -0.22266
vt 0.56445 -0.03125
vt 0.57227 -0.22266
vt 0.72070 -0.22266
vt 0.72070 -0.01367
vt 0.56445 -0.03125
vt 0.46875 -0.96875
vt 0.37305 -0.49023
vt 0.30273 -0.92383
vt 0.46875 -0.96875
vt 0.53125 -0.59375
vt 0.37305 -0.49023
vt 0.40625 -0.27539
vt 0.56445 -0.03125
vt 0.57227 -0.22266
vt 0.40625 -0.27539
vt 0.34570 -0.09375
vt 0.56445 -0.03125
vt 0.57227 -0.22266
vt 0.34570 -0.09375
vt 0.40625 -0.27539
vt 0.57227 -0.22266
vt 0.56445 -0.03125
vt 0.34570 -0.09375
vt 0.87891 -0.73242
vt 0.98438 -0.35742
vt 0.87891 -0.35742
vt 0.87891 -0.73242
vt 0.98438 -0.73242
vt 0.98438 -0.35742
vt 0.37305 -0.49023
vt 0.02734 -0.81250
vt 0.16406 -0.32422
vt 0.37305 -0.49023
vt 0.30273 -0.92383
vt 0.02734 -0.81250
vt 0.68750 -0.96875
vt 0.46875 -0.96875
vt 0.53125 -0.59375
vt 0.68750 -0.96875
vt 0.53125 -0.59375
vt 0.68750 -0.59375
vt 0.71875 -0.43750
vt 0.57227 -0.22266
vt 0.72070 -0.22266
vt 0.71875 -0.43750
vt 0.62500 -0.43750
vt 0.57227 -0.22266
vt 0.37305 -0.49023
vt 0.34570 -0.09375
vt 0.40625 -0.27539
vt 0.37305 -0.49023
vt 0.16406 -0.32422
vt 0.34570 -0.09375
vt 0.71875 -0.59375
vt 0.71875 -0.43750
vt 0.62500 -0.43750
vt 0.71875 -0.59375
vt 0.62500 -0.43750
vt 0.68750 -0.59375
vt 0.68750 -0.59375
vt 0.62500 -0.43750
vt 0.71875 -0.43750
vt 0.68750 -0.59375
vt 0.71875 -0.43750
vt 0.71875 -0.59375
vt 0.87891 -0.73242
vt 0.98438 -0.98242
vt 0.77148 -0.98242
vt 0.87891 -0.73242
vt 0.98438 -0.73242
vt 0.98438 -0.98242
vt 0.62500 -0.43750
vt 0.72070 -0.22266
vt 0.57227 -0.22266
vt 0.62500 -0.43750
vt 0.71875 -0.43750
vt 0.72070 -0.22266
vt 0.30273 -0.92383
vt 0.16406 -0.32422
vt 0.02734 -0.81250
vt 0.30273 -0.92383
vt 0.37305 -0.49023
vt 0.16406 -0.32422
vt 0.87891 -0.35742
vt 0.98438 -0.73242
vt 0.87891 -0.73242
vt 0.87891 -0.35742
vt 0.98438 -0.35742
vt 0.98438 -0.73242
vt 0.53125 -0.59375
vt 0.30273 -0.92383
vt 0.37305 -0.49023
vt 0.53125 -0.59375
vt 0.46875 -0.96875
vt 0.30273 -0.92383
vt 0.77148 -0.98242
vt 0.98438 -0.73242
vt 0.87891 -0.73242
vt 0.77148 -0.98242
vt 0.98438 -0.98242
vt 0.98438 -0.73242
vt 0.57227 -0.22266
vt 0.72070 -0.01367
vt 0.72070 -0.22266
vt 0.57227 -0.22266
vt 0.56445 -0.03125
vt 0.72070 -0.01367
vt 0.40625 -0.27539
vt 0.37305 -0.49023
vt 0.57227 -0.22266
vt 0.57227 -0.22266
vt 0.37305 -0.49023
vt 0.62500 -0.43750
vt 0.37305 -0.49023
vt 0.53125 -0.59375
vt 0.62500 -0.43750
vt 0.62500 -0.43750
vt 0.68750 -0.59375
vt 0.53125 -0.59375
vt 0.68750 -0.59375
vt 0.62500 -0.43750
vt 0.53125 -0.59375
vt 0.62500 -0.43750
vt 0.53125 -0.59375
vt 0.37305 -0.49023
vt 0.40625 -0.27539
vt 0.57227 -0.22266
vt 0.37305 -0.49023
vt 0.37305 -0.49023
vt 0.57227 -0.22266
vt 0.62500 -0.43750
vn -0.1583 0.9825 0.0980
vn -0.0001 1.0000 -0.0002
vn 0.0000 1.0000 0.0013
vn -0.1583 0.9825 0.0980
vn -0.0052 1.0000 -0.0041
vn -0.0001 1.0000 -0.0002
vn 0.0140 0.9999 -0.0053
vn -0.0415 0.9984 0.0393
vn 0.0396 0.9992 -0.0040
vn 0.0140 0.9999 -0.0053
vn -0.0185 0.9998 0.0060
vn -0.0415 0.9984 0.0393
vn 0.0000 1.0000 0.0000
vn 0.0697 0.9956 -0.0624
vn -0.0289 0.9993 0.0250
vn 0.0000 1.0000 0.0000
vn 0.0000 1.0000 0.0000
vn 0.0697 0.9956 -0.0624
vn -0.0012 0.9992 0.0408
vn -0.0085 0.9999 0.0100
vn -0.0045 1.0000 0.0053
vn -0.0012 0.9992 0.0408
vn 0.0438 0.9990 -0.0015
vn -0.0085 0.9999 0.0100
vn 0.0117 0.9998 -0.0147
vn -0.0148 0.9999 0.0076
vn 0.0880 0.9946 -0.0541
vn 0.0117 0.9998 -0.0147
vn -0.0492 0.9983 0.0321
vn -0.0148 0.9999 0.0076
vn -0.0289 0.9993 0.0250
vn -0.0052 1.0000 -0.0041
vn -0.1583 0.9825 0.0980
vn -0.0289 0.9993 0.0250
vn 0.0697 0.9956 -0.0624
vn -0.0052 1.0000 -0.0041
vn 0.0000 0.9997 0.0226
vn 0.0000 1.0000 0.0000
vn 0.0000 1.0000 0.0000
vn 0.0000 0.9997 0.0226
vn 0.0000 1.0000 -0.0056
vn 0.0000 1.0000 0.0000
vn 0.0111 0.9998 -0.0147
vn -0.0004 1.0000 -0.0003
vn 0.0020 1.0000 0.0024
vn 0.0111 0.9998 -0.0147
vn 0.0051 0.9997 0.0244
vn -0.0004 1.0000 -0.0003
vn 0.0146 0.9999 0.0069
vn -0.0012 0.9992 0.0408
vn 0.0438 0.9990 -0.0015
vn 0.0146 0.9999 0.0069
vn 0.0438 0.9990 -0.0015
vn -0.0449 0.9988 -0.0186
vn 0.0000 1.0000 -0.0053
vn 0.0000 1.0000 0.0000
vn 0.0000 1.0000 0.0000
vn 0.0000 1.0000 -0.0053
vn 0.0000 0.9998 -0.0200
vn 0.0000 1.0000 0.0000
vn 0.0001 1.0000 -0.0001
vn -0.0492 0.9983 0.0321
vn 0.0117 0.9998 -0.0147
vn 0.0001 1.0000 -0.0001
vn -0.0019 1.0000 0.0004
vn -0.0492 0.9983 0.0321
vn 0.0000 1.0000 0.0000
vn 0.0000 1.0000 -0.0053
vn 0.0000 0.9998 -0.0200
vn 0.0000 1.0000 0.0000
vn 0.0000 0.9998 -0.0200
vn 0.0001 1.0000 0.0000
vn -0.0001 1.0000 0.0000
vn 0.0000 0.9998 -0.0205
vn 0.0000 1.0000 -0.0048
vn -0.0001 1.0000 0.0000
vn 0.0000 1.0000 -0.0048
vn 0.0000 1.0000 0.0000
vn 0.0000 1.0000 -0.0017
vn 0.0000 1.0000 0.0000
vn 0.0000 1.0000 0.0000
vn 0.0000 1.0000 -0.0017
vn 0.0000 0.9998 0.0183
vn 0.0000 1.0000 0.0000
vn 0.0000 0.9998 -0.0205
vn 0.0000 1.0000 0.0000
vn 0.0000 1.0000 0.0000
vn 0.0000 0.9998 -0.0205
vn 0.0000 1.0000 -0.0048
vn 0.0000 1.0000 0.0000
vn -0.0045 1.0000 0.0053
vn 0.0001 1.0000 0.0002
vn -0.0014 1.0000 -0.0005
vn -0.0045 1.0000 0.0053
vn -0.0085 0.9999 0.0100
vn 0.0001 1.0000 0.0002
vn 0.0000 1.0000 0.0000
vn 0.0000 0.9998 0.0183
vn 0.0000 1.0000 -0.0017
vn 0.0000 1.0000 0.0000
vn 0.0000 1.0000 0.0000
vn 0.0000 0.9998 0.0183
vn 0.0396 0.9992 -0.0040
vn 0.0051 0.9997 0.0244
vn 0.0111 0.9998 -0.0147
vn 0.0396 0.9992 -0.0040
vn -0.0415 0.9984 0.0393
vn 0.0051 0.9997 0.0244
vn 0.0000 1.0000 0.0000
vn 0.0000 1.0000 -0.0056
vn 0.0000 0.9997 0.0226
vn 0.0000 1.0000 0.0000
vn 0.0000 1.0000 0.0000
vn 0.0000 1.0000 -0.0056
vn 0.0880 0.9946 -0.0541
vn 0.0000 1.0000 0.0000
vn 0.0000 1.0000 0.0000
vn 0.0880 0.9946 -0.0541
vn -0.0148 0.9999 0.0076
vn 0.0000 1.0000 0.0000
vn 0.0000 1.0000 0.0000
vn 0.0000 1.0000 0.0000
vn 0.0000 1.0000 0.0000
vn 0.0000 1.0000 0.0000
vn 0.0000 1.0000 0.0000
vn 0.0000 1.0000 0.0000
vn 0.0000 1.0000 0.0000
vn 0.0000 1.0000 0.0000
vn 0.0000 1.0000 0.0000
vn 0.0000 1.0000 0.0000
vn 0.0000 1.0000 0.0000
vn 0.0000 1.0000 0.0000
vn 0.0000 1.0000 0.0000
vn 0.0000 1.0000 0.0000
vn 0.0000 1.0000 0.0000
vn 0.0000 1.0000 0.0000
vn 0.0000 1.0000 0.0000
vn 0.0000 1.0000 0.0000
vn 0.0000 1.0000 0.0000
vn 0.0000 1.0000 0.0000
vn 0.0000 1.0000 0.0000
vn 0.0000 1.0000 0.0000
vn 0.0000 1.0000 0.0000
vn 0.0000 1.0000 0.0000
g cave_0
usemtl cavehole
f 1/1/1 2/2/2 3/3/3
f 4/4/4 5/5/5 6/6/6
f 7/7/7 8/8/8 9/9/9
f 10/10/10 11/11/11 12/12/12
f 13/13/13 14/14/14 15/15/15
f 16/16/16 17/17/17 18/18/18
f 19/19/19 20/20/20 21/21/21
f 22/22/22 23/23/23 24/24/24
f 25/25/25 26/26/26 27/27/27
f 28/28/28 29/29/29 30/30/30
f 31/31/31 32/32/32 33/33/33
f 34/34/34 35/35/35 36/36/36
f 37/37/37 38/38/38 39/39/39
f 40/40/40 41/41/41 42/42/42
f 43/43/43 44/44/44 45/45/45
f 46/46/46 47/47/47 48/48/48
f 49/49/49 50/50/50 51/51/51
f 52/52/52 53/53/53 54/54/54
f 55/55/55 56/56/56 57/57/57
f 58/58/58 59/59/59 60/60/60
f 61/61/61 62/62/62 63/63/63
f 64/64/64 65/65/65 66/66/66
f 67/67/67 68/68/68 69/69/69
f 70/70/70 71/71/71 72/72/72
f 73/73/73 74/74/74 75/75/75
f 76/76/76 77/77/77 78/78/78
f 79/79/79 80/80/80 81/81/81
f 82/82/82 83/83/83 84/84/84
f 85/85/85 86/86/86 87/87/87
f 88/88/88 89/89/89 90/90/90
f 91/91/91 92/92/92 93/93/93
f 94/94/94 95/95/95 96/96/96
f 97/97/97 98/98/98 99/99/99
f 100/100/100 101/101/101 102/102/102
f 103/103/103 104/104/104 105/105/105
f 106/106/106 107/107/107 108/108/108
f 109/109/109 110/110/110 111/111/111
f 112/112/112 113/113/113 114/114/114
f 115/115/115 116/116/116 117/117/117
f 118/118/118 119/119/119 120/120/120
f 121/121/121 122/122/122 123/123/123
f 124/124/124 125/125/125 126/126/126
f 127/127/127 128/128/128 129/129/129
f 130/130/130 131/131/131 132/132/132
f 133/133/133 134/134/134 135/135/135
f 136/136/136 137/137/137 138/138/138
f 139/139/139 140/140/140 141/141/141
f 142/142/142 143/143/143 144/144/144
v 3.00000 0.99707 0.66992
v 2.50000 1.00000 1.00000
v 3.00000 1.00000 1.00000
v 3.00000 0.99707 0.66992
v 2.50000 0.99707 0.66992
v 2.50000 1.00000 1.00000
v 0.50000 0.99707 0.66992
v 0.00000 1.00000 1.00000
v 0.50000 1.00000 1.00000
v 0.50000 0.99707 0.66992
v 0.00000 0.99707 0.66992
v 0.00000 1.00000 1.00000
v 3.00000 0.09863 0.21094
v 2.50000 0.99707 0.66992
v 3.00000 0.99707 0.66992
v 3.00000 0.09863 0.21094
v 2.50000 0.09863 0.21094
v 2.50000 0.99707 0.66992
v 3.00000 0.09863 0.21094
v 2.50000 0.00000 -0.00000
v 2.50000 0.09863 0.21094
v 3.00000 0.09863 0.21094
v 3.00000 0.00000 -0.00000
v 2.50000 0.00000 -0.00000
v 0.50000 0.09863 0.21094
v 0.00000 0.99707 0.66992
v 0.50000 0.99707 0.66992
v 0.50000 0.09863 0.21094
v 0.00000 0.09863 0.21094
v 0.00000 0.99707 0.66992
v 0.50000 0.09863 0.21094
v 0.00000 0.00000 -0.00000
v 0.00000 0.09863 0.21094
v 0.50000 0.09863 0.21094
v 0.50000 0.00000 -0.00000
v 0.00000 0.00000 -0.00000
vt 0.25000 -0.09766
vt 0.00000 -0.01563
vt 0.25000 -0.01563
vt 0.25000 -0.09766
vt 0.00000 -0.09766
vt 0.00000 -0.01563
vt 0.25000 -0.09766
vt 0.00000 -0.01563
vt 0.25000 -0.01563
vt 0.25000 -0.09766
vt 0.00000 -0.09766
vt 0.00000 -0.01563
vt 0.25000 -0.39453
vt 0.00000 -0.09766
vt 0.25000 -0.09766
vt 0.25000 -0.39453
vt 0.00000 -0.39453
vt 0.00000 -0.09766
vt 0.25000 0.10938
vt 0.00000 0.01563
vt 0.00000 0.10938
vt 0.25000 0.10938
vt 0.25000 0.01563
vt 0.00000 0.01563
vt 0.25000 -0.39453
vt 0.00000 -0.09766
vt 0.25000 -0.09766
vt 0.25000 -0.39453
vt 0.00000 -0.39453
vt 0.00000 -0.09766
vt 0.25000 0.10938
vt 0.00000 0.01563
vt 0.00000 0.10938
vt 0.25000 0.10938
vt 0.25000 0.01563
vt 0.00000 0.01563
vn 0.0000 1.0000 0.0053
vn 0.0000 1.0000 0.0000
vn 0.0000 1.0000 0.0000
vn 0.0000 1.0000 0.0053
vn 0.0003 1.0000 -0.0084
vn 0.0000 1.0000 0.0000
vn 0.0000 1.0000 0.0053
vn 0.0000 1.0000 0.0000
vn 0.0000 1.0000 0.0000
vn 0.0000 1.0000 0.0053
vn 0.0003 1.0000 -0.0084
vn 0.0000 1.0000 0.0000
vn 0.0000 1.0000 0.0000
vn 0.0003 1.0000 -0.0084
vn 0.0000 1.0000 0.0053
vn 0.0000 1.0000 0.0000
vn 0.0000 1.0000 0.0000
vn 0.0003 1.0000 -0.0084
vn 0.0000 1.0000 0.0000
vn 0.0000 1.0000 0.0000
vn 0.0000 1.0000 0.0000
vn 0.0000 1.0000 0.0000
vn 0.0000 1.0000 0.0000
vn 0.0000 1.0000 0.0000
vn 0.0000 1.0000 0.0000
vn 0.0003 1.0000 -0.0084
vn 0.0000 1.0000 0.0053
vn 0.0000 1.0000 0.0000
vn 0.0000 1.0000 0.0000
vn 0.0003 1.0000 -0.0084
vn 0.0000 1.0000 0.0000
vn 0.0000 1.0000 0.0000
vn 0.0000 1.0000 0.0000
vn 0.0000 1.0000 0.0000
vn 0.0000 1.0000 0.0000
vn 0.0000 1.0000 0.0000
g cave_1
usemtl wall01_d
f 145/145/145 146/146/146 147/147/147
f 148/148/148 149/149/149 150/150/150
f 151/151/151 152/152/152 153/153/153
f 154/154/154 155/155/155 156/156/156
f 157/157/157 158/158/158 159/159/159
f 160/160/160 161/161/161 162/162/162
f 163/163/163 164/164/164 165/165/165
f 166/166/166 167/167/167 168/168/168
f 169/169/169 170/170/170 171/171/171
f 172/172/172 173/173/173 174/174/174
f 175/175/175 176/176/176 177/177/177
f 178/178/178 179/179/179 180/180/180
