# lamp_h_v4
# generated by tools/assets/build-tiles.js — do not edit
mtllib lamp_h_v4.mtl
o lamp_h_v4
v 1.00000 3.37500 0.40625
v 0.43750 3.50000 0.50000
v 1.16602 3.50000 0.50000
v 1.00000 3.37500 0.40625
v 0.62500 3.37500 0.40625
v 0.43750 3.50000 0.50000
v 1.75000 3.56250 0.43750
v 1.25000 3.56250 0.62500
v 1.75000 3.56250 0.56250
v 1.75000 3.56250 0.43750
v 1.25000 3.56250 0.37500
v 1.25000 3.56250 0.62500
v 0.43750 3.50000 0.50000
v 0.62500 0.18750 0.59375
v 0.62500 3.37500 0.59375
v 0.43750 3.50000 0.50000
v 0.43750 0.18750 0.50000
v 0.62500 0.18750 0.59375
v 1.75000 3.56250 0.56250
v 2.00000 3.37500 0.37500
v 1.75000 3.56250 0.43750
v 1.75000 3.56250 0.56250
v 2.00000 3.37500 0.62500
v 2.00000 3.37500 0.37500
v 1.25000 3.56250 0.62500
v 2.00000 3.37500 0.62500
v 1.75000 3.56250 0.56250
v 1.25000 3.56250 0.62500
v 1.00000 3.37500 0.75000
v 2.00000 3.37500 0.62500
v 1.16602 3.50000 0.50000
v 0.62500 3.37500 0.59375
v 1.00000 3.37500 0.59375
v 1.16602 3.50000 0.50000
v 0.43750 3.50000 0.50000
v 0.62500 3.37500 0.59375
v 2.00000 3.37500 0.37500
v 1.25000 3.56250 0.37500
v 1.75000 3.56250 0.43750
v 2.00000 3.37500 0.37500
v 1.00000 3.37500 0.25000
v 1.25000 3.56250 0.37500
v 1.00000 3.37500 0.75000
v 1.25000 3.56250 0.37500
v 1.00000 3.37500 0.25000
v 1.00000 3.37500 0.75000
v 1.25000 3.56250 0.62500
v 1.25000 3.56250 0.37500
v 0.62500 3.37500 0.40625
v 0.43750 0.18750 0.50000
v 0.43750 3.50000 0.50000
v 0.62500 3.37500 0.40625
v 0.62500 0.18750 0.40625
v 0.43750 0.18750 0.50000
v 0.62500 3.37500 0.59375
v 0.62500 0.18750 0.40625
v 0.62500 3.37500 0.40625
v 0.62500 3.37500 0.59375
v 0.62500 0.18750 0.59375
v 0.62500 0.18750 0.40625
v 1.04883 3.18750 0.27442
v 2.00000 3.37500 0.37500
v 1.95117 3.18750 0.38770
v 1.04883 3.18750 0.27442
v 1.00000 3.37500 0.25000
v 2.00000 3.37500 0.37500
v 1.04883 3.18750 0.72559
v 1.00000 3.37500 0.25000
v 1.04883 3.18750 0.27442
v 1.04883 3.18750 0.72559
v 1.00000 3.37500 0.75000
v 1.00000 3.37500 0.25000
v 2.00000 3.37500 0.62500
v 1.04883 3.18750 0.72559
v 1.95117 3.18750 0.61230
v 2.00000 3.37500 0.62500
v 1.00000 3.37500 0.75000
v 1.04883 3.18750 0.72559
v 2.00000 3.37500 0.62500
v 1.95117 3.18750 0.38770
v 2.00000 3.37500 0.37500
v 2.00000 3.37500 0.62500
v 1.95117 3.18750 0.61230
v 1.95117 3.18750 0.38770
vt 0.31250 -0.75000
vt 0.00000 -0.21875
vt 0.00000 -0.90625
vt 0.31250 -0.75000
vt 0.31250 -0.21875
vt 0.00000 -0.21875
vt 0.93750 -0.28125
vt 0.56250 -0.28125
vt 0.56250 -0.28125
vt 0.93750 -0.28125
vt 0.93750 -0.28125
vt 0.56250 -0.28125
vt 0.00000 0.00000
vt 0.31250 -1.00000
vt 0.31250 -0.03125
vt 0.00000 0.00000
vt 0.00000 -1.00000
vt 0.31250 -1.00000
vt 0.93750 -0.28125
vt 0.56250 -0.59375
vt 0.56250 -0.28125
vt 0.93750 -0.28125
vt 0.93750 -0.59375
vt 0.56250 -0.59375
vt 0.93750 -0.28125
vt 0.56250 -0.59375
vt 0.56250 -0.28125
vt 0.93750 -0.28125
vt 0.93750 -0.59375
vt 0.56250 -0.59375
vt 0.00000 -0.90625
vt 0.31250 -0.21875
vt 0.31250 -0.75000
vt 0.00000 -0.90625
vt 0.00000 -0.21875
vt 0.31250 -0.21875
vt 0.93750 -0.59375
vt 0.56250 -0.28125
vt 0.93750 -0.28125
vt 0.93750 -0.59375
vt 0.56250 -0.59375
vt 0.56250 -0.28125
vt 0.93750 -0.96875
vt 0.56250 -0.65625
vt 0.56250 -0.96875
vt 0.93750 -0.96875
vt 0.93750 -0.65625
vt 0.56250 -0.65625
vt 0.31250 -0.03125
vt 0.00000 -1.00000
vt 0.00000 0.00000
vt 0.31250 -0.03125
vt 0.31250 -1.00000
vt 0.00000 -1.00000
vt 0.31250 -0.03125
vt 0.43750 -1.00000
vt 0.43750 -0.03125
vt 0.31250 -0.03125
vt 0.31250 -1.00000
vt 0.43750 -1.00000
vt 0.87500 -0.15625
vt 0.68750 -0.06250
vt 0.87500 -0.06250
vt 0.87500 -0.15625
vt 0.68750 -0.15625
vt 0.68750 -0.06250
vt 0.87500 -0.15625
vt 0.68750 -0.06250
vt 0.87500 -0.06250
vt 0.87500 -0.15625
vt 0.68750 -0.15625
vt 0.68750 -0.06250
vt 0.87500 -0.15625
vt 0.68750 -0.06250
vt 0.87500 -0.06250
vt 0.87500 -0.15625
vt 0.68750 -0.15625
vt 0.68750 -0.06250
vt 0.87500 -0.15625
vt 0.68750 -0.06250
vt 0.87500 -0.06250
vt 0.87500 -0.15625
vt 0.68750 -0.15625
vt 0.68750 -0.06250
vn 0.0000 0.5995 -0.8004
vn -0.2052 0.5624 -0.8010
vn 0.0000 1.0000 0.0000
vn 0.0000 0.5995 -0.8004
vn -0.2117 -0.5866 -0.7817
vn -0.2052 0.5624 -0.8010
vn 0.2959 0.9314 0.2118
vn -0.2080 0.9529 -0.2205
vn -0.3802 0.7879 0.4844
vn 0.2959 0.9314 0.2118
vn 0.4874 0.8017 -0.3460
vn -0.2080 0.9529 -0.2205
vn -0.2052 0.5624 -0.8010
vn 0.5250 0.0000 0.8511
vn 0.1575 -0.0267 0.9872
vn -0.2052 0.5624 -0.8010
vn -1.0000 0.0000 0.0000
vn 0.5250 0.0000 0.8511
vn -0.3802 0.7879 0.4844
vn 0.4535 0.3514 -0.8190
vn 0.2959 0.9314 0.2118
vn -0.3802 0.7879 0.4844
vn 0.5342 0.5944 0.6010
vn 0.4535 0.3514 -0.8190
vn -0.2080 0.9529 -0.2205
vn 0.5342 0.5944 0.6010
vn -0.3802 0.7879 0.4844
vn -0.2080 0.9529 -0.2205
vn -0.6605 -0.1807 0.7287
vn 0.5342 0.5944 0.6010
vn 0.0000 1.0000 0.0000
vn 0.1575 -0.0267 0.9872
vn 0.0000 0.5996 0.8003
vn 0.0000 1.0000 0.0000
vn -0.2052 0.5624 -0.8010
vn 0.1575 -0.0267 0.9872
vn 0.4535 0.3514 -0.8190
vn 0.4874 0.8017 -0.3460
vn 0.2959 0.9314 0.2118
vn 0.4535 0.3514 -0.8190
vn -0.6605 -0.1806 -0.7287
vn 0.4874 0.8017 -0.3460
vn -0.6605 -0.1807 0.7287
vn 0.4874 0.8017 -0.3460
vn -0.6605 -0.1806 -0.7287
vn -0.6605 -0.1807 0.7287
vn -0.2080 0.9529 -0.2205
vn 0.4874 0.8017 -0.3460
vn -0.2117 -0.5866 -0.7817
vn -1.0000 0.0000 0.0000
vn -0.2052 0.5624 -0.8010
vn -0.2117 -0.5866 -0.7817
vn 0.0601 -0.9935 -0.0971
vn -1.0000 0.0000 0.0000
vn 0.1575 -0.0267 0.9872
vn 0.0601 -0.9935 -0.0971
vn -0.2117 -0.5866 -0.7817
vn 0.1575 -0.0267 0.9872
vn 0.5250 0.0000 0.8511
vn 0.0601 -0.9935 -0.0971
vn -0.5943 -0.2551 -0.7627
vn 0.4535 0.3514 -0.8190
vn 0.6919 -0.2257 -0.6858
vn -0.5943 -0.2551 -0.7627
vn -0.6605 -0.1806 -0.7287
vn 0.4535 0.3514 -0.8190
vn -0.5943 -0.2551 0.7627
vn -0.6605 -0.1806 -0.7287
vn -0.5943 -0.2551 -0.7627
vn -0.5943 -0.2551 0.7627
vn -0.6605 -0.1807 0.7287
vn -0.6605 -0.1806 -0.7287
vn 0.5342 0.5944 0.6010
vn -0.5943 -0.2551 0.7627
vn 0.6919 -0.2257 0.6858
vn 0.5342 0.5944 0.6010
vn -0.6605 -0.1807 0.7287
vn -0.5943 -0.2551 0.7627
vn 0.5342 0.5944 0.6010
vn 0.6919 -0.2257 -0.6858
vn 0.4535 0.3514 -0.8190
vn 0.5342 0.5944 0.6010
vn 0.6919 -0.2257 0.6858
vn 0.6919 -0.2257 -0.6858
g lamp_h_v4_0
usemtl slamp03
f 1/1/1 2/2/2 3/3/3
f 4/4/4 5/5/5 6/6/6
f 7/7/7 8/8/8 9/9/9
f 10/10/10 11/11/11 12/12/12
f 13/13/13 14/14/14 15/15/15
f 16/16/16 17/17/17 18/18/18
f 19/19/19 20/20/20 21/21/21
f 22/22/22 23/23/23 24/24/24
f 25/25/25 26/26/26 27/27/27
f 28/28/28 29/29/29 30/30/30
f 31/31/31 32/32/32 33/33/33
f 34/34/34 35/35/35 36/36/36
f 37/37/37 38/38/38 39/39/39
f 40/40/40 41/41/41 42/42/42
f 43/43/43 44/44/44 45/45/45
f 46/46/46 47/47/47 48/48/48
f 49/49/49 50/50/50 51/51/51
f 52/52/52 53/53/53 54/54/54
f 55/55/55 56/56/56 57/57/57
f 58/58/58 59/59/59 60/60/60
f 61/61/61 62/62/62 63/63/63
f 64/64/64 65/65/65 66/66/66
f 67/67/67 68/68/68 69/69/69
f 70/70/70 71/71/71 72/72/72
f 73/73/73 74/74/74 75/75/75
f 76/76/76 77/77/77 78/78/78
f 79/79/79 80/80/80 81/81/81
f 82/82/82 83/83/83 84/84/84
v 0.31250 0.12500 0.31250
v 0.75000 0.12500 0.68750
v 0.75000 0.12500 0.31250
v 0.31250 0.12500 0.31250
v 0.31250 0.12500 0.68750
v 0.75000 0.12500 0.68750
vt 1.00000 0.00000
vt 0.00000 -1.00000
vt 0.00000 0.00000
vt 1.00000 0.00000
vt 1.00000 -1.00000
vt 0.00000 -1.00000
vn 0.0000 1.0000 0.0000
vn 0.0000 1.0000 0.0000
vn 0.0000 1.0000 0.0000
vn 0.0000 1.0000 0.0000
vn 0.0000 1.0000 0.0000
vn 0.0000 1.0000 0.0000
g lamp_h_v4_1
usemtl kage_out
f 85/85/85 86/86/86 87/87/87
f 88/88/88 89/89/89 90/90/90
