# estalactita
# generated by tools/assets/build-tiles.js — do not edit
mtllib estalactita.mtl
o estalactita
v 0.61133 5.00335 0.42314
v 1.00000 7.99200 0.68387
v 1.00000 6.34493 0.54018
v 0.61133 5.00335 0.42314
v 0.00000 7.99200 0.68387
v 1.00000 7.99200 0.68387
v 1.00000 6.34493 0.54018
v 1.58106 8.24105 0.70560
v 1.30957 6.56577 0.55945
v 1.00000 6.34493 0.54018
v 1.00000 7.99200 0.68387
v 1.58106 8.24105 0.70560
v 0.90918 3.25997 0.27105
v 1.30957 6.56577 0.55945
v 1.13086 4.23478 0.35609
v 0.90918 3.25997 0.27105
v 1.00000 6.34493 0.54018
v 1.30957 6.56577 0.55945
v 0.61914 3.79991 0.31815
v 0.61133 5.00335 0.42314
v 0.84082 3.25997 0.27105
v 0.61914 3.79991 0.31815
v 0.25000 5.65030 0.47958
v 0.61133 5.00335 0.42314
v 0.61133 5.00335 0.42314
v 0.90918 3.25997 0.27105
v 0.84082 3.25997 0.27105
v 0.61133 5.00335 0.42314
v 1.00000 6.34493 0.54018
v 0.90918 3.25997 0.27105
v 0.25000 5.65030 0.47958
v 0.00000 7.99200 0.68387
v 0.61133 5.00335 0.42314
v 0.25000 5.65030 0.47958
v -0.50000 8.24105 0.70560
v 0.00000 7.99200 0.68387
vt -0.04688 -0.70313
vt 0.40625 0.10938
vt 0.40625 -0.37500
vt -0.04688 -0.70313
vt -0.77734 0.10938
vt 0.40625 0.10938
vt 0.40625 -0.37500
vt 1.59375 0.10938
vt 0.93750 -0.25000
vt 0.40625 -0.37500
vt 0.40625 0.10938
vt 1.59375 0.10938
vt 0.40625 -1.10938
vt 0.93750 -0.25000
vt 0.64453 -1.04688
vt 0.40625 -1.10938
vt 0.40625 -0.37500
vt 0.93750 -0.25000
vt -0.06641 -1.04688
vt -0.04688 -0.70313
vt 0.17188 -1.10938
vt -0.06641 -1.04688
vt -0.38281 -0.50000
vt -0.04688 -0.70313
vt -0.04688 -0.70313
vt 0.40625 -1.10938
vt 0.17188 -1.10938
vt -0.04688 -0.70313
vt 0.40625 -0.37500
vt 0.40625 -1.10938
vt -0.38281 -0.50000
vt -0.77734 0.10938
vt -0.04688 -0.70313
vt -0.38281 -0.50000
vt -1.01172 0.10938
vt -0.77734 0.10938
vn 0.0000 0.0869 -0.9962
vn 0.0000 0.0869 -0.9962
vn 0.0000 0.0869 -0.9962
vn 0.0000 0.0869 -0.9962
vn 0.0000 0.0869 -0.9962
vn 0.0000 0.0869 -0.9962
vn 0.0000 0.0869 -0.9962
vn 0.0000 0.0869 -0.9962
vn 0.0000 0.0869 -0.9962
vn 0.0000 0.0869 -0.9962
vn 0.0000 0.0869 -0.9962
vn 0.0000 0.0869 -0.9962
vn 0.0000 0.0869 -0.9962
vn 0.0000 0.0869 -0.9962
vn 0.0000 0.0869 -0.9962
vn 0.0000 0.0869 -0.9962
vn 0.0000 0.0869 -0.9962
vn 0.0000 0.0869 -0.9962
vn 0.0000 0.0869 -0.9962
vn 0.0000 0.0869 -0.9962
vn 0.0000 0.0869 -0.9962
vn 0.0000 0.0869 -0.9962
vn 0.0000 0.0869 -0.9962
vn 0.0000 0.0869 -0.9962
vn 0.0000 0.0869 -0.9962
vn 0.0000 0.0869 -0.9962
vn 0.0000 0.0869 -0.9962
vn 0.0000 0.0869 -0.9962
vn 0.0000 0.0869 -0.9962
vn 0.0000 0.0869 -0.9962
vn 0.0000 0.0869 -0.9962
vn 0.0000 0.0869 -0.9962
vn 0.0000 0.0869 -0.9962
vn 0.0000 0.0869 -0.9962
vn 0.0000 0.0869 -0.9962
vn 0.0000 0.0869 -0.9962
g estalactita_0
usemtl d0yuka_002
f 1/1/1 2/2/2 3/3/3
f 4/4/4 5/5/5 6/6/6
f 7/7/7 8/8/8 9/9/9
f 10/10/10 11/11/11 12/12/12
f 13/13/13 14/14/14 15/15/15
f 16/16/16 17/17/17 18/18/18
f 19/19/19 20/20/20 21/21/21
f 22/22/22 23/23/23 24/24/24
f 25/25/25 26/26/26 27/27/27
f 28/28/28 29/29/29 30/30/30
f 31/31/31 32/32/32 33/33/33
f 34/34/34 35/35/35 36/36/36
