# flower_1
# generated by tools/assets/build-tiles.js — do not edit
mtllib flower_1.mtl
o flower_1
v 1.00000 1.68848 1.53516
v 0.00000 0.14649 0.52148
v 0.00000 1.68848 1.53516
v 1.00000 1.68848 1.53516
v 1.00000 0.14649 0.52148
v 0.00000 0.14649 0.52148
vt 0.48242 0.00000
vt 0.01367 -1.00000
vt 0.01563 0.00000
vt 0.48242 0.00000
vt 0.48438 -1.00000
vt 0.01367 -1.00000
vn 0.0000 1.0000 0.0000
vn 0.0000 1.0000 0.0000
vn 0.0000 1.0000 0.0000
vn 0.0000 1.0000 0.0000
vn 0.0000 1.0000 0.0000
vn 0.0000 1.0000 0.0000
g flower_1_0
usemtl yo_sp1
f 1/1/1 2/2/2 3/3/3
f 4/4/4 5/5/5 6/6/6
