# cave_n
# generated by tools/assets/build-tiles.js — do not edit
mtllib cave_n.mtl
o cave_n
v 2.75250 1.00000 1.99500
v 3.00500 1.00000 3.00500
v 3.00000 1.00000 2.00000
v 2.75250 1.00000 1.99500
v 2.75250 1.00000 3.00500
v 3.00500 1.00000 3.00500
v -1.00500 1.00000 1.99500
v -0.75250 1.00000 3.00500
v -0.75250 1.00000 1.99500
v -1.00500 1.00000 1.99500
v -1.00500 1.00000 3.00500
v -0.75250 1.00000 3.00500
vt 0.75000 0.00000
vt 1.00000 1.00000
vt 1.00000 0.00000
vt 0.75000 0.00000
vt 0.75000 1.00000
vt 1.00000 1.00000
vt 0.00000 0.00000
vt 0.25000 1.00000
vt 0.25000 0.00000
vt 0.00000 0.00000
vt 0.00000 1.00000
vt 0.25000 1.00000
vn 0.0000 1.0000 0.0000
vn 0.0000 1.0000 0.0000
vn 0.0000 1.0000 0.0000
vn 0.0000 1.0000 0.0000
vn 0.0000 1.0000 0.0000
vn 0.0000 1.0000 0.0000
vn 0.0000 1.0000 0.0000
vn 0.0000 1.0000 0.0000
vn 0.0000 1.0000 0.0000
vn 0.0000 1.0000 0.0000
vn 0.0000 1.0000 0.0000
vn 0.0000 1.0000 0.0000
g cave_n_0
usemtl gake_futa
f 1/1/1 2/2/2 3/3/3
f 4/4/4 5/5/5 6/6/6
f 7/7/7 8/8/8 9/9/9
f 10/10/10 11/11/11 12/12/12
v 2.50000 1.00000 2.00000
v 3.00000 0.75000 1.50000
v 2.50000 0.75000 1.50000
v 2.50000 1.00000 2.00000
v 3.00000 1.00000 2.00000
v 3.00000 0.75000 1.50000
v -1.00500 1.00000 1.99500
v -0.50000 0.75000 1.50000
v -1.00000 0.75000 1.50000
v -1.00500 1.00000 1.99500
v -0.50000 1.00000 2.00000
v -0.50000 0.75000 1.50000
v -1.00000 2.00000 3.00000
v 3.00000 1.75000 2.50000
v -1.00000 1.75000 2.50000
v -1.00000 2.00000 3.00000
v 3.00000 2.00000 3.00000
v 3.00000 1.75000 2.50000
vt 0.50000 0.00000
vt 1.00000 -1.00000
vt 0.50000 -1.00000
vt 0.50000 0.00000
vt 1.00000 0.00000
vt 1.00000 -1.00000
vt 0.00000 0.00000
vt 0.50000 -1.00000
vt 0.00000 -1.00000
vt 0.00000 0.00000
vt 0.50000 0.00000
vt 0.50000 -1.00000
vt -3.00000 0.00000
vt 1.00000 -1.00000
vt -3.00000 -1.00000
vt -3.00000 0.00000
vt 1.00000 0.00000
vt 1.00000 -1.00000
vn 0.0000 0.7497 -0.6618
vn 0.0000 0.7497 -0.6618
vn 0.0000 0.7497 -0.6618
vn 0.0000 0.7497 -0.6618
vn 0.0000 0.7497 -0.6618
vn 0.0000 0.7497 -0.6618
vn 0.0033 0.7504 -0.6610
vn 0.0012 0.7490 -0.6626
vn 0.0012 0.7495 -0.6620
vn 0.0033 0.7504 -0.6610
vn 0.0033 0.7490 -0.6626
vn 0.0012 0.7490 -0.6626
vn -0.0113 0.8675 -0.4973
vn 0.0685 0.9067 -0.4161
vn 0.0316 0.8608 -0.5079
vn -0.0113 0.8675 -0.4973
vn -0.0535 0.9028 -0.4266
vn 0.0685 0.9067 -0.4161
g cave_n_1
usemtl gake1_0
f 13/13/13 14/14/14 15/15/15
f 16/16/16 17/17/17 18/18/18
f 19/19/19 20/20/20 21/21/21
f 22/22/22 23/23/23 24/24/24
f 25/25/25 26/26/26 27/27/27
f 28/28/28 29/29/29 30/30/30
v 2.50000 0.00000 1.00000
v 3.00000 0.75000 1.50000
v 3.00000 0.00000 1.00000
v 2.50000 0.00000 1.00000
v 2.50000 0.75000 1.50000
v 3.00000 0.75000 1.50000
v -1.00000 0.00000 1.00000
v -0.50000 0.75000 1.50000
v -0.50000 0.00000 1.00000
v -1.00000 0.00000 1.00000
v -1.00000 0.75000 1.50000
v -0.50000 0.75000 1.50000
v 2.50000 1.00000 2.00000
v 3.00000 1.75000 2.50000
v 3.00000 1.00000 2.00000
v 2.50000 1.00000 2.00000
v 2.50000 1.75000 2.50000
v 3.00000 1.75000 2.50000
v -1.00500 1.00000 1.99500
v -0.50000 1.75000 2.50000
v -0.50000 1.00000 2.00000
v -1.00500 1.00000 1.99500
v -1.00000 1.75000 2.50000
v -0.50000 1.75000 2.50000
vt 0.50000 -1.00000
vt 1.00000 0.00000
vt 1.00000 -1.00000
vt 0.50000 -1.00000
vt 0.50000 0.00000
vt 1.00000 0.00000
vt 0.00000 -1.00000
vt 0.50000 0.00000
vt 0.50000 -1.00000
vt 0.00000 -1.00000
vt 0.00000 0.00000
vt 0.50000 0.00000
vt 0.50000 -1.00000
vt 1.00000 0.00000
vt 1.00000 -1.00000
vt 0.50000 -1.00000
vt 0.50000 0.00000
vt 1.00000 0.00000
vt 0.00000 -1.00000
vt 0.50000 0.00000
vt 0.50000 -1.00000
vt 0.00000 -1.00000
vt 0.00000 0.00000
vt 0.50000 0.00000
vn 0.0000 0.5547 -0.8321
vn 0.0000 0.7497 -0.6618
vn 0.0000 0.5547 -0.8321
vn 0.0000 0.5547 -0.8321
vn 0.0000 0.7497 -0.6618
vn 0.0000 0.7497 -0.6618
vn 0.0000 0.5547 -0.8321
vn 0.0012 0.7490 -0.6626
vn 0.0000 0.5547 -0.8321
vn 0.0000 0.5547 -0.8321
vn 0.0012 0.7495 -0.6620
vn 0.0012 0.7490 -0.6626
vn 0.0000 0.7497 -0.6618
vn 0.0000 0.5547 -0.8321
vn 0.0000 0.7497 -0.6618
vn 0.0000 0.7497 -0.6618
vn -0.0685 0.5254 -0.8481
vn 0.0000 0.5547 -0.8321
vn 0.0033 0.7504 -0.6610
vn -0.0275 0.6128 -0.7898
vn 0.0033 0.7490 -0.6626
vn 0.0033 0.7504 -0.6610
vn 0.0041 0.5566 -0.8308
vn -0.0275 0.6128 -0.7898
g cave_n_2
usemtl gake01a
f 31/31/31 32/32/32 33/33/33
f 34/34/34 35/35/35 36/36/36
f 37/37/37 38/38/38 39/39/39
f 40/40/40 41/41/41 42/42/42
f 43/43/43 44/44/44 45/45/45
f 46/46/46 47/47/47 48/48/48
f 49/49/49 50/50/50 51/51/51
f 52/52/52 53/53/53 54/54/54
v -0.75000 0.12500 2.00000
v 2.75000 1.75000 3.00000
v 2.75000 0.12500 2.00000
v -0.75000 0.12500 2.00000
v -0.75000 1.75000 3.00000
v 2.75000 1.75000 3.00000
v -0.75000 0.12500 1.00000
v 2.75000 0.12500 2.00000
v 2.75000 0.12500 1.00000
v -0.75000 0.12500 1.00000
v -0.75000 0.12500 2.00000
v 2.75000 0.12500 2.00000
v 2.00000 1.50000 2.12500
v 3.00000 0.75000 1.50000
v 2.00000 0.75000 1.37500
v 2.00000 1.50000 2.12500
v 3.00000 1.50000 2.25000
v 3.00000 0.75000 1.50000
v 2.50000 1.75000 2.50000
v 0.00000 1.50000 2.12500
v -0.50000 1.75000 2.50000
v 2.50000 1.75000 2.50000
v 2.00000 1.50000 2.12500
v 0.00000 1.50000 2.12500
v 2.00000 0.12500 0.87500
v 3.00000 0.75000 1.50000
v 3.00000 0.12500 1.00000
v 2.00000 0.12500 0.87500
v 2.00000 0.75000 1.37500
v 3.00000 0.75000 1.50000
v -1.00000 0.75000 1.50000
v 0.00000 1.50000 2.12500
v 0.00000 0.75000 1.37500
v -1.00000 0.75000 1.50000
v -1.00000 1.50000 2.25000
v 0.00000 1.50000 2.12500
v -1.00000 0.75000 1.50000
v 0.00000 0.12500 0.87500
v -1.00000 0.12500 1.00000
v -1.00000 0.75000 1.50000
v 0.00000 0.75000 1.37500
v 0.00000 0.12500 0.87500
v 1.00000 0.12500 0.00000
v 2.00000 0.12500 1.00000
v 2.00000 0.12500 0.00000
v 1.00000 0.12500 0.00000
v 1.00000 0.12500 1.00000
v 2.00000 0.12500 1.00000
v 0.00000 0.12500 0.00000
v 1.00000 0.12500 1.00000
v 1.00000 0.12500 0.00000
v 0.00000 0.12500 0.00000
v 0.00000 0.12500 1.00000
v 1.00000 0.12500 1.00000
v -0.75000 1.75000 3.00000
v -0.75000 0.12500 2.00000
v -0.75000 0.12500 1.00000
v 2.75000 0.12500 1.00000
v 2.75000 1.75000 3.00000
v 2.75000 0.12500 2.00000
v -0.50000 1.75000 2.50000
v 0.00000 1.50000 2.12500
v -1.00000 1.50000 2.25000
v 2.50000 1.75000 2.50000
v 3.00000 1.50000 2.25000
v 2.00000 1.50000 2.12500
vt 0.43750 -0.90625
vt 0.43750 -0.90625
vt 0.43750 -0.90625
vt 0.43750 -0.90625
vt 0.43750 -0.90625
vt 0.43750 -0.90625
vt 0.59375 0.00000
vt 0.37500 -1.00000
vt 0.59375 -1.00000
vt 0.59375 0.00000
vt 0.37500 0.00000
vt 0.37500 -1.00000
vt 0.62500 -3.00000
vt 1.00000 -3.53125
vt 0.62500 -3.53125
vt 0.62500 -3.00000
vt 1.00000 -3.00000
vt 1.00000 -3.53125
vt 0.90625 -3.50000
vt 0.62500 -1.37500
vt 0.90625 -1.00000
vt 0.90625 -3.50000
vt 0.62500 -3.12500
vt 0.62500 -1.37500
vt 0.31250 -0.96875
vt 0.00000 -0.65625
vt 0.00000 -0.96875
vt 0.31250 -0.96875
vt 0.31250 -0.65625
vt 0.00000 -0.65625
vt 1.00000 -3.53125
vt 0.62500 -3.00000
vt 0.62500 -3.53125
vt 1.00000 -3.53125
vt 1.00000 -3.00000
vt 0.62500 -3.00000
vt 0.00000 -0.65625
vt 0.31250 -0.96875
vt 0.00000 -0.96875
vt 0.00000 -0.65625
vt 0.31250 -0.65625
vt 0.31250 -0.96875
vt 0.31250 -0.03125
vt 0.00000 -0.43750
vt 0.31250 -0.43750
vt 0.31250 -0.03125
vt 0.00000 -0.03125
vt 0.00000 -0.43750
vt 0.31250 -0.46875
vt 0.00000 -0.15625
vt 0.00000 -0.46875
vt 0.31250 -0.46875
vt 0.31250 -0.15625
vt 0.00000 -0.15625
vt 0.53125 -0.96875
vt 0.53125 -0.96875
vt 0.53125 -0.96875
vt 0.53125 -0.96875
vt 0.53125 -0.96875
vt 0.53125 -0.96875
vt 0.90625 -4.53125
vt 0.62500 -4.53125
vt 1.00000 -4.78125
vt 0.90625 -4.53125
vt 1.00000 -4.40625
vt 0.62500 -4.53125
vn 0.8590 0.3824 0.3404
vn -0.8412 0.4542 -0.2933
vn -0.5283 0.8044 0.2719
vn 0.8590 0.3824 0.3404
vn 0.1403 -0.3868 -0.9114
vn -0.8412 0.4542 -0.2933
vn -0.5219 0.5925 -0.6136
vn -0.5283 0.8044 0.2719
vn 0.8597 0.0000 -0.5108
vn -0.5219 0.5925 -0.6136
vn 0.8590 0.3824 0.3404
vn -0.5283 0.8044 0.2719
vn -0.0168 0.7350 -0.6779
vn 0.1321 0.6931 -0.7086
vn 0.0833 0.6193 -0.7807
vn -0.0168 0.7350 -0.6779
vn 0.1319 0.7460 -0.6527
vn 0.1321 0.6931 -0.7086
vn 0.0064 0.8314 -0.5557
vn 0.0289 0.7431 -0.6686
vn -0.1292 0.8034 -0.5813
vn 0.0064 0.8314 -0.5557
vn -0.0168 0.7350 -0.6779
vn 0.0289 0.7431 -0.6686
vn 0.0967 0.6220 -0.7770
vn 0.1321 0.6931 -0.7086
vn 0.0976 0.6214 -0.7774
vn 0.0967 0.6220 -0.7770
vn 0.0833 0.6193 -0.7807
vn 0.1321 0.6931 -0.7086
vn -0.1486 0.6609 -0.7356
vn 0.0289 0.7431 -0.6686
vn -0.0365 0.6651 -0.7459
vn -0.1486 0.6609 -0.7356
vn -0.1319 0.7460 -0.6527
vn 0.0289 0.7431 -0.6686
vn -0.1486 0.6609 -0.7356
vn -0.1519 0.6167 -0.7724
vn -0.0421 0.6249 -0.7796
vn -0.1486 0.6609 -0.7356
vn -0.0365 0.6651 -0.7459
vn -0.1519 0.6167 -0.7724
vn 0.0000 1.0000 0.0000
vn 0.0000 1.0000 0.0000
vn 0.0000 1.0000 0.0000
vn 0.0000 1.0000 0.0000
vn 0.0000 1.0000 0.0000
vn 0.0000 1.0000 0.0000
vn 0.0000 1.0000 0.0000
vn 0.0000 1.0000 0.0000
vn 0.0000 1.0000 0.0000
vn 0.0000 1.0000 0.0000
vn 0.0000 1.0000 0.0000
vn 0.0000 1.0000 0.0000
vn 0.1403 -0.3868 -0.9114
vn 0.8590 0.3824 0.3404
vn -0.5219 0.5925 -0.6136
vn 0.0000 -0.5952 -0.8036
vn 0.4878 -0.2921 -0.8226
vn 0.3332 0.9398 0.0754
vn -0.1292 0.8034 -0.5813
vn 0.0289 0.7431 -0.6686
vn -0.1319 0.7460 -0.6527
vn 0.0064 0.8314 -0.5557
vn 0.1319 0.7460 -0.6527
vn -0.0168 0.7350 -0.6779
g cave_n_3
usemtl doukutu01
f 55/55/55 56/56/56 57/57/57
f 58/58/58 59/59/59 60/60/60
f 61/61/61 62/62/62 63/63/63
f 64/64/64 65/65/65 66/66/66
f 67/67/67 68/68/68 69/69/69
f 70/70/70 71/71/71 72/72/72
f 73/73/73 74/74/74 75/75/75
f 76/76/76 77/77/77 78/78/78
f 79/79/79 80/80/80 81/81/81
f 82/82/82 83/83/83 84/84/84
f 85/85/85 86/86/86 87/87/87
f 88/88/88 89/89/89 90/90/90
f 91/91/91 92/92/92 93/93/93
f 94/94/94 95/95/95 96/96/96
f 97/97/97 98/98/98 99/99/99
f 100/100/100 101/101/101 102/102/102
f 103/103/103 104/104/104 105/105/105
f 106/106/106 107/107/107 108/108/108
f 109/109/109 110/110/110 111/111/111
f 112/112/112 113/113/113 114/114/114
f 115/115/115 116/116/116 117/117/117
f 118/118/118 119/119/119 120/120/120
