# cave_e
# generated by tools/assets/build-tiles.js — do not edit
mtllib cave_e.mtl
o cave_e
v 1.99500 1.00000 3.00500
v 2.50000 1.75000 2.50000
v 2.00000 1.00000 2.50000
v 1.99500 1.00000 3.00500
v 2.50000 1.75000 3.00000
v 2.50000 1.75000 2.50000
v 2.00000 1.00000 -0.50000
v 2.50000 1.75000 -1.00000
v 1.99500 1.00000 -1.00500
v 2.00000 1.00000 -0.50000
v 2.50000 1.75000 -0.50000
v 2.50000 1.75000 -1.00000
v 1.00000 0.00000 3.00000
v 1.50000 0.75000 2.50000
v 1.00000 0.00000 2.50000
v 1.00000 0.00000 3.00000
v 1.50000 0.75000 3.00000
v 1.50000 0.75000 2.50000
v 1.00000 0.00000 -0.50000
v 1.50000 0.75000 -1.00000
v 1.00000 0.00000 -1.00000
v 1.00000 0.00000 -0.50000
v 1.50000 0.75000 -0.50000
v 1.50000 0.75000 -1.00000
vt 0.00000 -1.00000
vt 0.50000 0.00000
vt 0.50000 -1.00000
vt 0.00000 -1.00000
vt 0.00000 0.00000
vt 0.50000 0.00000
vt 0.50000 -1.00000
vt 1.00000 0.00000
vt 1.00000 -1.00000
vt 0.50000 -1.00000
vt 0.50000 0.00000
vt 1.00000 0.00000
vt 0.00000 -1.00000
vt 0.50000 0.00000
vt 0.50000 -1.00000
vt 0.00000 -1.00000
vt 0.00000 0.00000
vt 0.50000 0.00000
vt 0.50000 -1.00000
vt 1.00000 0.00000
vt 1.00000 -1.00000
vt 0.50000 -1.00000
vt 0.50000 0.00000
vt 1.00000 0.00000
vn -0.6610 0.7504 -0.0033
vn -0.8308 0.5566 -0.0041
vn -0.6626 0.7490 -0.0033
vn -0.6610 0.7504 -0.0033
vn -0.8308 0.5566 -0.0041
vn -0.8308 0.5566 -0.0041
vn -0.6626 0.7490 0.0033
vn -0.8308 0.5566 0.0041
vn -0.6610 0.7504 0.0033
vn -0.6626 0.7490 0.0033
vn -0.8308 0.5566 0.0041
vn -0.8308 0.5566 0.0041
vn -0.8321 0.5547 0.0000
vn -0.6626 0.7490 -0.0012
vn -0.8321 0.5547 0.0000
vn -0.8321 0.5547 0.0000
vn -0.6620 0.7495 -0.0012
vn -0.6626 0.7490 -0.0012
vn -0.8321 0.5547 0.0000
vn -0.6620 0.7495 0.0012
vn -0.8321 0.5547 0.0000
vn -0.8321 0.5547 0.0000
vn -0.6626 0.7490 0.0012
vn -0.6620 0.7495 0.0012
g cave_e_0
usemtl gake01a
f 1/1/1 2/2/2 3/3/3
f 4/4/4 5/5/5 6/6/6
f 7/7/7 8/8/8 9/9/9
f 10/10/10 11/11/11 12/12/12
f 13/13/13 14/14/14 15/15/15
f 16/16/16 17/17/17 18/18/18
f 19/19/19 20/20/20 21/21/21
f 22/22/22 23/23/23 24/24/24
v 1.99500 1.00000 3.00500
v 1.50000 0.75000 2.50000
v 1.50000 0.75000 3.00000
v 1.99500 1.00000 3.00500
v 2.00000 1.00000 2.50000
v 1.50000 0.75000 2.50000
v 2.00000 1.00000 -0.50000
v 1.50000 0.75000 -1.00000
v 1.50000 0.75000 -0.50000
v 2.00000 1.00000 -0.50000
v 1.99500 1.00000 -1.00500
v 1.50000 0.75000 -1.00000
v 3.00000 2.00000 -1.00000
v 2.50000 1.75000 3.00000
v 3.00000 2.00000 3.00000
v 3.00000 2.00000 -1.00000
v 2.50000 1.75000 -1.00000
v 2.50000 1.75000 3.00000
vt 0.00000 0.00000
vt 0.50000 -1.00000
vt 0.00000 -1.00000
vt 0.00000 0.00000
vt 0.50000 0.00000
vt 0.50000 -1.00000
vt 0.50000 0.00000
vt 1.00000 -1.00000
vt 0.50000 -1.00000
vt 0.50000 0.00000
vt 1.00000 0.00000
vt 1.00000 -1.00000
vt 1.00000 0.00000
vt -3.00000 -1.00000
vt -3.00000 0.00000
vt 1.00000 0.00000
vt 1.00000 -1.00000
vt -3.00000 -1.00000
vn -0.6610 0.7504 -0.0033
vn -0.6626 0.7490 -0.0012
vn -0.6620 0.7495 -0.0012
vn -0.6610 0.7504 -0.0033
vn -0.6626 0.7490 -0.0033
vn -0.6626 0.7490 -0.0012
vn -0.6626 0.7490 0.0033
vn -0.6620 0.7495 0.0012
vn -0.6626 0.7490 0.0012
vn -0.6626 0.7490 0.0033
vn -0.6610 0.7504 0.0033
vn -0.6620 0.7495 0.0012
vn -0.4046 0.9082 0.1069
vn -0.5490 0.8345 0.0467
vn -0.5174 0.8519 0.0818
vn -0.4046 0.9082 0.1069
vn -0.4717 0.8731 -0.1228
vn -0.5490 0.8345 0.0467
g cave_e_1
usemtl gake1_0
f 25/25/25 26/26/26 27/27/27
f 28/28/28 29/29/29 30/30/30
f 31/31/31 32/32/32 33/33/33
f 34/34/34 35/35/35 36/36/36
f 37/37/37 38/38/38 39/39/39
f 40/40/40 41/41/41 42/42/42
v 1.99500 1.00000 -1.00500
v 3.00500 1.00000 -0.75250
v 3.00500 1.00000 -1.00500
v 1.99500 1.00000 -1.00500
v 1.99500 1.00000 -0.75250
v 3.00500 1.00000 -0.75250
v 1.99500 1.00000 2.75250
v 3.00500 1.00000 3.00500
v 3.00500 1.00000 2.75250
v 1.99500 1.00000 2.75250
v 1.99500 1.00000 3.00500
v 3.00500 1.00000 3.00500
vt 0.00000 0.00000
vt 1.00000 0.25000
vt 1.00000 0.00000
vt 0.00000 0.00000
vt 0.00000 0.25000
vt 1.00000 0.25000
vt 0.00000 0.75000
vt 1.00000 1.00000
vt 1.00000 0.75000
vt 0.00000 0.75000
vt 0.00000 1.00000
vt 1.00000 1.00000
vn 0.0000 1.0000 0.0000
vn 0.0000 1.0000 0.0000
vn 0.0000 1.0000 0.0000
vn 0.0000 1.0000 0.0000
vn 0.0000 1.0000 0.0000
vn 0.0000 1.0000 0.0000
vn 0.0000 1.0000 0.0000
vn 0.0000 1.0000 0.0000
vn 0.0000 1.0000 0.0000
vn 0.0000 1.0000 0.0000
vn 0.0000 1.0000 0.0000
vn 0.0000 1.0000 0.0000
g cave_e_2
usemtl gake_futa
f 43/43/43 44/44/44 45/45/45
f 46/46/46 47/47/47 48/48/48
f 49/49/49 50/50/50 51/51/51
f 52/52/52 53/53/53 54/54/54
v 2.00000 0.12500 2.75000
v 3.00000 1.75000 -0.75000
v 2.00000 0.12500 -0.75000
v 2.00000 0.12500 2.75000
v 3.00000 1.75000 2.75000
v 3.00000 1.75000 -0.75000
v 1.00000 0.12500 2.75000
v 2.00000 0.12500 -0.75000
v 1.00000 0.12500 -0.75000
v 1.00000 0.12500 2.75000
v 2.00000 0.12500 2.75000
v 2.00000 0.12500 -0.75000
v 2.12500 1.50000 0.00000
v 1.50000 0.75000 -1.00000
v 1.37500 0.75000 0.00000
v 2.12500 1.50000 0.00000
v 2.25000 1.50000 -1.00000
v 1.50000 0.75000 -1.00000
v 2.50000 1.75000 -0.50000
v 2.12500 1.50000 2.00000
v 2.50000 1.75000 2.50000
v 2.50000 1.75000 -0.50000
v 2.12500 1.50000 0.00000
v 2.12500 1.50000 2.00000
v 0.87500 0.12500 0.00000
v 1.50000 0.75000 -1.00000
v 1.00000 0.12500 -1.00000
v 0.87500 0.12500 0.00000
v 1.37500 0.75000 0.00000
v 1.50000 0.75000 -1.00000
v 1.50000 0.75000 3.00000
v 2.12500 1.50000 2.00000
v 1.37500 0.75000 2.00000
v 1.50000 0.75000 3.00000
v 2.25000 1.50000 3.00000
v 2.12500 1.50000 2.00000
v 1.50000 0.75000 3.00000
v 0.87500 0.12500 2.00000
v 1.00000 0.12500 3.00000
v 1.50000 0.75000 3.00000
v 1.37500 0.75000 2.00000
v 0.87500 0.12500 2.00000
v 0.00000 0.12500 1.00000
v 1.00000 0.12500 0.00000
v 0.00000 0.12500 0.00000
v 0.00000 0.12500 1.00000
v 1.00000 0.12500 1.00000
v 1.00000 0.12500 0.00000
v 0.00000 0.12500 2.00000
v 1.00000 0.12500 1.00000
v 0.00000 0.12500 1.00000
v 0.00000 0.12500 2.00000
v 1.00000 0.12500 2.00000
v 1.00000 0.12500 1.00000
v 3.00000 1.75000 2.75000
v 2.00000 0.12500 2.75000
v 1.00000 0.12500 2.75000
v 1.00000 0.12500 -0.75000
v 3.00000 1.75000 -0.75000
v 2.00000 0.12500 -0.75000
v 2.50000 1.75000 2.50000
v 2.12500 1.50000 2.00000
v 2.25000 1.50000 3.00000
v 2.50000 1.75000 -0.50000
v 2.25000 1.50000 -1.00000
v 2.12500 1.50000 0.00000
vt 0.43750 -0.90625
vt 0.43750 -0.90625
vt 0.43750 -0.90625
vt 0.43750 -0.90625
vt 0.43750 -0.90625
vt 0.43750 -0.90625
vt 0.59375 0.00000
vt 0.37500 -1.00000
vt 0.59375 -1.00000
vt 0.59375 0.00000
vt 0.37500 0.00000
vt 0.37500 -1.00000
vt 0.62500 -3.00000
vt 1.00000 -3.53125
vt 0.62500 -3.53125
vt 0.62500 -3.00000
vt 1.00000 -3.00000
vt 1.00000 -3.53125
vt 0.90625 -3.50000
vt 0.62500 -1.37500
vt 0.90625 -1.00000
vt 0.90625 -3.50000
vt 0.62500 -3.12500
vt 0.62500 -1.37500
vt 0.31250 -0.96875
vt 0.00000 -0.65625
vt 0.00000 -0.96875
vt 0.31250 -0.96875
vt 0.31250 -0.65625
vt 0.00000 -0.65625
vt 1.00000 -3.53125
vt 0.62500 -3.00000
vt 0.62500 -3.53125
vt 1.00000 -3.53125
vt 1.00000 -3.00000
vt 0.62500 -3.00000
vt 0.00000 -0.65625
vt 0.31250 -0.96875
vt 0.00000 -0.96875
vt 0.00000 -0.65625
vt 0.31250 -0.65625
vt 0.31250 -0.96875
vt 0.31250 -0.03125
vt 0.00000 -0.43750
vt 0.31250 -0.43750
vt 0.31250 -0.03125
vt 0.00000 -0.03125
vt 0.00000 -0.43750
vt 0.31250 -0.46875
vt 0.00000 -0.15625
vt 0.00000 -0.46875
vt 0.31250 -0.46875
vt 0.31250 -0.15625
vt 0.00000 -0.15625
vt 0.53125 -0.96875
vt 0.53125 -0.96875
vt 0.53125 -0.96875
vt 0.53125 -0.96875
vt 0.53125 -0.96875
vt 0.53125 -0.96875
vt 0.90625 -4.53125
vt 0.62500 -4.53125
vt 1.00000 -4.78125
vt 0.90625 -4.53125
vt 1.00000 -4.40625
vt 0.62500 -4.53125
vn 0.3404 0.3824 -0.8590
vn -0.2933 0.4542 0.8412
vn 0.2719 0.8044 0.5282
vn 0.3404 0.3824 -0.8590
vn -0.9114 -0.3868 -0.1403
vn -0.2933 0.4542 0.8412
vn -0.6136 0.5925 0.5219
vn 0.2719 0.8044 0.5282
vn -0.5108 0.0000 -0.8597
vn -0.6136 0.5925 0.5219
vn 0.3404 0.3824 -0.8590
vn 0.2719 0.8044 0.5282
vn -0.6779 0.7350 0.0168
vn -0.7086 0.6931 -0.1321
vn -0.7807 0.6193 -0.0833
vn -0.6779 0.7350 0.0168
vn -0.6527 0.7460 -0.1319
vn -0.7086 0.6931 -0.1321
vn -0.4973 0.8667 -0.0394
vn -0.6686 0.7431 -0.0289
vn -0.5132 0.8483 0.1308
vn -0.4973 0.8667 -0.0394
vn -0.6779 0.7350 0.0168
vn -0.6686 0.7431 -0.0289
vn -0.7770 0.6220 -0.0967
vn -0.7086 0.6931 -0.1321
vn -0.7774 0.6214 -0.0976
vn -0.7770 0.6220 -0.0967
vn -0.7807 0.6193 -0.0833
vn -0.7086 0.6931 -0.1321
vn -0.7356 0.6609 0.1486
vn -0.6686 0.7431 -0.0289
vn -0.7459 0.6651 0.0365
vn -0.7356 0.6609 0.1486
vn -0.6527 0.7460 0.1319
vn -0.6686 0.7431 -0.0289
vn -0.7356 0.6609 0.1486
vn -0.7724 0.6167 0.1519
vn -0.7796 0.6249 0.0421
vn -0.7356 0.6609 0.1486
vn -0.7459 0.6651 0.0365
vn -0.7724 0.6167 0.1519
vn 0.0000 1.0000 0.0000
vn 0.0000 1.0000 0.0000
vn 0.0000 1.0000 0.0000
vn 0.0000 1.0000 0.0000
vn 0.0000 1.0000 0.0000
vn 0.0000 1.0000 0.0000
vn 0.0000 1.0000 0.0000
vn 0.0000 1.0000 0.0000
vn 0.0000 1.0000 0.0000
vn 0.0000 1.0000 0.0000
vn 0.0000 1.0000 0.0000
vn 0.0000 1.0000 0.0000
vn -0.9114 -0.3868 -0.1403
vn 0.3404 0.3824 -0.8590
vn -0.6136 0.5925 0.5219
vn -0.8036 -0.5952 0.0000
vn -0.8226 -0.2921 -0.4878
vn 0.0754 0.9398 -0.3332
vn -0.5132 0.8483 0.1308
vn -0.6686 0.7431 -0.0289
vn -0.6527 0.7460 0.1319
vn -0.4973 0.8667 -0.0394
vn -0.6527 0.7460 -0.1319
vn -0.6779 0.7350 0.0168
g cave_e_3
usemtl doukutu01
f 55/55/55 56/56/56 57/57/57
f 58/58/58 59/59/59 60/60/60
f 61/61/61 62/62/62 63/63/63
f 64/64/64 65/65/65 66/66/66
f 67/67/67 68/68/68 69/69/69
f 70/70/70 71/71/71 72/72/72
f 73/73/73 74/74/74 75/75/75
f 76/76/76 77/77/77 78/78/78
f 79/79/79 80/80/80 81/81/81
f 82/82/82 83/83/83 84/84/84
f 85/85/85 86/86/86 87/87/87
f 88/88/88 89/89/89 90/90/90
f 91/91/91 92/92/92 93/93/93
f 94/94/94 95/95/95 96/96/96
f 97/97/97 98/98/98 99/99/99
f 100/100/100 101/101/101 102/102/102
f 103/103/103 104/104/104 105/105/105
f 106/106/106 107/107/107 108/108/108
f 109/109/109 110/110/110 111/111/111
f 112/112/112 113/113/113 114/114/114
f 115/115/115 116/116/116 117/117/117
f 118/118/118 119/119/119 120/120/120
