# r0_grass_decal01
# generated by tools/assets/build-tiles.js — do not edit
mtllib r0_grass_decal01.mtl
o r0_grass_decal01
v 0.00000 0.03125 0.00000
v 1.00000 0.03125 1.00000
v 1.00000 0.03125 0.00000
v 0.00000 0.03125 0.00000
v 0.00000 0.03125 1.00000
v 1.00000 0.03125 1.00000
vt 0.00000 0.00000
vt 1.00000 1.00000
vt 1.00000 0.00000
vt 0.00000 0.00000
vt 0.00000 1.00000
vt 1.00000 1.00000
vn 0.0000 1.0000 0.0000
vn 0.0000 1.0000 0.0000
vn 0.0000 1.0000 0.0000
vn 0.0000 1.0000 0.0000
vn 0.0000 1.0000 0.0000
vn 0.0000 1.0000 0.0000
g r0_grass_decal01_0
usemtl ue_grass00
f 1/1/1 2/2/2 3/3/3
f 4/4/4 5/5/5 6/6/6
