# Blender 5.2.1 LTS
# www.blender.org
mtllib pile_of_logs.mtl
o sylvan-town__pile_of_logs
v 0.000000 1.000000 0.000000
v 2.000000 1.000000 0.000000
v 2.000000 1.000000 2.909239
v 0.000000 1.000000 2.909239
v 0.000000 1.000000 2.909239
v 2.000000 1.000000 2.909239
v 2.000000 1.000000 0.000000
v 0.000000 1.000000 0.000000
v 1.000000 0.000000 0.000000
v 1.000000 2.000000 0.000000
v 1.000000 2.000000 2.909239
v 1.000000 0.000000 2.909239
v 1.000000 0.000000 2.909239
v 1.000000 2.000000 2.909239
v 1.000000 2.000000 0.000000
v 1.000000 0.000000 0.000000
vn -0.0000 -1.0000 -0.0000
vn -0.0000 1.0000 -0.0000
vn 1.0000 -0.0000 -0.0000
vn -1.0000 -0.0000 -0.0000
vt 0.471973 0.005353
vt 0.027739 0.567759
vt 0.027739 0.005353
vt 0.471973 0.567759
s 0
usemtl Decoration.040
f 2/1/1 4/2/1 1/3/1
f 6/4/2 8/3/2 5/2/2
f 10/1/3 12/2/3 9/3/3
f 14/4/4 16/3/4 13/2/4
f 2/1/1 3/4/1 4/2/1
f 6/4/2 7/1/2 8/3/2
f 10/1/3 11/4/3 12/2/3
f 14/4/4 15/1/4 16/3/4
