# bench_n
# generated by tools/assets/build-tiles.js — do not edit
mtllib bench_n.mtl
o bench_n
v 0.20675 0.90943 -0.01771
v 0.20675 0.09693 -0.14271
v 0.20675 0.40943 -0.01771
v 0.20675 0.90943 -0.01771
v 0.20675 0.90943 -0.14271
v 0.20675 0.09693 -0.14271
v 0.20675 0.09693 -0.14271
v 0.20675 0.40943 0.54479
v 0.20675 0.40943 -0.01771
v 0.20675 0.09693 -0.14271
v 0.20675 0.09693 0.54479
v 0.20675 0.40943 0.54479
v 0.20675 0.90943 -0.14271
v 1.70675 0.09693 -0.14271
v 0.20675 0.09693 -0.14271
v 0.20675 0.90943 -0.14271
v 1.70675 0.90943 -0.14271
v 1.70675 0.09693 -0.14271
v 1.70675 0.40943 -0.01771
v 1.70675 0.09693 0.54479
v 1.70675 0.09693 -0.14271
v 1.70675 0.40943 -0.01771
v 1.70675 0.40943 0.54479
v 1.70675 0.09693 0.54479
v 0.20675 0.90943 -0.01771
v 1.70675 0.40943 -0.01771
v 1.70675 0.90943 -0.01771
v 0.20675 0.90943 -0.01771
v 0.20675 0.40943 -0.01771
v 1.70675 0.40943 -0.01771
v 0.20675 0.40943 -0.01771
v 1.70675 0.40943 0.54479
v 1.70675 0.40943 -0.01771
v 0.20675 0.40943 -0.01771
v 0.20675 0.40943 0.54479
v 1.70675 0.40943 0.54479
v 0.20675 0.90943 -0.14271
v 1.70675 0.90943 -0.01771
v 1.70675 0.90943 -0.14271
v 0.20675 0.90943 -0.14271
v 0.20675 0.90943 -0.01771
v 1.70675 0.90943 -0.01771
v 1.70675 0.90943 -0.14271
v 1.70675 0.40943 -0.01771
v 1.70675 0.09693 -0.14271
v 1.70675 0.90943 -0.14271
v 1.70675 0.90943 -0.01771
v 1.70675 0.40943 -0.01771
vt 0.94922 -0.77734
vt 0.98828 -0.97852
vt 0.94922 -0.90039
vt 0.94922 -0.77734
vt 0.98828 -0.77734
vt 0.98828 -0.97852
vt 1.00000 -1.00000
vt 0.00000 -0.78711
vt 1.00000 -0.78711
vt 1.00000 -1.00000
vt 0.00000 -1.00000
vt 0.00000 -0.78711
vt 1.00000 -0.40625
vt 0.00000 -1.00000
vt 1.00000 -1.00000
vt 1.00000 -0.40625
vt 0.00000 -0.40625
vt 0.00000 -1.00000
vt 1.00000 -0.78711
vt 0.00000 -1.00000
vt 1.00000 -1.00000
vt 1.00000 -0.78711
vt 0.00000 -0.78711
vt 0.00000 -1.00000
vt 1.00000 -0.09375
vt 0.00000 -0.40625
vt 0.00000 -0.09375
vt 1.00000 -0.09375
vt 1.00000 -0.40625
vt 0.00000 -0.40625
vt 1.00000 -0.40625
vt 0.00000 -0.75000
vt 0.00000 -0.40625
vt 1.00000 -0.40625
vt 1.00000 -0.75000
vt 0.00000 -0.75000
vt 1.00000 0.00000
vt 0.00000 -0.09375
vt 0.00000 0.00000
vt 1.00000 0.00000
vt 1.00000 -0.09375
vt 0.00000 -0.09375
vt 0.98828 -0.77734
vt 0.94922 -0.90039
vt 0.98828 -0.97852
vt 0.98828 -0.77734
vt 0.94922 -0.77734
vt 0.94922 -0.90039
vn -0.5774 0.5774 0.5774
vn -0.7071 0.0000 -0.7071
vn -0.9045 0.3015 0.3015
vn -0.5774 0.5774 0.5774
vn -0.5774 0.5774 -0.5774
vn -0.7071 0.0000 -0.7071
vn -0.7071 0.0000 -0.7071
vn -0.7071 0.7071 0.0000
vn -0.9045 0.3015 0.3015
vn -0.7071 0.0000 -0.7071
vn -1.0000 0.0000 0.0000
vn -0.7071 0.7071 0.0000
vn -0.5774 0.5774 -0.5774
vn 0.7071 0.0000 -0.7071
vn -0.7071 0.0000 -0.7071
vn -0.5774 0.5774 -0.5774
vn 0.5774 0.5774 -0.5774
vn 0.7071 0.0000 -0.7071
vn 0.9045 0.3015 0.3015
vn 1.0000 0.0000 0.0000
vn 0.7071 0.0000 -0.7071
vn 0.9045 0.3015 0.3015
vn 0.7071 0.7071 0.0000
vn 1.0000 0.0000 0.0000
vn -0.5774 0.5774 0.5774
vn 0.9045 0.3015 0.3015
vn 0.5774 0.5774 0.5774
vn -0.5774 0.5774 0.5774
vn -0.9045 0.3015 0.3015
vn 0.9045 0.3015 0.3015
vn -0.9045 0.3015 0.3015
vn 0.7071 0.7071 0.0000
vn 0.9045 0.3015 0.3015
vn -0.9045 0.3015 0.3015
vn -0.7071 0.7071 0.0000
vn 0.7071 0.7071 0.0000
vn -0.5774 0.5774 -0.5774
vn 0.5774 0.5774 0.5774
vn 0.5774 0.5774 -0.5774
vn -0.5774 0.5774 -0.5774
vn -0.5774 0.5774 0.5774
vn 0.5774 0.5774 0.5774
vn 0.5774 0.5774 -0.5774
vn 0.9045 0.3015 0.3015
vn 0.7071 0.0000 -0.7071
vn 0.5774 0.5774 -0.5774
vn 0.5774 0.5774 0.5774
vn 0.9045 0.3015 0.3015
g bench_n_0
usemtl isu
f 1/1/1 2/2/2 3/3/3
f 4/4/4 5/5/5 6/6/6
f 7/7/7 8/8/8 9/9/9
f 10/10/10 11/11/11 12/12/12
f 13/13/13 14/14/14 15/15/15
f 16/16/16 17/17/17 18/18/18
f 19/19/19 20/20/20 21/21/21
f 22/22/22 23/23/23 24/24/24
f 25/25/25 26/26/26 27/27/27
f 28/28/28 29/29/29 30/30/30
f 31/31/31 32/32/32 33/33/33
f 34/34/34 35/35/35 36/36/36
f 37/37/37 38/38/38 39/39/39
f 40/40/40 41/41/41 42/42/42
f 43/43/43 44/44/44 45/45/45
f 46/46/46 47/47/47 48/48/48
v 0.08078 0.03541 -0.16614
v 1.76535 0.03541 0.67272
v 1.76535 0.03541 -0.16614
v 0.08078 0.03541 -0.16614
v 0.08078 0.03541 0.67272
v 1.76535 0.03541 0.67272
vt 0.93750 -0.29688
vt 0.07031 -0.92188
vt 0.93750 -0.92188
vt 0.93750 -0.29688
vt 0.07031 -0.29688
vt 0.07031 -0.92188
vn 0.0000 1.0000 0.0000
vn 0.0000 1.0000 0.0000
vn 0.0000 1.0000 0.0000
vn 0.0000 1.0000 0.0000
vn 0.0000 1.0000 0.0000
vn 0.0000 1.0000 0.0000
g bench_n_1
usemtl h_kage
f 49/49/49 50/50/50 51/51/51
f 52/52/52 53/53/53 54/54/54
