# rot_rocks
# generated by tools/assets/build-tiles.js — do not edit
mtllib rot_rocks.mtl
o rot_rocks
v -0.10416 0.12500 1.25543
v 1.10373 0.12500 0.52021
v 0.13218 0.12500 0.28387
v -0.10416 0.12500 1.25543
v 0.86825 0.12500 1.49224
v 1.10373 0.12500 0.52021
vt 1.00000 1.00000
vt 0.00000 0.00000
vt 0.00000 1.00000
vt 1.00000 1.00000
vt 1.00000 0.00000
vt 0.00000 0.00000
vn 0.0000 1.0000 0.0000
vn 0.0000 1.0000 0.0000
vn 0.0000 1.0000 0.0000
vn 0.0000 1.0000 0.0000
vn 0.0000 1.0000 0.0000
vn 0.0000 1.0000 0.0000
g rot_rocks_0
usemtl michi_isi
f 1/1/1 2/2/2 3/3/3
f 4/4/4 5/5/5 6/6/6
