# ecave_light_mud
# generated by tools/assets/build-tiles.js — do not edit
mtllib ecave_light_mud.mtl
o ecave_light_mud
v 0.51172 0.12500 0.13672
v 2.23828 0.12500 1.86328
v 2.23828 0.12500 0.13672
v 0.51172 0.12500 0.13672
v 0.51172 0.12500 1.86328
v 2.23828 0.12500 1.86328
vt 1.00000 0.00000
vt 0.00000 -1.00000
vt 0.00000 0.00000
vt 1.00000 0.00000
vt 1.00000 -1.00000
vt 0.00000 -1.00000
vn 0.0000 1.0000 0.0000
vn 0.0000 1.0000 0.0000
vn 0.0000 1.0000 0.0000
vn 0.0000 1.0000 0.0000
vn 0.0000 1.0000 0.0000
vn 0.0000 1.0000 0.0000
g ecave_light_mud_0
usemtl yuka_002
f 1/1/1 2/2/2 3/3/3
f 4/4/4 5/5/5 6/6/6
