# ecave_exit_v4
# generated by tools/assets/build-tiles.js — do not edit
mtllib ecave_exit_v4.mtl
o ecave_exit_v4
v 1.00000 3.00000 2.50000
v 0.00000 3.00000 3.62500
v 1.50000 3.00000 3.62500
v 1.00000 3.00000 2.50000
v 0.00000 3.00000 2.50000
v 0.00000 3.00000 3.62500
v 1.50000 3.00000 1.37500
v 0.00000 3.00000 2.50000
v 1.00000 3.00000 2.50000
v 1.50000 3.00000 1.37500
v 0.00000 3.00000 1.37500
v 0.00000 3.00000 2.50000
v 1.50000 3.00000 3.62500
v 0.00000 3.00000 5.00000
v 2.00000 3.00000 5.00000
v 1.50000 3.00000 3.62500
v 0.00000 3.00000 3.62500
v 0.00000 3.00000 5.00000
vt -4.25000 -8.50000
vt -4.81250 -9.00000
vt -4.81250 -8.25000
vt -4.25000 -8.50000
vt -4.25000 -9.00000
vt -4.81250 -9.00000
vt -3.68750 -8.25000
vt -4.25000 -9.00000
vt -4.25000 -8.50000
vt -3.68750 -8.25000
vt -3.68750 -9.00000
vt -4.25000 -9.00000
vt -4.81250 -8.25000
vt -5.50000 -9.00000
vt -5.50000 -8.00000
vt -4.81250 -8.25000
vt -4.81250 -9.00000
vt -5.50000 -9.00000
vn 0.0000 1.0000 0.0000
vn 0.0000 1.0000 0.0000
vn 0.0000 1.0000 0.0000
vn 0.0000 1.0000 0.0000
vn 0.0000 1.0000 0.0000
vn 0.0000 1.0000 0.0000
vn 0.0000 1.0000 0.0000
vn 0.0000 1.0000 0.0000
vn 0.0000 1.0000 0.0000
vn 0.0000 1.0000 0.0000
vn 0.0000 1.0000 0.0000
vn 0.0000 1.0000 0.0000
vn 0.0000 1.0000 0.0000
vn 0.0000 1.0000 0.0000
vn 0.0000 1.0000 0.0000
vn 0.0000 1.0000 0.0000
vn 0.0000 1.0000 0.0000
vn 0.0000 1.0000 0.0000
g ecave_exit_v4_0
usemtl yuka_001
f 1/1/1 2/2/2 3/3/3
f 4/4/4 5/5/5 6/6/6
f 7/7/7 8/8/8 9/9/9
f 10/10/10 11/11/11 12/12/12
f 13/13/13 14/14/14 15/15/15
f 16/16/16 17/17/17 18/18/18
v 0.00000 3.00000 1.37500
v 2.00000 3.00000 0.00000
v 0.00000 3.00000 0.00000
v 0.00000 3.00000 1.37500
v 1.50000 3.00000 1.37500
v 2.00000 3.00000 0.00000
vt 0.00000 -1.00000
vt 1.00000 0.00000
vt 1.00000 -1.00000
vt 0.00000 -1.00000
vt 0.00000 0.00000
vt 1.00000 0.00000
vn 0.0000 1.0000 0.0000
vn 0.0000 1.0000 0.0000
vn 0.0000 1.0000 0.0000
vn 0.0000 1.0000 0.0000
vn 0.0000 1.0000 0.0000
vn 0.0000 1.0000 0.0000
g ecave_exit_v4_1
usemtl yuka_002
f 19/19/19 20/20/20 21/21/21
f 22/22/22 23/23/23 24/24/24
v 4.25000 0.18750 1.31152
v 5.06055 0.18750 1.00000
v 4.25000 0.18750 1.00000
v 4.25000 0.18750 1.31152
v 5.06055 0.18750 1.37598
v 5.06055 0.18750 1.00000
v 6.25000 0.18750 2.50000
v 5.06054 0.18750 3.69043
v 6.25000 0.18750 3.58301
v 6.25000 0.18750 2.50000
v 5.06055 0.18750 2.50000
v 5.06054 0.18750 3.69043
v 4.25000 0.18750 4.00000
v 5.06054 0.18750 3.69043
v 4.25000 0.18750 3.76367
v 4.25000 0.18750 4.00000
v 5.06054 0.18750 4.00000
v 5.06054 0.18750 3.69043
v 4.25000 0.18750 3.76367
v 5.06055 0.18750 2.50000
v 4.25000 0.18750 2.50000
v 4.25000 0.18750 3.76367
v 5.06054 0.18750 3.69043
v 5.06055 0.18750 2.50000
v 6.25000 0.18750 1.47070
v 5.06055 0.18750 2.50000
v 6.25000 0.18750 2.50000
v 6.25000 0.18750 1.47070
v 5.06055 0.18750 1.37598
v 5.06055 0.18750 2.50000
v 4.25000 0.18750 2.50000
v 5.06055 0.18750 1.37598
v 4.25000 0.18750 1.31152
v 4.25000 0.18750 2.50000
v 5.06055 0.18750 2.50000
v 5.06055 0.18750 1.37598
v 1.50000 1.60742 2.50000
v 4.25000 0.18750 1.00000
v 1.50000 1.60742 1.00000
v 1.50000 1.60742 2.50000
v 4.25000 0.18750 2.50000
v 4.25000 0.18750 1.00000
v 1.50000 1.60742 4.00000
v 4.25000 0.18750 2.50000
v 1.50000 1.60742 2.50000
v 1.50000 1.60742 4.00000
v 4.25000 0.18750 4.00000
v 4.25000 0.18750 2.50000
v 4.25000 0.18750 4.00000
v 2.50000 1.68945 3.59375
v 5.00000 0.12500 4.00000
v 2.50000 1.68945 3.59375
v 4.25000 0.18750 4.00000
v 1.50000 1.60742 4.00000
v 4.25000 0.18750 1.00000
v 2.50000 1.68945 1.03125
v 1.50000 1.60742 1.00000
vt 0.01172 -0.07227
vt 0.01172 0.00000
vt 0.01172 0.00000
vt 0.01172 -0.07227
vt 0.01172 -0.07227
vt 0.01172 0.00000
vt 0.50000 -0.93750
vt -0.04492 -0.41797
vt 0.00391 -0.93750
vt 0.50000 -0.93750
vt 0.50000 -0.41797
vt -0.04492 -0.41797
vt 0.01172 -0.07227
vt 0.01172 0.00000
vt 0.01172 0.00000
vt 0.01172 -0.07227
vt 0.01172 -0.07227
vt 0.01172 0.00000
vt -0.08008 -0.06250
vt 0.50000 -0.41797
vt 0.50000 -0.06250
vt -0.08008 -0.06250
vt -0.04492 -0.41797
vt 0.50000 -0.41797
vt 0.97266 -0.93750
vt 0.50000 -0.41797
vt 0.50000 -0.93750
vt 0.97266 -0.93750
vt 1.01563 -0.41797
vt 0.50000 -0.41797
vt 0.50000 -0.06250
vt 1.01563 -0.41797
vt 1.04492 -0.06250
vt 0.50000 -0.06250
vt 0.50000 -0.41797
vt 1.01563 -0.41797
vt 0.50000 -0.12500
vt 0.50000 -0.12500
vt 0.50000 -0.12500
vt 0.50000 -0.12500
vt 0.50000 -0.12500
vt 0.50000 -0.12500
vt 0.50000 -0.12500
vt 0.50000 -0.12500
vt 0.50000 -0.12500
vt 0.50000 -0.12500
vt 0.50000 -0.12500
vt 0.50000 -0.12500
vt 0.01172 0.00000
vt 1.00000 -0.07227
vt 0.55273 -0.03906
vt 1.00000 -0.07227
vt 0.01172 0.00000
vt 1.00000 0.00000
vt 0.00000 0.00000
vt 0.99609 -0.07227
vt 0.99609 0.00000
vn 0.0000 1.0000 0.0000
vn 0.0000 1.0000 0.0000
vn 0.0000 1.0000 0.0000
vn 0.0000 1.0000 0.0000
vn 0.0000 1.0000 0.0000
vn 0.0000 1.0000 0.0000
vn 0.0000 1.0000 0.0000
vn 0.0000 1.0000 0.0000
vn 0.0000 1.0000 0.0000
vn 0.0000 1.0000 0.0000
vn 0.0000 1.0000 0.0000
vn 0.0000 1.0000 0.0000
vn 0.0000 1.0000 0.0000
vn 0.0000 1.0000 0.0000
vn 0.0000 1.0000 0.0000
vn 0.0000 1.0000 0.0000
vn 0.0000 1.0000 0.0000
vn 0.0000 1.0000 0.0000
vn 0.0000 1.0000 0.0000
vn 0.0000 1.0000 0.0000
vn 0.0000 1.0000 0.0000
vn 0.0000 1.0000 0.0000
vn 0.0000 1.0000 0.0000
vn 0.0000 1.0000 0.0000
vn 0.0000 1.0000 0.0000
vn 0.0000 1.0000 0.0000
vn 0.0000 1.0000 0.0000
vn 0.0000 1.0000 0.0000
vn 0.0000 1.0000 0.0000
vn 0.0000 1.0000 0.0000
vn 0.0000 1.0000 0.0000
vn 0.0000 1.0000 0.0000
vn 0.0000 1.0000 0.0000
vn 0.0000 1.0000 0.0000
vn 0.0000 1.0000 0.0000
vn 0.0000 1.0000 0.0000
vn 0.4588 0.8885 0.0000
vn 0.4538 0.8788 0.1478
vn 0.4313 0.8352 0.3412
vn 0.4588 0.8885 0.0000
vn 0.4588 0.8885 0.0000
vn 0.4538 0.8788 0.1478
vn 0.4177 0.8091 -0.4134
vn 0.4588 0.8885 0.0000
vn 0.4588 0.8885 0.0000
vn 0.4177 0.8091 -0.4134
vn 0.2123 0.1916 -0.9582
vn 0.4588 0.8885 0.0000
vn 0.2123 0.1916 -0.9582
vn -0.2631 -0.5255 -0.8091
vn -0.0239 -0.2869 -0.9577
vn -0.2631 -0.5255 -0.8091
vn 0.2123 0.1916 -0.9582
vn 0.4177 0.8091 -0.4134
vn 0.4538 0.8788 0.1478
vn -0.0269 -0.0521 0.9983
vn 0.4313 0.8352 0.3412
g ecave_exit_v4_2
usemtl d6ana_004
f 25/25/25 26/26/26 27/27/27
f 28/28/28 29/29/29 30/30/30
f 31/31/31 32/32/32 33/33/33
f 34/34/34 35/35/35 36/36/36
f 37/37/37 38/38/38 39/39/39
f 40/40/40 41/41/41 42/42/42
f 43/43/43 44/44/44 45/45/45
f 46/46/46 47/47/47 48/48/48
f 49/49/49 50/50/50 51/51/51
f 52/52/52 53/53/53 54/54/54
f 55/55/55 56/56/56 57/57/57
f 58/58/58 59/59/59 60/60/60
f 61/61/61 62/62/62 63/63/63
f 64/64/64 65/65/65 66/66/66
f 67/67/67 68/68/68 69/69/69
f 70/70/70 71/71/71 72/72/72
f 73/73/73 74/74/74 75/75/75
f 76/76/76 77/77/77 78/78/78
f 79/79/79 80/80/80 81/81/81
v 4.00000 1.00000 4.12500
v 3.37500 1.87500 5.00000
v 4.00000 1.00000 5.00000
v 4.00000 1.00000 4.12500
v 2.87500 1.87500 4.00000
v 3.37500 1.87500 5.00000
v 2.37500 2.87500 -0.00000
v 1.50000 3.00000 1.37500
v 1.87500 2.87500 1.37500
v 2.37500 2.87500 -0.00000
v 2.00000 3.00000 -0.00000
v 1.50000 3.00000 1.37500
v 2.87500 1.87500 4.00000
v 3.00000 2.00000 5.00000
v 3.37500 1.87500 5.00000
v 2.87500 1.87500 4.00000
v 2.50000 2.00000 3.62500
v 3.00000 2.00000 5.00000
v 3.00000 2.00000 -0.00000
v 1.87500 2.87500 1.37500
v 2.50000 2.00000 1.37500
v 3.00000 2.00000 -0.00000
v 2.37500 2.87500 -0.00000
v 1.87500 2.87500 1.37500
v 2.50000 2.00000 3.62500
v 2.37500 2.87500 5.00000
v 3.00000 2.00000 5.00000
v 2.50000 2.00000 3.62500
v 1.87500 2.87500 3.62500
v 2.37500 2.87500 5.00000
v 1.87500 2.87500 3.62500
v 2.00000 3.00000 5.00000
v 2.37500 2.87500 5.00000
v 1.87500 2.87500 3.62500
v 1.50000 3.00000 3.62500
v 2.00000 3.00000 5.00000
v 2.87500 1.87500 1.00000
v 4.00000 1.00000 -0.00000
v 3.37500 1.87500 -0.00000
v 2.87500 1.87500 1.00000
v 4.00000 1.25000 0.87500
v 4.00000 1.00000 -0.00000
v 3.00000 2.00000 -0.00000
v 2.87500 1.87500 1.00000
v 3.37500 1.87500 -0.00000
v 3.00000 2.00000 -0.00000
v 2.50000 2.00000 1.37500
v 2.87500 1.87500 1.00000
vt 1.00000 -1.00000
vt 0.49707 -0.37500
vt 0.49707 -1.00000
vt 1.00000 -1.00000
vt 1.00000 -0.37500
vt 0.49707 -0.37500
vt 0.00000 -0.37500
vt 0.50000 0.00000
vt 0.50000 -0.37500
vt 0.00000 -0.37500
vt 0.00000 0.00000
vt 0.50000 0.00000
vt 1.00000 -0.25000
vt 0.59082 0.00000
vt 0.49707 -0.37500
vt 1.00000 -0.25000
vt 1.12500 0.00000
vt 0.59082 0.00000
vt 0.00000 -1.00000
vt 0.50000 -0.37500
vt 0.50000 -1.00000
vt 0.00000 -1.00000
vt 0.00000 -0.37500
vt 0.50000 -0.37500
vt 0.00000 -1.00000
vt 0.40137 -0.37500
vt 0.40137 -1.00000
vt 0.00000 -1.00000
vt 0.00000 -0.37500
vt 0.40137 -0.37500
vt 0.00000 -0.37500
vt 0.40137 0.00000
vt 0.40137 -0.37500
vt 0.00000 -0.37500
vt 0.00000 0.00000
vt 0.40137 0.00000
vt 0.00000 -0.37500
vt 0.50391 -1.00000
vt 0.50391 -0.37500
vt 0.00000 -0.37500
vt 0.00000 -1.00000
vt 0.50391 -1.00000
vt 0.50391 0.00000
vt 0.00000 -0.37500
vt 0.50391 -0.37500
vt 0.50391 0.00000
vt -0.06250 0.00000
vt 0.00000 -0.37500
vn 0.4859 0.8739 0.0108
vn 0.5907 0.7865 -0.1805
vn 0.5255 0.8453 -0.0966
vn 0.4859 0.8739 0.0108
vn 0.4796 0.8728 -0.0902
vn 0.5907 0.7865 -0.1805
vn 0.6185 0.7529 0.2249
vn 0.3136 0.9407 0.1295
vn 0.5762 0.7833 0.2334
vn 0.6185 0.7529 0.2249
vn 0.3142 0.9425 0.1142
vn 0.3136 0.9407 0.1295
vn 0.4796 0.8728 -0.0902
vn 0.5709 0.7907 -0.2209
vn 0.5907 0.7865 -0.1805
vn 0.4796 0.8728 -0.0902
vn 0.5012 0.8485 -0.1700
vn 0.5709 0.7907 -0.2209
vn 0.5709 0.7907 0.2209
vn 0.5762 0.7833 0.2334
vn 0.5012 0.8485 0.1700
vn 0.5709 0.7907 0.2209
vn 0.6185 0.7529 0.2249
vn 0.5762 0.7833 0.2334
vn 0.5012 0.8485 -0.1700
vn 0.6185 0.7529 -0.2249
vn 0.5709 0.7907 -0.2209
vn 0.5012 0.8485 -0.1700
vn 0.5762 0.7833 -0.2334
vn 0.6185 0.7529 -0.2249
vn 0.5762 0.7833 -0.2334
vn 0.3142 0.9425 -0.1142
vn 0.6185 0.7529 -0.2249
vn 0.5762 0.7833 -0.2334
vn 0.3136 0.9407 -0.1295
vn 0.3142 0.9425 -0.1142
vn 0.4581 0.8840 0.0927
vn 0.6000 0.7993 -0.0325
vn 0.5565 0.8238 0.1083
vn 0.4581 0.8840 0.0927
vn 0.5682 0.8198 0.0712
vn 0.6000 0.7993 -0.0325
vn 0.5709 0.7907 0.2209
vn 0.4581 0.8840 0.0927
vn 0.5565 0.8238 0.1083
vn 0.5709 0.7907 0.2209
vn 0.5012 0.8485 0.1700
vn 0.4581 0.8840 0.0927
g ecave_exit_v4_3
usemtl d6gake_03
f 82/82/82 83/83/83 84/84/84
f 85/85/85 86/86/86 87/87/87
f 88/88/88 89/89/89 90/90/90
f 91/91/91 92/92/92 93/93/93
f 94/94/94 95/95/95 96/96/96
f 97/97/97 98/98/98 99/99/99
f 100/100/100 101/101/101 102/102/102
f 103/103/103 104/104/104 105/105/105
f 106/106/106 107/107/107 108/108/108
f 109/109/109 110/110/110 111/111/111
f 112/112/112 113/113/113 114/114/114
f 115/115/115 116/116/116 117/117/117
f 118/118/118 119/119/119 120/120/120
f 121/121/121 122/122/122 123/123/123
f 124/124/124 125/125/125 126/126/126
f 127/127/127 128/128/128 129/129/129
v 2.75000 2.00000 2.50000
v 3.22754 1.66406 1.84570
v 2.87500 1.87500 1.00000
v 2.75000 2.00000 2.50000
v 2.98340 1.84473 2.50000
v 3.22754 1.66406 1.84570
v 2.50000 2.00000 3.62500
v 2.75000 2.00000 2.50000
v 2.00000 2.00000 2.50000
v 2.50000 2.00000 3.62500
v 2.87500 1.87500 4.00000
v 2.75000 2.00000 2.50000
v 4.35058 0.98145 3.57031
v 5.25000 0.18750 4.00000
v 5.25000 0.18750 3.61133
v 4.35058 0.98145 3.57031
v 4.37500 0.87500 4.12500
v 5.25000 0.18750 4.00000
v 5.25000 0.18750 1.38867
v 3.97559 0.98145 1.74414
v 4.87500 0.18750 1.77832
v 5.25000 0.18750 1.38867
v 4.35059 0.98145 1.42969
v 3.97559 0.98145 1.74414
v 3.83887 1.16113 3.53613
v 4.37500 0.87500 4.12500
v 4.35058 0.98145 3.57031
v 3.83887 1.16113 3.53613
v 4.00000 1.00000 4.12500
v 4.37500 0.87500 4.12500
v 5.25000 0.18750 1.00000
v 4.35059 0.98145 1.42969
v 5.25000 0.18750 1.38867
v 5.25000 0.18750 1.00000
v 4.37500 0.87500 0.87500
v 4.35059 0.98145 1.42969
v 5.25000 0.18750 3.61133
v 3.97558 0.98145 3.25488
v 4.35058 0.98145 3.57031
v 5.25000 0.18750 3.61133
v 4.87500 0.18750 3.22168
v 3.97558 0.98145 3.25488
v 4.00000 1.25000 0.87500
v 4.35059 0.98145 1.42969
v 4.37500 0.87500 0.87500
v 4.00000 1.25000 0.87500
v 3.83887 1.16113 1.46387
v 4.35059 0.98145 1.42969
v 2.87500 1.87500 4.00000
v 2.98340 1.84473 2.50000
v 2.75000 2.00000 2.50000
v 2.87500 1.87500 4.00000
v 3.22754 1.66406 3.15429
v 2.98340 1.84473 2.50000
v 2.50000 2.00000 1.37500
v 2.75000 2.00000 2.50000
v 2.87500 1.87500 1.00000
v 2.50000 2.00000 1.37500
v 2.00000 2.00000 2.50000
v 2.75000 2.00000 2.50000
v 2.87500 1.87500 4.00000
v 4.00000 1.00000 4.12500
v 3.57715 1.37305 3.42090
v 3.57715 1.37305 3.42090
v 4.00000 1.00000 4.12500
v 3.83887 1.16113 3.53613
v 3.57715 1.37305 1.57910
v 3.83887 1.16113 1.46387
v 2.87500 1.87500 1.00000
v 2.87500 1.87500 1.00000
v 3.83887 1.16113 1.46387
v 4.00000 1.25000 0.87500
v 3.57715 1.37305 1.57910
v 3.37500 1.25000 1.72168
v 3.83887 1.16113 1.46387
v 3.83887 1.16113 1.46387
v 3.37500 1.25000 1.72168
v 4.35059 0.98145 1.42969
v 3.37500 1.25000 1.72168
v 3.97559 0.98145 1.74414
v 4.35059 0.98145 1.42969
v 3.22754 1.66406 3.15429
v 3.12500 1.50000 2.50000
v 2.98340 1.84473 2.50000
v 2.98340 1.84473 2.50000
v 3.12500 1.50000 2.50000
v 3.22754 1.66406 1.84570
v 3.57715 1.37305 3.42090
v 3.83887 1.16113 3.53613
v 3.37500 1.25000 3.27832
v 3.37500 1.25000 3.27832
v 3.83887 1.16113 3.53613
v 4.35058 0.98145 3.57031
v 3.12500 1.50000 2.50000
v 3.57715 1.37305 3.42090
v 3.37500 1.25000 3.27832
v 3.57715 1.37305 3.42090
v 3.12500 1.50000 2.50000
v 3.22754 1.66406 3.15429
v 5.25000 0.18750 4.00000
v 4.00000 1.00000 4.12500
v 5.00000 0.12500 4.00000
v 4.00000 1.00000 4.12500
v 5.25000 0.18750 4.00000
v 4.37500 0.87500 4.12500
v 3.12500 1.50000 2.50000
v 3.57715 1.37305 1.57910
v 3.22754 1.66406 1.84570
v 3.57715 1.37305 1.57910
v 3.12500 1.50000 2.50000
v 3.37500 1.25000 1.72168
v 5.25000 0.18750 1.00000
v 4.37500 0.87500 0.87500
v 4.00000 1.25000 0.87500
v 4.00000 1.25000 0.87500
v 5.25000 0.18750 1.00000
v 5.00000 0.12500 1.00000
v 3.22754 1.66406 3.15429
v 2.87500 1.87500 4.00000
v 3.57715 1.37305 3.42090
v 3.37500 1.25000 3.27832
v 4.35058 0.98145 3.57031
v 3.97558 0.98145 3.25488
v 3.22754 1.66406 1.84570
v 3.57715 1.37305 1.57910
v 2.87500 1.87500 1.00000
vt 0.50000 -0.18750
vt 0.70313 -0.25000
vt 0.99707 -0.18750
vt 0.50000 -0.18750
vt 0.50000 -0.25000
vt 0.70313 -0.25000
vt 0.01269 0.00000
vt 0.50000 -0.18750
vt 0.50000 0.00000
vt 0.01269 0.00000
vt 0.01269 -0.18750
vt 0.50000 -0.18750
vt 0.16894 -0.50879
vt 0.01269 -0.96875
vt 0.15625 -0.96875
vt 0.16894 -0.50879
vt 0.01269 -0.56250
vt 0.01269 -0.96875
vt 0.84375 -0.96875
vt 0.73340 -0.50879
vt 0.72363 -0.96875
vt 0.84375 -0.96875
vt 0.83105 -0.50879
vt 0.73340 -0.50879
vt 0.17969 -0.41992
vt 0.01269 -0.56250
vt 0.16894 -0.50879
vt 0.17969 -0.41992
vt 0.01269 -0.50000
vt 0.01269 -0.56250
vt 0.99707 -0.96875
vt 0.83105 -0.50879
vt 0.84375 -0.96875
vt 0.99707 -0.96875
vt 0.99707 -0.56250
vt 0.83105 -0.50879
vt 0.15625 -0.96875
vt 0.26660 -0.50879
vt 0.16894 -0.50879
vt 0.15625 -0.96875
vt 0.27637 -0.96875
vt 0.26660 -0.50879
vt 0.99707 -0.37500
vt 0.83105 -0.50879
vt 0.99707 -0.56250
vt 0.99707 -0.37500
vt 0.84863 -0.37500
vt 0.83105 -0.50879
vt 0.01269 -0.18750
vt 0.50000 -0.25000
vt 0.50000 -0.18750
vt 0.01269 -0.18750
vt 0.29688 -0.25000
vt 0.50000 -0.25000
vt 0.99707 0.00000
vt 0.50000 -0.18750
vt 0.99707 -0.18750
vt 0.99707 0.00000
vt 0.50000 0.00000
vt 0.50000 -0.18750
vt 0.01269 -0.18750
vt 0.01269 -0.50000
vt 0.21484 -0.31348
vt 0.21484 -0.31348
vt 0.01269 -0.50000
vt 0.17969 -0.41992
vt 0.78516 -0.31348
vt 0.84863 -0.37500
vt 0.99707 -0.18750
vt 0.99707 -0.18750
vt 0.84863 -0.37500
vt 0.99707 -0.37500
vt 0.78516 -0.31348
vt 0.74121 -0.37500
vt 0.84863 -0.37500
vt 0.84863 -0.37500
vt 0.74121 -0.37500
vt 0.83105 -0.50879
vt 0.74121 -0.37500
vt 0.73340 -0.50879
vt 0.83105 -0.50879
vt 0.29688 -0.25000
vt 0.50000 -0.37500
vt 0.50000 -0.25000
vt 0.50000 -0.25000
vt 0.50000 -0.37500
vt 0.70313 -0.25000
vt 0.21484 -0.31348
vt 0.17969 -0.41992
vt 0.25879 -0.37500
vt 0.25879 -0.37500
vt 0.17969 -0.41992
vt 0.16894 -0.50879
vt 0.50000 -0.37500
vt 0.21484 -0.31348
vt 0.25879 -0.37500
vt 0.21484 -0.31348
vt 0.50000 -0.37500
vt 0.29688 -0.25000
vt 0.01269 -0.96875
vt 0.01269 -0.50000
vt 0.01269 -1.00000
vt 0.01269 -0.50000
vt 0.01269 -0.96875
vt 0.01269 -0.56250
vt 0.50000 -0.37500
vt 0.78516 -0.31348
vt 0.70313 -0.25000
vt 0.78516 -0.31348
vt 0.50000 -0.37500
vt 0.74121 -0.37500
vt 0.99707 -0.96875
vt 0.99707 -0.56250
vt 0.99707 -0.37500
vt 0.99707 -0.37500
vt 0.99707 -0.96875
vt 0.99707 -1.00000
vt 0.29688 -0.25000
vt 0.01269 -0.18750
vt 0.21484 -0.31348
vt 0.25879 -0.37500
vt 0.16894 -0.50879
vt 0.26660 -0.50879
vt 0.70313 -0.25000
vt 0.78516 -0.31348
vt 0.99707 -0.18750
vn 0.3234 0.9463 0.0000
vn 0.6711 0.7362 0.0877
vn 0.4581 0.8840 0.0927
vn 0.3234 0.9463 0.0000
vn 0.7199 0.6941 0.0000
vn 0.6711 0.7362 0.0877
vn 0.5012 0.8485 -0.1700
vn 0.3234 0.9463 0.0000
vn 0.5756 0.8177 0.0000
vn 0.5012 0.8485 -0.1700
vn 0.4796 0.8728 -0.0902
vn 0.3234 0.9463 0.0000
vn 0.5160 0.8311 -0.2075
vn 0.5753 0.6144 0.5399
vn 0.6383 0.7465 -0.1880
vn 0.5160 0.8311 -0.2075
vn 0.3302 0.4803 0.8126
vn 0.5753 0.6144 0.5399
vn 0.6382 0.7465 0.1882
vn 0.4161 0.7751 0.4755
vn 0.5417 0.6112 0.5770
vn 0.6382 0.7465 0.1882
vn 0.5653 0.7780 0.2741
vn 0.4161 0.7751 0.4755
vn 0.4713 0.8701 -0.1442
vn 0.3302 0.4803 0.8126
vn 0.5160 0.8311 -0.2075
vn 0.4713 0.8701 -0.1442
vn 0.4859 0.8739 0.0108
vn 0.3302 0.4803 0.8126
vn 0.5676 0.6199 -0.5418
vn 0.5653 0.7780 0.2741
vn 0.6382 0.7465 0.1882
vn 0.5676 0.6199 -0.5418
vn 0.1401 0.4072 0.9025
vn 0.5653 0.7780 0.2741
vn 0.6383 0.7465 -0.1880
vn 0.4162 0.7758 -0.4743
vn 0.5160 0.8311 -0.2075
vn 0.6383 0.7465 -0.1880
vn 0.5421 0.6113 -0.5766
vn 0.4162 0.7758 -0.4743
vn 0.5682 0.8198 0.0712
vn 0.5653 0.7780 0.2741
vn 0.1401 0.4072 0.9025
vn 0.5682 0.8198 0.0712
vn 0.4696 0.8448 0.2565
vn 0.5653 0.7780 0.2741
vn 0.4796 0.8728 -0.0902
vn 0.7199 0.6941 0.0000
vn 0.3234 0.9463 0.0000
vn 0.4796 0.8728 -0.0902
vn 0.6711 0.7362 -0.0877
vn 0.7199 0.6941 0.0000
vn 0.5012 0.8485 0.1700
vn 0.3234 0.9463 0.0000
vn 0.4581 0.8840 0.0927
vn 0.5012 0.8485 0.1700
vn 0.5756 0.8177 0.0000
vn 0.3234 0.9463 0.0000
vn 0.4796 0.8728 -0.0902
vn 0.4859 0.8739 0.0108
vn 0.7525 0.5389 -0.3786
vn 0.7525 0.5389 -0.3786
vn 0.4859 0.8739 0.0108
vn 0.4713 0.8701 -0.1442
vn 0.7539 0.5389 0.3759
vn 0.4696 0.8448 0.2565
vn 0.4581 0.8840 0.0927
vn 0.4581 0.8840 0.0927
vn 0.4696 0.8448 0.2565
vn 0.5682 0.8198 0.0712
vn 0.7539 0.5389 0.3759
vn 0.7360 -0.2763 0.6180
vn 0.4696 0.8448 0.2565
vn 0.4696 0.8448 0.2565
vn 0.7360 -0.2763 0.6180
vn 0.5653 0.7780 0.2741
vn 0.7360 -0.2763 0.6180
vn 0.4161 0.7751 0.4755
vn 0.5653 0.7780 0.2741
vn 0.6711 0.7362 -0.0877
vn 0.9333 0.3592 0.0000
vn 0.7199 0.6941 0.0000
vn 0.7199 0.6941 0.0000
vn 0.9333 0.3592 0.0000
vn 0.6711 0.7362 0.0877
vn 0.7525 0.5389 -0.3786
vn 0.4713 0.8701 -0.1442
vn 0.7362 -0.2758 -0.6180
vn 0.7362 -0.2758 -0.6180
vn 0.4713 0.8701 -0.1442
vn 0.5160 0.8311 -0.2075
vn 0.9333 0.3592 0.0000
vn 0.7525 0.5389 -0.3786
vn 0.7362 -0.2758 -0.6180
vn 0.7525 0.5389 -0.3786
vn 0.9333 0.3592 0.0000
vn 0.6711 0.7362 -0.0877
vn 0.5753 0.6144 0.5399
vn -0.0560 -0.2354 0.9703
vn 0.0276 -0.1104 0.9935
vn -0.0560 -0.2354 0.9703
vn 0.5753 0.6144 0.5399
vn 0.3302 0.4803 0.8126
vn 0.9333 0.3592 0.0000
vn 0.7539 0.5389 0.3759
vn 0.6711 0.7362 0.0877
vn 0.7539 0.5389 0.3759
vn 0.9333 0.3592 0.0000
vn 0.7360 -0.2763 0.6180
vn 0.5676 0.6199 -0.5418
vn 0.1401 0.4072 0.9025
vn -0.4981 -0.6531 -0.5704
vn -0.4981 -0.6531 -0.5704
vn 0.5676 0.6199 -0.5418
vn 0.0226 -0.0905 -0.9956
vn 0.6711 0.7362 -0.0877
vn 0.4796 0.8728 -0.0902
vn 0.7525 0.5389 -0.3786
vn 0.7362 -0.2758 -0.6180
vn 0.5160 0.8311 -0.2075
vn 0.4162 0.7758 -0.4743
vn 0.6711 0.7362 0.0877
vn 0.7539 0.5389 0.3759
vn 0.4581 0.8840 0.0927
g ecave_exit_v4_4
usemtl d6ana_003
f 130/130/130 131/131/131 132/132/132
f 133/133/133 134/134/134 135/135/135
f 136/136/136 137/137/137 138/138/138
f 139/139/139 140/140/140 141/141/141
f 142/142/142 143/143/143 144/144/144
f 145/145/145 146/146/146 147/147/147
f 148/148/148 149/149/149 150/150/150
f 151/151/151 152/152/152 153/153/153
f 154/154/154 155/155/155 156/156/156
f 157/157/157 158/158/158 159/159/159
f 160/160/160 161/161/161 162/162/162
f 163/163/163 164/164/164 165/165/165
f 166/166/166 167/167/167 168/168/168
f 169/169/169 170/170/170 171/171/171
f 172/172/172 173/173/173 174/174/174
f 175/175/175 176/176/176 177/177/177
f 178/178/178 179/179/179 180/180/180
f 181/181/181 182/182/182 183/183/183
f 184/184/184 185/185/185 186/186/186
f 187/187/187 188/188/188 189/189/189
f 190/190/190 191/191/191 192/192/192
f 193/193/193 194/194/194 195/195/195
f 196/196/196 197/197/197 198/198/198
f 199/199/199 200/200/200 201/201/201
f 202/202/202 203/203/203 204/204/204
f 205/205/205 206/206/206 207/207/207
f 208/208/208 209/209/209 210/210/210
f 211/211/211 212/212/212 213/213/213
f 214/214/214 215/215/215 216/216/216
f 217/217/217 218/218/218 219/219/219
f 220/220/220 221/221/221 222/222/222
f 223/223/223 224/224/224 225/225/225
f 226/226/226 227/227/227 228/228/228
f 229/229/229 230/230/230 231/231/231
f 232/232/232 233/233/233 234/234/234
f 235/235/235 236/236/236 237/237/237
f 238/238/238 239/239/239 240/240/240
f 241/241/241 242/242/242 243/243/243
f 244/244/244 245/245/245 246/246/246
f 247/247/247 248/248/248 249/249/249
f 250/250/250 251/251/251 252/252/252
f 253/253/253 254/254/254 255/255/255
v 5.00000 0.00000 3.86355
v 4.37500 0.87500 5.00000
v 5.00000 0.00000 5.00000
v 5.00000 0.00000 3.86355
v 4.37500 0.87500 4.12500
v 4.37500 0.87500 5.00000
v 1.37500 2.87500 2.50000
v 1.50000 3.00000 3.62500
v 1.87500 2.87500 3.62500
v 1.37500 2.87500 2.50000
v 1.00000 3.00000 2.50000
v 1.50000 3.00000 3.62500
v 2.50000 2.00000 1.37500
v 1.37500 2.87500 2.50000
v 2.00000 2.00000 2.50000
v 2.50000 2.00000 1.37500
v 1.87500 2.87500 1.37500
v 1.37500 2.87500 2.50000
v 1.87500 2.87500 1.37500
v 1.00000 3.00000 2.50000
v 1.37500 2.87500 2.50000
v 1.87500 2.87500 1.37500
v 1.50000 3.00000 1.37500
v 1.00000 3.00000 2.50000
v 5.00000 0.00000 1.15675
v 4.37500 0.87500 -0.00000
v 4.37500 0.87500 0.87500
v 5.00000 0.00000 1.15675
v 5.00000 0.00000 -0.00000
v 4.37500 0.87500 -0.00000
v 4.37500 0.87500 4.12500
v 4.00000 1.00000 5.00000
v 4.37500 0.87500 5.00000
v 4.37500 0.87500 4.12500
v 4.00000 1.00000 4.12500
v 4.00000 1.00000 5.00000
v 2.00000 2.00000 2.50000
v 1.87500 2.87500 3.62500
v 2.50000 2.00000 3.62500
v 2.00000 2.00000 2.50000
v 1.37500 2.87500 2.50000
v 1.87500 2.87500 3.62500
v 4.37500 0.87500 0.87500
v 4.00000 1.00000 -0.00000
v 4.00000 1.25000 0.87500
v 4.37500 0.87500 0.87500
v 4.37500 0.87500 -0.00000
v 4.00000 1.00000 -0.00000
vt 0.50000 -1.00000
vt 0.81250 -0.37500
vt 0.81250 -1.00000
vt 0.50000 -1.00000
vt 0.50000 -0.37500
vt 0.81250 -0.37500
vt 0.49219 -0.37500
vt 1.00000 0.00000
vt 1.00000 -0.37500
vt 0.49219 -0.37500
vt 0.49219 0.00000
vt 1.00000 0.00000
vt 0.00000 -1.00000
vt 0.49219 -0.37500
vt 0.49219 -1.00000
vt 0.00000 -1.00000
vt 0.00000 -0.37500
vt 0.49219 -0.37500
vt 0.00000 -0.37500
vt 0.49219 0.00000
vt 0.49219 -0.37500
vt 0.00000 -0.37500
vt 0.00000 0.00000
vt 0.49219 0.00000
vt 0.00000 -1.00000
vt 0.50000 -0.37500
vt 0.00000 -0.37500
vt 0.00000 -1.00000
vt 0.50000 -1.00000
vt 0.50000 -0.37500
vt 0.50000 -0.37500
vt 0.81250 0.00000
vt 0.81250 -0.18750
vt 0.50000 -0.37500
vt 0.50000 0.00000
vt 0.81250 0.00000
vt 0.49219 -1.00000
vt 1.00000 -0.37500
vt 1.00000 -1.00000
vt 0.49219 -1.00000
vt 0.49219 -0.37500
vt 1.00000 -0.37500
vt 0.00000 -0.37500
vt 0.50000 0.00000
vt 0.00000 0.00000
vt 0.00000 -0.37500
vt 0.50000 -0.37500
vt 0.50000 0.00000
vn 0.8137 0.5812 0.0000
vn 0.5941 0.8044 0.0000
vn 0.8137 0.5812 0.0000
vn 0.8137 0.5812 0.0000
vn 0.6124 0.7905 0.0000
vn 0.5941 0.8044 0.0000
vn 0.5360 0.8442 0.0000
vn 0.3136 0.9407 -0.1295
vn 0.5762 0.7833 -0.2334
vn 0.5360 0.8442 0.0000
vn 0.3162 0.9487 0.0000
vn 0.3136 0.9407 -0.1295
vn 0.5012 0.8485 0.1700
vn 0.5360 0.8442 0.0000
vn 0.5756 0.8177 0.0000
vn 0.5012 0.8485 0.1700
vn 0.5762 0.7833 0.2334
vn 0.5360 0.8442 0.0000
vn 0.5762 0.7833 0.2334
vn 0.3162 0.9487 0.0000
vn 0.5360 0.8442 0.0000
vn 0.5762 0.7833 0.2334
vn 0.3136 0.9407 0.1295
vn 0.3162 0.9487 0.0000
vn 0.8137 0.5812 0.0000
vn 0.6948 0.7167 -0.0601
vn 0.7048 0.7072 -0.0556
vn 0.8137 0.5812 0.0000
vn 0.8137 0.5812 0.0000
vn 0.6948 0.7167 -0.0601
vn 0.6124 0.7905 0.0000
vn 0.5255 0.8453 -0.0966
vn 0.5941 0.8044 0.0000
vn 0.6124 0.7905 0.0000
vn 0.4859 0.8739 0.0108
vn 0.5255 0.8453 -0.0966
vn 0.5756 0.8177 0.0000
vn 0.5762 0.7833 -0.2334
vn 0.5012 0.8485 -0.1700
vn 0.5756 0.8177 0.0000
vn 0.5360 0.8442 0.0000
vn 0.5762 0.7833 -0.2334
vn 0.7048 0.7072 -0.0556
vn 0.6000 0.7993 -0.0325
vn 0.5682 0.8198 0.0712
vn 0.7048 0.7072 -0.0556
vn 0.6948 0.7167 -0.0601
vn 0.6000 0.7993 -0.0325
g ecave_exit_v4_5
usemtl d6gake_002
f 256/256/256 257/257/257 258/258/258
f 259/259/259 260/260/260 261/261/261
f 262/262/262 263/263/263 264/264/264
f 265/265/265 266/266/266 267/267/267
f 268/268/268 269/269/269 270/270/270
f 271/271/271 272/272/272 273/273/273
f 274/274/274 275/275/275 276/276/276
f 277/277/277 278/278/278 279/279/279
f 280/280/280 281/281/281 282/282/282
f 283/283/283 284/284/284 285/285/285
f 286/286/286 287/287/287 288/288/288
f 289/289/289 290/290/290 291/291/291
f 292/292/292 293/293/293 294/294/294
f 295/295/295 296/296/296 297/297/297
f 298/298/298 299/299/299 300/300/300
f 301/301/301 302/302/302 303/303/303
