# ecave_levitating_rock_corner_se
# generated by tools/assets/build-tiles.js — do not edit
mtllib ecave_levitating_rock_corner_se.mtl
o ecave_levitating_rock_corner_se
v 0.50000 -2.00000 1.00000
v 0.00000 -0.12500 0.37500
v 0.00000 -2.00000 1.00000
v 0.50000 -2.00000 1.00000
v 0.25000 -0.12500 0.37500
v 0.00000 -0.12500 0.37500
v 1.00000 -2.00000 0.50000
v 0.25000 -0.12500 0.37500
v 0.50000 -2.00000 1.00000
v 1.00000 -2.00000 0.50000
v 0.37500 -0.12500 0.25000
v 0.25000 -0.12500 0.37500
v 1.00000 -2.00000 0.00000
v 0.37500 -0.12500 0.25000
v 1.00000 -2.00000 0.50000
v 1.00000 -2.00000 0.00000
v 0.37500 -0.12500 0.00000
v 0.37500 -0.12500 0.25000
v 0.00000 -0.12500 0.37500
v 0.25000 -0.12500 0.37500
v 0.00000 0.00000 0.00000
v 0.00000 0.00000 0.00000
v 0.25000 -0.12500 0.37500
v 0.37500 -0.12500 0.25000
v 0.37500 -0.12500 0.25000
v 0.37500 -0.12500 0.00000
v 0.00000 0.00000 0.00000
vt 0.99805 -0.50000
vt 0.33398 -0.00586
vt 0.99805 -0.00586
vt 0.99805 -0.50000
vt 0.36328 -0.31836
vt 0.33398 -0.00586
vt 0.50000 -0.99414
vt 0.36328 -0.31836
vt 0.99805 -0.50000
vt 0.50000 -0.99414
vt 0.23828 -0.44141
vt 0.36328 -0.31836
vt 0.00195 -0.99414
vt 0.23828 -0.44141
vt 0.50000 -0.99414
vt 0.00195 -0.99414
vt 0.00195 -0.38477
vt 0.23828 -0.44141
vt 0.33398 -0.00586
vt 0.36328 -0.31836
vt 0.00195 -0.00586
vt 0.00195 -0.00586
vt 0.36328 -0.31836
vt 0.23828 -0.44141
vt 0.23828 -0.44141
vt 0.00195 -0.38477
vt 0.00195 -0.00586
vn 0.3594 0.3379 0.8699
vn 0.0000 0.3162 0.9487
vn 0.0000 0.3162 0.9487
vn 0.3594 0.3379 0.8699
vn 0.3612 0.3379 0.8691
vn 0.0000 0.3162 0.9487
vn 0.8699 0.3379 0.3594
vn 0.3612 0.3379 0.8691
vn 0.3594 0.3379 0.8699
vn 0.8699 0.3379 0.3594
vn 0.8691 0.3379 0.3612
vn 0.3612 0.3379 0.8691
vn 0.9487 0.3162 0.0000
vn 0.8691 0.3379 0.3612
vn 0.8699 0.3379 0.3594
vn 0.9487 0.3162 0.0000
vn 0.9487 0.3162 0.0000
vn 0.8691 0.3379 0.3612
vn 0.0000 0.9487 0.3162
vn 0.1120 0.9627 0.2462
vn 0.0780 0.9602 0.2681
vn 0.0780 0.9602 0.2681
vn 0.1120 0.9627 0.2462
vn 0.1925 0.9623 0.1925
vn 0.3162 0.9487 0.0000
vn 0.3162 0.9487 0.0000
vn 0.3162 0.9487 0.0000
g ecave_levitating_rock_corner_se_0
usemtl d6gake_007
f 1/1/1 2/2/2 3/3/3
f 4/4/4 5/5/5 6/6/6
f 7/7/7 8/8/8 9/9/9
f 10/10/10 11/11/11 12/12/12
f 13/13/13 14/14/14 15/15/15
f 16/16/16 17/17/17 18/18/18
f 19/19/19 20/20/20 21/21/21
f 22/22/22 23/23/23 24/24/24
f 25/25/25 26/26/26 27/27/27
