# ecave_rock_edge_w
# generated by tools/assets/build-tiles.js — do not edit
mtllib ecave_rock_edge_w.mtl
o ecave_rock_edge_w
v 0.62500 0.87500 1.00000
v 1.00000 1.00000 0.00000
v 0.62500 0.87500 0.00000
v 0.62500 0.87500 1.00000
v 1.00000 1.00000 1.00000
v 1.00000 1.00000 0.00000
v 0.00000 0.00000 1.00000
v 0.62500 0.87500 0.00000
v 0.00000 0.00000 0.00000
v 0.00000 0.00000 1.00000
v 0.62500 0.87500 1.00000
v 0.62500 0.87500 0.00000
vt 0.25000 -0.37500
vt 0.00000 0.00000
vt 0.00000 -0.37500
vt 0.25000 -0.37500
vt 0.25000 0.00000
vt 0.00000 0.00000
vt 0.25000 -1.00000
vt 0.00000 -0.37500
vt 0.00000 -1.00000
vt 0.25000 -1.00000
vt 0.25000 -0.37500
vt 0.00000 -0.37500
vn -0.3162 0.9487 0.0000
vn -0.3162 0.9487 0.0000
vn -0.3162 0.9487 0.0000
vn -0.3162 0.9487 0.0000
vn -0.3162 0.9487 0.0000
vn -0.3162 0.9487 0.0000
vn -0.8137 0.5812 0.0000
vn -0.8137 0.5812 0.0000
vn -0.8137 0.5812 0.0000
vn -0.8137 0.5812 0.0000
vn -0.8137 0.5812 0.0000
vn -0.8137 0.5812 0.0000
g ecave_rock_edge_w_0
usemtl d6gake_002
f 1/1/1 2/2/2 3/3/3
f 4/4/4 5/5/5 6/6/6
f 7/7/7 8/8/8 9/9/9
f 10/10/10 11/11/11 12/12/12
