# ecave_rock_corner_ne
# generated by tools/assets/build-tiles.js — do not edit
mtllib ecave_rock_corner_ne.mtl
o ecave_rock_corner_ne
v 1.00000 0.00000 0.50000
v 0.37500 0.87500 1.00000
v 1.00000 0.00000 1.00000
v 1.00000 0.00000 0.50000
v 0.37500 0.87500 0.75000
v 0.37500 0.87500 1.00000
v 0.50000 0.00000 0.00000
v 0.37500 0.87500 0.75000
v 1.00000 0.00000 0.50000
v 0.50000 0.00000 0.00000
v 0.25000 0.87500 0.62500
v 0.37500 0.87500 0.75000
v 0.00000 0.00000 0.00000
v 0.25000 0.87500 0.62500
v 0.50000 0.00000 0.00000
v 0.00000 0.00000 0.00000
v 0.00000 0.87500 0.62500
v 0.25000 0.87500 0.62500
v 0.37500 0.87500 1.00000
v 0.37500 0.87500 0.75000
v 0.00000 1.00000 1.00000
v 0.00000 1.00000 1.00000
v 0.37500 0.87500 0.75000
v 0.25000 0.87500 0.62500
v 0.25000 0.87500 0.62500
v 0.00000 0.87500 0.62500
v 0.00000 1.00000 1.00000
vt 0.67188 -0.96875
vt 0.76563 -0.25000
vt 0.81250 -0.50000
vt 0.67188 -0.96875
vt 0.67188 -0.25000
vt 0.76563 -0.25000
vt 0.56250 -0.96875
vt 0.67188 -0.25000
vt 0.67188 -0.96875
vt 0.56250 -0.96875
vt 0.56250 -0.34375
vt 0.67188 -0.25000
vt 0.46875 -0.93750
vt 0.56250 -0.34375
vt 0.56250 -0.96875
vt 0.46875 -0.93750
vt 0.46875 -0.25000
vt 0.56250 -0.34375
vt 0.76563 -0.25000
vt 0.67188 -0.25000
vt 0.64063 -0.03125
vt 0.64063 -0.03125
vt 0.67188 -0.25000
vt 0.56250 -0.34375
vt 0.56250 -0.34375
vt 0.46875 -0.25000
vt 0.64063 -0.03125
vn 0.7327 0.6097 -0.3022
vn 0.8137 0.5812 0.0000
vn 0.8137 0.5812 0.0000
vn 0.7327 0.6097 -0.3022
vn 0.7316 0.6097 -0.3050
vn 0.8137 0.5812 0.0000
vn 0.3022 0.6097 -0.7327
vn 0.7316 0.6097 -0.3050
vn 0.7327 0.6097 -0.3022
vn 0.3022 0.6097 -0.7327
vn 0.3050 0.6097 -0.7316
vn 0.7316 0.6097 -0.3050
vn 0.0000 0.5812 -0.8137
vn 0.3050 0.6097 -0.7316
vn 0.3022 0.6097 -0.7327
vn 0.0000 0.5812 -0.8137
vn 0.0000 0.5812 -0.8137
vn 0.3050 0.6097 -0.7316
vn 0.3162 0.9487 0.0000
vn 0.2462 0.9627 -0.1120
vn 0.2681 0.9602 -0.0780
vn 0.2681 0.9602 -0.0780
vn 0.2462 0.9627 -0.1120
vn 0.1925 0.9623 -0.1925
vn 0.0000 0.9487 -0.3162
vn 0.0000 0.9487 -0.3162
vn 0.0000 0.9487 -0.3162
g ecave_rock_corner_ne_0
usemtl d6gake_002
f 1/1/1 2/2/2 3/3/3
f 4/4/4 5/5/5 6/6/6
f 7/7/7 8/8/8 9/9/9
f 10/10/10 11/11/11 12/12/12
f 13/13/13 14/14/14 15/15/15
f 16/16/16 17/17/17 18/18/18
f 19/19/19 20/20/20 21/21/21
f 22/22/22 23/23/23 24/24/24
f 25/25/25 26/26/26 27/27/27
