# ecave_mud_big
# generated by tools/assets/build-tiles.js — do not edit
mtllib ecave_mud_big.mtl
o ecave_mud_big
v -0.95801 0.12500 0.84473
v 3.22559 0.12500 0.84473
v 1.13379 0.12500 -1.24707
v -0.95801 0.12500 0.84473
v 1.13379 0.12500 2.93750
v 3.22559 0.12500 0.84473
vt 1.00000 0.00000
vt 0.00000 -1.00000
vt 0.00000 0.00000
vt 1.00000 0.00000
vt 1.00000 -1.00000
vt 0.00000 -1.00000
vn 0.0000 1.0000 0.0000
vn 0.0000 1.0000 0.0000
vn 0.0000 1.0000 0.0000
vn 0.0000 1.0000 0.0000
vn 0.0000 1.0000 0.0000
vn 0.0000 1.0000 0.0000
g ecave_mud_big_0
usemtl d6yuka_002
f 1/1/1 2/2/2 3/3/3
f 4/4/4 5/5/5 6/6/6
