# ecave_levitating_rock_inner_nw
# generated by tools/assets/build-tiles.js — do not edit
mtllib ecave_levitating_rock_inner_nw.mtl
o ecave_levitating_rock_inner_nw
v 1.00000 -2.00000 0.00000
v 0.00000 -0.12500 0.62500
v 1.00000 -0.12500 0.62500
v 1.00000 -2.00000 0.00000
v 0.00000 -2.00000 0.00000
v 0.00000 -0.12500 0.62500
v 1.00000 -0.12500 0.62500
v 0.00000 0.00000 1.00000
v 1.00000 0.00000 1.00000
v 1.00000 -0.12500 0.62500
v 0.00000 -0.12500 0.62500
v 0.00000 0.00000 1.00000
v 0.00000 -2.00000 0.00000
v 0.62500 -0.12500 1.00000
v 0.62500 -0.12500 0.00000
v 0.00000 -2.00000 0.00000
v 0.00000 -2.00000 1.00000
v 0.62500 -0.12500 1.00000
v 0.62500 -0.12500 0.00000
v 1.00000 0.00000 1.00000
v 1.00000 0.00000 0.00000
v 0.62500 -0.12500 0.00000
v 0.62500 -0.12500 1.00000
v 1.00000 0.00000 1.00000
vt 0.31250 -0.99609
vt 0.64583 -0.37695
vt 0.31250 -0.37695
vt 0.31250 -0.99609
vt 0.64583 -0.99609
vt 0.64583 -0.37695
vt 0.31250 -0.37695
vt 0.64583 -0.00391
vt 0.31250 -0.00391
vt 0.31250 -0.37695
vt 0.64583 -0.37695
vt 0.64583 -0.00391
vt 0.43750 -0.99609
vt 0.77083 -0.37695
vt 0.43750 -0.37695
vt 0.43750 -0.99609
vt 0.77083 -0.99609
vt 0.77083 -0.37695
vt 0.43750 -0.37695
vt 0.77083 -0.00391
vt 0.43750 -0.00391
vt 0.43750 -0.37695
vt 0.77083 -0.37695
vt 0.77083 -0.00391
vn 0.0000 0.3162 -0.9487
vn 0.0000 0.7071 -0.7071
vn 0.0000 0.7071 -0.7071
vn 0.0000 0.3162 -0.9487
vn 0.0000 0.3162 -0.9487
vn 0.0000 0.7071 -0.7071
vn 0.0000 0.7071 -0.7071
vn 0.0000 0.9487 -0.3162
vn 0.0000 0.9487 -0.3162
vn 0.0000 0.7071 -0.7071
vn 0.0000 0.7071 -0.7071
vn 0.0000 0.9487 -0.3162
vn -0.9487 0.3162 0.0000
vn -0.7071 0.7071 0.0000
vn -0.7071 0.7071 0.0000
vn -0.9487 0.3162 0.0000
vn -0.9487 0.3162 0.0000
vn -0.7071 0.7071 0.0000
vn -0.7071 0.7071 0.0000
vn -0.3162 0.9487 0.0000
vn -0.3162 0.9487 0.0000
vn -0.7071 0.7071 0.0000
vn -0.7071 0.7071 0.0000
vn -0.3162 0.9487 0.0000
g ecave_levitating_rock_inner_nw_0
usemtl d6gake_06
f 1/1/1 2/2/2 3/3/3
f 4/4/4 5/5/5 6/6/6
f 7/7/7 8/8/8 9/9/9
f 10/10/10 11/11/11 12/12/12
f 13/13/13 14/14/14 15/15/15
f 16/16/16 17/17/17 18/18/18
f 19/19/19 20/20/20 21/21/21
f 22/22/22 23/23/23 24/24/24
