# ecave_levitating_rock_edge_s
# generated by tools/assets/build-tiles.js — do not edit
mtllib ecave_levitating_rock_edge_s.mtl
o ecave_levitating_rock_edge_s
v 0.00000 -2.00000 1.00000
v 1.00000 -0.12500 0.37500
v 0.00000 -0.12500 0.37500
v 0.00000 -2.00000 1.00000
v 1.00000 -2.00000 1.00000
v 1.00000 -0.12500 0.37500
v 0.00000 -0.12500 0.37500
v 1.00000 0.00000 0.00000
v 0.00000 0.00000 0.00000
v 0.00000 -0.12500 0.37500
v 1.00000 -0.12500 0.37500
v 1.00000 0.00000 0.00000
vt 0.00000 -0.99609
vt 0.33333 -0.37695
vt 0.00000 -0.37695
vt 0.00000 -0.99609
vt 0.33333 -0.99609
vt 0.33333 -0.37695
vt 0.00000 -0.37695
vt 0.33333 -0.00391
vt 0.00000 -0.00391
vt 0.00000 -0.37695
vt 0.33333 -0.37695
vt 0.33333 -0.00391
vn 0.0000 0.3162 0.9487
vn 0.0000 0.7071 0.7071
vn 0.0000 0.7071 0.7071
vn 0.0000 0.3162 0.9487
vn 0.0000 0.3162 0.9487
vn 0.0000 0.7071 0.7071
vn 0.0000 0.7071 0.7071
vn 0.0000 0.9487 0.3162
vn 0.0000 0.9487 0.3162
vn 0.0000 0.7071 0.7071
vn 0.0000 0.7071 0.7071
vn 0.0000 0.9487 0.3162
g ecave_levitating_rock_edge_s_0
usemtl d6gake_06
f 1/1/1 2/2/2 3/3/3
f 4/4/4 5/5/5 6/6/6
f 7/7/7 8/8/8 9/9/9
f 10/10/10 11/11/11 12/12/12
