# ecave_rock_inner_sw
# generated by tools/assets/build-tiles.js — do not edit
mtllib ecave_rock_inner_sw.mtl
o ecave_rock_inner_sw
v 0.62500 0.87500 1.00000
v 1.00000 1.00000 0.00000
v 0.62500 0.87500 0.00000
v 0.62500 0.87500 1.00000
v 1.00000 1.00000 1.00000
v 1.00000 1.00000 0.00000
v 0.00000 0.00000 1.00000
v 0.62500 0.87500 0.00000
v 0.00000 0.00000 0.00000
v 0.00000 0.00000 1.00000
v 0.62500 0.87500 1.00000
v 0.62500 0.87500 0.00000
v 1.00000 0.87500 0.37500
v 0.00000 1.00000 0.00000
v 0.00000 0.87500 0.37500
v 1.00000 0.87500 0.37500
v 1.00000 1.00000 0.00000
v 0.00000 1.00000 0.00000
v 1.00000 0.00000 1.00000
v 0.00000 0.87500 0.37500
v 0.00000 0.00000 1.00000
v 1.00000 0.00000 1.00000
v 1.00000 0.87500 0.37500
v 0.00000 0.87500 0.37500
vt 0.25000 -0.37500
vt 0.00000 0.00000
vt 0.00000 -0.37500
vt 0.25000 -0.37500
vt 0.25000 0.00000
vt 0.00000 0.00000
vt 0.25000 -1.00000
vt 0.00000 -0.37500
vt 0.00000 -1.00000
vt 0.25000 -1.00000
vt 0.25000 -0.37500
vt 0.00000 -0.37500
vt 0.25000 -0.37500
vt 0.00000 0.00000
vt 0.00000 -0.37500
vt 0.25000 -0.37500
vt 0.25000 0.00000
vt 0.00000 0.00000
vt 0.25000 -1.00000
vt 0.00000 -0.37500
vt 0.00000 -1.00000
vt 0.25000 -1.00000
vt 0.25000 -0.37500
vt 0.00000 -0.37500
vn -0.3162 0.9487 0.0000
vn -0.3162 0.9487 0.0000
vn -0.3162 0.9487 0.0000
vn -0.3162 0.9487 0.0000
vn -0.3162 0.9487 0.0000
vn -0.3162 0.9487 0.0000
vn -0.8137 0.5812 0.0000
vn -0.8137 0.5812 0.0000
vn -0.8137 0.5812 0.0000
vn -0.8137 0.5812 0.0000
vn -0.8137 0.5812 0.0000
vn -0.8137 0.5812 0.0000
vn 0.0000 0.9487 0.3162
vn 0.0000 0.9487 0.3162
vn 0.0000 0.9487 0.3162
vn 0.0000 0.9487 0.3162
vn 0.0000 0.9487 0.3162
vn 0.0000 0.9487 0.3162
vn 0.0000 0.5812 0.8137
vn 0.0000 0.5812 0.8137
vn 0.0000 0.5812 0.8137
vn 0.0000 0.5812 0.8137
vn 0.0000 0.5812 0.8137
vn 0.0000 0.5812 0.8137
g ecave_rock_inner_sw_0
usemtl d6gake_002
f 1/1/1 2/2/2 3/3/3
f 4/4/4 5/5/5 6/6/6
f 7/7/7 8/8/8 9/9/9
f 10/10/10 11/11/11 12/12/12
f 13/13/13 14/14/14 15/15/15
f 16/16/16 17/17/17 18/18/18
f 19/19/19 20/20/20 21/21/21
f 22/22/22 23/23/23 24/24/24
