# sea_zanami_v10
# generated by tools/assets/build-tiles.js — do not edit
mtllib sea_zanami_v10.mtl
o sea_zanami_v10
v 0.87500 -0.18750 3.00000
v 0.12500 0.06250 0.12500
v 0.12500 0.06250 3.00000
v 0.87500 -0.18750 3.00000
v 0.87500 -0.18750 0.87500
v 0.12500 0.06250 0.12500
v 1.75000 -0.43750 1.75000
v 3.00000 -0.18750 0.87500
v 0.87500 -0.18750 0.87500
v 1.75000 -0.43750 1.75000
v 3.00000 -0.43750 1.75000
v 3.00000 -0.18750 0.87500
v 1.75000 -0.43750 3.00000
v 0.87500 -0.18750 0.87500
v 0.87500 -0.18750 3.00000
v 1.75000 -0.43750 3.00000
v 1.75000 -0.43750 1.75000
v 0.87500 -0.18750 0.87500
v 0.87500 -0.18750 0.87500
v 3.00000 0.06250 0.12500
v 0.12500 0.06250 0.12500
v 0.87500 -0.18750 0.87500
v 3.00000 -0.18750 0.87500
v 3.00000 0.06250 0.12500
vt 3.00000 0.87500
vt 1.00008 1.00000
vt 3.00000 1.00000
vt 3.00000 0.87500
vt 1.00004 0.87500
vt 1.00008 1.00000
vt 1.00000 0.65625
vt -0.99996 0.87500
vt 1.00004 0.87500
vt 1.00000 0.65625
vt -0.99996 0.65625
vt -0.99996 0.87500
vt 3.00000 0.65625
vt 1.00004 0.87500
vt 3.00000 0.87500
vt 3.00000 0.65625
vt 1.00000 0.65625
vt 1.00004 0.87500
vt 1.00004 0.87500
vt -0.99996 1.00000
vt 0.99996 1.00000
vt 1.00004 0.87500
vt -0.99996 0.87500
vt -0.99996 1.00000
vn 0.2955 0.9553 0.0000
vn 0.1622 0.9733 0.1622
vn 0.3162 0.9487 0.0000
vn 0.2955 0.9553 0.0000
vn 0.1565 0.9752 0.1565
vn 0.1622 0.9733 0.1622
vn 0.1047 0.9890 0.1047
vn 0.0000 0.9553 0.2955
vn 0.1565 0.9752 0.1565
vn 0.1047 0.9890 0.1047
vn 0.0000 0.9903 0.1387
vn 0.0000 0.9553 0.2955
vn 0.1387 0.9903 0.0000
vn 0.1565 0.9752 0.1565
vn 0.2955 0.9553 0.0000
vn 0.1387 0.9903 0.0000
vn 0.1047 0.9890 0.1047
vn 0.1565 0.9752 0.1565
vn 0.1565 0.9752 0.1565
vn 0.0000 0.9487 0.3162
vn 0.1622 0.9733 0.1622
vn 0.1565 0.9752 0.1565
vn 0.0000 0.9553 0.2955
vn 0.0000 0.9487 0.3162
g sea_zanami_v10_0
usemtl sea_zanami
f 1/1/1 2/2/2 3/3/3
f 4/4/4 5/5/5 6/6/6
f 7/7/7 8/8/8 9/9/9
f 10/10/10 11/11/11 12/12/12
f 13/13/13 14/14/14 15/15/15
f 16/16/16 17/17/17 18/18/18
f 19/19/19 20/20/20 21/21/21
f 22/22/22 23/23/23 24/24/24
v 3.00000 -0.00000 0.00000
v 1.00000 -0.50000 1.00000
v 3.00000 -0.50000 1.00000
v 3.00000 -0.00000 0.00000
v 0.00000 -0.00000 0.00000
v 1.00000 -0.50000 1.00000
v 0.00000 -0.00000 0.00000
v 1.00000 -0.50000 3.00000
v 1.00000 -0.50000 1.00000
v 0.00000 -0.00000 0.00000
v 0.00000 -0.00000 3.00000
v 1.00000 -0.50000 3.00000
v 1.00000 -0.50000 1.00000
v 1.75000 -0.56250 3.00000
v 1.75000 -0.56250 1.75000
v 1.00000 -0.50000 1.00000
v 1.00000 -0.50000 3.00000
v 1.75000 -0.56250 3.00000
v 3.00000 -0.50000 1.00000
v 1.75000 -0.56250 1.75000
v 3.00000 -0.56250 1.75000
v 3.00000 -0.50000 1.00000
v 1.00000 -0.50000 1.00000
v 1.75000 -0.56250 1.75000
vt -1.00000 0.00000
vt 1.00000 -1.00000
vt -1.00000 -1.00000
vt -1.00000 0.00000
vt 1.00000 0.00000
vt 1.00000 -1.00000
vt -1.00000 0.00000
vt 1.00000 -1.00000
vt -1.00000 -1.00000
vt -1.00000 0.00000
vt 1.00000 0.00000
vt 1.00000 -1.00000
vt -1.00000 0.06250
vt 1.00000 0.06250
vt -1.00000 0.06250
vt -1.00000 0.06250
vt 1.00000 0.06250
vt 1.00000 0.06250
vt -1.00000 0.06250
vt 1.00000 0.06250
vt -1.00000 0.06250
vt -1.00000 0.06250
vt 1.00000 0.06250
vt 1.00000 0.06250
vn 0.0000 0.8944 0.4472
vn 0.1857 0.9649 0.1857
vn 0.0000 0.9629 0.2700
vn 0.0000 0.8944 0.4472
vn 0.2357 0.9428 0.2357
vn 0.1857 0.9649 0.1857
vn 0.2357 0.9428 0.2357
vn 0.2700 0.9629 0.0000
vn 0.1857 0.9649 0.1857
vn 0.2357 0.9428 0.2357
vn 0.4472 0.8944 0.0000
vn 0.2700 0.9629 0.0000
vn 0.1857 0.9649 0.1857
vn 0.0830 0.9965 0.0000
vn 0.0416 0.9983 0.0416
vn 0.1857 0.9649 0.1857
vn 0.2700 0.9629 0.0000
vn 0.0830 0.9965 0.0000
vn 0.0000 0.9629 0.2700
vn 0.0416 0.9983 0.0416
vn 0.0000 0.9965 0.0830
vn 0.0000 0.9629 0.2700
vn 0.1857 0.9649 0.1857
vn 0.0416 0.9983 0.0416
g sea_zanami_v10_1
usemtl sea_simi_1
f 25/25/25 26/26/26 27/27/27
f 28/28/28 29/29/29 30/30/30
f 31/31/31 32/32/32 33/33/33
f 34/34/34 35/35/35 36/36/36
f 37/37/37 38/38/38 39/39/39
f 40/40/40 41/41/41 42/42/42
f 43/43/43 44/44/44 45/45/45
f 46/46/46 47/47/47 48/48/48
v 3.00000 -0.43750 3.00000
v 1.75000 -0.43750 1.75000
v 1.75000 -0.43750 3.00000
v 3.00000 -0.43750 3.00000
v 3.00000 -0.43750 1.75000
v 1.75000 -0.43750 1.75000
vt 0.00000 -1.00000
vt 1.00000 0.00000
vt 0.00000 0.00000
vt 2.00000 0.00000
vt 2.00000 1.00000
vt 1.00000 1.00000
vn 0.0000 1.0000 0.0000
vn 0.1047 0.9890 0.1047
vn 0.1387 0.9903 0.0000
vn 0.0000 1.0000 0.0000
vn 0.0000 0.9903 0.1387
vn 0.1047 0.9890 0.1047
g sea_zanami_v10_2
usemtl sea_zanami2
f 49/49/49 50/50/50 51/51/51
f 52/52/52 53/53/53 54/54/54
