# sea_zanami_v9
# generated by tools/assets/build-tiles.js — do not edit
mtllib sea_zanami_v9.mtl
o sea_zanami_v9
v 2.12500 -0.18750 0.00000
v 2.87500 0.06250 1.00000
v 2.87500 0.06250 0.00000
v 2.12500 -0.18750 0.00000
v 2.12500 -0.18750 1.00000
v 2.87500 0.06250 1.00000
v 1.25000 -0.43750 0.00000
v 2.12500 -0.18750 1.00000
v 2.12500 -0.18750 0.00000
v 1.25000 -0.43750 0.00000
v 1.25000 -0.43750 1.00000
v 2.12500 -0.18750 1.00000
vt 1.00000 0.87502
vt 0.00000 1.00000
vt 1.00000 1.00000
vt 1.00000 0.87502
vt 0.00000 0.87498
vt 0.00000 1.00000
vt 1.00000 0.65617
vt 0.00000 0.87498
vt 1.00000 0.87502
vt 1.00000 0.65617
vt 0.00000 0.65625
vt 0.00000 0.87498
vn -0.2955 0.9553 0.0000
vn -0.3162 0.9487 0.0000
vn -0.3162 0.9487 0.0000
vn -0.2955 0.9553 0.0000
vn -0.2955 0.9553 0.0000
vn -0.3162 0.9487 0.0000
vn -0.1387 0.9903 0.0000
vn -0.2955 0.9553 0.0000
vn -0.2955 0.9553 0.0000
vn -0.1387 0.9903 0.0000
vn -0.1387 0.9903 0.0000
vn -0.2955 0.9553 0.0000
g sea_zanami_v9_0
usemtl sea_zanami
f 1/1/1 2/2/2 3/3/3
f 4/4/4 5/5/5 6/6/6
f 7/7/7 8/8/8 9/9/9
f 10/10/10 11/11/11 12/12/12
v 3.00000 -0.00000 1.00000
v 2.00000 -0.50000 0.00000
v 2.00000 -0.50000 1.00000
v 3.00000 -0.00000 1.00000
v 3.00000 -0.00000 0.00000
v 2.00000 -0.50000 0.00000
v 2.00000 -0.50000 1.00000
v 1.25000 -0.56250 0.00000
v 1.25000 -0.56250 1.00000
v 2.00000 -0.50000 1.00000
v 2.00000 -0.50000 0.00000
v 1.25000 -0.56250 0.00000
vt -2.00000 0.00000
vt -1.00000 -1.00000
vt -2.00000 -1.00000
vt -2.00000 0.00000
vt -1.00000 0.00000
vt -1.00000 -1.00000
vt 0.00000 0.06250
vt 1.00000 0.06250
vt 0.00000 0.06250
vt 0.00000 0.06250
vt 1.00000 0.06250
vt 1.00000 0.06250
vn -0.4472 0.8944 0.0000
vn -0.2700 0.9629 0.0000
vn -0.2700 0.9629 0.0000
vn -0.4472 0.8944 0.0000
vn -0.4472 0.8944 0.0000
vn -0.2700 0.9629 0.0000
vn -0.2700 0.9629 0.0000
vn -0.0830 0.9965 0.0000
vn -0.0830 0.9965 0.0000
vn -0.2700 0.9629 0.0000
vn -0.2700 0.9629 0.0000
vn -0.0830 0.9965 0.0000
g sea_zanami_v9_1
usemtl sea_simi_1
f 13/13/13 14/14/14 15/15/15
f 16/16/16 17/17/17 18/18/18
f 19/19/19 20/20/20 21/21/21
f 22/22/22 23/23/23 24/24/24
v 1.25000 -0.43750 0.00000
v 0.00000 -0.43750 1.00000
v 1.25000 -0.43750 1.00000
v 1.25000 -0.43750 0.00000
v 0.00000 -0.43750 0.00000
v 0.00000 -0.43750 1.00000
vt 0.00000 1.00000
vt 1.00000 0.00000
vt 1.00000 1.00000
vt 0.00000 1.00000
vt 0.00000 0.00000
vt 1.00000 0.00000
vn -0.1387 0.9903 0.0000
vn 0.0000 1.0000 0.0000
vn -0.1387 0.9903 0.0000
vn -0.1387 0.9903 0.0000
vn 0.0000 1.0000 0.0000
vn 0.0000 1.0000 0.0000
g sea_zanami_v9_2
usemtl sea_zanami2
f 25/25/25 26/26/26 27/27/27
f 28/28/28 29/29/29 30/30/30
