# sea_water_transp
# generated by tools/assets/build-tiles.js — do not edit
mtllib sea_water_transp.mtl
o sea_water_transp
v 1.00000 -0.68750 -0.00000
v 0.00000 -0.68750 1.00000
v 1.00000 -0.68750 1.00000
v 1.00000 -0.68750 -0.00000
v 0.00000 -0.68750 -0.00000
v 0.00000 -0.68750 1.00000
vt 0.25000 0.00000
vt 0.00000 0.25000
vt 0.25000 0.25000
vt 0.25000 0.00000
vt 0.00000 0.00000
vt 0.00000 0.25000
vn 0.0000 1.0000 0.0000
vn 0.0000 1.0000 0.0000
vn 0.0000 1.0000 0.0000
vn 0.0000 1.0000 0.0000
vn 0.0000 1.0000 0.0000
vn 0.0000 1.0000 0.0000
g sea_water_transp_0
usemtl sea_mizu1_1
f 1/1/1 2/2/2 3/3/3
f 4/4/4 5/5/5 6/6/6
