# wall01_g_center_v4
# generated by tools/assets/build-tiles.js — do not edit
mtllib wall01_g_center_v4.mtl
o wall01_g_center_v4
v 0.66992 0.99707 0.33008
v -0.00000 1.00000 0.00000
v -0.00000 0.99707 0.33008
v 0.66992 0.99707 0.33008
v 1.00000 1.00000 0.00000
v -0.00000 1.00000 0.00000
v 0.66992 0.99707 1.00000
v 1.00000 1.00000 0.00000
v 0.66992 0.99707 0.33008
v 0.66992 0.99707 1.00000
v 1.00000 1.00000 1.00000
v 1.00000 1.00000 0.00000
v 0.66992 0.99707 1.00000
v 0.66992 0.99707 0.33008
v 0.21094 0.09863 1.00000
v 0.21094 0.09863 1.00000
v 0.66992 0.99707 0.33008
v 0.10547 0.09863 0.89453
v 0.66992 0.99707 0.33008
v -0.00000 0.09863 0.78906
v 0.10547 0.09863 0.89453
v -0.00000 0.09863 0.78906
v -0.00000 0.00000 1.00000
v 0.10547 0.09863 0.89453
v 0.10547 0.09863 0.89453
v -0.00000 0.00000 1.00000
v 0.21094 0.09863 1.00000
v -0.00000 0.99707 0.33008
v -0.00000 0.09863 0.78906
v 0.66992 0.99707 0.33008
vt 0.75391 -0.59961
vt 1.00000 -0.51367
vt 1.00000 -0.59961
vt 0.75391 -0.59961
vt 0.50000 -0.51367
vt 1.00000 -0.51367
vt 1.00000 -0.59961
vt 1.50000 -0.51367
vt 1.27930 -0.59961
vt 1.00000 -0.59961
vt 1.00000 -0.51367
vt 1.50000 -0.51367
vt 0.43750 -0.59375
vt 0.28516 -0.59375
vt 0.43750 -0.89063
vt 0.43750 -0.89063
vt 0.28516 -0.59375
vt 0.28516 -0.89063
vt 0.28516 -0.59375
vt 0.43750 -0.89063
vt 0.28516 -0.89063
vt 0.43750 -0.39453
vt 0.28516 -0.48633
vt 0.28516 -0.39453
vt 0.28516 -0.39453
vt 0.28516 -0.48633
vt 0.43750 -0.39453
vt 0.43750 -0.59375
vt 0.43750 -0.89063
vt 0.28516 -0.59375
vn -0.3865 0.8374 0.3865
vn 0.0000 1.0000 0.0000
vn 0.0000 0.8505 0.5260
vn -0.3865 0.8374 0.3865
vn 0.0000 1.0000 0.0000
vn 0.0000 1.0000 0.0000
vn -0.5260 0.8505 0.0000
vn 0.0000 1.0000 0.0000
vn -0.3865 0.8374 0.3865
vn -0.5260 0.8505 0.0000
vn 0.0000 1.0000 0.0000
vn 0.0000 1.0000 0.0000
vn -0.5259 0.8505 0.0000
vn -0.3865 0.8374 0.3865
vn -0.6425 0.6934 0.3262
vn -0.6425 0.6934 0.3262
vn -0.3865 0.8374 0.3865
vn -0.4629 0.7559 0.4629
vn -0.3865 0.8374 0.3865
vn -0.3262 0.6933 0.6426
vn -0.4629 0.7559 0.4629
vn -0.3262 0.6934 0.6426
vn -0.3865 0.8374 0.3865
vn -0.4629 0.7559 0.4629
vn -0.4629 0.7559 0.4629
vn -0.3865 0.8374 0.3865
vn -0.6426 0.6934 0.3262
vn 0.0000 0.8505 0.5259
vn -0.3262 0.6933 0.6426
vn -0.3865 0.8374 0.3865
g wall01_g_center_v4_0
usemtl wall01_g
f 1/1/1 2/2/2 3/3/3
f 4/4/4 5/5/5 6/6/6
f 7/7/7 8/8/8 9/9/9
f 10/10/10 11/11/11 12/12/12
f 13/13/13 14/14/14 15/15/15
f 16/16/16 17/17/17 18/18/18
f 19/19/19 20/20/20 21/21/21
f 22/22/22 23/23/23 24/24/24
f 25/25/25 26/26/26 27/27/27
f 28/28/28 29/29/29 30/30/30
