# wallkn_g_edge_w_v2
# generated by tools/assets/build-tiles.js — do not edit
mtllib wallkn_g_edge_w_v2.mtl
o wallkn_g_edge_w_v2
v 0.21094 0.09863 0.00000
v 0.66992 0.99707 1.00000
v 0.66992 0.99707 0.00000
v 0.21094 0.09863 0.00000
v 0.21094 0.09863 1.00000
v 0.66992 0.99707 1.00000
v 0.66992 0.99707 0.00000
v 1.00000 1.00000 1.00000
v 1.00000 1.00000 0.00000
v 0.66992 0.99707 0.00000
v 0.66992 0.99707 1.00000
v 1.00000 1.00000 1.00000
v 0.21094 0.09863 0.00000
v -0.00000 0.00000 1.00000
v 0.21094 0.09863 1.00000
v 0.21094 0.09863 0.00000
v -0.00000 0.00000 0.00000
v -0.00000 0.00000 1.00000
vt 0.50000 -0.89453
vt 0.00000 -0.59766
vt 0.50000 -0.59766
vt 0.50000 -0.89453
vt 0.00000 -0.89453
vt 0.00000 -0.59766
vt 0.50000 -0.59766
vt 0.00000 -0.51563
vt 0.50000 -0.51563
vt 0.50000 -0.59766
vt 0.00000 -0.59766
vt 0.00000 -0.51563
vt 0.50000 -0.89453
vt 0.00000 -0.98828
vt 0.00000 -0.89453
vt 0.50000 -0.89453
vt 0.50000 -0.98828
vt 0.00000 -0.98828
vn -0.7071 0.7071 0.0000
vn -0.5258 0.8506 0.0000
vn -0.5258 0.8506 0.0000
vn -0.7071 0.7071 0.0000
vn -0.7071 0.7071 0.0000
vn -0.5258 0.8506 0.0000
vn -0.5258 0.8506 0.0000
vn 0.0000 1.0000 0.0000
vn 0.0000 1.0000 0.0000
vn -0.5258 0.8506 0.0000
vn -0.5258 0.8506 0.0000
vn 0.0000 1.0000 0.0000
vn -0.7071 0.7071 0.0000
vn -0.4260 0.9047 0.0000
vn -0.7071 0.7071 0.0000
vn -0.7071 0.7071 0.0000
vn -0.4260 0.9047 0.0000
vn -0.4260 0.9047 0.0000
g wallkn_g_edge_w_v2_0
usemtl wallkn_g
f 1/1/1 2/2/2 3/3/3
f 4/4/4 5/5/5 6/6/6
f 7/7/7 8/8/8 9/9/9
f 10/10/10 11/11/11 12/12/12
f 13/13/13 14/14/14 15/15/15
f 16/16/16 17/17/17 18/18/18
