# wall01_d_inner_se_v2
# generated by tools/assets/build-tiles.js — do not edit
mtllib wall01_d_inner_se_v2.mtl
o wall01_d_inner_se_v2
v 1.00000 0.49707 0.33008
v 0.00000 0.50000 0.00000
v 0.33008 0.49707 0.33008
v 1.00000 0.49707 0.33008
v 1.00000 0.50000 0.00000
v 0.00000 0.50000 0.00000
v 0.00000 0.50000 1.00000
v 0.33008 0.49707 0.33008
v 0.00000 0.50000 0.00000
v 0.00000 0.50000 1.00000
v 0.33008 0.49707 1.00000
v 0.33008 0.49707 0.33008
v 1.00000 0.49707 0.33008
v 0.33008 0.49707 0.33008
v 1.00000 -0.40137 0.78906
v 1.00000 -0.40137 0.78906
v 0.33008 0.49707 0.33008
v 0.89453 -0.40137 0.89453
v 0.33008 0.49707 0.33008
v 0.78906 -0.40137 1.00000
v 0.89453 -0.40137 0.89453
v 0.78906 -0.40137 1.00000
v 1.00000 -0.50000 1.00000
v 0.89453 -0.40137 0.89453
v 0.89453 -0.40137 0.89453
v 1.00000 -0.50000 1.00000
v 1.00000 -0.40137 0.78906
v 0.33008 0.49707 1.00000
v 0.78906 -0.40137 1.00000
v 0.33008 0.49707 0.33008
vt 1.00000 -0.09961
vt 1.50000 -0.01367
vt 1.27930 -0.09961
vt 1.00000 -0.09961
vt 1.00000 -0.01367
vt 1.50000 -0.01367
vt 1.00000 -0.01367
vt 0.75391 -0.09961
vt 0.50000 -0.01367
vt 1.00000 -0.01367
vt 1.00000 -0.09961
vt 0.75391 -0.09961
vt 0.43750 -0.09375
vt 0.28516 -0.09375
vt 0.43750 -0.39063
vt 0.43750 -0.39063
vt 0.28516 -0.09375
vt 0.28516 -0.39063
vt 0.28516 -0.09375
vt 0.43750 -0.39063
vt 0.28516 -0.39063
vt 0.43750 0.10547
vt 0.28516 0.01367
vt 0.28516 0.10547
vt 0.28516 0.10547
vt 0.28516 0.01367
vt 0.43750 0.10547
vt 0.43750 -0.09375
vt 0.43750 -0.39063
vt 0.28516 -0.09375
vn 0.0000 0.8506 0.5258
vn 0.0044 1.0000 0.0044
vn 0.1727 0.9697 0.1727
vn 0.0000 0.8506 0.5258
vn 0.0000 1.0000 0.0089
vn 0.0044 1.0000 0.0044
vn 0.0089 1.0000 0.0000
vn 0.1727 0.9697 0.1727
vn 0.0044 1.0000 0.0044
vn 0.0089 1.0000 0.0000
vn 0.5258 0.8506 0.0000
vn 0.1727 0.9697 0.1727
vn 0.0000 0.8506 0.5258
vn 0.1727 0.9697 0.1727
vn 0.3985 0.7052 0.5864
vn 0.3985 0.7052 0.5864
vn 0.1727 0.9697 0.1727
vn 0.4632 0.7555 0.4632
vn 0.1727 0.9697 0.1727
vn 0.5864 0.7052 0.3985
vn 0.4632 0.7555 0.4632
vn 0.5864 0.7052 0.3985
vn 0.3900 0.8341 0.3900
vn 0.4632 0.7555 0.4632
vn 0.4632 0.7555 0.4632
vn 0.3900 0.8341 0.3900
vn 0.3985 0.7052 0.5864
vn 0.5258 0.8506 0.0000
vn 0.5864 0.7052 0.3985
vn 0.1727 0.9697 0.1727
g wall01_d_inner_se_v2_0
usemtl wall01_d
f 1/1/1 2/2/2 3/3/3
f 4/4/4 5/5/5 6/6/6
f 7/7/7 8/8/8 9/9/9
f 10/10/10 11/11/11 12/12/12
f 13/13/13 14/14/14 15/15/15
f 16/16/16 17/17/17 18/18/18
f 19/19/19 20/20/20 21/21/21
f 22/22/22 23/23/23 24/24/24
f 25/25/25 26/26/26 27/27/27
f 28/28/28 29/29/29 30/30/30
v 0.78906 -0.09082 1.00000
v 1.00000 -0.39156 1.00000
v 1.00000 -0.09082 0.78906
vt 0.15000 0.75000
vt 0.00000 0.50000
vt -0.15000 0.75000
vn 0.6335 0.4443 0.6335
vn 0.6335 0.4443 0.6335
vn 0.6335 0.4443 0.6335
g wall01_d_inner_se_v2_1
usemtl sea_line02
f 31/31/31 32/32/32 33/33/33
