# wall01_d_edge_n_v3
# generated by tools/assets/build-tiles.js — do not edit
mtllib wall01_d_edge_n_v3.mtl
o wall01_d_edge_n_v3
v 1.00000 0.49707 0.66992
v 0.00000 0.50000 1.00000
v 1.00000 0.50000 1.00000
v 1.00000 0.49707 0.66992
v 0.00000 0.49707 0.66992
v 0.00000 0.50000 1.00000
v 1.00000 -0.40137 0.21094
v 0.00000 0.49707 0.66992
v 1.00000 0.49707 0.66992
v 1.00000 -0.40137 0.21094
v 0.00000 -0.40137 0.21094
v 0.00000 0.49707 0.66992
v 1.00000 -0.40137 0.21094
v 0.00000 -0.50000 0.00000
v 0.00000 -0.40137 0.21094
v 1.00000 -0.40137 0.21094
v 1.00000 -0.50000 0.00000
v 0.00000 -0.50000 0.00000
vt 0.00000 -0.09766
vt -0.50000 -0.01563
vt 0.00000 -0.01563
vt 0.00000 -0.09766
vt -0.50000 -0.09766
vt -0.50000 -0.01563
vt 0.00000 -0.39453
vt -0.50000 -0.09766
vt 0.00000 -0.09766
vt 0.00000 -0.39453
vt -0.50000 -0.39453
vt -0.50000 -0.09766
vt 0.00000 0.10938
vt -0.50000 0.01563
vt -0.50000 0.10938
vt 0.00000 0.10938
vt 0.00000 0.01563
vt -0.50000 0.01563
vn 0.0000 0.8506 -0.5258
vn -0.0186 0.9998 -0.0089
vn 0.0000 1.0000 0.0098
vn 0.0000 0.8506 -0.5258
vn 0.0000 0.8506 -0.5258
vn -0.0186 0.9998 -0.0089
vn 0.0000 0.7187 -0.6953
vn 0.0000 0.8506 -0.5258
vn 0.0000 0.8506 -0.5258
vn 0.0000 0.7187 -0.6953
vn 0.0000 0.7187 -0.6953
vn 0.0000 0.8506 -0.5258
vn 0.0000 0.7187 -0.6953
vn 0.0000 0.9047 -0.4260
vn 0.3254 0.8566 -0.4005
vn 0.0000 0.7187 -0.6953
vn 0.0000 0.9047 -0.4260
vn 0.0000 0.9047 -0.4260
g wall01_d_edge_n_v3_0
usemtl wall01_d
f 1/1/1 2/2/2 3/3/3
f 4/4/4 5/5/5 6/6/6
f 7/7/7 8/8/8 9/9/9
f 10/10/10 11/11/11 12/12/12
f 13/13/13 14/14/14 15/15/15
f 16/16/16 17/17/17 18/18/18
v 0.00000 -0.09082 0.21094
v 1.00000 -0.36816 0.03711
v 0.00000 -0.36816 0.03711
v 0.00000 -0.09082 0.21094
v 1.00000 -0.09082 0.21094
v 1.00000 -0.36816 0.03711
v 0.00000 -0.36816 0.03711
v 1.00000 -0.59961 -0.33008
v 0.00000 -0.59961 -0.33008
v 0.00000 -0.36816 0.03711
v 1.00000 -0.36816 0.03711
v 1.00000 -0.59961 -0.33008
vt -3.00000 -1.25000
vt -2.00000 -1.48633
vt -3.00000 -1.48633
vt -3.00000 -1.25000
vt -2.00000 -1.25000
vt -2.00000 -1.48633
vt -3.00000 -1.48633
vt -2.00000 -2.00000
vt -3.00000 -2.00000
vt -3.00000 -1.48633
vt -2.00000 -1.48633
vt -2.00000 -2.00000
vn 0.0004 1.0000 0.0000
vn 0.0000 1.0000 -0.0058
vn 0.0002 1.0000 0.0000
vn 0.0004 1.0000 0.0000
vn 0.0000 1.0000 0.0098
vn 0.0000 1.0000 -0.0058
vn 0.0002 1.0000 0.0000
vn 0.0000 1.0000 0.0098
vn 0.0000 1.0000 0.0098
vn 0.0002 1.0000 0.0000
vn 0.0000 1.0000 -0.0058
vn 0.0000 1.0000 0.0098
g wall01_d_edge_n_v3_1
usemtl sea_line02
f 19/19/19 20/20/20 21/21/21
f 22/22/22 23/23/23 24/24/24
f 25/25/25 26/26/26 27/27/27
f 28/28/28 29/29/29 30/30/30
