# wall01_g_s
# generated by tools/assets/build-tiles.js — do not edit
mtllib wall01_g_s.mtl
o wall01_g_s
v 1.00000 0.09863 0.21094
v 0.00000 0.99707 0.66992
v 1.00000 0.99707 0.66992
v 1.00000 0.09863 0.21094
v 0.00000 0.09863 0.21094
v 0.00000 0.99707 0.66992
v 1.00000 0.99707 0.66992
v 0.00000 1.00000 1.00000
v 1.00000 1.00000 1.00000
v 1.00000 0.99707 0.66992
v 0.00000 0.99707 0.66992
v 0.00000 1.00000 1.00000
v 1.00000 0.09863 0.21094
v 0.00000 0.00000 -0.00000
v 0.00000 0.09863 0.21094
v 1.00000 0.09863 0.21094
v 1.00000 0.00000 -0.00000
v 0.00000 0.00000 -0.00000
vt 0.50000 -0.89453
vt 0.00000 -0.59766
vt 0.50000 -0.59766
vt 0.50000 -0.89453
vt 0.00000 -0.89453
vt 0.00000 -0.59766
vt 0.50000 -0.59766
vt 0.00000 -0.51563
vt 0.50000 -0.51563
vt 0.50000 -0.59766
vt 0.00000 -0.59766
vt 0.00000 -0.51563
vt 0.50000 -0.89453
vt 0.00000 -0.98828
vt 0.00000 -0.89453
vt 0.50000 -0.89453
vt 0.50000 -0.98828
vt 0.00000 -0.98828
vn 0.0000 0.7071 -0.7071
vn 0.0000 0.8506 -0.5258
vn 0.0000 0.8506 -0.5258
vn 0.0000 0.7071 -0.7071
vn 0.0000 0.7071 -0.7071
vn 0.0000 0.8506 -0.5258
vn 0.0000 0.8506 -0.5258
vn 0.0000 1.0000 0.0000
vn 0.0000 1.0000 0.0000
vn 0.0000 0.8506 -0.5258
vn 0.0000 0.8506 -0.5258
vn 0.0000 1.0000 0.0000
vn 0.0000 0.7071 -0.7071
vn 0.0000 0.9047 -0.4260
vn 0.0000 0.7071 -0.7071
vn 0.0000 0.7071 -0.7071
vn 0.0000 0.9047 -0.4260
vn 0.0000 0.9047 -0.4260
g wall01_g_s_0
usemtl wall01_g
f 1/1/1 2/2/2 3/3/3
f 4/4/4 5/5/5 6/6/6
f 7/7/7 8/8/8 9/9/9
f 10/10/10 11/11/11 12/12/12
f 13/13/13 14/14/14 15/15/15
f 16/16/16 17/17/17 18/18/18
