# largetile
# generated by tools/assets/build-tiles.js — do not edit
mtllib largetile.mtl
o largetile
v 0.00000 0.00000 0.00000
v 2.00000 0.00000 2.00000
v 2.00000 0.00000 0.00000
v 0.00000 0.00000 0.00000
v 0.00000 0.00000 2.00000
v 2.00000 0.00000 2.00000
vt 0.00010 0.00010
vt 0.99990 0.99990
vt 0.99990 0.00010
vt 0.00010 0.00010
vt 0.00010 0.99990
vt 0.99990 0.99990
vn 0.0000 1.0000 0.0000
vn 0.0000 1.0000 0.0000
vn 0.0000 1.0000 0.0000
vn 0.0000 1.0000 0.0000
vn 0.0000 1.0000 0.0000
vn 0.0000 1.0000 0.0000
g largetile_0
usemtl la_yukab
f 1/1/1 2/2/2 3/3/3
f 4/4/4 5/5/5 6/6/6
