# smalltile
# generated by tools/assets/build-tiles.js — do not edit
mtllib smalltile.mtl
o smalltile
v 0.25000 0.10000 0.75000
v 0.75000 0.10000 1.25000
v 0.75000 0.10000 0.75000
v 0.25000 0.10000 0.75000
v 0.25000 0.10000 1.25000
v 0.75000 0.10000 1.25000
vt 0.00010 0.00010
vt 0.99990 0.99990
vt 0.99990 0.00010
vt 0.00010 0.00010
vt 0.00010 0.99990
vt 0.99990 0.99990
vn 0.0000 1.0000 0.0000
vn 0.0000 1.0000 0.0000
vn 0.0000 1.0000 0.0000
vn 0.0000 1.0000 0.0000
vn 0.0000 1.0000 0.0000
vn 0.0000 1.0000 0.0000
g smalltile_0
usemtl la_yukae
f 1/1/1 2/2/2 3/3/3
f 4/4/4 5/5/5 6/6/6
