# 4
# generated by tools/assets/build-tiles.js — do not edit
mtllib 4.mtl
o 4
v 0.00000 0.03125 0.00000
v 1.00000 0.03125 1.00000
v 1.00000 0.03125 0.00000
v 1.00000 0.03125 1.00000
v 0.00000 0.03125 0.00000
v 0.00000 0.03125 1.00000
vt 0.50781 -0.49219
vt 0.99219 -0.00781
vt 0.99219 -0.49219
vt 0.99219 -0.00781
vt 0.50781 -0.49219
vt 0.50781 -0.00781
vn 0.0000 1.0000 0.0000
vn 0.0000 1.0000 0.0000
vn 0.0000 1.0000 0.0000
vn 0.0000 1.0000 0.0000
vn 0.0000 1.0000 0.0000
vn 0.0000 1.0000 0.0000
g 4_0
usemtl allpeak
f 1/1/1 2/2/2 3/3/3
f 4/4/4 5/5/5 6/6/6
