# ground_center
# generated by tools/assets/build-tiles.js — do not edit
mtllib ground_center.mtl
o ground_center
v 1.00000 0.00000 0.00000
v 0.00000 0.00000 1.00000
v 1.00000 0.00000 1.00000
v 1.00000 0.00000 0.00000
v 0.00000 0.00000 0.00000
v 0.00000 0.00000 1.00000
vt -1.50000 6.00000
vt -2.00000 6.50000
vt -1.50000 6.50000
vt -1.50000 6.00000
vt -2.00000 6.00000
vt -2.00000 6.50000
vn 0.0000 1.0000 0.0000
vn 0.0000 1.0000 0.0000
vn 0.0000 1.0000 0.0000
vn 0.0000 1.0000 0.0000
vn 0.0000 1.0000 0.0000
vn 0.0000 1.0000 0.0000
g ground_center_0
usemtl c3_grand_lm27
f 1/1/1 2/2/2 3/3/3
f 4/4/4 5/5/5 6/6/6
