# ptrc_v6
# generated by tools/assets/build-tiles.js — do not edit
mtllib ptrc_v6.mtl
o ptrc_v6
v 0.00000 0.87500 0.25000
v 0.00000 0.12500 0.75000
v 1.00000 0.87500 0.25000
v 1.00000 0.87500 0.25000
v 0.00000 0.12500 0.75000
v 1.00000 0.12500 0.75000
v 0.00000 0.12500 0.75000
v 0.00000 0.00000 1.00000
v 1.00000 0.12500 0.75000
v 1.00000 0.12500 0.75000
v 0.00000 0.00000 1.00000
v 1.00000 0.00000 1.00000
vt 1.00000 -0.12500
vt 1.00000 -0.81250
vt 0.00000 -0.12500
vt 0.00000 -0.12500
vt 1.00000 -0.81250
vt 0.00000 -0.81250
vt 1.00000 -0.81250
vt 1.00000 -1.00000
vt 0.00000 -0.81250
vt 0.00000 -0.81250
vt 1.00000 -1.00000
vt 0.00000 -1.00000
vn 0.0000 0.5547 0.8321
vn 0.0000 0.5547 0.8321
vn 0.0000 0.5547 0.8321
vn 0.0000 0.5547 0.8321
vn 0.0000 0.5547 0.8321
vn 0.0000 0.5547 0.8321
vn 0.0000 0.8944 0.4472
vn 0.0000 0.8944 0.4472
vn 0.0000 0.8944 0.4472
vn 0.0000 0.8944 0.4472
vn 0.0000 0.8944 0.4472
vn 0.0000 0.8944 0.4472
g ptrc_v6_0
usemtl hanger_lm4
f 1/1/1 2/2/2 3/3/3
f 4/4/4 5/5/5 6/6/6
f 7/7/7 8/8/8 9/9/9
f 10/10/10 11/11/11 12/12/12
v 1.00000 0.87500 0.25000
v 0.00000 1.00000 0.00000
v 0.00000 0.87500 0.25000
v 0.00000 1.00000 0.00000
v 1.00000 0.87500 0.25000
v 1.00000 1.00000 0.00000
vt 0.00000 -0.12500
vt 1.00000 0.00000
vt 1.00000 -0.12500
vt 1.00000 0.00000
vt 0.00000 -0.12500
vt 0.00000 0.00000
vn -0.0000 0.8944 0.4472
vn -0.0000 0.8944 0.4472
vn -0.0000 0.8944 0.4472
vn -0.0000 0.8944 0.4472
vn -0.0000 0.8944 0.4472
vn -0.0000 0.8944 0.4472
g ptrc_v6_1
usemtl criffp2
f 13/13/13 14/14/14 15/15/15
f 16/16/16 17/17/17 18/18/18
