# snowlayercnr_inner_nw
# generated by tools/assets/build-tiles.js — do not edit
mtllib snowlayercnr_inner_nw.mtl
o snowlayercnr_inner_nw
v 0.99976 0.08000 0.00000
v -0.00024 0.08000 1.00000
v 1.00073 0.08000 1.00000
v 0.99976 0.08000 0.00000
v -0.00024 0.08000 0.00000
v -0.00024 0.08000 1.00000
vt 0.50000 0.00000
vt 0.00000 -0.50000
vt 0.00000 0.00000
vt 0.50000 0.00000
vt 0.50000 -0.50000
vt 0.00000 -0.50000
vn 0.0000 1.0000 0.0000
vn 0.0000 1.0000 0.0000
vn 0.0000 1.0000 0.0000
vn 0.0000 1.0000 0.0000
vn 0.0000 1.0000 0.0000
vn 0.0000 1.0000 0.0000
g snowlayercnr_inner_nw_0
usemtl s_sonwp
f 1/1/1 2/2/2 3/3/3
f 4/4/4 5/5/5 6/6/6
