# srock
# generated by tools/assets/build-tiles.js — do not edit
mtllib srock.mtl
o srock
v 0.00000 0.06250 0.00000
v 1.00000 0.56250 0.87500
v 1.00000 0.06250 0.00000
v 1.00000 0.56250 0.87500
v 0.00000 0.06250 0.00000
v 0.00000 0.56250 0.87500
vt 0.00391 -1.00000
vt 1.00000 0.00000
vt 1.00000 -1.00000
vt 1.00000 0.00000
vt 0.00391 -1.00000
vt 0.00391 0.00000
vn 0.0000 0.8682 -0.4961
vn 0.0000 0.8682 -0.4961
vn 0.0000 0.8682 -0.4961
vn 0.0000 0.8682 -0.4961
vn 0.0000 0.8682 -0.4961
vn 0.0000 0.8682 -0.4961
g srock_0
usemtl c3_iwa_l_lm26
f 1/1/1 2/2/2 3/3/3
f 4/4/4 5/5/5 6/6/6
