# valla
# generated by tools/assets/build-tiles.js — do not edit
mtllib valla.mtl
o valla
v 0.00000 0.00000 0.00000
v 1.00000 0.70703 0.70703
v 1.00000 0.00000 0.00000
v 0.00000 0.00000 0.00000
v 0.00000 0.70703 0.70703
v 1.00000 0.70703 0.70703
vt -0.00000 -0.25000
vt 0.25000 0.00000
vt 0.25000 -0.25000
vt -0.00000 -0.25000
vt -0.00000 0.00000
vt 0.25000 0.00000
vn 0.0000 0.7071 -0.7071
vn 0.0000 0.7071 -0.7071
vn 0.0000 0.7071 -0.7071
vn 0.0000 0.7071 -0.7071
vn 0.0000 0.7071 -0.7071
vn 0.0000 0.7071 -0.7071
g valla_0
usemtl imped
f 1/1/1 2/2/2 3/3/3
f 4/4/4 5/5/5 6/6/6
