# fencefrontleft
# generated by tools/assets/build-tiles.js — do not edit
mtllib fencefrontleft.mtl
o fencefrontleft
v 0.50000 0.37500 0.37500
v 0.00000 0.70703 0.70703
v 1.00000 0.37500 0.37500
v 0.50000 0.37500 0.37500
v 0.00000 0.37500 0.37500
v 0.00000 0.70703 0.70703
v 0.50000 0.37500 0.37500
v 1.00000 0.00000 0.00000
v 0.00000 0.37500 0.37500
v 0.50000 0.37500 0.37500
v 1.00000 0.37500 0.37500
v 1.00000 0.00000 0.00000
v 0.50000 0.37500 0.37500
v 0.00000 0.37500 0.37500
v 0.50000 0.37500 1.00000
v 0.00000 0.37500 1.00000
v 0.50000 0.37500 1.00000
v 0.00000 0.37500 0.37500
v 0.00000 0.00000 0.00000
v 0.00000 0.37500 0.37500
v 1.00000 0.00000 0.00000
v 1.00000 0.70703 0.70703
v 1.00000 0.37500 0.37500
v 0.00000 0.70703 0.70703
vt 0.12500 -0.11740
vt -0.00000 0.00000
vt 0.25000 -0.11740
vt 0.12500 -0.11740
vt -0.00000 -0.11740
vt -0.00000 0.00000
vt 0.12500 -0.11740
vt 0.25000 -0.25000
vt -0.00000 -0.11740
vt 0.12500 -0.11740
vt 0.25000 -0.11740
vt 0.25000 -0.25000
vt 0.62500 -0.31250
vt 0.62500 -0.43750
vt 0.46875 -0.31250
vt 0.46875 -0.43750
vt 0.46875 -0.31250
vt 0.62500 -0.43750
vt -0.00000 -0.25000
vt -0.00000 -0.11740
vt 0.25000 -0.25000
vt 0.25000 0.00000
vt 0.25000 -0.11740
vt -0.00000 0.00000
vn 0.0000 0.7071 -0.7071
vn 0.0000 0.7071 -0.7071
vn 0.0000 0.7071 -0.7071
vn 0.0000 0.7071 -0.7071
vn 0.0000 0.7071 -0.7071
vn 0.0000 0.7071 -0.7071
vn 0.0000 0.7071 -0.7071
vn 0.0000 0.7071 -0.7071
vn 0.0000 0.7071 -0.7071
vn 0.0000 0.7071 -0.7071
vn 0.0000 0.7071 -0.7071
vn 0.0000 0.7071 -0.7071
vn 0.0000 1.0000 0.0000
vn 0.0000 1.0000 0.0000
vn 0.0000 1.0000 0.0000
vn 0.0000 1.0000 0.0000
vn 0.0000 1.0000 0.0000
vn 0.0000 1.0000 0.0000
vn 0.0000 0.7071 -0.7071
vn 0.0000 0.7071 -0.7071
vn 0.0000 0.7071 -0.7071
vn 0.0000 0.7071 -0.7071
vn 0.0000 0.7071 -0.7071
vn 0.0000 0.7071 -0.7071
g fencefrontleft_0
usemtl imped
f 1/1/1 2/2/2 3/3/3
f 4/4/4 5/5/5 6/6/6
f 7/7/7 8/8/8 9/9/9
f 10/10/10 11/11/11 12/12/12
f 13/13/13 14/14/14 15/15/15
f 16/16/16 17/17/17 18/18/18
f 19/19/19 20/20/20 21/21/21
f 22/22/22 23/23/23 24/24/24
