# fencemiddleleft
# generated by tools/assets/build-tiles.js — do not edit
mtllib fencemiddleleft.mtl
o fencemiddleleft
v 0.50000 0.37500 0.00000
v 0.00000 0.37500 0.00000
v 0.50000 0.37500 1.00000
v 0.50000 0.37500 0.00000
v 0.00000 0.37500 0.00000
v 0.25000 0.37500 0.00000
v 0.00000 0.37500 1.00000
v 0.50000 0.37500 1.00000
v 0.00000 0.37500 0.00000
vt 1.21338 -0.31250
vt 1.21338 -0.43750
vt 0.96338 -0.31250
vt 1.21338 -0.31250
vt 1.21338 -0.43750
vt 1.21338 -0.37500
vt 0.96338 -0.43750
vt 0.96338 -0.31250
vt 1.21338 -0.43750
vn -0.0000 1.0000 0.0000
vn -0.0000 1.0000 0.0000
vn -0.0000 1.0000 0.0000
vn -0.0000 1.0000 0.0000
vn -0.0000 1.0000 0.0000
vn -0.0000 1.0000 0.0000
vn 0.0000 1.0000 0.0000
vn 0.0000 1.0000 0.0000
vn 0.0000 1.0000 0.0000
g fencemiddleleft_0
usemtl imped
f 1/1/1 2/2/2 3/3/3
f 4/4/4 5/5/5 6/6/6
f 7/7/7 8/8/8 9/9/9
