# bridge_sea_edge_e
# generated by tools/assets/build-tiles.js — do not edit
mtllib bridge_sea_edge_e.mtl
o bridge_sea_edge_e
v 0.93750 -0.39063 1.00000
v 0.61621 -0.59961 0.00000
v 0.61621 -0.59961 1.00000
v 0.93750 -0.39063 1.00000
v 0.93750 -0.39063 0.00000
v 0.61621 -0.59961 0.00000
v 1.00000 -0.09082 1.00000
v 0.93750 -0.39063 0.00000
v 0.93750 -0.39063 1.00000
v 1.00000 -0.09082 1.00000
v 1.00000 -0.09082 0.00000
v 0.93750 -0.39063 0.00000
vt 3.00000 -1.48633
vt 4.00000 -2.00000
vt 3.00000 -2.00000
vt 3.00000 -1.48633
vt 4.00000 -1.48633
vt 4.00000 -2.00000
vt 3.00000 -1.25000
vt 4.00000 -1.48633
vt 3.00000 -1.48633
vt 3.00000 -1.25000
vt 4.00000 -1.25000
vt 4.00000 -1.48633
vn -0.0322 0.9995 0.0004
vn -0.0098 1.0000 0.0000
vn -0.0098 1.0000 0.0000
vn -0.0322 0.9995 0.0004
vn -0.0366 0.9993 0.0000
vn -0.0098 1.0000 0.0000
vn -0.0098 1.0000 0.0000
vn -0.0366 0.9993 0.0000
vn -0.0322 0.9995 0.0004
vn -0.0098 1.0000 0.0000
vn -0.0098 1.0000 0.0000
vn -0.0366 0.9993 0.0000
g bridge_sea_edge_e_0
usemtl sea_line02
f 1/1/1 2/2/2 3/3/3
f 4/4/4 5/5/5 6/6/6
f 7/7/7 8/8/8 9/9/9
f 10/10/10 11/11/11 12/12/12
