# bridge_sea_corner_ne
# generated by tools/assets/build-tiles.js — do not edit
mtllib bridge_sea_corner_ne.mtl
o bridge_sea_corner_ne
v 0.93457 -0.09082 0.06250
v 0.93750 -0.39063 1.00000
v 1.00000 -0.09082 1.00000
v 0.93457 -0.09082 0.06250
v 0.87500 -0.39063 0.12305
v 0.93750 -0.39063 1.00000
v 0.93750 -0.39063 1.00000
v 0.61719 -0.59961 0.38477
v 0.61621 -0.59961 1.00000
v 0.93750 -0.39063 1.00000
v 0.87500 -0.39063 0.12305
v 0.61719 -0.59961 0.38477
v 0.93457 -0.09082 0.06250
v 0.00000 -0.39063 0.06250
v 0.87500 -0.39063 0.12305
v 0.93457 -0.09082 0.06250
v 0.00000 -0.09082 0.00000
v 0.00000 -0.39063 0.06250
v 0.00000 -0.59961 0.38379
v 0.87500 -0.39063 0.12305
v 0.00000 -0.39063 0.06250
v 0.00000 -0.59961 0.38379
v 0.61719 -0.59961 0.38477
v 0.87500 -0.39063 0.12305
vt 1.50000 0.75000
vt 0.00000 0.51367
vt 0.00000 0.75000
vt 1.50000 0.75000
vt 1.43542 0.51367
vt 0.00000 0.51367
vt 0.00000 0.51367
vt 1.15625 0.00000
vt 0.00000 0.00000
vt 0.00000 0.51367
vt 1.43542 0.51367
vt 1.15625 0.00000
vt -0.50000 0.75000
vt 1.00000 0.51367
vt -0.43626 0.51367
vt -0.50000 0.75000
vt 1.00000 0.75000
vt 1.00000 0.51367
vt 1.00000 0.00000
vt -0.43626 0.51367
vt 1.00000 0.51367
vt 1.00000 0.00000
vt -0.16040 0.00000
vt -0.43626 0.51367
vn -0.6796 0.2692 0.6824
vn -0.0501 0.9986 0.0137
vn -0.0066 1.0000 0.0048
vn -0.6796 0.2692 0.6824
vn -0.5855 0.5595 0.5867
vn -0.0501 0.9986 0.0137
vn -0.0501 0.9986 0.0137
vn -0.2082 0.8714 0.4442
vn -0.0378 0.9991 0.0212
vn -0.0501 0.9986 0.0137
vn -0.5855 0.5595 0.5867
vn -0.2082 0.8714 0.4442
vn -0.6796 0.2692 0.6824
vn -0.0348 0.8673 0.4966
vn -0.5855 0.5595 0.5867
vn -0.6796 0.2692 0.6824
vn -0.0142 0.9999 -0.0058
vn -0.0348 0.8673 0.4966
vn -0.0237 0.8174 0.5755
vn -0.5855 0.5595 0.5867
vn -0.0348 0.8673 0.4966
vn -0.0237 0.8174 0.5755
vn -0.0237 0.8174 0.5755
vn -0.5855 0.5595 0.5867
g bridge_sea_corner_ne_0
usemtl sea_line02
f 1/1/1 2/2/2 3/3/3
f 4/4/4 5/5/5 6/6/6
f 7/7/7 8/8/8 9/9/9
f 10/10/10 11/11/11 12/12/12
f 13/13/13 14/14/14 15/15/15
f 16/16/16 17/17/17 18/18/18
f 19/19/19 20/20/20 21/21/21
f 22/22/22 23/23/23 24/24/24
