# bridge_sea_corner_nw
# generated by tools/assets/build-tiles.js — do not edit
mtllib bridge_sea_corner_nw.mtl
o bridge_sea_corner_nw
v 0.06250 -0.09082 0.06543
v 1.00000 -0.39063 0.06250
v 1.00000 -0.09082 0.00000
v 0.06250 -0.09082 0.06543
v 0.12305 -0.39063 0.12500
v 1.00000 -0.39063 0.06250
v 1.00000 -0.39063 0.06250
v 0.38477 -0.59961 0.38281
v 1.00000 -0.59961 0.38379
v 1.00000 -0.39063 0.06250
v 0.12305 -0.39063 0.12500
v 0.38477 -0.59961 0.38281
v 0.06250 -0.09082 0.06543
v 0.06250 -0.39063 1.00000
v 0.12305 -0.39063 0.12500
v 0.06250 -0.09082 0.06543
v 0.00000 -0.09082 1.00000
v 0.06250 -0.39063 1.00000
v 0.38379 -0.59961 1.00000
v 0.12305 -0.39063 0.12500
v 0.06250 -0.39063 1.00000
v 0.38379 -0.59961 1.00000
v 0.38477 -0.59961 0.38281
v 0.12305 -0.39063 0.12500
vt 1.50000 0.75000
vt 0.00000 0.51367
vt 0.00000 0.75000
vt 1.50000 0.75000
vt 1.43542 0.51367
vt 0.00000 0.51367
vt 0.00000 0.51367
vt 1.15625 0.00000
vt 0.00000 0.00000
vt 0.00000 0.51367
vt 1.43542 0.51367
vt 1.15625 0.00000
vt -0.50000 0.75000
vt 1.00000 0.51367
vt -0.43626 0.51367
vt -0.50000 0.75000
vt 1.00000 0.75000
vt 1.00000 0.51367
vt 1.00000 0.00000
vt -0.43626 0.51367
vt 1.00000 0.51367
vt 1.00000 0.00000
vt -0.16040 0.00000
vt -0.43626 0.51367
vn 0.6824 0.2692 0.6796
vn 0.0137 0.9986 0.0501
vn 0.0048 1.0000 0.0066
vn 0.6824 0.2692 0.6796
vn 0.5867 0.5595 0.5855
vn 0.0137 0.9986 0.0501
vn 0.0137 0.9986 0.0501
vn 0.4442 0.8714 0.2082
vn 0.0212 0.9991 0.0378
vn 0.0137 0.9986 0.0501
vn 0.5867 0.5595 0.5855
vn 0.4442 0.8714 0.2082
vn 0.6824 0.2692 0.6796
vn 0.4966 0.8673 0.0348
vn 0.5867 0.5595 0.5855
vn 0.6824 0.2692 0.6796
vn -0.0058 0.9999 0.0142
vn 0.4966 0.8673 0.0348
vn 0.5755 0.8174 0.0237
vn 0.5867 0.5595 0.5855
vn 0.4966 0.8673 0.0348
vn 0.5755 0.8174 0.0237
vn 0.5755 0.8174 0.0237
vn 0.5867 0.5595 0.5855
g bridge_sea_corner_nw_0
usemtl sea_line02
f 1/1/1 2/2/2 3/3/3
f 4/4/4 5/5/5 6/6/6
f 7/7/7 8/8/8 9/9/9
f 10/10/10 11/11/11 12/12/12
f 13/13/13 14/14/14 15/15/15
f 16/16/16 17/17/17 18/18/18
f 19/19/19 20/20/20 21/21/21
f 22/22/22 23/23/23 24/24/24
