# bridge_sea_inner_se
# generated by tools/assets/build-tiles.js — do not edit
mtllib bridge_sea_inner_se.mtl
o bridge_sea_inner_se
v 0.93750 -0.39063 1.00000
v 1.00000 -0.09082 1.00000
v 1.00000 -0.39063 0.93750
v 1.00000 -0.59961 0.61621
v 0.61621 -0.59961 1.00000
v 0.93750 -0.39063 1.00000
v 1.00000 -0.59961 0.61621
v 0.93750 -0.39063 1.00000
v 1.00000 -0.39063 0.93750
vt -0.08143 0.51367
vt 0.00000 0.75000
vt 0.08143 0.51367
vt 0.25000 0.00000
vt -0.25000 0.00000
vt -0.08143 0.51367
vt 0.25000 0.00000
vt -0.08143 0.51367
vt 0.08143 0.51367
vn -0.9385 -0.2598 -0.2274
vn -0.6759 0.5542 0.4859
vn -0.2269 -0.2599 -0.9386
vn -0.7836 0.6208 -0.0241
vn -0.0241 0.6208 -0.7836
vn -0.9385 -0.2598 -0.2274
vn -0.7836 0.6208 -0.0241
vn -0.9385 -0.2598 -0.2274
vn -0.2269 -0.2599 -0.9386
g bridge_sea_inner_se_0
usemtl sea_line02
f 1/1/1 2/2/2 3/3/3
f 4/4/4 5/5/5 6/6/6
f 7/7/7 8/8/8 9/9/9
