# pond_border_lowp_edge_n
# generated by tools/assets/build-tiles.js — do not edit
mtllib pond_border_lowp_edge_n.mtl
o pond_border_lowp_edge_n
v 0.00000 -0.50000 0.31250
v 1.00000 -0.50000 0.00000
v 0.00000 -0.50000 0.00000
v 0.00000 -0.50000 0.31250
v 1.00000 -0.50000 0.31250
v 1.00000 -0.50000 0.00000
v 0.00000 -0.50000 0.62500
v 1.00000 -0.50000 0.31250
v 0.00000 -0.50000 0.31250
v 0.00000 -0.50000 0.62500
v 1.00000 -0.50000 0.62500
v 1.00000 -0.50000 0.31250
vt 1.00000 -0.62500
vt 0.00000 -0.06250
vt 1.00000 -0.06250
vt 1.00000 -0.62500
vt 0.00000 -0.62500
vt 0.00000 -0.06250
vt 1.00000 -0.93750
vt 0.00000 -0.62500
vt 1.00000 -0.62500
vt 1.00000 -0.93750
vt 0.00000 -0.93750
vt 0.00000 -0.62500
vn 0.0000 1.0000 0.0000
vn 0.0000 1.0000 0.0000
vn 0.0000 1.0000 0.0000
vn 0.0000 1.0000 0.0000
vn 0.0000 1.0000 0.0000
vn 0.0000 1.0000 0.0000
vn 0.0000 1.0000 0.0000
vn 0.0000 1.0000 0.0000
vn 0.0000 1.0000 0.0000
vn 0.0000 1.0000 0.0000
vn 0.0000 1.0000 0.0000
vn 0.0000 1.0000 0.0000
g pond_border_lowp_edge_n_0
usemtl pond_edge
f 1/1/1 2/2/2 3/3/3
f 4/4/4 5/5/5 6/6/6
f 7/7/7 8/8/8 9/9/9
f 10/10/10 11/11/11 12/12/12
v 1.00000 0.12695 -0.22363
v 0.00000 0.10742 -0.01563
v 1.00000 0.10742 -0.01563
v 1.00000 0.12695 -0.22363
v 0.00000 0.12695 -0.22363
v 0.00000 0.10742 -0.01563
v 1.00000 0.10742 -0.01563
v 0.00000 -0.47656 0.29297
v 1.00000 -0.47656 0.29297
v 1.00000 0.10742 -0.01563
v 0.00000 0.10742 -0.01563
v 0.00000 -0.47656 0.29297
vt 0.00000 -0.01953
vt 1.00000 -0.20703
vt 0.00000 -0.20703
vt 0.00000 -0.01953
vt 1.00000 -0.01953
vt 1.00000 -0.20703
vt 0.00000 -0.20703
vt 1.00000 -0.97656
vt 0.00000 -0.97656
vt 0.00000 -0.20703
vt 1.00000 -0.20703
vt 1.00000 -0.97656
vn 0.0000 0.9956 0.0935
vn 0.0000 0.8314 0.5556
vn 0.0000 0.8314 0.5556
vn 0.0000 0.9956 0.0935
vn 0.0000 0.9956 0.0935
vn 0.0000 0.8314 0.5556
vn 0.0000 0.8314 0.5556
vn 0.0000 0.4672 0.8841
vn 0.0000 0.4672 0.8841
vn 0.0000 0.8314 0.5556
vn 0.0000 0.8314 0.5556
vn 0.0000 0.4672 0.8841
g pond_border_lowp_edge_n_1
usemtl pond_line
f 13/13/13 14/14/14 15/15/15
f 16/16/16 17/17/17 18/18/18
f 19/19/19 20/20/20 21/21/21
f 22/22/22 23/23/23 24/24/24
