# pond_lili
# generated by tools/assets/build-tiles.js — do not edit
mtllib pond_lili.mtl
o pond_lili
v 2.00000 -0.43750 2.00000
v 0.00000 -0.43750 0.00000
v 0.00000 -0.43750 2.00000
v 2.00000 -0.43750 2.00000
v 2.00000 -0.43750 0.00000
v 0.00000 -0.43750 0.00000
vt 1.00000 1.00000
vt 0.00000 0.00000
vt 0.00000 1.00000
vt 1.00000 1.00000
vt 1.00000 0.00000
vt 0.00000 0.00000
vn 0.0000 1.0000 0.0000
vn 0.0000 1.0000 0.0000
vn 0.0000 1.0000 0.0000
vn 0.0000 1.0000 0.0000
vn 0.0000 1.0000 0.0000
vn 0.0000 1.0000 0.0000
g pond_lili_0
usemtl pond_sub
f 1/1/1 2/2/2 3/3/3
f 4/4/4 5/5/5 6/6/6
