# pond_border_new_inner_se
# generated by tools/assets/build-tiles.js — do not edit
mtllib pond_border_new_inner_se.mtl
o pond_border_new_inner_se
v 0.37500 -0.50000 1.00000
v 1.00000 -0.50000 0.68750
v 1.00000 -0.50000 0.37500
v 0.37500 -0.50000 1.00000
v 0.68750 -0.50000 1.00000
v 1.00000 -0.50000 0.68750
v 1.00000 -0.50000 1.00000
v 1.00000 -0.50000 0.68750
v 0.68750 -0.50000 1.00000
vt 0.00000 -0.93750
vt 1.00000 -0.62500
vt 1.00000 -0.93750
vt 0.00000 -0.93750
vt 0.00000 -0.62500
vt 1.00000 -0.62500
vt 0.50000 -0.20703
vt 0.00000 -0.14453
vt 1.00000 -0.14453
vn 0.0000 1.0000 0.0000
vn 0.0000 1.0000 0.0000
vn 0.0000 1.0000 0.0000
vn 0.0000 1.0000 0.0000
vn 0.0000 1.0000 0.0000
vn 0.0000 1.0000 0.0000
vn 0.0000 1.0000 0.0000
vn 0.0000 1.0000 0.0000
vn 0.0000 1.0000 0.0000
g pond_border_new_inner_se_0
usemtl pond_edge
f 1/1/1 2/2/2 3/3/3
f 4/4/4 5/5/5 6/6/6
f 7/7/7 8/8/8 9/9/9
v 1.00000 -0.39453 0.83789
v 0.88965 -0.03613 1.00000
v 1.00000 -0.03613 0.88965
v 1.00000 -0.39453 0.83789
v 0.83789 -0.39453 1.00000
v 0.88965 -0.03613 1.00000
v 0.83789 -0.39453 1.00000
v 1.00000 -0.47656 0.70703
v 0.70703 -0.47656 1.00000
v 0.83789 -0.39453 1.00000
v 1.00000 -0.39453 0.83789
v 1.00000 -0.47656 0.70703
v 0.88965 -0.03613 1.00000
v 1.00000 0.08962 1.00000
v 1.00000 -0.03613 0.88965
vt 0.05533 0.24219
vt -0.03767 0.65234
vt 0.03767 0.65234
vt 0.05533 0.24219
vt -0.05533 0.24219
vt -0.03767 0.65234
vt -0.05533 0.24219
vt 0.10000 0.02344
vt -0.10000 0.02344
vt -0.05533 0.24219
vt 0.05533 0.24219
vt 0.10000 0.02344
vt -0.03767 0.65234
vt 0.00000 0.75000
vt 0.03767 0.65234
vn -0.6020 0.5246 -0.6020
vn -0.6797 0.2759 -0.6797
vn -0.6797 0.2759 -0.6797
vn -0.6020 0.5246 -0.6020
vn -0.6020 0.5246 -0.6020
vn -0.6797 0.2759 -0.6797
vn -0.6020 0.5246 -0.6020
vn -0.4691 0.7483 -0.4691
vn -0.4691 0.7483 -0.4691
vn -0.6020 0.5246 -0.6020
vn -0.6020 0.5246 -0.6020
vn -0.4691 0.7483 -0.4691
vn -0.6797 0.2759 -0.6797
vn -0.6008 0.5273 -0.6008
vn -0.6797 0.2759 -0.6797
g pond_border_new_inner_se_1
usemtl pond_line
f 10/10/10 11/11/11 12/12/12
f 13/13/13 14/14/14 15/15/15
f 16/16/16 17/17/17 18/18/18
f 19/19/19 20/20/20 21/21/21
f 22/22/22 23/23/23 24/24/24
