# pond_border_lowp_inner_nw
# generated by tools/assets/build-tiles.js — do not edit
mtllib pond_border_lowp_inner_nw.mtl
o pond_border_lowp_inner_nw
v 0.62500 -0.50000 0.00000
v 0.00000 -0.50000 0.31250
v 0.00000 -0.50000 0.62500
v 0.62500 -0.50000 0.00000
v 0.31250 -0.50000 0.00000
v 0.00000 -0.50000 0.31250
v 0.00000 -0.50000 0.00000
v 0.00000 -0.50000 0.31250
v 0.31250 -0.50000 0.00000
vt 0.00000 -0.93750
vt 1.00000 -0.62500
vt 1.00000 -0.93750
vt 0.00000 -0.93750
vt 0.00000 -0.62500
vt 1.00000 -0.62500
vt 0.50000 -0.20703
vt 0.00000 -0.14453
vt 1.00000 -0.14453
vn 0.0000 1.0000 0.0000
vn 0.0000 1.0000 0.0000
vn 0.0000 1.0000 0.0000
vn 0.0000 1.0000 0.0000
vn 0.0000 1.0000 0.0000
vn 0.0000 1.0000 0.0000
vn 0.0000 1.0000 0.0000
vn 0.0000 1.0000 0.0000
vn 0.0000 1.0000 0.0000
g pond_border_lowp_inner_nw_0
usemtl pond_edge
f 1/1/1 2/2/2 3/3/3
f 4/4/4 5/5/5 6/6/6
f 7/7/7 8/8/8 9/9/9
v 0.29297 -0.47656 0.00000
v 0.00000 0.07785 0.00000
v 0.00000 -0.47656 0.29297
vt -0.10000 0.03125
vt 0.00000 0.79297
vt 0.10000 0.03125
vn 0.6624 0.3500 0.6624
vn 0.6624 0.3500 0.6624
vn 0.6624 0.3500 0.6624
g pond_border_lowp_inner_nw_1
usemtl pond_line
f 10/10/10 11/11/11 12/12/12
