# sand_water_corner_sw
# generated by tools/assets/build-tiles.js — do not edit
mtllib sand_water_corner_sw.mtl
o sand_water_corner_sw
v 0.00000 -0.00000 0.00000
v 0.00000 -0.00000 1.00000
v 1.00000 -0.56250 0.00000
v 1.00000 -0.56250 0.00000
v 0.00000 -0.00000 1.00000
v 1.00000 -0.00000 1.00000
vt 1.00000 0.96875
vt 0.00000 0.96875
vt 1.00000 0.03125
vt 1.00000 0.03125
vt 0.00000 0.96875
vt 1.00000 0.96875
vn 0.0000 1.0000 0.0002
vn 0.0000 1.0000 0.0000
vn 0.0000 1.0000 0.0000
vn 0.0000 1.0000 0.0000
vn 0.0000 1.0000 0.0000
vn 0.0000 1.0000 0.0000
g sand_water_corner_sw_0
usemtl swave_un
f 1/1/1 2/2/2 3/3/3
f 4/4/4 5/5/5 6/6/6
v 0.00000 0.06250 0.00000
v 0.00000 0.06250 1.00000
v 1.00000 -0.50000 0.00000
v 1.00000 -0.50000 0.00000
v 0.00000 0.06250 1.00000
v 1.00000 0.06250 1.00000
vt 0.50000 0.98844
vt 0.00000 0.98844
vt 0.50375 0.43750
vt 0.50375 0.43750
vt 0.00000 0.98844
vt 0.50000 0.98844
vn 0.0000 1.0000 0.0002
vn 0.0000 1.0000 0.0000
vn 0.0000 1.0000 0.0000
vn 0.0000 1.0000 0.0000
vn 0.0000 1.0000 0.0000
vn 0.0000 1.0000 0.0000
g sand_water_corner_sw_1
usemtl swave_p
f 7/7/7 8/8/8 9/9/9
f 10/10/10 11/11/11 12/12/12
