# sand_water_edge_w
# generated by tools/assets/build-tiles.js — do not edit
mtllib sand_water_edge_w.mtl
o sand_water_edge_w
v 0.00000 -0.00000 1.00000
v 1.00000 -0.56250 0.00000
v 0.00000 -0.00000 0.00000
v 0.00000 -0.00000 1.00000
v 1.00000 -0.56250 1.00000
v 1.00000 -0.56250 0.00000
vt 1.00000 0.97266
vt 0.00000 0.02344
vt 0.00000 0.97266
vt 1.00000 0.97266
vt 1.00000 0.02344
vt 0.00000 0.02344
vn 0.0000 1.0000 0.0000
vn 0.0000 1.0000 0.0000
vn 0.0000 1.0000 0.0002
vn 0.0000 1.0000 0.0000
vn 0.0000 1.0000 0.0000
vn 0.0000 1.0000 0.0000
g sand_water_edge_w_0
usemtl swave_un
f 1/1/1 2/2/2 3/3/3
f 4/4/4 5/5/5 6/6/6
v 0.00000 0.06250 1.00000
v 1.00000 -0.50000 0.00000
v 0.00000 0.06250 0.00000
v 0.00000 0.06250 1.00000
v 1.00000 -0.50000 1.00000
v 1.00000 -0.50000 0.00000
vt 0.50000 0.98844
vt 0.00000 0.44938
vt 0.00000 0.98844
vt 0.50000 0.98844
vt 0.50000 0.44938
vt 0.00000 0.44938
vn 0.0000 1.0000 0.0000
vn 0.0000 1.0000 0.0000
vn 0.0000 1.0000 0.0002
vn 0.0000 1.0000 0.0000
vn 0.0000 1.0000 0.0000
vn 0.0000 1.0000 0.0000
g sand_water_edge_w_1
usemtl swave_p
f 7/7/7 8/8/8 9/9/9
f 10/10/10 11/11/11 12/12/12
