# sea_line02_corner_sw
# generated by tools/assets/build-tiles.js — do not edit
mtllib sea_line02_corner_sw.mtl
o sea_line02_corner_sw
v 1.00000 -0.40137 0.78906
v 1.00000 0.49707 0.33008
v 0.56250 -0.40137 0.75000
v 0.56250 -0.40137 0.75000
v 1.00000 0.49707 0.33008
v 0.25000 -0.40137 0.50000
v 1.00000 0.49707 0.33008
v 0.66992 0.49707 0.00000
v 0.25000 -0.40137 0.50000
v 0.25000 -0.40137 0.50000
v 0.66992 0.49707 0.00000
v 0.21094 -0.40137 0.00000
v 0.66992 0.49707 0.00000
v 1.00000 0.49707 0.33008
v 1.00000 0.50000 0.00000
vt -0.47070 -0.89258
vt -0.34570 -0.60547
vt -0.34570 -0.89258
vt -0.34570 -0.89258
vt -0.34570 -0.60547
vt -0.15820 -0.89258
vt -0.34570 -0.60547
vt -0.15820 -0.60547
vt -0.15820 -0.89258
vt -0.15820 -0.89258
vt -0.15820 -0.60547
vt -0.03320 -0.89258
vt -0.15820 -0.10938
vt -0.34570 -0.10938
vt -0.25195 -0.01563
vn -0.0644 0.7163 0.6948
vn -0.3322 0.7309 0.5961
vn -0.2303 0.7652 0.6012
vn -0.2303 0.7652 0.6012
vn -0.3322 0.7309 0.5961
vn -0.5703 0.7442 0.3477
vn -0.3322 0.7309 0.5961
vn -0.5665 0.7852 0.2500
vn -0.5703 0.7442 0.3477
vn -0.5703 0.7442 0.3477
vn -0.5665 0.7852 0.2500
vn -0.6961 0.7157 0.0567
vn -0.5665 0.7852 0.2500
vn -0.3322 0.7309 0.5961
vn -0.0098 1.0000 0.0000
g sea_line02_corner_sw_0
usemtl wall01_d
f 1/1/1 2/2/2 3/3/3
f 4/4/4 5/5/5 6/6/6
f 7/7/7 8/8/8 9/9/9
f 10/10/10 11/11/11 12/12/12
f 13/13/13 14/14/14 15/15/15
v 0.37500 -0.50000 0.93750
v 0.25000 -0.40137 0.50000
v 0.06250 -0.50000 0.68750
v 0.37500 -0.50000 0.93750
v 0.56250 -0.40137 0.75000
v 0.25000 -0.40137 0.50000
v 0.06250 -0.50000 0.68750
v 0.21094 -0.40137 0.00000
v 0.00000 -0.50000 0.00000
v 0.06250 -0.50000 0.68750
v 0.25000 -0.40137 0.50000
v 0.21094 -0.40137 0.00000
v 1.00000 -0.50000 1.00000
v 0.56250 -0.40137 0.75000
v 0.37500 -0.50000 0.93750
v 1.00000 -0.50000 1.00000
v 1.00000 -0.40137 0.78906
v 0.56250 -0.40137 0.75000
vt -0.34570 -0.98633
vt -0.15820 -0.89258
vt -0.15820 -0.98633
vt -0.34570 -0.98633
vt -0.34570 -0.89258
vt -0.15820 -0.89258
vt -0.15820 -0.98633
vt -0.03320 -0.89258
vt -0.00195 -0.98633
vt -0.15820 -0.98633
vt -0.15820 -0.89258
vt -0.03320 -0.89258
vt -0.50195 -0.98633
vt -0.34570 -0.89258
vt -0.34570 -0.98633
vt -0.50195 -0.98633
vt -0.47070 -0.89258
vt -0.34570 -0.89258
vn -0.1302 0.9267 0.3525
vn -0.5641 0.7491 0.3474
vn -0.3283 0.9312 0.1585
vn -0.1302 0.9267 0.3525
vn -0.2295 0.7665 0.5999
vn -0.5641 0.7491 0.3474
vn -0.3283 0.9312 0.1585
vn -0.6984 0.7136 0.0558
vn -0.4322 0.9018 -0.0019
vn -0.3283 0.9312 0.1585
vn -0.5641 0.7491 0.3474
vn -0.6984 0.7136 0.0558
vn -0.0014 0.9037 0.4281
vn -0.2295 0.7665 0.5999
vn -0.1302 0.9267 0.3525
vn -0.0014 0.9037 0.4281
vn -0.0672 0.7132 0.6978
vn -0.2295 0.7665 0.5999
g sea_line02_corner_sw_1
usemtl wall01_g
f 16/16/16 17/17/17 18/18/18
f 19/19/19 20/20/20 21/21/21
f 22/22/22 23/23/23 24/24/24
f 25/25/25 26/26/26 27/27/27
f 28/28/28 29/29/29 30/30/30
f 31/31/31 32/32/32 33/33/33
v 0.08789 -0.39063 0.62500
v -0.33301 -0.59961 0.00000
v -0.23340 -0.59961 0.62500
v 0.08789 -0.39063 0.62500
v 0.03613 -0.39063 0.00000
v -0.33301 -0.59961 0.00000
v 1.00000 -0.39063 0.97461
v 0.31250 -0.59961 1.17090
v 1.00000 -0.59961 1.29590
v 1.00000 -0.39063 0.97461
v 0.31250 -0.39063 0.84961
v 0.31250 -0.59961 1.17090
v 1.00000 -0.09082 0.78809
v 0.31250 -0.39063 0.84961
v 1.00000 -0.39063 0.97461
v 1.00000 -0.09082 0.78809
v 0.37500 -0.09082 0.66309
v 0.31250 -0.39063 0.84961
v -0.23340 -0.59961 0.62500
v 0.31250 -0.39063 0.84961
v 0.08789 -0.39063 0.62500
v -0.23340 -0.59961 0.62500
v 0.31250 -0.59961 1.17090
v 0.31250 -0.39063 0.84961
v 0.08789 -0.39063 0.62500
v 0.37500 -0.09082 0.66309
v 0.27441 -0.09082 0.56250
v 0.08789 -0.39063 0.62500
v 0.31250 -0.39063 0.84961
v 0.37500 -0.09082 0.66309
v 0.27441 -0.09082 0.56250
v 0.03613 -0.39063 0.00000
v 0.08789 -0.39063 0.62500
v 0.27441 -0.09082 0.56250
v 0.20996 -0.09082 0.00000
v 0.03613 -0.39063 0.00000
vt -2.00000 -1.48633
vt -1.00000 -2.00000
vt -2.00000 -2.00000
vt -2.00000 -1.48633
vt -1.00000 -1.48633
vt -1.00000 -2.00000
vt -2.00000 -1.48633
vt -1.00000 -2.00000
vt -2.00000 -2.00000
vt -2.00000 -1.48633
vt -1.00000 -1.48633
vt -1.00000 -2.00000
vt -2.00000 -1.25000
vt -1.00000 -1.48633
vt -2.00000 -1.48633
vt -2.00000 -1.25000
vt -1.00000 -1.25000
vt -1.00000 -1.48633
vt 1.20703 -2.00195
vt 0.20703 -1.50586
vt 0.79297 -1.50586
vt 1.20703 -2.00195
vt -0.20703 -2.00195
vt 0.20703 -1.50586
vt 0.79297 -1.50586
vt 0.37109 -1.25000
vt 0.62891 -1.25000
vt 0.79297 -1.50586
vt 0.20703 -1.50586
vt 0.37109 -1.25000
vt -2.00000 -1.25000
vt -1.00000 -1.48633
vt -2.00000 -1.48633
vt -2.00000 -1.25000
vt -1.00000 -1.25000
vt -1.00000 -1.48633
vn -0.0154 0.9999 0.0026
vn -0.0142 0.9999 0.0048
vn 0.0132 0.9997 -0.0200
vn -0.0154 0.9999 0.0026
vn -0.0294 0.9995 0.0062
vn -0.0142 0.9999 0.0048
vn -0.0116 0.9999 -0.0001
vn -0.0098 1.0000 0.0000
vn -0.0098 1.0000 0.0000
vn -0.0116 0.9999 -0.0001
vn -0.0104 0.9999 0.0079
vn -0.0098 1.0000 0.0000
vn -0.0097 0.9999 -0.0082
vn -0.0104 0.9999 0.0079
vn -0.0116 0.9999 -0.0001
vn -0.0097 0.9999 -0.0082
vn -0.0096 0.9997 0.0217
vn -0.0104 0.9999 0.0079
vn -0.0098 1.0000 0.0000
vn -0.0133 0.9999 0.0036
vn -0.0032 1.0000 -0.0067
vn -0.0098 1.0000 0.0000
vn -0.0098 1.0000 0.0000
vn -0.0133 0.9999 0.0036
vn -0.0032 1.0000 -0.0067
vn -0.0098 1.0000 0.0000
vn -0.0098 1.0000 0.0000
vn -0.0032 1.0000 -0.0067
vn -0.0133 0.9999 0.0036
vn -0.0098 1.0000 0.0000
vn -0.0209 0.9998 0.0034
vn -0.0294 0.9995 0.0062
vn -0.0154 0.9999 0.0026
vn -0.0209 0.9998 0.0034
vn 0.0255 0.9996 -0.0109
vn -0.0294 0.9995 0.0062
g sea_line02_corner_sw_2
usemtl sea_line02
f 34/34/34 35/35/35 36/36/36
f 37/37/37 38/38/38 39/39/39
f 40/40/40 41/41/41 42/42/42
f 43/43/43 44/44/44 45/45/45
f 46/46/46 47/47/47 48/48/48
f 49/49/49 50/50/50 51/51/51
f 52/52/52 53/53/53 54/54/54
f 55/55/55 56/56/56 57/57/57
f 58/58/58 59/59/59 60/60/60
f 61/61/61 62/62/62 63/63/63
f 64/64/64 65/65/65 66/66/66
f 67/67/67 68/68/68 69/69/69
