# swater_border_lowpoly_inner_nw
# generated by tools/assets/build-tiles.js — do not edit
mtllib swater_border_lowpoly_inner_nw.mtl
o swater_border_lowpoly_inner_nw
v 0.16309 -0.09082 0.00000
v 0.00000 -0.39062 0.27461
v 0.27461 -0.39062 0.00000
v 0.16309 -0.09082 0.00000
v 0.00000 -0.09082 0.16309
v 0.00000 -0.39062 0.27461
v 0.54590 -0.59961 0.00000
v 0.00000 -0.39062 0.27461
v 0.00000 -0.59961 0.54590
v 0.54590 -0.59961 0.00000
v 0.27461 -0.39062 0.00000
v 0.00000 -0.39062 0.27461
vt 0.10537 0.75000
vt 0.95416 0.49414
vt 0.04584 0.49414
vt 0.10537 0.75000
vt 0.89463 0.75000
vt 0.95416 0.49414
vt 0.00000 0.00000
vt 0.95416 0.49414
vt 1.00000 0.00000
vt 0.00000 0.00000
vt 0.04584 0.49414
vt 0.95416 0.49414
vn 0.6838 0.2544 0.6838
vn 0.5992 0.5310 0.5992
vn 0.5992 0.5310 0.5992
vn 0.6838 0.2544 0.6838
vn 0.6838 0.2544 0.6838
vn 0.5992 0.5310 0.5992
vn 0.5209 0.6762 0.5209
vn 0.5992 0.5310 0.5992
vn 0.5209 0.6762 0.5209
vn 0.5209 0.6762 0.5209
vn 0.5992 0.5310 0.5992
vn 0.5992 0.5310 0.5992
g swater_border_lowpoly_inner_nw_0
usemtl sea_line02
f 1/1/1 2/2/2 3/3/3
f 4/4/4 5/5/5 6/6/6
f 7/7/7 8/8/8 9/9/9
f 10/10/10 11/11/11 12/12/12
v 0.29297 -0.47656 0.00000
v 0.00000 0.07785 0.00000
v 0.00000 -0.47656 0.29297
vt -0.10000 0.00000
vt 0.00000 0.79297
vt 0.10000 0.00000
vn 0.6624 0.3500 0.6624
vn 0.6624 0.3500 0.6624
vn 0.6624 0.3500 0.6624
g swater_border_lowpoly_inner_nw_1
usemtl pond_line
f 13/13/13 14/14/14 15/15/15
