# swater_border_c_4_corner_sw
# generated by tools/assets/build-tiles.js — do not edit
mtllib swater_border_c_4_corner_sw.mtl
o swater_border_c_4_corner_sw
v 0.28711 -0.39062 0.71484
v 1.00000 -0.59961 0.45410
v 0.54590 -0.59961 0.45313
v 0.28711 -0.39062 0.71484
v 1.00000 -0.39062 0.77539
v 1.00000 -0.59961 0.45410
v 0.16309 -0.09082 0.00000
v 0.28711 -0.39062 0.71484
v 0.22461 -0.39062 0.00000
v 0.16309 -0.09082 0.00000
v 0.21352 -0.09082 0.78941
v 0.28711 -0.39062 0.71484
v 0.22461 -0.39062 0.00000
v 0.54590 -0.59961 0.45313
v 0.54590 -0.59961 0.00000
v 0.22461 -0.39062 0.00000
v 0.28711 -0.39062 0.71484
v 0.54590 -0.59961 0.45313
v 0.21352 -0.09082 0.78941
v 1.00000 -0.39062 0.77539
v 0.28711 -0.39062 0.71484
v 0.21352 -0.09082 0.78941
v 1.00000 -0.09082 0.83691
v 1.00000 -0.39062 0.77539
vt 0.50000 0.51367
vt 2.00000 0.00000
vt 0.50000 0.00000
vt 0.50000 0.51367
vt 2.00000 0.51367
vt 2.00000 0.00000
vt 0.00000 0.75000
vt 1.50000 0.51367
vt 0.00000 0.51367
vt 0.00000 0.75000
vt 1.50000 0.75000
vt 1.50000 0.51367
vt 0.00000 0.51367
vt 1.50000 0.00000
vt 0.00000 0.00000
vt 0.00000 0.51367
vt 1.50000 0.51367
vt 1.50000 0.00000
vt 0.50000 0.75000
vt 2.00000 0.51367
vt 0.50000 0.51367
vt 0.50000 0.75000
vt 2.00000 0.75000
vt 2.00000 0.51367
vn 0.0594 0.4660 -0.8828
vn 0.0302 0.8187 -0.5735
vn 0.0302 0.8187 -0.5735
vn 0.0594 0.4660 -0.8828
vn 0.0542 0.5515 -0.8324
vn 0.0302 0.8187 -0.5735
vn 0.9710 0.2279 -0.0729
vn 0.8840 0.4634 -0.0617
vn 0.8333 0.5500 -0.0561
vn 0.9710 0.2279 -0.0729
vn 0.9710 0.2279 -0.0729
vn 0.8840 0.4634 -0.0617
vn 0.8333 0.5500 -0.0561
vn 0.5751 0.8175 -0.0308
vn 0.5751 0.8175 -0.0308
vn 0.8333 0.5500 -0.0561
vn 0.8840 0.4634 -0.0617
vn 0.5751 0.8175 -0.0308
vn 0.0700 0.2290 -0.9709
vn 0.0542 0.5515 -0.8324
vn 0.0594 0.4660 -0.8828
vn 0.0700 0.2290 -0.9709
vn 0.0700 0.2290 -0.9709
vn 0.0542 0.5515 -0.8324
g swater_border_c_4_corner_sw_0
usemtl sea_line02
f 1/1/1 2/2/2 3/3/3
f 4/4/4 5/5/5 6/6/6
f 7/7/7 8/8/8 9/9/9
f 10/10/10 11/11/11 12/12/12
f 13/13/13 14/14/14 15/15/15
f 16/16/16 17/17/17 18/18/18
f 19/19/19 20/20/20 21/21/21
f 22/22/22 23/23/23 24/24/24
v 0.29199 -0.39453 0.83789
v 1.00000 -0.47656 0.70703
v 0.29297 -0.47656 0.70605
v 0.29199 -0.39453 0.83789
v 1.00000 -0.39453 0.83789
v 1.00000 -0.47656 0.70703
v 0.16211 -0.39453 0.00000
v 0.29297 -0.47656 0.70605
v 0.29297 -0.47656 0.00000
v 0.16211 -0.39453 0.00000
v 0.16211 -0.39453 0.71094
v 0.29297 -0.47656 0.70605
v 0.29199 -0.03613 0.88965
v 1.00000 -0.39453 0.83789
v 0.29199 -0.39453 0.83789
v 0.29199 -0.03613 0.88965
v 1.00000 -0.03613 0.88965
v 1.00000 -0.39453 0.83789
v 0.11035 -0.03613 0.00000
v 0.16211 -0.39453 0.71094
v 0.16211 -0.39453 0.00000
v 0.11035 -0.03613 0.00000
v 0.11035 -0.03613 0.71094
v 0.16211 -0.39453 0.71094
v -0.01563 0.10742 0.00000
v 0.11035 -0.03613 0.71094
v 0.11035 -0.03613 0.00000
v -0.01563 0.10742 0.00000
v -0.01563 0.10742 0.71094
v 0.11035 -0.03613 0.71094
v 0.29199 0.10742 1.01563
v 1.00000 -0.03613 0.88965
v 0.29199 -0.03613 0.88965
v 0.29199 0.10742 1.01563
v 1.00000 0.10742 1.01563
v 1.00000 -0.03613 0.88965
v -0.01563 0.10742 0.71094
v 0.29199 -0.03613 0.88965
v 0.11035 -0.03613 0.71094
v -0.01563 0.10742 0.71094
v 0.29199 0.10742 1.01563
v 0.29199 -0.03613 0.88965
v 0.11035 -0.03613 0.71094
v 0.29199 -0.39453 0.83789
v 0.16211 -0.39453 0.71094
v 0.11035 -0.03613 0.71094
v 0.29199 -0.03613 0.88965
v 0.29199 -0.39453 0.83789
v 0.29199 0.10742 1.01563
v -0.22168 0.12695 0.99707
v 0.00586 0.12695 1.22363
v 0.29199 0.10742 1.01563
v -0.01563 0.10742 0.71094
v -0.22168 0.12695 0.99707
v 0.00586 0.12695 1.22363
v 1.00000 0.10742 1.01563
v 0.29199 0.10742 1.01563
v 0.00586 0.12695 1.22363
v 1.00000 0.12695 1.22363
v 1.00000 0.10742 1.01563
v -0.22168 0.12695 0.99707
v -0.01563 0.10742 0.00000
v -0.22363 0.12695 0.00000
v -0.22168 0.12695 0.99707
v -0.01563 0.10742 0.71094
v -0.01563 0.10742 0.00000
v 0.29297 -0.47656 0.70605
v 0.16211 -0.39453 0.71094
v 0.29199 -0.39453 0.83789
vt 0.12500 -0.75781
vt 1.00000 -0.97656
vt 0.12500 -0.97656
vt 0.12500 -0.75781
vt 1.00000 -0.75781
vt 1.00000 -0.97656
vt 0.00000 -0.75781
vt 0.87500 -0.97656
vt 0.00000 -0.97656
vt 0.00000 -0.75781
vt 0.87500 -0.75781
vt 0.87500 -0.97656
vt 0.12500 -0.34766
vt 1.00000 -0.75781
vt 0.12500 -0.75781
vt 0.12500 -0.34766
vt 1.00000 -0.34766
vt 1.00000 -0.75781
vt 0.00000 -0.34766
vt 0.87500 -0.75781
vt 0.00000 -0.75781
vt 0.00000 -0.34766
vt 0.87500 -0.34766
vt 0.87500 -0.75781
vt 0.00000 -0.20703
vt 0.87500 -0.34766
vt 0.00000 -0.34766
vt 0.00000 -0.20703
vt 0.62500 -0.20703
vt 0.87500 -0.34766
vt 0.37500 -0.20703
vt 1.00000 -0.34766
vt 0.12500 -0.34766
vt 0.37500 -0.20703
vt 1.00000 -0.20703
vt 1.00000 -0.34766
vt 0.62500 0.75000
vt 1.37500 0.56250
vt 0.62500 0.56250
vt 0.62500 0.75000
vt 1.37500 0.75000
vt 1.37500 0.56250
vt 0.62500 0.56250
vt 1.37500 0.25000
vt 0.62500 0.25000
vt 0.62500 0.56250
vt 1.37500 0.56250
vt 1.37500 0.25000
vt 1.37500 0.75000
vt 0.87891 0.98242
vt 1.12500 0.98242
vt 1.37500 0.75000
vt 0.62500 0.75000
vt 0.87891 0.98242
vt 0.12500 -0.02637
vt 1.00000 -0.20703
vt 0.37500 -0.20703
vt 0.12500 -0.02637
vt 1.00000 -0.02637
vt 1.00000 -0.20703
vt 0.87891 -0.02637
vt 0.00000 -0.20703
vt 0.00000 -0.02637
vt 0.87891 -0.02637
vt 0.62500 -0.20703
vt 0.00000 -0.20703
vt 1.00000 0.06250
vt 0.62500 0.25000
vt 1.37500 0.25000
vn 0.0002 0.5456 -0.8381
vn 0.0004 0.8482 -0.5297
vn 0.0004 0.8482 -0.5297
vn 0.0002 0.5456 -0.8381
vn 0.0002 0.5463 -0.8376
vn 0.0004 0.8482 -0.5297
vn 0.8380 0.5456 0.0000
vn 0.5311 0.8473 0.0000
vn 0.5311 0.8473 0.0000
vn 0.8380 0.5456 0.0000
vn 0.8406 0.5417 0.0000
vn 0.5311 0.8473 0.0000
vn 0.0000 0.4185 -0.9082
vn 0.0002 0.5463 -0.8376
vn 0.0002 0.5456 -0.8381
vn 0.0000 0.4185 -0.9082
vn 0.0000 0.4185 -0.9082
vn 0.0002 0.5463 -0.8376
vn 0.9082 0.4186 0.0000
vn 0.8406 0.5417 0.0000
vn 0.8380 0.5456 0.0000
vn 0.9082 0.4186 0.0000
vn 0.9082 0.4186 0.0000
vn 0.8406 0.5417 0.0000
vn 0.4549 0.8905 -0.0001
vn 0.9082 0.4186 0.0000
vn 0.9082 0.4186 0.0000
vn 0.4549 0.8905 -0.0001
vn 0.3715 0.9284 -0.0001
vn 0.9082 0.4186 0.0000
vn 0.0000 0.9284 -0.3716
vn 0.0000 0.4185 -0.9082
vn 0.0000 0.4185 -0.9082
vn 0.0000 0.9284 -0.3716
vn 0.0000 0.8906 -0.4547
vn 0.0000 0.4185 -0.9082
vn 0.5972 0.5273 -0.6044
vn 0.6551 0.3585 -0.6651
vn 0.6549 0.3590 -0.6650
vn 0.5972 0.5273 -0.6044
vn 0.5972 0.5273 -0.6044
vn 0.6551 0.3585 -0.6651
vn 0.6549 0.3590 -0.6650
vn 0.6967 0.1016 -0.7101
vn 0.6967 0.1016 -0.7101
vn 0.6549 0.3590 -0.6650
vn 0.6551 0.3585 -0.6651
vn 0.6967 0.1016 -0.7101
vn 0.0394 0.9984 -0.0397
vn 0.0394 0.9984 -0.0397
vn 0.0394 0.9984 -0.0397
vn 0.0394 0.9984 -0.0397
vn 0.0394 0.9984 -0.0397
vn 0.0394 0.9984 -0.0397
vn 0.0000 0.9956 -0.0935
vn 0.0000 0.8906 -0.4547
vn 0.0000 0.9284 -0.3716
vn 0.0000 0.9956 -0.0935
vn 0.0000 0.9956 -0.0935
vn 0.0000 0.8906 -0.4547
vn 0.0939 0.9956 -0.0001
vn 0.4549 0.8905 -0.0001
vn 0.0939 0.9956 -0.0001
vn 0.0939 0.9956 -0.0001
vn 0.3715 0.9284 -0.0001
vn 0.4549 0.8905 -0.0001
vn 0.4569 0.7568 -0.4675
vn 0.4569 0.7568 -0.4675
vn 0.4569 0.7568 -0.4675
g swater_border_c_4_corner_sw_1
usemtl pond_line
f 25/25/25 26/26/26 27/27/27
f 28/28/28 29/29/29 30/30/30
f 31/31/31 32/32/32 33/33/33
f 34/34/34 35/35/35 36/36/36
f 37/37/37 38/38/38 39/39/39
f 40/40/40 41/41/41 42/42/42
f 43/43/43 44/44/44 45/45/45
f 46/46/46 47/47/47 48/48/48
f 49/49/49 50/50/50 51/51/51
f 52/52/52 53/53/53 54/54/54
f 55/55/55 56/56/56 57/57/57
f 58/58/58 59/59/59 60/60/60
f 61/61/61 62/62/62 63/63/63
f 64/64/64 65/65/65 66/66/66
f 67/67/67 68/68/68 69/69/69
f 70/70/70 71/71/71 72/72/72
f 73/73/73 74/74/74 75/75/75
f 76/76/76 77/77/77 78/78/78
f 79/79/79 80/80/80 81/81/81
f 82/82/82 83/83/83 84/84/84
f 85/85/85 86/86/86 87/87/87
f 88/88/88 89/89/89 90/90/90
f 91/91/91 92/92/92 93/93/93
