# swater_border_lowpoly_corner_nw
# generated by tools/assets/build-tiles.js — do not edit
mtllib swater_border_lowpoly_corner_nw.mtl
o swater_border_lowpoly_corner_nw
v 0.29395 -0.47656 0.29297
v 1.00000 0.10742 -0.01563
v 0.28906 0.10742 -0.01563
v 0.29395 -0.47656 0.29297
v 1.00000 -0.47656 0.29297
v 1.00000 0.10742 -0.01563
v 0.29395 -0.47656 0.29297
v -0.01563 0.10742 1.00000
v 0.29297 -0.47656 1.00000
v 0.29395 -0.47656 0.29297
v -0.01563 0.10742 0.29199
v -0.01563 0.10742 1.00000
v -0.01563 0.10742 0.29199
v 0.00293 0.12695 -0.22168
v -0.22363 0.12695 0.00586
v -0.01563 0.10742 0.29199
v 0.28906 0.10742 -0.01563
v 0.00293 0.12695 -0.22168
v -0.22363 0.12695 0.00586
v -0.01563 0.10742 1.00000
v -0.01563 0.10742 0.29199
v -0.22363 0.12695 0.00586
v -0.22363 0.12695 1.00000
v -0.01563 0.10742 1.00000
v 0.00293 0.12695 -0.22168
v 1.00000 0.10742 -0.01563
v 1.00000 0.12695 -0.22363
v 0.00293 0.12695 -0.22168
v 0.28906 0.10742 -0.01563
v 1.00000 0.10742 -0.01563
v 0.28906 0.10742 -0.01563
v -0.01563 0.10742 0.29199
v 0.29395 -0.47656 0.29297
vt 1.00000 -0.97656
vt 0.00000 -0.20703
vt 0.62500 -0.20703
vt 1.00000 -0.97656
vt 0.00000 -0.97656
vt 0.00000 -0.20703
vt 1.00000 -0.97656
vt 2.00000 -0.20703
vt 2.00000 -0.97656
vt 1.00000 -0.97656
vt 1.37500 -0.20703
vt 2.00000 -0.20703
vt 1.37500 -0.20703
vt 0.87891 -0.02637
vt 1.12500 -0.02637
vt 1.37500 -0.20703
vt 0.62500 -0.20703
vt 0.87891 -0.02637
vt 1.12500 -0.02637
vt 2.00000 -0.20703
vt 1.37500 -0.20703
vt 1.12500 -0.02637
vt 2.00000 -0.02637
vt 2.00000 -0.20703
vt 0.87891 -0.02637
vt 0.00000 -0.20703
vt 0.00000 -0.02637
vt 0.87891 -0.02637
vt 0.62500 -0.20703
vt 0.00000 -0.20703
vt 0.62500 -0.20703
vt 1.37500 -0.20703
vt 1.00000 -0.97656
vn 0.5901 0.5500 0.5910
vn 0.0001 0.8313 0.5558
vn 0.4126 0.8181 0.4005
vn 0.5901 0.5500 0.5910
vn 0.0000 0.4672 0.8841
vn 0.0001 0.8313 0.5558
vn 0.5901 0.5500 0.5910
vn 0.5554 0.8316 0.0003
vn 0.8838 0.4678 0.0006
vn 0.5901 0.5500 0.5910
vn 0.4364 0.8868 0.1520
vn 0.5554 0.8316 0.0003
vn 0.4364 0.8868 0.1520
vn 0.0292 0.9981 0.0539
vn 0.0541 0.9981 0.0289
vn 0.4364 0.8868 0.1520
vn 0.4126 0.8181 0.4005
vn 0.0292 0.9981 0.0539
vn 0.0541 0.9981 0.0289
vn 0.5554 0.8316 0.0003
vn 0.4364 0.8868 0.1520
vn 0.0541 0.9981 0.0289
vn 0.0935 0.9956 0.0000
vn 0.5554 0.8316 0.0003
vn 0.0292 0.9981 0.0539
vn 0.0001 0.8313 0.5558
vn 0.0001 0.9956 0.0939
vn 0.0292 0.9981 0.0539
vn 0.4126 0.8181 0.4005
vn 0.0001 0.8313 0.5558
vn 0.4126 0.8181 0.4005
vn 0.4364 0.8868 0.1520
vn 0.5901 0.5500 0.5910
g swater_border_lowpoly_corner_nw_0
usemtl pond_line
f 1/1/1 2/2/2 3/3/3
f 4/4/4 5/5/5 6/6/6
f 7/7/7 8/8/8 9/9/9
f 10/10/10 11/11/11 12/12/12
f 13/13/13 14/14/14 15/15/15
f 16/16/16 17/17/17 18/18/18
f 19/19/19 20/20/20 21/21/21
f 22/22/22 23/23/23 24/24/24
f 25/25/25 26/26/26 27/27/27
f 28/28/28 29/29/29 30/30/30
f 31/31/31 32/32/32 33/33/33
v 0.28516 -0.39062 0.28711
v 0.54590 -0.59961 1.00000
v 0.54688 -0.59961 0.54590
v 0.28516 -0.39062 0.28711
v 0.27461 -0.39062 1.00000
v 0.54590 -0.59961 1.00000
v 1.00000 -0.09082 0.16309
v 0.28516 -0.39062 0.28711
v 1.00000 -0.39062 0.27461
v 1.00000 -0.09082 0.16309
v 0.21059 -0.09082 0.21352
v 0.28516 -0.39062 0.28711
v 1.00000 -0.39062 0.27461
v 0.54688 -0.59961 0.54590
v 1.00000 -0.59961 0.54590
v 1.00000 -0.39062 0.27461
v 0.28516 -0.39062 0.28711
v 0.54688 -0.59961 0.54590
v 0.21059 -0.09082 0.21352
v 0.27461 -0.39062 1.00000
v 0.28516 -0.39062 0.28711
v 0.21059 -0.09082 0.21352
v 0.16309 -0.09082 1.00000
v 0.27461 -0.39062 1.00000
vt 0.50000 0.51367
vt 2.00000 0.00000
vt 0.50000 0.00000
vt 0.50000 0.51367
vt 2.00000 0.51367
vt 2.00000 0.00000
vt 0.00000 0.75000
vt 1.50000 0.51367
vt 0.00000 0.51367
vt 0.00000 0.75000
vt 1.50000 0.75000
vt 1.50000 0.51367
vt 0.00000 0.51367
vt 1.50000 0.00000
vt 0.00000 0.00000
vt 0.00000 0.51367
vt 1.50000 0.51367
vt 1.50000 0.00000
vt 0.50000 0.75000
vt 2.00000 0.51367
vt 0.50000 0.51367
vt 0.50000 0.75000
vt 2.00000 0.75000
vt 2.00000 0.51367
vn 0.8738 0.4855 0.0276
vn 0.6152 0.7883 0.0061
vn 0.6152 0.7883 0.0061
vn 0.8738 0.4855 0.0276
vn 0.8222 0.5687 0.0226
vn 0.6152 0.7883 0.0061
vn 0.0399 0.2993 0.9533
vn 0.0299 0.4831 0.8751
vn 0.0244 0.5670 0.8234
vn 0.0399 0.2993 0.9533
vn 0.0399 0.2993 0.9533
vn 0.0299 0.4831 0.8751
vn 0.0244 0.5670 0.8234
vn 0.0066 0.7868 0.6172
vn 0.0066 0.7868 0.6172
vn 0.0244 0.5670 0.8234
vn 0.0299 0.4831 0.8751
vn 0.0066 0.7868 0.6172
vn 0.9531 0.3003 0.0369
vn 0.8222 0.5687 0.0226
vn 0.8738 0.4855 0.0276
vn 0.9531 0.3003 0.0369
vn 0.9531 0.3003 0.0369
vn 0.8222 0.5687 0.0226
g swater_border_lowpoly_corner_nw_1
usemtl sea_line02
f 34/34/34 35/35/35 36/36/36
f 37/37/37 38/38/38 39/39/39
f 40/40/40 41/41/41 42/42/42
f 43/43/43 44/44/44 45/45/45
f 46/46/46 47/47/47 48/48/48
f 49/49/49 50/50/50 51/51/51
f 52/52/52 53/53/53 54/54/54
f 55/55/55 56/56/56 57/57/57
