# swater_border_br_3_inner_nw
# generated by tools/assets/build-tiles.js — do not edit
mtllib swater_border_br_3_inner_nw.mtl
o swater_border_br_3_inner_nw
v 0.16309 -0.09082 0.00000
v 0.00000 -0.39062 0.22461
v 0.22461 -0.39062 0.00000
v 0.16309 -0.09082 0.00000
v 0.00000 -0.09082 0.16309
v 0.00000 -0.39062 0.22461
v 0.54590 -0.59961 0.00000
v 0.00000 -0.39062 0.22461
v 0.00000 -0.59961 0.54590
v 0.54590 -0.59961 0.00000
v 0.22461 -0.39062 0.00000
v 0.00000 -0.39062 0.22461
vt 0.10537 0.75000
vt 0.95416 0.49414
vt 0.04584 0.49414
vt 0.10537 0.75000
vt 0.89463 0.75000
vt 0.95416 0.49414
vt 0.00000 0.00000
vt 0.95416 0.49414
vt 1.00000 0.00000
vt 0.00000 0.00000
vt 0.04584 0.49414
vt 0.95416 0.49414
vn 0.6998 0.1436 0.6998
vn 0.5985 0.5324 0.5985
vn 0.5985 0.5324 0.5985
vn 0.6998 0.1436 0.6998
vn 0.6998 0.1436 0.6998
vn 0.5985 0.5324 0.5985
vn 0.4787 0.7360 0.4787
vn 0.5985 0.5324 0.5985
vn 0.4787 0.7360 0.4787
vn 0.4787 0.7360 0.4787
vn 0.5985 0.5324 0.5985
vn 0.5985 0.5324 0.5985
g swater_border_br_3_inner_nw_0
usemtl sea_line02
f 1/1/1 2/2/2 3/3/3
f 4/4/4 5/5/5 6/6/6
f 7/7/7 8/8/8 9/9/9
f 10/10/10 11/11/11 12/12/12
v 0.00000 -0.39453 0.16211
v 0.11035 -0.03613 0.00000
v 0.00000 -0.03613 0.11035
v 0.00000 -0.39453 0.16211
v 0.16211 -0.39453 0.00000
v 0.11035 -0.03613 0.00000
v 0.16211 -0.39453 0.00000
v 0.00000 -0.47656 0.29297
v 0.29297 -0.47656 0.00000
v 0.16211 -0.39453 0.00000
v 0.00000 -0.39453 0.16211
v 0.00000 -0.47656 0.29297
v 0.11035 -0.03613 0.00000
v 0.00000 0.08962 0.00000
v 0.00000 -0.03613 0.11035
vt 0.05533 0.24219
vt -0.03767 0.65234
vt 0.03767 0.65234
vt 0.05533 0.24219
vt -0.05533 0.24219
vt -0.03767 0.65234
vt -0.05533 0.24219
vt 0.10000 0.02344
vt -0.10000 0.02344
vt -0.05533 0.24219
vt 0.05533 0.24219
vt 0.10000 0.02344
vt -0.03767 0.65234
vt 0.00000 0.75000
vt 0.03767 0.65234
vn 0.6020 0.5246 0.6020
vn 0.6797 0.2759 0.6797
vn 0.6797 0.2759 0.6797
vn 0.6020 0.5246 0.6020
vn 0.6020 0.5246 0.6020
vn 0.6797 0.2759 0.6797
vn 0.6020 0.5246 0.6020
vn 0.4691 0.7483 0.4691
vn 0.4691 0.7483 0.4691
vn 0.6020 0.5246 0.6020
vn 0.6020 0.5246 0.6020
vn 0.4691 0.7483 0.4691
vn 0.6797 0.2759 0.6797
vn 0.6008 0.5273 0.6008
vn 0.6797 0.2759 0.6797
g swater_border_br_3_inner_nw_1
usemtl pond_line
f 13/13/13 14/14/14 15/15/15
f 16/16/16 17/17/17 18/18/18
f 19/19/19 20/20/20 21/21/21
f 22/22/22 23/23/23 24/24/24
f 25/25/25 26/26/26 27/27/27
