# swater_center
# generated by tools/assets/build-tiles.js — do not edit
mtllib swater_center.mtl
o swater_center
v 0.00000 -0.50000 0.00000
v 1.00000 -0.50000 1.00000
v 1.00000 -0.50000 0.00000
v 0.00000 -0.50000 0.00000
v 0.00000 -0.50000 1.00000
v 1.00000 -0.50000 1.00000
vt 0.00000 0.00000
vt 0.50000 0.50000
vt 0.50000 0.00000
vt 0.00000 0.00000
vt 0.00000 0.50000
vt 0.50000 0.50000
vn 0.0000 1.0000 0.0000
vn 0.0000 1.0000 0.0000
vn 0.0000 1.0000 0.0000
vn 0.0000 1.0000 0.0000
vn 0.0000 1.0000 0.0000
vn 0.0000 1.0000 0.0000
g swater_center_0
usemtl sea_on
f 1/1/1 2/2/2 3/3/3
f 4/4/4 5/5/5 6/6/6
v 0.00000 -0.56250 0.00000
v 1.00000 -0.56250 1.00000
v 1.00000 -0.56250 0.00000
v 0.00000 -0.56250 0.00000
v 0.00000 -0.56250 1.00000
v 1.00000 -0.56250 1.00000
vt 0.00000 0.00000
vt 0.50000 0.50000
vt 0.50000 0.00000
vt 0.00000 0.00000
vt 0.00000 0.50000
vt 0.50000 0.50000
vn 0.0000 1.0000 0.0000
vn 0.0000 1.0000 0.0000
vn 0.0000 1.0000 0.0000
vn 0.0000 1.0000 0.0000
vn 0.0000 1.0000 0.0000
vn 0.0000 1.0000 0.0000
g swater_center_1
usemtl sea_un
f 7/7/7 8/8/8 9/9/9
f 10/10/10 11/11/11 12/12/12
