# swater_border_lowpoly_edge_s
# generated by tools/assets/build-tiles.js — do not edit
mtllib swater_border_lowpoly_edge_s.mtl
o swater_border_lowpoly_edge_s
v 0.00000 0.12695 1.22363
v 1.00000 0.10742 1.01563
v 0.00000 0.10742 1.01563
v 0.00000 0.12695 1.22363
v 1.00000 0.12695 1.22363
v 1.00000 0.10742 1.01563
v 0.00000 0.10742 1.01563
v 1.00000 -0.47656 0.70703
v 0.00000 -0.47656 0.70703
v 0.00000 0.10742 1.01563
v 1.00000 0.10742 1.01563
v 1.00000 -0.47656 0.70703
vt 0.00000 -0.01953
vt 1.00000 -0.20703
vt 0.00000 -0.20703
vt 0.00000 -0.01953
vt 1.00000 -0.01953
vt 1.00000 -0.20703
vt 0.00000 -0.20703
vt 1.00000 -0.97656
vt 0.00000 -0.97656
vt 0.00000 -0.20703
vt 1.00000 -0.20703
vt 1.00000 -0.97656
vn 0.0000 0.9956 -0.0935
vn 0.0000 0.8314 -0.5556
vn 0.0000 0.8314 -0.5556
vn 0.0000 0.9956 -0.0935
vn 0.0000 0.9956 -0.0935
vn 0.0000 0.8314 -0.5556
vn 0.0000 0.8314 -0.5556
vn 0.0000 0.4672 -0.8841
vn 0.0000 0.4672 -0.8841
vn 0.0000 0.8314 -0.5556
vn 0.0000 0.8314 -0.5556
vn 0.0000 0.4672 -0.8841
g swater_border_lowpoly_edge_s_0
usemtl pond_line
f 1/1/1 2/2/2 3/3/3
f 4/4/4 5/5/5 6/6/6
f 7/7/7 8/8/8 9/9/9
f 10/10/10 11/11/11 12/12/12
v 0.00000 -0.39062 0.72539
v 1.00000 -0.59961 0.45410
v 0.00000 -0.59961 0.45410
v 0.00000 -0.39062 0.72539
v 1.00000 -0.39062 0.72539
v 1.00000 -0.59961 0.45410
v 0.00000 -0.09082 0.83691
v 1.00000 -0.39062 0.72539
v 0.00000 -0.39062 0.72539
v 0.00000 -0.09082 0.83691
v 1.00000 -0.09082 0.83691
v 1.00000 -0.39062 0.72539
vt -4.00000 -1.48633
vt -3.00000 -2.00000
vt -4.00000 -2.00000
vt -4.00000 -1.48633
vt -3.00000 -1.48633
vt -3.00000 -2.00000
vt -4.00000 -1.25000
vt -3.00000 -1.48633
vt -4.00000 -1.48633
vt -4.00000 -1.25000
vt -3.00000 -1.25000
vt -3.00000 -1.48633
vn 0.0000 0.5934 -0.8049
vn 0.0000 0.7922 -0.6103
vn 0.0000 0.7922 -0.6103
vn 0.0000 0.5934 -0.8049
vn 0.0000 0.5934 -0.8049
vn 0.0000 0.7922 -0.6103
vn 0.0000 0.3486 -0.9373
vn 0.0000 0.5934 -0.8049
vn 0.0000 0.5934 -0.8049
vn 0.0000 0.3486 -0.9373
vn 0.0000 0.3486 -0.9373
vn 0.0000 0.5934 -0.8049
g swater_border_lowpoly_edge_s_1
usemtl sea_line02
f 13/13/13 14/14/14 15/15/15
f 16/16/16 17/17/17 18/18/18
f 19/19/19 20/20/20 21/21/21
f 22/22/22 23/23/23 24/24/24
