# swater_border_edge_n
# generated by tools/assets/build-tiles.js — do not edit
mtllib swater_border_edge_n.mtl
o swater_border_edge_n
v 1.00000 0.12695 -0.22363
v 0.00000 0.10742 -0.01563
v 1.00000 0.10742 -0.01563
v 1.00000 0.12695 -0.22363
v 0.00000 0.12695 -0.22363
v 0.00000 0.10742 -0.01563
v 1.00000 -0.39453 0.16211
v 0.00000 -0.47656 0.29297
v 1.00000 -0.47656 0.29297
v 1.00000 -0.39453 0.16211
v 0.00000 -0.39453 0.16211
v 0.00000 -0.47656 0.29297
v 1.00000 0.10742 -0.01563
v 0.00000 -0.03613 0.11035
v 1.00000 -0.03613 0.11035
v 1.00000 0.10742 -0.01563
v 0.00000 0.10742 -0.01563
v 0.00000 -0.03613 0.11035
v 1.00000 -0.03613 0.11035
v 0.00000 -0.39453 0.16211
v 1.00000 -0.39453 0.16211
v 1.00000 -0.03613 0.11035
v 0.00000 -0.03613 0.11035
v 0.00000 -0.39453 0.16211
vt -4.00000 -0.01953
vt -3.00000 -0.20703
vt -4.00000 -0.20703
vt -4.00000 -0.01953
vt -3.00000 -0.01953
vt -3.00000 -0.20703
vt -4.00000 -0.75781
vt -3.00000 -0.97656
vt -4.00000 -0.97656
vt -4.00000 -0.75781
vt -3.00000 -0.75781
vt -3.00000 -0.97656
vt -4.00000 -0.20703
vt -3.00000 -0.34766
vt -4.00000 -0.34766
vt -4.00000 -0.20703
vt -3.00000 -0.20703
vt -3.00000 -0.34766
vt -4.00000 -0.34766
vt -3.00000 -0.75781
vt -4.00000 -0.75781
vt -4.00000 -0.34766
vt -3.00000 -0.34766
vt -3.00000 -0.75781
vn 0.0000 0.9956 0.0935
vn 0.0000 0.8906 0.4547
vn 0.0000 0.8906 0.4547
vn 0.0000 0.9956 0.0935
vn 0.0000 0.9956 0.0935
vn 0.0000 0.8906 0.4547
vn 0.0000 0.5456 0.8380
vn 0.0000 0.8473 0.5311
vn 0.0000 0.8473 0.5311
vn 0.0000 0.5456 0.8380
vn 0.0000 0.5456 0.8380
vn 0.0000 0.8473 0.5311
vn 0.0000 0.8906 0.4547
vn 0.0000 0.4185 0.9082
vn 0.0000 0.4185 0.9082
vn 0.0000 0.8906 0.4547
vn 0.0000 0.8906 0.4547
vn 0.0000 0.4185 0.9082
vn 0.0000 0.4185 0.9082
vn 0.0000 0.5456 0.8380
vn 0.0000 0.5456 0.8380
vn 0.0000 0.4185 0.9082
vn 0.0000 0.4185 0.9082
vn 0.0000 0.5456 0.8380
g swater_border_edge_n_0
usemtl pond_line
f 1/1/1 2/2/2 3/3/3
f 4/4/4 5/5/5 6/6/6
f 7/7/7 8/8/8 9/9/9
f 10/10/10 11/11/11 12/12/12
f 13/13/13 14/14/14 15/15/15
f 16/16/16 17/17/17 18/18/18
f 19/19/19 20/20/20 21/21/21
f 22/22/22 23/23/23 24/24/24
v 1.00000 -0.39062 0.22461
v 0.00000 -0.59961 0.54590
v 1.00000 -0.59961 0.54590
v 1.00000 -0.39062 0.22461
v 0.00000 -0.39062 0.22461
v 0.00000 -0.59961 0.54590
v 1.00000 -0.09082 0.16309
v 0.00000 -0.39062 0.22461
v 1.00000 -0.39062 0.22461
v 1.00000 -0.09082 0.16309
v 0.00000 -0.09082 0.16309
v 0.00000 -0.39062 0.22461
vt -4.00000 -1.48633
vt -3.00000 -2.00000
vt -4.00000 -2.00000
vt -4.00000 -1.48633
vt -3.00000 -1.48633
vt -3.00000 -2.00000
vt -4.00000 -1.25000
vt -3.00000 -1.48633
vt -4.00000 -1.48633
vt -4.00000 -1.25000
vt -3.00000 -1.25000
vt -3.00000 -1.48633
vn 0.0000 0.5632 0.8263
vn 0.0000 0.8383 0.5453
vn 0.0000 0.8383 0.5453
vn 0.0000 0.5632 0.8263
vn 0.0000 0.5632 0.8263
vn 0.0000 0.8383 0.5453
vn 0.0000 0.2010 0.9796
vn 0.0000 0.5632 0.8263
vn 0.0000 0.5632 0.8263
vn 0.0000 0.2010 0.9796
vn 0.0000 0.2010 0.9796
vn 0.0000 0.5632 0.8263
g swater_border_edge_n_1
usemtl sea_line02
f 25/25/25 26/26/26 27/27/27
f 28/28/28 29/29/29 30/30/30
f 31/31/31 32/32/32 33/33/33
f 34/34/34 35/35/35 36/36/36
