# water_pond_edge_s
# generated by tools/assets/build-tiles.js — do not edit
mtllib water_pond_edge_s.mtl
o water_pond_edge_s
v 1.00000 -0.50000 0.37500
v 0.00000 -0.50000 0.00000
v 0.00000 -0.50000 0.37500
v 1.00000 -0.50000 0.37500
v 1.00000 -0.50000 0.00000
v 0.00000 -0.50000 0.00000
vt 18.00000 -1.31250
vt 17.50000 -1.50000
vt 17.50000 -1.31250
vt 18.00000 -1.31250
vt 18.00000 -1.50000
vt 17.50000 -1.50000
vn 0.0000 1.0000 0.0000
vn 0.0000 1.0000 0.0000
vn 0.0000 1.0000 0.0000
vn 0.0000 1.0000 0.0000
vn 0.0000 1.0000 0.0000
vn 0.0000 1.0000 0.0000
g water_pond_edge_s_0
usemtl pond_on
f 1/1/1 2/2/2 3/3/3
f 4/4/4 5/5/5 6/6/6
