# water_border_lowpoly_corner_ne
# generated by tools/assets/build-tiles.js — do not edit
mtllib water_border_lowpoly_corner_ne.mtl
o water_border_lowpoly_corner_ne
v 0.70801 0.10742 -0.01563
v 1.22168 0.12695 0.00293
v 0.99414 0.12695 -0.22363
v 0.70801 0.10742 -0.01563
v 1.01563 0.10742 0.28906
v 1.22168 0.12695 0.00293
v 0.99414 0.12695 -0.22363
v 0.00000 0.10742 -0.01563
v 0.70801 0.10742 -0.01563
v 0.99414 0.12695 -0.22363
v 0.00000 0.12695 -0.22363
v 0.00000 0.10742 -0.01563
v 1.22168 0.12695 0.00293
v 1.01563 0.10742 1.00000
v 1.22363 0.12695 1.00000
v 1.22168 0.12695 0.00293
v 1.01563 0.10742 0.28906
v 1.01563 0.10742 1.00000
v 0.70703 -0.47656 0.29395
v 1.01563 0.10742 1.00000
v 1.01563 0.10742 0.28906
v 0.70703 -0.47656 0.29395
v 0.70703 -0.47656 1.00000
v 1.01563 0.10742 1.00000
v 0.70703 -0.47656 0.29395
v 0.00000 0.10742 -0.01563
v 0.00000 -0.47656 0.29297
v 0.70703 -0.47656 0.29395
v 0.70801 0.10742 -0.01563
v 0.00000 0.10742 -0.01563
v 1.01563 0.10742 0.28906
v 0.70801 0.10742 -0.01563
v 0.70703 -0.47656 0.29395
vt 1.37500 -0.20703
vt 0.87891 -0.02637
vt 1.12500 -0.02637
vt 1.37500 -0.20703
vt 0.62500 -0.20703
vt 0.87891 -0.02637
vt 1.12500 -0.02637
vt 2.00000 -0.20703
vt 1.37500 -0.20703
vt 1.12500 -0.02637
vt 2.00000 -0.02637
vt 2.00000 -0.20703
vt 0.87891 -0.02637
vt 0.00000 -0.20703
vt 0.00000 -0.02637
vt 0.87891 -0.02637
vt 0.62500 -0.20703
vt 0.00000 -0.20703
vt 1.00000 -0.97656
vt 0.00000 -0.20703
vt 0.62500 -0.20703
vt 1.00000 -0.97656
vt 0.00000 -0.97656
vt 0.00000 -0.20703
vt 1.00000 -0.97656
vt 2.00000 -0.20703
vt 2.00000 -0.97656
vt 1.00000 -0.97656
vt 1.37500 -0.20703
vt 2.00000 -0.20703
vt 0.62500 -0.20703
vt 1.37500 -0.20703
vt 1.00000 -0.97656
vn -0.1520 0.8868 0.4364
vn -0.0539 0.9981 0.0292
vn -0.0289 0.9981 0.0541
vn -0.1520 0.8868 0.4364
vn -0.4005 0.8181 0.4126
vn -0.0539 0.9981 0.0292
vn -0.0289 0.9981 0.0541
vn -0.0003 0.8316 0.5554
vn -0.1520 0.8868 0.4364
vn -0.0289 0.9981 0.0541
vn 0.0000 0.9956 0.0935
vn -0.0003 0.8316 0.5554
vn -0.0539 0.9981 0.0292
vn -0.5558 0.8313 0.0001
vn -0.0939 0.9956 0.0001
vn -0.0539 0.9981 0.0292
vn -0.4005 0.8181 0.4126
vn -0.5558 0.8313 0.0001
vn -0.5910 0.5500 0.5901
vn -0.5558 0.8313 0.0000
vn -0.4005 0.8181 0.4126
vn -0.5910 0.5500 0.5901
vn -0.8841 0.4672 0.0000
vn -0.5558 0.8313 0.0000
vn -0.5910 0.5500 0.5901
vn -0.0003 0.8316 0.5554
vn -0.0006 0.4678 0.8838
vn -0.5910 0.5500 0.5901
vn -0.1520 0.8868 0.4364
vn -0.0003 0.8316 0.5554
vn -0.4005 0.8181 0.4126
vn -0.1520 0.8868 0.4364
vn -0.5910 0.5500 0.5901
g water_border_lowpoly_corner_ne_0
usemtl pond_line
f 1/1/1 2/2/2 3/3/3
f 4/4/4 5/5/5 6/6/6
f 7/7/7 8/8/8 9/9/9
f 10/10/10 11/11/11 12/12/12
f 13/13/13 14/14/14 15/15/15
f 16/16/16 17/17/17 18/18/18
f 19/19/19 20/20/20 21/21/21
f 22/22/22 23/23/23 24/24/24
f 25/25/25 26/26/26 27/27/27
f 28/28/28 29/29/29 30/30/30
f 31/31/31 32/32/32 33/33/33
v 0.00000 -0.50000 0.31250
v 0.37500 -0.50000 1.00000
v 0.68750 -0.50000 1.00000
v 0.00000 -0.50000 0.31250
v 0.00000 -0.50000 0.62500
v 0.37500 -0.50000 1.00000
v 1.00000 -0.50000 1.00000
v 1.00000 -0.50000 0.00000
v 0.68750 -0.50000 1.00000
v 0.68750 -0.50000 1.00000
v 1.00000 -0.50000 0.00000
v 0.00000 -0.50000 0.31250
v 1.00000 -0.50000 0.00000
v 0.00000 -0.50000 0.00000
v 0.00000 -0.50000 0.31250
vt 1.00000 -0.62500
vt 0.00000 -0.93750
vt 0.00000 -0.62500
vt 1.00000 -0.62500
vt 1.00000 -0.93750
vt 0.00000 -0.93750
vt 0.00000 -0.06250
vt 0.50000 -0.06250
vt 0.00000 -0.62500
vt 0.00000 -0.62500
vt 0.50000 -0.06250
vt 1.00000 -0.62500
vt 0.50000 -0.06250
vt 1.00000 -0.06250
vt 1.00000 -0.62500
vn 0.0000 1.0000 0.0000
vn 0.0000 1.0000 0.0000
vn 0.0000 1.0000 0.0000
vn 0.0000 1.0000 0.0000
vn 0.0000 1.0000 0.0000
vn 0.0000 1.0000 0.0000
vn 0.0000 1.0000 0.0000
vn 0.0000 1.0000 0.0000
vn 0.0000 1.0000 0.0000
vn 0.0000 1.0000 0.0000
vn 0.0000 1.0000 0.0000
vn 0.0000 1.0000 0.0000
vn 0.0000 1.0000 0.0000
vn 0.0000 1.0000 0.0000
vn 0.0000 1.0000 0.0000
g water_border_lowpoly_corner_ne_1
usemtl river_r
f 34/34/34 35/35/35 36/36/36
f 37/37/37 38/38/38 39/39/39
f 40/40/40 41/41/41 42/42/42
f 43/43/43 44/44/44 45/45/45
f 46/46/46 47/47/47 48/48/48
v 0.00000 -0.50000 1.00000
v 0.37500 -0.50000 1.00000
v 0.00000 -0.50000 0.62500
vt 17.50000 -1.50000
vt 17.31250 -1.50000
vt 17.50000 -1.31250
vn 0.0000 1.0000 0.0000
vn 0.0000 1.0000 0.0000
vn 0.0000 1.0000 0.0000
g water_border_lowpoly_corner_ne_2
usemtl river
f 49/49/49 50/50/50 51/51/51
