# water_border_edge_e
# generated by tools/assets/build-tiles.js — do not edit
mtllib water_border_edge_e.mtl
o water_border_edge_e
v 1.01563 0.10742 1.00000
v 0.88965 -0.03613 0.00000
v 0.88965 -0.03613 1.00000
v 1.01563 0.10742 1.00000
v 1.01563 0.10742 0.00000
v 0.88965 -0.03613 0.00000
v 0.83789 -0.39453 1.00000
v 0.70703 -0.47656 0.00000
v 0.70703 -0.47656 1.00000
v 0.83789 -0.39453 1.00000
v 0.83789 -0.39453 0.00000
v 0.70703 -0.47656 0.00000
v 1.22363 0.12695 1.00000
v 1.01563 0.10742 0.00000
v 1.01563 0.10742 1.00000
v 1.22363 0.12695 1.00000
v 1.22363 0.12695 0.00000
v 1.01563 0.10742 0.00000
v 0.88965 -0.03613 1.00000
v 0.83789 -0.39453 0.00000
v 0.83789 -0.39453 1.00000
v 0.88965 -0.03613 1.00000
v 0.88965 -0.03613 0.00000
v 0.83789 -0.39453 0.00000
vt -4.00000 -0.20703
vt -3.00000 -0.34766
vt -4.00000 -0.34766
vt -4.00000 -0.20703
vt -3.00000 -0.20703
vt -3.00000 -0.34766
vt -4.00000 -0.75781
vt -3.00000 -0.97656
vt -4.00000 -0.97656
vt -4.00000 -0.75781
vt -3.00000 -0.75781
vt -3.00000 -0.97656
vt -4.00000 -0.01953
vt -3.00000 -0.20703
vt -4.00000 -0.20703
vt -4.00000 -0.01953
vt -3.00000 -0.01953
vt -3.00000 -0.20703
vt -4.00000 -0.34766
vt -3.00000 -0.75781
vt -4.00000 -0.75781
vt -4.00000 -0.34766
vt -3.00000 -0.34766
vt -3.00000 -0.75781
vn -0.4547 0.8906 0.0000
vn -0.9082 0.4185 0.0000
vn -0.9082 0.4185 0.0000
vn -0.4547 0.8906 0.0000
vn -0.4547 0.8906 0.0000
vn -0.9082 0.4185 0.0000
vn -0.8380 0.5456 0.0000
vn -0.5311 0.8473 0.0000
vn -0.5311 0.8473 0.0000
vn -0.8380 0.5456 0.0000
vn -0.8380 0.5456 0.0000
vn -0.5311 0.8473 0.0000
vn -0.0935 0.9956 0.0000
vn -0.4547 0.8906 0.0000
vn -0.4547 0.8906 0.0000
vn -0.0935 0.9956 0.0000
vn -0.0935 0.9956 0.0000
vn -0.4547 0.8906 0.0000
vn -0.9082 0.4185 0.0000
vn -0.8380 0.5456 0.0000
vn -0.8380 0.5456 0.0000
vn -0.9082 0.4185 0.0000
vn -0.9082 0.4185 0.0000
vn -0.8380 0.5456 0.0000
g water_border_edge_e_0
usemtl pond_line
f 1/1/1 2/2/2 3/3/3
f 4/4/4 5/5/5 6/6/6
f 7/7/7 8/8/8 9/9/9
f 10/10/10 11/11/11 12/12/12
f 13/13/13 14/14/14 15/15/15
f 16/16/16 17/17/17 18/18/18
f 19/19/19 20/20/20 21/21/21
f 22/22/22 23/23/23 24/24/24
v 0.68750 -0.50000 0.00000
v 1.00000 -0.50000 1.00000
v 1.00000 -0.50000 0.00000
v 0.68750 -0.50000 0.00000
v 0.68750 -0.50000 1.00000
v 1.00000 -0.50000 1.00000
v 0.37500 -0.50000 0.00000
v 0.68750 -0.50000 1.00000
v 0.68750 -0.50000 0.00000
v 0.37500 -0.50000 0.00000
v 0.37500 -0.50000 1.00000
v 0.68750 -0.50000 1.00000
vt 1.00000 -0.62500
vt 0.00000 -0.06250
vt 1.00000 -0.06250
vt 1.00000 -0.62500
vt 0.00000 -0.62500
vt 0.00000 -0.06250
vt 1.00000 -0.93750
vt 0.00000 -0.62500
vt 1.00000 -0.62500
vt 1.00000 -0.93750
vt 0.00000 -0.93750
vt 0.00000 -0.62500
vn 0.0000 1.0000 0.0000
vn 0.0000 1.0000 0.0000
vn 0.0000 1.0000 0.0000
vn 0.0000 1.0000 0.0000
vn 0.0000 1.0000 0.0000
vn 0.0000 1.0000 0.0000
vn 0.0000 1.0000 0.0000
vn 0.0000 1.0000 0.0000
vn 0.0000 1.0000 0.0000
vn 0.0000 1.0000 0.0000
vn 0.0000 1.0000 0.0000
vn 0.0000 1.0000 0.0000
g water_border_edge_e_1
usemtl river_r
f 25/25/25 26/26/26 27/27/27
f 28/28/28 29/29/29 30/30/30
f 31/31/31 32/32/32 33/33/33
f 34/34/34 35/35/35 36/36/36
v 0.37500 -0.50000 0.00000
v 0.00000 -0.50000 1.00000
v 0.37500 -0.50000 1.00000
v 0.37500 -0.50000 0.00000
v 0.00000 -0.50000 0.00000
v 0.00000 -0.50000 1.00000
vt 18.00000 -1.31250
vt 17.50000 -1.50000
vt 17.50000 -1.31250
vt 18.00000 -1.31250
vt 18.00000 -1.50000
vt 17.50000 -1.50000
vn 0.0000 1.0000 0.0000
vn 0.0000 1.0000 0.0000
vn 0.0000 1.0000 0.0000
vn 0.0000 1.0000 0.0000
vn 0.0000 1.0000 0.0000
vn 0.0000 1.0000 0.0000
g water_border_edge_e_2
usemtl river
f 37/37/37 38/38/38 39/39/39
f 40/40/40 41/41/41 42/42/42
