# water_pond_inner_sw
# generated by tools/assets/build-tiles.js — do not edit
mtllib water_pond_inner_sw.mtl
o water_pond_inner_sw
v 0.00000 -0.50000 0.00000
v 0.00000 -0.50000 0.37500
v 1.00000 -0.50000 0.00000
v 1.00000 -0.50000 0.00000
v 0.00000 -0.50000 0.37500
v 0.62500 -0.50000 1.00000
v 0.62500 -0.50000 1.00000
v 1.00000 -0.50000 1.00000
v 1.00000 -0.50000 0.00000
vt 17.00000 -4.00000
vt 17.00000 -3.81250
vt 17.50000 -4.00000
vt 17.50000 -4.00000
vt 17.00000 -3.81250
vt 17.31250 -3.50000
vt 17.31250 -3.50000
vt 17.50000 -3.50000
vt 17.50000 -4.00000
vn 0.0000 1.0000 0.0000
vn 0.0000 1.0000 0.0000
vn 0.0000 1.0000 0.0000
vn 0.0000 1.0000 0.0000
vn 0.0000 1.0000 0.0000
vn 0.0000 1.0000 0.0000
vn 0.0000 1.0000 0.0000
vn 0.0000 1.0000 0.0000
vn 0.0000 1.0000 0.0000
g water_pond_inner_sw_0
usemtl pond_on
f 1/1/1 2/2/2 3/3/3
f 4/4/4 5/5/5 6/6/6
f 7/7/7 8/8/8 9/9/9
