# water_border_lowpoly_inner_ne
# generated by tools/assets/build-tiles.js — do not edit
mtllib water_border_lowpoly_inner_ne.mtl
o water_border_lowpoly_inner_ne
v 1.00000 -0.50000 1.00000
v 1.00000 -0.50000 0.62500
v 0.00000 -0.50000 1.00000
v 0.00000 -0.50000 1.00000
v 1.00000 -0.50000 0.62500
v 0.37500 -0.50000 0.00000
v 0.37500 -0.50000 0.00000
v 0.00000 -0.50000 0.00000
v 0.00000 -0.50000 1.00000
vt 17.00000 -4.00000
vt 17.00000 -3.81250
vt 17.50000 -4.00000
vt 17.50000 -4.00000
vt 17.00000 -3.81250
vt 17.31250 -3.50000
vt 17.31250 -3.50000
vt 17.50000 -3.50000
vt 17.50000 -4.00000
vn 0.0000 1.0000 0.0000
vn 0.0000 1.0000 0.0000
vn 0.0000 1.0000 0.0000
vn 0.0000 1.0000 0.0000
vn 0.0000 1.0000 0.0000
vn 0.0000 1.0000 0.0000
vn 0.0000 1.0000 0.0000
vn 0.0000 1.0000 0.0000
vn 0.0000 1.0000 0.0000
g water_border_lowpoly_inner_ne_0
usemtl river
f 1/1/1 2/2/2 3/3/3
f 4/4/4 5/5/5 6/6/6
f 7/7/7 8/8/8 9/9/9
v 1.00000 -0.50000 0.62500
v 0.68750 -0.50000 0.00000
v 0.37500 -0.50000 0.00000
v 1.00000 -0.50000 0.62500
v 1.00000 -0.50000 0.31250
v 0.68750 -0.50000 0.00000
v 1.00000 -0.50000 0.00000
v 0.68750 -0.50000 0.00000
v 1.00000 -0.50000 0.31250
vt 0.00000 -0.93750
vt 1.00000 -0.62500
vt 1.00000 -0.93750
vt 0.00000 -0.93750
vt 0.00000 -0.62500
vt 1.00000 -0.62500
vt 0.50000 -0.20703
vt 0.00000 -0.14453
vt 1.00000 -0.14453
vn 0.0000 1.0000 0.0000
vn 0.0000 1.0000 0.0000
vn 0.0000 1.0000 0.0000
vn 0.0000 1.0000 0.0000
vn 0.0000 1.0000 0.0000
vn 0.0000 1.0000 0.0000
vn 0.0000 1.0000 0.0000
vn 0.0000 1.0000 0.0000
vn 0.0000 1.0000 0.0000
g water_border_lowpoly_inner_ne_1
usemtl river_r
f 10/10/10 11/11/11 12/12/12
f 13/13/13 14/14/14 15/15/15
f 16/16/16 17/17/17 18/18/18
v 1.00000 -0.47656 0.29297
v 1.00000 0.07785 0.00000
v 0.70703 -0.47656 0.00000
vt -0.10000 0.03125
vt 0.00000 0.79297
vt 0.10000 0.03125
vn -0.6624 0.3500 0.6624
vn -0.6624 0.3500 0.6624
vn -0.6624 0.3500 0.6624
g water_border_lowpoly_inner_ne_2
usemtl pond_line
f 19/19/19 20/20/20 21/21/21
