# jump_s
# generated by tools/assets/build-tiles.js — do not edit
mtllib jump_s.mtl
o jump_s
v 1.00000 0.06250 1.00000
v 0.00000 0.06250 0.00000
v 0.00000 0.06250 1.00000
v 1.00000 0.06250 1.00000
v 1.00000 0.06250 0.00000
v 0.00000 0.06250 0.00000
vt 0.00000 -0.02734
vt -1.00000 -0.96094
vt -1.00000 -0.02734
vt 0.00000 -0.02734
vt 0.00000 -0.96094
vt -1.00000 -0.96094
vn 0.0000 1.0000 0.0000
vn 0.0000 1.0000 0.0000
vn 0.0000 1.0000 0.0000
vn 0.0000 1.0000 0.0000
vn 0.0000 1.0000 0.0000
vn 0.0000 1.0000 0.0000
g jump_s_0
usemtl allpeak_pgs
f 1/1/1 2/2/2 3/3/3
f 4/4/4 5/5/5 6/6/6
