# jump_b_e
# generated by tools/assets/build-tiles.js — do not edit
mtllib jump_b_e.mtl
o jump_b_e
v 1.00000 0.06250 1.00000
v 0.00000 0.06250 0.00000
v 0.00000 0.06250 1.00000
v 1.00000 0.06250 1.00000
v 1.00000 0.06250 0.00000
v 0.00000 0.06250 0.00000
vt 0.98438 -0.51563
vt 0.48438 -0.98438
vt 0.48438 -0.51563
vt 0.98438 -0.51563
vt 0.98438 -0.98438
vt 0.48438 -0.98438
vn 0.0000 1.0000 0.0000
vn 0.0000 1.0000 0.0000
vn 0.0000 1.0000 0.0000
vn 0.0000 1.0000 0.0000
vn 0.0000 1.0000 0.0000
vn 0.0000 1.0000 0.0000
g jump_b_e_0
usemtl allpeakgs
f 1/1/1 2/2/2 3/3/3
f 4/4/4 5/5/5 6/6/6
