# jump_cl
# generated by tools/assets/build-tiles.js — do not edit
mtllib jump_cl.mtl
o jump_cl
v 1.00000 0.06250 0.00000
v 0.00000 0.06250 1.00000
v 1.00000 0.06250 1.00000
v 1.00000 0.06250 0.00000
v 0.00000 0.06250 0.00000
v 0.00000 0.06250 1.00000
vt 0.48438 -0.01563
vt 0.00000 -0.48438
vt 0.00000 -0.01563
vt 0.48438 -0.01563
vt 0.48438 -0.48438
vt 0.00000 -0.48438
vn 0.0000 1.0000 0.0000
vn 0.0000 1.0000 0.0000
vn 0.0000 1.0000 0.0000
vn 0.0000 1.0000 0.0000
vn 0.0000 1.0000 0.0000
vn 0.0000 1.0000 0.0000
g jump_cl_0
usemtl allpeakgs
f 1/1/1 2/2/2 3/3/3
f 4/4/4 5/5/5 6/6/6
