# jump_c_w
# generated by tools/assets/build-tiles.js — do not edit
mtllib jump_c_w.mtl
o jump_c_w
v 1.00000 0.06250 0.00000
v 0.75000 0.06250 1.00000
v 1.00000 0.06250 1.00000
v 1.00000 0.06250 0.00000
v 0.75000 0.06250 0.00000
v 0.75000 0.06250 1.00000
v 0.75000 0.06250 0.00000
v 0.00000 0.06250 1.00000
v 0.75000 0.06250 1.00000
v 0.75000 0.06250 0.00000
v 0.00000 0.06250 0.00000
v 0.00000 0.06250 1.00000
vt 0.98438 -0.01563
vt 0.50000 -0.12500
vt 0.50000 -0.01563
vt 0.98438 -0.01563
vt 0.98438 -0.12500
vt 0.50000 -0.12500
vt 0.98438 -0.01563
vt 0.50000 -0.48438
vt 0.50000 -0.01563
vt 0.98438 -0.01563
vt 0.98438 -0.48438
vt 0.50000 -0.48438
vn 0.0000 1.0000 0.0000
vn 0.0000 1.0000 0.0000
vn 0.0000 1.0000 0.0000
vn 0.0000 1.0000 0.0000
vn 0.0000 1.0000 0.0000
vn 0.0000 1.0000 0.0000
vn 0.0000 1.0000 0.0000
vn 0.0000 1.0000 0.0000
vn 0.0000 1.0000 0.0000
vn 0.0000 1.0000 0.0000
vn 0.0000 1.0000 0.0000
vn 0.0000 1.0000 0.0000
g jump_c_w_0
usemtl allpeakgs
f 1/1/1 2/2/2 3/3/3
f 4/4/4 5/5/5 6/6/6
f 7/7/7 8/8/8 9/9/9
f 10/10/10 11/11/11 12/12/12
