# jump_w
# generated by tools/assets/build-tiles.js — do not edit
mtllib jump_w.mtl
o jump_w
v 0.75000 0.06250 0.00000
v 0.00000 0.06250 1.00000
v 0.75000 0.06250 1.00000
v 0.75000 0.06250 0.00000
v 0.00000 0.06250 0.00000
v 0.00000 0.06250 1.00000
vt -3.00000 -0.02734
vt -4.00000 -0.96875
vt -4.00000 -0.02734
vt -3.00000 -0.02734
vt -3.00000 -0.96875
vt -4.00000 -0.96875
vn 0.0000 1.0000 0.0000
vn 0.0000 1.0000 0.0000
vn 0.0000 1.0000 0.0000
vn 0.0000 1.0000 0.0000
vn 0.0000 1.0000 0.0000
vn 0.0000 1.0000 0.0000
g jump_w_0
usemtl allpeak_pgs
f 1/1/1 2/2/2 3/3/3
f 4/4/4 5/5/5 6/6/6
