# jump_e
# generated by tools/assets/build-tiles.js — do not edit
mtllib jump_e.mtl
o jump_e
v 0.25000 0.06250 0.00000
v 1.00000 0.06250 1.00000
v 1.00000 0.06250 0.00000
v 0.25000 0.06250 0.00000
v 0.25000 0.06250 1.00000
v 1.00000 0.06250 1.00000
vt -3.00000 -0.02734
vt -4.00000 -0.96875
vt -3.00000 -0.96875
vt -3.00000 -0.02734
vt -4.00000 -0.02734
vt -4.00000 -0.96875
vn 0.0000 1.0000 0.0000
vn 0.0000 1.0000 0.0000
vn 0.0000 1.0000 0.0000
vn 0.0000 1.0000 0.0000
vn 0.0000 1.0000 0.0000
vn 0.0000 1.0000 0.0000
g jump_e_0
usemtl allpeak_pgs
f 1/1/1 2/2/2 3/3/3
f 4/4/4 5/5/5 6/6/6
