# beach_edge_n
# generated by tools/assets/build-tiles.js — do not edit
mtllib beach_edge_n.mtl
o beach_edge_n
v 1.00000 0.00000 0.00000
v 0.00000 0.00000 1.00000
v 1.00000 0.00000 1.00000
v 1.00000 0.00000 0.00000
v 0.00000 0.00000 0.00000
v 0.00000 0.00000 1.00000
vt 1.00000 -0.99219
vt 0.50000 -0.50781
vt 1.00000 -0.50781
vt 1.00000 -0.99219
vt 0.50000 -0.99219
vt 0.50000 -0.50781
vn 0.0000 1.0000 0.0000
vn 0.0000 1.0000 0.0000
vn 0.0000 1.0000 0.0000
vn 0.0000 1.0000 0.0000
vn 0.0000 1.0000 0.0000
vn 0.0000 1.0000 0.0000
g beach_edge_n_0
usemtl beachp
f 1/1/1 2/2/2 3/3/3
f 4/4/4 5/5/5 6/6/6
