# house_wall_se_v2
# generated by tools/assets/build-tiles.js — do not edit
mtllib house_wall_se_v2.mtl
o house_wall_se_v2
v 1.00000 0.12500 0.37500
v 1.00000 -0.12500 1.00000
v 1.00000 -0.12500 0.37500
v 1.00000 0.12500 0.37500
v 1.00000 0.12500 1.00000
v 1.00000 -0.12500 1.00000
v 1.00000 2.87500 0.37500
v 1.00000 2.37500 1.00000
v 1.00000 2.37500 0.37500
v 1.00000 2.87500 0.37500
v 1.00000 2.87500 1.00000
v 1.00000 2.37500 1.00000
v 1.00000 2.37500 0.37500
v 1.00000 0.12500 1.00000
v 1.00000 0.12500 0.37500
v 1.00000 2.37500 0.37500
v 1.00000 2.37500 1.00000
v 1.00000 0.12500 1.00000
v 0.00000 2.87500 0.37500
v 1.00000 2.37500 0.37500
v 0.00000 2.37500 0.37500
v 0.00000 2.87500 0.37500
v 1.00000 2.87500 0.37500
v 1.00000 2.37500 0.37500
v 0.00000 2.37500 0.37500
v 1.00000 0.12500 0.37500
v 0.00000 0.12500 0.37500
v 0.00000 2.37500 0.37500
v 1.00000 2.37500 0.37500
v 1.00000 0.12500 0.37500
v 0.00000 0.12500 0.37500
v 1.00000 -0.12500 0.37500
v 0.00000 -0.12500 0.37500
v 0.00000 0.12500 0.37500
v 1.00000 0.12500 0.37500
v 1.00000 -0.12500 0.37500
vt 0.68750 -0.86719
vt 0.67188 -0.88086
vt 0.68750 -0.88086
vt 0.68750 -0.86719
vt 0.67188 -0.86719
vt 0.67188 -0.88086
vt 1.00000 -0.78125
vt 0.37500 -0.96875
vt 1.00000 -0.96875
vt 1.00000 -0.78125
vt 0.37500 -0.78125
vt 0.37500 -0.96875
vt 1.00000 -0.03125
vt 0.37500 -0.71875
vt 1.00000 -0.71875
vt 1.00000 -0.03125
vt 0.37500 -0.03125
vt 0.37500 -0.71875
vt -2.00000 -0.78125
vt -1.00000 -0.96875
vt -2.00000 -0.96875
vt -2.00000 -0.78125
vt -1.00000 -0.78125
vt -1.00000 -0.96875
vt -5.00000 -0.03125
vt -4.00000 -0.71875
vt -5.00000 -0.71875
vt -5.00000 -0.03125
vt -4.00000 -0.03125
vt -4.00000 -0.71875
vt 0.68750 -0.86719
vt 0.68652 -0.88086
vt 0.68750 -0.88086
vt 0.68750 -0.86719
vt 0.68652 -0.86719
vt 0.68652 -0.88086
vn 1.0000 0.0000 0.0000
vn 1.0000 0.0000 0.0000
vn 1.0000 0.0000 0.0000
vn 1.0000 0.0000 0.0000
vn 1.0000 0.0000 0.0000
vn 1.0000 0.0000 0.0000
vn 1.0000 0.0000 0.0000
vn 1.0000 0.0000 0.0000
vn 1.0000 0.0000 0.0000
vn 1.0000 0.0000 0.0000
vn 1.0000 0.0000 0.0000
vn 1.0000 0.0000 0.0000
vn 1.0000 0.0000 0.0000
vn 1.0000 0.0000 0.0000
vn 1.0000 0.0000 0.0000
vn 1.0000 0.0000 0.0000
vn 1.0000 0.0000 0.0000
vn 1.0000 0.0000 0.0000
vn 0.0000 0.0000 -1.0000
vn 0.0000 0.0000 -1.0000
vn 0.0000 0.0000 -1.0000
vn 0.0000 0.0000 -1.0000
vn 0.0000 0.0000 -1.0000
vn 0.0000 0.0000 -1.0000
vn 0.0000 0.0000 -1.0000
vn 0.0000 0.0000 -1.0000
vn 0.0000 0.0000 -1.0000
vn 0.0000 0.0000 -1.0000
vn 0.0000 0.0000 -1.0000
vn 0.0000 0.0000 -1.0000
vn 0.0000 0.0000 -1.0000
vn 0.0000 0.0000 -1.0000
vn 0.0000 0.0000 -1.0000
vn 0.0000 0.0000 -1.0000
vn 0.0000 0.0000 -1.0000
vn 0.0000 0.0000 -1.0000
g house_wall_se_v2_0
usemtl wall01_mat
f 1/1/1 2/2/2 3/3/3
f 4/4/4 5/5/5 6/6/6
f 7/7/7 8/8/8 9/9/9
f 10/10/10 11/11/11 12/12/12
f 13/13/13 14/14/14 15/15/15
f 16/16/16 17/17/17 18/18/18
f 19/19/19 20/20/20 21/21/21
f 22/22/22 23/23/23 24/24/24
f 25/25/25 26/26/26 27/27/27
f 28/28/28 29/29/29 30/30/30
f 31/31/31 32/32/32 33/33/33
f 34/34/34 35/35/35 36/36/36
v 1.00000 -0.12500 0.00000
v 0.00000 -0.12500 0.37500
v 1.00000 -0.12500 0.37500
v 1.00000 -0.12500 0.00000
v 0.00000 -0.12500 0.00000
v 0.00000 -0.12500 0.37500
vt 1.00000 0.00000
vt 0.00000 0.37500
vt 1.00000 0.37500
vt 1.00000 0.00000
vt 0.00000 0.00000
vt 0.00000 0.37500
vn 0.0000 1.0000 0.0000
vn 0.0000 1.0000 0.0000
vn 0.0000 1.0000 0.0000
vn 0.0000 1.0000 0.0000
vn 0.0000 1.0000 0.0000
vn 0.0000 1.0000 0.0000
g house_wall_se_v2_1
usemtl floor01_mat
f 37/37/37 38/38/38 39/39/39
f 40/40/40 41/41/41 42/42/42
