# house_wall_v3
# generated by tools/assets/build-tiles.js — do not edit
mtllib house_wall_v3.mtl
o house_wall_v3
v 0.00000 2.87500 0.37500
v 1.00000 2.37500 0.37500
v 0.00000 2.37500 0.37500
v 0.00000 2.87500 0.37500
v 1.00000 2.87500 0.37500
v 1.00000 2.37500 0.37500
v 0.00000 2.37500 0.37500
v 1.00000 0.12500 0.37500
v 0.00000 0.12500 0.37500
v 0.00000 2.37500 0.37500
v 1.00000 2.37500 0.37500
v 1.00000 0.12500 0.37500
v 0.00000 0.12500 0.37500
v 1.00000 -0.12500 0.37500
v 0.00000 -0.12500 0.37500
v 0.00000 0.12500 0.37500
v 1.00000 0.12500 0.37500
v 1.00000 -0.12500 0.37500
vt -2.00000 -0.78125
vt -1.00000 -0.96875
vt -2.00000 -0.96875
vt -2.00000 -0.78125
vt -1.00000 -0.78125
vt -1.00000 -0.96875
vt -5.00000 -0.03125
vt -4.00000 -0.71875
vt -5.00000 -0.71875
vt -5.00000 -0.03125
vt -4.00000 -0.03125
vt -4.00000 -0.71875
vt 0.68750 -0.86719
vt 0.68652 -0.88086
vt 0.68750 -0.88086
vt 0.68750 -0.86719
vt 0.68652 -0.86719
vt 0.68652 -0.88086
vn 0.0000 0.0000 -1.0000
vn 0.0000 0.0000 -1.0000
vn 0.0000 0.0000 -1.0000
vn 0.0000 0.0000 -1.0000
vn 0.0000 0.0000 -1.0000
vn 0.0000 0.0000 -1.0000
vn 0.0000 0.0000 -1.0000
vn 0.0000 0.0000 -1.0000
vn 0.0000 0.0000 -1.0000
vn 0.0000 0.0000 -1.0000
vn 0.0000 0.0000 -1.0000
vn 0.0000 0.0000 -1.0000
vn 0.0000 0.0000 -1.0000
vn 0.0000 0.0000 -1.0000
vn 0.0000 0.0000 -1.0000
vn 0.0000 0.0000 -1.0000
vn 0.0000 0.0000 -1.0000
vn 0.0000 0.0000 -1.0000
g house_wall_v3_0
usemtl wall01_mat
f 1/1/1 2/2/2 3/3/3
f 4/4/4 5/5/5 6/6/6
f 7/7/7 8/8/8 9/9/9
f 10/10/10 11/11/11 12/12/12
f 13/13/13 14/14/14 15/15/15
f 16/16/16 17/17/17 18/18/18
v 1.00000 -0.12500 0.00000
v 0.00000 -0.12500 0.37500
v 1.00000 -0.12500 0.37500
v 1.00000 -0.12500 0.00000
v 0.00000 -0.12500 0.00000
v 0.00000 -0.12500 0.37500
vt 1.00000 0.00000
vt 0.00000 0.37500
vt 1.00000 0.37500
vt 1.00000 0.00000
vt 0.00000 0.00000
vt 0.00000 0.37500
vn 0.0000 1.0000 0.0000
vn 0.0000 1.0000 0.0000
vn 0.0000 1.0000 0.0000
vn 0.0000 1.0000 0.0000
vn 0.0000 1.0000 0.0000
vn 0.0000 1.0000 0.0000
g house_wall_v3_1
usemtl floor02
f 19/19/19 20/20/20 21/21/21
f 22/22/22 23/23/23 24/24/24
