# fence_edge_s
# generated by tools/assets/build-tiles.js — do not edit
mtllib fence_edge_s.mtl
o fence_edge_s
v 1.00000 0.72852 0.72852
v 0.00000 0.02148 0.02148
v 0.00000 0.72852 0.72852
v 1.00000 0.72852 0.72852
v 1.00000 0.02148 0.02148
v 0.00000 0.02148 0.02148
vt 0.75000 0.00000
vt 0.25000 -0.50000
vt 0.25000 0.00000
vt 0.75000 0.00000
vt 0.75000 -0.50000
vt 0.25000 -0.50000
vn 0.0000 1.0000 0.0000
vn 0.0000 1.0000 0.0000
vn 0.0000 1.0000 0.0000
vn 0.0000 1.0000 0.0000
vn 0.0000 1.0000 0.0000
vn 0.0000 1.0000 0.0000
g fence_edge_s_0
usemtl fence_a
f 1/1/1 2/2/2 3/3/3
f 4/4/4 5/5/5 6/6/6
