# fence_edge_e
# generated by tools/assets/build-tiles.js — do not edit
mtllib fence_edge_e.mtl
o fence_edge_e
v 1.00000 0.37500 1.00000
v 0.50000 0.37500 0.00000
v 0.50000 0.37500 1.00000
v 1.00000 0.37500 1.00000
v 1.00000 0.37500 0.00000
v 0.50000 0.37500 0.00000
vt 1.50000 -0.62500
vt 2.00000 -0.87500
vt 1.50000 -0.87500
vt 1.50000 -0.62500
vt 2.00000 -0.62500
vt 2.00000 -0.87500
vn 0.0000 1.0000 0.0000
vn 0.0000 1.0000 0.0000
vn 0.0000 1.0000 0.0000
vn 0.0000 1.0000 0.0000
vn 0.0000 1.0000 0.0000
vn 0.0000 1.0000 0.0000
g fence_edge_e_0
usemtl fence_a
f 1/1/1 2/2/2 3/3/3
f 4/4/4 5/5/5 6/6/6
