# fence_corner_se
# generated by tools/assets/build-tiles.js — do not edit
mtllib fence_corner_se.mtl
o fence_corner_se
v 1.00000 0.37500 0.37500
v 0.50000 0.37500 0.00000
v 0.50000 0.37500 0.37500
v 1.00000 0.37500 0.37500
v 1.00000 0.37500 0.00000
v 0.50000 0.37500 0.00000
v 1.00000 0.72852 0.72852
v 0.00000 0.02148 0.02148
v 0.00000 0.72852 0.72852
v 1.00000 0.72852 0.72852
v 1.00000 0.02148 0.02148
v 0.00000 0.02148 0.02148
vt 1.50000 -0.62500
vt 1.68771 -0.87500
vt 1.50000 -0.87500
vt 1.50000 -0.62500
vt 1.68771 -0.62500
vt 1.68771 -0.87500
vt 0.75000 0.00000
vt 0.25000 -0.50000
vt 0.25000 0.00000
vt 0.75000 0.00000
vt 0.75000 -0.50000
vt 0.25000 -0.50000
vn 0.0000 1.0000 0.0000
vn 0.0000 1.0000 0.0000
vn 0.0000 1.0000 0.0000
vn 0.0000 1.0000 0.0000
vn 0.0000 1.0000 0.0000
vn 0.0000 1.0000 0.0000
vn 0.0000 1.0000 0.0000
vn 0.0000 1.0000 0.0000
vn 0.0000 1.0000 0.0000
vn 0.0000 1.0000 0.0000
vn 0.0000 1.0000 0.0000
vn 0.0000 1.0000 0.0000
g fence_corner_se_0
usemtl fence_a
f 1/1/1 2/2/2 3/3/3
f 4/4/4 5/5/5 6/6/6
f 7/7/7 8/8/8 9/9/9
f 10/10/10 11/11/11 12/12/12
