# 1_v2
# generated by tools/assets/build-tiles.js — do not edit
mtllib 1_v2.mtl
o 1_v2
v 0.33888 0.03125 1.00000
v 1.00000 0.03125 0.00000
v 0.33888 0.03125 0.00000
v 1.00000 0.03125 0.00000
v 0.33888 0.03125 1.00000
v 1.00000 0.03125 1.00000
vt 0.50000 -0.49219
vt 0.99219 -0.01172
vt 0.99219 -0.49219
vt 0.99219 -0.01172
vt 0.50000 -0.49219
vt 0.50000 -0.01172
vn 0.0000 1.0000 0.0000
vn 0.0000 1.0000 0.0000
vn 0.0000 1.0000 0.0000
vn 0.0000 1.0000 0.0000
vn 0.0000 1.0000 0.0000
vn 0.0000 1.0000 0.0000
g 1_v2_0
usemtl allpeak
f 1/1/1 2/2/2 3/3/3
f 4/4/4 5/5/5 6/6/6
