# 7
# generated by tools/assets/build-tiles.js — do not edit
mtllib 7.mtl
o 7
v 0.00000 0.03125 0.00000
v 1.00000 0.03125 1.00000
v 1.00000 0.03125 0.00000
v 1.00000 0.03125 1.00000
v 0.00000 0.03125 0.00000
v 0.00000 0.03125 1.00000
vt 0.00781 -0.49219
vt 0.49219 -0.00781
vt 0.49219 -0.49219
vt 0.49219 -0.00781
vt 0.00781 -0.49219
vt 0.00781 -0.00781
vn 0.0000 1.0000 0.0000
vn 0.0000 1.0000 0.0000
vn 0.0000 1.0000 0.0000
vn 0.0000 1.0000 0.0000
vn 0.0000 1.0000 0.0000
vn 0.0000 1.0000 0.0000
g 7_0
usemtl allpeak
f 1/1/1 2/2/2 3/3/3
f 4/4/4 5/5/5 6/6/6
