# cyclepoint
# generated by tools/assets/build-tiles.js — do not edit
mtllib cyclepoint.mtl
o cyclepoint
v 1.00000 0.70703 0.85352
v 0.00000 0.00000 0.14648
v 0.00000 0.70703 0.85352
v 1.00000 0.70703 0.85352
v 1.00000 0.00000 0.14648
v 0.00000 0.00000 0.14648
vt 1.00000 0.00000
vt 0.00000 -1.00000
vt 0.00000 0.00000
vt 1.00000 0.00000
vt 1.00000 -1.00000
vt 0.00000 -1.00000
vn 0.0000 0.7071 -0.7071
vn 0.0000 0.7071 -0.7071
vn 0.0000 0.7071 -0.7071
vn 0.0000 0.7071 -0.7071
vn 0.0000 0.7071 -0.7071
vn 0.0000 0.7071 -0.7071
g cyclepoint_0
usemtl cyclestop
f 1/1/1 2/2/2 3/3/3
f 4/4/4 5/5/5 6/6/6
