# fenter
# generated by tools/assets/build-tiles.js — do not edit
mtllib fenter.mtl
o fenter
v 2.00000 1.65206 4.12305
v 0.00000 0.43331 2.38184
v 0.00000 1.65206 4.12305
v 2.00000 1.65206 4.12305
v 2.00000 0.43331 2.38184
v 0.00000 0.43331 2.38184
v 2.00000 0.03683 3.93945
v 0.00000 0.03683 2.06445
v 0.00000 0.03683 3.93945
v 2.00000 0.03683 3.93945
v 2.00000 0.03683 2.06445
v 0.00000 0.03683 2.06445
vt 1.00000 0.00000
vt 0.50000 -0.56250
vt 0.50000 0.00000
vt 1.00000 0.00000
vt 1.00000 -0.56250
vt 0.50000 -0.56250
vt 1.00000 -0.56250
vt 0.50000 -0.96875
vt 0.50000 -0.56250
vt 1.00000 -0.56250
vt 1.00000 -0.96875
vt 0.50000 -0.96875
vn 0.0000 0.8186 -0.5744
vn 0.0000 0.8186 -0.5744
vn 0.0012 0.8193 -0.5734
vn 0.0000 0.8186 -0.5744
vn 0.0012 0.8193 -0.5734
vn 0.0000 0.8186 -0.5744
vn 0.0000 1.0000 0.0000
vn 0.0000 1.0000 0.0000
vn 0.0000 1.0000 0.0000
vn 0.0000 1.0000 0.0000
vn 0.0000 1.0000 0.0000
vn 0.0000 1.0000 0.0000
g fenter_0
usemtl conttree_b
f 1/1/1 2/2/2 3/3/3
f 4/4/4 5/5/5 6/6/6
f 7/7/7 8/8/8 9/9/9
f 10/10/10 11/11/11 12/12/12
v 2.00000 2.62472 4.00293
v 0.00000 1.83566 2.87695
v 0.00000 2.62472 4.00293
v 2.00000 2.62472 4.00293
v 2.00000 1.83566 2.87695
v 0.00000 1.83566 2.87695
v 2.00000 2.20577 4.08301
v 0.00000 1.12960 2.54688
v 0.00000 2.20577 4.08301
v 2.00000 2.20577 4.08301
v 2.00000 1.12960 2.54688
v 0.00000 1.12960 2.54688
vt 1.00000 -0.06250
vt 0.50000 -0.40625
vt 0.50000 -0.06250
vt 1.00000 -0.06250
vt 1.00000 -0.40625
vt 0.50000 -0.40625
vt 1.00000 -0.50000
vt 0.50000 -0.96875
vt 0.50000 -0.50000
vt 1.00000 -0.50000
vt 1.00000 -0.96875
vt 0.50000 -0.96875
vn 0.0000 0.8186 -0.5744
vn 0.0000 0.8186 -0.5744
vn 0.0006 0.8189 -0.5739
vn 0.0000 0.8186 -0.5744
vn 0.0006 0.8189 -0.5739
vn 0.0000 0.8186 -0.5744
vn 0.0000 0.8185 -0.5745
vn 0.0000 0.8185 -0.5745
vn 0.0009 0.8190 -0.5738
vn 0.0000 0.8185 -0.5745
vn 0.0009 0.8190 -0.5738
vn 0.0000 0.8185 -0.5745
g fenter_1
usemtl conttree_t
f 13/13/13 14/14/14 15/15/15
f 16/16/16 17/17/17 18/18/18
f 19/19/19 20/20/20 21/21/21
f 22/22/22 23/23/23 24/24/24
v 0.00000 -0.01981 2.00000
v 2.00000 -0.01981 4.00000
v 2.00000 -0.01981 2.00000
v 0.00000 -0.01981 2.00000
v 0.00000 -0.01981 4.00000
v 2.00000 -0.01981 4.00000
v 2.00000 -0.01981 2.00000
v 0.00000 -0.01981 0.00000
v 0.00000 -0.01981 2.00000
v 2.00000 -0.01981 2.00000
v 2.00000 -0.01981 0.00000
v 0.00000 -0.01981 0.00000
vt 0.98438 -0.01563
vt 0.01563 -0.98438
vt 0.01563 -0.01563
vt 0.98438 -0.01563
vt 0.98438 -0.98438
vt 0.01563 -0.98438
vt 0.98438 -0.01563
vt 0.01563 -0.98438
vt 0.01563 -0.01563
vt 0.98438 -0.01563
vt 0.98438 -0.98438
vt 0.01563 -0.98438
vn 0.0000 1.0000 0.0000
vn 0.0000 1.0000 0.0000
vn 0.0000 1.0000 0.0000
vn 0.0000 1.0000 0.0000
vn 0.0000 1.0000 0.0000
vn 0.0000 1.0000 0.0000
vn 0.0000 1.0000 0.0000
vn 0.0000 1.0000 0.0000
vn 0.0000 1.0000 0.0000
vn 0.0000 1.0000 0.0000
vn 0.0000 1.0000 0.0000
vn 0.0000 1.0000 0.0000
g fenter_2
usemtl fenter
f 25/25/25 26/26/26 27/27/27
f 28/28/28 29/29/29 30/30/30
f 31/31/31 32/32/32 33/33/33
f 34/34/34 35/35/35 36/36/36
