# big_stairs
# generated by tools/assets/build-tiles.js — do not edit
mtllib big_stairs.mtl
o big_stairs
v -0.21875 0.06250 0.12500
v 4.84375 5.17500 -0.00000
v -0.21875 0.06250 0.00000
v -0.21875 0.06250 0.12500
v 4.84375 5.17500 0.12500
v 4.84375 5.17500 -0.00000
v 5.00000 5.05000 1.50000
v 0.00000 0.00000 2.87500
v 5.00000 5.05000 2.87500
v 5.00000 5.05000 1.50000
v 0.00000 0.00000 1.50000
v 0.00000 0.00000 2.87500
v 5.50000 5.05000 0.12500
v 4.84375 5.17500 -0.00000
v 4.84375 5.17500 0.12500
v 5.50000 5.05000 0.12500
v 5.50000 5.05000 -0.00000
v 4.84375 5.17500 -0.00000
v 5.50000 5.05000 3.00000
v 4.84375 5.17500 2.87500
v 4.84375 5.17500 3.00000
v 5.50000 5.05000 3.00000
v 5.50000 5.05000 2.87500
v 4.84375 5.17500 2.87500
v 4.84375 5.17500 2.87500
v -0.21875 0.06250 3.00000
v 4.84375 5.17500 3.00000
v 4.84375 5.17500 2.87500
v -0.21875 0.06250 2.87500
v -0.21875 0.06250 3.00000
v -0.21875 0.06250 0.00000
v 5.50000 5.05000 -0.00000
v 1.50293 1.00293 0.00000
v -0.21875 0.06250 0.00000
v 4.84375 5.17500 -0.00000
v 5.50000 5.05000 -0.00000
v 5.50000 5.05000 0.12500
v 5.00000 5.05000 1.50000
v 5.50000 5.05000 1.50000
v 5.50000 5.05000 0.12500
v 5.00000 5.05000 0.12500
v 5.00000 5.05000 1.50000
v 5.00000 5.05000 0.12500
v 0.00000 0.00000 1.50000
v 5.00000 5.05000 1.50000
v 5.00000 5.05000 0.12500
v 0.00000 0.00000 0.12500
v 0.00000 0.00000 1.50000
v 5.50000 5.05000 2.87500
v -0.21875 0.06250 2.87500
v 4.84375 5.17500 2.87500
v 5.50000 5.05000 2.87500
v 0.43750 -0.06250 2.87500
v -0.21875 0.06250 2.87500
v 4.84375 5.17500 3.00000
v 1.50098 1.00098 3.00000
v 5.50000 5.05000 3.00000
v 4.84375 5.17500 3.00000
v -0.21875 0.06250 3.00000
v 1.50098 1.00098 3.00000
v 5.50000 5.05000 1.50000
v 5.00000 5.05000 2.87500
v 5.50000 5.05000 2.87500
v 5.50000 5.05000 1.50000
v 5.00000 5.05000 1.50000
v 5.00000 5.05000 2.87500
v 0.43750 -0.06250 0.12500
v 4.84375 5.17500 0.12500
v -0.21875 0.06250 0.12500
v 0.43750 -0.06250 0.12500
v 5.50000 5.05000 0.12500
v 4.84375 5.17500 0.12500
v 1.50293 1.00293 0.00000
v 0.43750 -0.06250 0.00000
v -0.21875 0.06250 0.00000
v 0.43750 -0.06250 3.00000
v 1.50098 1.00098 3.00000
v -0.21875 0.06250 3.00000
vt -1.89063 -0.06250
vt -1.98438 -0.43750
vt -1.98438 -0.06250
vt -1.89063 -0.06250
vt -1.89063 -0.43750
vt -1.98438 -0.43750
vt -0.37500 -0.43750
vt -0.83594 -18.00000
vt -0.83594 -0.43750
vt -0.37500 -0.43750
vt -0.37500 -18.00000
vt -0.83594 -18.00000
vt -1.98047 -0.54688
vt -1.89453 -0.70313
vt -1.98047 -0.70313
vt -1.98047 -0.54688
vt -1.89453 -0.54688
vt -1.89453 -0.70313
vt -1.98047 -0.54688
vt -1.89453 -0.70313
vt -1.98047 -0.70313
vt -1.98047 -0.54688
vt -1.89453 -0.54688
vt -1.89453 -0.70313
vt -1.89063 -0.06250
vt -1.98438 -0.43750
vt -1.98438 -0.06250
vt -1.89063 -0.06250
vt -1.89063 -0.43750
vt -1.98438 -0.43750
vt -1.93750 -0.87500
vt -1.93750 -0.87500
vt -1.93750 -0.87500
vt -1.93750 -0.87500
vt -1.93750 -0.87500
vt -1.93750 -0.87500
vt -0.83594 0.00000
vt -0.37500 -0.43750
vt -0.37500 0.00000
vt -0.83594 0.00000
vt -0.83594 -0.43750
vt -0.37500 -0.43750
vt -0.83594 -0.43750
vt -0.37500 -18.00000
vt -0.37500 -0.43750
vt -0.83594 -0.43750
vt -0.83594 -18.00000
vt -0.37500 -18.00000
vt -1.93750 -0.87500
vt -1.93750 -0.87500
vt -1.93750 -0.87500
vt -1.93750 -0.87500
vt -1.93750 -0.87500
vt -1.93750 -0.87500
vt -1.93750 -0.87500
vt -1.93750 -0.87500
vt -1.93750 -0.87500
vt -1.93750 -0.87500
vt -1.93750 -0.87500
vt -1.93750 -0.87500
vt -0.37500 0.00000
vt -0.83594 -0.43750
vt -0.83594 0.00000
vt -0.37500 0.00000
vt -0.37500 -0.43750
vt -0.83594 -0.43750
vt -1.93750 -0.87500
vt -1.93750 -0.87500
vt -1.93750 -0.87500
vt -1.93750 -0.87500
vt -1.93750 -0.87500
vt -1.93750 -0.87500
vt -1.93750 -0.87500
vt -1.93750 -0.87500
vt -1.93750 -0.87500
vt -1.93750 -0.87500
vt -1.93750 -0.87500
vt -1.93750 -0.87500
vn -0.6655 0.7464 0.0000
vn -0.6655 0.7464 0.0000
vn -0.6655 0.7464 0.0000
vn -0.6655 0.7464 0.0000
vn -0.6655 0.7464 0.0000
vn -0.6655 0.7464 0.0000
vn -0.0050 1.0000 0.0000
vn -0.0050 1.0000 0.0000
vn -0.0050 1.0000 0.0000
vn -0.0050 1.0000 0.0000
vn -0.0050 1.0000 0.0000
vn -0.0050 1.0000 0.0000
vn 0.3162 0.9487 0.0000
vn 0.3162 0.9487 0.0000
vn 0.3162 0.9487 0.0000
vn 0.3162 0.9487 0.0000
vn 0.3162 0.9487 0.0000
vn 0.3162 0.9487 0.0000
vn 0.3162 0.9487 0.0000
vn 0.3162 0.9487 0.0000
vn 0.3162 0.9487 0.0000
vn 0.3162 0.9487 0.0000
vn 0.3162 0.9487 0.0000
vn 0.3162 0.9487 0.0000
vn -0.6655 0.7464 0.0000
vn -0.6655 0.7464 0.0000
vn -0.6655 0.7464 0.0000
vn -0.6655 0.7464 0.0000
vn -0.6655 0.7464 0.0000
vn -0.6655 0.7464 0.0000
vn 0.0000 0.0000 -1.0000
vn 0.0000 0.0000 -1.0000
vn 0.0000 0.0000 -1.0000
vn 0.0000 0.0000 -1.0000
vn 0.0000 0.0000 -1.0000
vn 0.0000 0.0000 -1.0000
vn 0.0000 1.0000 0.0000
vn 0.0000 1.0000 0.0000
vn 0.0000 1.0000 0.0000
vn 0.0000 1.0000 0.0000
vn 0.0000 1.0000 0.0000
vn 0.0000 1.0000 0.0000
vn -0.0050 1.0000 0.0000
vn -0.0050 1.0000 0.0000
vn -0.0050 1.0000 0.0000
vn -0.0050 1.0000 0.0000
vn -0.0050 1.0000 0.0000
vn -0.0050 1.0000 0.0000
vn 0.0000 0.0000 -1.0000
vn 0.0000 0.0000 -1.0000
vn 0.0000 0.0000 -1.0000
vn 0.0000 0.0000 -1.0000
vn 0.0000 0.0000 -1.0000
vn 0.0000 0.0000 -1.0000
vn 0.0000 0.0000 1.0000
vn 0.0000 0.0000 1.0000
vn 0.0000 0.0000 1.0000
vn 0.0000 0.0000 1.0000
vn 0.0000 0.0000 1.0000
vn 0.0000 0.0000 1.0000
vn 0.0000 1.0000 0.0000
vn 0.0000 1.0000 0.0000
vn 0.0000 1.0000 0.0000
vn 0.0000 1.0000 0.0000
vn 0.0000 1.0000 0.0000
vn 0.0000 1.0000 0.0000
vn 0.0000 0.0000 1.0000
vn 0.0000 0.0000 1.0000
vn 0.0000 0.0000 1.0000
vn 0.0000 0.0000 1.0000
vn 0.0000 0.0000 1.0000
vn 0.0000 0.0000 1.0000
vn 0.0000 0.0000 -1.0000
vn 0.0000 0.0000 -1.0000
vn 0.0000 0.0000 -1.0000
vn 0.0000 0.0000 1.0000
vn 0.0000 0.0000 1.0000
vn 0.0000 0.0000 1.0000
g big_stairs_0
usemtl kaidan01a
f 1/1/1 2/2/2 3/3/3
f 4/4/4 5/5/5 6/6/6
f 7/7/7 8/8/8 9/9/9
f 10/10/10 11/11/11 12/12/12
f 13/13/13 14/14/14 15/15/15
f 16/16/16 17/17/17 18/18/18
f 19/19/19 20/20/20 21/21/21
f 22/22/22 23/23/23 24/24/24
f 25/25/25 26/26/26 27/27/27
f 28/28/28 29/29/29 30/30/30
f 31/31/31 32/32/32 33/33/33
f 34/34/34 35/35/35 36/36/36
f 37/37/37 38/38/38 39/39/39
f 40/40/40 41/41/41 42/42/42
f 43/43/43 44/44/44 45/45/45
f 46/46/46 47/47/47 48/48/48
f 49/49/49 50/50/50 51/51/51
f 52/52/52 53/53/53 54/54/54
f 55/55/55 56/56/56 57/57/57
f 58/58/58 59/59/59 60/60/60
f 61/61/61 62/62/62 63/63/63
f 64/64/64 65/65/65 66/66/66
f 67/67/67 68/68/68 69/69/69
f 70/70/70 71/71/71 72/72/72
f 73/73/73 74/74/74 75/75/75
f 76/76/76 77/77/77 78/78/78
v 1.50293 1.00293 0.00000
v 5.50000 5.05000 -0.00000
v 5.47656 1.00000 0.00000
v 1.50293 1.00293 3.00000
v 5.47656 1.00000 3.00000
v 5.50000 5.05000 3.00000
vt 2.50000 -1.00000
vt -1.50000 0.00000
vt -1.50000 -1.00000
vt 2.50000 -1.00000
vt -1.50000 -1.00000
vt -1.50000 0.00000
vn 0.0000 0.0000 -1.0000
vn 0.0000 0.0000 -1.0000
vn 0.0000 0.0000 -1.0000
vn 0.0000 0.0000 1.0000
vn 0.0000 0.0000 1.0000
vn 0.0000 0.0000 1.0000
g big_stairs_1
usemtl yamagake01
f 79/79/79 80/80/80 81/81/81
f 82/82/82 83/83/83 84/84/84
v 5.47656 -0.06250 0.00000
v 1.50293 1.00293 0.00000
v 5.47656 1.00000 0.00000
v 5.47656 -0.06250 0.00000
v 0.43750 -0.06250 0.00000
v 1.50293 1.00293 0.00000
v 5.47656 -0.06250 3.00000
v 1.50293 1.00293 3.00000
v 0.43750 -0.06250 3.00000
v 5.47656 -0.06250 3.00000
v 5.47656 1.00000 3.00000
v 1.50293 1.00293 3.00000
vt -1.50000 -1.00000
vt 2.50000 0.00000
vt -1.50000 0.00000
vt -1.50000 -1.00000
vt 3.50000 -1.00000
vt 2.50000 0.00000
vt -1.50000 -1.00000
vt 2.50000 0.00000
vt 3.50000 -1.00000
vt -1.50000 -1.00000
vt -1.50000 0.00000
vt 2.50000 0.00000
vn 0.0000 0.0000 -1.0000
vn 0.0000 0.0000 -1.0000
vn 0.0000 0.0000 -1.0000
vn 0.0000 0.0000 -1.0000
vn 0.0000 0.0000 -1.0000
vn 0.0000 0.0000 -1.0000
vn 0.0000 0.0000 1.0000
vn 0.0000 0.0000 1.0000
vn 0.0000 0.0000 1.0000
vn 0.0000 0.0000 1.0000
vn 0.0000 0.0000 1.0000
vn 0.0000 0.0000 1.0000
g big_stairs_2
usemtl gake01a
f 85/85/85 86/86/86 87/87/87
f 88/88/88 89/89/89 90/90/90
f 91/91/91 92/92/92 93/93/93
f 94/94/94 95/95/95 96/96/96
