# Blender 5.2.1 LTS
# www.blender.org
mtllib water_rock.mtl
o hgss-overworld__water_rock
v 1.812500 1.000000 0.000000
v 1.574524 1.574524 0.000000
v 1.000000 1.812500 0.000000
v 0.425476 1.574524 0.000000
v 0.187500 1.000000 0.000000
v 0.425476 0.425476 0.000000
v 1.000000 0.187500 0.000000
v 1.574524 0.425476 0.000000
v 1.937500 1.000000 0.162913
v 1.662913 1.662913 0.162913
v 1.000000 1.937500 0.162913
v 0.337087 1.662913 0.162913
v 0.062500 1.000000 0.162913
v 0.337087 0.337087 0.162913
v 1.000000 0.062500 0.162913
v 1.662913 0.337087 0.162913
v 2.000000 1.000000 0.325825
v 1.707107 1.707107 0.325825
v 1.000000 2.000000 0.325825
v 0.292893 1.707107 0.325825
v 0.000000 1.000000 0.325825
v 0.292893 0.292893 0.325825
v 1.000000 0.000000 0.325825
v 1.707107 0.292893 0.325825
v 1.625000 1.000000 0.488738
v 1.441942 1.441942 0.488738
v 1.000000 1.625000 0.488738
v 0.558058 1.441942 0.488738
v 0.375000 1.000000 0.488738
v 0.558058 0.558058 0.488738
v 1.000000 0.375000 0.488738
v 1.441942 0.558058 0.488738
v 1.060000 1.000000 0.651650
v 1.042426 1.042426 0.651650
v 1.000000 1.060000 0.651650
v 0.957574 1.042426 0.651650
v 0.940000 1.000000 0.651650
v 0.957574 0.957574 0.651650
v 1.000000 0.940000 0.651650
v 1.042426 0.957574 0.651650
vn 0.7537 0.3122 -0.5783
vn 0.3122 0.7537 -0.5783
vn -0.3122 0.7537 -0.5783
vn -0.7537 0.3122 -0.5783
vn -0.7537 -0.3122 -0.5783
vn -0.3122 -0.7537 -0.5783
vn 0.3122 -0.7537 -0.5783
vn 0.7537 -0.3122 -0.5783
vn 0.8708 0.3607 -0.3341
vn 0.3607 0.8708 -0.3341
vn -0.3607 0.8708 -0.3341
vn -0.8708 0.3607 -0.3341
vn -0.8708 -0.3607 -0.3341
vn -0.3607 -0.8708 -0.3341
vn 0.3607 -0.8708 -0.3341
vn 0.8708 -0.3607 -0.3341
vn 0.3931 0.1628 0.9049
vn 0.1628 0.3931 0.9049
vn -0.1628 0.3931 0.9049
vn -0.3931 0.1628 0.9049
vn -0.3931 -0.1628 0.9049
vn -0.1628 -0.3931 0.9049
vn 0.1628 -0.3931 0.9049
vn 0.3931 -0.1628 0.9049
vn 0.2752 0.1140 0.9546
vn 0.1140 0.2752 0.9546
vn -0.1140 0.2752 0.9546
vn -0.2752 0.1140 0.9546
vn -0.2752 -0.1140 0.9546
vn -0.1140 -0.2752 0.9546
vn 0.1140 -0.2752 0.9546
vn 0.2752 -0.1140 0.9546
vn -0.0000 -0.0000 -1.0000
vn -0.0000 -0.0000 1.0000
vt 0.250000 0.031250
vt 0.000000 0.265625
vt 0.000000 0.031250
vt 0.500000 0.265625
vt 0.250000 0.265625
vt 0.750000 0.031250
vt 0.500000 0.031250
vt 1.000000 0.265625
vt 0.750000 0.265625
vt 1.000000 0.031250
vt 0.000000 0.500000
vt 0.250000 0.500000
vt 0.500000 0.500000
vt 0.750000 0.500000
vt 1.000000 0.500000
vt 0.000000 0.734375
vt 0.500000 0.734375
vt 0.250000 0.734375
vt 1.000000 0.734375
vt 0.750000 0.734375
vt 0.000000 0.968750
vt 0.250000 0.968750
vt 0.500000 0.968750
vt 1.000000 0.968750
vt 0.750000 0.968750
vt 0.361875 0.134375
vt 0.500000 0.172461
vt 0.638125 0.134375
vt 0.492788 0.708636
vt 0.492788 0.703864
vt 0.507212 0.703864
vt 0.597669 0.107444
vt 0.500000 0.096289
vt 0.402331 0.107444
vt 0.402331 0.161306
vt 0.597669 0.161306
vt 0.510200 0.706250
vt 0.507212 0.708636
vt 0.500000 0.709625
vt 0.489800 0.706250
vt 0.500000 0.702875
s 0
usemtl dsea_rock.001
f 2/1/1 9/2/1 1/3/1
f 2/1/2 11/4/2 10/5/2
f 4/6/3 11/4/3 3/7/3
f 4/6/4 13/8/4 12/9/4
f 6/6/5 13/8/5 5/10/5
f 7/7/6 14/9/6 6/6/6
f 8/1/7 15/4/7 7/7/7
f 1/3/8 16/5/8 8/1/8
f 10/5/9 17/11/9 9/2/9
f 11/4/10 18/12/10 10/5/10
f 12/9/11 19/13/11 11/4/11
f 13/8/12 20/14/12 12/9/12
f 14/9/13 21/15/13 13/8/13
f 15/4/14 22/14/14 14/9/14
f 16/5/15 23/13/15 15/4/15
f 16/5/16 17/11/16 24/12/16
f 18/12/17 25/16/17 17/11/17
f 18/12/18 27/17/18 26/18/18
f 20/14/19 27/17/19 19/13/19
f 20/14/20 29/19/20 28/20/20
f 22/14/21 29/19/21 21/15/21
f 23/13/22 30/20/22 22/14/22
f 24/12/23 31/17/23 23/13/23
f 17/11/24 32/18/24 24/12/24
f 26/18/25 33/21/25 25/16/25
f 27/17/26 34/22/26 26/18/26
f 28/20/27 35/23/27 27/17/27
f 28/20/28 37/24/28 36/25/28
f 30/20/29 37/24/29 29/19/29
f 31/17/30 38/25/30 30/20/30
f 32/18/31 39/23/31 31/17/31
f 32/18/32 33/21/32 40/22/32
f 5/26/33 3/27/33 1/28/33
f 36/29/34 38/30/34 40/31/34
f 2/1/1 10/5/1 9/2/1
f 2/1/2 3/7/2 11/4/2
f 4/6/3 12/9/3 11/4/3
f 4/6/4 5/10/4 13/8/4
f 6/6/5 14/9/5 13/8/5
f 7/7/6 15/4/6 14/9/6
f 8/1/7 16/5/7 15/4/7
f 1/3/8 9/2/8 16/5/8
f 10/5/9 18/12/9 17/11/9
f 11/4/10 19/13/10 18/12/10
f 12/9/11 20/14/11 19/13/11
f 13/8/12 21/15/12 20/14/12
f 14/9/13 22/14/13 21/15/13
f 15/4/14 23/13/14 22/14/14
f 16/5/15 24/12/15 23/13/15
f 16/5/16 9/2/16 17/11/16
f 18/12/17 26/18/17 25/16/17
f 18/12/18 19/13/18 27/17/18
f 20/14/19 28/20/19 27/17/19
f 20/14/20 21/15/20 29/19/20
f 22/14/21 30/20/21 29/19/21
f 23/13/22 31/17/22 30/20/22
f 24/12/23 32/18/23 31/17/23
f 17/11/24 25/16/24 32/18/24
f 26/18/25 34/22/25 33/21/25
f 27/17/26 35/23/26 34/22/26
f 28/20/27 36/25/27 35/23/27
f 28/20/28 29/19/28 37/24/28
f 30/20/29 38/25/29 37/24/29
f 31/17/30 39/23/30 38/25/30
f 32/18/31 40/22/31 39/23/31
f 32/18/32 25/16/32 33/21/32
f 1/28/33 8/32/33 7/33/33
f 7/33/33 6/34/33 5/26/33
f 5/26/33 4/35/33 3/27/33
f 3/27/33 2/36/33 1/28/33
f 1/28/33 7/33/33 5/26/33
f 40/31/34 33/37/34 34/38/34
f 34/38/34 35/39/34 36/29/34
f 36/29/34 37/40/34 38/30/34
f 38/30/34 39/41/34 40/31/34
f 40/31/34 34/38/34 36/29/34
