# stairs_x1_v2
# generated by tools/assets/build-tiles.js — do not edit
mtllib stairs_x1_v2.mtl
o stairs_x1_v2
v 0.06250 0.00000 1.00000
v 0.31250 1.00000 0.00000
v 0.06250 1.00000 0.00000
v 0.06250 0.00000 1.00000
v 0.31250 0.00000 1.00000
v 0.31250 1.00000 0.00000
v 1.18750 0.69238 0.25000
v 1.18750 0.35645 1.00000
v 1.18750 -0.06738 1.00000
v 1.18750 0.69238 0.25000
v 1.18750 1.12500 0.25000
v 1.18750 0.35645 1.00000
v -0.18750 1.12500 0.25000
v 0.06250 1.12500 0.00000
v -0.18750 1.12500 0.00000
v -0.18750 1.12500 0.25000
v 0.06250 1.12500 0.25000
v 0.06250 1.12500 0.00000
v 1.18750 0.35645 1.00000
v 0.93750 0.00000 1.00000
v 1.18750 -0.06738 1.00000
v 1.18750 0.35645 1.00000
v 0.93750 0.35645 1.00000
v 0.93750 0.00000 1.00000
v 1.18750 1.12500 0.25000
v 0.93750 0.35645 1.00000
v 1.18750 0.35645 1.00000
v 1.18750 1.12500 0.25000
v 0.93750 1.12500 0.25000
v 0.93750 0.35645 1.00000
v -0.18750 -0.06738 1.00000
v 0.06250 0.35645 1.00000
v -0.18750 0.35645 1.00000
v -0.18750 -0.06738 1.00000
v 0.06250 0.00000 1.00000
v 0.06250 0.35645 1.00000
v -0.18750 1.12500 0.25000
v -0.18750 -0.06738 1.00000
v -0.18750 0.35645 1.00000
v -0.18750 1.12500 0.25000
v -0.18750 0.69238 0.25000
v -0.18750 -0.06738 1.00000
v 0.68750 1.00000 0.00000
v 0.93750 0.00000 1.00000
v 0.93750 1.00000 0.00000
v 0.68750 1.00000 0.00000
v 0.68750 0.00000 1.00000
v 0.93750 0.00000 1.00000
v 0.06250 0.35645 1.00000
v -0.18750 1.12500 0.25000
v -0.18750 0.35645 1.00000
v 0.06250 0.35645 1.00000
v 0.06250 1.12500 0.25000
v -0.18750 1.12500 0.25000
v -0.18750 1.12500 0.00000
v -0.18750 0.69238 0.25000
v -0.18750 1.12500 0.25000
v -0.18750 1.12500 0.00000
v -0.18750 0.69238 0.00000
v -0.18750 0.69238 0.25000
v 0.93750 1.12500 0.00000
v 1.18750 1.12500 0.25000
v 1.18750 1.12500 0.00000
v 0.93750 1.12500 0.00000
v 0.93750 1.12500 0.25000
v 1.18750 1.12500 0.25000
v 1.18750 0.69238 0.00000
v 1.18750 1.12500 0.25000
v 1.18750 0.69238 0.25000
v 1.18750 0.69238 0.00000
v 1.18750 1.12500 0.00000
v 1.18750 1.12500 0.25000
v 0.31250 0.00000 1.00000
v 0.68750 1.00000 0.00000
v 0.31250 1.00000 0.00000
v 0.31250 0.00000 1.00000
v 0.68750 0.00000 1.00000
v 0.68750 1.00000 0.00000
v 0.93750 1.12500 0.00000
v 1.18750 0.69238 0.00000
v 0.93750 1.00000 0.00000
v 1.18750 0.69238 0.00000
v 0.93750 1.12500 0.00000
v 1.18750 1.12500 0.00000
v 0.06250 1.00000 0.00000
v -0.18750 1.12500 0.00000
v 0.06250 1.12500 0.00000
v -0.18750 1.12500 0.00000
v 0.06250 1.00000 0.00000
v -0.18750 0.69238 0.00000
v 0.06250 1.00000 0.00000
v 0.06250 0.35645 1.00000
v 0.06250 0.00000 1.00000
v 0.06250 0.35645 1.00000
v 0.06250 1.00000 0.00000
v 0.06250 1.12500 0.25000
v 0.93750 0.00000 1.00000
v 0.93750 1.12500 0.25000
v 0.93750 1.00000 0.00000
v 0.93750 1.12500 0.25000
v 0.93750 0.00000 1.00000
v 0.93750 0.35645 1.00000
v 0.93750 1.12500 0.25000
v 0.93750 1.12500 0.00000
v 0.93750 1.00000 0.00000
v 0.06250 1.00000 0.00000
v 0.06250 1.12500 0.00000
v 0.06250 1.12500 0.25000
vt 0.27148 -0.75000
vt 0.96094 -0.98438
vt 0.96094 -0.75000
vt 0.27148 -0.75000
vt 0.27148 -0.98438
vt 0.96094 -0.98438
vt 0.05664 -0.93945
vt 0.07813 -0.95117
vt 0.07813 -0.96484
vt 0.05664 -0.93945
vt 0.05664 -0.92578
vt 0.07813 -0.95117
vt 0.10938 -0.83203
vt 0.03320 -0.79102
vt 0.10938 -0.79102
vt 0.10938 -0.83203
vt 0.03320 -0.83203
vt 0.03320 -0.79102
vt 0.02344 -0.94336
vt 0.03320 -0.96094
vt 0.02344 -0.96484
vt 0.02344 -0.94336
vt 0.03320 -0.94336
vt 0.03320 -0.96094
vt 0.14453 -0.79688
vt 0.22266 -0.83984
vt 0.14453 -0.83984
vt 0.14453 -0.79688
vt 0.22266 -0.79688
vt 0.22266 -0.83984
vt 0.04297 -0.96484
vt 0.03320 -0.94336
vt 0.04297 -0.94336
vt 0.04297 -0.96484
vt 0.03320 -0.96094
vt 0.03320 -0.94336
vt 0.10156 -0.92578
vt 0.08008 -0.96484
vt 0.08008 -0.95117
vt 0.10156 -0.92578
vt 0.10156 -0.93945
vt 0.08008 -0.96484
vt 0.96094 -0.98438
vt 0.27148 -0.75000
vt 0.96094 -0.75000
vt 0.96094 -0.98438
vt 0.27148 -0.98438
vt 0.27148 -0.75000
vt 0.14648 -0.84375
vt 0.22461 -0.80078
vt 0.22461 -0.84375
vt 0.14648 -0.84375
vt 0.14648 -0.80078
vt 0.22461 -0.80078
vt 0.10938 -0.92578
vt 0.10156 -0.93945
vt 0.10156 -0.92578
vt 0.10938 -0.92578
vt 0.10938 -0.93945
vt 0.10156 -0.93945
vt 0.10938 -0.79102
vt 0.03125 -0.83203
vt 0.03125 -0.79102
vt 0.10938 -0.79102
vt 0.10938 -0.83203
vt 0.03125 -0.83203
vt 0.04883 -0.93945
vt 0.05664 -0.92578
vt 0.05664 -0.93945
vt 0.04883 -0.93945
vt 0.04883 -0.92578
vt 0.05664 -0.92578
vt 1.12500 -0.72656
vt 0.00000 -0.03906
vt 1.12500 -0.03906
vt 1.12500 -0.72656
vt 0.00000 -0.72656
vt 0.00000 -0.03906
vt 0.21250 0.08750
vt 0.21250 0.06827
vt 0.21250 0.08194
vt 0.21250 0.06827
vt 0.21250 0.08750
vt 0.21250 0.08750
vt 0.21250 0.08194
vt 0.21250 0.08750
vt 0.21250 0.08750
vt 0.21250 0.08750
vt 0.21250 0.08194
vt 0.21250 0.06827
vt 0.21250 0.08194
vt 0.16250 0.05334
vt 0.16250 0.03750
vt 0.16250 0.05334
vt 0.21250 0.08194
vt 0.20000 0.08750
vt 0.16250 0.03750
vt 0.20000 0.08750
vt 0.21250 0.08194
vt 0.20000 0.08750
vt 0.16250 0.03750
vt 0.16250 0.05334
vt 0.20000 0.08750
vt 0.21250 0.08750
vt 0.21250 0.08194
vt 0.21250 0.08194
vt 0.21250 0.08750
vt 0.20000 0.08750
vn 0.0000 0.7187 0.6953
vn 0.0000 0.7187 0.6953
vn 0.0000 0.7187 0.6953
vn 0.0000 0.7187 0.6953
vn 0.0000 0.7187 0.6953
vn 0.0000 0.7187 0.6953
vn 1.0000 0.0000 0.0000
vn 1.0000 0.0000 0.0000
vn 1.0000 0.0000 0.0000
vn 1.0000 0.0000 0.0000
vn 1.0000 0.0000 0.0000
vn 1.0000 0.0000 0.0000
vn 0.0000 1.0000 0.0000
vn 0.0000 1.0000 0.0000
vn 0.0000 1.0000 0.0000
vn 0.0000 1.0000 0.0000
vn 0.0000 1.0000 0.0000
vn 0.0000 1.0000 0.0000
vn 0.0000 0.0000 1.0000
vn 0.0000 0.0000 1.0000
vn 0.0000 0.0000 1.0000
vn 0.0000 0.0000 1.0000
vn 0.0000 0.0000 1.0000
vn 0.0000 0.0000 1.0000
vn 0.0000 0.7187 0.6953
vn 0.0000 0.7187 0.6953
vn 0.0000 0.7187 0.6953
vn 0.0000 0.7187 0.6953
vn 0.0000 0.7187 0.6953
vn 0.0000 0.7187 0.6953
vn 0.0000 0.0000 1.0000
vn 0.0000 0.0000 1.0000
vn 0.0000 0.0000 1.0000
vn 0.0000 0.0000 1.0000
vn 0.0000 0.0000 1.0000
vn 0.0000 0.0000 1.0000
vn -1.0000 0.0000 0.0000
vn -1.0000 0.0000 0.0000
vn -1.0000 0.0000 0.0000
vn -1.0000 0.0000 0.0000
vn -1.0000 0.0000 0.0000
vn -1.0000 0.0000 0.0000
vn 0.0000 0.7187 0.6953
vn 0.0000 0.7187 0.6953
vn 0.0000 0.7187 0.6953
vn 0.0000 0.7187 0.6953
vn 0.0000 0.7187 0.6953
vn 0.0000 0.7187 0.6953
vn 0.0000 0.7187 0.6953
vn 0.0000 0.7187 0.6953
vn 0.0000 0.7187 0.6953
vn 0.0000 0.7187 0.6953
vn 0.0000 0.7187 0.6953
vn 0.0000 0.7187 0.6953
vn -1.0000 0.0000 0.0000
vn -1.0000 0.0000 0.0000
vn -1.0000 0.0000 0.0000
vn -1.0000 0.0000 0.0000
vn -1.0000 0.0000 0.0000
vn -1.0000 0.0000 0.0000
vn 0.0000 1.0000 0.0000
vn 0.0000 1.0000 0.0000
vn 0.0000 1.0000 0.0000
vn 0.0000 1.0000 0.0000
vn 0.0000 1.0000 0.0000
vn 0.0000 1.0000 0.0000
vn 1.0000 0.0000 0.0000
vn 1.0000 0.0000 0.0000
vn 1.0000 0.0000 0.0000
vn 1.0000 0.0000 0.0000
vn 1.0000 0.0000 0.0000
vn 1.0000 0.0000 0.0000
vn 0.0000 0.7187 0.6953
vn 0.0000 0.7187 0.6953
vn 0.0000 0.7187 0.6953
vn 0.0000 0.7187 0.6953
vn 0.0000 0.7187 0.6953
vn 0.0000 0.7187 0.6953
vn 0.0000 0.0000 -1.0000
vn 0.0000 0.0000 -1.0000
vn 0.0000 0.0000 -1.0000
vn 0.0000 0.0000 -1.0000
vn 0.0000 0.0000 -1.0000
vn 0.0000 0.0000 -1.0000
vn 0.0000 0.0000 -1.0000
vn 0.0000 0.0000 -1.0000
vn 0.0000 0.0000 -1.0000
vn 0.0000 0.0000 -1.0000
vn 0.0000 0.0000 -1.0000
vn 0.0000 0.0000 -1.0000
vn 1.0000 0.0000 0.0000
vn 1.0000 0.0000 0.0000
vn 1.0000 0.0000 0.0000
vn 1.0000 0.0000 0.0000
vn 1.0000 0.0000 0.0000
vn 1.0000 0.0000 0.0000
vn -1.0000 0.0000 0.0000
vn -1.0000 0.0000 0.0000
vn -1.0000 0.0000 0.0000
vn -1.0000 0.0000 0.0000
vn -1.0000 0.0000 0.0000
vn -1.0000 0.0000 0.0000
vn -1.0000 0.0000 0.0000
vn -1.0000 0.0000 0.0000
vn -1.0000 0.0000 0.0000
vn 1.0000 0.0000 0.0000
vn 1.0000 0.0000 0.0000
vn 1.0000 0.0000 0.0000
g stairs_x1_v2_0
usemtl slope
f 1/1/1 2/2/2 3/3/3
f 4/4/4 5/5/5 6/6/6
f 7/7/7 8/8/8 9/9/9
f 10/10/10 11/11/11 12/12/12
f 13/13/13 14/14/14 15/15/15
f 16/16/16 17/17/17 18/18/18
f 19/19/19 20/20/20 21/21/21
f 22/22/22 23/23/23 24/24/24
f 25/25/25 26/26/26 27/27/27
f 28/28/28 29/29/29 30/30/30
f 31/31/31 32/32/32 33/33/33
f 34/34/34 35/35/35 36/36/36
f 37/37/37 38/38/38 39/39/39
f 40/40/40 41/41/41 42/42/42
f 43/43/43 44/44/44 45/45/45
f 46/46/46 47/47/47 48/48/48
f 49/49/49 50/50/50 51/51/51
f 52/52/52 53/53/53 54/54/54
f 55/55/55 56/56/56 57/57/57
f 58/58/58 59/59/59 60/60/60
f 61/61/61 62/62/62 63/63/63
f 64/64/64 65/65/65 66/66/66
f 67/67/67 68/68/68 69/69/69
f 70/70/70 71/71/71 72/72/72
f 73/73/73 74/74/74 75/75/75
f 76/76/76 77/77/77 78/78/78
f 79/79/79 80/80/80 81/81/81
f 82/82/82 83/83/83 84/84/84
f 85/85/85 86/86/86 87/87/87
f 88/88/88 89/89/89 90/90/90
f 91/91/91 92/92/92 93/93/93
f 94/94/94 95/95/95 96/96/96
f 97/97/97 98/98/98 99/99/99
f 100/100/100 101/101/101 102/102/102
f 103/103/103 104/104/104 105/105/105
f 106/106/106 107/107/107 108/108/108
