# stagecorner_v4
# generated by tools/assets/build-tiles.js — do not edit
mtllib stagecorner_v4.mtl
o stagecorner_v4
v 0.30000 0.10000 1.00000
v 1.00000 0.10000 0.40000
v 1.00000 0.10000 0.30000
v 0.30000 0.10000 1.00000
v 0.40000 0.10000 1.00000
v 1.00000 0.10000 0.40000
v 0.70000 0.10000 1.00000
v 1.00000 0.10000 0.60000
v 0.60000 0.10000 1.00000
v 0.70000 0.10000 1.00000
v 1.00000 0.10000 0.70000
v 1.00000 0.10000 0.60000
vt 0.00000 0.00000
vt 1.00000 1.00000
vt 0.00000 1.00000
vt 0.00000 0.00000
vt 1.00000 0.00000
vt 1.00000 1.00000
vt 0.00000 0.00000
vt 1.00000 1.00000
vt 0.00000 1.00000
vt 0.00000 0.00000
vt 1.00000 0.00000
vt 1.00000 1.00000
vn 0.0000 1.0000 0.0000
vn 0.0000 1.0000 0.0000
vn 0.0000 1.0000 0.0000
vn 0.0000 1.0000 0.0000
vn 0.0000 1.0000 0.0000
vn 0.0000 1.0000 0.0000
vn 0.0000 1.0000 0.0000
vn 0.0000 1.0000 0.0000
vn 0.0000 1.0000 0.0000
vn 0.0000 1.0000 0.0000
vn 0.0000 1.0000 0.0000
vn 0.0000 1.0000 0.0000
g stagecorner_v4_0
usemtl la_yukae
f 1/1/1 2/2/2 3/3/3
f 4/4/4 5/5/5 6/6/6
f 7/7/7 8/8/8 9/9/9
f 10/10/10 11/11/11 12/12/12
