# window
# generated by tools/assets/build-tiles.js — do not edit
mtllib window.mtl
o window
v 1.00000 0.50000 0.90000
v 2.00000 1.50000 0.90000
v 2.00000 0.50000 0.90000
v 1.00000 0.50000 0.90000
v 1.00000 1.50000 0.90000
v 2.00000 1.50000 0.90000
v 2.00000 1.50000 0.90000
v 2.50000 1.00000 0.90000
v 2.00000 0.50000 0.90000
v 1.00000 0.50000 0.90000
v 0.50000 1.00000 0.90000
v 1.00000 1.50000 0.90000
vt 0.25256 0.50256
vt 0.74744 0.99744
vt 0.74744 0.50256
vt 0.25256 0.50256
vt 0.25256 0.99744
vt 0.74744 0.99744
vt 0.74744 0.99744
vt 0.99488 0.75000
vt 0.74744 0.50256
vt 0.25256 0.50256
vt 0.00512 0.75000
vt 0.25256 0.99744
vn 0.0000 0.0000 -1.0000
vn 0.0000 0.0000 -1.0000
vn 0.0000 0.0000 -1.0000
vn 0.0000 0.0000 -1.0000
vn 0.0000 0.0000 -1.0000
vn 0.0000 0.0000 -1.0000
vn 0.0000 0.0000 -1.0000
vn 0.0000 0.0000 -1.0000
vn 0.0000 0.0000 -1.0000
vn 0.0000 0.0000 -1.0000
vn 0.0000 0.0000 -1.0000
vn 0.0000 0.0000 -1.0000
g window_0
usemtl la_wina
f 1/1/1 2/2/2 3/3/3
f 4/4/4 5/5/5 6/6/6
f 7/7/7 8/8/8 9/9/9
f 10/10/10 11/11/11 12/12/12
v 2.20000 1.75000 0.90000
v 1.00000 1.50000 0.90000
v 0.80000 1.75000 0.90000
v 2.20000 1.75000 0.90000
v 2.00000 1.50000 0.90000
v 1.00000 1.50000 0.90000
v 1.00000 0.50000 0.90000
v 2.20000 0.25000 0.90000
v 0.80000 0.25000 0.90000
v 1.00000 0.50000 0.90000
v 2.00000 0.50000 0.90000
v 2.20000 0.25000 0.90000
v 2.00000 1.50000 0.90000
v 2.20000 1.75000 0.90000
v 2.50000 1.00000 0.90000
v 0.80000 1.75000 0.90000
v 0.50000 1.00000 0.90000
v 0.15000 1.00000 0.90000
v 0.80000 1.75000 0.90000
v 1.00000 1.50000 0.90000
v 0.50000 1.00000 0.90000
v 2.50000 1.00000 0.90000
v 2.20000 1.75000 0.90000
v 2.85000 1.00000 0.90000
v 2.85000 1.00000 0.90000
v 2.20000 0.25000 0.90000
v 2.50000 1.00000 0.90000
v 1.00000 0.50000 0.90000
v 0.80000 0.25000 0.90000
v 0.50000 1.00000 0.90000
v 2.20000 0.25000 0.90000
v 2.00000 0.50000 0.90000
v 2.50000 1.00000 0.90000
v 0.50000 1.00000 0.90000
v 0.80000 0.25000 0.90000
v 0.15000 1.00000 0.90000
vt 0.75922 0.55555
vt 0.31484 0.46297
vt 0.24078 0.55555
vt 0.75922 0.55555
vt 0.68516 0.46297
vt 0.31484 0.46297
vt 0.31484 0.09265
vt 0.75922 0.00008
vt 0.24078 0.00008
vt 0.31484 0.09265
vt 0.68516 0.09265
vt 0.75922 0.00008
vt 0.68516 0.46297
vt 0.75922 0.55555
vt 0.87032 0.27781
vt 0.24078 0.55555
vt 0.12968 0.27781
vt 0.00008 0.27781
vt 0.24078 0.55555
vt 0.31484 0.46297
vt 0.12968 0.27781
vt 0.87032 0.27781
vt 0.75922 0.55555
vt 0.99993 0.27781
vt 0.99993 0.27781
vt 0.75922 0.00008
vt 0.87032 0.27781
vt 0.31484 0.09265
vt 0.24078 0.00008
vt 0.12968 0.27781
vt 0.75922 0.00008
vt 0.68516 0.09265
vt 0.87032 0.27781
vt 0.12968 0.27781
vt 0.24078 0.00008
vt 0.00008 0.27781
vn 0.0000 0.0000 -1.0000
vn 0.0000 0.0000 -1.0000
vn 0.0000 0.0000 -1.0000
vn 0.0000 0.0000 -1.0000
vn 0.0000 0.0000 -1.0000
vn 0.0000 0.0000 -1.0000
vn 0.0000 0.0000 -1.0000
vn 0.0000 0.0000 -1.0000
vn 0.0000 0.0000 -1.0000
vn 0.0000 0.0000 -1.0000
vn 0.0000 0.0000 -1.0000
vn 0.0000 0.0000 -1.0000
vn 0.0000 0.0000 -1.0000
vn 0.0000 0.0000 -1.0000
vn 0.0000 0.0000 -1.0000
vn 0.0000 0.0000 -1.0000
vn 0.0000 0.0000 -1.0000
vn 0.0000 0.0000 -1.0000
vn 0.0000 0.0000 -1.0000
vn 0.0000 0.0000 -1.0000
vn 0.0000 0.0000 -1.0000
vn 0.0000 0.0000 -1.0000
vn 0.0000 0.0000 -1.0000
vn 0.0000 0.0000 -1.0000
vn 0.0000 0.0000 -1.0000
vn 0.0000 0.0000 -1.0000
vn 0.0000 0.0000 -1.0000
vn 0.0000 0.0000 -1.0000
vn 0.0000 0.0000 -1.0000
vn 0.0000 0.0000 -1.0000
vn 0.0000 0.0000 -1.0000
vn 0.0000 0.0000 -1.0000
vn 0.0000 0.0000 -1.0000
vn 0.0000 0.0000 -1.0000
vn 0.0000 0.0000 -1.0000
vn 0.0000 0.0000 -1.0000
g window_1
usemtl la_wallb
f 13/13/13 14/14/14 15/15/15
f 16/16/16 17/17/17 18/18/18
f 19/19/19 20/20/20 21/21/21
f 22/22/22 23/23/23 24/24/24
f 25/25/25 26/26/26 27/27/27
f 28/28/28 29/29/29 30/30/30
f 31/31/31 32/32/32 33/33/33
f 34/34/34 35/35/35 36/36/36
f 37/37/37 38/38/38 39/39/39
f 40/40/40 41/41/41 42/42/42
f 43/43/43 44/44/44 45/45/45
f 46/46/46 47/47/47 48/48/48
