# mountain_grass_top_inner_sw
# generated by tools/assets/build-tiles.js — do not edit
mtllib mountain_grass_top_inner_sw.mtl
o mountain_grass_top_inner_sw
v 0.75000 0.87500 0.25000
v -0.00000 0.12500 0.75000
v 0.25000 0.12500 0.75000
v 0.75000 0.87500 0.25000
v -0.00000 0.87500 0.25000
v -0.00000 0.12500 0.75000
v 0.75000 0.87500 1.00000
v 0.25000 0.12500 0.75000
v 0.25000 0.12500 1.00000
v 0.75000 0.87500 1.00000
v 0.75000 0.87500 0.25000
v 0.25000 0.12500 0.75000
v 1.00000 1.00000 0.00000
v -0.00000 0.87500 0.25000
v 0.75000 0.87500 0.25000
v 1.00000 1.00000 0.00000
v -0.00000 1.00000 0.00000
v -0.00000 0.87500 0.25000
v 1.00000 1.00000 1.00000
v 0.75000 0.87500 0.25000
v 0.75000 0.87500 1.00000
v 1.00000 1.00000 1.00000
v 1.00000 1.00000 0.00000
v 0.75000 0.87500 0.25000
vt 0.50000 -0.12500
vt 1.00000 -0.81250
vt 0.62500 -0.81250
vt 0.50000 -0.12500
vt 1.00000 -0.12500
vt 1.00000 -0.81250
vt 0.00000 -0.12500
vt 0.37500 -0.81250
vt 0.00000 -0.81250
vt 0.00000 -0.12500
vt 0.50000 -0.12500
vt 0.37500 -0.81250
vt 0.50000 0.00000
vt 1.00000 -0.12500
vt 0.50000 -0.12500
vt 0.50000 0.00000
vt 1.00000 0.00000
vt 1.00000 -0.12500
vt 0.00000 0.00000
vt 0.50000 -0.12500
vt 0.00000 -0.12500
vt 0.00000 0.00000
vt 0.50000 0.00000
vt 0.50000 -0.12500
vn 0.0000 0.7508 0.6605
vn 0.0000 0.7497 0.6618
vn 0.0000 0.7497 0.6618
vn 0.0000 0.7508 0.6605
vn 0.0000 0.7497 0.6618
vn 0.0000 0.7497 0.6618
vn -0.6618 0.7497 0.0000
vn -0.6618 0.7497 0.0000
vn -0.6618 0.7497 0.0000
vn -0.6618 0.7497 0.0000
vn -0.6628 0.7488 0.0000
vn -0.6618 0.7497 0.0000
vn 0.0000 1.0000 0.0000
vn 0.0000 0.7497 0.6618
vn 0.0000 0.7508 0.6605
vn 0.0000 1.0000 0.0000
vn 0.0000 1.0000 0.0000
vn 0.0000 0.7497 0.6618
vn 0.0000 1.0000 0.0000
vn -0.6628 0.7488 0.0000
vn -0.6618 0.7497 0.0000
vn 0.0000 1.0000 0.0000
vn 0.0000 1.0000 0.0000
vn -0.6628 0.7488 0.0000
g mountain_grass_top_inner_sw_0
usemtl criffp2
f 1/1/1 2/2/2 3/3/3
f 4/4/4 5/5/5 6/6/6
f 7/7/7 8/8/8 9/9/9
f 10/10/10 11/11/11 12/12/12
f 13/13/13 14/14/14 15/15/15
f 16/16/16 17/17/17 18/18/18
f 19/19/19 20/20/20 21/21/21
f 22/22/22 23/23/23 24/24/24
v -0.00000 0.00000 1.00000
v 0.25000 0.12500 1.00000
v 0.25000 0.12500 0.75000
v -0.00000 0.00000 1.00000
v 0.25000 0.12500 0.75000
v -0.00000 0.12500 0.75000
vt 0.18750 -1.00000
vt 0.00000 -0.81250
vt 0.37500 -0.81250
vt 0.81250 -1.00000
vt 0.62500 -0.81250
vt 1.00000 -0.81250
vn -0.4472 0.8944 0.0000
vn -0.6618 0.7497 0.0000
vn -0.6618 0.7497 0.0000
vn 0.0000 0.8944 0.4472
vn 0.0000 0.7497 0.6618
vn 0.0000 0.7497 0.6618
g mountain_grass_top_inner_sw_1
usemtl criffp2
f 25/25/25 26/26/26 27/27/27
f 28/28/28 29/29/29 30/30/30
