# mountain_ground_bot_corner_sw_v2
# generated by tools/assets/build-tiles.js — do not edit
mtllib mountain_ground_bot_corner_sw_v2.mtl
o mountain_ground_bot_corner_sw_v2
v -0.00000 0.00000 0.00000
v -0.00000 0.00000 1.00000
v 0.12500 0.00000 0.50000
v 0.12500 0.00000 0.50000
v -0.00000 0.00000 1.00000
v 0.50000 0.00000 0.87500
v -0.00000 0.00000 1.00000
v 1.00000 0.00000 1.00000
v 0.50000 0.00000 0.87500
vt 1.00000 0.00000
vt 1.00000 -1.00000
vt 0.87500 -0.50000
vt 0.87500 -0.50000
vt 1.00000 -1.00000
vt 0.50000 -0.87500
vt 1.00000 -1.00000
vt 0.00000 -1.00000
vt 0.50000 -0.87500
vn -0.2284 0.9719 0.0566
vn 0.0000 1.0000 0.0000
vn -0.2228 0.9655 0.1348
vn -0.2228 0.9655 0.1348
vn 0.0000 1.0000 0.0000
vn -0.1348 0.9655 0.2228
vn 0.0000 1.0000 0.0000
vn -0.0566 0.9719 0.2284
vn -0.1348 0.9655 0.2228
g mountain_ground_bot_corner_sw_v2_0
usemtl wcliff
f 1/1/1 2/2/2 3/3/3
f 4/4/4 5/5/5 6/6/6
f 7/7/7 8/8/8 9/9/9
v 1.00000 0.87500 0.25000
v 0.37500 0.12500 0.50000
v 0.50000 0.12500 0.62500
v 1.00000 0.87500 0.25000
v 0.75000 0.87500 0.00000
v 0.37500 0.12500 0.50000
v 0.50000 0.12500 0.62500
v 0.12500 0.00000 0.50000
v 0.50000 0.00000 0.87500
v 0.50000 0.12500 0.62500
v 0.37500 0.12500 0.50000
v 0.12500 0.00000 0.50000
v 1.00000 0.12500 0.75000
v 0.50000 0.00000 0.87500
v 1.00000 0.00000 1.00000
v 1.00000 0.12500 0.75000
v 0.50000 0.12500 0.62500
v 0.50000 0.00000 0.87500
v 0.37500 0.12500 0.50000
v -0.00000 0.00000 0.00000
v 0.12500 0.00000 0.50000
v 0.37500 0.12500 0.50000
v 0.25000 0.12500 0.00000
v -0.00000 0.00000 0.00000
v 0.50000 0.12500 0.62500
v 1.00000 0.12500 0.75000
v 1.00000 0.87500 0.25000
v 1.00000 0.87500 0.25000
v 1.00000 1.00000 0.00000
v 0.75000 0.87500 0.00000
v 0.37500 0.12500 0.50000
v 0.75000 0.87500 0.00000
v 0.25000 0.12500 0.00000
vt 0.37500 -0.12500
vt 0.56250 -0.81250
vt 0.43750 -0.81250
vt 0.37500 -0.12500
vt 0.62500 -0.12500
vt 0.56250 -0.81250
vt 0.43750 -0.81250
vt 0.62500 -1.00000
vt 0.37500 -1.00000
vt 0.43750 -0.81250
vt 0.56250 -0.81250
vt 0.62500 -1.00000
vt 0.15625 -0.81250
vt 0.37500 -1.00000
vt 0.12500 -1.00000
vt 0.15625 -0.81250
vt 0.43750 -0.81250
vt 0.37500 -1.00000
vt 0.56250 -0.81250
vt 0.87500 -1.00000
vt 0.62500 -1.00000
vt 0.56250 -0.81250
vt 0.84375 -0.81250
vt 0.87500 -1.00000
vt 0.43750 -0.81250
vt 0.15625 -0.81250
vt 0.37500 -0.12500
vt 0.46875 -0.12500
vt 0.50000 0.00000
vt 0.53125 -0.12500
vt 0.56250 -0.81250
vt 0.62500 -0.12500
vt 0.84375 -0.81250
vn -0.3983 0.6874 0.6073
vn -0.5750 0.7495 0.3282
vn -0.3304 0.7496 0.5735
vn -0.3983 0.6874 0.6073
vn -0.6073 0.6874 0.3983
vn -0.5750 0.7495 0.3282
vn -0.3304 0.7496 0.5735
vn -0.2228 0.9655 0.1348
vn -0.1348 0.9655 0.2228
vn -0.3304 0.7496 0.5735
vn -0.5750 0.7495 0.3282
vn -0.2228 0.9655 0.1348
vn -0.1621 0.7403 0.6524
vn -0.1349 0.9655 0.2228
vn -0.0566 0.9719 0.2283
vn -0.1621 0.7403 0.6524
vn -0.3299 0.7496 0.5739
vn -0.1349 0.9655 0.2228
vn -0.5739 0.7496 0.3299
vn -0.2283 0.9719 0.0566
vn -0.2228 0.9655 0.1349
vn -0.5739 0.7496 0.3299
vn -0.6524 0.7403 0.1621
vn -0.2283 0.9719 0.0566
vn -0.3299 0.7496 0.5739
vn -0.1621 0.7403 0.6524
vn -0.3984 0.6874 0.6073
vn -0.3984 0.6874 0.6073
vn 0.0000 1.0000 0.0000
vn -0.6073 0.6874 0.3984
vn -0.5739 0.7496 0.3299
vn -0.6073 0.6874 0.3984
vn -0.6524 0.7403 0.1621
g mountain_ground_bot_corner_sw_v2_1
usemtl criffp
f 10/10/10 11/11/11 12/12/12
f 13/13/13 14/14/14 15/15/15
f 16/16/16 17/17/17 18/18/18
f 19/19/19 20/20/20 21/21/21
f 22/22/22 23/23/23 24/24/24
f 25/25/25 26/26/26 27/27/27
f 28/28/28 29/29/29 30/30/30
f 31/31/31 32/32/32 33/33/33
f 34/34/34 35/35/35 36/36/36
f 37/37/37 38/38/38 39/39/39
f 40/40/40 41/41/41 42/42/42
