# Blender 5.2.1 LTS
# www.blender.org
mtllib water_rock_small.mtl
o hgss-overworld__water_rock_small
v 0.906250 0.500000 0.000000
v 0.787262 0.787262 0.000000
v 0.500000 0.906250 0.000000
v 0.212738 0.787262 0.000000
v 0.093750 0.500000 0.000000
v 0.212738 0.212738 0.000000
v 0.500000 0.093750 0.000000
v 0.787262 0.212738 0.000000
v 1.000000 0.500000 0.059359
v 0.853553 0.853553 0.059359
v 0.500000 1.000000 0.059359
v 0.146447 0.853553 0.059359
v 0.000000 0.500000 0.059359
v 0.146447 0.146447 0.059359
v 0.500000 0.000000 0.059359
v 0.853553 0.146447 0.059359
v 1.000000 0.500000 0.118718
v 0.853553 0.853553 0.118718
v 0.500000 1.000000 0.118718
v 0.146447 0.853553 0.118718
v 0.000000 0.500000 0.118718
v 0.146447 0.146447 0.118718
v 0.500000 0.000000 0.118718
v 0.853553 0.146447 0.118718
v 0.781250 0.500000 0.178078
v 0.698874 0.698874 0.178078
v 0.500000 0.781250 0.178078
v 0.301126 0.698874 0.178078
v 0.218750 0.500000 0.178078
v 0.301126 0.301126 0.178078
v 0.500000 0.218750 0.178078
v 0.698874 0.301126 0.178078
v 0.530000 0.500000 0.237437
v 0.521213 0.521213 0.237437
v 0.500000 0.530000 0.237437
v 0.478787 0.521213 0.237437
v 0.470000 0.500000 0.237437
v 0.478787 0.478787 0.237437
v 0.500000 0.470000 0.237437
v 0.521213 0.478787 0.237437
vn 0.5223 0.2163 -0.8249
vn 0.2163 0.5223 -0.8249
vn -0.2163 0.5223 -0.8249
vn -0.5223 0.2163 -0.8249
vn -0.5223 -0.2163 -0.8249
vn -0.2163 -0.5223 -0.8249
vn 0.2163 -0.5223 -0.8249
vn 0.5223 -0.2163 -0.8249
vn 0.9239 0.3827 -0.0000
vn 0.3827 0.9239 -0.0000
vn -0.3827 0.9239 -0.0000
vn -0.9239 0.3827 -0.0000
vn -0.9239 -0.3827 -0.0000
vn -0.3827 -0.9239 -0.0000
vn 0.3827 -0.9239 -0.0000
vn 0.9239 -0.3827 -0.0000
vn 0.2604 0.1078 0.9595
vn 0.1078 0.2604 0.9595
vn -0.1078 0.2604 0.9595
vn -0.2604 0.1078 0.9595
vn -0.2604 -0.1078 0.9595
vn -0.1078 -0.2604 0.9595
vn 0.1078 -0.2604 0.9595
vn 0.2604 -0.1078 0.9595
vn 0.2289 0.0948 0.9688
vn 0.0948 0.2289 0.9688
vn -0.0948 0.2289 0.9688
vn -0.2289 0.0948 0.9688
vn -0.2289 -0.0948 0.9688
vn -0.0948 -0.2289 0.9688
vn 0.0948 -0.2289 0.9688
vn 0.2289 -0.0948 0.9688
vn -0.0000 -0.0000 -1.0000
vn -0.0000 -0.0000 1.0000
vt 0.000000 0.000000
vt 0.250000 0.218750
vt 0.000000 0.218750
vt 0.500000 0.000000
vt 0.250000 0.000000
vt 0.750000 0.218750
vt 0.500000 0.218750
vt 0.750000 0.000000
vt 1.000000 0.218750
vt 1.000000 0.000000
vt 0.000000 0.437500
vt 0.250000 0.437500
vt 0.500000 0.437500
vt 0.750000 0.437500
vt 1.000000 0.437500
vt 0.000000 0.656250
vt 0.250000 0.656250
vt 0.500000 0.656250
vt 1.000000 0.656250
vt 0.750000 0.656250
vt 0.000000 0.875000
vt 0.500000 0.875000
vt 0.250000 0.875000
vt 0.750000 0.875000
vt 1.000000 0.875000
vt 0.361875 0.096250
vt 0.500000 0.131797
vt 0.638125 0.096250
vt 0.492788 0.632227
vt 0.492788 0.627773
vt 0.507212 0.627773
vt 0.597669 0.071115
vt 0.500000 0.060703
vt 0.402331 0.071115
vt 0.402331 0.121385
vt 0.597669 0.121385
vt 0.510200 0.630000
vt 0.507212 0.632227
vt 0.500000 0.633150
vt 0.489800 0.630000
vt 0.500000 0.626850
s 0
usemtl sea_rock_m.001
f 1/1/1 10/2/1 9/3/1
f 3/4/2 10/2/2 2/5/2
f 3/4/3 12/6/3 11/7/3
f 4/8/4 13/9/4 12/6/4
f 6/8/5 13/9/5 5/10/5
f 7/4/6 14/6/6 6/8/6
f 8/5/7 15/7/7 7/4/7
f 1/1/8 16/2/8 8/5/8
f 10/2/9 17/11/9 9/3/9
f 11/7/10 18/12/10 10/2/10
f 12/6/11 19/13/11 11/7/11
f 13/9/12 20/14/12 12/6/12
f 14/6/13 21/15/13 13/9/13
f 15/7/14 22/14/14 14/6/14
f 16/2/15 23/13/15 15/7/15
f 9/3/16 24/12/16 16/2/16
f 18/12/17 25/16/17 17/11/17
f 19/13/18 26/17/18 18/12/18
f 20/14/19 27/18/19 19/13/19
f 20/14/20 29/19/20 28/20/20
f 22/14/21 29/19/21 21/15/21
f 23/13/22 30/20/22 22/14/22
f 24/12/23 31/18/23 23/13/23
f 17/11/24 32/17/24 24/12/24
f 26/17/25 33/21/25 25/16/25
f 26/17/26 35/22/26 34/23/26
f 28/20/27 35/22/27 27/18/27
f 29/19/28 36/24/28 28/20/28
f 30/20/29 37/25/29 29/19/29
f 30/20/30 39/22/30 38/24/30
f 32/17/31 39/22/31 31/18/31
f 32/17/32 33/21/32 40/23/32
f 5/26/33 3/27/33 1/28/33
f 36/29/34 38/30/34 40/31/34
f 1/1/1 2/5/1 10/2/1
f 3/4/2 11/7/2 10/2/2
f 3/4/3 4/8/3 12/6/3
f 4/8/4 5/10/4 13/9/4
f 6/8/5 14/6/5 13/9/5
f 7/4/6 15/7/6 14/6/6
f 8/5/7 16/2/7 15/7/7
f 1/1/8 9/3/8 16/2/8
f 10/2/9 18/12/9 17/11/9
f 11/7/10 19/13/10 18/12/10
f 12/6/11 20/14/11 19/13/11
f 13/9/12 21/15/12 20/14/12
f 14/6/13 22/14/13 21/15/13
f 15/7/14 23/13/14 22/14/14
f 16/2/15 24/12/15 23/13/15
f 9/3/16 17/11/16 24/12/16
f 18/12/17 26/17/17 25/16/17
f 19/13/18 27/18/18 26/17/18
f 20/14/19 28/20/19 27/18/19
f 20/14/20 21/15/20 29/19/20
f 22/14/21 30/20/21 29/19/21
f 23/13/22 31/18/22 30/20/22
f 24/12/23 32/17/23 31/18/23
f 17/11/24 25/16/24 32/17/24
f 26/17/25 34/23/25 33/21/25
f 26/17/26 27/18/26 35/22/26
f 28/20/27 36/24/27 35/22/27
f 29/19/28 37/25/28 36/24/28
f 30/20/29 38/24/29 37/25/29
f 30/20/30 31/18/30 39/22/30
f 32/17/31 40/23/31 39/22/31
f 32/17/32 25/16/32 33/21/32
f 1/28/33 8/32/33 7/33/33
f 7/33/33 6/34/33 5/26/33
f 5/26/33 4/35/33 3/27/33
f 3/27/33 2/36/33 1/28/33
f 1/28/33 7/33/33 5/26/33
f 40/31/34 33/37/34 34/38/34
f 34/38/34 35/39/34 36/29/34
f 36/29/34 37/40/34 38/30/34
f 38/30/34 39/41/34 40/31/34
f 40/31/34 34/38/34 36/29/34
