# Blender 5.2.1 LTS
# www.blender.org
mtllib rock_tall.mtl
o sylvan-town__rock_tall
v 0.928571 0.500000 0.000000
v 0.803046 0.803046 0.000000
v 0.500000 0.928571 0.000000
v 0.196954 0.803046 0.000000
v 0.071429 0.500000 0.000000
v 0.196954 0.196954 0.000000
v 0.500000 0.071429 0.000000
v 0.803046 0.196954 0.000000
v 1.000000 0.500000 0.339256
v 0.853553 0.853553 0.339256
v 0.500000 1.000000 0.339256
v 0.146447 0.853553 0.339256
v 0.000000 0.500000 0.339256
v 0.146447 0.146447 0.339256
v 0.500000 0.000000 0.339256
v 0.853553 0.146447 0.339256
v 1.000000 0.500000 0.678511
v 0.853553 0.853553 0.678511
v 0.500000 1.000000 0.678511
v 0.146447 0.853553 0.678511
v 0.000000 0.500000 0.678511
v 0.146447 0.146447 0.678511
v 0.500000 0.000000 0.678511
v 0.853553 0.146447 0.678511
v 0.892857 0.500000 1.017767
v 0.777792 0.777792 1.017767
v 0.500000 0.892857 1.017767
v 0.222208 0.777792 1.017767
v 0.107143 0.500000 1.017767
v 0.222208 0.222208 1.017767
v 0.500000 0.107143 1.017767
v 0.777792 0.222208 1.017767
v 0.530000 0.500000 1.357023
v 0.521213 0.521213 1.357023
v 0.500000 0.530000 1.357023
v 0.478787 0.521213 1.357023
v 0.470000 0.500000 1.357023
v 0.478787 0.478787 1.357023
v 0.500000 0.470000 1.357023
v 0.521213 0.478787 1.357023
vn 0.9069 0.3756 -0.1909
vn 0.3756 0.9069 -0.1909
vn -0.3756 0.9069 -0.1909
vn -0.9069 0.3756 -0.1909
vn -0.9069 -0.3756 -0.1909
vn -0.3756 -0.9069 -0.1909
vn 0.3756 -0.9069 -0.1909
vn 0.9069 -0.3756 -0.1909
vn 0.9239 0.3827 -0.0000
vn 0.3827 0.9239 -0.0000
vn -0.3827 0.9239 -0.0000
vn -0.9239 0.3827 -0.0000
vn -0.9239 -0.3827 -0.0000
vn -0.3827 -0.9239 -0.0000
vn 0.3827 -0.9239 -0.0000
vn 0.9239 -0.3827 -0.0000
vn 0.8869 0.3674 0.2801
vn 0.3674 0.8869 0.2801
vn -0.3674 0.8869 0.2801
vn -0.8869 0.3674 0.2801
vn -0.8869 -0.3674 0.2801
vn -0.3674 -0.8869 0.2801
vn 0.3674 -0.8869 0.2801
vn 0.8869 -0.3674 0.2801
vn 0.6572 0.2722 0.7029
vn 0.2722 0.6572 0.7029
vn -0.2722 0.6572 0.7029
vn -0.6572 0.2722 0.7029
vn -0.6572 -0.2722 0.7029
vn -0.2722 -0.6572 0.7029
vn 0.2722 -0.6572 0.7029
vn 0.6572 -0.2722 0.7029
vn -0.0000 -0.0000 -1.0000
vn -0.0000 -0.0000 1.0000
vt 0.080968 0.584721
vt 0.022586 0.683654
vt 0.022586 0.584721
vt 0.139350 0.584721
vt 0.080968 0.683654
vt 0.197733 0.584721
vt 0.139350 0.683654
vt 0.256115 0.584721
vt 0.197733 0.683654
vt 0.256115 0.683654
vt 0.022586 0.782587
vt 0.080968 0.782587
vt 0.139350 0.782587
vt 0.197733 0.782587
vt 0.256115 0.782587
vt 0.022586 0.881521
vt 0.080968 0.881521
vt 0.139350 0.881521
vt 0.256115 0.881521
vt 0.197733 0.881521
vt 0.022586 0.980454
vt 0.080968 0.980454
vt 0.197733 0.980454
vt 0.139350 0.980454
vt 0.256115 0.980454
vt 0.105322 0.628252
vt 0.139350 0.645212
vt 0.173379 0.628252
vt 0.137666 0.870656
vt 0.137666 0.868641
vt 0.141035 0.868641
vt 0.163412 0.616259
vt 0.139350 0.611292
vt 0.115288 0.616259
vt 0.115288 0.640244
vt 0.163412 0.640244
vt 0.141732 0.869649
vt 0.141035 0.870656
vt 0.139350 0.871073
vt 0.136968 0.869649
vt 0.139350 0.868224
s 0
usemtl Decoration.011
f 2/1/1 9/2/1 1/3/1
f 3/4/2 10/5/2 2/1/2
f 4/6/3 11/7/3 3/4/3
f 5/8/4 12/9/4 4/6/4
f 6/6/5 13/10/5 5/8/5
f 7/4/6 14/9/6 6/6/6
f 8/1/7 15/7/7 7/4/7
f 1/3/8 16/5/8 8/1/8
f 10/5/9 17/11/9 9/2/9
f 11/7/10 18/12/10 10/5/10
f 12/9/11 19/13/11 11/7/11
f 13/10/12 20/14/12 12/9/12
f 14/9/13 21/15/13 13/10/13
f 15/7/14 22/14/14 14/9/14
f 16/5/15 23/13/15 15/7/15
f 9/2/16 24/12/16 16/5/16
f 18/12/17 25/16/17 17/11/17
f 19/13/18 26/17/18 18/12/18
f 20/14/19 27/18/19 19/13/19
f 20/14/20 29/19/20 28/20/20
f 22/14/21 29/19/21 21/15/21
f 22/14/22 31/18/22 30/20/22
f 24/12/23 31/18/23 23/13/23
f 24/12/24 25/16/24 32/17/24
f 26/17/25 33/21/25 25/16/25
f 27/18/26 34/22/26 26/17/26
f 27/18/27 36/23/27 35/24/27
f 29/19/28 36/23/28 28/20/28
f 30/20/29 37/25/29 29/19/29
f 31/18/30 38/23/30 30/20/30
f 31/18/31 40/22/31 39/24/31
f 25/16/32 40/22/32 32/17/32
f 5/26/33 3/27/33 1/28/33
f 36/29/34 38/30/34 40/31/34
f 2/1/1 10/5/1 9/2/1
f 3/4/2 11/7/2 10/5/2
f 4/6/3 12/9/3 11/7/3
f 5/8/4 13/10/4 12/9/4
f 6/6/5 14/9/5 13/10/5
f 7/4/6 15/7/6 14/9/6
f 8/1/7 16/5/7 15/7/7
f 1/3/8 9/2/8 16/5/8
f 10/5/9 18/12/9 17/11/9
f 11/7/10 19/13/10 18/12/10
f 12/9/11 20/14/11 19/13/11
f 13/10/12 21/15/12 20/14/12
f 14/9/13 22/14/13 21/15/13
f 15/7/14 23/13/14 22/14/14
f 16/5/15 24/12/15 23/13/15
f 9/2/16 17/11/16 24/12/16
f 18/12/17 26/17/17 25/16/17
f 19/13/18 27/18/18 26/17/18
f 20/14/19 28/20/19 27/18/19
f 20/14/20 21/15/20 29/19/20
f 22/14/21 30/20/21 29/19/21
f 22/14/22 23/13/22 31/18/22
f 24/12/23 32/17/23 31/18/23
f 24/12/24 17/11/24 25/16/24
f 26/17/25 34/22/25 33/21/25
f 27/18/26 35/24/26 34/22/26
f 27/18/27 28/20/27 36/23/27
f 29/19/28 37/25/28 36/23/28
f 30/20/29 38/23/29 37/25/29
f 31/18/30 39/24/30 38/23/30
f 31/18/31 32/17/31 40/22/31
f 25/16/32 33/21/32 40/22/32
f 1/28/33 8/32/33 7/33/33
f 7/33/33 6/34/33 5/26/33
f 5/26/33 4/35/33 3/27/33
f 3/27/33 2/36/33 1/28/33
f 1/28/33 7/33/33 5/26/33
f 40/31/34 33/37/34 34/38/34
f 34/38/34 35/39/34 36/29/34
f 36/29/34 37/40/34 38/30/34
f 38/30/34 39/41/34 40/31/34
f 40/31/34 34/38/34 36/29/34
