# ice_path_corner_sw
# generated by tools/assets/build-tiles.js — do not edit
mtllib ice_path_corner_sw.mtl
o ice_path_corner_sw
v 0.00000 0.00000 0.00000
v 1.00000 0.00000 1.00000
v 1.00000 0.00000 0.00000
v 0.00000 0.00000 0.00000
v 0.00000 0.00000 1.00000
v 1.00000 0.00000 1.00000
vt 0.98633 -0.50586
vt 0.50586 -0.99219
vt 0.50586 -0.50586
vt 0.98633 -0.50586
vt 0.98633 -0.99219
vt 0.50586 -0.99219
vn 0.0000 1.0000 0.0000
vn 0.0000 1.0000 0.0000
vn 0.0000 1.0000 0.0000
vn 0.0000 1.0000 0.0000
vn 0.0000 1.0000 0.0000
vn 0.0000 1.0000 0.0000
g ice_path_corner_sw_0
usemtl ms09_01
f 1/1/1 2/2/2 3/3/3
f 4/4/4 5/5/5 6/6/6
