# marsh_border_i_inner_sw
# generated by tools/assets/build-tiles.js — do not edit
mtllib marsh_border_i_inner_sw.mtl
o marsh_border_i_inner_sw
v 1.00000 0.00000 1.00000
v 1.00000 0.00000 0.00000
v 0.00000 0.00000 1.00000
v 0.00000 0.00000 0.00000
v 0.00000 0.00000 1.00000
v 1.00000 0.00000 0.00000
vt 0.00000 0.98828
vt 0.50000 0.98828
vt 0.00000 0.51172
vt 0.50000 0.98828
vt 0.50000 0.51172
vt 0.00000 0.98828
vn 0.0000 1.0000 0.0000
vn 0.0000 1.0000 0.0000
vn 0.0000 1.0000 0.0000
vn 0.0000 1.0000 0.0000
vn 0.0000 1.0000 0.0000
vn 0.0000 1.0000 0.0000
g marsh_border_i_inner_sw_0
usemtl ms09_03
f 1/1/1 2/2/2 3/3/3
f 4/4/4 5/5/5 6/6/6
