# marsh_grass_c2_corner_nw
# generated by tools/assets/build-tiles.js — do not edit
mtllib marsh_grass_c2_corner_nw.mtl
o marsh_grass_c2_corner_nw
v 1.00000 0.00000 0.00000
v 0.00000 0.00000 1.00000
v 1.00000 0.00000 1.00000
v 1.00000 0.00000 0.00000
v 0.00000 0.00000 0.00000
v 0.00000 0.00000 1.00000
vt 0.51563 -0.98438
vt 0.98438 -0.51563
vt 0.51563 -0.51563
vt 0.51563 -0.98438
vt 0.98438 -0.98438
vt 0.98438 -0.51563
vn 0.0000 1.0000 0.0000
vn 0.0000 1.0000 0.0000
vn 0.0000 1.0000 0.0000
vn 0.0000 1.0000 0.0000
vn 0.0000 1.0000 0.0000
vn 0.0000 1.0000 0.0000
g marsh_grass_c2_corner_nw_0
usemtl numa_kb
f 1/1/1 2/2/2 3/3/3
f 4/4/4 5/5/5 6/6/6
