# marsh_ground_center
# generated by tools/assets/build-tiles.js — do not edit
mtllib marsh_ground_center.mtl
o marsh_ground_center
v 0.00000 0.00000 0.00000
v 1.00000 0.00000 1.00000
v 1.00000 0.00000 0.00000
v 0.00000 0.00000 0.00000
v 0.00000 0.00000 1.00000
v 1.00000 0.00000 1.00000
vt 0.01172 -0.50000
vt 0.48828 -1.00000
vt 0.01172 -1.00000
vt 0.01172 -0.50000
vt 0.48828 -0.50000
vt 0.48828 -1.00000
vn 0.0000 1.0000 0.0000
vn 0.0000 1.0000 0.0000
vn 0.0000 1.0000 0.0000
vn 0.0000 1.0000 0.0000
vn 0.0000 1.0000 0.0000
vn 0.0000 1.0000 0.0000
g marsh_ground_center_0
usemtl ms04_03
f 1/1/1 2/2/2 3/3/3
f 4/4/4 5/5/5 6/6/6
