# marsh_grass_v1_edge_e
# generated by tools/assets/build-tiles.js — do not edit
mtllib marsh_grass_v1_edge_e.mtl
o marsh_grass_v1_edge_e
v 1.00000 0.00000 0.00000
v 0.00000 0.00000 1.01074
v 1.00000 0.00000 1.01074
v 1.00000 0.00000 0.00000
v 0.00000 0.00000 0.00000
v 0.00000 0.00000 1.01074
vt 0.98438 -0.96875
vt 0.51563 -0.03125
vt 0.98438 -0.03125
vt 0.98438 -0.96875
vt 0.51563 -0.96875
vt 0.51563 -0.03125
vn 0.0000 1.0000 0.0000
vn 0.0000 1.0000 0.0000
vn 0.0000 1.0000 0.0000
vn 0.0000 1.0000 0.0000
vn 0.0000 1.0000 0.0000
vn 0.0000 1.0000 0.0000
g marsh_grass_v1_edge_e_0
usemtl numa_ke
f 1/1/1 2/2/2 3/3/3
f 4/4/4 5/5/5 6/6/6
