# marsh_grass_c3_corner_sw
# generated by tools/assets/build-tiles.js — do not edit
mtllib marsh_grass_c3_corner_sw.mtl
o marsh_grass_c3_corner_sw
v 1.00000 0.00000 0.00000
v 0.00000 0.00000 1.00000
v 1.00000 0.00000 1.00000
v 1.00000 0.00000 0.00000
v 0.00000 0.00000 0.00000
v 0.00000 0.00000 1.00000
vt 0.48438 -0.48438
vt 0.01563 -0.01563
vt 0.48438 -0.01563
vt 0.48438 -0.48438
vt 0.01563 -0.48438
vt 0.01563 -0.01563
vn 0.0000 1.0000 0.0000
vn 0.0000 1.0000 0.0000
vn 0.0000 1.0000 0.0000
vn 0.0000 1.0000 0.0000
vn 0.0000 1.0000 0.0000
vn 0.0000 1.0000 0.0000
g marsh_grass_c3_corner_sw_0
usemtl numa_kb
f 1/1/1 2/2/2 3/3/3
f 4/4/4 5/5/5 6/6/6
