# marsh_grass_u2_edge_s
# generated by tools/assets/build-tiles.js — do not edit
mtllib marsh_grass_u2_edge_s.mtl
o marsh_grass_u2_edge_s
v 0.00000 0.00000 1.01074
v 1.00000 0.00000 0.00000
v 0.00000 0.00000 0.00000
v 0.00000 0.00000 1.01074
v 1.00000 0.00000 1.01074
v 1.00000 0.00000 0.00000
vt 0.00000 -0.01563
vt 1.00000 -0.48438
vt 0.00000 -0.48438
vt 0.00000 -0.01563
vt 1.00000 -0.01563
vt 1.00000 -0.48438
vn 0.0000 1.0000 0.0000
vn 0.0000 1.0000 0.0000
vn 0.0000 1.0000 0.0000
vn 0.0000 1.0000 0.0000
vn 0.0000 1.0000 0.0000
vn 0.0000 1.0000 0.0000
g marsh_grass_u2_edge_s_0
usemtl numa_d
f 1/1/1 2/2/2 3/3/3
f 4/4/4 5/5/5 6/6/6
