# marsh_border_corner_nw
# generated by tools/assets/build-tiles.js — do not edit
mtllib marsh_border_corner_nw.mtl
o marsh_border_corner_nw
v 0.00000 0.00000 1.00000
v 1.00000 0.00000 1.00000
v 0.00000 0.00000 0.00000
v 1.00000 0.00000 0.00000
v 0.00000 0.00000 0.00000
v 1.00000 0.00000 1.00000
vt 0.21107 0.51241
vt 0.21107 0.98897
vt 0.71108 0.51241
vt 0.60900 0.51467
vt 0.10900 0.51467
vt 0.60900 0.99123
vn 0.0000 1.0000 0.0000
vn 0.0000 1.0000 0.0000
vn 0.0000 1.0000 0.0000
vn 0.0000 1.0000 0.0000
vn 0.0000 1.0000 0.0000
vn 0.0000 1.0000 0.0000
g marsh_border_corner_nw_0
usemtl ms09_03
f 1/1/1 2/2/2 3/3/3
f 4/4/4 5/5/5 6/6/6
