# marsh_mud_center
# generated by tools/assets/build-tiles.js — do not edit
mtllib marsh_mud_center.mtl
o marsh_mud_center
v 1.00000 0.00000 0.00000
v 0.00000 0.00000 1.00000
v 1.00000 0.00000 1.00000
v 1.00000 0.00000 0.00000
v 0.00000 0.00000 0.00000
v 0.00000 0.00000 1.00000
vt -1.00000 -4.99805
vt -1.50000 -4.49609
vt -1.00000 -4.49609
vt -1.00000 -4.99805
vt -1.50000 -4.99805
vt -1.50000 -4.49609
vn 0.0000 1.0000 0.0000
vn 0.0000 1.0000 0.0000
vn 0.0000 1.0000 0.0000
vn 0.0000 1.0000 0.0000
vn 0.0000 1.0000 0.0000
vn 0.0000 1.0000 0.0000
g marsh_mud_center_0
usemtl ms09_02
f 1/1/1 2/2/2 3/3/3
f 4/4/4 5/5/5 6/6/6
