# rock_path_corner_nw
# generated by tools/assets/build-tiles.js — do not edit
mtllib rock_path_corner_nw.mtl
o rock_path_corner_nw
v 1.00000 -0.00000 1.00000
v 0.00000 -0.00000 -0.00000
v 0.00000 -0.00000 1.00000
v 1.00000 -0.00000 1.00000
v 1.00000 -0.00000 -0.00000
v 0.00000 -0.00000 -0.00000
vt 0.24316 -0.50684
vt 0.00781 -0.74316
vt 0.00781 -0.50684
vt 0.24316 -0.50684
vt 0.24316 -0.74316
vt 0.00781 -0.74316
vn 0.0000 1.0000 0.0000
vn 0.0000 1.0000 0.0000
vn 0.0000 1.0000 0.0000
vn 0.0000 1.0000 0.0000
vn 0.0000 1.0000 0.0000
vn 0.0000 1.0000 0.0000
g rock_path_corner_nw_0
usemtl roadkk_ro
f 1/1/1 2/2/2 3/3/3
f 4/4/4 5/5/5 6/6/6
