# rock
# generated by tools/assets/build-tiles.js — do not edit
mtllib rock.mtl
o rock
v 2.00000 1.45703 1.70703
v 0.00000 0.04297 0.29297
v 0.00000 1.45703 1.70703
v 2.00000 1.45703 1.70703
v 2.00000 0.04297 0.29297
v 0.00000 0.04297 0.29297
vt 1.00000 0.00000
vt 0.00000 -1.00000
vt 0.00000 0.00000
vt 1.00000 0.00000
vt 1.00000 -1.00000
vt 0.00000 -1.00000
vn 0.0000 0.7071 -0.7071
vn 0.0000 0.7071 -0.7071
vn 0.0000 0.7071 -0.7071
vn 0.0000 0.7071 -0.7071
vn 0.0000 0.7071 -0.7071
vn 0.0000 0.7071 -0.7071
g rock_0
usemtl rock01
f 1/1/1 2/2/2 3/3/3
f 4/4/4 5/5/5 6/6/6
