# rock_path_inner_ne
# generated by tools/assets/build-tiles.js — do not edit
mtllib rock_path_inner_ne.mtl
o rock_path_inner_ne
v 0.00000 -0.00000 0.00000
v 1.00000 -0.00000 1.00000
v 1.00000 -0.00000 0.00000
v 1.00000 -0.00000 1.00000
v 0.00000 -0.00000 0.00000
v 0.00000 -0.00000 1.00000
vt 0.00684 -0.24219
vt 0.24316 -0.00684
vt 0.24316 -0.24219
vt 0.24316 -0.00684
vt 0.00684 -0.24219
vt 0.00684 -0.00684
vn 0.0000 1.0000 0.0000
vn 0.0000 1.0000 0.0000
vn 0.0000 1.0000 0.0000
vn 0.0000 1.0000 0.0000
vn 0.0000 1.0000 0.0000
vn 0.0000 1.0000 0.0000
g rock_path_inner_ne_0
usemtl roadkk_ri1
f 1/1/1 2/2/2 3/3/3
f 4/4/4 5/5/5 6/6/6
