# rock_path_corner_ne
# generated by tools/assets/build-tiles.js — do not edit
mtllib rock_path_corner_ne.mtl
o rock_path_corner_ne
v 1.00000 0.00000 1.00000
v 0.00000 0.00000 0.00000
v 0.00000 0.00000 1.00000
v 1.00000 0.00000 1.00000
v 1.00000 0.00000 0.00000
v 0.00000 0.00000 0.00000
vt 0.74316 -0.50879
vt 0.50684 -0.74121
vt 0.50684 -0.50879
vt 0.74316 -0.50879
vt 0.74316 -0.74121
vt 0.50684 -0.74121
vn 0.0000 1.0000 0.0000
vn 0.0000 1.0000 0.0000
vn 0.0000 1.0000 0.0000
vn 0.0000 1.0000 0.0000
vn 0.0000 1.0000 0.0000
vn 0.0000 1.0000 0.0000
g rock_path_corner_ne_0
usemtl roadkk_ro
f 1/1/1 2/2/2 3/3/3
f 4/4/4 5/5/5 6/6/6
