# rock_path_inner_sw
# generated by tools/assets/build-tiles.js — do not edit
mtllib rock_path_inner_sw.mtl
o rock_path_inner_sw
v 0.00000 0.00000 0.00000
v 1.00000 0.00000 1.00000
v 1.00000 0.00000 0.00000
v 1.00000 0.00000 1.00000
v 0.00000 0.00000 0.00000
v 0.00000 0.00000 1.00000
vt 0.51172 -0.48828
vt 0.99023 -0.01172
vt 0.99023 -0.48828
vt 0.99023 -0.01172
vt 0.51172 -0.48828
vt 0.51172 -0.01172
vn 0.0000 1.0000 0.0000
vn 0.0000 1.0000 0.0000
vn 0.0000 1.0000 0.0000
vn 0.0000 1.0000 0.0000
vn 0.0000 1.0000 0.0000
vn 0.0000 1.0000 0.0000
g rock_path_inner_sw_0
usemtl roadkk_ri2
f 1/1/1 2/2/2 3/3/3
f 4/4/4 5/5/5 6/6/6
