# rock_path_inner_nw
# generated by tools/assets/build-tiles.js — do not edit
mtllib rock_path_inner_nw.mtl
o rock_path_inner_nw
v 0.00000 0.00000 0.00000
v 1.00000 0.00000 1.00000
v 1.00000 0.00000 0.00000
v 1.00000 0.00000 1.00000
v 0.00000 0.00000 0.00000
v 0.00000 0.00000 1.00000
vt 0.25586 -0.24414
vt 0.49512 -0.00586
vt 0.49512 -0.24414
vt 0.49512 -0.00586
vt 0.25586 -0.24414
vt 0.25586 -0.00586
vn 0.0000 1.0000 0.0000
vn 0.0000 1.0000 0.0000
vn 0.0000 1.0000 0.0000
vn 0.0000 1.0000 0.0000
vn 0.0000 1.0000 0.0000
vn 0.0000 1.0000 0.0000
g rock_path_inner_nw_0
usemtl roadkk_ri1
f 1/1/1 2/2/2 3/3/3
f 4/4/4 5/5/5 6/6/6
