# rock_path_inner_se
# generated by tools/assets/build-tiles.js — do not edit
mtllib rock_path_inner_se.mtl
o rock_path_inner_se
v 0.00000 0.00000 0.00000
v 1.00000 0.00000 1.00000
v 1.00000 0.00000 0.00000
v 1.00000 0.00000 1.00000
v 0.00000 0.00000 0.00000
v 0.00000 0.00000 1.00000
vt 0.01367 -0.48438
vt 0.48633 -0.01367
vt 0.48633 -0.48438
vt 0.48633 -0.01367
vt 0.01367 -0.48438
vt 0.01367 -0.01367
vn 0.0000 1.0000 0.0000
vn 0.0000 1.0000 0.0000
vn 0.0000 1.0000 0.0000
vn 0.0000 1.0000 0.0000
vn 0.0000 1.0000 0.0000
vn 0.0000 1.0000 0.0000
g rock_path_inner_se_0
usemtl roadkk_ri2
f 1/1/1 2/2/2 3/3/3
f 4/4/4 5/5/5 6/6/6
