# water_rock_small
# generated by tools/assets/build-tiles.js — do not edit
mtllib water_rock_small.mtl
o water_rock_small
v 1.00000 0.48633 0.70410
v 0.00000 -0.35351 0.14648
v 0.00000 0.48633 0.70410
v 1.00000 0.48633 0.70410
v 1.00000 -0.35351 0.14648
v 0.00000 -0.35351 0.14648
vt 1.00000 0.00000
vt 0.00000 -1.00000
vt 0.00000 0.00000
vt 1.00000 0.00000
vt 1.00000 -1.00000
vt 0.00000 -1.00000
vn 0.0000 0.5524 -0.8336
vn 0.0000 0.5524 -0.8336
vn 0.0000 0.5523 -0.8336
vn 0.0000 0.5524 -0.8336
vn 0.0000 0.5523 -0.8336
vn 0.0000 0.5524 -0.8336
g water_rock_small_0
usemtl sea_rock_m
f 1/1/1 2/2/2 3/3/3
f 4/4/4 5/5/5 6/6/6
