# water_rock
# generated by tools/assets/build-tiles.js — do not edit
mtllib water_rock.mtl
o water_rock
v 2.00000 0.95703 1.70703
v 0.00000 -0.45703 0.29297
v 0.00000 0.95703 1.70703
v 2.00000 0.95703 1.70703
v 2.00000 -0.45703 0.29297
v 0.00000 -0.45703 0.29297
vt 1.00000 0.00000
vt 0.00000 -1.00000
vt 0.00000 0.00000
vt 1.00000 0.00000
vt 1.00000 -1.00000
vt 0.00000 -1.00000
vn 0.0000 0.7071 -0.7071
vn 0.0000 0.7071 -0.7071
vn 0.0000 0.7071 -0.7071
vn 0.0000 0.7071 -0.7071
vn 0.0000 0.7071 -0.7071
vn 0.0000 0.7071 -0.7071
g water_rock_0
usemtl sea_rock
f 1/1/1 2/2/2 3/3/3
f 4/4/4 5/5/5 6/6/6
