# stairs_e_v4
# generated by tools/assets/build-tiles.js — do not edit
mtllib stairs_e_v4.mtl
o stairs_e_v4
v 0.00000 1.00000 0.75000
v 1.00000 0.00000 0.00000
v 0.00000 1.00000 0.00000
v 0.00000 1.00000 0.75000
v 1.00000 0.00000 0.75000
v 1.00000 0.00000 0.00000
vt 1.00000 4.25000
vt -0.12500 1.03125
vt -0.12500 4.25000
vt 1.00000 4.25000
vt 1.00000 1.03125
vt -0.12500 1.03125
vn 0.7071 0.7071 0.0000
vn 0.7071 0.7071 0.0000
vn 0.7071 0.7071 0.0000
vn 0.7071 0.7071 0.0000
vn 0.7071 0.7071 0.0000
vn 0.7071 0.7071 0.0000
g stairs_e_v4_0
usemtl d7satirs_2
f 1/1/1 2/2/2 3/3/3
f 4/4/4 5/5/5 6/6/6
v 0.00000 1.00000 1.00000
v 1.00000 0.00000 1.00000
v 0.50000 1.00000 1.00000
v 0.00000 1.00000 1.00000
v 0.00000 0.00000 1.00000
v 1.00000 0.00000 1.00000
v 0.00000 1.00000 1.00000
v 0.50000 1.00000 0.68750
v 0.00000 1.00000 0.68750
v 0.00000 1.00000 1.00000
v 0.50000 1.00000 1.00000
v 0.50000 1.00000 0.68750
v 0.50000 1.00000 1.00000
v 1.00000 0.00000 0.68750
v 0.50000 1.00000 0.68750
v 0.50000 1.00000 1.00000
v 1.00000 0.00000 1.00000
v 1.00000 0.00000 0.68750
v 0.50000 1.00000 0.68750
v 0.00000 0.00000 0.68750
v 0.00000 1.00000 0.68750
v 0.50000 1.00000 0.68750
v 1.00000 0.00000 0.68750
v 0.00000 0.00000 0.68750
vt 3.25000 -0.01172
vt 4.98047 -1.00000
vt 4.98047 -0.01758
vt 3.25000 -0.01172
vt 2.01172 -1.00000
vt 4.98047 -1.00000
vt 1.06250 -0.55078
vt 1.43750 0.00000
vt 1.43750 -0.55078
vt 1.06250 -0.55078
vt 1.06250 0.00000
vt 1.43750 0.00000
vt -0.41797 0.00000
vt 0.01953 -1.00000
vt 0.01953 0.00000
vt -0.41797 0.00000
vt -0.41797 -1.00000
vt 0.01953 -1.00000
vt 3.25000 -0.01172
vt 4.98047 -1.00000
vt 4.98047 -0.01758
vt 3.25000 -0.01172
vt 2.01172 -1.00000
vt 4.98047 -1.00000
vn 0.0000 0.0000 1.0000
vn 0.0000 0.0000 1.0000
vn 0.0000 0.0000 1.0000
vn 0.0000 0.0000 1.0000
vn 0.0000 0.0000 1.0000
vn 0.0000 0.0000 1.0000
vn 0.0000 1.0000 0.0000
vn 0.0000 1.0000 0.0000
vn 0.0000 1.0000 0.0000
vn 0.0000 1.0000 0.0000
vn 0.0000 1.0000 0.0000
vn 0.0000 1.0000 0.0000
vn 0.8944 0.4472 0.0000
vn 0.8944 0.4472 0.0000
vn 0.8944 0.4472 0.0000
vn 0.8944 0.4472 0.0000
vn 0.8944 0.4472 0.0000
vn 0.8944 0.4472 0.0000
vn 0.0000 0.0000 -1.0000
vn 0.0000 0.0000 -1.0000
vn 0.0000 0.0000 -1.0000
vn 0.0000 0.0000 -1.0000
vn 0.0000 0.0000 -1.0000
vn 0.0000 0.0000 -1.0000
g stairs_e_v4_1
usemtl d7satirs3_2
f 7/7/7 8/8/8 9/9/9
f 10/10/10 11/11/11 12/12/12
f 13/13/13 14/14/14 15/15/15
f 16/16/16 17/17/17 18/18/18
f 19/19/19 20/20/20 21/21/21
f 22/22/22 23/23/23 24/24/24
f 25/25/25 26/26/26 27/27/27
f 28/28/28 29/29/29 30/30/30
