# stairs_v4
# generated by tools/assets/build-tiles.js — do not edit
mtllib stairs_v4.mtl
o stairs_v4
v 0.00000 1.00000 1.00000
v 1.00000 0.00000 0.00000
v 0.00000 1.00000 0.00000
v 0.00000 1.00000 1.00000
v 1.00000 0.00000 1.00000
v 1.00000 0.00000 0.00000
vt -0.12500 4.25000
vt -1.62500 1.03125
vt -1.62500 4.25000
vt -0.12500 4.25000
vt -0.12500 1.03125
vt -1.62500 1.03125
vn 0.7071 0.7071 0.0000
vn 0.7071 0.7071 0.0000
vn 0.7071 0.7071 0.0000
vn 0.7071 0.7071 0.0000
vn 0.7071 0.7071 0.0000
vn 0.7071 0.7071 0.0000
g stairs_v4_0
usemtl d7satirs_2
f 1/1/1 2/2/2 3/3/3
f 4/4/4 5/5/5 6/6/6
