# grass_river_center_v3
# generated by tools/assets/build-tiles.js — do not edit
mtllib grass_river_center_v3.mtl
o grass_river_center_v3
v 2.00000 -0.00000 0.00000
v 0.00000 0.00000 0.00000
v 0.50000 -0.00000 0.50000
v 0.00000 0.00000 0.00000
v 0.00000 0.00000 2.00000
v 0.50000 -0.00000 0.50000
vt 0.75000 -2.25000
vt 0.75000 -1.75000
vt 0.87500 -1.87500
vt 0.75000 -1.75000
vt 1.25000 -1.75000
vt 0.87500 -1.87500
vn 0.0000 1.0000 0.0000
vn 0.0000 1.0000 0.0000
vn 0.0000 1.0000 0.0000
vn 0.0000 1.0000 0.0000
vn 0.0000 1.0000 0.0000
vn 0.0000 1.0000 0.0000
g grass_river_center_v3_0
usemtl grass01ax
f 1/1/1 2/2/2 3/3/3
f 4/4/4 5/5/5 6/6/6
