# mountain_low_bl_empty_v2
# generated by tools/assets/build-tiles.js — do not edit
mtllib mountain_low_bl_empty_v2.mtl
o mountain_low_bl_empty_v2
v 0.75000 0.00000 0.75000
v 1.00000 0.00000 0.00000
v 0.00000 1.00000 0.00000
v 0.75000 0.00000 0.75000
v 0.00000 1.00000 0.00000
v 0.00000 0.00000 1.00000
vt 0.50000 0.02500
vt 0.00000 0.02500
vt 0.50000 0.97500
vt 0.50000 0.02500
vt 0.50000 0.97500
vt 1.00000 0.02500
vn 0.4851 0.7276 0.4851
vn 0.7071 0.7071 0.0000
vn 0.0000 1.0000 0.0000
vn 0.4851 0.7276 0.4851
vn 0.0000 1.0000 0.0000
vn 0.0000 0.7071 0.7071
g mountain_low_bl_empty_v2_0
usemtl Mountain
f 1/1/1 2/2/2 3/3/3
f 4/4/4 5/5/5 6/6/6
