# mountain_low_inner_sw
# generated by tools/assets/build-tiles.js — do not edit
mtllib mountain_low_inner_sw.mtl
o mountain_low_inner_sw
v 0.00000 0.00000 1.00000
v 1.00000 1.00000 0.00000
v 0.00000 0.00000 0.00000
v 0.00000 0.00000 1.00000
v 1.00000 1.00000 1.00000
v 1.00000 1.00000 0.00000
v 1.00000 0.00000 1.00000
v 0.00000 1.00000 0.00000
v 0.00000 0.00000 1.00000
v 1.00000 0.00000 1.00000
v 1.00000 1.00000 0.00000
v 0.00000 1.00000 0.00000
vt 0.00000 0.02500
vt 1.00000 0.97500
vt 1.00000 0.02500
vt 0.00000 0.02500
vt 0.00000 0.97500
vt 1.00000 0.97500
vt 0.00000 0.02500
vt 1.00000 0.97500
vt 1.00000 0.02500
vt 0.00000 0.02500
vt 0.00000 0.97500
vt 1.00000 0.97500
vn -0.7071 0.7071 0.0000
vn 0.0000 1.0000 0.0000
vn -0.7071 0.7071 0.0000
vn -0.7071 0.7071 0.0000
vn 0.0000 1.0000 0.0000
vn 0.0000 1.0000 0.0000
vn 0.0000 0.7071 0.7071
vn 0.0000 1.0000 0.0000
vn 0.0000 0.7071 0.7071
vn 0.0000 0.7071 0.7071
vn 0.0000 1.0000 0.0000
vn 0.0000 1.0000 0.0000
g mountain_low_inner_sw_0
usemtl Mountain
f 1/1/1 2/2/2 3/3/3
f 4/4/4 5/5/5 6/6/6
f 7/7/7 8/8/8 9/9/9
f 10/10/10 11/11/11 12/12/12
