# d0_miz2_edge_n
# generated by tools/assets/build-tiles.js — do not edit
mtllib d0_miz2_edge_n.mtl
o d0_miz2_edge_n
v 1.00000 -0.25000 1.00000
v 0.00000 -0.25000 0.75000
v 0.00000 -0.25000 1.00000
v 1.00000 -0.25000 1.00000
v 1.00000 -0.25000 0.75000
v 0.00000 -0.25000 0.75000
vt 10.00000 2.00000
vt 11.00000 2.25000
vt 11.00000 2.00000
vt 10.00000 2.00000
vt 10.00000 2.25000
vt 11.00000 2.25000
vn 0.0000 1.0000 0.0000
vn 0.0000 1.0000 0.0000
vn 0.0000 1.0000 0.0000
vn 0.0000 1.0000 0.0000
vn 0.0000 1.0000 0.0000
vn 0.0000 1.0000 0.0000
g d0_miz2_edge_n_0
usemtl d0_miz2
f 1/1/1 2/2/2 3/3/3
f 4/4/4 5/5/5 6/6/6
v 0.00000 -0.25000 0.50000
v 1.00000 -0.25000 0.75000
v 1.00000 -0.25000 0.50000
v 0.00000 -0.25000 0.50000
v 0.00000 -0.25000 0.75000
v 1.00000 -0.25000 0.75000
vt -1.00000 0.00000
vt -2.00000 -1.00000
vt -2.00000 0.00000
vt -1.00000 0.00000
vt -1.00000 -1.00000
vt -2.00000 -1.00000
vn 0.0000 1.0000 0.0000
vn 0.0000 1.0000 0.0000
vn 0.0000 1.0000 0.0000
vn 0.0000 1.0000 0.0000
vn 0.0000 1.0000 0.0000
vn 0.0000 1.0000 0.0000
g d0_miz2_edge_n_1
usemtl d0_mizgiwa
f 7/7/7 8/8/8 9/9/9
f 10/10/10 11/11/11 12/12/12
v 1.00000 -0.50000 0.75000
v 0.00000 -0.25000 0.50000
v 0.00000 -0.50000 0.75000
v 1.00000 -0.50000 0.75000
v 1.00000 -0.25000 0.50000
v 0.00000 -0.25000 0.50000
vt 2.50000 -0.18750
vt 2.75000 -0.12500
vt 2.75000 -0.18750
vt 2.50000 -0.18750
vt 2.50000 -0.12500
vt 2.75000 -0.12500
vn 0.0000 0.7071 0.7071
vn 0.0000 0.7071 0.7071
vn 0.0000 0.7071 0.7071
vn 0.0000 0.7071 0.7071
vn 0.0000 0.7071 0.7071
vn 0.0000 0.7071 0.7071
g d0_miz2_edge_n_2
usemtl d0_miz
f 13/13/13 14/14/14 15/15/15
f 16/16/16 17/17/17 18/18/18
v 1.00000 -0.25000 0.50000
v 0.00000 0.00000 0.25000
v 0.00000 -0.25000 0.50000
v 1.00000 -0.25000 0.50000
v 1.00000 0.00000 0.25000
v 0.00000 0.00000 0.25000
vt -2.00000 -1.00000
vt -1.00000 0.00000
vt -1.00000 -1.00000
vt -2.00000 -1.00000
vt -2.00000 0.00000
vt -1.00000 0.00000
vn 0.0000 0.7071 0.7071
vn 0.0000 0.7071 0.7071
vn 0.0000 0.7071 0.7071
vn 0.0000 0.7071 0.7071
vn 0.0000 0.7071 0.7071
vn 0.0000 0.7071 0.7071
g d0_miz2_edge_n_3
usemtl d0mizu_gake
f 19/19/19 20/20/20 21/21/21
f 22/22/22 23/23/23 24/24/24
v 1.00000 0.00000 0.25000
v 0.00000 0.00000 0.00000
v 0.00000 0.00000 0.25000
v 1.00000 0.00000 0.25000
v 1.00000 0.00000 0.00000
v 0.00000 0.00000 0.00000
vt -2.00000 -1.00000
vt -1.00000 0.00000
vt -1.00000 -1.00000
vt -2.00000 -1.00000
vt -2.00000 0.00000
vt -1.00000 0.00000
vn 0.0000 1.0000 0.0000
vn 0.0000 1.0000 0.0000
vn 0.0000 1.0000 0.0000
vn 0.0000 1.0000 0.0000
vn 0.0000 1.0000 0.0000
vn 0.0000 1.0000 0.0000
g d0_miz2_edge_n_4
usemtl d0gake_002
f 25/25/25 26/26/26 27/27/27
f 28/28/28 29/29/29 30/30/30
