# d0_miz2_inner_se
# generated by tools/assets/build-tiles.js — do not edit
mtllib d0_miz2_inner_se.mtl
o d0_miz2_inner_se
v 0.00000 -0.25000 1.00000
v 1.00000 -0.25000 0.25000
v 1.00000 -0.25000 0.00000
v 0.00000 -0.25000 1.00000
v 0.25000 -0.25000 1.00000
v 1.00000 -0.25000 0.25000
v 1.00000 -0.25000 0.00000
v 0.00000 -0.25000 0.00000
v 0.00000 -0.25000 1.00000
vt 9.00000 0.00000
vt 9.75000 1.00000
vt 10.00000 1.00000
vt 9.00000 0.00000
vt 9.00000 0.25000
vt 9.75000 1.00000
vt 10.00000 1.00000
vt 10.00000 0.00000
vt 9.00000 0.00000
vn 0.0000 1.0000 0.0000
vn 0.0000 1.0000 0.0000
vn 0.0000 1.0000 0.0000
vn 0.0000 1.0000 0.0000
vn 0.0000 1.0000 0.0000
vn 0.0000 1.0000 0.0000
vn 0.0000 1.0000 0.0000
vn 0.0000 1.0000 0.0000
vn 0.0000 1.0000 0.0000
g d0_miz2_inner_se_0
usemtl d0_miz2
f 1/1/1 2/2/2 3/3/3
f 4/4/4 5/5/5 6/6/6
f 7/7/7 8/8/8 9/9/9
v 1.00000 -0.25000 0.50000
v 0.25000 -0.25000 1.00000
v 0.50000 -0.25000 1.00000
v 1.00000 -0.25000 0.50000
v 1.00000 -0.25000 0.25000
v 0.25000 -0.25000 1.00000
vt 0.00000 0.00000
vt -1.00000 -1.00000
vt -1.00000 0.00000
vt 0.00000 0.00000
vt 0.00000 -1.00000
vt -1.00000 -1.00000
vn 0.0000 1.0000 0.0000
vn 0.0000 1.0000 0.0000
vn 0.0000 1.0000 0.0000
vn 0.0000 1.0000 0.0000
vn 0.0000 1.0000 0.0000
vn 0.0000 1.0000 0.0000
g d0_miz2_inner_se_1
usemtl d0_mizgiwa
f 10/10/10 11/11/11 12/12/12
f 13/13/13 14/14/14 15/15/15
v 0.25000 -0.50000 1.00000
v 1.00000 -0.25000 0.50000
v 1.00000 -0.50000 0.25000
v 0.25000 -0.50000 1.00000
v 0.50000 -0.25000 1.00000
v 1.00000 -0.25000 0.50000
vt 2.25000 -0.68750
vt 2.37500 -0.50000
vt 2.43750 -0.50000
vt 2.25000 -0.68750
vt 2.25000 -0.62500
vt 2.37500 -0.50000
vn -0.5774 0.5774 -0.5774
vn -0.5774 0.5774 -0.5774
vn -0.5774 0.5774 -0.5774
vn -0.5774 0.5774 -0.5774
vn -0.5774 0.5774 -0.5774
vn -0.5774 0.5774 -0.5774
g d0_miz2_inner_se_2
usemtl d0_miz
f 16/16/16 17/17/17 18/18/18
f 19/19/19 20/20/20 21/21/21
v 0.50000 -0.25000 1.00000
v 1.00000 0.00000 0.75000
v 1.00000 -0.25000 0.50000
v 0.50000 -0.25000 1.00000
v 0.75000 0.00000 1.00000
v 1.00000 0.00000 0.75000
vt -1.00000 -1.00000
vt 0.00000 0.00000
vt 0.00000 -1.00000
vt -1.00000 -1.00000
vt -1.00000 0.00000
vt 0.00000 0.00000
vn -0.5774 0.5774 -0.5774
vn -0.5774 0.5774 -0.5774
vn -0.5774 0.5774 -0.5774
vn -0.5774 0.5774 -0.5774
vn -0.5774 0.5774 -0.5774
vn -0.5774 0.5774 -0.5774
g d0_miz2_inner_se_3
usemtl d0mizu_gake
f 22/22/22 23/23/23 24/24/24
f 25/25/25 26/26/26 27/27/27
v 1.00000 0.00000 1.00000
v 1.00000 0.00000 0.75000
v 0.75000 0.00000 1.00000
vt -0.50000 0.00000
vt 0.00000 -1.00000
vt -1.00000 -1.00000
vn 0.0000 1.0000 0.0000
vn 0.0000 1.0000 0.0000
vn 0.0000 1.0000 0.0000
g d0_miz2_inner_se_4
usemtl d0gake_002
f 28/28/28 29/29/29 30/30/30
