# d0gake_002_corner_sw
# generated by tools/assets/build-tiles.js — do not edit
mtllib d0gake_002_corner_sw.mtl
o d0gake_002_corner_sw
v 1.00000 -0.25000 0.25000
v 1.00000 -0.25000 0.00000
v 0.75000 -0.25000 0.00000
vt 10.00000 2.25000
vt 10.00000 2.00000
vt 9.75000 2.00000
vn 0.0000 1.0000 0.0000
vn 0.0000 1.0000 0.0000
vn 0.0000 1.0000 0.0000
g d0gake_002_corner_sw_0
usemtl d0_miz2
f 1/1/1 2/2/2 3/3/3
v 1.00000 -0.25000 0.50000
v 0.75000 -0.25000 0.00000
v 0.50000 -0.25000 0.00000
v 1.00000 -0.25000 0.50000
v 1.00000 -0.25000 0.25000
v 0.75000 -0.25000 0.00000
vt 0.00000 0.00000
vt -2.00000 -1.00000
vt -2.00000 0.00000
vt 0.00000 0.00000
vt 0.00000 -1.00000
vt -2.00000 -1.00000
vn 0.0000 1.0000 0.0000
vn 0.0000 1.0000 0.0000
vn 0.0000 1.0000 0.0000
vn 0.0000 1.0000 0.0000
vn 0.0000 1.0000 0.0000
vn 0.0000 1.0000 0.0000
g d0gake_002_corner_sw_1
usemtl d0_mizgiwa
f 4/4/4 5/5/5 6/6/6
f 7/7/7 8/8/8 9/9/9
v 0.75000 -0.50000 0.00000
v 1.00000 -0.25000 0.50000
v 1.00000 -0.50000 0.25000
v 0.75000 -0.50000 0.00000
v 0.50000 -0.25000 0.00000
v 1.00000 -0.25000 0.50000
vt 2.43750 -0.25000
vt 2.50000 -0.12500
vt 2.50000 -0.18750
vt 2.43750 -0.25000
vt 2.37500 -0.25000
vt 2.50000 -0.12500
vn 0.5774 0.5774 -0.5774
vn 0.5774 0.5774 -0.5774
vn 0.5774 0.5774 -0.5774
vn 0.5774 0.5774 -0.5774
vn 0.5774 0.5774 -0.5774
vn 0.5774 0.5774 -0.5774
g d0gake_002_corner_sw_2
usemtl d0_miz
f 10/10/10 11/11/11 12/12/12
f 13/13/13 14/14/14 15/15/15
v 0.25000 0.00000 0.75000
v 0.50000 -0.25000 0.00000
v 0.25000 0.00000 0.00000
v 1.00000 0.00000 0.75000
v 1.00000 -0.25000 0.50000
v 0.25000 0.00000 0.75000
v 0.25000 0.00000 0.75000
v 1.00000 -0.25000 0.50000
v 0.50000 -0.25000 0.00000
vt -1.00000 0.00000
vt -2.00000 -1.00000
vt -2.00000 0.00000
vt 0.00000 0.00000
vt 0.00000 -1.00000
vt -1.00000 0.00000
vt -1.00000 0.00000
vt 0.00000 -1.00000
vt -2.00000 -1.00000
vn 0.7071 0.7071 0.0000
vn 0.7071 0.7071 0.0000
vn 0.7071 0.7071 0.0000
vn 0.0000 0.7071 -0.7071
vn 0.0000 0.7071 -0.7071
vn 0.0000 0.7071 -0.7071
vn 0.2357 0.9428 -0.2357
vn 0.2357 0.9428 -0.2357
vn 0.2357 0.9428 -0.2357
g d0gake_002_corner_sw_3
usemtl d0mizu_gake
f 16/16/16 17/17/17 18/18/18
f 19/19/19 20/20/20 21/21/21
f 22/22/22 23/23/23 24/24/24
v 0.25000 0.00000 0.00000
v 0.00000 0.00000 1.00000
v 0.25000 0.00000 0.75000
v 0.25000 0.00000 0.00000
v 0.00000 0.00000 0.00000
v 0.00000 0.00000 1.00000
v 0.25000 0.00000 0.75000
v 1.00000 0.00000 1.00000
v 1.00000 0.00000 0.75000
v 0.25000 0.00000 0.75000
v 0.00000 0.00000 1.00000
v 1.00000 0.00000 1.00000
vt -2.00000 -1.00000
vt -1.00000 0.00000
vt -1.00000 -1.00000
vt -2.00000 -1.00000
vt -2.00000 0.00000
vt -1.00000 0.00000
vt -1.00000 -1.00000
vt 0.00000 0.00000
vt 0.00000 -1.00000
vt -1.00000 -1.00000
vt -1.00000 0.00000
vt 0.00000 0.00000
vn 0.0000 1.0000 0.0000
vn 0.0000 1.0000 0.0000
vn 0.0000 1.0000 0.0000
vn 0.0000 1.0000 0.0000
vn 0.0000 1.0000 0.0000
vn 0.0000 1.0000 0.0000
vn 0.0000 1.0000 0.0000
vn 0.0000 1.0000 0.0000
vn 0.0000 1.0000 0.0000
vn 0.0000 1.0000 0.0000
vn 0.0000 1.0000 0.0000
vn 0.0000 1.0000 0.0000
g d0gake_002_corner_sw_4
usemtl d0gake_002
f 25/25/25 26/26/26 27/27/27
f 28/28/28 29/29/29 30/30/30
f 31/31/31 32/32/32 33/33/33
f 34/34/34 35/35/35 36/36/36
