# darker_pine
# generated by tools/assets/build-tiles.js — do not edit
mtllib darker_pine.mtl
o darker_pine
v 2.00000 0.18750 2.00000
v 0.00000 0.18750 0.00000
v 0.00000 0.18750 2.00000
v 2.00000 0.18750 2.00000
v 2.00000 0.18750 0.00000
v 0.00000 0.18750 0.00000
vt 0.00000 -1.00000
vt -1.00000 -2.00000
vt -1.00000 -1.00000
vt 0.00000 -1.00000
vt 0.00000 -2.00000
vt -1.00000 -2.00000
vn 0.0000 1.0000 0.0000
vn 0.0000 1.0000 0.0000
vn 0.0000 1.0000 0.0000
vn 0.0000 1.0000 0.0000
vn 0.0000 1.0000 0.0000
vn 0.0000 1.0000 0.0000
g darker_pine_0
usemtl ki02c
f 1/1/1 2/2/2 3/3/3
f 4/4/4 5/5/5 6/6/6
v 1.00000 4.50000 -0.00000
v 1.00000 0.18750 2.00000
v 1.00000 4.50000 2.00000
v 1.00000 4.50000 -0.00000
v 1.00000 0.18750 0.00000
v 1.00000 0.18750 2.00000
v 0.00000 4.50000 1.00000
v 2.00000 0.18750 1.00000
v 0.00000 0.18750 1.00000
v 0.00000 4.50000 1.00000
v 2.00000 4.50000 1.00000
v 2.00000 0.18750 1.00000
vt 0.00000 0.00000
vt -1.00000 -1.00000
vt -1.00000 0.00000
vt 0.00000 0.00000
vt 0.00000 -1.00000
vt -1.00000 -1.00000
vt 0.00000 0.00000
vt -1.00000 -1.00000
vt 0.00000 -1.00000
vt 0.00000 0.00000
vt -1.00000 0.00000
vt -1.00000 -1.00000
vn -1.0000 0.0000 0.0000
vn -1.0000 0.0000 0.0000
vn -1.0000 0.0000 0.0000
vn -1.0000 0.0000 0.0000
vn -1.0000 0.0000 0.0000
vn -1.0000 0.0000 0.0000
vn 0.0000 0.0000 -1.0000
vn 0.0000 0.0000 -1.0000
vn 0.0000 0.0000 -1.0000
vn 0.0000 0.0000 -1.0000
vn 0.0000 0.0000 -1.0000
vn 0.0000 0.0000 -1.0000
g darker_pine_1
usemtl ki02DARKax
f 7/7/7 8/8/8 9/9/9
f 10/10/10 11/11/11 12/12/12
f 13/13/13 14/14/14 15/15/15
f 16/16/16 17/17/17 18/18/18
v 2.00000 1.62500 0.00000
v 0.00000 1.62500 2.00000
v 2.00000 1.62500 2.00000
v 2.00000 1.62500 0.00000
v 0.00000 1.62500 0.00000
v 0.00000 1.62500 2.00000
vt 0.00000 -2.00000
vt -1.00000 -1.00000
vt 0.00000 -1.00000
vt 0.00000 -2.00000
vt -1.00000 -2.00000
vt -1.00000 -1.00000
vn 0.0000 1.0000 0.0000
vn 0.0000 1.0000 0.0000
vn 0.0000 1.0000 0.0000
vn 0.0000 1.0000 0.0000
vn 0.0000 1.0000 0.0000
vn 0.0000 1.0000 0.0000
g darker_pine_2
usemtl ki02DARKbx
f 19/19/19 20/20/20 21/21/21
f 22/22/22 23/23/23 24/24/24
v 2.00000 3.71875 -0.00000
v 0.00000 3.71875 2.00000
v 2.00000 3.71875 2.00000
v 2.00000 3.71875 -0.00000
v 0.00000 3.71875 -0.00000
v 0.00000 3.71875 2.00000
vt 0.00000 -2.00000
vt -1.00000 -1.00000
vt 0.00000 -1.00000
vt 0.00000 -2.00000
vt -1.00000 -2.00000
vt -1.00000 -1.00000
vn 0.0000 1.0000 0.0000
vn 0.0000 1.0000 0.0000
vn 0.0000 1.0000 0.0000
vn 0.0000 1.0000 0.0000
vn 0.0000 1.0000 0.0000
vn 0.0000 1.0000 0.0000
g darker_pine_3
usemtl ki02DARKdx
f 25/25/25 26/26/26 27/27/27
f 28/28/28 29/29/29 30/30/30
