# Blender 5.2.1 LTS
# www.blender.org
mtllib fat_log.mtl
o sylvan-town__fat_log
v 0.000000 1.464516 0.516129
v 0.000000 1.328462 0.844591
v 0.000000 1.000000 0.980645
v 0.000000 0.671538 0.844591
v 0.000000 0.535484 0.516129
v 0.000000 0.671538 0.187667
v 0.000000 1.000000 0.051613
v 0.000000 1.328462 0.187667
v 0.500000 1.498925 0.516129
v 0.500000 1.352793 0.868922
v 0.500000 1.000000 1.015054
v 0.500000 0.647207 0.868922
v 0.500000 0.501075 0.516129
v 0.500000 0.647207 0.163336
v 0.500000 1.000000 0.017204
v 0.500000 1.352793 0.163336
v 1.000000 1.516129 0.516129
v 1.000000 1.364958 0.881087
v 1.000000 1.000000 1.032258
v 1.000000 0.635042 0.881087
v 1.000000 0.483871 0.516129
v 1.000000 0.635042 0.151171
v 1.000000 1.000000 0.000000
v 1.000000 1.364958 0.151171
v 1.500000 1.516129 0.516129
v 1.500000 1.364958 0.881087
v 1.500000 1.000000 1.032258
v 1.500000 0.635042 0.881087
v 1.500000 0.483871 0.516129
v 1.500000 0.635042 0.151171
v 1.500000 1.000000 0.000000
v 1.500000 1.364958 0.151171
v 2.000000 1.447312 0.516129
v 2.000000 1.316297 0.832426
v 2.000000 1.000000 0.963441
v 2.000000 0.683703 0.832426
v 2.000000 0.552688 0.516129
v 2.000000 0.683703 0.199832
v 2.000000 1.000000 0.068817
v 2.000000 1.316297 0.199832
vn -0.0635 0.9220 0.3819
vn -0.0635 0.3819 0.9220
vn -0.0635 -0.3819 0.9220
vn -0.0635 -0.9220 0.3819
vn -0.0635 -0.9220 -0.3819
vn -0.0635 -0.3819 -0.9220
vn -0.0635 0.3819 -0.9220
vn -0.0635 0.9220 -0.3819
vn -0.0318 0.9234 0.3825
vn -0.0318 0.3825 0.9234
vn -0.0318 -0.3825 0.9234
vn -0.0318 -0.9234 0.3825
vn -0.0318 -0.9234 -0.3825
vn -0.0318 -0.3825 -0.9234
vn -0.0318 0.3825 -0.9234
vn -0.0318 0.9234 -0.3825
vn -0.0000 0.9239 0.3827
vn -0.0000 0.3827 0.9239
vn -0.0000 -0.3827 0.9239
vn -0.0000 -0.9239 0.3827
vn -0.0000 -0.9239 -0.3827
vn -0.0000 -0.3827 -0.9239
vn -0.0000 0.3827 -0.9239
vn -0.0000 0.9239 -0.3827
vn 0.1261 0.9165 0.3796
vn 0.1261 0.3796 0.9165
vn 0.1261 -0.3796 0.9165
vn 0.1261 -0.9165 0.3796
vn 0.1261 -0.9165 -0.3796
vn 0.1261 -0.3796 -0.9165
vn 0.1261 0.3796 -0.9165
vn 0.1261 0.9165 -0.3796
vn -1.0000 -0.0000 -0.0000
vn 1.0000 -0.0000 -0.0000
vt 0.638808 0.003939
vt 0.518552 0.066498
vt 0.518552 0.003939
vt 0.759064 0.066498
vt 0.638808 0.066498
vt 0.879320 0.003939
vt 0.759064 0.003939
vt 0.999576 0.003939
vt 0.879320 0.066498
vt 0.999576 0.066498
vt 0.518552 0.129057
vt 0.638808 0.129057
vt 0.759064 0.129057
vt 0.879320 0.129057
vt 0.999576 0.129057
vt 0.518552 0.191616
vt 0.638808 0.191616
vt 0.759064 0.191616
vt 0.879320 0.191616
vt 0.999576 0.191616
vt 0.518552 0.254175
vt 0.638808 0.254175
vt 0.759064 0.254175
vt 0.879320 0.254175
vt 0.999576 0.254175
vt 0.759064 0.020204
vt 0.759064 0.031465
vt 0.759064 0.042726
vt 0.999576 0.174908
vt 0.999576 0.193310
vt 0.759064 0.039427
vt 0.759064 0.023503
vt 0.999576 0.197121
vt 0.999576 0.184109
vt 0.999576 0.171097
s 0
usemtl Decoration.045
f 2/1/1 9/2/1 1/3/1
f 2/1/2 11/4/2 10/5/2
f 4/6/3 11/4/3 3/7/3
f 5/8/4 12/9/4 4/6/4
f 6/6/5 13/10/5 5/8/5
f 6/6/6 15/4/6 14/9/6
f 8/1/7 15/4/7 7/7/7
f 1/3/8 16/5/8 8/1/8
f 10/5/9 17/11/9 9/2/9
f 11/4/10 18/12/10 10/5/10
f 12/9/11 19/13/11 11/4/11
f 13/10/12 20/14/12 12/9/12
f 14/9/13 21/15/13 13/10/13
f 15/4/14 22/14/14 14/9/14
f 15/4/15 24/12/15 23/13/15
f 9/2/16 24/12/16 16/5/16
f 18/12/17 25/16/17 17/11/17
f 19/13/18 26/17/18 18/12/18
f 20/14/19 27/18/19 19/13/19
f 21/15/20 28/19/20 20/14/20
f 22/14/21 29/20/21 21/15/21
f 23/13/22 30/19/22 22/14/22
f 24/12/23 31/18/23 23/13/23
f 17/11/24 32/17/24 24/12/24
f 26/17/25 33/21/25 25/16/25
f 27/18/26 34/22/26 26/17/26
f 28/19/27 35/23/27 27/18/27
f 29/20/28 36/24/28 28/19/28
f 30/19/29 37/25/29 29/20/29
f 30/19/30 39/23/30 38/24/30
f 32/17/31 39/23/31 31/18/31
f 25/16/32 40/22/32 32/17/32
f 5/26/33 3/27/33 1/28/33
f 36/29/34 38/29/34 40/30/34
f 2/1/1 10/5/1 9/2/1
f 2/1/2 3/7/2 11/4/2
f 4/6/3 12/9/3 11/4/3
f 5/8/4 13/10/4 12/9/4
f 6/6/5 14/9/5 13/10/5
f 6/6/6 7/7/6 15/4/6
f 8/1/7 16/5/7 15/4/7
f 1/3/8 9/2/8 16/5/8
f 10/5/9 18/12/9 17/11/9
f 11/4/10 19/13/10 18/12/10
f 12/9/11 20/14/11 19/13/11
f 13/10/12 21/15/12 20/14/12
f 14/9/13 22/14/13 21/15/13
f 15/4/14 23/13/14 22/14/14
f 15/4/15 16/5/15 24/12/15
f 9/2/16 17/11/16 24/12/16
f 18/12/17 26/17/17 25/16/17
f 19/13/18 27/18/18 26/17/18
f 20/14/19 28/19/19 27/18/19
f 21/15/20 29/20/20 28/19/20
f 22/14/21 30/19/21 29/20/21
f 23/13/22 31/18/22 30/19/22
f 24/12/23 32/17/23 31/18/23
f 17/11/24 25/16/24 32/17/24
f 26/17/25 34/22/25 33/21/25
f 27/18/26 35/23/26 34/22/26
f 28/19/27 36/24/27 35/23/27
f 29/20/28 37/25/28 36/24/28
f 30/19/29 38/24/29 37/25/29
f 30/19/30 31/18/30 39/23/30
f 32/17/31 40/22/31 39/23/31
f 25/16/32 33/21/32 40/22/32
f 1/28/33 8/31/33 7/27/33
f 7/27/33 6/32/33 5/26/33
f 5/26/33 4/32/33 3/27/33
f 3/27/33 2/31/33 1/28/33
f 1/28/33 7/27/33 5/26/33
f 40/30/34 33/33/34 34/30/34
f 34/30/34 35/34/34 36/29/34
f 36/29/34 37/35/34 38/29/34
f 38/29/34 39/34/34 40/30/34
f 40/30/34 34/30/34 36/29/34
