# mountain_cbr_3_corner_se
# generated by tools/assets/build-tiles.js — do not edit
mtllib mountain_cbr_3_corner_se.mtl
o mountain_cbr_3_corner_se
v 0.00000 1.00000 0.00000
v 0.00000 0.75000 0.50000
v 0.50000 0.75000 0.00000
vt 0.50000 0.00000
vt 1.00000 -1.00000
vt 0.00000 -1.00000
vn 0.4082 0.8165 0.4082
vn 0.4247 0.7004 0.5736
vn 0.5736 0.7004 0.4247
g mountain_cbr_3_corner_se_0
usemtl gake1_0
f 1/1/1 2/2/2 3/3/3
v 0.75000 0.00000 0.75000
v 1.00000 0.00000 0.00000
v 0.50000 0.75000 0.00000
v 0.00000 0.00000 1.00000
v 0.75000 0.00000 0.75000
v 0.00000 0.75000 0.50000
v 0.00000 0.75000 0.50000
v 0.75000 0.00000 0.75000
v 0.50000 0.75000 0.00000
vt 0.50000 -1.00000
vt 0.00000 -1.00000
vt 0.00000 0.00000
vt 1.00000 -1.00000
vt 0.50000 -1.00000
vt 1.00000 0.00000
vt 1.00000 0.00000
vt 0.50000 -1.00000
vt 0.00000 0.00000
vn 0.5613 0.6082 0.5613
vn 0.8018 0.5345 0.2673
vn 0.5736 0.7004 0.4247
vn 0.2673 0.5345 0.8018
vn 0.5613 0.6082 0.5613
vn 0.4247 0.7004 0.5736
vn 0.4247 0.7004 0.5736
vn 0.5613 0.6082 0.5613
vn 0.5736 0.7004 0.4247
g mountain_cbr_3_corner_se_1
usemtl gake01a
f 4/4/4 5/5/5 6/6/6
f 7/7/7 8/8/8 9/9/9
f 10/10/10 11/11/11 12/12/12
