# mountain_edge_n_v3
# generated by tools/assets/build-tiles.js — do not edit
mtllib mountain_edge_n_v3.mtl
o mountain_edge_n_v3
v 0.00000 1.00000 1.00000
v 1.00000 0.75000 0.50000
v 0.00000 0.75000 0.50000
v 0.00000 1.00000 1.00000
v 1.00000 1.00000 1.00000
v 1.00000 0.75000 0.50000
vt 0.00000 0.00000
vt 1.00000 -1.00000
vt 0.00000 -1.00000
vt 0.00000 0.00000
vt 1.00000 0.00000
vt 1.00000 -1.00000
vn 0.0000 0.8944 -0.4472
vn 0.0000 0.7497 -0.6618
vn 0.0000 0.7497 -0.6618
vn 0.0000 0.8944 -0.4472
vn 0.0000 0.8944 -0.4472
vn 0.0000 0.7497 -0.6618
g mountain_edge_n_v3_0
usemtl gake1_3
f 1/1/1 2/2/2 3/3/3
f 4/4/4 5/5/5 6/6/6
v 0.00000 0.00000 0.00000
v 1.00000 0.75000 0.50000
v 1.00000 0.00000 0.00000
v 0.00000 0.00000 0.00000
v 0.00000 0.75000 0.50000
v 1.00000 0.75000 0.50000
vt 0.00000 -1.00000
vt 1.00000 0.00000
vt 1.00000 -1.00000
vt 0.00000 -1.00000
vt 0.00000 0.00000
vt 1.00000 0.00000
vn 0.0000 0.5547 -0.8321
vn 0.0000 0.7497 -0.6618
vn 0.0000 0.5547 -0.8321
vn 0.0000 0.5547 -0.8321
vn 0.0000 0.7497 -0.6618
vn 0.0000 0.7497 -0.6618
g mountain_edge_n_v3_1
usemtl gake01a
f 7/7/7 8/8/8 9/9/9
f 10/10/10 11/11/11 12/12/12
