# sea_cliff_edge_w
# generated by tools/assets/build-tiles.js — do not edit
mtllib sea_cliff_edge_w.mtl
o sea_cliff_edge_w
v 0.06250 -0.00000 0.00000
v 0.43750 -0.62500 1.00000
v 0.43750 -0.62500 0.00000
v 0.06250 -0.00000 0.00000
v 0.06250 -0.00000 1.00000
v 0.43750 -0.62500 1.00000
v -0.25000 -0.06250 0.00000
v 0.06250 -0.00000 1.00000
v 0.06250 -0.00000 0.00000
v -0.25000 -0.06250 0.00000
v -0.25000 -0.06250 1.00000
v 0.06250 -0.00000 1.00000
vt -10.00000 -0.31250
vt -9.00000 -1.00000
vt -10.00000 -1.00000
vt -10.00000 -0.31250
vt -9.00000 -0.31250
vt -9.00000 -1.00000
vt -10.00000 0.00000
vt -9.00000 -0.31250
vt -10.00000 -0.31250
vt -10.00000 0.00000
vt -9.00000 0.00000
vt -9.00000 -0.31250
vn 0.6229 0.7331 -0.2730
vn -0.4542 0.8906 0.0238
vn 0.0637 0.9977 -0.0238
vn 0.6229 0.7331 -0.2730
vn 0.1235 0.9541 0.2730
vn -0.4542 0.8906 0.0238
vn -0.1956 0.9807 0.0006
vn 0.1235 0.9541 0.2730
vn 0.6229 0.7331 -0.2730
vn -0.1956 0.9807 0.0006
vn -0.1956 0.9807 -0.0005
vn 0.1235 0.9541 0.2730
g sea_cliff_edge_w_0
usemtl sea_gake01
f 1/1/1 2/2/2 3/3/3
f 4/4/4 5/5/5 6/6/6
f 7/7/7 8/8/8 9/9/9
f 10/10/10 11/11/11 12/12/12
v 0.22500 -0.02500 0.00000
v 0.46250 -0.43750 1.00000
v 0.46250 -0.43750 0.00000
v 0.22500 -0.02500 0.00000
v 0.22500 -0.02500 1.00000
v 0.46250 -0.43750 1.00000
v 0.43750 -0.62500 0.00000
v 0.46250 -0.43750 1.00000
v 0.46250 -0.43750 0.00000
v 0.43750 -0.62500 0.00000
v 0.43750 -0.62500 1.00000
v 0.46250 -0.43750 1.00000
v 0.46250 -0.43750 0.00000
v 1.00000 -0.43750 1.00000
v 1.00000 -0.43750 0.00000
v 0.46250 -0.43750 0.00000
v 0.46250 -0.43750 1.00000
v 1.00000 -0.43750 1.00000
vt -10.00000 0.00000
vt -9.00000 -0.37500
vt -10.00000 -0.37500
vt -10.00000 0.00000
vt -9.00000 0.00000
vt -9.00000 -0.37500
vt -4.00000 -0.56250
vt -5.00000 -0.37500
vt -4.00000 -0.37500
vt -4.00000 -0.56250
vt -5.00000 -0.56250
vt -5.00000 -0.37500
vt -10.00000 -0.37500
vt -9.00000 -0.87500
vt -10.00000 -0.87500
vt -10.00000 -0.37500
vt -9.00000 -0.37500
vt -9.00000 -0.87500
vn 0.1376 0.7608 -0.6343
vn 0.3051 0.8042 -0.5101
vn 0.3223 0.7742 0.5447
vn 0.1376 0.7608 -0.6343
vn 0.1158 0.7986 0.5907
vn 0.3051 0.8042 -0.5101
vn 0.0637 0.9977 -0.0238
vn -0.4525 0.6820 0.5745
vn -0.7109 0.6668 0.2234
vn 0.0637 0.9977 -0.0238
vn -0.4542 0.8906 0.0238
vn -0.4525 0.6820 0.5745
vn 0.2234 0.7928 -0.5670
vn 0.0000 1.0000 0.0000
vn 0.0000 1.0000 0.0000
vn 0.2234 0.7928 -0.5670
vn 0.0000 0.9527 -0.3040
vn 0.0000 1.0000 0.0000
g sea_cliff_edge_w_1
usemtl sea_gake02
f 13/13/13 14/14/14 15/15/15
f 16/16/16 17/17/17 18/18/18
f 19/19/19 20/20/20 21/21/21
f 22/22/22 23/23/23 24/24/24
f 25/25/25 26/26/26 27/27/27
f 28/28/28 29/29/29 30/30/30
