# sea_cliff_sw
# generated by tools/assets/build-tiles.js — do not edit
mtllib sea_cliff_sw.mtl
o sea_cliff_sw
v 1.25000 0.06250 0.00000
v 1.19336 0.12500 0.80664
v 1.43164 0.06250 0.56836
v 1.25000 0.06250 0.00000
v 0.93750 0.12500 0.00000
v 1.19336 0.12500 0.80664
v 1.43164 0.06250 0.56836
v 2.00000 0.12500 1.06250
v 2.00000 0.06250 0.75000
v 1.43164 0.06250 0.56836
v 1.19336 0.12500 0.80664
v 2.00000 0.12500 1.06250
v 2.00000 0.12500 1.06250
v 1.19336 0.12500 0.80664
v 2.00000 -0.50000 1.43750
v 2.00000 -0.50000 1.43750
v 1.19336 0.12500 0.80664
v 0.99414 -0.50000 1.00586
v 1.19336 0.12500 0.80664
v 0.56250 -0.50000 0.00000
v 0.99414 -0.50000 1.00586
v 1.19336 0.12500 0.80664
v 0.93750 0.12500 0.00000
v 0.56250 -0.50000 0.00000
vt 0.00000 0.00000
vt -0.99219 -0.31250
vt -0.99219 0.00000
vt 0.00000 0.00000
vt 0.00000 -0.31250
vt -0.99219 -0.31250
vt -0.99219 0.00000
vt -2.00000 -0.31250
vt -2.00000 0.00000
vt -0.99219 0.00000
vt -0.99219 -0.31250
vt -2.00000 -0.31250
vt -2.00000 -0.31250
vt -0.99219 -0.31250
vt -2.00000 -1.00000
vt -2.00000 -1.00000
vt -0.99219 -0.31250
vt -0.99609 -1.00000
vt -0.99219 -0.31250
vt 0.00000 -1.00000
vt -0.99609 -1.00000
vt -0.99219 -0.31250
vt 0.00000 -0.31250
vt 0.00000 -1.00000
vn 0.1950 0.9788 -0.0628
vn -0.3670 0.8547 0.3671
vn 0.1293 0.9831 -0.1293
vn 0.1950 0.9788 -0.0628
vn -0.3911 0.9118 0.1250
vn -0.3670 0.8547 0.3671
vn 0.1293 0.9831 -0.1293
vn -0.1252 0.9119 0.3909
vn 0.0621 0.9789 -0.1946
vn 0.1293 0.9831 -0.1293
vn -0.3670 0.8547 0.3671
vn -0.1252 0.9119 0.3909
vn -0.1250 0.9120 0.3906
vn -0.3669 0.8548 0.3669
vn -0.2404 0.7253 0.6451
vn -0.2404 0.7253 0.6451
vn -0.3669 0.8548 0.3669
vn 0.0000 1.0000 0.0000
vn -0.3669 0.8548 0.3669
vn -0.6451 0.7253 0.2405
vn 0.0000 1.0000 0.0000
vn -0.3669 0.8548 0.3669
vn -0.3906 0.9120 0.1250
vn -0.6451 0.7253 0.2405
g sea_cliff_sw_0
usemtl sea_gake01
f 1/1/1 2/2/2 3/3/3
f 4/4/4 5/5/5 6/6/6
f 7/7/7 8/8/8 9/9/9
f 10/10/10 11/11/11 12/12/12
f 13/13/13 14/14/14 15/15/15
f 16/16/16 17/17/17 18/18/18
f 19/19/19 20/20/20 21/21/21
f 22/22/22 23/23/23 24/24/24
v 0.62500 0.00000 0.00000
v 0.90625 -0.31250 1.09375
v 1.03711 0.00000 0.96289
v 0.62500 0.00000 0.00000
v 0.43750 -0.31250 0.00000
v 0.90625 -0.31250 1.09375
v 0.90625 -0.31250 1.09375
v 0.56250 -0.50000 0.00000
v 0.43750 -0.31250 0.00000
v 0.90625 -0.31250 1.09375
v 0.99414 -0.50000 1.00586
v 0.56250 -0.50000 0.00000
v 1.03711 0.00000 0.96289
v 2.00000 -0.31250 1.56250
v 2.00000 0.00000 1.37500
v 1.03711 0.00000 0.96289
v 0.90625 -0.31250 1.09375
v 2.00000 -0.31250 1.56250
v 2.00000 -0.31250 1.56250
v 0.99414 -0.50000 1.00586
v 0.90625 -0.31250 1.09375
v 2.00000 -0.31250 1.56250
v 2.00000 -0.50000 1.43750
v 0.99414 -0.50000 1.00586
v 0.90625 -0.31250 1.09375
v 2.00000 -0.31250 2.00000
v 2.00000 -0.31250 1.56250
v 0.90625 -0.31250 1.09375
v 0.65039 -0.31250 1.34961
v 2.00000 -0.31250 2.00000
v 0.43750 -0.31250 0.00000
v 0.65039 -0.31250 1.34961
v 0.90625 -0.31250 1.09375
v 0.43750 -0.31250 0.00000
v 0.00000 -0.31250 0.00000
v 0.65039 -0.31250 1.34961
vt 0.00000 0.00000
vt -1.49219 -0.37500
vt -1.49219 0.00000
vt 0.00000 0.00000
vt 0.00000 -0.37500
vt -1.49219 -0.37500
vt -1.50781 -0.37500
vt -3.00000 -0.56250
vt -3.00000 -0.37500
vt -1.50781 -0.37500
vt -1.50781 -0.56250
vt -3.00000 -0.56250
vt -1.49219 0.00000
vt -3.00000 -0.37500
vt -3.00000 0.00000
vt -1.49219 0.00000
vt -1.49219 -0.37500
vt -3.00000 -0.37500
vt 0.00000 -0.37500
vt -1.50781 -0.56250
vt -1.50781 -0.37500
vt 0.00000 -0.37500
vt 0.00000 -0.56250
vt -1.50781 -0.56250
vt -1.49219 -0.37500
vt -3.00000 -0.87500
vt -3.00000 -0.37500
vt -1.49219 -0.37500
vt -1.49609 -0.87500
vt -3.00000 -0.87500
vt 0.00000 -0.37500
vt -1.49609 -0.87500
vt -1.49219 -0.37500
vt 0.00000 -0.37500
vt 0.00000 -0.87500
vt -1.49609 -0.87500
vn -0.0005 1.0000 0.0001
vn 0.0529 0.9972 -0.0528
vn -0.0108 0.9999 0.0110
vn -0.0005 1.0000 0.0001
vn -0.0003 1.0000 0.0001
vn 0.0529 0.9972 -0.0528
vn 0.0513 0.9974 -0.0512
vn -0.0005 1.0000 0.0001
vn -0.0013 1.0000 0.0004
vn 0.0513 0.9974 -0.0512
vn -0.0140 0.9998 0.0142
vn -0.0005 1.0000 0.0001
vn -0.0108 0.9999 0.0110
vn -0.0002 1.0000 0.0002
vn -0.0005 1.0000 0.0009
vn -0.0108 0.9999 0.0110
vn 0.0529 0.9972 -0.0528
vn -0.0002 1.0000 0.0002
vn -0.0005 1.0000 0.0009
vn -0.0140 0.9998 0.0142
vn 0.0513 0.9974 -0.0512
vn -0.0005 1.0000 0.0009
vn -0.0004 1.0000 0.0006
vn -0.0140 0.9998 0.0142
vn 0.0606 0.9963 -0.0606
vn 0.0000 1.0000 0.0000
vn 0.0000 1.0000 0.0000
vn 0.0606 0.9963 -0.0606
vn 0.0000 1.0000 0.0000
vn 0.0000 1.0000 0.0000
vn 0.0000 1.0000 0.0000
vn 0.0000 1.0000 0.0000
vn 0.0606 0.9963 -0.0606
vn 0.0000 1.0000 0.0000
vn 0.0000 1.0000 0.0000
vn 0.0000 1.0000 0.0000
g sea_cliff_sw_1
usemtl sea_gake02
f 25/25/25 26/26/26 27/27/27
f 28/28/28 29/29/29 30/30/30
f 31/31/31 32/32/32 33/33/33
f 34/34/34 35/35/35 36/36/36
f 37/37/37 38/38/38 39/39/39
f 40/40/40 41/41/41 42/42/42
f 43/43/43 44/44/44 45/45/45
f 46/46/46 47/47/47 48/48/48
f 49/49/49 50/50/50 51/51/51
f 52/52/52 53/53/53 54/54/54
f 55/55/55 56/56/56 57/57/57
f 58/58/58 59/59/59 60/60/60
