# sea_cliff_corner_se
# generated by tools/assets/build-tiles.js — do not edit
mtllib sea_cliff_corner_se.mtl
o sea_cliff_corner_se
v 1.25000 -0.06250 1.00000
v 0.93750 0.00000 0.00000
v 0.93750 0.00000 1.00000
v 1.25000 -0.06250 1.00000
v 1.25000 -0.06250 0.00000
v 0.93750 0.00000 0.00000
v 0.93750 0.00000 1.00000
v 0.56250 -0.62500 0.00000
v 0.56250 -0.62500 1.00000
v 0.93750 0.00000 1.00000
v 0.93750 0.00000 0.00000
v 0.56250 -0.62500 0.00000
v 1.00000 -0.62500 0.56250
v 0.00000 0.00000 0.93750
v 1.00000 0.00000 0.93750
v 1.00000 -0.62500 0.56250
v 0.00000 -0.62500 0.56250
v 0.00000 0.00000 0.93750
v 1.00000 0.00000 0.93750
v 0.00000 -0.06250 1.25000
v 1.00000 -0.06250 1.25000
v 1.00000 0.00000 0.93750
v 0.00000 0.00000 0.93750
v 0.00000 -0.06250 1.25000
vt -3.00000 0.00000
vt -2.00000 -0.31250
vt -3.00000 -0.31250
vt -3.00000 0.00000
vt -2.00000 0.00000
vt -2.00000 -0.31250
vt -3.00000 -0.31250
vt -2.00000 -1.00000
vt -3.00000 -1.00000
vt -3.00000 -0.31250
vt -2.00000 -0.31250
vt -2.00000 -1.00000
vt 0.00000 -1.00000
vt -1.00000 -0.31250
vt 0.00000 -0.31250
vt 0.00000 -1.00000
vt -1.00000 -1.00000
vt -1.00000 -0.31250
vt 0.00000 -0.31250
vt -1.00000 0.00000
vt 0.00000 0.00000
vt 0.00000 -0.31250
vt -1.00000 -0.31250
vt -1.00000 0.00000
vn 0.1953 0.9807 0.0000
vn -0.2266 0.9718 -0.0648
vn -0.4046 0.9145 0.0000
vn 0.1953 0.9807 0.0000
vn 0.1956 0.9807 0.0005
vn -0.2266 0.9718 -0.0648
vn -0.4046 0.9145 0.0000
vn -0.8575 0.5145 -0.0007
vn -0.8578 0.5139 0.0000
vn -0.4046 0.9145 0.0000
vn -0.2266 0.9718 -0.0648
vn -0.8575 0.5145 -0.0007
vn 0.0000 0.5139 -0.8578
vn -0.1882 0.7683 -0.6117
vn 0.0000 0.9145 -0.4046
vn 0.0000 0.5139 -0.8578
vn 0.6007 0.5476 -0.5825
vn -0.1882 0.7683 -0.6117
vn 0.0000 0.9145 -0.4046
vn -0.0007 0.9806 0.1962
vn 0.0000 0.9807 0.1954
vn 0.0000 0.9145 -0.4046
vn -0.1882 0.7683 -0.6117
vn -0.0007 0.9806 0.1962
g sea_cliff_corner_se_0
usemtl sea_gake01
f 1/1/1 2/2/2 3/3/3
f 4/4/4 5/5/5 6/6/6
f 7/7/7 8/8/8 9/9/9
f 10/10/10 11/11/11 12/12/12
f 13/13/13 14/14/14 15/15/15
f 16/16/16 17/17/17 18/18/18
f 19/19/19 20/20/20 21/21/21
f 22/22/22 23/23/23 24/24/24
v 0.77500 -0.02500 0.77500
v 0.53750 -0.43750 0.00000
v 0.53750 -0.43750 0.53750
v 0.77500 -0.02500 0.77500
v 0.77500 -0.02500 -0.00000
v 0.53750 -0.43750 0.00000
v 0.77500 -0.02500 0.77500
v 0.00000 -0.43750 0.53750
v 0.00000 -0.02500 0.77500
v 0.77500 -0.02500 0.77500
v 0.53750 -0.43750 0.53750
v 0.00000 -0.43750 0.53750
v 0.00000 -0.62500 0.56250
v 0.53750 -0.43750 0.53750
v 0.00000 -0.43750 0.53750
v 0.00000 -0.62500 0.56250
v 0.56250 -0.62500 0.56250
v 0.53750 -0.43750 0.53750
v 0.56250 -0.62500 0.56250
v 0.53750 -0.43750 0.00000
v 0.53750 -0.43750 0.53750
v 0.56250 -0.62500 0.56250
v 0.56250 -0.62500 0.00000
v 0.53750 -0.43750 0.00000
v 0.00000 -0.43750 0.00000
v 0.00000 -0.43750 0.53750
v 0.53750 -0.43750 0.53750
v 0.00000 -0.43750 0.00000
v 0.53750 -0.43750 0.53750
v 0.53750 -0.43750 0.00000
vt 0.00000 0.00000
vt 1.00000 -0.37500
vt 0.43750 -0.37500
vt 0.00000 0.00000
vt 1.00000 0.00000
vt 1.00000 -0.37500
vt 0.00000 0.00000
vt -1.00000 -0.37500
vt -1.00000 0.00000
vt 0.00000 0.00000
vt -0.43750 -0.37500
vt -1.00000 -0.37500
vt 0.00000 -0.56250
vt -1.00000 -0.37500
vt 0.00000 -0.37500
vt 0.00000 -0.56250
vt -1.00000 -0.56250
vt -1.00000 -0.37500
vt -1.00000 -0.56250
vt -1.76923 -0.37500
vt -1.00000 -0.37500
vt -1.00000 -0.56250
vt -1.82927 -0.56250
vt -1.76923 -0.37500
vt -1.00000 -0.87500
vt -1.00000 -0.37500
vt -0.43750 -0.37500
vt -2.00000 -0.87500
vt -2.50000 -0.37500
vt -2.05128 -0.37500
vn -0.0782 0.9939 -0.0782
vn -0.8666 0.4990 0.0000
vn -0.1679 0.9834 -0.0688
vn -0.0782 0.9939 -0.0782
vn -0.1158 0.7986 -0.5907
vn -0.8666 0.4990 0.0000
vn -0.0782 0.9939 -0.0782
vn 0.4480 0.8914 -0.0684
vn -0.7319 0.6536 -0.1929
vn -0.0782 0.9939 -0.0782
vn -0.1679 0.9834 -0.0688
vn 0.4480 0.8914 -0.0684
vn 0.1699 0.6987 0.6950
vn -0.0214 0.9902 0.1378
vn -0.6162 0.6407 0.4580
vn 0.1699 0.6987 0.6950
vn -0.0133 -0.7954 0.6059
vn -0.0214 0.9902 0.1378
vn -0.0133 -0.7954 0.6059
vn 0.4583 0.7601 -0.4606
vn -0.0214 0.9902 0.1378
vn -0.0133 -0.7954 0.6059
vn 0.9506 -0.3067 -0.0481
vn 0.4583 0.7601 -0.4606
vn 0.0000 1.0000 0.0000
vn 0.0000 1.0000 0.0000
vn -0.3645 0.8311 -0.4201
vn 0.0000 1.0000 0.0000
vn -0.3645 0.8311 -0.4201
vn 0.0000 0.9517 0.3071
g sea_cliff_corner_se_1
usemtl sea_gake02
f 25/25/25 26/26/26 27/27/27
f 28/28/28 29/29/29 30/30/30
f 31/31/31 32/32/32 33/33/33
f 34/34/34 35/35/35 36/36/36
f 37/37/37 38/38/38 39/39/39
f 40/40/40 41/41/41 42/42/42
f 43/43/43 44/44/44 45/45/45
f 46/46/46 47/47/47 48/48/48
f 49/49/49 50/50/50 51/51/51
f 52/52/52 53/53/53 54/54/54
