# sea_cliff_edge_s
# generated by tools/assets/build-tiles.js — do not edit
mtllib sea_cliff_edge_s.mtl
o sea_cliff_edge_s
v 0.00000 -0.00000 0.93750
v 1.00000 -0.62500 0.56250
v 0.00000 -0.62500 0.56250
v 0.00000 -0.00000 0.93750
v 1.00000 -0.00000 0.93750
v 1.00000 -0.62500 0.56250
v 0.00000 -0.06250 1.25000
v 1.00000 -0.00000 0.93750
v 0.00000 -0.00000 0.93750
v 0.00000 -0.06250 1.25000
v 1.00000 -0.06250 1.25000
v 1.00000 -0.00000 0.93750
vt -10.00000 -0.31250
vt -9.00000 -1.00000
vt -10.00000 -1.00000
vt -10.00000 -0.31250
vt -9.00000 -0.31250
vt -9.00000 -1.00000
vt -10.00000 0.00000
vt -9.00000 -0.31250
vt -10.00000 -0.31250
vt -10.00000 0.00000
vt -9.00000 0.00000
vt -9.00000 -0.31250
vn -0.2730 0.7331 -0.6229
vn 0.0238 0.8906 0.4542
vn -0.0238 0.9977 -0.0637
vn -0.2730 0.7331 -0.6229
vn 0.2730 0.9541 -0.1235
vn 0.0238 0.8906 0.4542
vn 0.0006 0.9807 0.1956
vn 0.2730 0.9541 -0.1235
vn -0.2730 0.7331 -0.6229
vn 0.0006 0.9807 0.1956
vn -0.0005 0.9807 0.1956
vn 0.2730 0.9541 -0.1235
g sea_cliff_edge_s_0
usemtl sea_gake01
f 1/1/1 2/2/2 3/3/3
f 4/4/4 5/5/5 6/6/6
f 7/7/7 8/8/8 9/9/9
f 10/10/10 11/11/11 12/12/12
v 0.00000 -0.02500 0.77500
v 1.00000 -0.43750 0.53750
v 0.00000 -0.43750 0.53750
v 0.00000 -0.02500 0.77500
v 1.00000 -0.02500 0.77500
v 1.00000 -0.43750 0.53750
v 0.00000 -0.62500 0.56250
v 1.00000 -0.43750 0.53750
v 0.00000 -0.43750 0.53750
v 0.00000 -0.62500 0.56250
v 1.00000 -0.62500 0.56250
v 1.00000 -0.43750 0.53750
v 0.00000 -0.43750 0.53750
v 1.00000 -0.43750 0.00000
v 0.00000 -0.43750 0.00000
v 0.00000 -0.43750 0.53750
v 1.00000 -0.43750 0.53750
v 1.00000 -0.43750 0.00000
vt -10.00000 0.00000
vt -9.00000 -0.37500
vt -10.00000 -0.37500
vt -10.00000 0.00000
vt -9.00000 0.00000
vt -9.00000 -0.37500
vt -4.00000 -0.56250
vt -5.00000 -0.37500
vt -4.00000 -0.37500
vt -4.00000 -0.56250
vt -5.00000 -0.56250
vt -5.00000 -0.37500
vt -10.00000 -0.37500
vt -9.00000 -0.87500
vt -10.00000 -0.87500
vt -10.00000 -0.37500
vt -9.00000 -0.37500
vt -9.00000 -0.87500
vn -0.6343 0.7608 -0.1376
vn -0.5101 0.8042 -0.3051
vn 0.5447 0.7742 -0.3223
vn -0.6343 0.7608 -0.1376
vn 0.5907 0.7986 -0.1158
vn -0.5101 0.8042 -0.3051
vn -0.0238 0.9977 -0.0637
vn 0.5745 0.6820 0.4525
vn 0.2234 0.6668 0.7109
vn -0.0238 0.9977 -0.0637
vn 0.0238 0.8906 0.4542
vn 0.5745 0.6820 0.4525
vn -0.5670 0.7928 -0.2234
vn 0.0000 1.0000 0.0000
vn 0.0000 1.0000 0.0000
vn -0.5670 0.7928 -0.2234
vn -0.3040 0.9527 0.0000
vn 0.0000 1.0000 0.0000
g sea_cliff_edge_s_1
usemtl sea_gake02
f 13/13/13 14/14/14 15/15/15
f 16/16/16 17/17/17 18/18/18
f 19/19/19 20/20/20 21/21/21
f 22/22/22 23/23/23 24/24/24
f 25/25/25 26/26/26 27/27/27
f 28/28/28 29/29/29 30/30/30
