# tall_mountain_s
# generated by tools/assets/build-tiles.js — do not edit
mtllib tall_mountain_s.mtl
o tall_mountain_s
v 0.00000 4.75000 0.50000
v 1.00000 1.00000 0.50000
v 1.00000 4.75000 0.50000
v 0.00000 4.75000 0.50000
v 0.00000 1.00000 0.50000
v 1.00000 1.00000 0.50000
vt -3.00000 0.00000
vt -4.00000 -1.00000
vt -4.00000 0.00000
vt -3.00000 0.00000
vt -3.00000 -1.00000
vt -4.00000 -1.00000
vn 0.0000 0.2773 0.9608
vn 0.0000 0.1894 0.9819
vn 0.2773 0.0000 0.9608
vn 0.0000 0.2773 0.9608
vn 0.1894 0.0000 0.9819
vn 0.0000 0.1894 0.9819
g tall_mountain_s_0
usemtl yamagake01
f 1/1/1 2/2/2 3/3/3
f 4/4/4 5/5/5 6/6/6
v 0.00000 5.00000 0.00000
v 1.00000 4.75000 0.50000
v 1.00000 5.00000 0.00000
v 0.00000 5.00000 0.00000
v 0.00000 4.75000 0.50000
v 1.00000 4.75000 0.50000
vt -3.00000 0.00000
vt -4.00000 -1.00000
vt -4.00000 0.00000
vt -3.00000 0.00000
vt -3.00000 -1.00000
vt -4.00000 -1.00000
vn 0.0000 1.0000 0.0000
vn 0.0000 0.2773 0.9608
vn 0.4472 0.8000 0.4000
vn 0.0000 1.0000 0.0000
vn -0.7353 0.6062 0.3030
vn 0.0000 0.2773 0.9608
g tall_mountain_s_1
usemtl gake1_3
f 7/7/7 8/8/8 9/9/9
f 10/10/10 11/11/11 12/12/12
v 0.00000 1.00000 0.50000
v 1.00000 0.00000 1.00000
v 1.00000 1.00000 0.50000
v 0.00000 1.00000 0.50000
v 0.00000 0.00000 1.00000
v 1.00000 0.00000 1.00000
vt -3.00000 0.00000
vt -4.00000 -1.00000
vt -4.00000 0.00000
vt -3.00000 0.00000
vt -3.00000 -1.00000
vt -4.00000 -1.00000
vn 0.0000 0.1893 0.9819
vn 0.0000 0.4472 0.8944
vn -0.2698 0.4306 0.8613
vn 0.0000 0.1893 0.9819
vn 0.0000 0.4472 0.8944
vn 0.0000 0.4472 0.8944
g tall_mountain_s_2
usemtl gake01a
f 13/13/13 14/14/14 15/15/15
f 16/16/16 17/17/17 18/18/18
