# tall_mountain_rock_v3
# generated by tools/assets/build-tiles.js — do not edit
mtllib tall_mountain_rock_v3.mtl
o tall_mountain_rock_v3
v 0.50000 3.75000 0.31250
v 0.00000 2.50000 -0.18750
v 0.00000 3.75000 -0.18750
v 0.50000 3.75000 0.31250
v 0.50000 2.50000 0.31250
v 0.00000 2.50000 -0.18750
v 0.00000 3.75000 -0.18750
v -0.50000 2.50000 0.31250
v -0.50000 3.75000 0.31250
v 0.00000 3.75000 -0.18750
v 0.00000 2.50000 -0.18750
v -0.50000 2.50000 0.31250
v -0.50000 2.50000 0.31250
v 0.00000 2.50000 -0.18750
v 0.00000 1.50000 0.31250
v 0.00000 1.50000 0.31250
v 0.00000 2.50000 -0.18750
v 0.50000 2.50000 0.31250
vt 0.00000 0.00000
vt -0.50000 -0.50000
vt -0.50000 0.00000
vt 0.00000 0.00000
vt 0.00000 -0.50000
vt -0.50000 -0.50000
vt -0.50000 0.00000
vt -1.00000 -0.50000
vt -1.00000 0.00000
vt -0.50000 0.00000
vt -0.50000 -0.50000
vt -1.00000 -0.50000
vt -1.00000 -0.50000
vt -0.50000 -0.50000
vt -0.50000 -0.84375
vt -0.50000 -0.84375
vt -0.50000 -0.50000
vt 0.00000 -0.50000
vn 0.0000 0.2773 -0.9608
vn 0.0001 -0.2352 -0.9720
vn 0.0000 0.5347 -0.8450
vn 0.0000 0.2773 -0.9608
vn 0.0000 0.1894 -0.9819
vn 0.0001 -0.2352 -0.9720
vn 0.0000 0.5347 -0.8450
vn 0.0000 0.1894 -0.9819
vn 0.0000 0.2773 -0.9608
vn 0.0000 0.5347 -0.8450
vn 0.0001 -0.2352 -0.9720
vn 0.0000 0.1894 -0.9819
vn 0.0000 0.1894 -0.9819
vn 0.0000 -0.2305 -0.9731
vn 0.0000 0.0000 -1.0000
vn 0.0000 0.0000 -1.0000
vn 0.0000 -0.2305 -0.9731
vn 0.0000 0.1894 -0.9819
g tall_mountain_rock_v3_0
usemtl yamagake01
f 1/1/1 2/2/2 3/3/3
f 4/4/4 5/5/5 6/6/6
f 7/7/7 8/8/8 9/9/9
f 10/10/10 11/11/11 12/12/12
f 13/13/13 14/14/14 15/15/15
f 16/16/16 17/17/17 18/18/18
v 0.50000 3.75000 0.31250
v 0.00000 3.75000 -0.18750
v 0.00000 4.00000 0.31250
v 0.00000 4.00000 0.31250
v 0.00000 3.75000 -0.18750
v -0.50000 3.75000 0.31250
vt -2.00000 -1.00000
vt -2.50000 -1.00000
vt -2.50000 0.00000
vt -2.50000 0.00000
vt -2.50000 -1.00000
vt -3.00000 -1.00000
vn 0.0000 0.2773 -0.9608
vn 0.0000 0.5251 -0.8510
vn 0.0000 1.0000 0.0000
vn 0.0000 1.0000 0.0000
vn 0.0000 0.5251 -0.8510
vn 0.0000 0.2773 -0.9608
g tall_mountain_rock_v3_1
usemtl gake1_1
f 19/19/19 20/20/20 21/21/21
f 22/22/22 23/23/23 24/24/24
