# tall_mountain_center_v5
# generated by tools/assets/build-tiles.js — do not edit
mtllib tall_mountain_center_v5.mtl
o tall_mountain_center_v5
v 1.00000 4.75000 0.50000
v 0.00000 1.00000 0.50000
v 0.00000 4.75000 0.50000
v 1.00000 4.75000 0.50000
v 1.00000 1.00000 0.50000
v 0.00000 1.00000 0.50000
v 0.50000 4.75000 1.00000
v 0.50000 1.00000 0.00000
v 0.50000 4.75000 0.00000
v 0.50000 4.75000 1.00000
v 0.50000 1.00000 1.00000
v 0.50000 1.00000 0.00000
vt 0.00000 0.00000
vt -1.00000 -1.00000
vt -1.00000 0.00000
vt 0.00000 0.00000
vt 0.00000 -1.00000
vt -1.00000 -1.00000
vt 0.00000 0.00000
vt -1.00000 -1.00000
vt -1.00000 0.00000
vt 0.00000 0.00000
vt 0.00000 -1.00000
vt -1.00000 -1.00000
vn 0.0000 0.2773 -0.9608
vn 0.0000 0.1894 -0.9819
vn 0.0000 0.2773 -0.9608
vn 0.0000 0.2773 -0.9608
vn 0.0000 0.1894 -0.9819
vn 0.0000 0.1894 -0.9819
vn 0.9608 0.2773 0.0000
vn 0.9819 0.1894 0.0000
vn 0.9608 0.0000 -0.2773
vn 0.9608 0.2773 0.0000
vn 0.9819 0.1894 0.0000
vn 0.9819 0.1894 0.0000
g tall_mountain_center_v5_0
usemtl yamagake01
f 1/1/1 2/2/2 3/3/3
f 4/4/4 5/5/5 6/6/6
f 7/7/7 8/8/8 9/9/9
f 10/10/10 11/11/11 12/12/12
v 0.00000 5.00000 1.00000
v 0.50000 4.75000 0.00000
v 0.00000 5.00000 0.00000
v 0.00000 5.00000 1.00000
v 0.50000 4.75000 1.00000
v 0.50000 4.75000 0.00000
v 1.00000 5.00000 1.00000
v 0.00000 4.75000 0.50000
v 0.00000 5.00000 1.00000
v 1.00000 5.00000 1.00000
v 1.00000 4.75000 0.50000
v 0.00000 4.75000 0.50000
vt 0.00000 0.00000
vt -1.00000 -1.00000
vt -1.00000 0.00000
vt 0.00000 0.00000
vt 0.00000 -1.00000
vt -1.00000 -1.00000
vt 0.00000 0.00000
vt -1.00000 -1.00000
vt -1.00000 0.00000
vt 0.00000 0.00000
vt 0.00000 -1.00000
vt -1.00000 -1.00000
vn 0.0000 1.0000 0.0000
vn 0.9608 0.2773 0.0000
vn 0.4000 0.8000 -0.4472
vn 0.0000 1.0000 0.0000
vn 0.9608 0.2773 0.0000
vn 0.9608 0.2773 0.0000
vn 0.0000 1.0000 0.0000
vn 0.0000 0.2773 -0.9608
vn 0.0000 1.0000 0.0000
vn 0.0000 1.0000 0.0000
vn 0.0000 0.2773 -0.9608
vn 0.0000 0.2773 -0.9608
g tall_mountain_center_v5_1
usemtl gake1_3
f 13/13/13 14/14/14 15/15/15
f 16/16/16 17/17/17 18/18/18
f 19/19/19 20/20/20 21/21/21
f 22/22/22 23/23/23 24/24/24
v 0.50000 1.00000 1.00000
v 1.00000 0.00000 0.00000
v 0.50000 1.00000 0.00000
v 0.50000 1.00000 1.00000
v 1.00000 0.00000 1.00000
v 1.00000 0.00000 0.00000
v 1.00000 1.00000 0.50000
v 0.00000 0.00000 0.00000
v 0.00000 1.00000 0.50000
v 1.00000 1.00000 0.50000
v 1.00000 0.00000 0.00000
v 0.00000 0.00000 0.00000
vt 0.00000 0.00000
vt -1.00000 -1.00000
vt -1.00000 0.00000
vt 0.00000 0.00000
vt 0.00000 -1.00000
vt -1.00000 -1.00000
vt 0.00000 0.00000
vt -1.00000 -1.00000
vt -1.00000 0.00000
vt 0.00000 0.00000
vt 0.00000 -1.00000
vt -1.00000 -1.00000
vn 0.9819 0.1893 0.0000
vn 0.8944 0.4472 0.0000
vn 0.8613 0.4306 0.2698
vn 0.9819 0.1893 0.0000
vn 0.8944 0.4472 0.0000
vn 0.8944 0.4472 0.0000
vn 0.0000 0.1893 -0.9819
vn 0.0000 0.4472 -0.8944
vn 0.0000 0.1893 -0.9819
vn 0.0000 0.1893 -0.9819
vn 0.0000 0.4472 -0.8944
vn 0.0000 0.4472 -0.8944
g tall_mountain_center_v5_2
usemtl gake01a
f 25/25/25 26/26/26 27/27/27
f 28/28/28 29/29/29 30/30/30
f 31/31/31 32/32/32 33/33/33
f 34/34/34 35/35/35 36/36/36
