# ground_corner_corner_sw
# generated by tools/assets/build-tiles.js — do not edit
mtllib ground_corner_corner_sw.mtl
o ground_corner_corner_sw
v 1.00000 -0.00000 0.00000
v 0.00000 -0.00000 1.00000
v 1.00000 -0.00000 1.00000
v 0.00000 -0.00000 1.00000
v 1.00000 -0.00000 0.00000
v 0.00000 -0.00000 0.00000
vt 0.97656 0.02344
vt 0.01953 0.97656
vt 0.97656 0.97656
vt 0.01953 0.97656
vt 0.97656 0.02344
vt 0.01953 0.02344
vn 0.0000 1.0000 0.0000
vn 0.0000 1.0000 0.0000
vn 0.0000 1.0000 0.0000
vn 0.0000 1.0000 0.0000
vn 0.0000 1.0000 0.0000
vn 0.0000 1.0000 0.0000
g ground_corner_corner_sw_0
usemtl d7bedrock3
f 1/1/1 2/2/2 3/3/3
f 4/4/4 5/5/5 6/6/6
