# jump_down_s
# generated by tools/assets/build-tiles.js — do not edit
mtllib jump_down_s.mtl
o jump_down_s
v 0.00000 0.03125 0.00000
v 1.00000 0.03125 1.00000
v 1.00000 0.03125 0.00000
v 0.00000 0.03125 0.00000
v 0.00000 0.03125 1.00000
v 1.00000 0.03125 1.00000
vt 0.01563 -0.99219
vt 0.50000 -0.50781
vt 0.50000 -0.99219
vt 0.01563 -0.99219
vt 0.01563 -0.50781
vt 0.50000 -0.50781
vn 0.0000 1.0000 0.0000
vn 0.0000 1.0000 0.0000
vn 0.0000 1.0000 0.0000
vn 0.0000 1.0000 0.0000
vn 0.0000 1.0000 0.0000
vn 0.0000 1.0000 0.0000
g jump_down_s_0
usemtl allpeak
f 1/1/1 2/2/2 3/3/3
f 4/4/4 5/5/5 6/6/6
