# ecave_stairs_s
# generated by tools/assets/build-tiles.js — do not edit
mtllib ecave_stairs_s.mtl
o ecave_stairs_s
v 0.33301 -1.00000 1.00293
v 2.50000 0.00000 0.00000
v 0.50000 0.00000 0.00000
v 0.33301 -1.00000 1.00293
v 2.66699 -1.00000 1.00293
v 2.50000 0.00000 0.00000
v 0.00000 -3.00000 3.00000
v 2.66699 -1.00000 1.00293
v 0.33301 -1.00000 1.00293
v 0.00000 -3.00000 3.00000
v 3.00000 -3.00000 3.00000
v 2.66699 -1.00000 1.00293
vt 0.97852 -0.66406
vt 0.00586 -0.00586
vt 0.97852 -0.00586
vt 0.97852 -0.66406
vt 0.00586 -0.66406
vt 0.00586 -0.00586
vt 0.97852 -1.97461
vt 0.00586 -0.66406
vt 0.97852 -0.66406
vt 0.97852 -1.97461
vt 0.00586 -1.97461
vt 0.00586 -0.66406
vn 0.0000 0.7073 0.7069
vn 0.0000 0.7081 0.7061
vn 0.0000 0.7081 0.7061
vn 0.0000 0.7073 0.7069
vn 0.0000 0.7073 0.7069
vn 0.0000 0.7081 0.7061
vn 0.0000 0.7066 0.7076
vn 0.0000 0.7073 0.7069
vn 0.0000 0.7073 0.7069
vn 0.0000 0.7066 0.7076
vn 0.0000 0.7066 0.7076
vn 0.0000 0.7073 0.7069
g ecave_stairs_s_0
usemtl d6_udan2
f 1/1/1 2/2/2 3/3/3
f 4/4/4 5/5/5 6/6/6
f 7/7/7 8/8/8 9/9/9
f 10/10/10 11/11/11 12/12/12
v 0.99902 -1.00000 2.83399
v 3.00000 -3.00000 3.00000
v 0.00000 -3.00000 3.00000
v 0.99902 -1.00000 2.83399
v 2.00098 -1.00000 2.83398
v 3.00000 -3.00000 3.00000
v 2.48730 0.25000 1.50000
v 2.48730 0.25000 0.75000
v 2.29004 0.25000 0.75000
v 2.48730 0.25000 1.50000
v 2.68555 0.25000 1.50000
v 2.48730 0.25000 0.75000
v 2.29004 0.25000 0.75000
v 3.00000 0.00000 0.00000
v 2.50000 0.00000 0.00000
v 2.29004 0.25000 0.75000
v 2.48730 0.25000 0.75000
v 3.00000 0.00000 0.00000
v 0.51270 0.25000 1.50000
v 0.51270 0.25000 2.48730
v 0.70996 0.25000 2.29004
v 0.51270 0.25000 1.50000
v 0.31445 0.25000 1.50000
v 0.51270 0.25000 2.48730
v 2.29004 0.25000 2.29004
v 2.68555 0.25000 1.50000
v 2.48730 0.25000 1.50000
v 2.29004 0.25000 2.29004
v 2.48730 0.25000 2.48730
v 2.68555 0.25000 1.50000
v 0.70996 0.25000 2.29004
v 1.50000 0.25000 2.68555
v 1.50000 0.25000 2.48730
v 0.70996 0.25000 2.29004
v 0.51270 0.25000 2.48730
v 1.50000 0.25000 2.68555
v 0.50000 0.00000 2.50000
v 0.16602 -1.00000 2.00098
v 0.25000 0.00000 1.50000
v 0.50000 0.00000 2.50000
v 0.33301 -1.00000 2.66699
v 0.16602 -1.00000 2.00098
v 0.50000 0.00000 0.00000
v 0.51270 0.25000 0.75000
v 0.70996 0.25000 0.75000
v 0.50000 0.00000 0.00000
v 0.00000 0.00000 0.00000
v 0.51270 0.25000 0.75000
v 0.50000 0.00000 2.50000
v 1.50000 0.25000 2.48730
v 1.50000 0.00000 2.75000
v 0.50000 0.00000 2.50000
v 0.70996 0.25000 2.29004
v 1.50000 0.25000 2.48730
v 2.50000 0.00000 2.50000
v 2.48730 0.25000 1.50000
v 2.75000 0.00000 1.50000
v 2.50000 0.00000 2.50000
v 2.29004 0.25000 2.29004
v 2.48730 0.25000 1.50000
v 0.25000 0.00000 1.50000
v 0.70996 0.25000 2.29004
v 0.50000 0.00000 2.50000
v 0.25000 0.00000 1.50000
v 0.51270 0.25000 1.50000
v 0.70996 0.25000 2.29004
v 1.50000 0.25000 2.48730
v 2.48730 0.25000 2.48730
v 2.29004 0.25000 2.29004
v 1.50000 0.25000 2.48730
v 1.50000 0.25000 2.68555
v 2.48730 0.25000 2.48730
v 2.00098 -1.00000 2.83398
v 2.50000 0.00000 2.50000
v 2.66699 -1.00000 2.66699
v 2.00098 -1.00000 2.83398
v 1.50000 0.00000 2.75000
v 2.50000 0.00000 2.50000
v 2.66699 -1.00000 2.66699
v 2.75000 0.00000 1.50000
v 2.83398 -1.00000 2.00098
v 2.66699 -1.00000 2.66699
v 2.50000 0.00000 2.50000
v 2.75000 0.00000 1.50000
v 1.50000 0.00000 2.75000
v 0.33301 -1.00000 2.66699
v 0.50000 0.00000 2.50000
v 1.50000 0.00000 2.75000
v 0.99902 -1.00000 2.83399
v 0.33301 -1.00000 2.66699
v 1.50000 0.00000 2.75000
v 2.29004 0.25000 2.29004
v 2.50000 0.00000 2.50000
v 1.50000 0.00000 2.75000
v 1.50000 0.25000 2.48730
v 2.29004 0.25000 2.29004
v 0.70996 0.25000 0.75000
v 0.31445 0.25000 1.50000
v 0.51270 0.25000 1.50000
v 0.70996 0.25000 0.75000
v 0.51270 0.25000 0.75000
v 0.31445 0.25000 1.50000
v 0.70996 0.25000 0.75000
v 0.51270 0.25000 1.50000
v 0.50000 0.00000 0.00000
v 0.50000 0.00000 0.00000
v 0.51270 0.25000 1.50000
v 0.25000 0.00000 1.50000
v 2.48730 0.25000 1.50000
v 2.29004 0.25000 0.75000
v 2.75000 0.00000 1.50000
v 2.75000 0.00000 1.50000
v 2.29004 0.25000 0.75000
v 2.50000 0.00000 0.00000
v 0.16602 -1.00000 2.00098
v 0.33301 -1.00000 1.00293
v 0.25000 0.00000 1.50000
v 0.25000 0.00000 1.50000
v 0.33301 -1.00000 1.00293
v 0.50000 0.00000 0.00000
v 2.75000 0.00000 1.50000
v 2.50000 0.00000 0.00000
v 2.83398 -1.00000 2.00098
v 2.83398 -1.00000 2.00098
v 2.50000 0.00000 0.00000
v 2.66699 -1.00000 1.00293
v 0.51270 0.25000 2.48730
v 1.50000 0.00000 3.00000
v 1.50000 0.25000 2.68555
v 1.50000 0.25000 2.68555
v 1.50000 0.00000 3.00000
v 2.48730 0.25000 2.48730
v 1.50000 0.00000 3.00000
v 3.00000 0.00000 3.00000
v 2.48730 0.25000 2.48730
v 2.48730 0.25000 2.48730
v 3.00000 0.00000 3.00000
v 3.00000 0.00000 1.50000
v 0.00000 0.00000 0.00000
v 0.00000 0.00000 1.50000
v 0.51270 0.25000 0.75000
v 0.51270 0.25000 0.75000
v 0.00000 0.00000 1.50000
v 0.31445 0.25000 1.50000
v 0.00000 0.00000 1.50000
v 0.51270 0.25000 2.48730
v 0.31445 0.25000 1.50000
v 2.48730 0.25000 2.48730
v 3.00000 0.00000 1.50000
v 2.68555 0.25000 1.50000
v 2.68555 0.25000 1.50000
v 3.00000 0.00000 1.50000
v 2.48730 0.25000 0.75000
v 3.00000 0.00000 1.50000
v 3.00000 0.00000 0.00000
v 2.48730 0.25000 0.75000
v 0.33301 -1.00000 1.00293
v 0.16602 -1.00000 2.00098
v 0.00000 -3.00000 3.00000
v 0.00000 -3.00000 3.00000
v 0.16602 -1.00000 2.00098
v 0.33301 -1.00000 2.66699
v 2.66699 -1.00000 1.00293
v 3.00000 -3.00000 3.00000
v 2.83398 -1.00000 2.00098
v 2.83398 -1.00000 2.00098
v 3.00000 -3.00000 3.00000
v 2.66699 -1.00000 2.66699
v 0.00000 0.00000 1.50000
v 0.00000 0.00000 3.00000
v 0.51270 0.25000 2.48730
v 0.51270 0.25000 2.48730
v 0.00000 0.00000 3.00000
v 1.50000 0.00000 3.00000
v 0.99902 -1.00000 2.83399
v 1.50000 0.00000 2.75000
v 2.00098 -1.00000 2.83398
v 2.66699 -1.00000 2.66699
v 3.00000 -3.00000 3.00000
v 2.00098 -1.00000 2.83398
v 0.00000 -3.00000 3.00000
v 0.33301 -1.00000 2.66699
v 0.99902 -1.00000 2.83399
vt 0.54004 -0.95801
vt 0.35059 -0.97949
vt 0.60840 -0.97949
vt 0.54004 -0.95801
vt 0.45410 -0.95801
vt 0.35059 -0.97949
vt 0.18066 -0.49902
vt 0.18066 -0.25684
vt 0.24512 -0.25684
vt 0.18066 -0.49902
vt 0.11719 -0.49902
vt 0.18066 -0.25684
vt 0.24512 -0.25684
vt 0.01563 -0.01465
vt 0.17676 -0.01465
vt 0.24512 -0.25684
vt 0.18066 -0.25684
vt 0.01563 -0.01465
vt 0.81934 -0.49902
vt 0.81934 -0.81836
vt 0.75488 -0.75391
vt 0.81934 -0.49902
vt 0.88281 -0.49902
vt 0.81934 -0.81836
vt 0.24512 -0.75391
vt 0.11719 -0.49902
vt 0.18066 -0.49902
vt 0.24512 -0.75391
vt 0.18066 -0.81836
vt 0.11719 -0.49902
vt 0.75488 -0.75391
vt 0.50000 -0.88184
vt 0.50000 -0.81836
vt 0.75488 -0.75391
vt 0.81934 -0.81836
vt 0.50000 -0.88184
vt 0.60840 -0.91504
vt 0.62598 -0.85156
vt 0.63379 -0.78711
vt 0.60840 -0.91504
vt 0.60840 -0.93652
vt 0.62598 -0.85156
vt 0.82324 -0.01465
vt 0.81934 -0.25684
vt 0.75488 -0.25684
vt 0.82324 -0.01465
vt 0.98438 -0.01465
vt 0.81934 -0.25684
vt 0.82324 -0.82227
vt 0.50000 -0.81836
vt 0.50000 -0.90234
vt 0.82324 -0.82227
vt 0.75488 -0.75391
vt 0.50000 -0.81836
vt 0.17676 -0.82227
vt 0.18066 -0.49902
vt 0.09668 -0.49902
vt 0.17676 -0.82227
vt 0.24512 -0.75391
vt 0.18066 -0.49902
vt 0.90332 -0.49902
vt 0.75488 -0.75391
vt 0.82324 -0.82227
vt 0.90332 -0.49902
vt 0.81934 -0.49902
vt 0.75488 -0.75391
vt 0.50000 -0.81836
vt 0.18066 -0.81836
vt 0.24512 -0.75391
vt 0.50000 -0.81836
vt 0.50000 -0.88184
vt 0.18066 -0.81836
vt 0.45410 -0.95801
vt 0.40234 -0.91504
vt 0.38477 -0.93652
vt 0.45410 -0.95801
vt 0.50488 -0.94727
vt 0.40234 -0.91504
vt 0.11133 -0.33301
vt 0.50000 0.00000
vt 0.33301 -0.33301
vt 0.11133 -0.33301
vt 0.16699 0.00000
vt 0.50000 0.00000
vt 0.50488 -0.94727
vt 0.60840 -0.93652
vt 0.60840 -0.91504
vt 0.50488 -0.94727
vt 0.54004 -0.95801
vt 0.60840 -0.93652
vt 0.50000 -0.90234
vt 0.24512 -0.75391
vt 0.17676 -0.82227
vt 0.50000 -0.90234
vt 0.50000 -0.81836
vt 0.24512 -0.75391
vt 0.75488 -0.25684
vt 0.88281 -0.49902
vt 0.81934 -0.49902
vt 0.75488 -0.25684
vt 0.81934 -0.25684
vt 0.88281 -0.49902
vt 0.75488 -0.25684
vt 0.81934 -0.49902
vt 0.82324 -0.01465
vt 0.82324 -0.01465
vt 0.81934 -0.49902
vt 0.90332 -0.49902
vt 0.18066 -0.49902
vt 0.24512 -0.25684
vt 0.09668 -0.49902
vt 0.09668 -0.49902
vt 0.24512 -0.25684
vt 0.17676 -0.01465
vt 0.62598 -0.85156
vt 0.60840 -0.72363
vt 0.63379 -0.78711
vt 0.63379 -0.78711
vt 0.60840 -0.72363
vt 0.60840 -0.59473
vt 0.50000 0.00000
vt 0.87500 -0.06250
vt 0.33301 -0.33301
vt 0.33301 -0.33301
vt 0.87500 -0.06250
vt 0.66602 -0.33301
vt 0.81934 -0.81836
vt 0.50000 -0.98340
vt 0.50000 -0.88184
vt 0.50000 -0.88184
vt 0.50000 -0.98340
vt 0.18066 -0.81836
vt 0.50000 -0.98340
vt 0.01563 -0.98340
vt 0.18066 -0.81836
vt 0.18066 -0.81836
vt 0.01563 -0.98340
vt 0.01563 -0.49902
vt 0.98438 -0.01465
vt 0.98438 -0.49902
vt 0.81934 -0.25684
vt 0.81934 -0.25684
vt 0.98438 -0.49902
vt 0.88281 -0.49902
vt 0.98438 -0.49902
vt 0.81934 -0.81836
vt 0.88281 -0.49902
vt 0.18066 -0.81836
vt 0.01563 -0.49902
vt 0.11719 -0.49902
vt 0.11719 -0.49902
vt 0.01563 -0.49902
vt 0.18066 -0.25684
vt 0.01563 -0.49902
vt 0.01563 -0.01465
vt 0.18066 -0.25684
vt 0.60840 -0.72363
vt 0.62598 -0.85156
vt 0.60840 -0.97949
vt 0.60840 -0.97949
vt 0.62598 -0.85156
vt 0.60840 -0.93652
vt 0.66602 -0.33301
vt 0.00000 -1.00000
vt 0.33301 -0.33301
vt 0.33301 -0.33301
vt 0.00000 -1.00000
vt 0.11133 -0.33301
vt 0.98438 -0.49902
vt 0.98438 -0.98340
vt 0.81934 -0.81836
vt 0.81934 -0.81836
vt 0.98438 -0.98340
vt 0.50000 -0.98340
vt 0.54004 -0.95801
vt 0.50488 -0.94727
vt 0.45410 -0.95801
vt 0.38477 -0.93652
vt 0.35059 -0.97949
vt 0.45410 -0.95801
vt 0.60840 -0.97949
vt 0.60840 -0.93652
vt 0.54004 -0.95801
vn 0.0000 -0.0827 -0.9966
vn 0.0000 -0.0827 -0.9966
vn 0.0000 -0.0827 -0.9966
vn 0.0000 -0.0827 -0.9966
vn 0.0000 -0.0827 -0.9966
vn 0.0000 -0.0827 -0.9966
vn 0.0000 1.0000 0.0000
vn 0.0000 0.9849 -0.1729
vn 0.0000 0.9871 -0.1600
vn 0.0000 1.0000 0.0000
vn 0.0000 1.0000 0.0000
vn 0.0000 0.9849 -0.1729
vn 0.0000 0.9871 -0.1600
vn 0.0000 0.9487 -0.3162
vn 0.0000 0.9487 -0.3162
vn 0.0000 0.9871 -0.1600
vn 0.0000 0.9849 -0.1729
vn 0.0000 0.9487 -0.3162
vn 0.0000 1.0000 0.0000
vn 0.0000 1.0000 0.0000
vn 0.0000 1.0000 0.0000
vn 0.0000 1.0000 0.0000
vn 0.0000 1.0000 0.0000
vn 0.0000 1.0000 0.0000
vn 0.0000 1.0000 0.0000
vn 0.0000 1.0000 0.0000
vn 0.0000 1.0000 0.0000
vn 0.0000 1.0000 0.0000
vn 0.0000 1.0000 0.0000
vn 0.0000 1.0000 0.0000
vn 0.0000 1.0000 0.0000
vn 0.0000 1.0000 0.0000
vn 0.0000 1.0000 0.0000
vn 0.0000 1.0000 0.0000
vn 0.0000 1.0000 0.0000
vn 0.0000 1.0000 0.0000
vn 0.6881 -0.2301 -0.6881
vn 0.9866 -0.1313 -0.0971
vn 0.9971 -0.0731 0.0206
vn 0.6881 -0.2301 -0.6881
vn 0.6881 -0.2301 -0.6881
vn 0.9866 -0.1313 -0.0971
vn 0.0000 0.9487 -0.3162
vn 0.0000 0.9849 -0.1729
vn 0.0000 0.9871 -0.1600
vn 0.0000 0.9487 -0.3162
vn 0.0000 0.9487 -0.3162
vn 0.0000 0.9849 -0.1729
vn 0.4553 -0.7651 -0.4553
vn 0.0000 -0.7242 -0.6896
vn 0.0000 -0.7242 -0.6896
vn 0.4553 -0.7651 -0.4553
vn 0.4553 -0.7651 -0.4553
vn 0.0000 -0.7242 -0.6896
vn -0.4553 -0.7651 -0.4553
vn -0.6895 -0.7243 0.0048
vn -0.6750 -0.7378 -0.0051
vn -0.4553 -0.7651 -0.4553
vn -0.4553 -0.7651 -0.4553
vn -0.6895 -0.7243 0.0048
vn 0.6893 -0.7241 -0.0252
vn 0.4553 -0.7651 -0.4553
vn 0.4553 -0.7651 -0.4553
vn 0.6893 -0.7241 -0.0252
vn 0.6757 -0.7368 -0.0255
vn 0.4553 -0.7651 -0.4553
vn 0.0000 1.0000 0.0000
vn 0.0000 1.0000 0.0000
vn 0.0000 1.0000 0.0000
vn 0.0000 1.0000 0.0000
vn 0.0000 1.0000 0.0000
vn 0.0000 1.0000 0.0000
vn -0.2380 -0.1988 -0.9507
vn -0.2380 -0.1988 -0.9507
vn -0.2380 -0.1988 -0.9507
vn -0.2380 -0.1988 -0.9507
vn -0.2380 -0.1988 -0.9507
vn -0.2380 -0.1988 -0.9507
vn -0.9507 -0.1988 -0.2380
vn -0.9971 -0.0734 0.0205
vn -0.9866 -0.1312 -0.0973
vn -0.9507 -0.1988 -0.2380
vn -0.9507 -0.1988 -0.2380
vn -0.9971 -0.0734 0.0205
vn 0.2380 -0.1988 -0.9507
vn 0.6881 -0.2301 -0.6881
vn 0.6881 -0.2301 -0.6881
vn 0.2380 -0.1988 -0.9507
vn 0.2380 -0.1988 -0.9507
vn 0.6881 -0.2301 -0.6881
vn 0.0000 -0.7242 -0.6896
vn -0.4553 -0.7651 -0.4553
vn -0.4553 -0.7651 -0.4553
vn 0.0000 -0.7242 -0.6896
vn 0.0000 -0.7242 -0.6896
vn -0.4553 -0.7651 -0.4553
vn 0.0000 0.9871 -0.1600
vn 0.0000 1.0000 0.0000
vn 0.0000 1.0000 0.0000
vn 0.0000 0.9871 -0.1600
vn 0.0000 0.9849 -0.1729
vn 0.0000 1.0000 0.0000
vn 0.5183 -0.8443 0.1363
vn 0.6757 -0.7368 -0.0255
vn 0.5961 -0.7928 0.1271
vn 0.5961 -0.7928 0.1271
vn 0.6757 -0.7368 -0.0255
vn 0.6893 -0.7241 -0.0252
vn -0.6895 -0.7243 0.0048
vn -0.6091 -0.7852 0.1118
vn -0.6750 -0.7378 -0.0051
vn -0.6750 -0.7378 -0.0051
vn -0.6091 -0.7852 0.1118
vn -0.5952 -0.7974 0.0992
vn 0.9866 -0.1313 -0.0971
vn 0.9863 0.0000 0.1647
vn 0.9971 -0.0731 0.0206
vn 0.9971 -0.0731 0.0206
vn 0.9863 0.0000 0.1647
vn 0.9864 0.0002 0.1644
vn -0.9971 -0.0734 0.0205
vn -0.9864 0.0000 0.1647
vn -0.9866 -0.1312 -0.0973
vn -0.9866 -0.1312 -0.0973
vn -0.9864 0.0000 0.1647
vn -0.9863 0.0008 0.1650
vn -0.1240 0.7767 0.6175
vn 0.0000 0.8090 0.5879
vn 0.0000 0.7828 0.6223
vn 0.0000 0.7828 0.6223
vn 0.0000 0.8090 0.5879
vn 0.2222 0.9370 0.2695
vn 0.0000 0.8090 0.5879
vn 0.2305 0.9454 0.2305
vn 0.2222 0.9370 0.2695
vn 0.2222 0.9370 0.2695
vn 0.2305 0.9454 0.2305
vn 0.4383 0.8988 0.0000
vn -0.4383 0.8988 0.0000
vn -0.5793 0.8150 -0.0080
vn -0.4743 0.8798 -0.0310
vn -0.4743 0.8798 -0.0310
vn -0.5793 0.8150 -0.0080
vn -0.6222 0.7826 -0.0213
vn -0.5793 0.8150 -0.0080
vn -0.6175 0.7767 0.1240
vn -0.6222 0.7826 -0.0213
vn 0.6175 0.7767 0.1240
vn 0.5793 0.8150 -0.0080
vn 0.6222 0.7826 -0.0213
vn 0.6222 0.7826 -0.0213
vn 0.5793 0.8150 -0.0080
vn 0.4743 0.8798 -0.0310
vn 0.5793 0.8150 -0.0080
vn 0.4383 0.8988 0.0000
vn 0.4743 0.8798 -0.0310
vn 0.9863 0.0006 0.1650
vn 0.9972 -0.0725 0.0206
vn 0.9945 -0.0991 -0.0331
vn 0.9945 -0.0991 -0.0331
vn 0.9972 -0.0725 0.0206
vn 0.9508 -0.1980 -0.2384
vn -0.9863 0.0006 0.1650
vn -0.9945 -0.0991 -0.0331
vn -0.9972 -0.0725 0.0206
vn -0.9972 -0.0725 0.0206
vn -0.9945 -0.0991 -0.0331
vn -0.9508 -0.1980 -0.2384
vn -0.4383 0.8988 0.0000
vn -0.2305 0.9454 0.2305
vn -0.2305 0.9454 0.2305
vn -0.2305 0.9454 0.2305
vn -0.2305 0.9454 0.2305
vn 0.0000 0.8988 0.4383
vn 0.0000 -0.0837 -0.9965
vn 0.0000 -0.0837 -0.9965
vn 0.0000 -0.0837 -0.9965
vn -0.2384 -0.1980 -0.9508
vn -0.2384 -0.1980 -0.9508
vn -0.2384 -0.1980 -0.9508
vn 0.2384 -0.1980 -0.9508
vn 0.2384 -0.1980 -0.9508
vn 0.2384 -0.1980 -0.9508
g ecave_stairs_s_1
usemtl d6_udan1
f 13/13/13 14/14/14 15/15/15
f 16/16/16 17/17/17 18/18/18
f 19/19/19 20/20/20 21/21/21
f 22/22/22 23/23/23 24/24/24
f 25/25/25 26/26/26 27/27/27
f 28/28/28 29/29/29 30/30/30
f 31/31/31 32/32/32 33/33/33
f 34/34/34 35/35/35 36/36/36
f 37/37/37 38/38/38 39/39/39
f 40/40/40 41/41/41 42/42/42
f 43/43/43 44/44/44 45/45/45
f 46/46/46 47/47/47 48/48/48
f 49/49/49 50/50/50 51/51/51
f 52/52/52 53/53/53 54/54/54
f 55/55/55 56/56/56 57/57/57
f 58/58/58 59/59/59 60/60/60
f 61/61/61 62/62/62 63/63/63
f 64/64/64 65/65/65 66/66/66
f 67/67/67 68/68/68 69/69/69
f 70/70/70 71/71/71 72/72/72
f 73/73/73 74/74/74 75/75/75
f 76/76/76 77/77/77 78/78/78
f 79/79/79 80/80/80 81/81/81
f 82/82/82 83/83/83 84/84/84
f 85/85/85 86/86/86 87/87/87
f 88/88/88 89/89/89 90/90/90
f 91/91/91 92/92/92 93/93/93
f 94/94/94 95/95/95 96/96/96
f 97/97/97 98/98/98 99/99/99
f 100/100/100 101/101/101 102/102/102
f 103/103/103 104/104/104 105/105/105
f 106/106/106 107/107/107 108/108/108
f 109/109/109 110/110/110 111/111/111
f 112/112/112 113/113/113 114/114/114
f 115/115/115 116/116/116 117/117/117
f 118/118/118 119/119/119 120/120/120
f 121/121/121 122/122/122 123/123/123
f 124/124/124 125/125/125 126/126/126
f 127/127/127 128/128/128 129/129/129
f 130/130/130 131/131/131 132/132/132
f 133/133/133 134/134/134 135/135/135
f 136/136/136 137/137/137 138/138/138
f 139/139/139 140/140/140 141/141/141
f 142/142/142 143/143/143 144/144/144
f 145/145/145 146/146/146 147/147/147
f 148/148/148 149/149/149 150/150/150
f 151/151/151 152/152/152 153/153/153
f 154/154/154 155/155/155 156/156/156
f 157/157/157 158/158/158 159/159/159
f 160/160/160 161/161/161 162/162/162
f 163/163/163 164/164/164 165/165/165
f 166/166/166 167/167/167 168/168/168
f 169/169/169 170/170/170 171/171/171
f 172/172/172 173/173/173 174/174/174
f 175/175/175 176/176/176 177/177/177
f 178/178/178 179/179/179 180/180/180
f 181/181/181 182/182/182 183/183/183
f 184/184/184 185/185/185 186/186/186
f 187/187/187 188/188/188 189/189/189
f 190/190/190 191/191/191 192/192/192
f 193/193/193 194/194/194 195/195/195
