# seaplatecornertwo_corner_se
# generated by tools/assets/build-tiles.js — do not edit
mtllib seaplatecornertwo_corner_se.mtl
o seaplatecornertwo_corner_se
v 0.50000 -0.40000 0.00000
v 0.00000 -0.40000 0.00000
v 0.50000 -0.40000 0.37500
v 0.50000 -0.40000 0.37500
v 0.00000 -0.40000 0.00000
v 0.37500 -0.40000 0.50000
v 0.00000 -0.40000 0.00000
v 0.00000 -0.40000 0.50000
v 0.37500 -0.40000 0.50000
vt 0.50000 -1.00000
vt 0.00000 -1.00000
vt 0.50000 -0.62500
vt 0.50000 -0.62500
vt 0.00000 -1.00000
vt 0.37500 -0.50000
vt 0.00000 -1.00000
vt 0.00000 -0.50000
vt 0.37500 -0.50000
vn 0.0000 1.0000 0.0000
vn 0.0000 1.0000 0.0000
vn 0.0000 1.0000 0.0000
vn 0.0000 1.0000 0.0000
vn 0.0000 1.0000 0.0000
vn 0.0000 1.0000 0.0000
vn 0.0000 1.0000 0.0000
vn 0.0000 1.0000 0.0000
vn 0.0000 1.0000 0.0000
g seaplatecornertwo_corner_se_0
usemtl asasea
f 1/1/1 2/2/2 3/3/3
f 4/4/4 5/5/5 6/6/6
f 7/7/7 8/8/8 9/9/9
