# seaplatesideup_edge_s
# generated by tools/assets/build-tiles.js — do not edit
mtllib seaplatesideup_edge_s.mtl
o seaplatesideup_edge_s
v 1.00000 -0.40000 0.00000
v 0.00000 -0.40000 0.50000
v 1.00000 -0.40000 0.50000
v 1.00000 -0.40000 0.00000
v 0.00000 -0.40000 0.00000
v 0.00000 -0.40000 0.50000
vt -1.00000 -1.00000
vt -2.00000 -0.50000
vt -1.00000 -0.50000
vt -1.00000 -1.00000
vt -2.00000 -1.00000
vt -2.00000 -0.50000
vn 0.0000 1.0000 0.0000
vn 0.0000 1.0000 0.0000
vn 0.0000 1.0000 0.0000
vn 0.0000 1.0000 0.0000
vn 0.0000 1.0000 0.0000
vn 0.0000 1.0000 0.0000
g seaplatesideup_edge_s_0
usemtl asasea
f 1/1/1 2/2/2 3/3/3
f 4/4/4 5/5/5 6/6/6
