# seaplateincorner_inner_nw
# generated by tools/assets/build-tiles.js — do not edit
mtllib seaplateincorner_inner_nw.mtl
o seaplateincorner_inner_nw
v 1.00000 -0.40000 0.00000
v 0.50000 -0.40000 0.37500
v 1.00000 -0.40000 1.00000
v 0.50000 -0.40000 0.37500
v 1.00000 -0.40000 0.00000
v 0.50000 -0.40000 0.00000
v 0.37500 -0.40000 0.50000
v 0.00000 -0.40000 1.00000
v 1.00000 -0.40000 1.00000
v 0.00000 -0.40000 1.00000
v 0.37500 -0.40000 0.50000
v 0.00000 -0.40000 0.50000
v 0.50000 -0.40000 0.37500
v 0.37500 -0.40000 0.50000
v 1.00000 -0.40000 1.00000
vt 1.00000 -1.00000
vt 0.50000 -0.62500
vt 1.00000 0.00000
vt 0.50000 -0.62500
vt 1.00000 -1.00000
vt 0.50000 -1.00000
vt 0.37500 -0.50000
vt 0.00000 0.00000
vt 1.00000 0.00000
vt 0.00000 0.00000
vt 0.37500 -0.50000
vt 0.00000 -0.50000
vt 0.50000 -0.62500
vt 0.37500 -0.50000
vt 1.00000 0.00000
vn 0.0000 1.0000 0.0000
vn 0.0000 1.0000 0.0000
vn 0.0000 1.0000 0.0000
vn 0.0000 1.0000 0.0000
vn 0.0000 1.0000 0.0000
vn 0.0000 1.0000 0.0000
vn 0.0000 1.0000 0.0000
vn 0.0000 1.0000 0.0000
vn 0.0000 1.0000 0.0000
vn 0.0000 1.0000 0.0000
vn 0.0000 1.0000 0.0000
vn 0.0000 1.0000 0.0000
vn 0.0000 1.0000 0.0000
vn 0.0000 1.0000 0.0000
vn 0.0000 1.0000 0.0000
g seaplateincorner_inner_nw_0
usemtl asasea
f 1/1/1 2/2/2 3/3/3
f 4/4/4 5/5/5 6/6/6
f 7/7/7 8/8/8 9/9/9
f 10/10/10 11/11/11 12/12/12
f 13/13/13 14/14/14 15/15/15
