# seaside3_lm67_inner_sw
# generated by tools/assets/build-tiles.js — do not edit
mtllib seaside3_lm67_inner_sw.mtl
o seaside3_lm67_inner_sw
v 0.00000 -0.50000 0.00000
v 1.00000 -0.50000 1.00000
v 1.00000 -0.50000 0.00000
v 0.00000 -0.50000 0.00000
v 0.00000 -0.50000 1.00000
v 1.00000 -0.50000 1.00000
vt 0.51367 -0.48438
vt 0.98633 -0.01367
vt 0.98633 -0.48438
vt 0.51367 -0.48438
vt 0.51367 -0.01367
vt 0.98633 -0.01367
vn 0.0000 1.0000 0.0000
vn 0.0000 1.0000 0.0000
vn 0.0000 1.0000 0.0000
vn 0.0000 1.0000 0.0000
vn 0.0000 1.0000 0.0000
vn 0.0000 1.0000 0.0000
g seaside3_lm67_inner_sw_0
usemtl lakep.1
f 1/1/1 2/2/2 3/3/3
f 4/4/4 5/5/5 6/6/6
v 0.00000 0.00000 0.87500
v 0.25000 -0.43750 0.75000
v 0.00000 -0.43750 0.75000
v 0.00000 0.00000 0.87500
v 0.12500 0.00000 0.87500
v 0.25000 -0.43750 0.75000
v 0.12500 0.00000 0.87500
v 0.25000 -0.43750 1.00000
v 0.25000 -0.43750 0.75000
v 0.12500 0.00000 0.87500
v 0.12500 0.00000 1.00000
v 0.25000 -0.43750 1.00000
v 0.00000 0.12500 1.00000
v 0.12500 0.00000 1.00000
v 0.12500 0.00000 0.87500
v 0.00000 0.12500 1.00000
v 0.12500 0.00000 0.87500
v 0.00000 0.00000 0.87500
vt 0.25000 0.50000
vt 0.56250 0.00000
vt 0.25000 0.00000
vt 0.25000 0.50000
vt 0.50000 0.50000
vt 0.56250 0.00000
vt 0.50000 0.50000
vt 0.75000 0.00000
vt 0.43750 0.00000
vt 0.50000 0.50000
vt 0.75000 0.50000
vt 0.75000 0.00000
vt 0.56250 0.75000
vt 0.75000 0.50000
vt 0.50000 0.50000
vt 0.25000 0.75000
vt 0.50000 0.50000
vt 0.25000 0.50000
vn 0.0000 0.2755 -0.9613
vn 0.0000 0.2755 -0.9613
vn 0.0000 0.2755 -0.9613
vn 0.0000 0.2755 -0.9613
vn 0.0000 0.2755 -0.9613
vn 0.0000 0.2755 -0.9613
vn 0.9613 0.2755 0.0000
vn 0.9613 0.2755 0.0000
vn 0.9613 0.2755 0.0000
vn 0.9613 0.2755 0.0000
vn 0.9613 0.2755 0.0000
vn 0.9613 0.2755 0.0000
vn 0.6943 0.6838 0.2245
vn 0.6618 0.7497 0.0000
vn 0.6618 0.7497 0.0000
vn 0.0000 0.7066 -0.7076
vn 0.0000 0.7497 -0.6618
vn 0.0000 0.7497 -0.6618
g seaside3_lm67_inner_sw_1
usemtl seaside3
f 7/7/7 8/8/8 9/9/9
f 10/10/10 11/11/11 12/12/12
f 13/13/13 14/14/14 15/15/15
f 16/16/16 17/17/17 18/18/18
f 19/19/19 20/20/20 21/21/21
f 22/22/22 23/23/23 24/24/24
