# seaside3_lm67_corner_se
# generated by tools/assets/build-tiles.js — do not edit
mtllib seaside3_lm67_corner_se.mtl
o seaside3_lm67_corner_se
v 1.00000 0.12500 1.00000
v 0.87500 -0.00000 0.00000
v 0.87500 -0.00000 0.87500
v 1.00000 0.12500 1.00000
v 1.00000 0.12500 0.00000
v 0.87500 -0.00000 0.00000
v 1.25000 0.06250 1.25000
v 1.00000 0.12500 0.00000
v 1.00000 0.12500 1.00000
v 1.25000 0.06250 1.25000
v 1.25000 0.06250 0.00000
v 1.00000 0.12500 0.00000
v 0.87500 -0.00000 0.87500
v 0.75000 -0.43750 0.00000
v 0.75000 -0.43750 0.75000
v 0.87500 -0.00000 0.87500
v 0.87500 -0.00000 0.00000
v 0.75000 -0.43750 0.00000
v 0.00000 -0.00000 0.87500
v 0.75000 -0.43750 0.75000
v 0.00000 -0.43750 0.75000
v 0.00000 -0.00000 0.87500
v 0.87500 -0.00000 0.87500
v 0.75000 -0.43750 0.75000
v 0.00000 0.06250 1.25000
v 1.00000 0.12500 1.00000
v 0.00000 0.12500 1.00000
v 0.00000 0.06250 1.25000
v 1.25000 0.06250 1.25000
v 1.00000 0.12500 1.00000
v 0.00000 0.12500 1.00000
v 0.87500 -0.00000 0.87500
v 0.00000 -0.00000 0.87500
v 0.00000 0.12500 1.00000
v 1.00000 0.12500 1.00000
v 0.87500 -0.00000 0.87500
vt 0.25000 0.75000
vt 1.50000 0.50000
vt 0.50000 0.50000
vt 0.25000 0.75000
vt 1.50000 0.75000
vt 1.50000 0.50000
vt 0.00000 1.00000
vt 1.50000 0.75000
vt 0.25000 0.75000
vt 0.00000 1.00000
vt 1.50000 1.00000
vt 1.50000 0.75000
vt 0.50000 0.50000
vt 1.50000 0.00000
vt 0.68750 0.00000
vt 0.50000 0.50000
vt 1.50000 0.50000
vt 1.50000 0.00000
vt -0.50000 0.50000
vt 0.37500 0.00000
vt -0.50000 0.00000
vt -0.50000 0.50000
vt 0.50000 0.50000
vt 0.37500 0.00000
vt -0.50000 1.00000
vt 0.75000 0.75000
vt -0.50000 0.75000
vt -0.50000 1.00000
vt 1.00000 1.00000
vt 0.75000 0.75000
vt -0.50000 0.75000
vt 0.50000 0.50000
vt -0.50000 0.50000
vt -0.50000 0.75000
vt 0.75000 0.75000
vt 0.50000 0.50000
vn -0.2688 0.9632 0.0000
vn -0.7071 0.7071 0.0000
vn -0.7071 0.7071 0.0000
vn -0.2688 0.9632 0.0000
vn -0.2678 0.9635 0.0000
vn -0.7071 0.7071 0.0000
vn 0.2425 0.9701 0.0000
vn -0.2678 0.9635 0.0000
vn -0.2688 0.9632 0.0000
vn 0.2425 0.9701 0.0000
vn 0.2422 0.9702 0.0000
vn -0.2678 0.9635 0.0000
vn -0.9613 0.2755 0.0000
vn -0.9613 0.2755 0.0000
vn -0.9613 0.2755 0.0000
vn -0.9613 0.2755 0.0000
vn -0.9613 0.2755 0.0000
vn -0.9613 0.2755 0.0000
vn 0.0000 0.2755 -0.9613
vn 0.0000 0.2755 -0.9613
vn 0.0000 0.2755 -0.9613
vn 0.0000 0.2755 -0.9613
vn 0.0000 0.2755 -0.9613
vn 0.0000 0.2755 -0.9613
vn 0.0000 0.9701 0.2425
vn 0.0000 0.9623 -0.2720
vn 0.0000 0.9635 -0.2678
vn 0.0000 0.9701 0.2425
vn 0.0000 0.9702 0.2422
vn 0.0000 0.9623 -0.2720
vn 0.0000 0.9635 -0.2678
vn 0.0000 0.7071 -0.7071
vn 0.0000 0.7071 -0.7071
vn 0.0000 0.9635 -0.2678
vn 0.0000 0.9623 -0.2720
vn 0.0000 0.7071 -0.7071
g seaside3_lm67_corner_se_0
usemtl seaside3
f 1/1/1 2/2/2 3/3/3
f 4/4/4 5/5/5 6/6/6
f 7/7/7 8/8/8 9/9/9
f 10/10/10 11/11/11 12/12/12
f 13/13/13 14/14/14 15/15/15
f 16/16/16 17/17/17 18/18/18
f 19/19/19 20/20/20 21/21/21
f 22/22/22 23/23/23 24/24/24
f 25/25/25 26/26/26 27/27/27
f 28/28/28 29/29/29 30/30/30
f 31/31/31 32/32/32 33/33/33
f 34/34/34 35/35/35 36/36/36
v 0.00000 -0.50000 1.00000
v 1.00000 -0.50000 0.00000
v 0.00000 -0.50000 0.00000
v 0.00000 -0.50000 1.00000
v 1.00000 -0.50000 1.00000
v 1.00000 -0.50000 0.00000
vt 0.01172 -0.48438
vt 0.48438 -0.01367
vt 0.48438 -0.48438
vt 0.01172 -0.48438
vt 0.01172 -0.01367
vt 0.48438 -0.01367
vn 0.0000 1.0000 0.0000
vn 0.0000 1.0000 0.0000
vn 0.0000 1.0000 0.0000
vn 0.0000 1.0000 0.0000
vn 0.0000 1.0000 0.0000
vn 0.0000 1.0000 0.0000
g seaside3_lm67_corner_se_1
usemtl lakep.1
f 37/37/37 38/38/38 39/39/39
f 40/40/40 41/41/41 42/42/42
