# Blender 5.2.1 LTS
# www.blender.org
mtllib small_rock.mtl
o bw2-twist__small_rock
v 0.718750 0.500000 0.000000
v 0.654680 0.654680 0.000000
v 0.500000 0.718750 0.000000
v 0.345320 0.654680 0.000000
v 0.281250 0.500000 0.000000
v 0.345320 0.345320 0.000000
v 0.500000 0.281250 0.000000
v 0.654680 0.345320 0.000000
v 1.000000 0.500000 0.081456
v 0.853553 0.853553 0.081456
v 0.500000 1.000000 0.081456
v 0.146447 0.853553 0.081456
v 0.000000 0.500000 0.081456
v 0.146447 0.146447 0.081456
v 0.500000 0.000000 0.081456
v 0.853553 0.146447 0.081456
v 0.921875 0.500000 0.162913
v 0.798311 0.798311 0.162913
v 0.500000 0.921875 0.162913
v 0.201689 0.798311 0.162913
v 0.078125 0.500000 0.162913
v 0.201689 0.201689 0.162913
v 0.500000 0.078125 0.162913
v 0.798311 0.201689 0.162913
v 0.812500 0.500000 0.244369
v 0.720971 0.720971 0.244369
v 0.500000 0.812500 0.244369
v 0.279029 0.720971 0.244369
v 0.187500 0.500000 0.244369
v 0.279029 0.279029 0.244369
v 0.500000 0.187500 0.244369
v 0.720971 0.279029 0.244369
v 0.530000 0.500000 0.325825
v 0.521213 0.521213 0.325825
v 0.500000 0.530000 0.325825
v 0.478787 0.521213 0.325825
v 0.470000 0.500000 0.325825
v 0.478787 0.478787 0.325825
v 0.500000 0.470000 0.325825
v 0.521213 0.478787 0.325825
vn 0.2764 0.1145 -0.9542
vn 0.1145 0.2764 -0.9542
vn -0.1145 0.2764 -0.9542
vn -0.2764 0.1145 -0.9542
vn -0.2764 -0.1145 -0.9542
vn -0.1145 -0.2764 -0.9542
vn 0.1145 -0.2764 -0.9542
vn 0.2764 -0.1145 -0.9542
vn 0.6915 0.2864 0.6632
vn 0.2864 0.6915 0.6632
vn -0.2864 0.6915 0.6632
vn -0.6915 0.2864 0.6632
vn -0.6915 -0.2864 0.6632
vn -0.2864 -0.6915 0.6632
vn 0.2864 -0.6915 0.6632
vn 0.6915 -0.2864 0.6632
vn 0.5798 0.2402 0.7785
vn 0.2402 0.5798 0.7785
vn -0.2402 0.5798 0.7785
vn -0.5798 0.2402 0.7785
vn -0.5798 -0.2402 0.7785
vn -0.2402 -0.5798 0.7785
vn 0.2402 -0.5798 0.7785
vn 0.5798 -0.2402 0.7785
vn 0.2752 0.1140 0.9546
vn 0.1140 0.2752 0.9546
vn -0.1140 0.2752 0.9546
vn -0.2752 0.1140 0.9546
vn -0.2752 -0.1140 0.9546
vn -0.1140 -0.2752 0.9546
vn 0.1140 -0.2752 0.9546
vn 0.2752 -0.1140 0.9546
vn -0.0000 -0.0000 -1.0000
vn -0.0000 -0.0000 1.0000
vt 0.000000 0.031250
vt 0.250000 0.265625
vt 0.000000 0.265625
vt 0.500000 0.031250
vt 0.250000 0.031250
vt 0.750000 0.265625
vt 0.500000 0.265625
vt 1.000000 0.031250
vt 0.750000 0.031250
vt 1.000000 0.265625
vt 0.000000 0.500000
vt 0.250000 0.500000
vt 0.500000 0.500000
vt 0.750000 0.500000
vt 1.000000 0.500000
vt 0.000000 0.734375
vt 0.500000 0.734375
vt 0.250000 0.734375
vt 0.750000 0.734375
vt 1.000000 0.734375
vt 0.000000 0.968750
vt 0.250000 0.968750
vt 0.500000 0.968750
vt 1.000000 0.968750
vt 0.750000 0.968750
vt 0.425625 0.134375
vt 0.500000 0.154883
vt 0.574375 0.134375
vt 0.492788 0.708636
vt 0.492788 0.703864
vt 0.507212 0.703864
vt 0.552591 0.119874
vt 0.500000 0.113867
vt 0.447409 0.119874
vt 0.447409 0.148876
vt 0.552591 0.148876
vt 0.510200 0.706250
vt 0.507212 0.708636
vt 0.500000 0.709625
vt 0.489800 0.706250
vt 0.500000 0.702875
s 0
usemtl d7_rock01.001
f 1/1/1 10/2/1 9/3/1
f 3/4/2 10/2/2 2/5/2
f 3/4/3 12/6/3 11/7/3
f 5/8/4 12/6/4 4/9/4
f 6/9/5 13/10/5 5/8/5
f 6/9/6 15/7/6 14/6/6
f 8/5/7 15/7/7 7/4/7
f 1/1/8 16/2/8 8/5/8
f 10/2/9 17/11/9 9/3/9
f 11/7/10 18/12/10 10/2/10
f 12/6/11 19/13/11 11/7/11
f 13/10/12 20/14/12 12/6/12
f 13/10/13 22/14/13 21/15/13
f 15/7/14 22/14/14 14/6/14
f 16/2/15 23/13/15 15/7/15
f 9/3/16 24/12/16 16/2/16
f 18/12/17 25/16/17 17/11/17
f 18/12/18 27/17/18 26/18/18
f 20/14/19 27/17/19 19/13/19
f 21/15/20 28/19/20 20/14/20
f 22/14/21 29/20/21 21/15/21
f 23/13/22 30/19/22 22/14/22
f 24/12/23 31/17/23 23/13/23
f 17/11/24 32/18/24 24/12/24
f 26/18/25 33/21/25 25/16/25
f 27/17/26 34/22/26 26/18/26
f 28/19/27 35/23/27 27/17/27
f 28/19/28 37/24/28 36/25/28
f 30/19/29 37/24/29 29/20/29
f 31/17/30 38/25/30 30/19/30
f 32/18/31 39/23/31 31/17/31
f 32/18/32 33/21/32 40/22/32
f 5/26/33 3/27/33 1/28/33
f 36/29/34 38/30/34 40/31/34
f 1/1/1 2/5/1 10/2/1
f 3/4/2 11/7/2 10/2/2
f 3/4/3 4/9/3 12/6/3
f 5/8/4 13/10/4 12/6/4
f 6/9/5 14/6/5 13/10/5
f 6/9/6 7/4/6 15/7/6
f 8/5/7 16/2/7 15/7/7
f 1/1/8 9/3/8 16/2/8
f 10/2/9 18/12/9 17/11/9
f 11/7/10 19/13/10 18/12/10
f 12/6/11 20/14/11 19/13/11
f 13/10/12 21/15/12 20/14/12
f 13/10/13 14/6/13 22/14/13
f 15/7/14 23/13/14 22/14/14
f 16/2/15 24/12/15 23/13/15
f 9/3/16 17/11/16 24/12/16
f 18/12/17 26/18/17 25/16/17
f 18/12/18 19/13/18 27/17/18
f 20/14/19 28/19/19 27/17/19
f 21/15/20 29/20/20 28/19/20
f 22/14/21 30/19/21 29/20/21
f 23/13/22 31/17/22 30/19/22
f 24/12/23 32/18/23 31/17/23
f 17/11/24 25/16/24 32/18/24
f 26/18/25 34/22/25 33/21/25
f 27/17/26 35/23/26 34/22/26
f 28/19/27 36/25/27 35/23/27
f 28/19/28 29/20/28 37/24/28
f 30/19/29 38/25/29 37/24/29
f 31/17/30 39/23/30 38/25/30
f 32/18/31 40/22/31 39/23/31
f 32/18/32 25/16/32 33/21/32
f 1/28/33 8/32/33 7/33/33
f 7/33/33 6/34/33 5/26/33
f 5/26/33 4/35/33 3/27/33
f 3/27/33 2/36/33 1/28/33
f 1/28/33 7/33/33 5/26/33
f 40/31/34 33/37/34 34/38/34
f 34/38/34 35/39/34 36/29/34
f 36/29/34 37/40/34 38/30/34
f 38/30/34 39/41/34 40/31/34
f 40/31/34 34/38/34 36/29/34
