# crystal
# generated by tools/assets/build-tiles.js — do not edit
mtllib crystal.mtl
o crystal
v 4.12402 0.18750 3.62695
v 4.37500 0.18750 2.68945
v 2.50000 0.18750 2.68945
v 4.37500 0.18750 2.68945
v 4.12402 0.18750 1.75195
v 2.50000 0.18750 2.68945
v 4.12402 0.18750 1.75195
v 3.43750 0.18750 1.06641
v 2.50000 0.18750 2.68945
v 3.43750 0.18750 1.06641
v 2.50000 0.18750 0.81445
v 2.50000 0.18750 2.68945
v 2.50000 0.18750 0.81445
v 1.56250 0.18750 1.06641
v 2.50000 0.18750 2.68945
v 1.56250 0.18750 1.06641
v 0.87598 0.18750 1.75195
v 2.50000 0.18750 2.68945
v 0.87598 0.18750 1.75195
v 0.62500 0.18750 2.68945
v 2.50000 0.18750 2.68945
v 0.62500 0.18750 2.68945
v 0.87598 0.18750 3.62695
v 2.50000 0.18750 2.68945
v 0.87598 0.18750 3.62695
v 1.56250 0.18750 4.31348
v 2.50000 0.18750 2.68945
v 1.56250 0.18750 4.31348
v 2.50000 0.18750 4.56445
v 2.50000 0.18750 2.68945
v 2.50000 0.18750 4.56445
v 3.43750 0.18750 4.31348
v 2.50000 0.18750 2.68945
v 3.43750 0.18750 4.31348
v 4.12402 0.18750 3.62695
v 2.50000 0.18750 2.68945
vt 1.00000 -0.99023
vt 0.00000 -0.99023
vt 0.50000 0.57031
vt 1.00000 -0.99023
vt 0.00000 -0.99023
vt 0.50000 0.57031
vt 1.00000 -0.99023
vt 0.00000 -0.99023
vt 0.50000 0.57031
vt 1.00000 -0.99023
vt 0.00000 -0.99023
vt 0.50000 0.57031
vt 1.00000 -0.99023
vt 0.00000 -0.99023
vt 0.50000 0.57031
vt 1.00000 -0.99023
vt 0.00000 -0.99023
vt 0.50000 0.57031
vt 1.00000 -0.99023
vt 0.00000 -0.99023
vt 0.50000 0.57031
vt 1.00000 -0.99023
vt 0.00000 -0.99023
vt 0.50000 0.57031
vt 1.00000 -0.99023
vt 0.00000 -0.99023
vt 0.50000 0.57031
vt 1.00000 -0.99023
vt 0.00000 -0.99023
vt 0.50000 0.57031
vt 1.00000 -0.99023
vt 0.00000 -0.99023
vt 0.50000 0.57031
vt 1.00000 -0.99023
vt 0.00000 -0.99023
vt 0.50000 0.57031
vn 0.0000 1.0000 0.0000
vn 0.0000 1.0000 0.0000
vn 0.0000 1.0000 0.0000
vn 0.0000 1.0000 0.0000
vn 0.0000 1.0000 0.0000
vn 0.0000 1.0000 0.0000
vn 0.0000 1.0000 0.0000
vn 0.0000 1.0000 0.0000
vn 0.0000 1.0000 0.0000
vn 0.0000 1.0000 0.0000
vn 0.0000 1.0000 0.0000
vn 0.0000 1.0000 0.0000
vn 0.0000 1.0000 0.0000
vn 0.0000 1.0000 0.0000
vn 0.0000 1.0000 0.0000
vn 0.0000 1.0000 0.0000
vn 0.0000 1.0000 0.0000
vn 0.0000 1.0000 0.0000
vn 0.0000 1.0000 0.0000
vn 0.0000 1.0000 0.0000
vn 0.0000 1.0000 0.0000
vn 0.0000 1.0000 0.0000
vn 0.0000 1.0000 0.0000
vn 0.0000 1.0000 0.0000
vn 0.0000 1.0000 0.0000
vn 0.0000 1.0000 0.0000
vn 0.0000 1.0000 0.0000
vn 0.0000 1.0000 0.0000
vn 0.0000 1.0000 0.0000
vn 0.0000 1.0000 0.0000
vn 0.0000 1.0000 0.0000
vn 0.0000 1.0000 0.0000
vn 0.0000 1.0000 0.0000
vn 0.0000 1.0000 0.0000
vn 0.0000 1.0000 0.0000
vn 0.0000 1.0000 0.0000
g crystal_0
usemtl d7_kage01
f 1/1/1 2/2/2 3/3/3
f 4/4/4 5/5/5 6/6/6
f 7/7/7 8/8/8 9/9/9
f 10/10/10 11/11/11 12/12/12
f 13/13/13 14/14/14 15/15/15
f 16/16/16 17/17/17 18/18/18
f 19/19/19 20/20/20 21/21/21
f 22/22/22 23/23/23 24/24/24
f 25/25/25 26/26/26 27/27/27
f 28/28/28 29/29/29 30/30/30
f 31/31/31 32/32/32 33/33/33
f 34/34/34 35/35/35 36/36/36
v 2.50000 0.85547 3.60840
v 2.02734 2.01367 3.01367
v 1.66016 0.85547 3.31836
v 2.50000 0.85547 3.60840
v 2.50000 2.01367 3.17676
v 2.02734 2.01367 3.01367
v 1.31152 0.85547 2.62109
v 1.55469 0.06348 3.40625
v 1.66016 0.85547 3.31836
v 1.31152 0.85547 2.62109
v 1.16211 0.06348 2.62109
v 1.55469 0.06348 3.40625
v 3.33984 0.85547 1.90430
v 3.83789 0.06348 2.62109
v 3.44531 0.06348 1.90430
v 3.33984 0.85547 1.90430
v 3.68848 0.85547 2.62109
v 3.83789 0.06348 2.62109
v 3.44531 0.06348 3.40625
v 2.50000 0.85547 3.60840
v 2.50000 0.06348 3.73242
v 3.44531 0.06348 3.40625
v 3.33984 0.85547 3.31836
v 2.50000 0.85547 3.60840
v 1.66016 0.85547 3.31836
v 1.83106 2.01367 2.62109
v 1.31152 0.85547 2.62109
v 1.66016 0.85547 3.31836
v 2.02734 2.01367 3.01367
v 1.83106 2.01367 2.62109
v 3.83789 0.06348 2.62109
v 3.33984 0.85547 3.31836
v 3.44531 0.06348 3.40625
v 3.83789 0.06348 2.62109
v 3.68848 0.85547 2.62109
v 3.33984 0.85547 3.31836
v 1.66016 0.85547 3.31836
v 2.50000 0.06348 3.73242
v 2.50000 0.85547 3.60840
v 1.66016 0.85547 3.31836
v 1.55469 0.06348 3.40625
v 2.50000 0.06348 3.73242
v 3.33984 0.85547 3.31836
v 2.50000 2.01367 3.17676
v 2.50000 0.85547 3.60840
v 3.33984 0.85547 3.31836
v 2.97266 2.01367 3.01367
v 2.50000 2.01367 3.17676
v 2.02734 2.01367 2.22754
v 1.55469 0.06348 1.83496
v 1.31152 0.85547 2.62109
v 2.02734 2.01367 2.22754
v 2.50000 0.06348 1.54590
v 1.55469 0.06348 1.83496
v 1.55469 0.06348 1.83496
v 1.16211 0.06348 2.62109
v 1.31152 0.85547 2.62109
v 2.92871 1.29981 2.26270
v 2.02734 2.01367 2.22754
v 2.50000 2.53906 2.62109
v 2.50000 2.53906 2.62109
v 2.02734 2.01367 2.22754
v 1.83106 2.01367 2.62109
v 1.83106 2.01367 2.62109
v 2.02734 2.01367 3.01367
v 2.50000 2.53906 2.62109
v 2.50000 2.53906 2.62109
v 2.02734 2.01367 3.01367
v 2.50000 2.01367 3.17676
v 2.50000 0.06348 1.54590
v 2.92871 1.29981 2.26270
v 3.33984 0.85547 1.90430
v 3.33984 0.85547 1.90430
v 2.92871 1.29981 2.26270
v 3.68848 0.85547 2.62109
v 3.68848 0.85547 2.62109
v 2.92871 1.29981 2.26270
v 3.33984 0.85547 3.31836
v 2.50000 0.06348 1.54590
v 2.02734 2.01367 2.22754
v 2.92871 1.29981 2.26270
v 2.92871 1.29981 2.26270
v 2.50000 2.53906 2.62109
v 2.97266 2.01367 3.01367
v 2.97266 2.01367 3.01367
v 2.50000 2.53906 2.62109
v 2.50000 2.01367 3.17676
v 2.92871 1.29981 2.26270
v 2.97266 2.01367 3.01367
v 3.33984 0.85547 3.31836
v 1.31152 0.85547 2.62109
v 1.83106 2.01367 2.62109
v 2.02734 2.01367 2.22754
v 2.50000 0.06348 1.54590
v 3.33984 0.85547 1.90430
v 3.44531 0.06348 1.90430
vt 0.54297 -0.62793
vt 0.34375 -0.18750
vt 0.18945 -0.62793
vt 0.54297 -0.62793
vt 0.54297 -0.18750
vt 0.34375 -0.18750
vt 0.04297 -0.62793
vt 0.14453 -0.97754
vt 0.18945 -0.62793
vt 0.04297 -0.62793
vt -0.01953 -0.97754
vt 0.14453 -0.97754
vt 0.89551 -0.62793
vt 1.10547 -0.97754
vt 0.94043 -0.97754
vt 0.89551 -0.62793
vt 1.10644 -0.45703
vt 1.10547 -0.97754
vt 0.94043 -0.97754
vt 0.54297 -0.62793
vt 0.54297 -0.97754
vt 0.94043 -0.97754
vt 0.89551 -0.62793
vt 0.54297 -0.62793
vt 0.18945 -0.62793
vt 0.26172 -0.18750
vt 0.04297 -0.62793
vt 0.18945 -0.62793
vt 0.34375 -0.18750
vt 0.26172 -0.18750
vt 1.10547 -0.97754
vt 0.89551 -0.62793
vt 0.94043 -0.97754
vt 1.10547 -0.97754
vt 1.10644 -0.45703
vt 0.89551 -0.62793
vt 0.18945 -0.62793
vt 0.54297 -0.97754
vt 0.54297 -0.62793
vt 0.18945 -0.62793
vt 0.14453 -0.97754
vt 0.54297 -0.97754
vt 0.89551 -0.62793
vt 0.54297 -0.18750
vt 0.54297 -0.62793
vt 0.89551 -0.62793
vt 0.74121 -0.18750
vt 0.54297 -0.18750
vt 0.34375 -0.18750
vt 0.14453 -0.97754
vt 0.04297 -0.62793
vt 0.34375 -0.18750
vt 0.54297 -0.97754
vt 0.14453 -0.97754
vt 0.14453 -0.97754
vt -0.01953 -0.97754
vt 0.04297 -0.62793
vt 0.72266 -0.44238
vt 0.34375 -0.18750
vt 0.54297 0.00000
vt 0.54297 0.00000
vt 0.34375 -0.18750
vt 0.26172 -0.18750
vt 0.26172 -0.18750
vt 0.34375 -0.18750
vt 0.54297 0.00000
vt 0.54297 0.00000
vt 0.34375 -0.18750
vt 0.54297 -0.18750
vt 0.54297 -0.97754
vt 0.72266 -0.44238
vt 0.89551 -0.62793
vt 0.89551 -0.62793
vt 0.72266 -0.44238
vt 1.10644 -0.45703
vt 1.00098 -0.42090
vt 0.72266 -0.44238
vt 0.99707 -0.57520
vt 0.54297 -0.97754
vt 0.34375 -0.18750
vt 0.72266 -0.44238
vt 0.68555 -0.01563
vt 0.42090 -0.20410
vt 0.32129 -0.06543
vt 0.74121 -0.18750
vt 0.54297 0.00000
vt 0.54297 -0.18750
vt 0.72266 -0.44238
vt 0.87988 -0.18164
vt 1.00488 -0.55859
vt 0.04297 -0.62793
vt 0.26172 -0.18750
vt 0.34375 -0.18750
vt 0.54297 -0.97754
vt 0.89551 -0.62793
vt 0.94043 -0.97754
vn 0.0000 0.3492 0.9371
vn -0.5992 0.3759 0.7069
vn -0.6193 0.3775 0.6885
vn 0.0000 0.3492 0.9371
vn 0.0000 0.3492 0.9371
vn -0.5992 0.3759 0.7069
vn -0.8820 0.1664 0.4410
vn -0.6542 0.1688 0.7372
vn -0.6447 0.1685 0.7456
vn -0.8820 0.1664 0.4410
vn -0.8820 0.1664 0.4410
vn -0.6542 0.1688 0.7372
vn 0.8794 0.1415 -0.4547
vn 0.8794 0.1415 -0.4547
vn 0.8794 0.1415 -0.4547
vn 0.8794 0.1415 -0.4547
vn 0.8794 0.1415 -0.4547
vn 0.8794 0.1415 -0.4547
vn 0.6542 0.1688 0.7372
vn 0.3228 0.1466 0.9351
vn 0.3228 0.1466 0.9351
vn 0.6542 0.1688 0.7372
vn 0.6447 0.1685 0.7456
vn 0.3228 0.1466 0.9351
vn -0.6193 0.3775 0.6885
vn -0.8301 0.3724 0.4151
vn -0.8301 0.3724 0.4151
vn -0.6193 0.3775 0.6885
vn -0.5992 0.3759 0.7069
vn -0.8301 0.3724 0.4151
vn 0.8820 0.1664 0.4410
vn 0.6447 0.1685 0.7456
vn 0.6542 0.1688 0.7372
vn 0.8820 0.1664 0.4410
vn 0.8820 0.1664 0.4410
vn 0.6447 0.1685 0.7456
vn -0.6447 0.1685 0.7456
vn -0.3228 0.1466 0.9351
vn -0.3228 0.1466 0.9351
vn -0.6447 0.1685 0.7456
vn -0.6542 0.1688 0.7372
vn -0.3228 0.1466 0.9351
vn 0.3078 0.3322 0.8916
vn 0.0000 0.3492 0.9371
vn 0.0000 0.3492 0.9371
vn 0.3078 0.3322 0.8916
vn 0.3078 0.3322 0.8916
vn 0.0000 0.3492 0.9371
vn -0.5292 0.2889 -0.7978
vn -0.6464 0.2615 -0.7168
vn -0.6624 0.2571 -0.7037
vn -0.5292 0.2889 -0.7978
vn -0.5292 0.2889 -0.7978
vn -0.6464 0.2615 -0.7168
vn -0.6464 0.2615 -0.7168
vn -0.8822 0.1664 -0.4405
vn -0.6624 0.2571 -0.7037
vn 0.3226 0.3643 -0.8737
vn -0.1431 0.6726 -0.7260
vn 0.0069 0.5955 -0.8033
vn 0.0069 0.5955 -0.8033
vn -0.1431 0.6726 -0.7260
vn -0.5903 0.7516 -0.2944
vn -0.5902 0.7514 0.2951
vn -0.4417 0.7571 0.4814
vn -0.4073 0.7528 0.5171
vn -0.4073 0.7528 0.5171
vn -0.4417 0.7571 0.4814
vn -0.2307 0.7070 0.6685
vn -0.1484 0.5340 -0.8323
vn 0.2526 0.7382 -0.6255
vn 0.1958 0.7190 -0.6669
vn 0.1958 0.7190 -0.6669
vn 0.2526 0.7382 -0.6255
vn 0.5800 0.7642 -0.2821
vn 0.4183 0.8839 0.2091
vn 0.4183 0.8839 0.2091
vn 0.4183 0.8839 0.2091
vn 0.3364 0.3823 -0.8606
vn 0.3364 0.3823 -0.8606
vn 0.3364 0.3823 -0.8606
vn 0.8069 0.4038 -0.4311
vn 0.8069 0.4038 -0.4311
vn 0.8069 0.4038 -0.4311
vn 0.2307 0.7070 0.6685
vn 0.2307 0.7070 0.6685
vn 0.2307 0.7070 0.6685
vn 0.9361 0.2259 -0.2695
vn 0.9361 0.2259 -0.2695
vn 0.9361 0.2259 -0.2695
vn -0.8305 0.3725 -0.4142
vn -0.8305 0.3725 -0.4142
vn -0.8305 0.3725 -0.4142
vn 0.3541 0.0472 -0.9340
vn 0.3541 0.0472 -0.9340
vn 0.3541 0.0472 -0.9340
g crystal_1
usemtl d7ice01
f 37/37/37 38/38/38 39/39/39
f 40/40/40 41/41/41 42/42/42
f 43/43/43 44/44/44 45/45/45
f 46/46/46 47/47/47 48/48/48
f 49/49/49 50/50/50 51/51/51
f 52/52/52 53/53/53 54/54/54
f 55/55/55 56/56/56 57/57/57
f 58/58/58 59/59/59 60/60/60
f 61/61/61 62/62/62 63/63/63
f 64/64/64 65/65/65 66/66/66
f 67/67/67 68/68/68 69/69/69
f 70/70/70 71/71/71 72/72/72
f 73/73/73 74/74/74 75/75/75
f 76/76/76 77/77/77 78/78/78
f 79/79/79 80/80/80 81/81/81
f 82/82/82 83/83/83 84/84/84
f 85/85/85 86/86/86 87/87/87
f 88/88/88 89/89/89 90/90/90
f 91/91/91 92/92/92 93/93/93
f 94/94/94 95/95/95 96/96/96
f 97/97/97 98/98/98 99/99/99
f 100/100/100 101/101/101 102/102/102
f 103/103/103 104/104/104 105/105/105
f 106/106/106 107/107/107 108/108/108
f 109/109/109 110/110/110 111/111/111
f 112/112/112 113/113/113 114/114/114
f 115/115/115 116/116/116 117/117/117
f 118/118/118 119/119/119 120/120/120
f 121/121/121 122/122/122 123/123/123
f 124/124/124 125/125/125 126/126/126
f 127/127/127 128/128/128 129/129/129
f 130/130/130 131/131/131 132/132/132
v 2.50000 1.61621 3.04102
v 3.12793 0.75000 3.14746
v 2.85352 1.61621 2.91895
v 2.50000 1.61621 3.04102
v 2.50000 0.75000 3.36328
v 3.12793 0.75000 3.14746
v 2.00000 1.61621 2.62500
v 1.87207 0.75000 3.14746
v 2.14648 1.61621 2.91895
v 2.00000 1.61621 2.62500
v 1.61133 0.75000 2.62500
v 1.87207 0.75000 3.14746
v 3.43750 0.12500 2.62500
v 3.15918 0.50586 3.17285
v 3.20703 0.12500 3.21289
v 3.43750 0.12500 2.62500
v 3.36914 0.50586 2.62500
v 3.15918 0.50586 3.17285
v 2.40918 0.50586 1.95215
v 2.82031 1.08203 2.35742
v 2.62793 0.50586 2.03516
v 2.40918 0.50586 1.95215
v 2.14648 1.08203 2.33105
v 2.82031 1.08203 2.35742
v 3.15918 0.50586 3.17285
v 2.50000 0.75000 3.36328
v 2.50000 0.50586 3.39941
v 3.15918 0.50586 3.17285
v 3.12793 0.75000 3.14746
v 2.50000 0.75000 3.36328
v 1.79297 0.12500 3.21289
v 1.56836 0.50586 2.62500
v 1.50000 0.12500 2.62500
v 1.79297 0.12500 3.21289
v 1.84082 0.50586 3.17285
v 1.56836 0.50586 2.62500
v 2.50000 0.12500 3.45605
v 1.84082 0.50586 3.17285
v 1.79297 0.12500 3.21289
v 2.50000 0.12500 3.45605
v 2.50000 0.50586 3.39941
v 1.84082 0.50586 3.17285
v 2.50000 0.50586 3.39941
v 1.87207 0.75000 3.14746
v 1.84082 0.50586 3.17285
v 2.50000 0.50586 3.39941
v 2.50000 0.75000 3.36328
v 1.87207 0.75000 3.14746
v 3.20703 0.12500 3.21289
v 2.50000 0.50586 3.39941
v 2.50000 0.12500 3.45605
v 3.20703 0.12500 3.21289
v 3.15918 0.50586 3.17285
v 2.50000 0.50586 3.39941
v 3.36914 0.50586 2.62500
v 3.12793 0.75000 3.14746
v 3.15918 0.50586 3.17285
v 3.36914 0.50586 2.62500
v 3.32617 0.75000 2.62500
v 3.12793 0.75000 3.14746
v 1.88281 0.50586 2.11230
v 2.50000 0.12500 1.82129
v 1.79297 0.12500 2.03711
v 1.88281 0.50586 2.11230
v 2.40918 0.50586 1.95215
v 2.50000 0.12500 1.82129
v 2.14648 1.61621 2.91895
v 2.50000 0.75000 3.36328
v 2.50000 1.61621 3.04102
v 2.14648 1.61621 2.91895
v 1.87207 0.75000 3.14746
v 2.50000 0.75000 3.36328
v 3.21094 0.50586 2.29883
v 3.32617 0.75000 2.62500
v 3.36914 0.50586 2.62500
v 3.21094 0.50586 2.29883
v 3.06543 0.75000 2.15234
v 3.32617 0.75000 2.62500
v 1.84082 0.50586 3.17285
v 1.61133 0.75000 2.62500
v 1.56836 0.50586 2.62500
v 1.84082 0.50586 3.17285
v 1.87207 0.75000 3.14746
v 1.61133 0.75000 2.62500
v 1.56836 0.50586 2.62500
v 1.68262 0.50586 2.39551
v 1.50000 0.12500 2.62500
v 1.50000 0.12500 2.62500
v 1.68262 0.50586 2.39551
v 1.79297 0.12500 2.03711
v 2.82031 1.08203 2.35742
v 3.06543 0.75000 2.15234
v 2.62793 0.50586 2.03516
v 2.62793 0.50586 2.03516
v 3.06543 0.75000 2.15234
v 2.88281 0.50586 1.98535
v 3.43750 0.12500 2.62500
v 3.14453 0.12500 2.08984
v 3.21094 0.50586 2.29883
v 3.21094 0.50586 2.29883
v 3.14453 0.12500 2.08984
v 3.09668 0.50586 2.08984
v 3.14453 0.12500 2.08984
v 2.50000 0.12500 1.82129
v 3.09668 0.50586 2.08984
v 3.09668 0.50586 2.08984
v 2.50000 0.12500 1.82129
v 2.88281 0.50586 1.98535
v 1.61133 0.75000 2.62500
v 2.00000 1.61621 2.62500
v 2.14648 1.08203 2.33105
v 2.14648 1.08203 2.33105
v 2.00000 1.61621 2.62500
v 2.50000 2.00879 2.62500
v 2.00000 1.61621 2.62500
v 2.14648 1.61621 2.91895
v 2.50000 2.00879 2.62500
v 2.50000 2.00879 2.62500
v 2.14648 1.61621 2.91895
v 2.50000 1.61621 3.04102
v 2.50000 1.61621 3.04102
v 2.85352 1.61621 2.91895
v 2.50000 2.00879 2.62500
v 2.50000 2.00879 2.62500
v 2.85352 1.61621 2.91895
v 2.82031 1.08203 2.35742
v 2.85352 1.61621 2.91895
v 3.12793 0.75000 3.14746
v 2.82031 1.08203 2.35742
v 2.82031 1.08203 2.35742
v 3.12793 0.75000 3.14746
v 3.32617 0.75000 2.62500
v 2.88281 0.50586 1.98535
v 2.50000 0.12500 1.82129
v 2.62793 0.50586 2.03516
v 2.62793 0.50586 2.03516
v 2.50000 0.12500 1.82129
v 2.40918 0.50586 1.95215
v 3.21094 0.50586 2.29883
v 3.09668 0.50586 2.08984
v 3.06543 0.75000 2.15234
v 3.06543 0.75000 2.15234
v 3.09668 0.50586 2.08984
v 2.88281 0.50586 1.98535
v 3.32617 0.75000 2.62500
v 3.06543 0.75000 2.15234
v 2.82031 1.08203 2.35742
v 2.82031 1.08203 2.35742
v 2.82031 1.08203 2.35742
v 3.06543 0.75000 2.15234
v 2.82031 1.08203 2.35742
v 2.50000 2.00879 2.62500
v 2.82031 1.08203 2.35742
v 2.50000 2.00879 2.62500
v 2.82031 1.08203 2.35742
v 2.14648 1.08203 2.33105
v 1.61133 0.75000 2.62500
v 1.88281 0.50586 2.11230
v 1.68262 0.50586 2.39551
v 1.88281 0.50586 2.11230
v 1.61133 0.75000 2.62500
v 2.14648 1.08203 2.33105
v 3.36914 0.50586 2.62500
v 3.43750 0.12500 2.62500
v 3.21094 0.50586 2.29883
v 1.88281 0.50586 2.11230
v 1.79297 0.12500 2.03711
v 1.68262 0.50586 2.39551
v 1.88281 0.50586 2.11230
v 2.14648 1.08203 2.33105
v 2.40918 0.50586 1.95215
v 1.56836 0.50586 2.62500
v 1.61133 0.75000 2.62500
v 1.68262 0.50586 2.39551
vt 0.50000 -0.18945
vt 0.83789 -0.65234
vt 0.68945 -0.18945
vt 0.50000 -0.18945
vt 0.50000 -0.65234
vt 0.83789 -0.65234
vt 0.23242 -0.18945
vt 0.16211 -0.65234
vt 0.31055 -0.18945
vt 0.23242 -0.18945
vt 0.02344 -0.65234
vt 0.16211 -0.65234
vt 1.00000 -0.96875
vt 0.83008 -0.77930
vt 0.85352 -0.96875
vt 1.00000 -0.96875
vt 0.96680 -0.77930
vt 0.83008 -0.77930
vt 0.45117 -0.78125
vt 0.67188 -0.47461
vt 0.56836 -0.78125
vt 0.45117 -0.78125
vt 0.31055 -0.47461
vt 0.67188 -0.47461
vt 0.85352 -0.78125
vt 0.50000 -0.65234
vt 0.50000 -0.78125
vt 0.85352 -0.78125
vt 0.83789 -0.65234
vt 0.50000 -0.65234
vt 0.14648 -0.96875
vt 0.03320 -0.77930
vt 0.00000 -0.96875
vt 0.14648 -0.96875
vt 0.16992 -0.77930
vt 0.03320 -0.77930
vt 0.50000 -0.96875
vt 0.16992 -0.77930
vt 0.14648 -0.96875
vt 0.50000 -0.96875
vt 0.50000 -0.77930
vt 0.16992 -0.77930
vt 0.50000 -0.78125
vt 0.16211 -0.65234
vt 0.14648 -0.78125
vt 0.50000 -0.78125
vt 0.50000 -0.65234
vt 0.16211 -0.65234
vt 0.85352 -0.96875
vt 0.50000 -0.77930
vt 0.50000 -0.96875
vt 0.85352 -0.96875
vt 0.83008 -0.77930
vt 0.50000 -0.77930
vt 1.00000 -0.78125
vt 0.83789 -0.65234
vt 0.85352 -0.78125
vt 1.00000 -0.78125
vt 0.97656 -0.65234
vt 0.83789 -0.65234
vt 0.19141 -0.77930
vt 0.50000 -0.96875
vt 0.14648 -0.96875
vt 0.19141 -0.77930
vt 0.45508 -0.77930
vt 0.50000 -0.96875
vt 0.31055 -0.18945
vt 0.50000 -0.65234
vt 0.50000 -0.18945
vt 0.31055 -0.18945
vt 0.16211 -0.65234
vt 0.50000 -0.65234
vt 0.91406 -0.78125
vt 0.97656 -0.65234
vt 1.00000 -0.78125
vt 0.91406 -0.78125
vt 0.83789 -0.65234
vt 0.97656 -0.65234
vt 0.14648 -0.78125
vt 0.02344 -0.65234
vt 0.00000 -0.78125
vt 0.14648 -0.78125
vt 0.16211 -0.65234
vt 0.02344 -0.65234
vt 0.03320 -0.77930
vt 0.09180 -0.77930
vt 0.00000 -0.96875
vt 0.00000 -0.96875
vt 0.09180 -0.77930
vt 0.14648 -0.96875
vt 0.67188 -0.47461
vt 0.83789 -0.65234
vt 0.56836 -0.78125
vt 0.56836 -0.78125
vt 0.83789 -0.65234
vt 0.70508 -0.78125
vt 1.00000 -0.96875
vt 0.85352 -0.96875
vt 0.88672 -0.77930
vt 0.88672 -0.77930
vt 0.85352 -0.96875
vt 0.83008 -0.77930
vt 0.85352 -0.96875
vt 0.50000 -0.96875
vt 0.83008 -0.77930
vt 0.83008 -0.77930
vt 0.50000 -0.96875
vt 0.69141 -0.77930
vt 0.02344 -0.65234
vt 0.23242 -0.18945
vt 0.31055 -0.47461
vt 0.31055 -0.47461
vt 0.23242 -0.18945
vt 0.50000 0.01953
vt 0.23242 -0.18945
vt 0.31055 -0.18945
vt 0.50000 0.01953
vt 0.50000 0.01953
vt 0.31055 -0.18945
vt 0.50000 -0.18945
vt 0.50000 -0.18945
vt 0.68945 -0.18945
vt 0.50000 0.01953
vt 0.50000 0.01953
vt 0.68945 -0.18945
vt 0.67188 -0.47461
vt 0.68945 -0.18945
vt 0.83789 -0.65234
vt 0.67188 -0.47461
vt 0.67188 -0.47461
vt 0.83789 -0.65234
vt 0.97656 -0.65234
vt 0.69141 -0.77930
vt 0.50000 -0.96875
vt 0.56445 -0.77930
vt 0.56445 -0.77930
vt 0.50000 -0.96875
vt 0.45508 -0.77930
vt 0.91406 -0.78125
vt 0.85352 -0.78125
vt 0.83789 -0.65234
vt 0.83789 -0.65234
vt 0.85352 -0.78125
vt 0.70508 -0.78125
vt 0.97656 -0.65234
vt 0.83789 -0.65234
vt 0.67188 -0.47461
vt 0.67188 -0.47461
vt 0.67188 -0.47461
vt 0.83789 -0.65234
vt 0.67188 -0.47461
vt 0.50000 0.01953
vt 0.67188 -0.47461
vt 0.50000 0.01953
vt 0.67188 -0.47461
vt 0.31055 -0.47461
vt 0.02344 -0.65234
vt 0.16992 -0.78125
vt 0.06055 -0.78125
vt 0.16992 -0.78125
vt 0.02344 -0.65234
vt 0.31055 -0.47461
vt 0.96680 -0.77930
vt 1.00000 -0.96875
vt 0.88672 -0.77930
vt 0.19141 -0.77930
vt 0.14648 -0.96875
vt 0.09180 -0.77930
vt 0.16992 -0.78125
vt 0.31055 -0.47461
vt 0.45117 -0.78125
vt 0.00000 -0.78125
vt 0.02344 -0.65234
vt 0.06055 -0.78125
vn 0.0000 0.3490 0.9371
vn 0.3070 0.3322 0.8918
vn 0.3070 0.3322 0.8918
vn 0.0000 0.3490 0.9371
vn 0.0000 0.3490 0.9371
vn 0.3070 0.3322 0.8918
vn -0.8305 0.3725 0.4142
vn -0.6192 0.3777 0.6884
vn -0.5992 0.3761 0.7067
vn -0.8305 0.3725 0.4142
vn -0.8305 0.3725 0.4142
vn -0.6192 0.3777 0.6884
vn 0.9205 0.1592 0.3569
vn 0.6802 0.1640 0.7144
vn 0.6869 0.1642 0.7080
vn 0.9205 0.1592 0.3569
vn 0.9205 0.1592 0.3569
vn 0.6802 0.1640 0.7144
vn 0.1038 0.5216 -0.8468
vn 0.0436 0.5142 -0.8565
vn 0.0226 0.5420 -0.8401
vn 0.1038 0.5216 -0.8468
vn 0.1038 0.5216 -0.8468
vn 0.0436 0.5142 -0.8565
vn 0.6893 0.1638 0.7058
vn 0.0000 0.1464 0.9892
vn 0.0000 0.1464 0.9892
vn 0.6893 0.1638 0.7058
vn 0.6818 0.1635 0.7130
vn 0.0000 0.1464 0.9892
vn -0.6550 0.1604 0.7384
vn -0.9843 0.1763 0.0000
vn -0.9844 0.1762 -0.0001
vn -0.6550 0.1604 0.7384
vn -0.6462 0.1601 0.7462
vn -0.9843 0.1763 0.0000
vn 0.0000 0.1469 0.9891
vn -0.6462 0.1601 0.7462
vn -0.6550 0.1604 0.7384
vn 0.0000 0.1469 0.9891
vn 0.0000 0.1469 0.9891
vn -0.6462 0.1601 0.7462
vn 0.0000 0.1464 0.9892
vn -0.6457 0.1594 0.7468
vn -0.6554 0.1597 0.7382
vn 0.0000 0.1464 0.9892
vn 0.0000 0.1464 0.9892
vn -0.6457 0.1594 0.7468
vn 0.6869 0.1642 0.7080
vn 0.0000 0.1469 0.9891
vn 0.0000 0.1469 0.9891
vn 0.6869 0.1642 0.7080
vn 0.6802 0.1640 0.7144
vn 0.0000 0.1469 0.9891
vn 0.9793 0.1951 -0.0545
vn 0.6818 0.1635 0.7130
vn 0.6893 0.1638 0.7058
vn 0.9793 0.1951 -0.0545
vn 0.9789 0.1954 -0.0595
vn 0.6818 0.1635 0.7130
vn -0.2823 0.2502 -0.9261
vn -0.2823 0.2502 -0.9261
vn -0.2823 0.2502 -0.9261
vn -0.2823 0.2502 -0.9261
vn -0.2823 0.2502 -0.9261
vn -0.2823 0.2502 -0.9261
vn -0.5992 0.3761 0.7067
vn 0.0000 0.3490 0.9371
vn 0.0000 0.3490 0.9371
vn -0.5992 0.3761 0.7067
vn -0.6192 0.3777 0.6884
vn 0.0000 0.3490 0.9371
vn 0.8680 0.1985 -0.4552
vn 0.9789 0.1954 -0.0595
vn 0.9793 0.1951 -0.0545
vn 0.8680 0.1985 -0.4552
vn 0.8680 0.1985 -0.4552
vn 0.9789 0.1954 -0.0595
vn -0.6554 0.1597 0.7382
vn -0.8839 0.1573 0.4404
vn -0.8839 0.1573 0.4404
vn -0.6554 0.1597 0.7382
vn -0.6457 0.1594 0.7468
vn -0.8839 0.1573 0.4404
vn -0.9843 0.1763 0.0000
vn -0.8838 0.1585 -0.4403
vn -0.9844 0.1762 -0.0001
vn -0.9844 0.1762 -0.0001
vn -0.8838 0.1585 -0.4403
vn -0.8837 0.1584 -0.4404
vn 0.0436 0.5142 -0.8565
vn -0.0710 0.5322 -0.8436
vn 0.0226 0.5420 -0.8401
vn 0.0226 0.5420 -0.8401
vn -0.0710 0.5322 -0.8436
vn -0.1487 0.6316 -0.7609
vn 0.8718 0.1099 -0.4773
vn 0.6802 0.0856 -0.7280
vn 0.8720 0.1097 -0.4771
vn 0.8720 0.1097 -0.4771
vn 0.6802 0.0856 -0.7280
vn 0.6599 0.0638 -0.7486
vn 0.6802 0.0856 -0.7280
vn 0.4004 0.0187 -0.9162
vn 0.6599 0.0638 -0.7486
vn 0.6599 0.0638 -0.7486
vn 0.4004 0.0187 -0.9162
vn 0.4383 -0.0541 -0.8972
vn -0.5845 0.2623 -0.7679
vn -0.5519 0.5807 -0.5985
vn -0.5130 0.3016 -0.8037
vn -0.5130 0.3016 -0.8037
vn -0.5519 0.5807 -0.5985
vn -0.5100 0.8588 0.0489
vn -0.5519 0.5807 -0.5985
vn -0.4416 0.7576 0.4806
vn -0.5100 0.8588 0.0489
vn -0.5100 0.8588 0.0489
vn -0.4416 0.7576 0.4806
vn -0.2306 0.7077 0.6678
vn 0.2306 0.7077 0.6678
vn 0.8322 0.5497 -0.0722
vn 0.7238 0.6883 0.0488
vn 0.7238 0.6883 0.0488
vn 0.8322 0.5497 -0.0722
vn 0.8506 0.4822 -0.2095
vn 0.8322 0.5497 -0.0722
vn 0.7991 0.5982 -0.0597
vn 0.8506 0.4822 -0.2095
vn 0.8506 0.4822 -0.2095
vn 0.7991 0.5982 -0.0597
vn 0.4719 0.8633 0.1791
vn -0.1633 0.5242 -0.8358
vn 0.1028 0.4606 -0.8817
vn 0.0299 0.4818 -0.8758
vn 0.0299 0.4818 -0.8758
vn 0.1028 0.4606 -0.8817
vn 0.3287 0.3761 -0.8663
vn 0.8541 0.2289 -0.4670
vn 0.6558 0.2649 -0.7069
vn 0.6779 0.2626 -0.6866
vn 0.6779 0.2626 -0.6866
vn 0.6558 0.2649 -0.7069
vn 0.4220 0.2752 -0.8638
vn 0.6365 0.6867 -0.3511
vn 0.6365 0.6867 -0.3511
vn 0.2583 0.9555 -0.1425
vn 0.2583 0.9555 -0.1425
vn 0.0000 1.0000 0.0000
vn 0.6365 0.6867 -0.3511
vn 0.0000 1.0000 0.0000
vn 0.0374 0.2891 -0.9566
vn 0.0207 0.8484 -0.5289
vn 0.0374 0.2891 -0.9566
vn 0.0207 0.8484 -0.5289
vn 0.0374 0.2891 -0.9566
vn -0.6818 0.4511 -0.5759
vn -0.6794 0.4545 -0.5761
vn -0.7812 0.2910 -0.5523
vn -0.6794 0.4545 -0.5761
vn -0.6818 0.4511 -0.5759
vn -0.6351 0.5107 -0.5795
vn 0.8882 0.1594 -0.4308
vn 0.8882 0.1594 -0.4308
vn 0.8882 0.1594 -0.4308
vn -0.7807 0.2931 -0.5519
vn -0.7807 0.2931 -0.5519
vn -0.7807 0.2931 -0.5519
vn -0.2607 0.4447 -0.8569
vn -0.2607 0.4447 -0.8569
vn -0.2607 0.4447 -0.8569
vn -0.8843 0.1556 -0.4403
vn -0.8843 0.1556 -0.4403
vn -0.8843 0.1556 -0.4403
g crystal_2
usemtl d7_drock01
f 133/133/133 134/134/134 135/135/135
f 136/136/136 137/137/137 138/138/138
f 139/139/139 140/140/140 141/141/141
f 142/142/142 143/143/143 144/144/144
f 145/145/145 146/146/146 147/147/147
f 148/148/148 149/149/149 150/150/150
f 151/151/151 152/152/152 153/153/153
f 154/154/154 155/155/155 156/156/156
f 157/157/157 158/158/158 159/159/159
f 160/160/160 161/161/161 162/162/162
f 163/163/163 164/164/164 165/165/165
f 166/166/166 167/167/167 168/168/168
f 169/169/169 170/170/170 171/171/171
f 172/172/172 173/173/173 174/174/174
f 175/175/175 176/176/176 177/177/177
f 178/178/178 179/179/179 180/180/180
f 181/181/181 182/182/182 183/183/183
f 184/184/184 185/185/185 186/186/186
f 187/187/187 188/188/188 189/189/189
f 190/190/190 191/191/191 192/192/192
f 193/193/193 194/194/194 195/195/195
f 196/196/196 197/197/197 198/198/198
f 199/199/199 200/200/200 201/201/201
f 202/202/202 203/203/203 204/204/204
f 205/205/205 206/206/206 207/207/207
f 208/208/208 209/209/209 210/210/210
f 211/211/211 212/212/212 213/213/213
f 214/214/214 215/215/215 216/216/216
f 217/217/217 218/218/218 219/219/219
f 220/220/220 221/221/221 222/222/222
f 223/223/223 224/224/224 225/225/225
f 226/226/226 227/227/227 228/228/228
f 229/229/229 230/230/230 231/231/231
f 232/232/232 233/233/233 234/234/234
f 235/235/235 236/236/236 237/237/237
f 238/238/238 239/239/239 240/240/240
f 241/241/241 242/242/242 243/243/243
f 244/244/244 245/245/245 246/246/246
f 247/247/247 248/248/248 249/249/249
f 250/250/250 251/251/251 252/252/252
f 253/253/253 254/254/254 255/255/255
f 256/256/256 257/257/257 258/258/258
f 259/259/259 260/260/260 261/261/261
f 262/262/262 263/263/263 264/264/264
f 265/265/265 266/266/266 267/267/267
f 268/268/268 269/269/269 270/270/270
f 271/271/271 272/272/272 273/273/273
f 274/274/274 275/275/275 276/276/276
f 277/277/277 278/278/278 279/279/279
f 280/280/280 281/281/281 282/282/282
f 283/283/283 284/284/284 285/285/285
f 286/286/286 287/287/287 288/288/288
f 289/289/289 290/290/290 291/291/291
f 292/292/292 293/293/293 294/294/294
f 295/295/295 296/296/296 297/297/297
f 298/298/298 299/299/299 300/300/300
f 301/301/301 302/302/302 303/303/303
f 304/304/304 305/305/305 306/306/306
v 3.84082 0.18750 5.01269
v 2.50000 0.18750 4.96094
v 2.50000 0.18750 5.37207
v 3.84082 0.18750 5.01269
v 3.63574 0.18750 4.65625
v 2.50000 0.18750 4.96094
v 0.62500 0.18750 2.68945
v 0.53320 0.18750 3.82520
v 0.87598 0.18750 3.62695
v 0.62500 0.18750 2.68945
v 0.22949 0.18750 2.68945
v 0.53320 0.18750 3.82520
v 1.15918 0.18750 5.01269
v 0.53320 0.18750 3.82520
v 0.17773 0.18750 4.03125
v 1.15918 0.18750 5.01269
v 1.36426 0.18750 4.65625
v 0.53320 0.18750 3.82520
v 1.56250 0.18750 1.06641
v 0.53320 0.18750 1.55469
v 0.87598 0.18750 1.75195
v 1.56250 0.18750 1.06641
v 1.36426 0.18750 0.72363
v 0.53320 0.18750 1.55469
v 4.12402 0.18750 3.62695
v 4.77051 0.18750 2.68945
v 4.37500 0.18750 2.68945
v 4.12402 0.18750 3.62695
v 4.46680 0.18750 3.82520
v 4.77051 0.18750 2.68945
v 3.43750 0.18750 1.06641
v 2.50000 0.18750 0.41895
v 2.50000 0.18750 0.81445
v 3.43750 0.18750 1.06641
v 3.63574 0.18750 0.72363
v 2.50000 0.18750 0.41895
v 2.50000 0.18750 0.81445
v 1.36426 0.18750 0.72363
v 1.56250 0.18750 1.06641
v 2.50000 0.18750 0.81445
v 2.50000 0.18750 0.41895
v 1.36426 0.18750 0.72363
v 4.37500 0.18750 2.68945
v 4.46680 0.18750 1.55469
v 4.12402 0.18750 1.75195
v 4.37500 0.18750 2.68945
v 4.77051 0.18750 2.68945
v 4.46680 0.18750 1.55469
v 1.56250 0.18750 4.31348
v 2.50000 0.18750 4.96094
v 2.50000 0.18750 4.56445
v 1.56250 0.18750 4.31348
v 1.36426 0.18750 4.65625
v 2.50000 0.18750 4.96094
v 3.43750 0.18750 4.31348
v 4.46680 0.18750 3.82520
v 4.12402 0.18750 3.62695
v 3.43750 0.18750 4.31348
v 3.63574 0.18750 4.65625
v 4.46680 0.18750 3.82520
v 2.50000 0.18750 4.56445
v 3.63574 0.18750 4.65625
v 3.43750 0.18750 4.31348
v 2.50000 0.18750 4.56445
v 2.50000 0.18750 4.96094
v 3.63574 0.18750 4.65625
v 4.82227 0.18750 1.34863
v 4.77051 0.18750 2.68945
v 5.18164 0.18750 2.68945
v 4.82227 0.18750 1.34863
v 4.46680 0.18750 1.55469
v 4.77051 0.18750 2.68945
v 0.87598 0.18750 1.75195
v 0.22949 0.18750 2.68945
v 0.62500 0.18750 2.68945
v 0.87598 0.18750 1.75195
v 0.53320 0.18750 1.55469
v 0.22949 0.18750 2.68945
v 0.17773 0.18750 4.03125
v 0.22949 0.18750 2.68945
v -0.18164 0.18750 2.68945
v 0.17773 0.18750 4.03125
v 0.53320 0.18750 3.82520
v 0.22949 0.18750 2.68945
v 4.12402 0.18750 1.75195
v 3.63574 0.18750 0.72363
v 3.43750 0.18750 1.06641
v 4.12402 0.18750 1.75195
v 4.46680 0.18750 1.55469
v 3.63574 0.18750 0.72363
v 2.50000 0.18750 5.37207
v 1.36426 0.18750 4.65625
v 1.15918 0.18750 5.01269
v 2.50000 0.18750 5.37207
v 2.50000 0.18750 4.96094
v 1.36426 0.18750 4.65625
v 1.15918 0.18750 0.36719
v 2.50000 0.18750 0.41895
v 2.50000 0.18750 0.00781
v 1.15918 0.18750 0.36719
v 1.36426 0.18750 0.72363
v 2.50000 0.18750 0.41895
v 3.84082 0.18750 0.36719
v 4.46680 0.18750 1.55469
v 4.82227 0.18750 1.34863
v 3.84082 0.18750 0.36719
v 3.63574 0.18750 0.72363
v 4.46680 0.18750 1.55469
v 5.18164 0.18750 2.68945
v 4.46680 0.18750 3.82520
v 4.82227 0.18750 4.03125
v 5.18164 0.18750 2.68945
v 4.77051 0.18750 2.68945
v 4.46680 0.18750 3.82520
v 4.82227 0.18750 4.03125
v 3.63574 0.18750 4.65625
v 3.84082 0.18750 5.01269
v 4.82227 0.18750 4.03125
v 4.46680 0.18750 3.82520
v 3.63574 0.18750 4.65625
v 2.50000 0.18750 0.00781
v 3.63574 0.18750 0.72363
v 3.84082 0.18750 0.36719
v 2.50000 0.18750 0.00781
v 2.50000 0.18750 0.41895
v 3.63574 0.18750 0.72363
v 0.87598 0.18750 3.62695
v 1.36426 0.18750 4.65625
v 1.56250 0.18750 4.31348
v 0.87598 0.18750 3.62695
v 0.53320 0.18750 3.82520
v 1.36426 0.18750 4.65625
v 0.17773 0.18750 1.34863
v 1.36426 0.18750 0.72363
v 1.15918 0.18750 0.36719
v 0.17773 0.18750 1.34863
v 0.53320 0.18750 1.55469
v 1.36426 0.18750 0.72363
v -0.18164 0.18750 2.68945
v 0.53320 0.18750 1.55469
v 0.17773 0.18750 1.34863
v -0.18164 0.18750 2.68945
v 0.22949 0.18750 2.68945
v 0.53320 0.18750 1.55469
vt -1.16016 5.01172
vt -2.50000 4.96094
vt -2.50000 5.37109
vt -1.16016 5.01172
vt -1.36328 4.65625
vt -2.50000 4.96094
vt -4.37500 2.69141
vt -4.46484 3.82422
vt -4.12500 3.62891
vt -4.37500 2.69141
vt -4.76953 2.69141
vt -4.46484 3.82422
vt -3.83984 5.01172
vt -4.46484 3.82422
vt -4.82422 4.03125
vt -3.83984 5.01172
vt -3.63672 4.65625
vt -4.46484 3.82422
vt -3.43750 1.06641
vt -4.46484 1.55469
vt -4.12500 1.75391
vt -3.43750 1.06641
vt -3.63672 0.72266
vt -4.46484 1.55469
vt -0.87500 3.62891
vt -0.23047 2.69141
vt -0.62500 2.69141
vt -0.87500 3.62891
vt -0.53516 3.82422
vt -0.23047 2.69141
vt -1.56250 1.06641
vt -2.50000 0.41797
vt -2.50000 0.81641
vt -1.56250 1.06641
vt -1.36328 0.72266
vt -2.50000 0.41797
vt -2.50000 0.81641
vt -3.63672 0.72266
vt -3.43750 1.06641
vt -2.50000 0.81641
vt -2.50000 0.41797
vt -3.63672 0.72266
vt -0.62500 2.69141
vt -0.53516 1.55469
vt -0.87500 1.75391
vt -0.62500 2.69141
vt -0.23047 2.69141
vt -0.53516 1.55469
vt -3.43750 4.31250
vt -2.50000 4.96094
vt -2.50000 4.56641
vt -3.43750 4.31250
vt -3.63672 4.65625
vt -2.50000 4.96094
vt -1.56250 4.31250
vt -0.53516 3.82422
vt -0.87500 3.62891
vt -1.56250 4.31250
vt -1.36328 4.65625
vt -0.53516 3.82422
vt -2.50000 4.56641
vt -1.36328 4.65625
vt -1.56250 4.31250
vt -2.50000 4.56641
vt -2.50000 4.96094
vt -1.36328 4.65625
vt -0.17578 1.34766
vt -0.23047 2.69141
vt 0.18359 2.69141
vt -0.17578 1.34766
vt -0.53516 1.55469
vt -0.23047 2.69141
vt -4.12500 1.75391
vt -4.76953 2.69141
vt -4.37500 2.69141
vt -4.12500 1.75391
vt -4.46484 1.55469
vt -4.76953 2.69141
vt -4.82422 4.03125
vt -4.76953 2.69141
vt -5.18359 2.69141
vt -4.82422 4.03125
vt -4.46484 3.82422
vt -4.76953 2.69141
vt -0.87500 1.75391
vt -1.36328 0.72266
vt -1.56250 1.06641
vt -0.87500 1.75391
vt -0.53516 1.55469
vt -1.36328 0.72266
vt -2.50000 5.37109
vt -3.63672 4.65625
vt -3.83984 5.01172
vt -2.50000 5.37109
vt -2.50000 4.96094
vt -3.63672 4.65625
vt -3.83984 0.36719
vt -2.50000 0.41797
vt -2.50000 0.00781
vt -3.83984 0.36719
vt -3.63672 0.72266
vt -2.50000 0.41797
vt -1.16016 0.36719
vt -0.53516 1.55469
vt -0.17578 1.34766
vt -1.16016 0.36719
vt -1.36328 0.72266
vt -0.53516 1.55469
vt 0.18359 2.69141
vt -0.53516 3.82422
vt -0.17578 4.03125
vt 0.18359 2.69141
vt -0.23047 2.69141
vt -0.53516 3.82422
vt -0.17578 4.03125
vt -1.36328 4.65625
vt -1.16016 5.01172
vt -0.17578 4.03125
vt -0.53516 3.82422
vt -1.36328 4.65625
vt -2.50000 0.00781
vt -1.36328 0.72266
vt -1.16016 0.36719
vt -2.50000 0.00781
vt -2.50000 0.41797
vt -1.36328 0.72266
vt -4.12500 3.62891
vt -3.63672 4.65625
vt -3.43750 4.31250
vt -4.12500 3.62891
vt -4.46484 3.82422
vt -3.63672 4.65625
vt -4.82422 1.34766
vt -3.63672 0.72266
vt -3.83984 0.36719
vt -4.82422 1.34766
vt -4.46484 1.55469
vt -3.63672 0.72266
vt -5.18359 2.69141
vt -4.46484 1.55469
vt -4.82422 1.34766
vt -5.18359 2.69141
vt -4.76953 2.69141
vt -4.46484 1.55469
vn 0.0000 1.0000 0.0000
vn 0.0000 1.0000 0.0000
vn 0.0000 1.0000 0.0000
vn 0.0000 1.0000 0.0000
vn 0.0000 1.0000 0.0000
vn 0.0000 1.0000 0.0000
vn 0.0000 1.0000 0.0000
vn 0.0000 1.0000 0.0000
vn 0.0000 1.0000 0.0000
vn 0.0000 1.0000 0.0000
vn 0.0000 1.0000 0.0000
vn 0.0000 1.0000 0.0000
vn 0.0000 1.0000 0.0000
vn 0.0000 1.0000 0.0000
vn 0.0000 1.0000 0.0000
vn 0.0000 1.0000 0.0000
vn 0.0000 1.0000 0.0000
vn 0.0000 1.0000 0.0000
vn 0.0000 1.0000 0.0000
vn 0.0000 1.0000 0.0000
vn 0.0000 1.0000 0.0000
vn 0.0000 1.0000 0.0000
vn 0.0000 1.0000 0.0000
vn 0.0000 1.0000 0.0000
vn 0.0000 1.0000 0.0000
vn 0.0000 1.0000 0.0000
vn 0.0000 1.0000 0.0000
vn 0.0000 1.0000 0.0000
vn 0.0000 1.0000 0.0000
vn 0.0000 1.0000 0.0000
vn 0.0000 1.0000 0.0000
vn 0.0000 1.0000 0.0000
vn 0.0000 1.0000 0.0000
vn 0.0000 1.0000 0.0000
vn 0.0000 1.0000 0.0000
vn 0.0000 1.0000 0.0000
vn 0.0000 1.0000 0.0000
vn 0.0000 1.0000 0.0000
vn 0.0000 1.0000 0.0000
vn 0.0000 1.0000 0.0000
vn 0.0000 1.0000 0.0000
vn 0.0000 1.0000 0.0000
vn 0.0000 1.0000 0.0000
vn 0.0000 1.0000 0.0000
vn 0.0000 1.0000 0.0000
vn 0.0000 1.0000 0.0000
vn 0.0000 1.0000 0.0000
vn 0.0000 1.0000 0.0000
vn 0.0000 1.0000 0.0000
vn 0.0000 1.0000 0.0000
vn 0.0000 1.0000 0.0000
vn 0.0000 1.0000 0.0000
vn 0.0000 1.0000 0.0000
vn 0.0000 1.0000 0.0000
vn 0.0000 1.0000 0.0000
vn 0.0000 1.0000 0.0000
vn 0.0000 1.0000 0.0000
vn 0.0000 1.0000 0.0000
vn 0.0000 1.0000 0.0000
vn 0.0000 1.0000 0.0000
vn 0.0000 1.0000 0.0000
vn 0.0000 1.0000 0.0000
vn 0.0000 1.0000 0.0000
vn 0.0000 1.0000 0.0000
vn 0.0000 1.0000 0.0000
vn 0.0000 1.0000 0.0000
vn 0.0000 1.0000 0.0000
vn 0.0000 1.0000 0.0000
vn 0.0000 1.0000 0.0000
vn 0.0000 1.0000 0.0000
vn 0.0000 1.0000 0.0000
vn 0.0000 1.0000 0.0000
vn 0.0000 1.0000 0.0000
vn 0.0000 1.0000 0.0000
vn 0.0000 1.0000 0.0000
vn 0.0000 1.0000 0.0000
vn 0.0000 1.0000 0.0000
vn 0.0000 1.0000 0.0000
vn 0.0000 1.0000 0.0000
vn 0.0000 1.0000 0.0000
vn 0.0000 1.0000 0.0000
vn 0.0000 1.0000 0.0000
vn 0.0000 1.0000 0.0000
vn 0.0000 1.0000 0.0000
vn 0.0000 1.0000 0.0000
vn 0.0000 1.0000 0.0000
vn 0.0000 1.0000 0.0000
vn 0.0000 1.0000 0.0000
vn 0.0000 1.0000 0.0000
vn 0.0000 1.0000 0.0000
vn 0.0000 1.0000 0.0000
vn 0.0000 1.0000 0.0000
vn 0.0000 1.0000 0.0000
vn 0.0000 1.0000 0.0000
vn 0.0000 1.0000 0.0000
vn 0.0000 1.0000 0.0000
vn 0.0000 1.0000 0.0000
vn 0.0000 1.0000 0.0000
vn 0.0000 1.0000 0.0000
vn 0.0000 1.0000 0.0000
vn 0.0000 1.0000 0.0000
vn 0.0000 1.0000 0.0000
vn 0.0000 1.0000 0.0000
vn 0.0000 1.0000 0.0000
vn 0.0000 1.0000 0.0000
vn 0.0000 1.0000 0.0000
vn 0.0000 1.0000 0.0000
vn 0.0000 1.0000 0.0000
vn 0.0000 1.0000 0.0000
vn 0.0000 1.0000 0.0000
vn 0.0000 1.0000 0.0000
vn 0.0000 1.0000 0.0000
vn 0.0000 1.0000 0.0000
vn 0.0000 1.0000 0.0000
vn 0.0000 1.0000 0.0000
vn 0.0000 1.0000 0.0000
vn 0.0000 1.0000 0.0000
vn 0.0000 1.0000 0.0000
vn 0.0000 1.0000 0.0000
vn 0.0000 1.0000 0.0000
vn 0.0000 1.0000 0.0000
vn 0.0000 1.0000 0.0000
vn 0.0000 1.0000 0.0000
vn 0.0000 1.0000 0.0000
vn 0.0000 1.0000 0.0000
vn 0.0000 1.0000 0.0000
vn 0.0000 1.0000 0.0000
vn 0.0000 1.0000 0.0000
vn 0.0000 1.0000 0.0000
vn 0.0000 1.0000 0.0000
vn 0.0000 1.0000 0.0000
vn 0.0000 1.0000 0.0000
vn 0.0000 1.0000 0.0000
vn 0.0000 1.0000 0.0000
vn 0.0000 1.0000 0.0000
vn 0.0000 1.0000 0.0000
vn 0.0000 1.0000 0.0000
vn 0.0000 1.0000 0.0000
vn 0.0000 1.0000 0.0000
vn 0.0000 1.0000 0.0000
vn 0.0000 1.0000 0.0000
vn 0.0000 1.0000 0.0000
vn 0.0000 1.0000 0.0000
vn 0.0000 1.0000 0.0000
g crystal_3
usemtl d7bedrock4
f 307/307/307 308/308/308 309/309/309
f 310/310/310 311/311/311 312/312/312
f 313/313/313 314/314/314 315/315/315
f 316/316/316 317/317/317 318/318/318
f 319/319/319 320/320/320 321/321/321
f 322/322/322 323/323/323 324/324/324
f 325/325/325 326/326/326 327/327/327
f 328/328/328 329/329/329 330/330/330
f 331/331/331 332/332/332 333/333/333
f 334/334/334 335/335/335 336/336/336
f 337/337/337 338/338/338 339/339/339
f 340/340/340 341/341/341 342/342/342
f 343/343/343 344/344/344 345/345/345
f 346/346/346 347/347/347 348/348/348
f 349/349/349 350/350/350 351/351/351
f 352/352/352 353/353/353 354/354/354
f 355/355/355 356/356/356 357/357/357
f 358/358/358 359/359/359 360/360/360
f 361/361/361 362/362/362 363/363/363
f 364/364/364 365/365/365 366/366/366
f 367/367/367 368/368/368 369/369/369
f 370/370/370 371/371/371 372/372/372
f 373/373/373 374/374/374 375/375/375
f 376/376/376 377/377/377 378/378/378
f 379/379/379 380/380/380 381/381/381
f 382/382/382 383/383/383 384/384/384
f 385/385/385 386/386/386 387/387/387
f 388/388/388 389/389/389 390/390/390
f 391/391/391 392/392/392 393/393/393
f 394/394/394 395/395/395 396/396/396
f 397/397/397 398/398/398 399/399/399
f 400/400/400 401/401/401 402/402/402
f 403/403/403 404/404/404 405/405/405
f 406/406/406 407/407/407 408/408/408
f 409/409/409 410/410/410 411/411/411
f 412/412/412 413/413/413 414/414/414
f 415/415/415 416/416/416 417/417/417
f 418/418/418 419/419/419 420/420/420
f 421/421/421 422/422/422 423/423/423
f 424/424/424 425/425/425 426/426/426
f 427/427/427 428/428/428 429/429/429
f 430/430/430 431/431/431 432/432/432
f 433/433/433 434/434/434 435/435/435
f 436/436/436 437/437/437 438/438/438
f 439/439/439 440/440/440 441/441/441
f 442/442/442 443/443/443 444/444/444
f 445/445/445 446/446/446 447/447/447
f 448/448/448 449/449/449 450/450/450
