# cave_enter
# generated by tools/assets/build-tiles.js — do not edit
mtllib cave_enter.mtl
o cave_enter
v 4.19500 0.17000 1.01000
v 0.83500 1.73000 1.97000
v 4.19500 1.73000 1.97000
v 4.19500 0.17000 1.01000
v 0.83500 0.17000 1.01000
v 0.83500 1.73000 1.97000
v 4.43500 0.77000 0.53000
v 3.47500 1.49000 1.13000
v 4.43500 1.49000 1.25000
v 4.43500 0.77000 0.53000
v 3.47500 0.77000 0.41000
v 3.47500 1.49000 1.13000
v 4.43500 0.77000 0.53000
v 3.47500 0.17000 -0.07000
v 3.47500 0.77000 0.41000
v 4.43500 0.77000 0.53000
v 4.43500 0.17000 0.05000
v 3.47500 0.17000 -0.07000
v 1.00000 1.75000 1.50000
v 3.47500 1.49000 1.13000
v 1.55500 1.49000 1.13000
v 1.00000 1.75000 1.50000
v 4.00000 1.75000 1.50000
v 3.47500 1.49000 1.13000
v 1.55500 1.49000 1.13000
v 0.59500 0.77000 0.53000
v 0.59500 1.49000 1.25000
v 1.55500 1.49000 1.13000
v 1.55500 0.77000 0.41000
v 0.59500 0.77000 0.53000
v 1.55500 0.17000 -0.07000
v 0.59500 0.77000 0.53000
v 1.55500 0.77000 0.41000
v 1.55500 0.17000 -0.07000
v 0.59500 0.17000 0.05000
v 0.59500 0.77000 0.53000
v 3.47500 0.17000 -0.91000
v 2.51500 0.17000 0.05000
v 3.47500 0.17000 0.05000
v 3.47500 0.17000 -0.91000
v 2.51500 0.17000 -0.91000
v 2.51500 0.17000 0.05000
v 2.51500 0.17000 -0.91000
v 1.55500 0.17000 0.05000
v 2.51500 0.17000 0.05000
v 2.51500 0.17000 -0.91000
v 1.55500 0.17000 -0.91000
v 1.55500 0.17000 0.05000
v 4.19500 0.17000 0.05000
v 0.83500 0.17000 1.01000
v 4.19500 0.17000 1.01000
v 4.19500 0.17000 0.05000
v 0.83500 0.17000 0.05000
v 0.83500 0.17000 1.01000
v 0.83500 0.17000 0.05000
v 0.83500 0.17000 1.01000
v 0.83500 1.73000 1.97000
v 4.19500 1.73000 1.97000
v 4.19500 0.17000 1.01000
v 4.19500 0.17000 0.05000
v 4.00000 1.75000 1.50000
v 4.43500 1.49000 1.25000
v 3.47500 1.49000 1.13000
v 1.00000 1.75000 1.50000
v 1.55500 1.49000 1.13000
v 0.59500 1.49000 1.25000
vt 0.43750 0.09375
vt 0.43750 0.09375
vt 0.43750 0.09375
vt 0.43750 0.09375
vt 0.43750 0.09375
vt 0.43750 0.09375
vt 1.00000 0.46875
vt 0.62500 1.00000
vt 1.00000 1.00000
vt 1.00000 0.46875
vt 0.62500 0.46875
vt 0.62500 1.00000
vt 0.00000 0.34375
vt 0.31250 0.03125
vt 0.31250 0.34375
vt 0.00000 0.34375
vt 0.00000 0.03125
vt 0.31250 0.03125
vt 0.90625 -2.50000
vt 0.62500 -0.37500
vt 0.62500 -2.12500
vt 0.90625 -2.50000
vt 0.90625 0.00000
vt 0.62500 -0.37500
vt 0.62500 1.00000
vt 1.00000 0.46875
vt 1.00000 1.00000
vt 0.62500 1.00000
vt 0.62500 0.46875
vt 1.00000 0.46875
vt 0.31250 0.03125
vt 0.00000 0.34375
vt 0.31250 0.34375
vt 0.31250 0.03125
vt 0.00000 0.03125
vt 0.00000 0.34375
vt 0.31250 0.53125
vt 0.00000 0.84375
vt 0.31250 0.84375
vt 0.31250 0.53125
vt 0.00000 0.53125
vt 0.00000 0.84375
vt 0.31250 0.96875
vt 0.00000 0.56250
vt 0.00000 0.96875
vt 0.31250 0.96875
vt 0.31250 0.56250
vt 0.00000 0.56250
vt 0.59375 1.00000
vt 0.37500 0.00000
vt 0.37500 1.00000
vt 0.59375 1.00000
vt 0.59375 0.00000
vt 0.37500 0.00000
vt 0.53125 0.03125
vt 0.53125 0.03125
vt 0.53125 0.03125
vt 0.53125 0.03125
vt 0.53125 0.03125
vt 0.53125 0.03125
vt 0.90625 0.46875
vt 1.00000 0.21875
vt 0.62500 0.46875
vt 0.90625 0.46875
vt 0.62500 0.46875
vt 1.00000 0.59375
vn 0.0000 1.0000 0.0000
vn 0.0000 1.0000 0.0000
vn 0.0000 1.0000 0.0000
vn 0.0000 1.0000 0.0000
vn 0.0000 1.0000 0.0000
vn 0.0000 1.0000 0.0000
vn 0.0000 1.0000 0.0000
vn 0.0000 1.0000 0.0000
vn 0.0000 1.0000 0.0000
vn 0.0000 1.0000 0.0000
vn 0.0000 1.0000 0.0000
vn 0.0000 1.0000 0.0000
vn 0.0000 1.0000 0.0000
vn 0.0000 1.0000 0.0000
vn 0.0000 1.0000 0.0000
vn 0.0000 1.0000 0.0000
vn 0.0000 1.0000 0.0000
vn 0.0000 1.0000 0.0000
vn 0.0000 1.0000 0.0000
vn 0.0000 1.0000 0.0000
vn 0.0000 1.0000 0.0000
vn 0.0000 1.0000 0.0000
vn 0.0000 1.0000 0.0000
vn 0.0000 1.0000 0.0000
vn 0.0000 1.0000 0.0000
vn 0.0000 1.0000 0.0000
vn 0.0000 1.0000 0.0000
vn 0.0000 1.0000 0.0000
vn 0.0000 1.0000 0.0000
vn 0.0000 1.0000 0.0000
vn 0.0000 1.0000 0.0000
vn 0.0000 1.0000 0.0000
vn 0.0000 1.0000 0.0000
vn 0.0000 1.0000 0.0000
vn 0.0000 1.0000 0.0000
vn 0.0000 1.0000 0.0000
vn 0.0000 1.0000 0.0000
vn 0.0000 1.0000 0.0000
vn 0.0000 1.0000 0.0000
vn 0.0000 1.0000 0.0000
vn 0.0000 1.0000 0.0000
vn 0.0000 1.0000 0.0000
vn 0.0000 1.0000 0.0000
vn 0.0000 1.0000 0.0000
vn 0.0000 1.0000 0.0000
vn 0.0000 1.0000 0.0000
vn 0.0000 1.0000 0.0000
vn 0.0000 1.0000 0.0000
vn 0.0000 1.0000 0.0000
vn 0.0000 1.0000 0.0000
vn 0.0000 1.0000 0.0000
vn 0.0000 1.0000 0.0000
vn 0.0000 1.0000 0.0000
vn 0.0000 1.0000 0.0000
vn 0.0000 1.0000 0.0000
vn 0.0000 1.0000 0.0000
vn 0.0000 1.0000 0.0000
vn 0.0000 1.0000 0.0000
vn 0.0000 1.0000 0.0000
vn 0.0000 1.0000 0.0000
vn 0.0000 1.0000 0.0000
vn 0.0000 1.0000 0.0000
vn 0.0000 1.0000 0.0000
vn 0.0000 1.0000 0.0000
vn 0.0000 1.0000 0.0000
vn 0.0000 1.0000 0.0000
g cave_enter_0
usemtl doukutu01
f 1/1/1 2/2/2 3/3/3
f 4/4/4 5/5/5 6/6/6
f 7/7/7 8/8/8 9/9/9
f 10/10/10 11/11/11 12/12/12
f 13/13/13 14/14/14 15/15/15
f 16/16/16 17/17/17 18/18/18
f 19/19/19 20/20/20 21/21/21
f 22/22/22 23/23/23 24/24/24
f 25/25/25 26/26/26 27/27/27
f 28/28/28 29/29/29 30/30/30
f 31/31/31 32/32/32 33/33/33
f 34/34/34 35/35/35 36/36/36
f 37/37/37 38/38/38 39/39/39
f 40/40/40 41/41/41 42/42/42
f 43/43/43 44/44/44 45/45/45
f 46/46/46 47/47/47 48/48/48
f 49/49/49 50/50/50 51/51/51
f 52/52/52 53/53/53 54/54/54
f 55/55/55 56/56/56 57/57/57
f 58/58/58 59/59/59 60/60/60
f 61/61/61 62/62/62 63/63/63
f 64/64/64 65/65/65 66/66/66
v 4.00000 1.00000 1.00000
v 5.00000 0.75000 0.50000
v 4.00000 0.75000 0.50000
v 4.00000 1.00000 1.00000
v 5.00000 1.00000 1.00000
v 5.00000 0.75000 0.50000
v 0.00000 1.00000 1.00000
v 1.00000 0.75000 0.50000
v 0.00000 0.75000 0.50000
v 0.00000 1.00000 1.00000
v 1.00000 1.00000 1.00000
v 1.00000 0.75000 0.50000
v 0.00000 2.00000 2.00000
v 1.00000 1.75000 1.50000
v 0.00000 1.75000 1.50000
v 0.00000 2.00000 2.00000
v 1.00000 2.00000 2.00000
v 1.00000 1.75000 1.50000
v 1.00000 2.00000 2.00000
v 4.00000 1.75000 1.50000
v 1.00000 1.75000 1.50000
v 1.00000 2.00000 2.00000
v 4.00000 2.00000 2.00000
v 4.00000 1.75000 1.50000
v 4.00000 2.00000 2.00000
v 5.00000 1.75000 1.50000
v 4.00000 1.75000 1.50000
v 4.00000 2.00000 2.00000
v 5.00000 2.00000 2.00000
v 5.00000 1.75000 1.50000
vt 0.00005 0.00002
vt 1.00005 -0.99998
vt 0.00005 -0.99998
vt 0.00005 0.00002
vt 1.00000 -0.00014
vt 1.00005 -0.99998
vt 0.00005 0.00002
vt 1.00005 -0.99998
vt 0.00005 -0.99998
vt 0.00005 0.00002
vt 1.00000 -0.00014
vt 1.00005 -0.99998
vt -0.99995 0.00002
vt -0.00008 -0.99981
vt -0.99995 -0.99998
vt -0.99995 0.00002
vt -0.00009 -0.00030
vt -0.00008 -0.99981
vt 0.00023 -0.00020
vt 2.99994 -0.99969
vt 0.00028 -0.99962
vt 0.00023 -0.00020
vt 2.99994 -0.00059
vt 2.99994 -0.99969
vt 2.99994 0.00002
vt 4.00005 -0.99998
vt 2.99994 -0.99998
vt 2.99994 0.00002
vt 4.00000 -0.00014
vt 4.00005 -0.99998
vn 0.0000 1.0000 0.0000
vn 0.0000 1.0000 0.0000
vn 0.0003 1.0000 0.0000
vn 0.0000 1.0000 0.0000
vn 0.0000 1.0000 0.0000
vn 0.0000 1.0000 0.0000
vn 0.0000 1.0000 0.0000
vn 0.0000 1.0000 0.0000
vn 0.0003 1.0000 0.0000
vn 0.0000 1.0000 0.0000
vn 0.0000 1.0000 0.0000
vn 0.0000 1.0000 0.0000
vn 0.0000 1.0000 0.0000
vn 0.0000 1.0000 0.0000
vn 0.0003 1.0000 0.0000
vn 0.0000 1.0000 0.0000
vn 0.0000 1.0000 0.0000
vn 0.0000 1.0000 0.0000
vn 0.0000 1.0000 0.0000
vn 0.0000 1.0000 0.0000
vn 0.0000 1.0000 0.0000
vn 0.0000 1.0000 0.0000
vn 0.0000 1.0000 0.0000
vn 0.0000 1.0000 0.0000
vn 0.0000 1.0000 0.0000
vn 0.0000 1.0000 0.0000
vn 0.0000 1.0000 0.0000
vn 0.0000 1.0000 0.0000
vn 0.0000 1.0000 0.0000
vn 0.0000 1.0000 0.0000
g cave_enter_1
usemtl gake1_0
f 67/67/67 68/68/68 69/69/69
f 70/70/70 71/71/71 72/72/72
f 73/73/73 74/74/74 75/75/75
f 76/76/76 77/77/77 78/78/78
f 79/79/79 80/80/80 81/81/81
f 82/82/82 83/83/83 84/84/84
f 85/85/85 86/86/86 87/87/87
f 88/88/88 89/89/89 90/90/90
f 91/91/91 92/92/92 93/93/93
f 94/94/94 95/95/95 96/96/96
v 4.00000 0.75000 0.50000
v 5.00000 0.00000 0.00000
v 4.00000 0.00000 0.00000
v 4.00000 0.75000 0.50000
v 5.00000 0.75000 0.50000
v 5.00000 0.00000 0.00000
v 0.00000 0.75000 0.50000
v 1.00000 0.00000 0.00000
v 0.00000 0.00000 0.00000
v 0.00000 0.75000 0.50000
v 1.00000 0.75000 0.50000
v 1.00000 0.00000 0.00000
v 0.00000 1.75000 1.50000
v 1.00000 1.00000 1.00000
v 0.00000 1.00000 1.00000
v 0.00000 1.75000 1.50000
v 1.00000 1.75000 1.50000
v 1.00000 1.00000 1.00000
v 4.00000 1.75000 1.50000
v 5.00000 1.00000 1.00000
v 4.00000 1.00000 1.00000
v 4.00000 1.75000 1.50000
v 5.00000 1.75000 1.50000
v 5.00000 1.00000 1.00000
vt 0.00000 0.00000
vt 1.00000 -1.00000
vt 0.00000 -1.00000
vt 0.00000 0.00000
vt 1.00000 0.00000
vt 1.00000 -1.00000
vt 0.00000 0.00000
vt 1.00000 -1.00000
vt 0.00000 -1.00000
vt 0.00000 0.00000
vt 1.00000 0.00000
vt 1.00000 -1.00000
vt 0.00000 0.00000
vt 1.00000 -1.00000
vt 0.00000 -1.00000
vt 0.00000 0.00000
vt 0.99991 -0.00011
vt 1.00000 -1.00000
vt 0.00000 0.00000
vt 1.00000 -1.00000
vt 0.00000 -1.00000
vt 0.00000 0.00000
vt 1.00000 0.00000
vt 1.00000 -1.00000
vn 0.0003 1.0000 0.0000
vn 0.0000 1.0000 0.0000
vn 0.0000 1.0000 0.0000
vn 0.0003 1.0000 0.0000
vn 0.0000 1.0000 0.0000
vn 0.0000 1.0000 0.0000
vn 0.0003 1.0000 0.0000
vn 0.0000 1.0000 0.0000
vn 0.0000 1.0000 0.0000
vn 0.0003 1.0000 0.0000
vn 0.0000 1.0000 0.0000
vn 0.0000 1.0000 0.0000
vn 0.0003 1.0000 0.0000
vn 0.0000 1.0000 0.0000
vn 0.0000 1.0000 0.0000
vn 0.0003 1.0000 0.0000
vn 0.0000 1.0000 0.0000
vn 0.0000 1.0000 0.0000
vn 0.0000 1.0000 0.0000
vn 0.0000 1.0000 0.0000
vn 0.0000 1.0000 0.0000
vn 0.0000 1.0000 0.0000
vn 0.0000 1.0000 0.0000
vn 0.0000 1.0000 0.0000
g cave_enter_2
usemtl gake01
f 97/97/97 98/98/98 99/99/99
f 100/100/100 101/101/101 102/102/102
f 103/103/103 104/104/104 105/105/105
f 106/106/106 107/107/107 108/108/108
f 109/109/109 110/110/110 111/111/111
f 112/112/112 113/113/113 114/114/114
f 115/115/115 116/116/116 117/117/117
f 118/118/118 119/119/119 120/120/120
v 0.00000 1.00000 1.00000
v 1.00000 1.00000 2.00000
v 1.00000 1.00000 1.00000
v 0.00000 1.00000 1.00000
v 0.00000 1.00000 2.00000
v 1.00000 1.00000 2.00000
v 4.00000 1.00000 1.00000
v 5.00000 1.00000 2.00000
v 5.00000 1.00000 1.00000
v 4.00000 1.00000 1.00000
v 4.00000 1.00000 2.00000
v 5.00000 1.00000 2.00000
vt 0.00000 0.00000
vt 1.00000 1.00000
vt 1.00000 0.00000
vt 0.00000 0.00000
vt 0.00000 1.00000
vt 1.00000 1.00000
vt 0.00000 0.00000
vt 1.00000 1.00000
vt 1.00000 0.00000
vt 0.00000 0.00000
vt 0.00000 1.00000
vt 1.00000 1.00000
vn 0.0000 1.0000 0.0000
vn 0.0000 1.0000 0.0000
vn 0.0000 1.0000 0.0000
vn 0.0000 1.0000 0.0000
vn 0.0000 1.0000 0.0000
vn 0.0000 1.0000 0.0000
vn 0.0000 1.0000 0.0000
vn 0.0000 1.0000 0.0000
vn 0.0000 1.0000 0.0000
vn 0.0000 1.0000 0.0000
vn 0.0000 1.0000 0.0000
vn 0.0000 1.0000 0.0000
g cave_enter_3
usemtl gake_futa
f 121/121/121 122/122/122 123/123/123
f 124/124/124 125/125/125 126/126/126
f 127/127/127 128/128/128 129/129/129
f 130/130/130 131/131/131 132/132/132
