# tall_grass_corner_sw
# generated by tools/assets/build-tiles.js — do not edit
mtllib tall_grass_corner_sw.mtl
o tall_grass_corner_sw
v 1.00000 0.12500 0.50000
v 0.50000 0.12500 0.00000
v 0.50000 0.12500 0.50000
v 1.00000 0.12500 0.50000
v 1.00000 0.12500 0.00000
v 0.50000 0.12500 0.00000
vt 0.50000 0.00000
vt 0.00000 -0.50000
vt 0.00000 0.00000
vt 0.50000 0.00000
vt 0.50000 -0.50000
vt 0.00000 -0.50000
vn 0.0000 1.0000 0.0000
vn 0.0000 1.0000 0.0000
vn 0.0000 1.0000 0.0000
vn 0.0000 1.0000 0.0000
vn 0.0000 1.0000 0.0000
vn 0.0000 1.0000 0.0000
g tall_grass_corner_sw_0
usemtl egrass_ro
f 1/1/1 2/2/2 3/3/3
f 4/4/4 5/5/5 6/6/6
