# tall_grass_inner_se
# generated by tools/assets/build-tiles.js — do not edit
mtllib tall_grass_inner_se.mtl
o tall_grass_inner_se
v 1.00000 0.12500 0.00000
v 0.50000 0.12500 0.50000
v 1.00000 0.12500 0.50000
v 1.00000 0.12500 0.00000
v 0.50000 0.12500 0.00000
v 0.50000 0.12500 0.50000
vt 1.00000 -0.50000
vt 0.50000 0.00000
vt 1.00000 0.00000
vt 1.00000 -0.50000
vt 0.50000 -0.50000
vt 0.50000 0.00000
vn 0.0000 1.0000 0.0000
vn 0.0000 1.0000 0.0000
vn 0.0000 1.0000 0.0000
vn 0.0000 1.0000 0.0000
vn 0.0000 1.0000 0.0000
vn 0.0000 1.0000 0.0000
g tall_grass_inner_se_0
usemtl egrass_u
f 1/1/1 2/2/2 3/3/3
f 4/4/4 5/5/5 6/6/6
v 0.50000 0.12500 0.50000
v 0.00000 0.12500 0.00000
v 0.00000 0.12500 0.50000
v 0.50000 0.12500 0.50000
v 0.50000 0.12500 0.00000
v 0.00000 0.12500 0.00000
vt 0.50000 -0.50000
vt 0.00000 -1.00000
vt 0.00000 -0.50000
vt 0.50000 -0.50000
vt 0.50000 -1.00000
vt 0.00000 -1.00000
vn 0.0000 1.0000 0.0000
vn 0.0000 1.0000 0.0000
vn 0.0000 1.0000 0.0000
vn 0.0000 1.0000 0.0000
vn 0.0000 1.0000 0.0000
vn 0.0000 1.0000 0.0000
g tall_grass_inner_se_1
usemtl egrass_ri
f 7/7/7 8/8/8 9/9/9
f 10/10/10 11/11/11 12/12/12
v 0.50000 0.12500 1.00000
v 0.00000 0.12500 0.50000
v 0.00000 0.12500 1.00000
v 0.50000 0.12500 1.00000
v 0.50000 0.12500 0.50000
v 0.00000 0.12500 0.50000
vt 1.00000 0.00000
vt 0.50000 -0.50000
vt 0.50000 0.00000
vt 1.00000 0.00000
vt 1.00000 -0.50000
vt 0.50000 -0.50000
vn 0.0000 1.0000 0.0000
vn 0.0000 1.0000 0.0000
vn 0.0000 1.0000 0.0000
vn 0.0000 1.0000 0.0000
vn 0.0000 1.0000 0.0000
vn 0.0000 1.0000 0.0000
g tall_grass_inner_se_2
usemtl egrass_v
f 13/13/13 14/14/14 15/15/15
f 16/16/16 17/17/17 18/18/18
