# sea
# generated by tools/assets/build-tiles.js — do not edit
mtllib sea.mtl
o sea
v 1.00000 0.31250 0.00000
v -0.00000 0.31250 1.00000
v 1.00000 0.31250 1.00000
v 1.00000 0.31250 0.00000
v -0.00000 0.31250 0.00000
v -0.00000 0.31250 1.00000
vt 1.75000 -1.50000
vt 1.50000 -1.25000
vt 1.75000 -1.25000
vt 1.75000 -1.50000
vt 1.50000 -1.50000
vt 1.50000 -1.25000
vn 0.0000 1.0000 0.0000
vn 0.0000 1.0000 0.0000
vn 0.0000 1.0000 0.0000
vn 0.0000 1.0000 0.0000
vn 0.0000 1.0000 0.0000
vn 0.0000 1.0000 0.0000
g sea_0
usemtl sea_mizu1_1
f 1/1/1 2/2/2 3/3/3
f 4/4/4 5/5/5 6/6/6
v 1.00000 -0.50000 0.00000
v 0.00000 -0.50000 1.00000
v 1.00000 -0.50000 1.00000
v 1.00000 -0.50000 0.00000
v 0.00000 -0.50000 0.00000
v 0.00000 -0.50000 1.00000
vt -1.75000 -0.50000
vt -1.50000 -0.75000
vt -1.75000 -0.75000
vt -1.75000 -0.50000
vt -1.50000 -0.50000
vt -1.50000 -0.75000
vn 0.0000 1.0000 0.0000
vn 0.0000 1.0000 0.0000
vn 0.0000 1.0000 0.0000
vn 0.0000 1.0000 0.0000
vn 0.0000 1.0000 0.0000
vn 0.0000 1.0000 0.0000
g sea_1
usemtl sea_mizu1
f 7/7/7 8/8/8 9/9/9
f 10/10/10 11/11/11 12/12/12
