# walk_edge_side_edge_w
# generated by tools/assets/build-tiles.js — do not edit
mtllib walk_edge_side_edge_w.mtl
o walk_edge_side_edge_w
v 1.00000 -0.65000 0.00000
v 0.00000 -0.65000 1.00000
v 1.00000 -0.65000 1.00000
v 1.00000 -0.65000 0.00000
v 0.00000 -0.65000 0.00000
v 0.00000 -0.65000 1.00000
vt 0.00000 0.00000
vt 1.00000 -1.00000
vt 1.00000 0.00000
vt 0.00000 0.00000
vt 0.00000 -1.00000
vt 1.00000 -1.00000
vn 0.0000 1.0000 0.0000
vn 0.0000 1.0000 0.0000
vn 0.0000 1.0000 0.0000
vn 0.0000 1.0000 0.0000
vn 0.0000 1.0000 0.0000
vn 0.0000 1.0000 0.0000
g walk_edge_side_edge_w_0
usemtl sea_zanami2
f 1/1/1 2/2/2 3/3/3
f 4/4/4 5/5/5 6/6/6
