# walkable_water_center
# generated by tools/assets/build-tiles.js — do not edit
mtllib walkable_water_center.mtl
o walkable_water_center
v 0.00000 -0.65000 0.00000
v 1.00000 -0.65000 1.00000
v 1.00000 -0.65000 0.00000
v 0.00000 -0.65000 0.00000
v 0.00000 -0.65000 1.00000
v 1.00000 -0.65000 1.00000
vt 5.00000 -2.00000
vt 6.00000 -1.00000
vt 6.00000 -2.00000
vt 5.00000 -2.00000
vt 5.00000 -1.00000
vt 6.00000 -1.00000
vn 0.0000 1.0000 0.0000
vn 0.0000 1.0000 0.0000
vn 0.0000 1.0000 0.0000
vn 0.0000 1.0000 0.0000
vn 0.0000 1.0000 0.0000
vn 0.0000 1.0000 0.0000
g walkable_water_center_0
usemtl sea_asase02
f 1/1/1 2/2/2 3/3/3
f 4/4/4 5/5/5 6/6/6
