# snowlayer_center
# generated by tools/assets/build-tiles.js — do not edit
mtllib snowlayer_center.mtl
o snowlayer_center
v 1.00000 0.08000 1.00012
v 0.00000 0.08000 -0.00037
v 0.00000 0.08000 1.00012
v 1.00000 0.08000 1.00012
v 1.00000 0.08000 0.00012
v 0.00000 0.08000 -0.00037
vt 1.00000 1.00000
vt 0.00000 0.00000
vt 0.00000 1.00000
vt 1.00000 1.00000
vt 1.00000 0.00000
vt 0.00000 0.00000
vn 0.0000 1.0000 0.0000
vn 0.0000 1.0000 0.0000
vn 0.0000 1.0000 0.0000
vn 0.0000 1.0000 0.0000
vn 0.0000 1.0000 0.0000
vn 0.0000 1.0000 0.0000
g snowlayer_center_0
usemtl s_snow04
f 1/1/1 2/2/2 3/3/3
f 4/4/4 5/5/5 6/6/6
