# marsh_wall01_corner_ne
# generated by tools/assets/build-tiles.js — do not edit
mtllib marsh_wall01_corner_ne.mtl
o marsh_wall01_corner_ne
v 0.93750 0.00000 0.31250
v 0.78906 0.09863 1.00000
v 1.00000 0.00000 1.00000
v 0.75000 0.09863 0.50000
v 0.78906 0.09863 1.00000
v 0.93750 0.00000 0.31250
v 0.62500 0.00000 0.06250
v 0.75000 0.09863 0.50000
v 0.93750 0.00000 0.31250
v 0.43750 0.09863 0.25000
v 0.75000 0.09863 0.50000
v 0.62500 0.00000 0.06250
v 0.00000 0.00000 0.00000
v 0.43750 0.09863 0.25000
v 0.62500 0.00000 0.06250
v 0.00000 0.09863 0.21094
v 0.43750 0.09863 0.25000
v 0.00000 0.00000 0.00000
v 0.00000 0.09863 0.21094
v 0.00000 0.99707 0.66992
v 0.43750 0.09863 0.25000
v 0.43750 0.09863 0.25000
v 0.00000 0.99707 0.66992
v 0.75000 0.09863 0.50000
v 0.00000 0.99707 0.66992
v 0.33008 0.99707 1.00000
v 0.75000 0.09863 0.50000
v 0.75000 0.09863 0.50000
v 0.33008 0.99707 1.00000
v 0.78906 0.09863 1.00000
v 0.33008 0.99707 1.00000
v 0.00000 0.99707 0.66992
v 0.00000 1.00000 1.00000
vt -0.15820 -0.98633
vt -0.03320 -0.89258
vt -0.00195 -0.98633
vt -0.15820 -0.89258
vt -0.03320 -0.89258
vt -0.15820 -0.98633
vt -0.34570 -0.98633
vt -0.15820 -0.89258
vt -0.15820 -0.98633
vt -0.34570 -0.89258
vt -0.15820 -0.89258
vt -0.34570 -0.98633
vt -0.50195 -0.98633
vt -0.34570 -0.89258
vt -0.34570 -0.98633
vt -0.47070 -0.89258
vt -0.34570 -0.89258
vt -0.50195 -0.98633
vt -0.47070 -0.89258
vt -0.34570 -0.60547
vt -0.34570 -0.89258
vt -0.34570 -0.89258
vt -0.34570 -0.60547
vt -0.15820 -0.89258
vt -0.34570 -0.60547
vt -0.15820 -0.60547
vt -0.15820 -0.89258
vt -0.15820 -0.89258
vt -0.15820 -0.60547
vt -0.03320 -0.89258
vt -0.15820 -0.60352
vt -0.34570 -0.60352
vt -0.25195 -0.51172
vn 0.4233 0.9052 -0.0385
vn 0.4233 0.9052 -0.0385
vn 0.4233 0.9052 -0.0385
vn 0.4383 0.8982 -0.0342
vn 0.4383 0.8982 -0.0342
vn 0.4383 0.8982 -0.0342
vn 0.2190 0.9366 -0.2737
vn 0.2190 0.9366 -0.2737
vn 0.2190 0.9366 -0.2737
vn 0.2190 0.9366 -0.2737
vn 0.2190 0.9366 -0.2737
vn 0.2190 0.9366 -0.2737
vn 0.0431 0.9013 -0.4310
vn 0.0431 0.9013 -0.4310
vn 0.0431 0.9013 -0.4310
vn 0.0378 0.9052 -0.4233
vn 0.0378 0.9052 -0.4233
vn 0.0378 0.9052 -0.4233
vn 0.0793 0.4535 -0.8877
vn 0.0793 0.4535 -0.8877
vn 0.0793 0.4535 -0.8877
vn 0.5192 0.5561 -0.6490
vn 0.5192 0.5561 -0.6490
vn 0.5192 0.5561 -0.6490
vn 0.5727 0.5864 -0.5727
vn 0.5727 0.5864 -0.5727
vn 0.5727 0.5864 -0.5727
vn 0.8884 0.4538 -0.0694
vn 0.8884 0.4538 -0.0694
vn 0.8884 0.4538 -0.0694
vn 0.0089 0.9999 -0.0089
vn 0.0089 0.9999 -0.0089
vn 0.0089 0.9999 -0.0089
g marsh_wall01_corner_ne_0
usemtl ms09_03
f 1/1/1 2/2/2 3/3/3
f 4/4/4 5/5/5 6/6/6
f 7/7/7 8/8/8 9/9/9
f 10/10/10 11/11/11 12/12/12
f 13/13/13 14/14/14 15/15/15
f 16/16/16 17/17/17 18/18/18
f 19/19/19 20/20/20 21/21/21
f 22/22/22 23/23/23 24/24/24
f 25/25/25 26/26/26 27/27/27
f 28/28/28 29/29/29 30/30/30
f 31/31/31 32/32/32 33/33/33
