# marsh_wall01_edge_n
# generated by tools/assets/build-tiles.js — do not edit
mtllib marsh_wall01_edge_n.mtl
o marsh_wall01_edge_n
v 0.00000 0.99707 0.66992
v 1.00000 1.00000 1.00000
v 1.00000 0.99707 0.66992
v 0.00000 0.99707 0.66992
v 0.00000 1.00000 1.00000
v 1.00000 1.00000 1.00000
v 0.00000 0.09863 0.21094
v 1.00000 0.99707 0.66992
v 1.00000 0.09863 0.21094
v 0.00000 0.09863 0.21094
v 0.00000 0.99707 0.66992
v 1.00000 0.99707 0.66992
v 1.00000 0.09863 0.21094
v 0.00000 0.00000 0.00000
v 0.00000 0.09863 0.21094
v 1.00000 0.09863 0.21094
v 1.00000 0.00000 0.00000
v 0.00000 0.00000 0.00000
vt 0.00000 0.40430
vt 0.50000 0.48633
vt 0.50000 0.40430
vt 0.00000 0.40430
vt 0.00000 0.48633
vt 0.50000 0.48633
vt 0.00000 0.10742
vt 0.50000 0.40430
vt 0.50000 0.10742
vt 0.00000 0.10742
vt 0.00000 0.40430
vt 0.50000 0.40430
vt 0.50000 0.10742
vt 0.00000 0.01367
vt 0.00000 0.10742
vt 0.50000 0.10742
vt 0.50000 0.01367
vt 0.00000 0.01367
vn 0.0000 1.0000 -0.0089
vn 0.0000 1.0000 -0.0089
vn 0.0000 1.0000 -0.0089
vn 0.0000 1.0000 -0.0089
vn 0.0000 1.0000 -0.0089
vn 0.0000 1.0000 -0.0089
vn 0.0000 0.4549 -0.8905
vn 0.0000 0.4549 -0.8905
vn 0.0000 0.4549 -0.8905
vn 0.0000 0.4549 -0.8905
vn 0.0000 0.4549 -0.8905
vn 0.0000 0.4549 -0.8905
vn 0.0000 0.9059 -0.4236
vn 0.0000 0.9059 -0.4236
vn 0.0000 0.9059 -0.4236
vn 0.0000 0.9059 -0.4236
vn 0.0000 0.9059 -0.4236
vn 0.0000 0.9059 -0.4236
g marsh_wall01_edge_n_0
usemtl ms09_03
f 1/1/1 2/2/2 3/3/3
f 4/4/4 5/5/5 6/6/6
f 7/7/7 8/8/8 9/9/9
f 10/10/10 11/11/11 12/12/12
f 13/13/13 14/14/14 15/15/15
f 16/16/16 17/17/17 18/18/18
