# marsh_wall01_i_inner_nw
# generated by tools/assets/build-tiles.js — do not edit
mtllib marsh_wall01_i_inner_nw.mtl
o marsh_wall01_i_inner_nw
v 0.66992 0.99707 0.66992
v 0.21094 0.09863 0.00000
v 0.10547 0.09863 0.10547
v 0.00000 0.09863 0.21094
v 0.66992 0.99707 0.66992
v 0.10547 0.09863 0.10547
v 0.00000 0.09863 0.21094
v 0.10547 0.09863 0.10547
v 0.00000 0.00000 0.00000
v 0.21094 0.09863 0.00000
v 0.00000 0.00000 0.00000
v 0.10547 0.09863 0.10547
v 0.00000 0.99707 0.66992
v 0.66992 0.99707 0.66992
v 0.00000 0.09863 0.21094
v 0.00000 0.99707 0.66992
v 1.00000 1.00000 1.00000
v 0.66992 0.99707 0.66992
v 1.00000 1.00000 0.00000
v 0.66992 0.99707 0.66992
v 1.00000 1.00000 1.00000
v 0.66992 0.99707 0.66992
v 1.00000 1.00000 0.00000
v 0.66992 0.99707 0.00000
v 0.66992 0.99707 0.00000
v 0.21094 0.09863 0.00000
v 0.66992 0.99707 0.66992
v 1.00000 1.00000 1.00000
v 0.00000 0.99707 0.66992
v 0.00000 1.00000 1.00000
vt 0.41016 -0.59375
vt 0.56445 -0.89063
vt 0.41016 -0.89063
vt 0.35742 -0.89063
vt 0.20508 -0.59375
vt 0.20508 -0.89063
vt 0.53904 -0.87974
vt 0.69138 -0.87974
vt 0.69138 -0.97154
vt 0.84373 -0.87974
vt 0.69138 -0.97154
vt 0.69138 -0.87974
vt 0.35742 -0.59375
vt 0.20508 -0.59375
vt 0.35742 -0.89063
vt 0.86523 0.39844
vt 1.50000 0.48242
vt 1.27930 0.39844
vt 0.86523 0.48242
vt 0.52734 0.39844
vt 0.36523 0.48242
vt 0.52734 0.39844
vt 0.86523 0.48242
vt 0.86523 0.39844
vt 0.56445 -0.59375
vt 0.56445 -0.89063
vt 0.41016 -0.59375
vt 1.50000 0.48242
vt 0.86523 0.39844
vt 0.86523 0.48242
vn -0.5286 0.6642 -0.5286
vn -0.5286 0.6642 -0.5286
vn -0.5286 0.6642 -0.5286
vn -0.5286 0.6642 -0.5286
vn -0.5286 0.6642 -0.5286
vn -0.5286 0.6642 -0.5286
vn -0.3900 0.8341 -0.3900
vn -0.3900 0.8341 -0.3900
vn -0.3900 0.8341 -0.3900
vn -0.3900 0.8341 -0.3900
vn -0.3900 0.8341 -0.3900
vn -0.3900 0.8341 -0.3900
vn 0.0000 0.4549 -0.8905
vn 0.0000 0.4549 -0.8905
vn 0.0000 0.4549 -0.8905
vn 0.0000 1.0000 -0.0089
vn 0.0000 1.0000 -0.0089
vn 0.0000 1.0000 -0.0089
vn -0.0089 1.0000 0.0000
vn -0.0089 1.0000 0.0000
vn -0.0089 1.0000 0.0000
vn -0.0089 1.0000 -0.0000
vn -0.0089 1.0000 -0.0000
vn -0.0089 1.0000 -0.0000
vn -0.8905 0.4549 0.0000
vn -0.8905 0.4549 0.0000
vn -0.8905 0.4549 0.0000
vn 0.0000 1.0000 -0.0089
vn 0.0000 1.0000 -0.0089
vn 0.0000 1.0000 -0.0089
g marsh_wall01_i_inner_nw_0
usemtl ms09_03
f 1/1/1 2/2/2 3/3/3
f 4/4/4 5/5/5 6/6/6
f 7/7/7 8/8/8 9/9/9
f 10/10/10 11/11/11 12/12/12
f 13/13/13 14/14/14 15/15/15
f 16/16/16 17/17/17 18/18/18
f 19/19/19 20/20/20 21/21/21
f 22/22/22 23/23/23 24/24/24
f 25/25/25 26/26/26 27/27/27
f 28/28/28 29/29/29 30/30/30
