# marsh_pond01_center
# generated by tools/assets/build-tiles.js — do not edit
mtllib marsh_pond01_center.mtl
o marsh_pond01_center
v 0.00000 -0.50000 1.00000
v 1.00000 -0.50000 0.00000
v 0.00000 -0.50000 0.00000
v 0.00000 -0.50000 1.00000
v 1.00000 -0.50000 1.00000
v 1.00000 -0.50000 0.00000
vt 0.03125 0.01563
vt 1.02083 -0.96875
vt 0.03125 -0.96875
vt 0.03125 0.01563
vt 1.02083 0.01563
vt 1.02083 -0.96875
vn 0.0000 1.0000 0.0000
vn 0.0000 1.0000 0.0000
vn 0.0000 1.0000 0.0000
vn 0.0000 1.0000 0.0000
vn 0.0000 1.0000 0.0000
vn 0.0000 1.0000 0.0000
g marsh_pond01_center_0
usemtl ms09_07
f 1/1/1 2/2/2 3/3/3
f 4/4/4 5/5/5 6/6/6
