# pond_border_lowp_edge_e
# generated by tools/assets/build-tiles.js — do not edit
mtllib pond_border_lowp_edge_e.mtl
o pond_border_lowp_edge_e
v 0.68750 -0.50000 0.00000
v 1.00000 -0.50000 1.00000
v 1.00000 -0.50000 0.00000
v 0.68750 -0.50000 0.00000
v 0.68750 -0.50000 1.00000
v 1.00000 -0.50000 1.00000
v 0.37500 -0.50000 0.00000
v 0.68750 -0.50000 1.00000
v 0.68750 -0.50000 0.00000
v 0.37500 -0.50000 0.00000
v 0.37500 -0.50000 1.00000
v 0.68750 -0.50000 1.00000
vt 1.00000 -0.62500
vt 0.00000 -0.06250
vt 1.00000 -0.06250
vt 1.00000 -0.62500
vt 0.00000 -0.62500
vt 0.00000 -0.06250
vt 1.00000 -0.93750
vt 0.00000 -0.62500
vt 1.00000 -0.62500
vt 1.00000 -0.93750
vt 0.00000 -0.93750
vt 0.00000 -0.62500
vn 0.0000 1.0000 0.0000
vn 0.0000 1.0000 0.0000
vn 0.0000 1.0000 0.0000
vn 0.0000 1.0000 0.0000
vn 0.0000 1.0000 0.0000
vn 0.0000 1.0000 0.0000
vn 0.0000 1.0000 0.0000
vn 0.0000 1.0000 0.0000
vn 0.0000 1.0000 0.0000
vn 0.0000 1.0000 0.0000
vn 0.0000 1.0000 0.0000
vn 0.0000 1.0000 0.0000
g pond_border_lowp_edge_e_0
usemtl pond_edge
f 1/1/1 2/2/2 3/3/3
f 4/4/4 5/5/5 6/6/6
f 7/7/7 8/8/8 9/9/9
f 10/10/10 11/11/11 12/12/12
v 1.22363 0.12695 1.00000
v 1.01563 0.10742 0.00000
v 1.01563 0.10742 1.00000
v 1.22363 0.12695 1.00000
v 1.22363 0.12695 0.00000
v 1.01563 0.10742 0.00000
v 1.01563 0.10742 1.00000
v 0.70703 -0.47656 0.00000
v 0.70703 -0.47656 1.00000
v 1.01563 0.10742 1.00000
v 1.01563 0.10742 0.00000
v 0.70703 -0.47656 0.00000
vt 0.00000 -0.01953
vt 1.00000 -0.20703
vt 0.00000 -0.20703
vt 0.00000 -0.01953
vt 1.00000 -0.01953
vt 1.00000 -0.20703
vt 0.00000 -0.20703
vt 1.00000 -0.97656
vt 0.00000 -0.97656
vt 0.00000 -0.20703
vt 1.00000 -0.20703
vt 1.00000 -0.97656
vn -0.0935 0.9956 0.0000
vn -0.5556 0.8314 0.0000
vn -0.5556 0.8314 0.0000
vn -0.0935 0.9956 0.0000
vn -0.0935 0.9956 0.0000
vn -0.5556 0.8314 0.0000
vn -0.5556 0.8314 0.0000
vn -0.8841 0.4672 0.0000
vn -0.8841 0.4672 0.0000
vn -0.5556 0.8314 0.0000
vn -0.5556 0.8314 0.0000
vn -0.8841 0.4672 0.0000
g pond_border_lowp_edge_e_1
usemtl ms09_10
f 13/13/13 14/14/14 15/15/15
f 16/16/16 17/17/17 18/18/18
f 19/19/19 20/20/20 21/21/21
f 22/22/22 23/23/23 24/24/24
