# pond_border_lowp_corner_se
# generated by tools/assets/build-tiles.js — do not edit
mtllib pond_border_lowp_corner_se.mtl
o pond_border_lowp_corner_se
v 1.22363 0.12695 0.99414
v 1.01563 0.10742 0.00000
v 1.01563 0.10742 0.70801
v 1.22363 0.12695 0.99414
v 1.22363 0.12695 0.00000
v 1.01563 0.10742 0.00000
v 0.99707 0.12695 1.22168
v 0.00000 0.10742 1.01563
v 0.00000 0.12695 1.22363
v 0.99707 0.12695 1.22168
v 0.71094 0.10742 1.01563
v 0.00000 0.10742 1.01563
v 0.70605 -0.47656 0.70703
v 0.00000 0.10742 1.01563
v 0.71094 0.10742 1.01563
v 0.70605 -0.47656 0.70703
v 0.00000 -0.47656 0.70703
v 0.00000 0.10742 1.01563
v 0.70605 -0.47656 0.70703
v 1.01563 0.10742 0.00000
v 0.70703 -0.47656 0.00000
v 0.70605 -0.47656 0.70703
v 1.01563 0.10742 0.70801
v 1.01563 0.10742 0.00000
v 1.22363 0.12695 0.99414
v 1.01563 0.10742 0.70801
v 0.71094 0.10742 1.01563
v 0.71094 0.10742 1.01563
v 1.01563 0.10742 0.70801
v 0.70605 -0.47656 0.70703
v 1.22363 0.12695 0.99414
v 0.71094 0.10742 1.01563
v 0.99707 0.12695 1.22168
vt 1.12500 -0.02637
vt 2.00000 -0.20703
vt 1.37500 -0.20703
vt 1.12500 -0.02637
vt 2.00000 -0.02637
vt 2.00000 -0.20703
vt 0.87891 -0.02637
vt 0.00000 -0.20703
vt 0.00000 -0.02637
vt 0.87891 -0.02637
vt 0.62500 -0.20703
vt 0.00000 -0.20703
vt 1.00000 -0.97656
vt 0.00000 -0.20703
vt 0.62500 -0.20703
vt 1.00000 -0.97656
vt 0.00000 -0.97656
vt 0.00000 -0.20703
vt 1.00000 -0.97656
vt 2.00000 -0.20703
vt 2.00000 -0.97656
vt 1.00000 -0.97656
vt 1.37500 -0.20703
vt 2.00000 -0.20703
vt 1.12500 -0.02637
vt 1.37500 -0.20703
vt 0.62500 -0.20703
vt 0.62500 -0.20703
vt 1.37500 -0.20703
vt 1.00000 -0.97656
vt 1.12500 -0.02637
vt 0.62500 -0.20703
vt 0.87891 -0.02637
vn -0.0541 0.9981 -0.0289
vn -0.5554 0.8316 -0.0003
vn -0.4364 0.8868 -0.1519
vn -0.0541 0.9981 -0.0289
vn -0.0935 0.9956 0.0000
vn -0.5554 0.8316 -0.0003
vn -0.0292 0.9981 -0.0540
vn -0.0001 0.8313 -0.5558
vn -0.0001 0.9956 -0.0939
vn -0.0292 0.9981 -0.0540
vn -0.4112 0.8187 -0.4008
vn -0.0001 0.8313 -0.5558
vn -0.5901 0.5500 -0.5910
vn -0.0001 0.8313 -0.5558
vn -0.4112 0.8187 -0.4008
vn -0.5901 0.5500 -0.5910
vn 0.0000 0.4672 -0.8841
vn -0.0001 0.8313 -0.5558
vn -0.5901 0.5500 -0.5910
vn -0.5554 0.8316 -0.0003
vn -0.8838 0.4678 -0.0006
vn -0.5901 0.5500 -0.5910
vn -0.4364 0.8868 -0.1519
vn -0.5554 0.8316 -0.0003
vn -0.0541 0.9981 -0.0289
vn -0.4364 0.8868 -0.1519
vn -0.4112 0.8187 -0.4008
vn -0.4112 0.8187 -0.4008
vn -0.4364 0.8868 -0.1519
vn -0.5901 0.5500 -0.5910
vn -0.0541 0.9981 -0.0289
vn -0.4112 0.8187 -0.4008
vn -0.0292 0.9981 -0.0540
g pond_border_lowp_corner_se_0
usemtl ms09_10
f 1/1/1 2/2/2 3/3/3
f 4/4/4 5/5/5 6/6/6
f 7/7/7 8/8/8 9/9/9
f 10/10/10 11/11/11 12/12/12
f 13/13/13 14/14/14 15/15/15
f 16/16/16 17/17/17 18/18/18
f 19/19/19 20/20/20 21/21/21
f 22/22/22 23/23/23 24/24/24
f 25/25/25 26/26/26 27/27/27
f 28/28/28 29/29/29 30/30/30
f 31/31/31 32/32/32 33/33/33
v 0.00000 -0.50000 0.68750
v 0.68750 -0.50000 0.00000
v 0.37500 -0.50000 0.00000
v 0.00000 -0.50000 1.00000
v 1.00000 -0.50000 1.00000
v 0.00000 -0.50000 0.68750
v 0.00000 -0.50000 0.68750
v 1.00000 -0.50000 1.00000
v 0.68750 -0.50000 0.00000
v 1.00000 -0.50000 1.00000
v 1.00000 -0.50000 0.00000
v 0.68750 -0.50000 0.00000
v 0.00000 -0.50000 0.68750
v 0.37500 -0.50000 0.00000
v 0.00000 -0.50000 0.37500
vt 0.00000 -0.62500
vt 1.00000 -0.62500
vt 1.00000 -0.93750
vt 0.00000 -0.06250
vt 0.50000 -0.06250
vt 0.00000 -0.62500
vt 0.00000 -0.62500
vt 0.50000 -0.06250
vt 1.00000 -0.62500
vt 0.50000 -0.06250
vt 1.00000 -0.06250
vt 1.00000 -0.62500
vt 0.00000 -0.62500
vt 1.00000 -0.93750
vt 0.00000 -0.93750
vn 0.0000 1.0000 0.0000
vn 0.0000 1.0000 0.0000
vn 0.0000 1.0000 0.0000
vn 0.0000 1.0000 0.0000
vn 0.0000 1.0000 0.0000
vn 0.0000 1.0000 0.0000
vn 0.0000 1.0000 0.0000
vn 0.0000 1.0000 0.0000
vn 0.0000 1.0000 0.0000
vn 0.0000 1.0000 0.0000
vn 0.0000 1.0000 0.0000
vn 0.0000 1.0000 0.0000
vn 0.0000 1.0000 0.0000
vn 0.0000 1.0000 0.0000
vn 0.0000 1.0000 0.0000
g pond_border_lowp_corner_se_1
usemtl pond_edge
f 34/34/34 35/35/35 36/36/36
f 37/37/37 38/38/38 39/39/39
f 40/40/40 41/41/41 42/42/42
f 43/43/43 44/44/44 45/45/45
f 46/46/46 47/47/47 48/48/48
