# pond_border_lowp_corner_sw
# generated by tools/assets/build-tiles.js — do not edit
mtllib pond_border_lowp_corner_sw.mtl
o pond_border_lowp_corner_sw
v 0.00586 0.12695 1.22363
v 1.00000 0.10742 1.01563
v 0.29199 0.10742 1.01563
v 0.00586 0.12695 1.22363
v 1.00000 0.12695 1.22363
v 1.00000 0.10742 1.01563
v -0.22168 0.12695 0.99707
v -0.01563 0.10742 0.00000
v -0.22363 0.12695 0.00000
v -0.22168 0.12695 0.99707
v -0.01563 0.10742 0.71094
v -0.01563 0.10742 0.00000
v 0.29297 -0.47656 0.70605
v -0.01563 0.10742 0.00000
v -0.01563 0.10742 0.71094
v 0.29297 -0.47656 0.70605
v 0.29297 -0.47656 0.00000
v -0.01563 0.10742 0.00000
v 0.29297 -0.47656 0.70605
v 1.00000 0.10742 1.01563
v 1.00000 -0.47656 0.70703
v 0.29297 -0.47656 0.70605
v 0.29199 0.10742 1.01563
v 1.00000 0.10742 1.01563
v 0.00586 0.12695 1.22363
v 0.29199 0.10742 1.01563
v -0.01563 0.10742 0.71094
v -0.01563 0.10742 0.71094
v 0.29199 0.10742 1.01563
v 0.29297 -0.47656 0.70605
v 0.00586 0.12695 1.22363
v -0.01563 0.10742 0.71094
v -0.22168 0.12695 0.99707
vt 1.12500 -0.02637
vt 2.00000 -0.20703
vt 1.37500 -0.20703
vt 1.12500 -0.02637
vt 2.00000 -0.02637
vt 2.00000 -0.20703
vt 0.87891 -0.02637
vt 0.00000 -0.20703
vt 0.00000 -0.02637
vt 0.87891 -0.02637
vt 0.62500 -0.20703
vt 0.00000 -0.20703
vt 1.00000 -0.97656
vt 0.00000 -0.20703
vt 0.62500 -0.20703
vt 1.00000 -0.97656
vt 0.00000 -0.97656
vt 0.00000 -0.20703
vt 1.00000 -0.97656
vt 2.00000 -0.20703
vt 2.00000 -0.97656
vt 1.00000 -0.97656
vt 1.37500 -0.20703
vt 2.00000 -0.20703
vt 1.12500 -0.02637
vt 1.37500 -0.20703
vt 0.62500 -0.20703
vt 0.62500 -0.20703
vt 1.37500 -0.20703
vt 1.00000 -0.97656
vt 1.12500 -0.02637
vt 0.62500 -0.20703
vt 0.87891 -0.02637
vn 0.0289 0.9981 -0.0541
vn 0.0003 0.8316 -0.5554
vn 0.1519 0.8868 -0.4364
vn 0.0289 0.9981 -0.0541
vn 0.0000 0.9956 -0.0935
vn 0.0003 0.8316 -0.5554
vn 0.0540 0.9981 -0.0292
vn 0.5558 0.8313 -0.0001
vn 0.0939 0.9956 -0.0001
vn 0.0540 0.9981 -0.0292
vn 0.4008 0.8187 -0.4112
vn 0.5558 0.8313 -0.0001
vn 0.5910 0.5500 -0.5901
vn 0.5558 0.8313 -0.0001
vn 0.4008 0.8187 -0.4112
vn 0.5910 0.5500 -0.5901
vn 0.8841 0.4672 0.0000
vn 0.5558 0.8313 -0.0001
vn 0.5910 0.5500 -0.5901
vn 0.0003 0.8316 -0.5554
vn 0.0006 0.4678 -0.8838
vn 0.5910 0.5500 -0.5901
vn 0.1519 0.8868 -0.4364
vn 0.0003 0.8316 -0.5554
vn 0.0289 0.9981 -0.0541
vn 0.1519 0.8868 -0.4364
vn 0.4008 0.8187 -0.4112
vn 0.4008 0.8187 -0.4112
vn 0.1519 0.8868 -0.4364
vn 0.5910 0.5500 -0.5901
vn 0.0289 0.9981 -0.0541
vn 0.4008 0.8187 -0.4112
vn 0.0540 0.9981 -0.0292
g pond_border_lowp_corner_sw_0
usemtl ms09_10
f 1/1/1 2/2/2 3/3/3
f 4/4/4 5/5/5 6/6/6
f 7/7/7 8/8/8 9/9/9
f 10/10/10 11/11/11 12/12/12
f 13/13/13 14/14/14 15/15/15
f 16/16/16 17/17/17 18/18/18
f 19/19/19 20/20/20 21/21/21
f 22/22/22 23/23/23 24/24/24
f 25/25/25 26/26/26 27/27/27
f 28/28/28 29/29/29 30/30/30
f 31/31/31 32/32/32 33/33/33
v 0.31250 -0.50000 0.00000
v 1.00000 -0.50000 0.68750
v 1.00000 -0.50000 0.37500
v 0.00000 -0.50000 0.00000
v 0.00000 -0.50000 1.00000
v 0.31250 -0.50000 0.00000
v 0.31250 -0.50000 0.00000
v 0.00000 -0.50000 1.00000
v 1.00000 -0.50000 0.68750
v 0.00000 -0.50000 1.00000
v 1.00000 -0.50000 1.00000
v 1.00000 -0.50000 0.68750
v 0.31250 -0.50000 0.00000
v 1.00000 -0.50000 0.37500
v 0.62500 -0.50000 0.00000
vt 0.00000 -0.62500
vt 1.00000 -0.62500
vt 1.00000 -0.93750
vt 0.00000 -0.06250
vt 0.50000 -0.06250
vt 0.00000 -0.62500
vt 0.00000 -0.62500
vt 0.50000 -0.06250
vt 1.00000 -0.62500
vt 0.50000 -0.06250
vt 1.00000 -0.06250
vt 1.00000 -0.62500
vt 0.00000 -0.62500
vt 1.00000 -0.93750
vt 0.00000 -0.93750
vn 0.0000 1.0000 0.0000
vn 0.0000 1.0000 0.0000
vn 0.0000 1.0000 0.0000
vn 0.0000 1.0000 0.0000
vn 0.0000 1.0000 0.0000
vn 0.0000 1.0000 0.0000
vn 0.0000 1.0000 0.0000
vn 0.0000 1.0000 0.0000
vn 0.0000 1.0000 0.0000
vn 0.0000 1.0000 0.0000
vn 0.0000 1.0000 0.0000
vn 0.0000 1.0000 0.0000
vn 0.0000 1.0000 0.0000
vn 0.0000 1.0000 0.0000
vn 0.0000 1.0000 0.0000
g pond_border_lowp_corner_sw_1
usemtl pond_edge
f 34/34/34 35/35/35 36/36/36
f 37/37/37 38/38/38 39/39/39
f 40/40/40 41/41/41 42/42/42
f 43/43/43 44/44/44 45/45/45
f 46/46/46 47/47/47 48/48/48
