# Blender 5.2.1 LTS
# www.blender.org
mtllib log.mtl
o sylvan-town__log
v 0.000000 0.882812 0.437500
v 0.000000 0.770689 0.708189
v 0.000000 0.500000 0.820312
v 0.000000 0.229311 0.708189
v 0.000000 0.117188 0.437500
v 0.000000 0.229311 0.166811
v 0.000000 0.500000 0.054688
v 0.000000 0.770689 0.166811
v 0.250000 0.937500 0.437500
v 0.250000 0.809359 0.746859
v 0.250000 0.500000 0.875000
v 0.250000 0.190641 0.746859
v 0.250000 0.062500 0.437500
v 0.250000 0.190641 0.128141
v 0.250000 0.500000 0.000000
v 0.250000 0.809359 0.128141
v 0.500000 0.882812 0.437500
v 0.500000 0.770689 0.708189
v 0.500000 0.500000 0.820312
v 0.500000 0.229311 0.708189
v 0.500000 0.117188 0.437500
v 0.500000 0.229311 0.166811
v 0.500000 0.500000 0.054688
v 0.500000 0.770689 0.166811
v 0.750000 0.828125 0.437500
v 0.750000 0.732019 0.669519
v 0.750000 0.500000 0.765625
v 0.750000 0.267981 0.669519
v 0.750000 0.171875 0.437500
v 0.750000 0.267981 0.205481
v 0.750000 0.500000 0.109375
v 0.750000 0.732019 0.205481
v 1.000000 0.773438 0.437500
v 1.000000 0.693349 0.630849
v 1.000000 0.500000 0.710938
v 1.000000 0.306650 0.630849
v 1.000000 0.226562 0.437500
v 1.000000 0.306650 0.244150
v 1.000000 0.500000 0.164062
v 1.000000 0.693349 0.244150
vn -0.1981 0.9056 0.3751
vn -0.1981 0.3751 0.9056
vn -0.1981 -0.3751 0.9056
vn -0.1981 -0.9056 0.3751
vn -0.1981 -0.9056 -0.3751
vn -0.1981 -0.3751 -0.9056
vn -0.1981 0.3751 -0.9056
vn -0.1981 0.9056 -0.3751
vn 0.1981 0.9056 0.3751
vn 0.1981 0.3751 0.9056
vn 0.1981 -0.3751 0.9056
vn 0.1981 -0.9056 0.3751
vn 0.1981 -0.9056 -0.3751
vn 0.1981 -0.3751 -0.9056
vn 0.1981 0.3751 -0.9056
vn 0.1981 0.9056 -0.3751
vn -1.0000 -0.0000 -0.0000
vn 1.0000 -0.0000 -0.0000
vt 0.804390 0.286093
vt 0.741240 0.341787
vt 0.741240 0.286093
vt 0.867539 0.286093
vt 0.804390 0.341787
vt 0.930689 0.286093
vt 0.867539 0.341787
vt 0.993838 0.341787
vt 0.930689 0.341787
vt 0.993838 0.286093
vt 0.804390 0.397482
vt 0.741240 0.397482
vt 0.867539 0.397482
vt 0.930689 0.397482
vt 0.993838 0.397482
vt 0.741240 0.453176
vt 0.804390 0.453176
vt 0.867539 0.453176
vt 0.930689 0.453176
vt 0.993838 0.453176
vt 0.741240 0.508870
vt 0.804390 0.508870
vt 0.867539 0.508870
vt 0.930689 0.508870
vt 0.993838 0.508870
vt 0.867539 0.300852
vt 0.867539 0.310598
vt 0.867539 0.320345
vt 0.965691 0.440585
vt 0.965691 0.452400
vt 0.867539 0.317490
vt 0.867539 0.303707
vt 0.965691 0.454847
vt 0.965691 0.446493
vt 0.965691 0.438139
s 0
usemtl Decoration.012
f 2/1/1 9/2/1 1/3/1
f 3/4/2 10/5/2 2/1/2
f 4/6/3 11/7/3 3/4/3
f 4/6/4 13/8/4 12/9/4
f 6/6/5 13/8/5 5/10/5
f 7/4/6 14/9/6 6/6/6
f 8/1/7 15/7/7 7/4/7
f 8/1/8 9/2/8 16/5/8
f 9/2/9 18/11/9 17/12/9
f 11/7/10 18/11/10 10/5/10
f 12/9/11 19/13/11 11/7/11
f 13/8/12 20/14/12 12/9/12
f 13/8/13 22/14/13 21/15/13
f 14/9/14 23/13/14 22/14/14
f 16/5/15 23/13/15 15/7/15
f 9/2/16 24/11/16 16/5/16
f 18/11/9 25/16/9 17/12/9
f 19/13/10 26/17/10 18/11/10
f 20/14/11 27/18/11 19/13/11
f 21/15/12 28/19/12 20/14/12
f 22/14/13 29/20/13 21/15/13
f 23/13/14 30/19/14 22/14/14
f 24/11/15 31/18/15 23/13/15
f 17/12/16 32/17/16 24/11/16
f 26/17/9 33/21/9 25/16/9
f 27/18/10 34/22/10 26/17/10
f 28/19/11 35/23/11 27/18/11
f 29/20/12 36/24/12 28/19/12
f 29/20/13 38/24/13 37/25/13
f 31/18/14 38/24/14 30/19/14
f 32/17/15 39/23/15 31/18/15
f 25/16/16 40/22/16 32/17/16
f 5/26/17 3/27/17 1/28/17
f 36/29/18 38/29/18 40/30/18
f 2/1/1 10/5/1 9/2/1
f 3/4/2 11/7/2 10/5/2
f 4/6/3 12/9/3 11/7/3
f 4/6/4 5/10/4 13/8/4
f 6/6/5 14/9/5 13/8/5
f 7/4/6 15/7/6 14/9/6
f 8/1/7 16/5/7 15/7/7
f 8/1/8 1/3/8 9/2/8
f 9/2/9 10/5/9 18/11/9
f 11/7/10 19/13/10 18/11/10
f 12/9/11 20/14/11 19/13/11
f 13/8/12 21/15/12 20/14/12
f 13/8/13 14/9/13 22/14/13
f 14/9/14 15/7/14 23/13/14
f 16/5/15 24/11/15 23/13/15
f 9/2/16 17/12/16 24/11/16
f 18/11/9 26/17/9 25/16/9
f 19/13/10 27/18/10 26/17/10
f 20/14/11 28/19/11 27/18/11
f 21/15/12 29/20/12 28/19/12
f 22/14/13 30/19/13 29/20/13
f 23/13/14 31/18/14 30/19/14
f 24/11/15 32/17/15 31/18/15
f 17/12/16 25/16/16 32/17/16
f 26/17/9 34/22/9 33/21/9
f 27/18/10 35/23/10 34/22/10
f 28/19/11 36/24/11 35/23/11
f 29/20/12 37/25/12 36/24/12
f 29/20/13 30/19/13 38/24/13
f 31/18/14 39/23/14 38/24/14
f 32/17/15 40/22/15 39/23/15
f 25/16/16 33/21/16 40/22/16
f 1/28/17 8/31/17 7/27/17
f 7/27/17 6/32/17 5/26/17
f 5/26/17 4/32/17 3/27/17
f 3/27/17 2/31/17 1/28/17
f 1/28/17 7/27/17 5/26/17
f 40/30/18 33/33/18 34/30/18
f 34/30/18 35/34/18 36/29/18
f 36/29/18 37/35/18 38/29/18
f 38/29/18 39/34/18 40/30/18
f 40/30/18 34/30/18 36/29/18
