# cliff_top_v3
# generated by tools/assets/build-tiles.js — do not edit
mtllib cliff_top_v3.mtl
o cliff_top_v3
v 0.00000 -0.12500 1.00000
v 1.00000 -0.12500 0.00000
v 0.00000 -0.12500 0.00000
v 0.00000 -0.12500 1.00000
v 0.75000 -0.12500 0.75000
v 1.00000 -0.12500 0.00000
vt 0.00000 1.00000
vt 1.00000 0.00000
vt 0.00000 0.00000
vt 0.00000 1.00000
vt 0.75000 0.75000
vt 1.00000 0.00000
vn 0.0000 1.0000 0.0000
vn 0.0000 1.0000 0.0000
vn 0.0000 1.0000 0.0000
vn 0.0000 1.0000 0.0000
vn 0.0000 1.0000 0.0000
vn 0.0000 1.0000 0.0000
g cliff_top_v3_0
usemtl gake_futa
f 1/1/1 2/2/2 3/3/3
f 4/4/4 5/5/5 6/6/6
