# cliff_top_v6
# generated by tools/assets/build-tiles.js — do not edit
mtllib cliff_top_v6.mtl
o cliff_top_v6
v 1.00000 -0.12500 0.00000
v 0.00000 -0.12500 1.00000
v 1.00000 -0.12500 1.00000
v 1.00000 -0.12500 0.00000
v 0.00000 -0.12500 0.00000
v 0.00000 -0.12500 1.00000
vt -12.00000 -13.00000
vt -13.00000 -12.00000
vt -12.00000 -12.00000
vt -12.00000 -13.00000
vt -13.00000 -13.00000
vt -13.00000 -12.00000
vn 0.0000 1.0000 0.0000
vn 0.0000 1.0000 0.0000
vn 0.0000 1.0000 0.0000
vn 0.0000 1.0000 0.0000
vn 0.0000 1.0000 0.0000
vn 0.0000 1.0000 0.0000
g cliff_top_v6_0
usemtl gake_futa
f 1/1/1 2/2/2 3/3/3
f 4/4/4 5/5/5 6/6/6
