# f_kage_s_v4
# generated by tools/assets/build-tiles.js — do not edit
mtllib f_kage_s_v4.mtl
o f_kage_s_v4
v 0.78906 0.19863 1.00000
v 0.33008 1.09707 0.00000
v 0.33008 1.09707 1.00000
v 0.78906 0.19863 1.00000
v 0.78906 0.19863 0.00000
v 0.33008 1.09707 0.00000
v 0.33008 1.09707 1.00000
v 0.00000 1.10000 0.00000
v 0.00000 1.10000 1.00000
v 0.33008 1.09707 1.00000
v 0.33008 1.09707 0.00000
v 0.00000 1.10000 0.00000
v 0.78906 0.19863 1.00000
v 1.00000 0.10000 0.00000
v 0.78906 0.19863 0.00000
v 0.78906 0.19863 1.00000
v 1.00000 0.10000 1.00000
v 1.00000 0.10000 0.00000
vt 1.00000 0.21094
vt 0.00000 0.66992
vt 1.00000 0.66992
vt 1.00000 0.21094
vt 0.00000 0.21094
vt 0.00000 0.66992
vt 1.00000 0.66992
vt 0.00000 1.00000
vt 1.00000 1.00000
vt 1.00000 0.66992
vt 0.00000 0.66992
vt 0.00000 1.00000
vt 1.00000 0.21094
vt 0.00000 0.00000
vt 0.00000 0.21094
vt 1.00000 0.21094
vt 1.00000 0.00000
vt 0.00000 0.00000
vn 0.7071 0.7071 0.0000
vn 0.5258 0.8506 0.0000
vn 0.5258 0.8506 0.0000
vn 0.7071 0.7071 0.0000
vn 0.7071 0.7071 0.0000
vn 0.5258 0.8506 0.0000
vn 0.5258 0.8506 0.0000
vn 0.0000 1.0000 0.0000
vn 0.0000 1.0000 0.0000
vn 0.5258 0.8506 0.0000
vn 0.5258 0.8506 0.0000
vn 0.0000 1.0000 0.0000
vn 0.7071 0.7071 0.0000
vn 0.4260 0.9047 0.0000
vn 0.7071 0.7071 0.0000
vn 0.7071 0.7071 0.0000
vn 0.4260 0.9047 0.0000
vn 0.4260 0.9047 0.0000
g f_kage_s_v4_0
usemtl f_kage
f 1/1/1 2/2/2 3/3/3
f 4/4/4 5/5/5 6/6/6
f 7/7/7 8/8/8 9/9/9
f 10/10/10 11/11/11 12/12/12
f 13/13/13 14/14/14 15/15/15
f 16/16/16 17/17/17 18/18/18
