# f_kage_sw
# generated by tools/assets/build-tiles.js — do not edit
mtllib f_kage_sw.mtl
o f_kage_sw
v 0.06250 0.10000 0.68750
v 0.21094 0.19863 0.00000
v -0.00000 0.10000 0.00000
v 0.06250 0.10000 0.68750
v 0.25000 0.19863 0.50000
v 0.21094 0.19863 0.00000
v 1.00000 0.10000 1.00000
v 0.56250 0.19863 0.75000
v 0.37500 0.10000 0.93750
v 1.00000 0.10000 1.00000
v 1.00000 0.19863 0.78906
v 0.56250 0.19863 0.75000
v 0.37500 0.10000 0.93750
v 0.25000 0.19863 0.50000
v 0.06250 0.10000 0.68750
v 0.37500 0.10000 0.93750
v 0.56250 0.19863 0.75000
v 0.25000 0.19863 0.50000
v 1.00000 0.19863 0.78906
v 1.00000 1.09707 0.33008
v 0.56250 0.19863 0.75000
v 0.56250 0.19863 0.75000
v 1.00000 1.09707 0.33008
v 0.25000 0.19863 0.50000
v 1.00000 1.09707 0.33008
v 0.66992 1.09707 0.00000
v 0.25000 0.19863 0.50000
v 0.25000 0.19863 0.50000
v 0.66992 1.09707 0.00000
v 0.21094 0.19863 0.00000
v 0.66992 1.09707 0.00000
v 1.00000 1.09707 0.33008
v 1.00000 1.10000 0.00000
v 1.00000 0.10000 1.00000
v 0.37500 0.10000 0.93750
v -0.00000 0.10000 1.00000
v -0.00000 0.10000 1.00000
v 0.37500 0.10000 0.93750
v 0.06250 0.10000 0.68750
v -0.00000 0.10000 0.00000
v -0.00000 0.10000 1.00000
v 0.06250 0.10000 0.68750
vt 0.06250 0.68750
vt 0.21094 0.00000
vt 0.00000 0.00000
vt 0.06250 0.68750
vt 0.25000 0.50000
vt 0.21094 0.00000
vt 1.00000 1.00000
vt 0.56250 0.75000
vt 0.37500 0.93750
vt 1.00000 1.00000
vt 1.00000 0.78906
vt 0.56250 0.75000
vt 0.37500 0.93750
vt 0.25000 0.50000
vt 0.06250 0.68750
vt 0.37500 0.93750
vt 0.56250 0.75000
vt 0.25000 0.50000
vt 1.00000 0.78906
vt 1.00000 0.33008
vt 0.56250 0.75000
vt 0.56250 0.75000
vt 1.00000 0.33008
vt 0.25000 0.50000
vt 1.00000 0.33008
vt 0.66992 0.00000
vt 0.25000 0.50000
vt 0.25000 0.50000
vt 0.66992 0.00000
vt 0.21094 0.00000
vt 0.66992 0.00000
vt 1.00000 0.33008
vt 1.00000 0.00000
vt 1.00000 1.00000
vt 0.37500 0.93750
vt 0.00000 1.00000
vt 0.00000 1.00000
vt 0.37500 0.93750
vt 0.06250 0.68750
vt 0.00000 0.00000
vt 0.00000 1.00000
vt 0.06250 0.68750
vn -0.1651 0.9830 0.0808
vn -0.6983 0.7136 0.0558
vn -0.2269 0.9738 0.0178
vn -0.1651 0.9830 0.0808
vn -0.5641 0.7491 0.3474
vn -0.6983 0.7136 0.0558
vn -0.0679 0.9810 0.1819
vn -0.2295 0.7665 0.5999
vn -0.0657 0.9817 0.1788
vn -0.0679 0.9810 0.1819
vn -0.0672 0.7132 0.6978
vn -0.2295 0.7665 0.5999
vn -0.0657 0.9817 0.1788
vn -0.5641 0.7491 0.3474
vn -0.1651 0.9830 0.0808
vn -0.0657 0.9817 0.1788
vn -0.2295 0.7665 0.5999
vn -0.5641 0.7491 0.3474
vn -0.0644 0.7163 0.6948
vn -0.3262 0.6933 0.6426
vn -0.2303 0.7652 0.6012
vn -0.2303 0.7652 0.6012
vn -0.3262 0.6933 0.6426
vn -0.5703 0.7442 0.3477
vn -0.3262 0.6933 0.6426
vn -0.5665 0.7852 0.2500
vn -0.5703 0.7442 0.3477
vn -0.5703 0.7442 0.3477
vn -0.5665 0.7852 0.2500
vn -0.6961 0.7157 0.0567
vn -0.5665 0.7852 0.2500
vn -0.3262 0.6933 0.6425
vn 0.0000 1.0000 0.0000
vn 0.0000 1.0000 0.0000
vn 0.0000 1.0000 0.0000
vn 0.0000 1.0000 0.0000
vn 0.0000 1.0000 0.0000
vn 0.0000 1.0000 0.0000
vn 0.0000 1.0000 0.0000
vn 0.0000 1.0000 0.0000
vn 0.0000 1.0000 0.0000
vn 0.0000 1.0000 0.0000
g f_kage_sw_0
usemtl f_kage
f 1/1/1 2/2/2 3/3/3
f 4/4/4 5/5/5 6/6/6
f 7/7/7 8/8/8 9/9/9
f 10/10/10 11/11/11 12/12/12
f 13/13/13 14/14/14 15/15/15
f 16/16/16 17/17/17 18/18/18
f 19/19/19 20/20/20 21/21/21
f 22/22/22 23/23/23 24/24/24
f 25/25/25 26/26/26 27/27/27
f 28/28/28 29/29/29 30/30/30
f 31/31/31 32/32/32 33/33/33
f 34/34/34 35/35/35 36/36/36
f 37/37/37 38/38/38 39/39/39
f 40/40/40 41/41/41 42/42/42
