# caveentersnow_v4
# generated by tools/assets/build-tiles.js — do not edit
mtllib caveentersnow_v4.mtl
o caveentersnow_v4
v 0.00000 -0.06250 2.50000
v 0.37500 0.12500 2.50000
v 2.00000 0.00000 2.50000
v 2.00000 0.00000 2.50000
v 0.00000 -0.06250 0.50000
v 0.00000 -0.06250 2.50000
v 0.00000 -0.06250 0.50000
v 2.00000 0.00000 2.50000
v 2.00000 0.00000 0.50000
v 2.00000 0.00000 0.50000
v 2.00000 0.12500 0.50000
v 0.00000 -0.06250 0.50000
v 0.00000 -0.06250 0.50000
v 2.00000 0.12500 0.50000
v 0.37500 0.12500 0.50000
v 2.00000 0.12500 0.50000
v 2.00000 0.87500 0.50000
v 0.37500 0.12500 0.50000
v 0.37500 0.12500 0.50000
v 2.00000 0.87500 0.50000
v 0.87500 0.87500 0.50000
v 2.00000 0.00000 2.50000
v 0.37500 0.12500 2.50000
v 2.00000 0.12500 2.50000
v 0.37500 0.12500 2.50000
v 0.87500 0.87500 2.50000
v 2.00000 0.12500 2.50000
v 2.00000 0.12500 2.50000
v 0.87500 0.87500 2.50000
v 2.00000 0.87500 2.50000
v 0.75000 0.87500 0.50000
v 1.00000 1.00000 2.50000
v 1.00000 1.00000 0.50000
v 0.25000 0.12500 0.50000
v 0.75000 0.87500 2.50000
v 0.75000 0.87500 0.50000
v 0.75000 0.87500 2.50000
v 1.00000 1.00000 2.50000
v 0.75000 0.87500 0.50000
v 0.25000 0.12500 2.50000
v 0.00000 0.00000 0.50000
v 0.00000 0.00000 2.50000
v 0.00000 0.00000 0.50000
v 0.25000 0.12500 2.50000
v 0.25000 0.12500 0.50000
v 0.25000 0.12500 2.50000
v 0.75000 0.87500 2.50000
v 0.25000 0.12500 0.50000
vt 0.46875 -0.32813
vt 0.40625 -0.26563
vt 0.03125 -0.32813
vt 0.29688 -0.34375
vt 1.00000 -0.03125
vt 1.00000 -0.34375
vt 1.00000 -0.03125
vt 0.29688 -0.34375
vt 0.29688 -0.03125
vt 0.03125 -0.32813
vt 0.03125 -0.26563
vt 0.46875 -0.32813
vt 0.46875 -0.32813
vt 0.03125 -0.26563
vt 0.40625 -0.26563
vt 0.03125 -0.26563
vt 0.03125 -0.06250
vt 0.40625 -0.26563
vt 0.40625 -0.26563
vt 0.03125 -0.06250
vt 0.29688 -0.06250
vt 0.03125 -0.32813
vt 0.40625 -0.26563
vt 0.03125 -0.26563
vt 0.40625 -0.26563
vt 0.29688 -0.06250
vt 0.03125 -0.26563
vt 0.03125 -0.26563
vt 0.29688 -0.06250
vt 0.03125 -0.06250
vt 1.00000 -0.56250
vt 0.00000 -0.50000
vt 1.00000 -0.50000
vt 1.00000 -0.87500
vt 0.00000 -0.56250
vt 1.00000 -0.56250
vt 0.00000 -0.56250
vt 0.00000 -0.50000
vt 1.00000 -0.56250
vt 0.00000 -0.87500
vt 1.00000 -1.00000
vt 0.00000 -1.00000
vt 1.00000 -1.00000
vt 0.00000 -0.87500
vt 1.00000 -0.87500
vt 0.00000 -0.87500
vt -0.00000 -0.56250
vt 1.00000 -0.87500
vn -0.0000 0.0000 -1.0000
vn -0.0000 0.0000 -1.0000
vn -0.0000 0.0000 -1.0000
vn -0.0312 0.9995 0.0000
vn -0.0312 0.9995 0.0000
vn -0.0312 0.9995 0.0000
vn -0.0312 0.9995 0.0000
vn -0.0312 0.9995 0.0000
vn -0.0312 0.9995 0.0000
vn 0.0000 0.0000 1.0000
vn 0.0000 0.0000 1.0000
vn 0.0000 0.0000 1.0000
vn 0.0000 0.0000 1.0000
vn 0.0000 0.0000 1.0000
vn 0.0000 0.0000 1.0000
vn 0.0000 0.0000 1.0000
vn 0.0000 0.0000 1.0000
vn 0.0000 0.0000 1.0000
vn 0.0000 0.0000 1.0000
vn 0.0000 0.0000 1.0000
vn 0.0000 0.0000 1.0000
vn -0.0000 0.0000 -1.0000
vn -0.0000 0.0000 -1.0000
vn -0.0000 0.0000 -1.0000
vn -0.0000 -0.0000 -1.0000
vn -0.0000 -0.0000 -1.0000
vn -0.0000 -0.0000 -1.0000
vn -0.0000 0.0000 -1.0000
vn -0.0000 0.0000 -1.0000
vn -0.0000 0.0000 -1.0000
vn -0.4472 0.8944 -0.0000
vn -0.4472 0.8944 -0.0000
vn -0.4472 0.8944 -0.0000
vn -0.8321 0.5547 0.0000
vn -0.8321 0.5547 0.0000
vn -0.8321 0.5547 0.0000
vn -0.4472 0.8944 0.0000
vn -0.4472 0.8944 0.0000
vn -0.4472 0.8944 0.0000
vn -0.4472 0.8944 0.0000
vn -0.4472 0.8944 0.0000
vn -0.4472 0.8944 0.0000
vn -0.4472 0.8944 0.0000
vn -0.4472 0.8944 0.0000
vn -0.4472 0.8944 0.0000
vn -0.8321 0.5547 0.0000
vn -0.8321 0.5547 0.0000
vn -0.8321 0.5547 0.0000
g caveentersnow_v4_0
usemtl dhole
f 1/1/1 2/2/2 3/3/3
f 4/4/4 5/5/5 6/6/6
f 7/7/7 8/8/8 9/9/9
f 10/10/10 11/11/11 12/12/12
f 13/13/13 14/14/14 15/15/15
f 16/16/16 17/17/17 18/18/18
f 19/19/19 20/20/20 21/21/21
f 22/22/22 23/23/23 24/24/24
f 25/25/25 26/26/26 27/27/27
f 28/28/28 29/29/29 30/30/30
f 31/31/31 32/32/32 33/33/33
f 34/34/34 35/35/35 36/36/36
f 37/37/37 38/38/38 39/39/39
f 40/40/40 41/41/41 42/42/42
f 43/43/43 44/44/44 45/45/45
f 46/46/46 47/47/47 48/48/48
v 0.75000 0.87500 0.50000
v 1.00000 1.00000 0.50000
v 0.75000 0.87500 0.00000
v 0.75000 0.87500 0.50000
v 0.75000 0.87500 0.00000
v 0.25000 0.12500 0.50000
v 0.75000 0.87500 2.50000
v 0.75000 0.87500 3.00000
v 1.00000 1.00000 2.50000
v 1.00000 1.00000 3.00000
v 1.00000 1.00000 2.50000
v 0.75000 0.87500 3.00000
v 0.75000 0.87500 2.50000
v 0.25000 0.12500 2.50000
v 0.75000 0.87500 3.00000
v 0.25000 0.12500 3.00000
v 0.75000 0.87500 3.00000
v 0.25000 0.12500 2.50000
v 0.25000 0.12500 3.00000
v 0.25000 0.12500 2.50000
v 0.00000 0.00000 3.00000
v 0.00000 0.00000 2.50000
v 0.00000 0.00000 3.00000
v 0.25000 0.12500 2.50000
v 0.00000 0.00000 0.50000
v 0.25000 0.12500 0.50000
v 0.00000 0.00000 0.00000
v 0.25000 0.12500 0.00000
v 0.00000 0.00000 0.00000
v 0.25000 0.12500 0.50000
v 0.25000 0.12500 0.00000
v 0.25000 0.12500 0.50000
v 0.75000 0.87500 0.00000
v 1.00000 1.00000 0.00000
v 0.75000 0.87500 0.00000
v 1.00000 1.00000 0.50000
vt -0.00000 -0.12500
vt -0.00000 0.00000
vt 0.50000 -0.12500
vt -0.00000 -0.12500
vt 0.50000 -0.12500
vt -0.00000 -0.81250
vt 1.00000 -0.12500
vt 0.50000 -0.12500
vt 1.00000 0.00000
vt 0.50000 0.00000
vt 1.00000 0.00000
vt 0.50000 -0.12500
vt 1.00000 -0.12500
vt 1.00000 -0.81250
vt 0.50000 -0.12500
vt 0.50000 -0.81250
vt 0.50000 -0.12500
vt 1.00000 -0.81250
vt 0.50000 -0.81250
vt 1.00000 -0.81250
vt 0.50000 -1.00000
vt 1.00000 -1.00000
vt 0.50000 -1.00000
vt 1.00000 -0.81250
vt -0.00000 -1.00000
vt -0.00000 -0.81250
vt 0.50000 -1.00000
vt 0.50000 -0.81250
vt 0.50000 -1.00000
vt -0.00000 -0.81250
vt 0.50000 -0.81250
vt -0.00000 -0.81250
vt 0.50000 -0.12500
vt 0.50000 0.00000
vt 0.50000 -0.12500
vt -0.00000 0.00000
vn -0.4472 0.8944 0.0000
vn -0.4472 0.8944 0.0000
vn -0.4472 0.8944 0.0000
vn -0.8321 0.5547 0.0000
vn -0.8321 0.5547 0.0000
vn -0.8321 0.5547 0.0000
vn -0.4472 0.8944 0.0000
vn -0.4472 0.8944 0.0000
vn -0.4472 0.8944 0.0000
vn -0.4472 0.8944 0.0000
vn -0.4472 0.8944 0.0000
vn -0.4472 0.8944 0.0000
vn -0.8321 0.5547 -0.0000
vn -0.8321 0.5547 -0.0000
vn -0.8321 0.5547 -0.0000
vn -0.8321 0.5547 0.0000
vn -0.8321 0.5547 0.0000
vn -0.8321 0.5547 0.0000
vn -0.4472 0.8944 0.0000
vn -0.4472 0.8944 0.0000
vn -0.4472 0.8944 0.0000
vn -0.4472 0.8944 -0.0000
vn -0.4472 0.8944 -0.0000
vn -0.4472 0.8944 -0.0000
vn -0.4472 0.8944 -0.0000
vn -0.4472 0.8944 -0.0000
vn -0.4472 0.8944 -0.0000
vn -0.4472 0.8944 0.0000
vn -0.4472 0.8944 0.0000
vn -0.4472 0.8944 0.0000
vn -0.8321 0.5547 0.0000
vn -0.8321 0.5547 0.0000
vn -0.8321 0.5547 0.0000
vn -0.4472 0.8944 0.0000
vn -0.4472 0.8944 0.0000
vn -0.4472 0.8944 0.0000
g caveentersnow_v4_1
usemtl criffp
f 49/49/49 50/50/50 51/51/51
f 52/52/52 53/53/53 54/54/54
f 55/55/55 56/56/56 57/57/57
f 58/58/58 59/59/59 60/60/60
f 61/61/61 62/62/62 63/63/63
f 64/64/64 65/65/65 66/66/66
f 67/67/67 68/68/68 69/69/69
f 70/70/70 71/71/71 72/72/72
f 73/73/73 74/74/74 75/75/75
f 76/76/76 77/77/77 78/78/78
f 79/79/79 80/80/80 81/81/81
f 82/82/82 83/83/83 84/84/84
