# bridge_horizontal_v2
# generated by tools/assets/build-tiles.js — do not edit
mtllib bridge_horizontal_v2.mtl
o bridge_horizontal_v2
v 2.50000 0.12500 1.00000
v 3.00000 0.12500 0.00000
v 2.50000 0.12500 0.00000
v 2.50000 0.12500 1.00000
v 3.00000 0.12500 1.00000
v 3.00000 0.12500 0.00000
v 3.00000 0.12500 1.00000
v 3.00000 -0.43750 0.00000
v 3.00000 0.12500 0.00000
v 3.00000 0.12500 1.00000
v 3.00000 -0.43750 1.00000
v 3.00000 -0.43750 0.00000
v 0.50000 0.12500 1.00000
v 0.00000 0.12500 0.00000
v 0.00000 0.12500 1.00000
v 0.50000 0.12500 1.00000
v 0.50000 0.12500 0.00000
v 0.00000 0.12500 0.00000
v 0.00000 0.12500 1.00000
v 0.00000 -0.43750 0.00000
v 0.00000 -0.43750 1.00000
v 0.00000 0.12500 1.00000
v 0.00000 0.12500 0.00000
v 0.00000 -0.43750 0.00000
vt 0.01563 0.50000
vt 0.50000 0.00000
vt 0.01563 0.00000
vt 0.01563 0.50000
vt 0.50000 0.50000
vt 0.50000 0.00000
vt 0.50000 0.50000
vt 0.98047 0.00000
vt 0.50000 0.00000
vt 0.50000 0.50000
vt 0.98047 0.50000
vt 0.98047 0.00000
vt 0.01563 0.50000
vt 0.50000 0.00000
vt 0.50000 0.50000
vt 0.01563 0.50000
vt 0.01563 0.00000
vt 0.50000 0.00000
vt 0.50000 0.50000
vt 0.98047 0.00000
vt 0.98047 0.50000
vt 0.50000 0.50000
vt 0.50000 0.00000
vt 0.98047 0.00000
vn 0.0000 1.0000 0.0000
vn 0.0000 1.0000 0.0000
vn 0.0000 1.0000 0.0000
vn 0.0000 1.0000 0.0000
vn 0.0000 1.0000 0.0000
vn 0.0000 1.0000 0.0000
vn 1.0000 0.0000 0.0000
vn 1.0000 0.0000 0.0000
vn 1.0000 0.0000 0.0000
vn 1.0000 0.0000 0.0000
vn 1.0000 0.0000 0.0000
vn 1.0000 0.0000 0.0000
vn 0.0000 1.0000 0.0000
vn 0.0000 1.0000 0.0000
vn 0.0000 1.0000 0.0000
vn 0.0000 1.0000 0.0000
vn 0.0000 1.0000 0.0000
vn 0.0000 1.0000 0.0000
vn -1.0000 0.0000 0.0000
vn -1.0000 0.0000 0.0000
vn -1.0000 0.0000 0.0000
vn -1.0000 0.0000 0.0000
vn -1.0000 0.0000 0.0000
vn -1.0000 0.0000 0.0000
g bridge_horizontal_v2_0
usemtl bridge_b
f 1/1/1 2/2/2 3/3/3
f 4/4/4 5/5/5 6/6/6
f 7/7/7 8/8/8 9/9/9
f 10/10/10 11/11/11 12/12/12
f 13/13/13 14/14/14 15/15/15
f 16/16/16 17/17/17 18/18/18
f 19/19/19 20/20/20 21/21/21
f 22/22/22 23/23/23 24/24/24
v 0.50000 0.12500 1.00000
v 2.50000 0.12500 0.00000
v 0.50000 0.12500 0.00000
v 0.50000 0.12500 1.00000
v 2.50000 0.12500 1.00000
v 2.50000 0.12500 0.00000
vt 0.98242 0.50000
vt 0.02148 0.00000
vt 0.98242 0.00000
vt 0.98242 0.50000
vt 0.02148 0.50000
vt 0.02148 0.00000
vn 0.0000 1.0000 0.0000
vn 0.0000 1.0000 0.0000
vn 0.0000 1.0000 0.0000
vn 0.0000 1.0000 0.0000
vn 0.0000 1.0000 0.0000
vn 0.0000 1.0000 0.0000
g bridge_horizontal_v2_1
usemtl bridge_c
f 25/25/25 26/26/26 27/27/27
f 28/28/28 29/29/29 30/30/30
