# bridge_horizontal_r1_v2
# generated by tools/assets/build-tiles.js — do not edit
mtllib bridge_horizontal_r1_v2.mtl
o bridge_horizontal_r1_v2
v 2.50000 -0.44196 1.00000
v 0.50000 0.12500 1.00000
v 0.50000 -0.44196 1.00000
v 2.50000 -0.44196 1.00000
v 2.50000 0.12500 1.00000
v 0.50000 0.12500 1.00000
v 0.00000 0.12054 1.00000
v 0.50000 -0.44196 1.00000
v 0.50000 0.12500 1.00000
v 0.00000 0.12054 1.00000
v 0.00000 -0.44196 1.00000
v 0.50000 -0.44196 1.00000
v 2.50000 0.12500 0.50000
v 0.50000 0.12500 1.00000
v 2.50000 0.12500 1.00000
v 2.50000 0.12500 0.50000
v 0.50000 0.12500 0.50000
v 0.50000 0.12500 1.00000
v 2.50000 0.12500 1.00000
v 3.00000 -0.44196 1.00000
v 3.00000 0.12054 1.00000
v 2.50000 0.12500 1.00000
v 2.50000 -0.44196 1.00000
v 3.00000 -0.44196 1.00000
v 3.00000 -0.44196 0.00000
v 3.00000 0.12054 1.00000
v 3.00000 -0.44196 1.00000
v 3.00000 -0.44196 0.00000
v 3.00000 0.12054 0.00000
v 3.00000 0.12054 1.00000
v 3.00000 0.12500 1.00000
v 2.50000 0.12500 0.00000
v 2.50000 0.12500 1.00000
v 3.00000 0.12500 1.00000
v 3.00000 0.12500 0.00000
v 2.50000 0.12500 0.00000
v 0.50000 0.12500 1.00000
v 0.00000 0.12500 0.00000
v 0.00000 0.12500 1.00000
v 0.50000 0.12500 1.00000
v 0.50000 0.12500 0.00000
v 0.00000 0.12500 0.00000
v 0.00000 -0.44196 1.00000
v 0.00000 0.12054 0.00000
v 0.00000 -0.44196 0.00000
v 0.00000 -0.44196 1.00000
v 0.00000 0.12054 1.00000
v 0.00000 0.12054 0.00000
vt 0.96875 -3.00000
vt 0.52734 -3.12500
vt 0.96875 -3.12500
vt 0.96875 -3.00000
vt 0.52734 -3.00000
vt 0.52734 -3.12500
vt 0.52734 -4.81250
vt 0.96875 -4.50000
vt 0.52734 -4.50000
vt 0.52734 -4.81250
vt 0.96875 -4.81250
vt 0.96875 -4.50000
vt 0.55078 -0.20313
vt 0.01953 -0.32813
vt 0.01953 -0.20313
vt 0.55078 -0.20313
vt 0.55078 -0.32813
vt 0.01953 -0.32813
vt 0.52734 -4.50000
vt 0.96875 -4.81250
vt 0.52734 -4.81250
vt 0.52734 -4.50000
vt 0.96875 -4.50000
vt 0.96875 -4.81250
vt 0.97852 0.99609
vt 0.50000 1.48242
vt 0.97852 1.48242
vt 0.97852 0.99609
vt 0.50000 0.99609
vt 0.50000 1.48242
vt 0.50000 0.50000
vt 0.01563 -0.49609
vt 0.01953 0.50000
vt 0.50000 0.50000
vt 0.50000 -0.49609
vt 0.01563 -0.49609
vt 0.50000 0.50000
vt 0.01563 -0.49609
vt 0.01953 0.50000
vt 0.50000 0.50000
vt 0.50000 -0.49609
vt 0.01563 -0.49609
vt 0.97656 -2.50000
vt 0.50000 -2.00391
vt 0.98047 -2.00391
vt 0.97656 -2.50000
vt 0.50000 -2.50000
vt 0.50000 -2.00391
vn 0.0000 0.0000 1.0000
vn 0.0000 0.0000 1.0000
vn 0.0000 0.0000 1.0000
vn 0.0000 0.0000 1.0000
vn 0.0000 0.0000 1.0000
vn 0.0000 0.0000 1.0000
vn 0.0000 0.0000 1.0000
vn 0.0000 0.0000 1.0000
vn 0.0000 0.0000 1.0000
vn 0.0000 0.0000 1.0000
vn 0.0000 0.0000 1.0000
vn 0.0000 0.0000 1.0000
vn 0.0000 1.0000 0.0000
vn 0.0000 1.0000 0.0000
vn 0.0000 1.0000 0.0000
vn 0.0000 1.0000 0.0000
vn 0.0000 1.0000 0.0000
vn 0.0000 1.0000 0.0000
vn 0.0000 0.0000 1.0000
vn 0.0000 0.0000 1.0000
vn 0.0000 0.0000 1.0000
vn 0.0000 0.0000 1.0000
vn 0.0000 0.0000 1.0000
vn 0.0000 0.0000 1.0000
vn 1.0000 0.0000 0.0000
vn 1.0000 0.0000 0.0000
vn 1.0000 0.0000 0.0000
vn 1.0000 0.0000 0.0000
vn 1.0000 0.0000 0.0000
vn 1.0000 0.0000 0.0000
vn 0.0000 1.0000 0.0000
vn 0.0000 1.0000 0.0000
vn 0.0000 1.0000 0.0000
vn 0.0000 1.0000 0.0000
vn 0.0000 1.0000 0.0000
vn 0.0000 1.0000 0.0000
vn 0.0000 1.0000 0.0000
vn 0.0000 1.0000 0.0000
vn 0.0000 1.0000 0.0000
vn 0.0000 1.0000 0.0000
vn 0.0000 1.0000 0.0000
vn 0.0000 1.0000 0.0000
vn -1.0000 0.0000 0.0000
vn -1.0000 0.0000 0.0000
vn -1.0000 0.0000 0.0000
vn -1.0000 0.0000 0.0000
vn -1.0000 0.0000 0.0000
vn -1.0000 0.0000 0.0000
g bridge_horizontal_r1_v2_0
usemtl bridge_b
f 1/1/1 2/2/2 3/3/3
f 4/4/4 5/5/5 6/6/6
f 7/7/7 8/8/8 9/9/9
f 10/10/10 11/11/11 12/12/12
f 13/13/13 14/14/14 15/15/15
f 16/16/16 17/17/17 18/18/18
f 19/19/19 20/20/20 21/21/21
f 22/22/22 23/23/23 24/24/24
f 25/25/25 26/26/26 27/27/27
f 28/28/28 29/29/29 30/30/30
f 31/31/31 32/32/32 33/33/33
f 34/34/34 35/35/35 36/36/36
f 37/37/37 38/38/38 39/39/39
f 40/40/40 41/41/41 42/42/42
f 43/43/43 44/44/44 45/45/45
f 46/46/46 47/47/47 48/48/48
v 0.50000 0.12500 0.00000
v 2.50000 0.12500 0.50000
v 2.50000 0.12500 0.00000
v 0.50000 0.12500 0.00000
v 0.50000 0.12500 0.50000
v 2.50000 0.12500 0.50000
vt 0.01532 0.25391
vt 0.97626 0.00391
vt 0.97626 0.25391
vt 0.01532 0.25391
vt 0.01532 0.00391
vt 0.97626 0.00391
vn 0.0000 1.0000 0.0000
vn 0.0000 1.0000 0.0000
vn 0.0000 1.0000 0.0000
vn 0.0000 1.0000 0.0000
vn 0.0000 1.0000 0.0000
vn 0.0000 1.0000 0.0000
g bridge_horizontal_r1_v2_1
usemtl bridge_c
f 49/49/49 50/50/50 51/51/51
f 52/52/52 53/53/53 54/54/54
