# lake_inner_ne
# generated by tools/assets/build-tiles.js — do not edit
mtllib lake_inner_ne.mtl
o lake_inner_ne
v 1.00000 -0.50000 0.50000
v 1.00000 -0.00000 0.00000
v 0.50000 -0.50000 0.00000
vt -1.00000 -1.00000
vt -0.50000 0.00000
vt 0.00000 -1.00000
vn 0.1192 0.9835 0.1357
vn 0.0000 1.0000 0.0000
vn -0.1356 0.9836 -0.1192
g lake_inner_ne_0
usemtl gake1_1
f 1/1/1 2/2/2 3/3/3
v 0.50000 -0.50000 0.00000
v 1.00000 -0.75000 0.75000
v 1.00000 -0.50000 0.50000
v 0.50000 -0.50000 0.00000
v 0.25000 -0.75000 0.00000
v 1.00000 -0.75000 0.75000
vt 0.00000 0.00000
vt -1.00000 -1.00000
vt -1.00000 0.00000
vt 0.00000 0.00000
vt 0.00000 -1.00000
vt -1.00000 -1.00000
vn -0.1356 0.9836 -0.1192
vn 0.0000 1.0000 0.0000
vn 0.1192 0.9835 0.1357
vn -0.1356 0.9836 -0.1192
vn 0.0000 1.0000 0.0000
vn 0.0000 1.0000 0.0000
g lake_inner_ne_1
usemtl shore01
f 4/4/4 5/5/5 6/6/6
f 7/7/7 8/8/8 9/9/9
