# lake_corner_sw
# generated by tools/assets/build-tiles.js — do not edit
mtllib lake_corner_sw.mtl
o lake_corner_sw
v 0.50000 -0.50000 1.00000
v 0.75000 -0.75000 0.00000
v 0.50000 -0.50000 0.00000
v 0.50000 -0.50000 1.00000
v 0.75000 -0.75000 1.00000
v 0.75000 -0.75000 0.00000
v 1.00000 -0.75000 0.25000
v 0.00000 -0.50000 0.50000
v 1.00000 -0.50000 0.50000
v 1.00000 -0.75000 0.25000
v 0.00000 -0.75000 0.25000
v 0.00000 -0.50000 0.50000
vt 0.00000 0.00000
vt -1.00000 -1.00000
vt -1.00000 0.00000
vt 0.00000 0.00000
vt 0.00000 -1.00000
vt -1.00000 -1.00000
vt -5.00000 -1.00000
vt -6.00000 0.00000
vt -5.00000 0.00000
vt -5.00000 -1.00000
vt -6.00000 -1.00000
vt -6.00000 0.00000
vn 0.0670 0.9330 0.3536
vn 0.0000 1.0000 0.0000
vn 0.7500 0.2500 0.6124
vn 0.0670 0.9330 0.3536
vn 0.0000 1.0000 0.0000
vn 0.0000 1.0000 0.0000
vn -0.7071 0.5000 -0.5000
vn 0.3535 0.0670 -0.9330
vn -0.6124 0.7500 -0.2500
vn -0.7071 0.5000 -0.5000
vn 0.0000 1.0000 0.0000
vn 0.3535 0.0670 -0.9330
g lake_corner_sw_0
usemtl shore01
f 1/1/1 2/2/2 3/3/3
f 4/4/4 5/5/5 6/6/6
f 7/7/7 8/8/8 9/9/9
f 10/10/10 11/11/11 12/12/12
v 0.00000 0.00000 1.00000
v 0.50000 -0.50000 0.00000
v 0.00000 0.00000 0.00000
v 0.00000 0.00000 1.00000
v 0.50000 -0.50000 1.00000
v 0.50000 -0.50000 0.00000
v 1.00000 -0.50000 0.50000
v 0.00000 0.00000 1.00000
v 1.00000 0.00000 1.00000
v 1.00000 -0.50000 0.50000
v 0.00000 -0.50000 0.50000
v 0.00000 0.00000 1.00000
vt 0.00000 0.00000
vt -1.00000 -1.00000
vt -1.00000 0.00000
vt 0.00000 0.00000
vt 0.00000 -1.00000
vt -1.00000 -1.00000
vt -5.00000 -1.00000
vt -6.00000 0.00000
vt -5.00000 0.00000
vt -5.00000 -1.00000
vt -6.00000 -1.00000
vt -6.00000 0.00000
vn 0.0000 1.0000 0.0000
vn 0.7500 0.2500 0.6124
vn 0.5000 0.5000 -0.7071
vn 0.0000 1.0000 0.0000
vn 0.0670 0.9330 0.3536
vn 0.7500 0.2500 0.6124
vn -0.6124 0.7500 -0.2500
vn 0.0000 1.0000 0.0000
vn 0.0000 1.0000 0.0000
vn -0.6124 0.7500 -0.2500
vn 0.3535 0.0670 -0.9330
vn 0.0000 1.0000 0.0000
g lake_corner_sw_1
usemtl gake1_1
f 13/13/13 14/14/14 15/15/15
f 16/16/16 17/17/17 18/18/18
f 19/19/19 20/20/20 21/21/21
f 22/22/22 23/23/23 24/24/24
