# lake_straight_edge_s
# generated by tools/assets/build-tiles.js — do not edit
mtllib lake_straight_edge_s.mtl
o lake_straight_edge_s
v 1.00000 -0.75000 0.25000
v 0.00000 -0.50000 0.50000
v 1.00000 -0.50000 0.50000
v 1.00000 -0.75000 0.25000
v 0.00000 -0.75000 0.25000
v 0.00000 -0.50000 0.50000
vt -4.00000 -1.00000
vt -5.00000 0.00000
vt -4.00000 0.00000
vt -4.00000 -1.00000
vt -5.00000 -1.00000
vt -5.00000 0.00000
vn -0.7071 0.5000 -0.5000
vn 0.6124 0.2500 -0.7500
vn -0.6124 0.7500 -0.2500
vn -0.7071 0.5000 -0.5000
vn 0.0000 1.0000 0.0000
vn 0.6124 0.2500 -0.7500
g lake_straight_edge_s_0
usemtl shore01
f 1/1/1 2/2/2 3/3/3
f 4/4/4 5/5/5 6/6/6
v 1.00000 -0.50000 0.50000
v 0.00000 0.00000 1.00000
v 1.00000 0.00000 1.00000
v 1.00000 -0.50000 0.50000
v 0.00000 -0.50000 0.50000
v 0.00000 0.00000 1.00000
vt -4.00000 -1.00000
vt -5.00000 0.00000
vt -4.00000 0.00000
vt -4.00000 -1.00000
vt -5.00000 -1.00000
vt -5.00000 0.00000
vn -0.6124 0.7500 -0.2500
vn -0.7071 0.5000 -0.5000
vn 0.0000 1.0000 0.0000
vn -0.6124 0.7500 -0.2500
vn 0.6124 0.2500 -0.7500
vn -0.7071 0.5000 -0.5000
g lake_straight_edge_s_1
usemtl gake1_1
f 7/7/7 8/8/8 9/9/9
f 10/10/10 11/11/11 12/12/12
