# r0_bluff_grass_decal02
# generated by tools/assets/build-tiles.js — do not edit
mtllib r0_bluff_grass_decal02.mtl
o r0_bluff_grass_decal02
v 1.00000 3.10000 0.50000
v 0.50000 3.10000 0.00000
v 0.50000 3.34000 0.50000
v 0.50000 3.34000 0.50000
v 0.50000 3.10000 0.00000
v 0.00000 3.10000 0.50000
vt -2.00000 0.00000
vt -2.50000 0.00000
vt -2.50000 1.00000
vt -2.50000 1.00000
vt -2.50000 0.00000
vt -3.00000 0.00000
vn 0.7050 0.0779 -0.7050
vn 0.0000 0.1098 -0.9940
vn 0.0000 0.9015 -0.4327
vn 0.0000 0.9015 -0.4327
vn 0.0000 0.1098 -0.9940
vn -0.7050 0.0779 -0.7050
g r0_bluff_grass_decal02_0
usemtl gake1_1
f 1/1/1 2/2/2 3/3/3
f 4/4/4 5/5/5 6/6/6
v 1.00000 1.90000 0.50000
v 0.50000 3.10000 0.00000
v 1.00000 3.10000 0.50000
v 1.00000 1.90000 0.50000
v 0.50000 1.90000 0.00000
v 0.50000 3.10000 0.00000
v 0.50000 1.90000 0.00000
v 0.00000 3.10000 0.50000
v 0.50000 3.10000 0.00000
v 0.50000 1.90000 0.00000
v 0.00000 1.90000 0.50000
v 0.00000 3.10000 0.50000
v 1.00000 1.90000 0.50000
v 0.50000 0.94000 0.50000
v 0.50000 1.90000 0.00000
v 0.50000 1.90000 0.00000
v 0.50000 0.94000 0.50000
v 0.00000 1.90000 0.50000
vt 0.00000 0.50000
vt -0.50000 1.00000
vt 0.00000 1.00000
vt 0.00000 0.50000
vt -0.50000 0.50000
vt -0.50000 1.00000
vt -0.50000 0.50000
vt -1.00000 1.00000
vt -0.50000 1.00000
vt -0.50000 0.50000
vt -1.00000 0.50000
vt -1.00000 1.00000
vt 0.00000 0.50000
vt -0.50000 0.15625
vt -0.50000 0.50000
vt -0.50000 0.50000
vt -0.50000 0.15625
vt -1.00000 0.50000
vn 0.7044 -0.0879 -0.7044
vn 0.0000 0.1098 -0.9940
vn 0.7050 0.0779 -0.7050
vn 0.7044 -0.0879 -0.7044
vn 0.0000 -0.1239 -0.9923
vn 0.0000 0.1098 -0.9940
vn 0.0000 -0.1239 -0.9923
vn -0.7050 0.0779 -0.7050
vn 0.0000 0.1098 -0.9940
vn 0.0000 -0.1239 -0.9923
vn -0.7044 -0.0879 -0.7044
vn -0.7050 0.0779 -0.7050
vn 0.7044 -0.0879 -0.7044
vn 0.0000 -0.4619 -0.8869
vn 0.0000 -0.1239 -0.9923
vn 0.0000 -0.1239 -0.9923
vn 0.0000 -0.4619 -0.8869
vn -0.7044 -0.0879 -0.7044
g r0_bluff_grass_decal02_1
usemtl yamagake01
f 7/7/7 8/8/8 9/9/9
f 10/10/10 11/11/11 12/12/12
f 13/13/13 14/14/14 15/15/15
f 16/16/16 17/17/17 18/18/18
f 19/19/19 20/20/20 21/21/21
f 22/22/22 23/23/23 24/24/24
