# r0_bluff_grass_decal01
# generated by tools/assets/build-tiles.js — do not edit
mtllib r0_bluff_grass_decal01.mtl
o r0_bluff_grass_decal01
v 2.48000 5.05000 0.52500
v 1.52000 5.05000 1.00500
v 2.96000 5.05000 1.00500
v 2.48000 5.05000 0.52500
v 1.52000 5.05000 0.04500
v 1.52000 5.05000 1.00500
v 1.52000 5.05000 0.04500
v 0.08000 5.05000 1.00500
v 1.52000 5.05000 1.00500
v 1.52000 5.05000 0.04500
v 0.56000 5.05000 0.52500
v 0.08000 5.05000 1.00500
vt 2.00000 0.00000
vt 0.50000 1.00000
vt 2.00000 1.00000
vt 2.00000 0.00000
vt 0.50000 0.00000
vt 0.50000 1.00000
vt 0.50000 0.00000
vt -1.00000 1.00000
vt 0.50000 1.00000
vt 0.50000 0.00000
vt -1.00000 0.00000
vt -1.00000 1.00000
vn 0.3970 0.4602 -0.7941
vn 0.0000 1.0000 0.0000
vn 0.0000 1.0000 0.0000
vn 0.3970 0.4602 -0.7941
vn 0.0000 0.1660 -0.9861
vn 0.0000 1.0000 0.0000
vn 0.0000 0.1660 -0.9861
vn 0.0000 1.0000 0.0000
vn 0.0000 1.0000 0.0000
vn 0.0000 0.1660 -0.9861
vn -0.3970 0.4602 -0.7941
vn 0.0000 1.0000 0.0000
g r0_bluff_grass_decal01_0
usemtl gake1_1
f 1/1/1 2/2/2 3/3/3
f 4/4/4 5/5/5 6/6/6
f 7/7/7 8/8/8 9/9/9
f 10/10/10 11/11/11 12/12/12
v 2.00000 1.69000 0.52500
v 1.52000 5.05000 0.04500
v 2.48000 5.05000 0.52500
v 2.00000 1.69000 0.52500
v 1.52000 1.69000 0.28500
v 1.52000 5.05000 0.04500
v 1.52000 1.69000 0.28500
v 0.56000 5.05000 0.52500
v 1.52000 5.05000 0.04500
v 1.52000 1.69000 0.28500
v 1.04000 1.69000 0.52500
v 0.56000 5.05000 0.52500
vt 1.25000 0.00000
vt 0.50000 1.00000
vt 1.25000 1.00000
vt 1.25000 0.00000
vt 0.50000 0.00000
vt 0.50000 1.00000
vt 0.50000 0.00000
vt -0.25000 1.00000
vt 0.50000 1.00000
vt 0.50000 0.00000
vt -0.25000 0.00000
vt -0.25000 1.00000
vn 0.4463 -0.0638 -0.8926
vn 0.0000 0.1660 -0.9861
vn 0.3970 0.4602 -0.7941
vn 0.4463 -0.0638 -0.8926
vn 0.0000 -0.0712 -0.9975
vn 0.0000 0.1660 -0.9861
vn 0.0000 -0.0712 -0.9975
vn -0.3970 0.4602 -0.7941
vn 0.0000 0.1660 -0.9861
vn 0.0000 -0.0712 -0.9975
vn -0.4463 -0.0638 -0.8926
vn -0.3970 0.4602 -0.7941
g r0_bluff_grass_decal01_1
usemtl yamagake01
f 13/13/13 14/14/14 15/15/15
f 16/16/16 17/17/17 18/18/18
f 19/19/19 20/20/20 21/21/21
f 22/22/22 23/23/23 24/24/24
