# river_border_c_small_corner_se
# generated by tools/assets/build-tiles.js — do not edit
mtllib river_border_c_small_corner_se.mtl
o river_border_c_small_corner_se
v 0.00000 -0.50000 0.37500
v 0.37500 -0.50000 0.37500
v 0.00000 -1.00000 0.00000
v 0.37500 -0.50000 0.00000
v 0.00000 -1.00000 0.00000
v 0.37500 -0.50000 0.37500
vt 0.00000 -0.81250
vt 0.50000 -0.81250
vt 0.50000 -1.00000
vt 1.00000 -0.81250
vt 0.50000 -1.00000
vt 0.50000 -0.81250
vn 0.0000 0.6000 -0.8000
vn 0.0000 0.6000 -0.8000
vn 0.0000 0.6000 -0.8000
vn -0.8000 0.6000 0.0000
vn -0.8000 0.6000 0.0000
vn -0.8000 0.6000 0.0000
g river_border_c_small_corner_se_0
usemtl kawa_soko
f 1/1/1 2/2/2 3/3/3
f 4/4/4 5/5/5 6/6/6
v 0.37500 -0.50000 0.00000
v -0.00000 -0.50000 0.00000
v 0.37500 -0.50000 0.37500
v 0.00000 -0.50000 0.37500
v 0.37500 -0.50000 0.37500
v -0.00000 -0.50000 0.00000
vt 1.00000 0.92969
vt 0.50000 0.00000
vt 0.50000 0.92969
vt 0.00000 0.92969
vt 0.50000 0.92969
vt 0.50000 0.00000
vn 0.0000 1.0000 0.0000
vn 0.0000 1.0000 0.0000
vn 0.0000 1.0000 0.0000
vn 0.0000 1.0000 0.0000
vn 0.0000 1.0000 0.0000
vn 0.0000 1.0000 0.0000
g river_border_c_small_corner_se_1
usemtl kawa_fuchi_1
f 7/7/7 8/8/8 9/9/9
f 10/10/10 11/11/11 12/12/12
v 0.50000 -0.25000 0.50000
v 0.37500 -0.50000 0.00000
v 0.37500 -0.50000 0.37500
v 0.50000 -0.25000 0.50000
v 0.50000 -0.25000 0.00000
v 0.37500 -0.50000 0.00000
v 0.37500 -0.50000 0.37500
v 0.00000 -0.25000 0.50000
v 0.50000 -0.25000 0.50000
v 0.37500 -0.50000 0.37500
v 0.00000 -0.50000 0.37500
v 0.00000 -0.25000 0.50000
vt 1.00000 0.00000
vt 2.00000 -1.00000
vt 1.00000 -1.00000
vt 1.00000 0.00000
vt 2.00000 0.00000
vt 2.00000 -1.00000
vt 1.00000 -1.00000
vt 0.00000 0.00000
vt 1.00000 0.00000
vt 1.00000 -1.00000
vt 0.00000 -1.00000
vt 0.00000 0.00000
vn -0.6247 0.7809 0.0000
vn -0.8944 0.4472 0.0000
vn -0.8944 0.4472 0.0000
vn -0.6247 0.7809 0.0000
vn -0.7071 0.7071 0.0000
vn -0.8944 0.4472 0.0000
vn 0.0000 0.4472 -0.8944
vn 0.0000 0.4472 -0.8944
vn 0.0000 0.4472 -0.8944
vn 0.0000 0.4472 -0.8944
vn 0.0000 0.4472 -0.8944
vn 0.0000 0.4472 -0.8944
g river_border_c_small_corner_se_2
usemtl gake01a2
f 13/13/13 14/14/14 15/15/15
f 16/16/16 17/17/17 18/18/18
f 19/19/19 20/20/20 21/21/21
f 22/22/22 23/23/23 24/24/24
v 0.50000 -0.25000 0.50000
v 0.00000 -0.00000 1.00000
v 1.00000 -0.00000 1.00000
v 0.50000 -0.25000 0.50000
v 0.00000 -0.25000 0.50000
v 0.00000 -0.00000 1.00000
v 1.00000 -0.00000 1.00000
v 0.50000 -0.25000 0.00000
v 0.50000 -0.25000 0.50000
v 1.00000 -0.00000 1.00000
v 1.00000 -0.00000 0.00000
v 0.50000 -0.25000 0.00000
vt 1.00000 -1.00000
vt 0.00000 0.00000
vt 1.00000 0.00000
vt 1.00000 -1.00000
vt 0.00000 -1.00000
vt 0.00000 0.00000
vt 1.00000 0.00000
vt 2.00000 -1.00000
vt 1.00000 -1.00000
vt 1.00000 0.00000
vt 2.00000 0.00000
vt 2.00000 -1.00000
vn 0.0000 0.8944 -0.4472
vn 0.0000 0.8944 -0.4472
vn 0.0000 0.8944 -0.4472
vn 0.0000 0.8944 -0.4472
vn 0.0000 0.8944 -0.4472
vn 0.0000 0.8944 -0.4472
vn -0.4472 0.8944 0.0000
vn -0.7071 0.7071 0.0000
vn -0.6247 0.7809 0.0000
vn -0.4472 0.8944 0.0000
vn 0.0000 1.0000 0.0000
vn -0.7071 0.7071 0.0000
g river_border_c_small_corner_se_3
usemtl gake1_1
f 25/25/25 26/26/26 27/27/27
f 28/28/28 29/29/29 30/30/30
f 31/31/31 32/32/32 33/33/33
f 34/34/34 35/35/35 36/36/36
