# river_border_inner_sw
# generated by tools/assets/build-tiles.js — do not edit
mtllib river_border_inner_sw.mtl
o river_border_inner_sw
v 0.00000 -1.00000 0.00000
v 0.62500 -0.50000 1.00000
v 1.00000 -1.00000 1.00000
v 0.00000 -1.00000 0.00000
v 0.00000 -0.50000 0.37500
v 0.62500 -0.50000 1.00000
vt 3.00000 -3.00000
vt 3.31250 -2.50000
vt 3.50000 -2.50000
vt 3.00000 -3.00000
vt 3.00000 -2.81250
vt 3.31250 -2.50000
vn 0.0001 1.0000 0.0000
vn 0.0000 0.5251 -0.8510
vn 0.0000 1.0000 -0.0001
vn 0.0001 1.0000 0.0000
vn 0.0000 0.5251 -0.8510
vn 0.0000 0.5251 -0.8510
g river_border_inner_sw_0
usemtl kawa_soko
f 1/1/1 2/2/2 3/3/3
f 4/4/4 5/5/5 6/6/6
v 0.00000 0.00000 1.00000
v 0.50000 -0.25000 1.00000
v 0.00000 -0.25000 0.50000
vt -0.50000 0.00000
vt 0.00000 -1.00000
vt -1.00000 -1.00000
vn 0.0000 1.0000 0.0000
vn 0.0000 0.7071 -0.7071
vn 0.0000 0.7071 -0.7071
g river_border_inner_sw_1
usemtl gake1_1
f 7/7/7 8/8/8 9/9/9
v 1.00000 -0.50000 1.00000
v 0.00000 -0.50000 0.37500
v 0.62500 -0.50000 1.00000
v 1.00000 -0.50000 1.00000
v 0.00000 -0.50000 0.00000
v 0.00000 -0.50000 0.37500
vt 0.00000 -1.00000
vt -1.00000 0.00000
vt 0.00000 0.00000
vt 0.00000 -1.00000
vt -1.00000 -1.00000
vt -1.00000 0.00000
vn 0.0000 1.0000 0.0000
vn 0.0000 1.0000 0.0000
vn 0.0000 1.0000 0.0000
vn 0.0000 1.0000 0.0000
vn 0.0000 1.0000 0.0000
vn 0.0000 1.0000 0.0000
g river_border_inner_sw_2
usemtl kawa_fuchi_1
f 10/10/10 11/11/11 12/12/12
f 13/13/13 14/14/14 15/15/15
v 0.00000 -0.50000 0.37500
v 0.50000 -0.25000 1.00000
v 0.62500 -0.50000 1.00000
v 0.00000 -0.50000 0.37500
v 0.00000 -0.25000 0.50000
v 0.50000 -0.25000 1.00000
vt -1.00000 -0.50000
vt 0.00000 0.00000
vt 0.00000 -0.50000
vt -1.00000 -0.50000
vt -1.00000 0.00000
vt 0.00000 0.00000
vn 0.0000 0.5250 -0.8511
vn 0.0000 0.7071 -0.7071
vn 0.0000 0.5251 -0.8510
vn 0.0000 0.5250 -0.8511
vn 0.0000 0.7071 -0.7071
vn 0.0000 0.7071 -0.7071
g river_border_inner_sw_3
usemtl gake01a2
f 16/16/16 17/17/17 18/18/18
f 19/19/19 20/20/20 21/21/21
