# river_border_center_v2
# generated by tools/assets/build-tiles.js — do not edit
mtllib river_border_center_v2.mtl
o river_border_center_v2
v 0.75000 -1.00000 0.75000
v 1.37500 -0.50000 0.00000
v 1.00000 -1.00000 0.00000
v 0.75000 -1.00000 0.75000
v 1.03125 -0.50000 1.03125
v 1.37500 -0.50000 0.00000
v 0.00000 -1.00000 1.00000
v 1.03125 -0.50000 1.03125
v 0.75000 -1.00000 0.75000
v 0.00000 -1.00000 1.00000
v 0.00000 -0.50000 1.37500
v 1.03125 -0.50000 1.03125
vt 0.12500 -0.95703
vt 0.50000 -0.64453
vt 0.50000 -0.83203
vt 0.12500 -0.95703
vt -0.01563 -0.81641
vt 0.50000 -0.64453
vt 0.00000 -1.33203
vt -0.01563 -0.81641
vt 0.12500 -0.95703
vt 0.00000 -1.33203
vt -0.18750 -1.33203
vt -0.01563 -0.81641
vn 0.0142 0.9998 0.0141
vn -0.6171 0.7597 -0.2050
vn 0.0000 1.0000 0.0000
vn 0.0142 0.9998 0.0141
vn -0.4293 0.7946 -0.4293
vn -0.6171 0.7597 -0.2050
vn 0.0000 1.0000 0.0000
vn -0.4293 0.7946 -0.4293
vn 0.0142 0.9998 0.0141
vn 0.0000 1.0000 0.0000
vn -0.2051 0.7597 -0.6171
vn -0.4293 0.7946 -0.4293
g river_border_center_v2_0
usemtl kawa_soko
f 1/1/1 2/2/2 3/3/3
f 4/4/4 5/5/5 6/6/6
f 7/7/7 8/8/8 9/9/9
f 10/10/10 11/11/11 12/12/12
v 1.12500 -0.25000 1.12500
v 2.00000 0.00000 0.00000
v 1.50000 -0.25000 0.00000
v 1.12500 -0.25000 1.12500
v 1.50000 -0.00000 1.50000
v 2.00000 0.00000 0.00000
v 0.00000 -0.25000 1.50000
v 1.50000 -0.00000 1.50000
v 1.12500 -0.25000 1.12500
v 0.00000 -0.25000 1.50000
v 0.00000 -0.00000 2.00000
v 1.50000 -0.00000 1.50000
vt 0.00391 -1.00000
vt 1.00000 0.00000
vt 1.00000 -1.00000
vt 0.00391 -1.00000
vt 0.00391 0.00000
vt 1.00000 0.00000
vt -1.00000 -1.00000
vt 0.00391 0.00000
vt 0.00391 -1.00000
vt -1.00000 -1.00000
vt -1.00000 0.00000
vt 0.00391 0.00000
vn -0.4850 0.7278 -0.4850
vn 0.0000 1.0000 0.0000
vn -0.6855 0.6913 -0.2285
vn -0.4850 0.7278 -0.4850
vn 0.0011 1.0000 0.0012
vn 0.0000 1.0000 0.0000
vn -0.2285 0.6913 -0.6855
vn 0.0011 1.0000 0.0012
vn -0.4850 0.7278 -0.4850
vn -0.2285 0.6913 -0.6855
vn 0.0000 1.0000 0.0000
vn 0.0011 1.0000 0.0012
g river_border_center_v2_1
usemtl gake1_1
f 13/13/13 14/14/14 15/15/15
f 16/16/16 17/17/17 18/18/18
f 19/19/19 20/20/20 21/21/21
f 22/22/22 23/23/23 24/24/24
v 1.37500 -0.50000 0.00000
v 0.75000 -0.50000 0.75000
v 1.03125 -0.50000 1.03125
v 1.37500 -0.50000 0.00000
v 1.00000 -0.50000 0.00000
v 0.75000 -0.50000 0.75000
v 1.03125 -0.50000 1.03125
v 0.00000 -0.50000 1.00000
v 0.00000 -0.50000 1.37500
v 1.03125 -0.50000 1.03125
v 0.75000 -0.50000 0.75000
v 0.00000 -0.50000 1.00000
vt 1.00000 0.00000
vt 0.00391 -1.00000
vt 0.00391 0.00000
vt 1.00000 0.00000
vt 1.00000 -1.00000
vt 0.00391 -1.00000
vt 0.00391 0.00000
vt -1.00000 -1.00000
vt -1.00000 0.00000
vt 0.00391 0.00000
vt 0.00391 -1.00000
vt -1.00000 -1.00000
vn 0.0000 1.0000 0.0000
vn 0.0000 1.0000 0.0000
vn 0.0000 1.0000 0.0000
vn 0.0000 1.0000 0.0000
vn 0.0000 1.0000 0.0000
vn 0.0000 1.0000 0.0000
vn 0.0000 1.0000 0.0000
vn 0.0000 1.0000 0.0000
vn 0.0000 1.0000 0.0000
vn 0.0000 1.0000 0.0000
vn 0.0000 1.0000 0.0000
vn 0.0000 1.0000 0.0000
g river_border_center_v2_2
usemtl kawa_fuchi_1
f 25/25/25 26/26/26 27/27/27
f 28/28/28 29/29/29 30/30/30
f 31/31/31 32/32/32 33/33/33
f 34/34/34 35/35/35 36/36/36
v 0.00000 -0.50000 1.37500
v 1.12500 -0.25000 1.12500
v 1.03125 -0.50000 1.03125
v 0.00000 -0.50000 1.37500
v 0.00000 -0.25000 1.50000
v 1.12500 -0.25000 1.12500
v 1.03125 -0.50000 1.03125
v 1.50000 -0.25000 0.00000
v 1.37500 -0.50000 0.00000
v 1.03125 -0.50000 1.03125
v 1.12500 -0.25000 1.12500
v 1.50000 -0.25000 0.00000
vt -1.00000 -0.50000
vt 0.00391 0.00000
vt 0.00391 -0.50000
vt -1.00000 -0.50000
vt -1.00000 0.00000
vt 0.00391 0.00000
vt 0.00391 -0.50000
vt 1.00000 0.00000
vt 1.00000 -0.50000
vt 0.00391 -0.50000
vt 0.00391 0.00000
vt 1.00000 0.00000
vn -0.2051 0.7597 -0.6171
vn -0.4792 0.7353 -0.4792
vn -0.4225 0.8019 -0.4225
vn -0.2051 0.7597 -0.6171
vn -0.2285 0.6913 -0.6855
vn -0.4792 0.7353 -0.4792
vn -0.4225 0.8019 -0.4225
vn -0.6855 0.6913 -0.2285
vn -0.6171 0.7597 -0.2051
vn -0.4225 0.8019 -0.4225
vn -0.4792 0.7353 -0.4792
vn -0.6855 0.6913 -0.2285
g river_border_center_v2_3
usemtl gake01a2
f 37/37/37 38/38/38 39/39/39
f 40/40/40 41/41/41 42/42/42
f 43/43/43 44/44/44 45/45/45
f 46/46/46 47/47/47 48/48/48
