# river_border_edge_w
# generated by tools/assets/build-tiles.js — do not edit
mtllib river_border_edge_w.mtl
o river_border_edge_w
v 1.00000 -1.00000 0.00000
v 0.62500 -0.50000 1.00000
v 1.00000 -1.00000 1.00000
v 1.00000 -1.00000 0.00000
v 0.62500 -0.50000 0.00000
v 0.62500 -0.50000 1.00000
vt 0.50000 -1.00000
vt 1.00000 -0.81250
vt 1.00000 -1.00000
vt 0.50000 -1.00000
vt 0.50000 -0.81250
vt 1.00000 -0.81250
vn 0.0000 1.0000 0.0000
vn 0.0000 1.0000 0.0000
vn 0.0000 1.0000 0.0000
vn 0.0000 1.0000 0.0000
vn 0.0000 1.0000 0.0000
vn 0.0000 1.0000 0.0000
g river_border_edge_w_0
usemtl kawa_soko
f 1/1/1 2/2/2 3/3/3
f 4/4/4 5/5/5 6/6/6
v 0.50000 -0.25000 1.00000
v 0.00000 -0.00000 0.00000
v 0.00000 -0.00000 1.00000
v 0.50000 -0.25000 1.00000
v 0.50000 -0.25000 0.00000
v 0.00000 -0.00000 0.00000
vt 1.00000 -1.00000
vt 0.00000 0.00000
vt 1.00000 0.00000
vt 1.00000 -1.00000
vt 0.00000 -1.00000
vt 0.00000 0.00000
vn 0.0000 1.0000 0.0000
vn 0.0000 1.0000 0.0000
vn 0.0000 1.0000 0.0000
vn 0.0000 1.0000 0.0000
vn 0.0000 1.0000 0.0000
vn 0.0000 1.0000 0.0000
g river_border_edge_w_1
usemtl gake1_1
f 7/7/7 8/8/8 9/9/9
f 10/10/10 11/11/11 12/12/12
v 0.62500 -0.50000 0.00000
v 0.50000 -0.25000 1.00000
v 0.62500 -0.50000 1.00000
v 0.62500 -0.50000 0.00000
v 0.50000 -0.25000 0.00000
v 0.50000 -0.25000 1.00000
vt 0.00000 -0.50000
vt 1.00000 0.00000
vt 1.00000 -0.50000
vt 0.00000 -0.50000
vt 0.00000 0.00000
vt 1.00000 0.00000
vn 0.0000 1.0000 0.0000
vn 0.0000 1.0000 0.0000
vn 0.0000 1.0000 0.0000
vn 0.0000 1.0000 0.0000
vn 0.0000 1.0000 0.0000
vn 0.0000 1.0000 0.0000
g river_border_edge_w_2
usemtl gake01a2
f 13/13/13 14/14/14 15/15/15
f 16/16/16 17/17/17 18/18/18
v 1.00000 -0.50000 1.00000
v 0.62500 -0.50000 0.00000
v 0.62500 -0.50000 1.00000
v 1.00000 -0.50000 1.00000
v 1.00000 -0.50000 0.00000
v 0.62500 -0.50000 0.00000
vt 1.00000 -1.00000
vt 0.00000 0.00000
vt 1.00000 0.00000
vt 1.00000 -1.00000
vt 0.00000 -1.00000
vt 0.00000 0.00000
vn 0.0000 1.0000 0.0000
vn 0.0000 1.0000 0.0000
vn 0.0000 1.0000 0.0000
vn 0.0000 1.0000 0.0000
vn 0.0000 1.0000 0.0000
vn 0.0000 1.0000 0.0000
g river_border_edge_w_3
usemtl kawa_fuchi_1
f 19/19/19 20/20/20 21/21/21
f 22/22/22 23/23/23 24/24/24
