# bbridge_v2
# generated by tools/assets/build-tiles.js — do not edit
mtllib bbridge_v2.mtl
o bbridge_v2
v 0.00000 0.12500 0.00000
v 1.00000 0.12500 1.00000
v 1.00000 0.12500 0.00000
v 1.00000 0.12500 1.00000
v 0.00000 0.12500 0.00000
v 0.00000 0.12500 1.00000
vt 0.50000 -0.00000
vt -0.00000 -0.50000
vt -0.00000 -0.00000
vt -0.00000 -0.50000
vt 0.50000 -0.00000
vt 0.50000 -0.50000
vn 0.0000 1.0000 0.0000
vn 0.0000 1.0000 0.0000
vn 0.0000 1.0000 0.0000
vn 0.0000 1.0000 0.0000
vn 0.0000 1.0000 0.0000
vn 0.0000 1.0000 0.0000
g bbridge_v2_0
usemtl nbridge_lm4
f 1/1/1 2/2/2 3/3/3
f 4/4/4 5/5/5 6/6/6
