# bridge21
# generated by tools/assets/build-tiles.js — do not edit
mtllib bridge21.mtl
o bridge21
v 1.50000 -0.00000 0.00000
v 3.00000 0.00000 1.00000
v 3.00000 -0.00000 0.00000
v 1.50000 -0.00000 0.00000
v 1.50000 0.00000 1.00000
v 3.00000 0.00000 1.00000
v 0.00000 -0.00000 0.00000
v 1.50000 0.00000 1.00000
v 1.50000 -0.00000 0.00000
v 0.00000 -0.00000 0.00000
v 0.00000 0.00000 1.00000
v 1.50000 0.00000 1.00000
vt 0.43750 0.00000
vt 0.00293 0.25000
vt 0.00293 0.00000
vt 0.43750 0.00000
vt 0.43750 0.25000
vt 0.00293 0.25000
vt 0.00293 0.00000
vt 0.43750 0.25000
vt 0.43750 0.00000
vt 0.00293 0.00000
vt 0.00293 0.25000
vt 0.43750 0.25000
vn 0.0000 1.0000 0.0000
vn 0.0000 1.0000 0.0000
vn 0.0000 1.0000 0.0000
vn 0.0000 1.0000 0.0000
vn 0.0000 1.0000 0.0000
vn 0.0000 1.0000 0.0000
vn 0.0000 1.0000 0.0000
vn 0.0000 1.0000 0.0000
vn 0.0000 1.0000 0.0000
vn 0.0000 1.0000 0.0000
vn 0.0000 1.0000 0.0000
vn 0.0000 1.0000 0.0000
g bridge21_0
usemtl bridge
f 1/1/1 2/2/2 3/3/3
f 4/4/4 5/5/5 6/6/6
f 7/7/7 8/8/8 9/9/9
f 10/10/10 11/11/11 12/12/12
