# house_medieval
# generated by tools/assets/build-tiles.js — do not edit
mtllib house_medieval.mtl
o house_medieval
v -0.72954 0.05000 -0.90255
v 5.62819 0.05000 3.28584
v 5.62819 0.05000 -0.90255
v -0.72954 0.05000 -0.90255
v -0.72954 0.05000 3.28584
v 5.62819 0.05000 3.28584
v 5.62819 0.05000 3.28584
v 5.92819 0.05000 -1.20255
v 5.62819 0.05000 -0.90255
v 5.62819 0.05000 3.28584
v 5.92819 0.05000 2.98584
v 5.92819 0.05000 -1.20255
v 5.62819 0.05000 -0.90255
v -0.42954 0.05000 -1.20255
v -0.72954 0.05000 -0.90255
v 5.62819 0.05000 -0.90255
v 5.92819 0.05000 -1.20255
v -0.42954 0.05000 -1.20255
vt 0.00000 0.05391
vt 0.95494 1.00000
vt 0.95494 0.05391
vt 0.00000 0.05391
vt 0.00000 1.00000
vt 0.95494 1.00000
vt 0.95494 1.00000
vt 1.00000 0.00000
vt 0.95494 0.05391
vt 0.95494 1.00000
vt 1.00000 0.94609
vt 1.00000 0.00000
vt 0.95494 0.05391
vt 0.04506 0.00000
vt 0.00000 0.05391
vt 0.95494 0.05391
vt 1.00000 0.00000
vt 0.04506 0.00000
vn 0.0000 1.0000 0.0000
vn 0.0000 1.0000 0.0000
vn 0.0000 1.0000 0.0000
vn 0.0000 1.0000 0.0000
vn 0.0000 1.0000 0.0000
vn 0.0000 1.0000 0.0000
vn 0.0000 1.0000 0.0000
vn 0.0000 1.0000 0.0000
vn 0.0000 1.0000 0.0000
vn 0.0000 1.0000 0.0000
vn 0.0000 1.0000 0.0000
vn 0.0000 1.0000 0.0000
vn 0.0000 1.0000 0.0000
vn 0.0000 1.0000 0.0000
vn 0.0000 1.0000 0.0000
vn 0.0000 1.0000 0.0000
vn 0.0000 1.0000 0.0000
vn 0.0000 1.0000 0.0000
g house_medieval_0
usemtl h_kage
f 1/1/1 2/2/2 3/3/3
f 4/4/4 5/5/5 6/6/6
f 7/7/7 8/8/8 9/9/9
f 10/10/10 11/11/11 12/12/12
f 13/13/13 14/14/14 15/15/15
f 16/16/16 17/17/17 18/18/18
v 4.78031 2.09076 2.41366
v 4.78031 3.84076 1.51366
v 4.78031 3.84076 2.41366
v 4.78031 2.09076 2.41366
v 4.78031 2.09076 1.51366
v 4.78031 3.84076 1.51366
v 4.78031 2.09076 1.51366
v 3.88031 3.84076 1.51366
v 4.78031 3.84076 1.51366
v 4.78031 2.09076 1.51366
v 3.88031 2.09076 1.51366
v 3.88031 3.84076 1.51366
v 3.13799 0.10000 -0.30000
v 3.13799 2.10000 0.70000
v 3.13799 2.10000 -0.30000
v 3.13799 0.10000 -0.30000
v 3.13799 0.10000 0.70000
v 3.13799 2.10000 0.70000
v 5.00000 0.10000 1.70000
v 5.00000 2.10000 3.06034
v 5.00000 0.10000 3.06034
v 5.00000 0.10000 1.70000
v 5.00000 2.10000 1.70000
v 5.00000 2.10000 3.06034
v 0.00000 0.10000 1.70000
v 0.00000 2.10000 -0.30000
v 0.00000 0.10000 -0.30000
v 0.00000 0.10000 1.70000
v 0.00000 2.10000 1.70000
v 0.00000 2.10000 -0.30000
v -0.68235 1.94659 2.51724
v 2.40128 4.20008 3.32691
v 2.40128 4.20008 2.51724
v -0.68235 1.94659 2.51724
v -0.68235 1.94659 3.32691
v 2.40128 4.20008 3.32691
v 3.88031 2.09076 1.51366
v 3.88031 3.84076 2.41366
v 3.88031 3.84076 1.51366
v 3.88031 2.09076 1.51366
v 3.88031 2.09076 2.41366
v 3.88031 3.84076 2.41366
v 3.65531 3.84076 2.38922
v 3.65531 4.29076 1.53810
v 3.65531 3.84076 1.53810
v 3.65531 3.84076 2.38922
v 3.65531 4.29076 2.38922
v 3.65531 4.29076 1.53810
v 5.00531 3.84076 1.53810
v 5.00531 4.29076 2.38922
v 5.00531 3.84076 2.38922
v 5.00531 3.84076 1.53810
v 5.00531 4.29076 1.53810
v 5.00531 4.29076 2.38922
v 3.90474 3.84076 1.28866
v 4.75587 4.29076 1.28866
v 4.75587 3.84076 1.28866
v 3.90474 3.84076 1.28866
v 3.90474 4.29076 1.28866
v 4.75587 4.29076 1.28866
v 2.59872 4.20008 2.51724
v 2.40128 4.20008 3.32691
v 2.59872 4.20008 3.32691
v 2.59872 4.20008 2.51724
v 2.40128 4.20008 2.51724
v 2.40128 4.20008 3.32691
v 2.59872 4.20008 2.51724
v 5.68235 1.94659 3.32691
v 5.68235 1.94659 2.51724
v 2.59872 4.20008 2.51724
v 2.59872 4.20008 3.32691
v 5.68235 1.94659 3.32691
v 1.86201 0.10000 0.70000
v 3.13799 2.10000 0.70000
v 3.13799 0.10000 0.70000
v 1.86201 0.10000 0.70000
v 1.86201 2.10000 0.70000
v 3.13799 2.10000 0.70000
v 0.79706 0.56090 -0.37014
v 1.72281 1.69858 -0.37014
v 1.72281 0.56090 -0.37014
v 0.79706 0.56090 -0.37014
v 0.79706 1.69858 -0.37014
v 1.72281 1.69858 -0.37014
v 1.86201 2.10000 -0.30000
v 1.86201 0.10000 0.70000
v 1.86201 0.10000 -0.30000
v 1.86201 2.10000 -0.30000
v 1.86201 2.10000 0.70000
v 1.86201 0.10000 0.70000
v 1.86201 0.10000 -0.30000
v 3.13799 0.10000 0.70000
v 3.13799 0.10000 -0.30000
v 1.86201 0.10000 -0.30000
v 1.86201 0.10000 0.70000
v 3.13799 0.10000 0.70000
v 1.86322 2.54133 -0.37014
v 3.13060 3.48520 -0.37014
v 3.13060 2.54133 -0.37014
v 1.86322 2.54133 -0.37014
v 1.86322 3.48520 -0.37014
v 3.13060 3.48520 -0.37014
v 3.31465 0.27452 -0.37014
v 4.58366 1.54352 -0.37014
v 4.58366 0.27452 -0.37014
v 3.31465 0.27452 -0.37014
v 3.31465 1.54352 -0.37014
v 4.58366 1.54352 -0.37014
v 3.13799 0.10000 -0.30000
v 5.20000 2.10000 -0.30000
v 5.20000 0.10000 -0.30000
v 3.13799 0.10000 -0.30000
v 3.13799 2.10000 -0.30000
v 5.20000 2.10000 -0.30000
v 5.00531 4.29076 1.53810
v 3.90474 4.29076 1.28866
v 3.65531 4.29076 1.53810
v 5.00531 4.29076 1.53810
v 4.75587 4.29076 1.28866
v 3.90474 4.29076 1.28866
v 4.75587 4.29076 1.28866
v 5.00531 3.84076 1.53810
v 4.75587 3.84076 1.28866
v 4.75587 4.29076 1.28866
v 5.00531 4.29076 1.53810
v 5.00531 3.84076 1.53810
v 3.65531 4.29076 1.53810
v 3.90474 3.84076 1.28866
v 3.65531 3.84076 1.53810
v 3.65531 4.29076 1.53810
v 3.90474 4.29076 1.28866
v 3.90474 3.84076 1.28866
v 5.00531 4.29076 1.53810
v 3.65531 4.29076 2.38922
v 5.00531 4.29076 2.38922
v 5.00531 4.29076 1.53810
v 3.65531 4.29076 1.53810
v 3.65531 4.29076 2.38922
v 3.65531 4.29076 2.38922
v 4.75587 4.29076 2.63866
v 5.00531 4.29076 2.38922
v 3.65531 4.29076 2.38922
v 3.90474 4.29076 2.63866
v 4.75587 4.29076 2.63866
v 2.59872 4.20008 -0.75173
v 5.68235 1.94659 0.88276
v 5.68235 1.94659 -0.75173
v 2.59872 4.20008 -0.75173
v 2.59872 4.20008 0.88276
v 5.68235 1.94659 0.88276
v 2.59872 4.20008 0.88276
v 5.68235 1.94659 2.51724
v 5.68235 1.94659 0.88276
v 2.59872 4.20008 0.88276
v 2.59872 4.20008 2.51724
v 5.68235 1.94659 2.51724
v 2.59872 4.20008 -0.75173
v 2.40128 4.20008 0.88276
v 2.59872 4.20008 0.88276
v 2.59872 4.20008 -0.75173
v 2.40128 4.20008 -0.75173
v 2.40128 4.20008 0.88276
v 2.59872 4.20008 0.88276
v 2.40128 4.20008 2.51724
v 2.59872 4.20008 2.51724
v 2.59872 4.20008 0.88276
v 2.40128 4.20008 0.88276
v 2.40128 4.20008 2.51724
v -0.68235 1.94659 -0.75173
v 2.40128 4.20008 0.88276
v 2.40128 4.20008 -0.75173
v -0.68235 1.94659 -0.75173
v -0.68235 1.94659 0.88276
v 2.40128 4.20008 0.88276
v -0.68235 1.94659 0.88276
v 2.40128 4.20008 2.51724
v 2.40128 4.20008 0.88276
v -0.68235 1.94659 0.88276
v -0.68235 1.94659 2.51724
v 2.40128 4.20008 2.51724
v -0.20000 0.10000 -0.30000
v 1.86201 2.10000 -0.30000
v 1.86201 0.10000 -0.30000
v -0.20000 0.10000 -0.30000
v -0.20000 2.10000 -0.30000
v 1.86201 2.10000 -0.30000
v 5.00000 0.10000 -0.30000
v 5.00000 2.10000 1.70000
v 5.00000 0.10000 1.70000
v 5.00000 0.10000 -0.30000
v 5.00000 2.10000 -0.30000
v 5.00000 2.10000 1.70000
v 0.00000 0.10000 3.06034
v 0.00000 2.10000 1.70000
v 0.00000 0.10000 1.70000
v 0.00000 0.10000 3.06034
v 0.00000 2.10000 3.06034
v 0.00000 2.10000 1.70000
v 0.00000 2.10000 3.06034
v 5.00000 0.10000 3.06034
v 5.00000 2.10000 3.06034
v 0.00000 2.10000 3.06034
v 0.00000 0.10000 3.06034
v 5.00000 0.10000 3.06034
v 2.50000 2.46667 -0.40000
v 0.44773 2.60000 -0.30000
v 2.50000 2.60000 -0.30000
v 2.50000 2.46667 -0.40000
v 0.21964 2.46667 -0.40000
v 0.44773 2.60000 -0.30000
v 2.50000 2.10000 -0.30000
v -0.10275 2.23333 -0.40000
v 2.50000 2.23333 -0.40000
v 2.50000 2.10000 -0.30000
v 0.00000 2.10000 -0.30000
v -0.10275 2.23333 -0.40000
v 2.50000 2.23333 -0.40000
v 0.21964 2.46667 -0.40000
v 2.50000 2.46667 -0.40000
v 2.50000 2.23333 -0.40000
v -0.10275 2.23333 -0.40000
v 0.21964 2.46667 -0.40000
v 5.10275 2.23333 -0.40000
v 2.50000 2.46667 -0.40000
v 4.78036 2.46667 -0.40000
v 5.10275 2.23333 -0.40000
v 2.50000 2.23333 -0.40000
v 2.50000 2.46667 -0.40000
v 5.00000 2.10000 -0.30000
v 2.50000 2.23333 -0.40000
v 5.10275 2.23333 -0.40000
v 5.00000 2.10000 -0.30000
v 2.50000 2.10000 -0.30000
v 2.50000 2.23333 -0.40000
v 4.78036 2.46667 -0.40000
v 2.50000 2.60000 -0.30000
v 4.55227 2.60000 -0.30000
v 4.78036 2.46667 -0.40000
v 2.50000 2.46667 -0.40000
v 2.50000 2.60000 -0.30000
v 2.50000 4.10000 -0.30000
v 5.24325 2.10000 -0.30000
v -0.24324 2.10000 -0.30000
vt 0.89924 0.53596
vt 0.72967 0.65545
vt 0.89924 0.65545
vt 0.89924 0.53596
vt 0.72967 0.53596
vt 0.72967 0.65545
vt 0.89688 0.54398
vt 0.72816 0.64797
vt 0.89688 0.64797
vt 0.89688 0.54398
vt 0.72816 0.54398
vt 0.72816 0.64797
vt 0.92153 0.18394
vt 0.92153 0.26137
vt 0.92153 0.26137
vt 0.92153 0.18394
vt 0.92153 0.18394
vt 0.92153 0.26137
vt 0.47182 0.00608
vt 0.06904 0.49785
vt 0.06904 0.00608
vt 0.47182 0.00608
vt 0.47182 0.49785
vt 0.06904 0.49785
vt 0.45970 0.00608
vt 0.06933 0.49785
vt 0.06933 0.00608
vt 0.45970 0.00608
vt 0.45970 0.49785
vt 0.06933 0.49785
vt 0.00663 0.72584
vt 0.98598 0.86070
vt 0.98598 0.72584
vt 0.00663 0.72584
vt 0.00663 0.86070
vt 0.98598 0.86070
vt 0.72967 0.53596
vt 0.89924 0.65545
vt 0.72967 0.65545
vt 0.72967 0.53596
vt 0.89924 0.53596
vt 0.89924 0.65545
vt 0.87129 0.67572
vt 0.75175 0.71686
vt 0.75175 0.67572
vt 0.87129 0.67572
vt 0.87129 0.71686
vt 0.75175 0.71686
vt 0.75175 0.67572
vt 0.87129 0.71686
vt 0.87129 0.67572
vt 0.75175 0.67572
vt 0.75175 0.71686
vt 0.87129 0.71686
vt 0.75103 0.67516
vt 0.87730 0.71682
vt 0.87730 0.67516
vt 0.75103 0.67516
vt 0.75103 0.71682
vt 0.87730 0.71682
vt 0.99221 0.72446
vt 0.97494 0.86357
vt 0.99221 0.86357
vt 0.99221 0.72446
vt 0.97494 0.72446
vt 0.97494 0.86357
vt 0.98598 0.72584
vt 0.00663 0.86070
vt 0.00663 0.72584
vt 0.98598 0.72584
vt 0.98598 0.86070
vt 0.00663 0.86070
vt 0.84410 0.18394
vt 0.92153 0.26137
vt 0.92153 0.18394
vt 0.84410 0.18394
vt 0.84410 0.26137
vt 0.92153 0.26137
vt 0.26335 0.54296
vt 0.43152 0.71050
vt 0.43152 0.54296
vt 0.26335 0.54296
vt 0.26335 0.71050
vt 0.43152 0.71050
vt 0.84410 0.26137
vt 0.84410 0.18394
vt 0.84410 0.18394
vt 0.84410 0.26137
vt 0.84410 0.26137
vt 0.84410 0.18394
vt 0.75745 0.00173
vt 0.99212 0.23640
vt 0.99212 0.00173
vt 0.75745 0.00173
vt 0.75745 0.23640
vt 0.99212 0.23640
vt 0.01041 0.57244
vt 0.23674 0.70969
vt 0.23674 0.57244
vt 0.01041 0.57244
vt 0.01041 0.70969
vt 0.23674 0.70969
vt 0.49799 0.04547
vt 0.74263 0.29012
vt 0.74263 0.04547
vt 0.49799 0.04547
vt 0.49799 0.29012
vt 0.74263 0.29012
vt 0.48409 0.00669
vt 0.00627 0.44434
vt 0.00627 0.00669
vt 0.48409 0.00669
vt 0.48409 0.44434
vt 0.00627 0.44434
vt 0.68315 0.57227
vt 0.48885 0.53963
vt 0.44481 0.57227
vt 0.68315 0.57227
vt 0.63911 0.53963
vt 0.48885 0.53963
vt 0.87730 0.71682
vt 0.91430 0.67516
vt 0.87730 0.67516
vt 0.87730 0.71682
vt 0.91430 0.71682
vt 0.91430 0.67516
vt 0.71403 0.71682
vt 0.75103 0.67516
vt 0.71403 0.67516
vt 0.71403 0.71682
vt 0.75103 0.71682
vt 0.75103 0.67516
vt 0.68315 0.57227
vt 0.44481 0.68365
vt 0.68315 0.68365
vt 0.68315 0.57227
vt 0.44481 0.57227
vt 0.44481 0.68365
vt 0.44481 0.68365
vt 0.63911 0.71629
vt 0.68315 0.68365
vt 0.44481 0.68365
vt 0.48885 0.71629
vt 0.63911 0.71629
vt 0.98598 0.72584
vt 0.00663 0.99345
vt 0.00663 0.72584
vt 0.98598 0.72584
vt 0.98598 0.99345
vt 0.00663 0.99345
vt 0.98598 0.72584
vt 0.00663 0.99345
vt 0.00663 0.72584
vt 0.98598 0.72584
vt 0.98598 0.99345
vt 0.00663 0.99345
vt 0.99221 0.72446
vt 0.97494 0.99632
vt 0.99221 0.99632
vt 0.99221 0.72446
vt 0.97494 0.72446
vt 0.97494 0.99632
vt 0.99221 0.72446
vt 0.97494 0.99632
vt 0.99221 0.99632
vt 0.99221 0.72446
vt 0.97494 0.72446
vt 0.97494 0.99632
vt 0.00663 0.72584
vt 0.98598 0.99345
vt 0.98598 0.72584
vt 0.00663 0.72584
vt 0.00663 0.99345
vt 0.98598 0.99345
vt 0.00663 0.72584
vt 0.98598 0.99345
vt 0.98598 0.72584
vt 0.00663 0.72584
vt 0.00663 0.99345
vt 0.98598 0.99345
vt 0.00627 0.00669
vt 0.48409 0.44434
vt 0.48409 0.00669
vt 0.00627 0.00669
vt 0.00627 0.44434
vt 0.48409 0.44434
vt 0.06933 0.00608
vt 0.45970 0.49785
vt 0.45970 0.00608
vt 0.06933 0.00608
vt 0.06933 0.49785
vt 0.45970 0.49785
vt 0.06904 0.00608
vt 0.47182 0.49785
vt 0.47182 0.00608
vt 0.06904 0.00608
vt 0.06904 0.49785
vt 0.47182 0.49785
vt 0.06904 0.49785
vt 0.06904 0.00608
vt 0.06904 0.49785
vt 0.06904 0.49785
vt 0.06904 0.00608
vt 0.06904 0.00608
vt 0.99175 0.37150
vt 0.59763 0.39472
vt 0.99175 0.39472
vt 0.99175 0.37150
vt 0.55383 0.37150
vt 0.59763 0.39472
vt 0.99175 0.30764
vt 0.49191 0.33086
vt 0.99175 0.33086
vt 0.99175 0.30764
vt 0.51165 0.30764
vt 0.49191 0.33086
vt 0.99175 0.33086
vt 0.55383 0.37150
vt 0.99175 0.37150
vt 0.99175 0.33086
vt 0.49191 0.33086
vt 0.55383 0.37150
vt 0.99175 0.33086
vt 0.49191 0.37150
vt 0.92984 0.37150
vt 0.99175 0.33086
vt 0.49191 0.33086
vt 0.49191 0.37150
vt 0.97202 0.30764
vt 0.49191 0.33086
vt 0.99175 0.33086
vt 0.97202 0.30764
vt 0.49191 0.30764
vt 0.49191 0.33086
vt 0.92984 0.37150
vt 0.49191 0.39472
vt 0.88603 0.39472
vt 0.92984 0.37150
vt 0.49191 0.37150
vt 0.49191 0.39472
vt 0.74608 0.51075
vt 0.82947 0.42035
vt 0.66268 0.42035
vn 1.0000 0.0000 0.0000
vn 1.0000 0.0000 0.0000
vn 1.0000 0.0000 0.0000
vn 1.0000 0.0000 0.0000
vn 1.0000 0.0000 0.0000
vn 1.0000 0.0000 0.0000
vn 0.0000 0.0000 -1.0000
vn 0.0000 0.0000 -1.0000
vn 0.0000 0.0000 -1.0000
vn 0.0000 0.0000 -1.0000
vn 0.0000 0.0000 -1.0000
vn 0.0000 0.0000 -1.0000
vn -1.0000 0.0000 0.0000
vn -1.0000 0.0000 0.0000
vn -1.0000 0.0000 0.0000
vn -1.0000 0.0000 0.0000
vn -1.0000 0.0000 0.0000
vn -1.0000 0.0000 0.0000
vn 1.0000 0.0000 0.0000
vn 1.0000 0.0000 0.0000
vn 1.0000 0.0000 0.0000
vn 1.0000 0.0000 0.0000
vn 1.0000 0.0000 0.0000
vn 1.0000 0.0000 0.0000
vn -1.0000 0.0000 0.0000
vn -1.0000 0.0000 0.0000
vn -1.0000 0.0000 0.0000
vn -1.0000 0.0000 0.0000
vn -1.0000 0.0000 0.0000
vn -1.0000 0.0000 0.0000
vn -0.5900 0.8074 0.0000
vn -0.5900 0.8074 0.0000
vn -0.5900 0.8074 0.0000
vn -0.5900 0.8074 0.0000
vn -0.5900 0.8074 0.0000
vn -0.5900 0.8074 0.0000
vn -1.0000 0.0000 0.0000
vn -1.0000 0.0000 0.0000
vn -1.0000 0.0000 0.0000
vn -1.0000 0.0000 0.0000
vn -1.0000 0.0000 0.0000
vn -1.0000 0.0000 0.0000
vn -1.0000 0.0000 0.0000
vn -1.0000 0.0000 0.0000
vn -1.0000 0.0000 0.0000
vn -1.0000 0.0000 0.0000
vn -1.0000 0.0000 0.0000
vn -1.0000 0.0000 0.0000
vn 1.0000 0.0000 0.0000
vn 1.0000 0.0000 0.0000
vn 1.0000 0.0000 0.0000
vn 1.0000 0.0000 0.0000
vn 1.0000 0.0000 0.0000
vn 1.0000 0.0000 0.0000
vn 0.0000 0.0000 -1.0000
vn 0.0000 0.0000 -1.0000
vn 0.0000 0.0000 -1.0000
vn 0.0000 0.0000 -1.0000
vn 0.0000 0.0000 -1.0000
vn 0.0000 0.0000 -1.0000
vn 0.0000 1.0000 0.0000
vn 0.0000 1.0000 0.0000
vn 0.0000 1.0000 0.0000
vn 0.0000 1.0000 0.0000
vn 0.0000 1.0000 0.0000
vn 0.0000 1.0000 0.0000
vn 0.5900 0.8074 0.0000
vn 0.5900 0.8074 0.0000
vn 0.5900 0.8074 0.0000
vn 0.5900 0.8074 0.0000
vn 0.5900 0.8074 0.0000
vn 0.5900 0.8074 0.0000
vn 0.0000 0.0000 -1.0000
vn 0.0000 0.0000 -1.0000
vn 0.0000 0.0000 -1.0000
vn 0.0000 0.0000 -1.0000
vn 0.0000 0.0000 -1.0000
vn 0.0000 0.0000 -1.0000
vn 0.0000 0.0000 -1.0000
vn 0.0000 0.0000 -1.0000
vn 0.0000 0.0000 -1.0000
vn 0.0000 0.0000 -1.0000
vn 0.0000 0.0000 -1.0000
vn 0.0000 0.0000 -1.0000
vn 1.0000 0.0000 0.0000
vn 1.0000 0.0000 0.0000
vn 1.0000 0.0000 0.0000
vn 1.0000 0.0000 0.0000
vn 1.0000 0.0000 0.0000
vn 1.0000 0.0000 0.0000
vn 0.0000 1.0000 0.0000
vn 0.0000 1.0000 0.0000
vn 0.0000 1.0000 0.0000
vn 0.0000 1.0000 0.0000
vn 0.0000 1.0000 0.0000
vn 0.0000 1.0000 0.0000
vn 0.0000 0.0000 -1.0000
vn 0.0000 0.0000 -1.0000
vn 0.0000 0.0000 -1.0000
vn 0.0000 0.0000 -1.0000
vn 0.0000 0.0000 -1.0000
vn 0.0000 0.0000 -1.0000
vn 0.0000 0.0000 -1.0000
vn 0.0000 0.0000 -1.0000
vn 0.0000 0.0000 -1.0000
vn 0.0000 0.0000 -1.0000
vn 0.0000 0.0000 -1.0000
vn 0.0000 0.0000 -1.0000
vn 0.0000 0.0000 -1.0000
vn 0.0000 0.0000 -1.0000
vn 0.0000 0.0000 -1.0000
vn 0.0000 0.0000 -1.0000
vn 0.0000 0.0000 -1.0000
vn 0.0000 0.0000 -1.0000
vn 0.0000 1.0000 0.0000
vn 0.0000 1.0000 0.0000
vn 0.0000 1.0000 0.0000
vn 0.0000 1.0000 0.0000
vn 0.0000 1.0000 0.0000
vn 0.0000 1.0000 0.0000
vn 0.7071 0.0000 -0.7071
vn 0.7071 0.0000 -0.7071
vn 0.7071 0.0000 -0.7071
vn 0.7071 0.0000 -0.7071
vn 0.7071 0.0000 -0.7071
vn 0.7071 0.0000 -0.7071
vn -0.7071 0.0000 -0.7071
vn -0.7071 0.0000 -0.7071
vn -0.7071 0.0000 -0.7071
vn -0.7071 0.0000 -0.7071
vn -0.7071 0.0000 -0.7071
vn -0.7071 0.0000 -0.7071
vn 0.0000 1.0000 0.0000
vn 0.0000 1.0000 0.0000
vn 0.0000 1.0000 0.0000
vn 0.0000 1.0000 0.0000
vn 0.0000 1.0000 0.0000
vn 0.0000 1.0000 0.0000
vn 0.0000 1.0000 0.0000
vn 0.0000 1.0000 0.0000
vn 0.0000 1.0000 0.0000
vn 0.0000 1.0000 0.0000
vn 0.0000 1.0000 0.0000
vn 0.0000 1.0000 0.0000
vn 0.5900 0.8074 0.0000
vn 0.5900 0.8074 0.0000
vn 0.5900 0.8074 0.0000
vn 0.5900 0.8074 0.0000
vn 0.5900 0.8074 0.0000
vn 0.5900 0.8074 0.0000
vn 0.5900 0.8074 0.0000
vn 0.5900 0.8074 0.0000
vn 0.5900 0.8074 0.0000
vn 0.5900 0.8074 0.0000
vn 0.5900 0.8074 0.0000
vn 0.5900 0.8074 0.0000
vn 0.0000 1.0000 0.0000
vn 0.0000 1.0000 0.0000
vn 0.0000 1.0000 0.0000
vn 0.0000 1.0000 0.0000
vn 0.0000 1.0000 0.0000
vn 0.0000 1.0000 0.0000
vn 0.0000 1.0000 0.0000
vn 0.0000 1.0000 0.0000
vn 0.0000 1.0000 0.0000
vn 0.0000 1.0000 0.0000
vn 0.0000 1.0000 0.0000
vn 0.0000 1.0000 0.0000
vn -0.5900 0.8074 0.0000
vn -0.5900 0.8074 0.0000
vn -0.5900 0.8074 0.0000
vn -0.5900 0.8074 0.0000
vn -0.5900 0.8074 0.0000
vn -0.5900 0.8074 0.0000
vn -0.5900 0.8074 0.0000
vn -0.5900 0.8074 0.0000
vn -0.5900 0.8074 0.0000
vn -0.5900 0.8074 0.0000
vn -0.5900 0.8074 0.0000
vn -0.5900 0.8074 0.0000
vn 0.0000 0.0000 -1.0000
vn 0.0000 0.0000 -1.0000
vn 0.0000 0.0000 -1.0000
vn 0.0000 0.0000 -1.0000
vn 0.0000 0.0000 -1.0000
vn 0.0000 0.0000 -1.0000
vn 1.0000 0.0000 0.0000
vn 1.0000 0.0000 0.0000
vn 1.0000 0.0000 0.0000
vn 1.0000 0.0000 0.0000
vn 1.0000 0.0000 0.0000
vn 1.0000 0.0000 0.0000
vn -1.0000 0.0000 0.0000
vn -1.0000 0.0000 0.0000
vn -1.0000 0.0000 0.0000
vn -1.0000 0.0000 0.0000
vn -1.0000 0.0000 0.0000
vn -1.0000 0.0000 0.0000
vn 0.0000 0.0000 1.0000
vn 0.0000 0.0000 1.0000
vn 0.0000 0.0000 1.0000
vn 0.0000 0.0000 1.0000
vn 0.0000 0.0000 1.0000
vn 0.0000 0.0000 1.0000
vn 0.0000 0.3162 -0.9487
vn 0.0000 0.6000 -0.8000
vn 0.0000 0.6000 -0.8000
vn 0.0000 0.3162 -0.9487
vn 0.0000 0.1244 -0.9922
vn 0.0000 0.6000 -0.8000
vn 0.0000 -0.6000 -0.8000
vn 0.0000 -0.3903 -0.9207
vn 0.0000 -0.3162 -0.9487
vn 0.0000 -0.6000 -0.8000
vn 0.0000 -0.6000 -0.8000
vn 0.0000 -0.3903 -0.9207
vn 0.0000 -0.3162 -0.9487
vn 0.0000 0.1244 -0.9922
vn 0.0000 0.3162 -0.9487
vn 0.0000 -0.3162 -0.9487
vn 0.0000 -0.3903 -0.9207
vn 0.0000 0.1244 -0.9922
vn 0.0000 -0.3903 -0.9207
vn 0.0000 0.3162 -0.9487
vn 0.0000 0.1244 -0.9922
vn 0.0000 -0.3903 -0.9207
vn 0.0000 -0.3162 -0.9487
vn 0.0000 0.3162 -0.9487
vn 0.0000 -0.6000 -0.8000
vn 0.0000 -0.3162 -0.9487
vn 0.0000 -0.3903 -0.9207
vn 0.0000 -0.6000 -0.8000
vn 0.0000 -0.6000 -0.8000
vn 0.0000 -0.3162 -0.9487
vn 0.0000 0.1244 -0.9922
vn 0.0000 0.6000 -0.8000
vn 0.0000 0.6000 -0.8000
vn 0.0000 0.1244 -0.9922
vn 0.0000 0.3162 -0.9487
vn 0.0000 0.6000 -0.8000
vn 0.0000 0.0000 -1.0000
vn 0.0000 0.0000 -1.0000
vn 0.0000 0.0000 -1.0000
g house_medieval_1
usemtl HouseTex
f 19/19/19 20/20/20 21/21/21
f 22/22/22 23/23/23 24/24/24
f 25/25/25 26/26/26 27/27/27
f 28/28/28 29/29/29 30/30/30
f 31/31/31 32/32/32 33/33/33
f 34/34/34 35/35/35 36/36/36
f 37/37/37 38/38/38 39/39/39
f 40/40/40 41/41/41 42/42/42
f 43/43/43 44/44/44 45/45/45
f 46/46/46 47/47/47 48/48/48
f 49/49/49 50/50/50 51/51/51
f 52/52/52 53/53/53 54/54/54
f 55/55/55 56/56/56 57/57/57
f 58/58/58 59/59/59 60/60/60
f 61/61/61 62/62/62 63/63/63
f 64/64/64 65/65/65 66/66/66
f 67/67/67 68/68/68 69/69/69
f 70/70/70 71/71/71 72/72/72
f 73/73/73 74/74/74 75/75/75
f 76/76/76 77/77/77 78/78/78
f 79/79/79 80/80/80 81/81/81
f 82/82/82 83/83/83 84/84/84
f 85/85/85 86/86/86 87/87/87
f 88/88/88 89/89/89 90/90/90
f 91/91/91 92/92/92 93/93/93
f 94/94/94 95/95/95 96/96/96
f 97/97/97 98/98/98 99/99/99
f 100/100/100 101/101/101 102/102/102
f 103/103/103 104/104/104 105/105/105
f 106/106/106 107/107/107 108/108/108
f 109/109/109 110/110/110 111/111/111
f 112/112/112 113/113/113 114/114/114
f 115/115/115 116/116/116 117/117/117
f 118/118/118 119/119/119 120/120/120
f 121/121/121 122/122/122 123/123/123
f 124/124/124 125/125/125 126/126/126
f 127/127/127 128/128/128 129/129/129
f 130/130/130 131/131/131 132/132/132
f 133/133/133 134/134/134 135/135/135
f 136/136/136 137/137/137 138/138/138
f 139/139/139 140/140/140 141/141/141
f 142/142/142 143/143/143 144/144/144
f 145/145/145 146/146/146 147/147/147
f 148/148/148 149/149/149 150/150/150
f 151/151/151 152/152/152 153/153/153
f 154/154/154 155/155/155 156/156/156
f 157/157/157 158/158/158 159/159/159
f 160/160/160 161/161/161 162/162/162
f 163/163/163 164/164/164 165/165/165
f 166/166/166 167/167/167 168/168/168
f 169/169/169 170/170/170 171/171/171
f 172/172/172 173/173/173 174/174/174
f 175/175/175 176/176/176 177/177/177
f 178/178/178 179/179/179 180/180/180
f 181/181/181 182/182/182 183/183/183
f 184/184/184 185/185/185 186/186/186
f 187/187/187 188/188/188 189/189/189
f 190/190/190 191/191/191 192/192/192
f 193/193/193 194/194/194 195/195/195
f 196/196/196 197/197/197 198/198/198
f 199/199/199 200/200/200 201/201/201
f 202/202/202 203/203/203 204/204/204
f 205/205/205 206/206/206 207/207/207
f 208/208/208 209/209/209 210/210/210
f 211/211/211 212/212/212 213/213/213
f 214/214/214 215/215/215 216/216/216
f 217/217/217 218/218/218 219/219/219
f 220/220/220 221/221/221 222/222/222
f 223/223/223 224/224/224 225/225/225
f 226/226/226 227/227/227 228/228/228
f 229/229/229 230/230/230 231/231/231
f 232/232/232 233/233/233 234/234/234
f 235/235/235 236/236/236 237/237/237
f 238/238/238 239/239/239 240/240/240
f 241/241/241 242/242/242 243/243/243
f 244/244/244 245/245/245 246/246/246
f 247/247/247 248/248/248 249/249/249
f 250/250/250 251/251/251 252/252/252
f 253/253/253 254/254/254 255/255/255
f 256/256/256 257/257/257 258/258/258
f 259/259/259 260/260/260 261/261/261
