# rancho
# generated by tools/assets/build-tiles.js — do not edit
mtllib rancho.mtl
o rancho
v 0.00000 2.70000 2.00000
v 5.00000 2.20000 3.00000
v 5.00000 2.70000 2.00000
v 0.00000 2.70000 2.00000
v 0.00000 2.20000 3.00000
v 5.00000 2.20000 3.00000
v 0.00000 2.20000 0.00000
v 5.00000 2.70000 2.00000
v 5.00000 2.20000 0.00000
v 0.00000 2.20000 0.00000
v 0.00000 2.70000 2.00000
v 5.00000 2.70000 2.00000
vt -2.00000 0.68291
vt 3.00000 0.98968
vt 3.00000 0.68291
vt -2.00000 0.68291
vt -2.00000 0.98968
vt 3.00000 0.98968
vt -2.00000 0.01032
vt 3.00000 0.68291
vt 3.00000 0.01032
vt -2.00000 0.01032
vt -2.00000 0.68291
vt 3.00000 0.68291
vn 0.0000 0.8944 0.4472
vn 0.0000 0.8944 0.4472
vn 0.0000 0.8944 0.4472
vn 0.0000 0.8944 0.4472
vn 0.0000 0.8944 0.4472
vn 0.0000 0.8944 0.4472
vn 0.0000 0.9701 -0.2425
vn 0.0000 0.9701 -0.2425
vn 0.0000 0.9701 -0.2425
vn 0.0000 0.9701 -0.2425
vn 0.0000 0.9701 -0.2425
vn 0.0000 0.9701 -0.2425
g rancho_0
usemtl yellowThing
f 1/1/1 2/2/2 3/3/3
f 4/4/4 5/5/5 6/6/6
f 7/7/7 8/8/8 9/9/9
f 10/10/10 11/11/11 12/12/12
v 0.10000 0.10457 0.29541
v 1.10000 2.19543 0.50459
v 1.10000 0.10457 0.29541
v 0.10000 0.10457 0.29541
v 0.10000 2.19543 0.50459
v 1.10000 2.19543 0.50459
v 4.90647 0.10457 0.29541
v 3.90647 2.19543 0.50459
v 4.90647 2.19543 0.50459
v 4.90647 0.10457 0.29541
v 3.90647 0.10457 0.29541
v 3.90647 2.19543 0.50459
v 0.10000 0.10457 2.59684
v 1.10000 2.19543 2.80601
v 1.10000 0.10457 2.59684
v 0.10000 0.10457 2.59684
v 0.10000 2.19543 2.80601
v 1.10000 2.19543 2.80601
v 4.90647 0.10457 2.59684
v 3.90647 2.19543 2.80601
v 4.90647 2.19543 2.80601
v 4.90647 0.10457 2.59684
v 3.90647 0.10457 2.59684
v 3.90647 2.19543 2.80601
vt 0.00000 0.03460
vt 1.00000 0.98179
vt 1.00000 0.03460
vt 0.00000 0.03460
vt 0.00000 0.98179
vt 1.00000 0.98179
vt 0.00000 0.03460
vt 1.00000 0.98179
vt 0.00000 0.98179
vt 0.00000 0.03460
vt 1.00000 0.03460
vt 1.00000 0.98179
vt 0.00000 0.03460
vt 1.00000 0.98179
vt 1.00000 0.03460
vt 0.00000 0.03460
vt 0.00000 0.98179
vt 1.00000 0.98179
vt 0.00000 0.03460
vt 1.00000 0.98179
vt 0.00000 0.98179
vt 0.00000 0.03460
vt 1.00000 0.03460
vt 1.00000 0.98179
vn 0.0000 0.0995 -0.9950
vn 0.0000 0.0995 -0.9950
vn 0.0000 0.0995 -0.9950
vn 0.0000 0.0995 -0.9950
vn 0.0000 0.0995 -0.9950
vn 0.0000 0.0995 -0.9950
vn 0.0000 0.0995 -0.9950
vn 0.0000 0.0995 -0.9950
vn 0.0000 0.0995 -0.9950
vn 0.0000 0.0995 -0.9950
vn 0.0000 0.0995 -0.9950
vn 0.0000 0.0995 -0.9950
vn 0.0000 0.0995 -0.9950
vn 0.0000 0.0995 -0.9950
vn 0.0000 0.0995 -0.9950
vn 0.0000 0.0995 -0.9950
vn 0.0000 0.0995 -0.9950
vn 0.0000 0.0995 -0.9950
vn 0.0000 0.0995 -0.9950
vn 0.0000 0.0995 -0.9950
vn 0.0000 0.0995 -0.9950
vn 0.0000 0.0995 -0.9950
vn 0.0000 0.0995 -0.9950
vn 0.0000 0.0995 -0.9950
g rancho_1
usemtl Pillar
f 13/13/13 14/14/14 15/15/15
f 16/16/16 17/17/17 18/18/18
f 19/19/19 20/20/20 21/21/21
f 22/22/22 23/23/23 24/24/24
f 25/25/25 26/26/26 27/27/27
f 28/28/28 29/29/29 30/30/30
f 31/31/31 32/32/32 33/33/33
f 34/34/34 35/35/35 36/36/36
v -0.06647 0.05000 -0.04681
v 5.10472 0.05000 3.10708
v 5.10472 0.05000 -0.04681
v -0.06647 0.05000 -0.04681
v -0.06647 0.05000 3.10708
v 5.10472 0.05000 3.10708
v 5.10472 0.05000 3.10708
v 5.50472 0.05000 -0.44681
v 5.10472 0.05000 -0.04681
v 5.10472 0.05000 3.10708
v 5.50472 0.05000 2.70708
v 5.50472 0.05000 -0.44681
v 5.10472 0.05000 -0.04681
v 0.33353 0.05000 -0.44681
v -0.06647 0.05000 -0.04681
v 5.10472 0.05000 -0.04681
v 5.50472 0.05000 -0.44681
v 0.33353 0.05000 -0.44681
vt 0.00000 0.11255
vt 0.92820 1.00000
vt 0.92820 0.11255
vt 0.00000 0.11255
vt 0.00000 1.00000
vt 0.92820 1.00000
vt 0.92820 1.00000
vt 1.00000 0.00000
vt 0.92820 0.11255
vt 0.92820 1.00000
vt 1.00000 0.88745
vt 1.00000 0.00000
vt 0.92820 0.11255
vt 0.07180 0.00000
vt 0.00000 0.11255
vt 0.92820 0.11255
vt 1.00000 0.00000
vt 0.07180 0.00000
vn 0.0000 1.0000 0.0000
vn 0.0000 1.0000 0.0000
vn 0.0000 1.0000 0.0000
vn 0.0000 1.0000 0.0000
vn 0.0000 1.0000 0.0000
vn 0.0000 1.0000 0.0000
vn 0.0000 1.0000 0.0000
vn 0.0000 1.0000 0.0000
vn 0.0000 1.0000 0.0000
vn 0.0000 1.0000 0.0000
vn 0.0000 1.0000 0.0000
vn 0.0000 1.0000 0.0000
vn 0.0000 1.0000 0.0000
vn 0.0000 1.0000 0.0000
vn 0.0000 1.0000 0.0000
vn 0.0000 1.0000 0.0000
vn 0.0000 1.0000 0.0000
vn 0.0000 1.0000 0.0000
g rancho_2
usemtl h_kage
f 37/37/37 38/38/38 39/39/39
f 40/40/40 41/41/41 42/42/42
f 43/43/43 44/44/44 45/45/45
f 46/46/46 47/47/47 48/48/48
f 49/49/49 50/50/50 51/51/51
f 52/52/52 53/53/53 54/54/54
