# tower
# generated by tools/assets/build-tiles.js — do not edit
mtllib tower.mtl
o tower
v 2.28286 2.37156 0.25175
v 3.71714 3.80476 0.40066
v 3.71714 2.37156 0.25175
v 2.28286 2.37156 0.25175
v 2.28286 3.80476 0.40066
v 3.71714 3.80476 0.40066
v 2.21582 4.07113 0.43688
v 3.78418 6.08983 0.64404
v 3.78418 4.07113 0.43688
v 2.21582 4.07113 0.43688
v 2.21582 6.08983 0.64404
v 3.78418 6.08983 0.64404
v 0.38496 0.95300 1.43093
v 1.85809 3.17407 0.50385
v 1.71248 0.95300 0.32850
v 0.38496 0.95300 1.43093
v 0.53057 3.17407 1.60627
v 1.85809 3.17407 0.50385
v 5.55812 0.95300 1.43093
v 4.08499 3.17407 0.50385
v 5.41251 3.17407 1.60627
v 5.55812 0.95300 1.43093
v 4.23060 0.95300 0.32850
v 4.08499 3.17407 0.50385
v 2.43121 7.36910 0.72149
v 3.56879 8.91114 0.87175
v 3.56879 7.36910 0.72149
v 2.43121 7.36910 0.72149
v 2.43121 8.91114 0.87175
v 3.56879 8.91114 0.87175
v 1.08173 7.38010 1.66272
v 2.09752 8.91164 1.02345
v 1.99712 7.38010 0.90254
v 1.08173 7.38010 1.66272
v 1.18213 8.91164 1.78363
v 2.09752 8.91164 1.02345
v 4.88441 7.38010 1.66272
v 3.86861 8.91164 1.02345
v 4.78400 8.91164 1.78363
v 4.88441 7.38010 1.66272
v 3.96901 7.38010 0.90254
v 3.86861 8.91164 1.02345
v 2.43121 10.11353 1.08792
v 3.56879 11.31829 1.50147
v 3.56879 10.11353 1.08792
v 2.43121 10.11353 1.08792
v 2.43121 11.31829 1.50147
v 3.56879 11.31829 1.50147
v 2.45733 13.04509 2.32601
v 3.59491 14.24985 2.73956
v 3.59491 13.04509 2.32601
v 2.45733 13.04509 2.32601
v 2.45733 14.24985 2.73956
v 3.59491 14.24985 2.73956
v 12.03826 5.01700 3.32866
v 12.32041 3.59124 4.86000
v 12.32041 5.01700 3.32866
v 12.03826 5.01700 3.32866
v 12.03826 3.59124 4.86000
v 12.32041 3.59124 4.86000
v 5.89940 1.04200 1.50078
v 7.10060 3.05800 1.50078
v 7.10060 1.04200 1.50078
v 5.89940 1.04200 1.50078
v 5.89940 3.05800 1.50078
v 7.10060 3.05800 1.50078
v 7.89940 1.04200 1.50078
v 9.10060 3.05800 1.50078
v 9.10060 1.04200 1.50078
v 7.89940 1.04200 1.50078
v 7.89940 3.05800 1.50078
v 9.10060 3.05800 1.50078
v 9.89940 1.04200 1.50078
v 11.10060 3.05800 1.50078
v 11.10060 1.04200 1.50078
v 9.89940 1.04200 1.50078
v 9.89940 3.05800 1.50078
v 11.10060 3.05800 1.50078
v 12.32041 5.01700 3.32866
v 4.69741 5.01700 2.87135
v 4.69741 5.01700 3.32866
v 12.32041 5.01700 3.32866
v 12.32041 5.01700 2.87135
v 4.69741 5.01700 2.87135
v 8.36681 3.59124 1.34000
v 12.03826 5.01700 2.87135
v 12.03826 3.59124 1.34000
v 8.36681 3.59124 1.34000
v 8.36681 5.01700 2.87135
v 12.03826 5.01700 2.87135
v 12.03826 3.59124 1.34000
v 12.32041 5.01700 2.87135
v 12.32041 3.59124 1.34000
v 12.03826 3.59124 1.34000
v 12.03826 5.01700 2.87135
v 12.32041 5.01700 2.87135
v 8.36784 5.01700 3.32866
v 12.03826 3.59124 4.86000
v 12.03826 5.01700 3.32866
v 8.36784 5.01700 3.32866
v 8.36784 3.59124 4.86000
v 12.03826 3.59124 4.86000
v 11.47958 0.91546 1.50000
v 12.32042 3.70756 1.50000
v 12.32042 0.91546 1.50000
v 11.47958 0.91546 1.50000
v 11.47958 3.70756 1.50000
v 12.32042 3.70756 1.50000
v 5.12494 0.91546 1.50000
v 5.96578 3.70756 1.50000
v 5.96578 0.91546 1.50000
v 5.12494 0.91546 1.50000
v 5.12494 3.70756 1.50000
v 5.96578 3.70756 1.50000
v 4.69741 3.59124 1.34000
v 8.36681 5.01700 2.87135
v 8.36681 3.59124 1.34000
v 4.69741 3.59124 1.34000
v 4.69741 5.01700 2.87135
v 8.36681 5.01700 2.87135
v 4.69741 5.01700 3.32866
v 8.36784 3.59124 4.86000
v 8.36784 5.01700 3.32866
v 4.69741 5.01700 3.32866
v 4.69741 3.59124 4.86000
v 8.36784 3.59124 4.86000
v 11.47958 0.04621 1.50000
v 12.32042 0.91546 1.50000
v 12.32042 0.04621 1.50000
v 11.47958 0.04621 1.50000
v 11.47958 0.91546 1.50000
v 12.32042 0.91546 1.50000
v 5.12494 0.04621 1.50000
v 5.96578 0.91546 1.50000
v 5.96578 0.04621 1.50000
v 5.12494 0.04621 1.50000
v 5.12494 0.91546 1.50000
v 5.96578 0.91546 1.50000
v 1.63170 2.34198 0.50474
v 0.63959 -0.03546 0.87157
v 0.52914 2.12108 1.31125
v 1.63170 2.34198 0.50474
v 1.74215 0.18544 0.06506
v 0.63959 -0.03546 0.87157
v 1.04753 7.05507 1.60285
v 2.22887 9.25115 0.85940
v 2.11210 7.05507 0.71879
v 1.04753 7.05507 1.60285
v 1.16430 9.25115 1.74347
v 2.22887 9.25115 0.85940
v 5.16222 4.20430 1.36689
v 3.98088 6.40038 0.62344
v 5.04545 6.40038 1.50751
v 5.16222 4.20430 1.36689
v 4.09765 4.20430 0.48283
v 3.98088 6.40038 0.62344
v 5.72535 1.10090 1.17709
v 7.27465 3.67246 1.56206
v 7.27465 1.10090 1.17709
v 5.72535 1.10090 1.17709
v 5.72535 3.67246 1.56206
v 7.27465 3.67246 1.56206
v 3.82738 6.96240 0.54978
v 2.14504 6.41638 0.50803
v 2.17262 6.96240 0.54978
v 3.82738 6.96240 0.54978
v 3.85496 6.41638 0.50803
v 2.14504 6.41638 0.50803
v 2.17262 6.96240 0.54978
v 0.83516 6.41638 1.60715
v 0.90500 6.96240 1.61344
v 2.17262 6.96240 0.54978
v 2.14504 6.41638 0.50803
v 0.83516 6.41638 1.60715
v 5.38235 6.96240 3.24306
v 5.16484 6.41638 1.60715
v 5.09500 6.96240 1.61344
v 5.38235 6.96240 3.24306
v 5.46177 6.41638 3.29110
v 5.16484 6.41638 1.60715
v 5.09500 6.96240 1.61344
v 3.85496 6.41638 0.50803
v 3.82738 6.96240 0.54978
v 5.09500 6.96240 1.61344
v 5.16484 6.41638 1.60715
v 3.85496 6.41638 0.50803
v 0.90500 6.96240 1.61344
v 0.53823 6.41638 3.29110
v 0.61765 6.96240 3.24306
v 0.90500 6.96240 1.61344
v 0.83516 6.41638 1.60715
v 0.53823 6.41638 3.29110
v 2.97988 0.20000 0.04589
v 2.02916 2.20000 0.19761
v 2.98096 2.20000 0.19761
v 2.97988 0.20000 0.04589
v 1.97394 0.20000 0.04589
v 2.02916 2.20000 0.19761
v 4.02606 0.20000 0.04589
v 2.98096 2.20000 0.19761
v 3.97084 2.20000 0.19761
v 4.02606 0.20000 0.04589
v 2.97988 0.20000 0.04589
v 2.98096 2.20000 0.19761
v 4.55789 0.20000 1.52383
v 3.54510 0.10078 -0.58258
v 3.69789 0.20000 0.32152
v 4.55789 0.20000 1.52383
v 4.23796 0.10078 0.61973
v 3.54510 0.10078 -0.58258
v 3.69789 0.20000 0.32152
v 2.37871 0.10078 -0.58258
v 2.25012 0.20000 0.32152
v 3.69789 0.20000 0.32152
v 3.54510 0.10078 -0.58258
v 2.37871 0.10078 -0.58258
v 2.25012 0.20000 0.32152
v 1.48520 0.10078 0.61973
v 1.14106 0.20000 1.52383
v 2.25012 0.20000 0.32152
v 2.37871 0.10078 -0.58258
v 1.48520 0.10078 0.61973
vt 0.04421 0.47798
vt 0.24052 0.63335
vt 0.24052 0.47798
vt 0.04421 0.47798
vt 0.04421 0.63335
vt 0.24052 0.63335
vt 0.00815 0.63466
vt 0.28496 0.99187
vt 0.28496 0.63466
vt 0.00815 0.63466
vt 0.00815 0.99187
vt 0.28496 0.99187
vt 0.00815 0.63466
vt 0.28496 0.99187
vt 0.28496 0.63466
vt 0.00815 0.63466
vt 0.00815 0.99187
vt 0.28496 0.99187
vt 0.28751 0.63242
vt 0.00560 0.99411
vt 0.28751 0.99411
vt 0.28751 0.63242
vt 0.00560 0.63242
vt 0.00560 0.99411
vt 0.00815 0.63466
vt 0.28496 0.99187
vt 0.28496 0.63466
vt 0.00815 0.63466
vt 0.00815 0.99187
vt 0.28496 0.99187
vt 0.00815 0.63466
vt 0.28496 0.99187
vt 0.28496 0.63466
vt 0.00815 0.63466
vt 0.00815 0.99187
vt 0.28496 0.99187
vt 0.28751 0.63242
vt 0.00560 0.99411
vt 0.28751 0.99411
vt 0.28751 0.63242
vt 0.00560 0.63242
vt 0.00560 0.99411
vt 0.55696 0.56977
vt 0.76335 0.74273
vt 0.76335 0.56977
vt 0.55696 0.56977
vt 0.55696 0.74273
vt 0.76335 0.74273
vt 0.54541 0.75934
vt 0.77703 0.99096
vt 0.77703 0.75934
vt 0.54541 0.75934
vt 0.54541 0.99096
vt 0.77703 0.99096
vt 0.45021 0.51802
vt 0.92136 0.48198
vt 0.45021 0.48198
vt 0.45021 0.51802
vt 0.92136 0.51802
vt 0.92136 0.48198
vt 0.00815 0.63466
vt 0.28496 0.99187
vt 0.28496 0.63466
vt 0.00815 0.63466
vt 0.00815 0.99187
vt 0.28496 0.99187
vt 0.00815 0.63466
vt 0.28496 0.99187
vt 0.28496 0.63466
vt 0.00815 0.63466
vt 0.00815 0.99187
vt 0.28496 0.99187
vt 0.00815 0.63466
vt 0.28496 0.99187
vt 0.28496 0.63466
vt 0.00815 0.63466
vt 0.00815 0.99187
vt 0.28496 0.99187
vt 0.98701 0.53758
vt 0.38211 0.46488
vt 0.38211 0.53758
vt 0.98701 0.53758
vt 0.98701 0.46488
vt 0.38211 0.46488
vt 0.38149 0.00261
vt 0.99260 0.46648
vt 0.99260 0.00261
vt 0.38149 0.00261
vt 0.38149 0.46648
vt 0.99260 0.46648
vt 0.45021 0.51802
vt 0.92136 0.48198
vt 0.45021 0.48198
vt 0.45021 0.51802
vt 0.92136 0.51802
vt 0.92136 0.48198
vt 0.99477 0.46648
vt 0.37584 0.00261
vt 0.37584 0.46648
vt 0.99477 0.46648
vt 0.99477 0.00261
vt 0.37584 0.00261
vt 0.77644 0.71536
vt 1.00117 0.99231
vt 1.00117 0.71536
vt 0.77644 0.71536
vt 0.77644 0.99231
vt 1.00117 0.99231
vt 0.77644 0.71536
vt 1.00117 0.99231
vt 1.00117 0.71536
vt 0.77644 0.71536
vt 0.77644 0.99231
vt 1.00117 0.99231
vt 0.37584 0.00726
vt 0.99477 0.46648
vt 0.99477 0.00726
vt 0.37584 0.00726
vt 0.37584 0.46648
vt 0.99477 0.46648
vt 0.99260 0.46648
vt 0.38149 0.00261
vt 0.38149 0.46648
vt 0.99260 0.46648
vt 0.99260 0.00261
vt 0.38149 0.00261
vt 0.77644 0.57173
vt 1.00117 0.81457
vt 1.00117 0.57173
vt 0.77644 0.57173
vt 0.77644 0.81457
vt 1.00117 0.81457
vt 0.77644 0.57173
vt 1.00117 0.81457
vt 1.00117 0.57173
vt 0.77644 0.57173
vt 0.77644 0.81457
vt 1.00117 0.81457
vt 0.53417 0.56922
vt 0.30523 0.99333
vt 0.30523 0.56922
vt 0.53417 0.56922
vt 0.53417 0.99333
vt 0.30523 0.99333
vt 0.53417 0.56922
vt 0.30523 0.99333
vt 0.30523 0.56922
vt 0.53417 0.56922
vt 0.53417 0.99333
vt 0.30523 0.99333
vt 0.53417 0.56922
vt 0.30523 0.99333
vt 0.53417 0.99333
vt 0.53417 0.56922
vt 0.30523 0.56922
vt 0.30523 0.99333
vt 0.29698 0.56976
vt 0.53504 0.97802
vt 0.53504 0.56976
vt 0.29698 0.56976
vt 0.29698 0.97802
vt 0.53504 0.97802
vt 0.94894 0.52981
vt 0.63625 0.47640
vt 0.63625 0.52981
vt 0.94894 0.52981
vt 0.94894 0.47640
vt 0.63625 0.47640
vt 0.71875 0.52981
vt 0.40605 0.47640
vt 0.40605 0.52981
vt 0.71875 0.52981
vt 0.71875 0.47640
vt 0.40605 0.47640
vt 0.94894 0.52981
vt 0.63625 0.47640
vt 0.63625 0.52981
vt 0.94894 0.52981
vt 0.94894 0.47640
vt 0.63625 0.47640
vt 0.71875 0.52981
vt 0.40605 0.47640
vt 0.40605 0.52981
vt 0.71875 0.52981
vt 0.71875 0.47640
vt 0.40605 0.47640
vt 0.93837 0.54376
vt 0.58249 0.49035
vt 0.58249 0.54376
vt 0.93837 0.54376
vt 0.93837 0.49035
vt 0.58249 0.49035
vt 0.24352 -0.00009
vt 0.01935 0.46053
vt 0.24352 0.46053
vt 0.24352 -0.00009
vt 0.00726 -0.00009
vt 0.01935 0.46053
vt 0.00727 -0.00009
vt 0.24352 0.46053
vt 0.01935 0.46053
vt 0.00727 -0.00009
vt 0.24352 -0.00009
vt 0.24352 0.46053
vt 0.26779 0.00547
vt 0.36380 0.16193
vt 0.36380 0.00547
vt 0.26779 0.00547
vt 0.26779 0.16193
vt 0.36380 0.16193
vt 0.26779 0.00547
vt 0.36380 0.16193
vt 0.36380 0.00547
vt 0.26779 0.00547
vt 0.26779 0.16193
vt 0.36380 0.16193
vt 0.26779 0.00547
vt 0.36380 0.16193
vt 0.36380 0.00547
vt 0.26779 0.00547
vt 0.26779 0.16193
vt 0.36380 0.16193
vn 0.0000 0.1033 -0.9946
vn 0.0000 0.1033 -0.9946
vn 0.0000 0.1033 -0.9946
vn 0.0000 0.1033 -0.9946
vn 0.0000 0.1033 -0.9946
vn 0.0000 0.1033 -0.9946
vn 0.0000 0.1021 -0.9948
vn 0.0000 0.1021 -0.9948
vn 0.0000 0.1021 -0.9948
vn 0.0000 0.1021 -0.9948
vn 0.0000 0.1021 -0.9948
vn 0.0000 0.1021 -0.9948
vn -0.6355 0.1021 -0.7653
vn -0.6355 0.1021 -0.7653
vn -0.6355 0.1021 -0.7653
vn -0.6355 0.1021 -0.7653
vn -0.6355 0.1021 -0.7653
vn -0.6355 0.1021 -0.7653
vn 0.6355 0.1021 -0.7653
vn 0.6355 0.1021 -0.7653
vn 0.6355 0.1021 -0.7653
vn 0.6355 0.1021 -0.7653
vn 0.6355 0.1021 -0.7653
vn 0.6355 0.1021 -0.7653
vn 0.0000 0.0970 -0.9953
vn 0.0000 0.0970 -0.9953
vn 0.0000 0.0970 -0.9953
vn 0.0000 0.0970 -0.9953
vn 0.0000 0.0970 -0.9953
vn 0.0000 0.0970 -0.9953
vn -0.6355 0.1021 -0.7653
vn -0.6355 0.1021 -0.7653
vn -0.6355 0.1021 -0.7653
vn -0.6355 0.1021 -0.7653
vn -0.6355 0.1021 -0.7653
vn -0.6355 0.1021 -0.7653
vn 0.6355 0.1021 -0.7653
vn 0.6355 0.1021 -0.7653
vn 0.6355 0.1021 -0.7653
vn 0.6355 0.1021 -0.7653
vn 0.6355 0.1021 -0.7653
vn 0.6355 0.1021 -0.7653
vn 0.0000 0.3247 -0.9458
vn 0.0000 0.3247 -0.9458
vn 0.0000 0.3247 -0.9458
vn 0.0000 0.3247 -0.9458
vn 0.0000 0.3247 -0.9458
vn 0.0000 0.3247 -0.9458
vn 0.0000 0.3247 -0.9458
vn 0.0000 0.3247 -0.9458
vn 0.0000 0.3247 -0.9458
vn 0.0000 0.3247 -0.9458
vn 0.0000 0.3247 -0.9458
vn 0.0000 0.3247 -0.9458
vn 0.0000 0.7319 0.6814
vn 0.0000 0.7319 0.6814
vn 0.0000 0.7319 0.6814
vn 0.0000 0.7319 0.6814
vn 0.0000 0.7319 0.6814
vn 0.0000 0.7319 0.6814
vn 0.0000 0.0000 -1.0000
vn 0.0000 0.0000 -1.0000
vn 0.0000 0.0000 -1.0000
vn 0.0000 0.0000 -1.0000
vn 0.0000 0.0000 -1.0000
vn 0.0000 0.0000 -1.0000
vn 0.0000 0.0000 -1.0000
vn 0.0000 0.0000 -1.0000
vn 0.0000 0.0000 -1.0000
vn 0.0000 0.0000 -1.0000
vn 0.0000 0.0000 -1.0000
vn 0.0000 0.0000 -1.0000
vn 0.0000 0.0000 -1.0000
vn 0.0000 0.0000 -1.0000
vn 0.0000 0.0000 -1.0000
vn 0.0000 0.0000 -1.0000
vn 0.0000 0.0000 -1.0000
vn 0.0000 0.0000 -1.0000
vn 0.0000 1.0000 0.0000
vn 0.0000 1.0000 0.0000
vn 0.0000 1.0000 0.0000
vn 0.0000 1.0000 0.0000
vn 0.0000 1.0000 0.0000
vn 0.0000 1.0000 0.0000
vn 0.0000 0.7319 -0.6814
vn 0.0000 0.7319 -0.6814
vn 0.0000 0.7319 -0.6814
vn 0.0000 0.7319 -0.6814
vn 0.0000 0.7319 -0.6814
vn 0.0000 0.7319 -0.6814
vn 0.0000 0.7319 -0.6814
vn 0.0000 0.7319 -0.6814
vn 0.0000 0.7319 -0.6814
vn 0.0000 0.7319 -0.6814
vn 0.0000 0.7319 -0.6814
vn 0.0000 0.7319 -0.6814
vn 0.0000 0.7319 0.6814
vn 0.0000 0.7319 0.6814
vn 0.0000 0.7319 0.6814
vn 0.0000 0.7319 0.6814
vn 0.0000 0.7319 0.6814
vn 0.0000 0.7319 0.6814
vn 0.0000 0.0000 -1.0000
vn 0.0000 0.0000 -1.0000
vn 0.0000 0.0000 -1.0000
vn 0.0000 0.0000 -1.0000
vn 0.0000 0.0000 -1.0000
vn 0.0000 0.0000 -1.0000
vn 0.0000 0.0000 -1.0000
vn 0.0000 0.0000 -1.0000
vn 0.0000 0.0000 -1.0000
vn 0.0000 0.0000 -1.0000
vn 0.0000 0.0000 -1.0000
vn 0.0000 0.0000 -1.0000
vn 0.0000 0.7319 -0.6814
vn 0.0000 0.7319 -0.6814
vn 0.0000 0.7319 -0.6814
vn 0.0000 0.7319 -0.6814
vn 0.0000 0.7319 -0.6814
vn 0.0000 0.7319 -0.6814
vn 0.0000 0.7319 0.6814
vn 0.0000 0.7319 0.6814
vn 0.0000 0.7319 0.6814
vn 0.0000 0.7319 0.6814
vn 0.0000 0.7319 0.6814
vn 0.0000 0.7319 0.6814
vn 0.0000 0.0000 -1.0000
vn 0.0000 0.0000 -1.0000
vn 0.0000 0.0000 -1.0000
vn 0.0000 0.0000 -1.0000
vn 0.0000 0.0000 -1.0000
vn 0.0000 0.0000 -1.0000
vn 0.0000 0.0000 -1.0000
vn 0.0000 0.0000 -1.0000
vn 0.0000 0.0000 -1.0000
vn 0.0000 0.0000 -1.0000
vn 0.0000 0.0000 -1.0000
vn 0.0000 0.0000 -1.0000
vn -0.6022 0.1298 -0.7877
vn -0.6022 0.1298 -0.7877
vn -0.6022 0.1298 -0.7877
vn -0.6022 0.1298 -0.7877
vn -0.6022 0.1298 -0.7877
vn -0.6022 0.1298 -0.7877
vn -0.6367 0.0829 -0.7667
vn -0.6367 0.0829 -0.7667
vn -0.6367 0.0829 -0.7667
vn -0.6367 0.0829 -0.7667
vn -0.6367 0.0829 -0.7667
vn -0.6367 0.0829 -0.7667
vn 0.6367 0.0829 -0.7667
vn 0.6367 0.0829 -0.7667
vn 0.6367 0.0829 -0.7667
vn 0.6367 0.0829 -0.7667
vn 0.6367 0.0829 -0.7667
vn 0.6367 0.0829 -0.7667
vn 0.0000 0.1481 -0.9890
vn 0.0000 0.1481 -0.9890
vn 0.0000 0.1481 -0.9890
vn 0.0000 0.1481 -0.9890
vn 0.0000 0.1481 -0.9890
vn 0.0000 0.1481 -0.9890
vn 0.3362 0.0887 -0.9376
vn -0.3449 0.0888 -0.9344
vn -0.3362 0.0887 -0.9376
vn 0.3362 0.0887 -0.9376
vn 0.3449 0.0888 -0.9344
vn -0.3449 0.0888 -0.9344
vn -0.3362 0.0887 -0.9376
vn -0.6401 0.0906 -0.7629
vn -0.6401 0.0906 -0.7629
vn -0.3362 0.0887 -0.9376
vn -0.3449 0.0888 -0.9344
vn -0.6401 0.0906 -0.7629
vn 0.9768 0.1269 -0.1722
vn 0.8657 0.1163 -0.4869
vn 0.8542 0.1151 -0.5070
vn 0.9768 0.1269 -0.1722
vn 0.9768 0.1269 -0.1722
vn 0.8657 0.1163 -0.4869
vn 0.8542 0.1151 -0.5070
vn 0.3449 0.0888 -0.9344
vn 0.3362 0.0887 -0.9376
vn 0.8542 0.1151 -0.5070
vn 0.8657 0.1163 -0.4869
vn 0.3449 0.0888 -0.9344
vn -0.9768 0.1269 -0.1722
vn -0.9768 0.1269 -0.1722
vn -0.9768 0.1269 -0.1722
vn -0.9768 0.1269 -0.1722
vn -0.9768 0.1269 -0.1722
vn -0.9768 0.1269 -0.1722
vn 0.0000 0.0756 -0.9971
vn 0.0000 0.0756 -0.9971
vn 0.0000 0.0756 -0.9971
vn 0.0000 0.0756 -0.9971
vn 0.0000 0.0756 -0.9971
vn 0.0000 0.0756 -0.9971
vn 0.0000 0.0756 -0.9971
vn 0.0000 0.0756 -0.9971
vn 0.0000 0.0756 -0.9971
vn 0.0000 0.0756 -0.9971
vn 0.0000 0.0756 -0.9971
vn 0.0000 0.0756 -0.9971
vn 0.2703 0.9468 -0.1746
vn 0.0478 0.9915 -0.1213
vn 0.1789 0.9718 -0.1534
vn 0.2703 0.9468 -0.1746
vn 0.2703 0.9468 -0.1746
vn 0.0478 0.9915 -0.1213
vn 0.1789 0.9718 -0.1534
vn -0.0428 0.9918 -0.1200
vn -0.1195 0.9830 -0.1391
vn 0.1789 0.9718 -0.1534
vn 0.0478 0.9915 -0.1213
vn -0.0428 0.9918 -0.1200
vn -0.1195 0.9830 -0.1391
vn -0.1863 0.9701 -0.1552
vn -0.1863 0.9701 -0.1552
vn -0.1195 0.9830 -0.1391
vn -0.0428 0.9918 -0.1200
vn -0.1863 0.9701 -0.1552
g tower_0
usemtl WitchHouse
f 1/1/1 2/2/2 3/3/3
f 4/4/4 5/5/5 6/6/6
f 7/7/7 8/8/8 9/9/9
f 10/10/10 11/11/11 12/12/12
f 13/13/13 14/14/14 15/15/15
f 16/16/16 17/17/17 18/18/18
f 19/19/19 20/20/20 21/21/21
f 22/22/22 23/23/23 24/24/24
f 25/25/25 26/26/26 27/27/27
f 28/28/28 29/29/29 30/30/30
f 31/31/31 32/32/32 33/33/33
f 34/34/34 35/35/35 36/36/36
f 37/37/37 38/38/38 39/39/39
f 40/40/40 41/41/41 42/42/42
f 43/43/43 44/44/44 45/45/45
f 46/46/46 47/47/47 48/48/48
f 49/49/49 50/50/50 51/51/51
f 52/52/52 53/53/53 54/54/54
f 55/55/55 56/56/56 57/57/57
f 58/58/58 59/59/59 60/60/60
f 61/61/61 62/62/62 63/63/63
f 64/64/64 65/65/65 66/66/66
f 67/67/67 68/68/68 69/69/69
f 70/70/70 71/71/71 72/72/72
f 73/73/73 74/74/74 75/75/75
f 76/76/76 77/77/77 78/78/78
f 79/79/79 80/80/80 81/81/81
f 82/82/82 83/83/83 84/84/84
f 85/85/85 86/86/86 87/87/87
f 88/88/88 89/89/89 90/90/90
f 91/91/91 92/92/92 93/93/93
f 94/94/94 95/95/95 96/96/96
f 97/97/97 98/98/98 99/99/99
f 100/100/100 101/101/101 102/102/102
f 103/103/103 104/104/104 105/105/105
f 106/106/106 107/107/107 108/108/108
f 109/109/109 110/110/110 111/111/111
f 112/112/112 113/113/113 114/114/114
f 115/115/115 116/116/116 117/117/117
f 118/118/118 119/119/119 120/120/120
f 121/121/121 122/122/122 123/123/123
f 124/124/124 125/125/125 126/126/126
f 127/127/127 128/128/128 129/129/129
f 130/130/130 131/131/131 132/132/132
f 133/133/133 134/134/134 135/135/135
f 136/136/136 137/137/137 138/138/138
f 139/139/139 140/140/140 141/141/141
f 142/142/142 143/143/143 144/144/144
f 145/145/145 146/146/146 147/147/147
f 148/148/148 149/149/149 150/150/150
f 151/151/151 152/152/152 153/153/153
f 154/154/154 155/155/155 156/156/156
f 157/157/157 158/158/158 159/159/159
f 160/160/160 161/161/161 162/162/162
f 163/163/163 164/164/164 165/165/165
f 166/166/166 167/167/167 168/168/168
f 169/169/169 170/170/170 171/171/171
f 172/172/172 173/173/173 174/174/174
f 175/175/175 176/176/176 177/177/177
f 178/178/178 179/179/179 180/180/180
f 181/181/181 182/182/182 183/183/183
f 184/184/184 185/185/185 186/186/186
f 187/187/187 188/188/188 189/189/189
f 190/190/190 191/191/191 192/192/192
f 193/193/193 194/194/194 195/195/195
f 196/196/196 197/197/197 198/198/198
f 199/199/199 200/200/200 201/201/201
f 202/202/202 203/203/203 204/204/204
f 205/205/205 206/206/206 207/207/207
f 208/208/208 209/209/209 210/210/210
f 211/211/211 212/212/212 213/213/213
f 214/214/214 215/215/215 216/216/216
f 217/217/217 218/218/218 219/219/219
f 220/220/220 221/221/221 222/222/222
v 12.00000 3.70000 1.60000
v 12.00000 4.81157 3.31000
v 12.00000 3.70000 4.60000
v 12.00000 3.70000 1.60000
v 12.00000 4.81157 2.89000
v 12.00000 4.81157 3.31000
v 12.00000 0.20000 1.60000
v 12.00000 3.70000 4.60000
v 12.00000 0.20000 4.60000
v 12.00000 0.20000 1.60000
v 12.00000 3.70000 1.60000
v 12.00000 3.70000 4.60000
v 5.00000 0.20000 1.60000
v 12.00000 3.70000 1.60000
v 12.00000 0.20000 1.60000
v 5.00000 0.20000 1.60000
v 5.00000 3.70000 1.60000
v 12.00000 3.70000 1.60000
v 5.95442 0.20000 3.52095
v 4.82904 9.20000 1.94400
v 5.07991 9.20000 3.36674
v 5.95442 0.20000 3.52095
v 5.24504 0.20000 1.50000
v 4.82904 9.20000 1.94400
v 1.97394 0.20000 0.18092
v 1.17095 9.20000 1.94400
v 2.27765 9.20000 1.01537
v 1.97394 0.20000 0.18092
v 0.40192 0.20000 1.50000
v 1.17095 9.20000 1.94400
v 4.82904 9.20000 1.94400
v 4.02606 0.20000 0.18092
v 3.72235 9.20000 1.01537
v 4.82904 9.20000 1.94400
v 5.24504 0.20000 1.50000
v 4.02606 0.20000 0.18092
v 1.17095 9.20000 1.94400
v 0.04558 0.20000 3.52094
v 0.92009 9.20000 3.36674
v 1.17095 9.20000 1.94400
v 0.40192 0.20000 1.50000
v 0.04558 0.20000 3.52094
v 4.02606 0.20000 0.18092
v 2.27765 9.20000 1.01537
v 3.72235 9.20000 1.01537
v 4.02606 0.20000 0.18092
v 1.97394 0.20000 0.18092
v 2.27765 9.20000 1.01537
vt -0.50000 0.00000
vt 0.64000 1.00000
vt 1.50000 0.00000
vt -0.50000 0.00000
vt 0.36000 1.00000
vt 0.64000 1.00000
vt -0.50000 -0.50000
vt 1.50000 1.50000
vt 1.50000 -0.50000
vt -0.50000 -0.50000
vt -0.50000 1.50000
vt 1.50000 1.50000
vt -1.74049 0.00000
vt 2.74049 2.00000
vt 2.74049 0.00000
vt -1.74049 0.00000
vt -1.74049 2.00000
vt 2.74049 2.00000
vt 2.63651 0.00000
vt 1.80860 4.81250
vt 2.61954 4.81250
vt 2.63651 0.00000
vt 1.63984 0.00000
vt 1.80860 4.81250
vt -0.02094 0.00000
vt -0.80860 4.81250
vt -0.01681 4.81250
vt -0.02094 0.00000
vt -0.81908 0.00000
vt -0.80860 4.81250
vt 1.80860 4.81250
vt 1.02094 0.00000
vt 1.01681 4.81250
vt 1.80860 4.81250
vt 1.63984 0.00000
vt 1.02094 0.00000
vt -0.80860 4.81250
vt -1.63651 0.00000
vt -1.61954 4.81250
vt -0.80860 4.81250
vt -0.81908 0.00000
vt -1.63651 0.00000
vt 1.02094 0.00000
vt -0.01681 4.81250
vt 1.01681 4.81250
vt 1.02094 0.00000
vt -0.02094 0.00000
vt -0.01681 4.81250
vn 1.0000 0.0000 0.0000
vn 1.0000 0.0000 0.0000
vn 1.0000 0.0000 0.0000
vn 1.0000 0.0000 0.0000
vn 1.0000 0.0000 0.0000
vn 1.0000 0.0000 0.0000
vn 1.0000 0.0000 0.0000
vn 1.0000 0.0000 0.0000
vn 1.0000 0.0000 0.0000
vn 1.0000 0.0000 0.0000
vn 1.0000 0.0000 0.0000
vn 1.0000 0.0000 0.0000
vn 0.0000 0.0000 -1.0000
vn 0.0000 0.0000 -1.0000
vn 0.0000 0.0000 -1.0000
vn 0.0000 0.0000 -1.0000
vn 0.0000 0.0000 -1.0000
vn 0.0000 0.0000 -1.0000
vn 0.9607 0.0732 -0.2679
vn 0.8581 0.0786 -0.5074
vn 0.9607 0.0732 -0.2679
vn 0.9607 0.0732 -0.2679
vn 0.8549 0.0786 -0.5128
vn 0.8581 0.0786 -0.5074
vn -0.3403 0.0982 -0.9351
vn -0.8618 0.0982 -0.4976
vn -0.3403 0.0982 -0.9351
vn -0.3403 0.0982 -0.9351
vn -0.8618 0.0982 -0.4976
vn -0.8618 0.0982 -0.4976
vn 0.8581 0.0786 -0.5074
vn 0.3720 0.0921 -0.9236
vn 0.3734 0.0921 -0.9231
vn 0.8581 0.0786 -0.5074
vn 0.8549 0.0786 -0.5128
vn 0.3720 0.0921 -0.9236
vn -0.8618 0.0982 -0.4976
vn -0.9806 0.0923 -0.1729
vn -0.9806 0.0923 -0.1729
vn -0.8618 0.0982 -0.4976
vn -0.8618 0.0982 -0.4976
vn -0.9806 0.0923 -0.1729
vn 0.3720 0.0921 -0.9236
vn -0.3403 0.0982 -0.9351
vn 0.3734 0.0921 -0.9231
vn 0.3720 0.0921 -0.9236
vn -0.3403 0.0982 -0.9351
vn -0.3403 0.0982 -0.9351
g tower_1
usemtl BrickWall
f 223/223/223 224/224/224 225/225/225
f 226/226/226 227/227/227 228/228/228
f 229/229/229 230/230/230 231/231/231
f 232/232/232 233/233/233 234/234/234
f 235/235/235 236/236/236 237/237/237
f 238/238/238 239/239/239 240/240/240
f 241/241/241 242/242/242 243/243/243
f 244/244/244 245/245/245 246/246/246
f 247/247/247 248/248/248 249/249/249
f 250/250/250 251/251/251 252/252/252
f 253/253/253 254/254/254 255/255/255
f 256/256/256 257/257/257 258/258/258
f 259/259/259 260/260/260 261/261/261
f 262/262/262 263/263/263 264/264/264
f 265/265/265 266/266/266 267/267/267
f 268/268/268 269/269/269 270/270/270
v 5.19486 9.20000 1.91106
v 4.49754 10.25123 3.01449
v 5.49590 9.20000 3.61835
v 5.19486 9.20000 1.91106
v 4.31691 10.25123 1.99012
v 4.49754 10.25123 3.01449
v 2.13318 9.20000 0.79670
v 3.52009 10.25123 1.32150
v 3.86682 9.20000 0.79670
v 2.13318 9.20000 0.79670
v 2.47991 10.25123 1.32150
v 3.52009 10.25123 1.32150
v 0.50410 9.20000 3.61835
v 1.68309 10.25123 1.99012
v 0.80515 9.20000 1.91106
v 0.50410 9.20000 3.61835
v 1.50246 10.25123 3.01449
v 1.68309 10.25123 1.99012
v 3.86682 9.20000 0.79670
v 4.31691 10.25123 1.99012
v 5.19486 9.20000 1.91106
v 3.86682 9.20000 0.79670
v 3.52009 10.25123 1.32150
v 4.31691 10.25123 1.99012
v 0.80515 9.20000 1.91106
v 2.47991 10.25123 1.32150
v 2.13318 9.20000 0.79670
v 0.80515 9.20000 1.91106
v 1.68309 10.25123 1.99012
v 2.47991 10.25123 1.32150
v 0.50410 9.20000 3.61835
v 2.01939 10.25123 3.90672
v 1.50246 10.25123 3.01449
v 0.50410 9.20000 3.61835
v 1.36564 9.20000 4.77242
v 2.01939 10.25123 3.90672
v 4.49754 10.25123 3.01449
v 4.63460 9.20000 4.77225
v 5.49590 9.20000 3.61835
v 4.49754 10.25123 3.01449
v 3.98076 10.25123 3.90662
v 4.63460 9.20000 4.77225
v 4.31691 10.25123 1.99012
v 3.00000 13.20000 2.50717
v 4.49754 10.25123 3.01449
v 2.47991 10.25123 1.32150
v 3.00000 13.20000 2.50717
v 3.52009 10.25123 1.32150
v 1.50246 10.25123 3.01449
v 3.00000 13.20000 2.50717
v 1.68309 10.25123 1.99012
v 3.52009 10.25123 1.32150
v 3.00000 13.20000 2.50717
v 4.31691 10.25123 1.99012
v 1.68309 10.25123 1.99012
v 3.00000 13.20000 2.50717
v 2.47991 10.25123 1.32150
v 1.50246 10.25123 3.01449
v 2.01939 10.25123 3.90672
v 3.00000 13.20000 2.50717
v 4.49754 10.25123 3.01449
v 3.00000 13.20000 2.50717
v 3.98076 10.25123 3.90662
vt 2.20118 0.45235
vt 2.15422 0.97015
vt 3.25703 0.45235
vt 2.20118 0.45235
vt 1.52071 0.97015
vt 2.15422 0.97015
vt -0.17185 0.45235
vt 0.90311 0.97015
vt 1.17185 0.45235
vt -0.17185 0.45235
vt 0.09689 0.97015
vt 0.90311 0.97015
vt -2.25703 0.45235
vt -0.52071 0.97015
vt -1.20118 0.45235
vt -2.25703 0.45235
vt -1.15422 0.97015
vt -0.52071 0.97015
vt 1.17185 0.45235
vt 1.52071 0.97015
vt 2.20118 0.45235
vt 1.17185 0.45235
vt 0.90311 0.97015
vt 1.52071 0.97015
vt -1.20118 0.45235
vt 0.09689 0.97015
vt -0.17185 0.45235
vt -1.20118 0.45235
vt -0.52071 0.97015
vt 0.09689 0.97015
vt -2.25703 0.45235
vt -0.26005 0.97015
vt -1.15422 0.97015
vt -2.25703 0.45235
vt -0.76675 0.45235
vt -0.26005 0.97015
vt 2.15422 0.97015
vt 1.76694 0.45235
vt 3.25703 0.45235
vt 2.15422 0.97015
vt 1.26016 0.97015
vt 1.76694 0.45235
vt 1.14487 0.00000
vt 0.50000 1.43750
vt 1.95481 0.00000
vt 0.24532 0.00000
vt 0.50000 1.43750
vt 0.75468 0.00000
vt -0.95481 0.00000
vt 0.50000 1.43750
vt -0.14487 0.00000
vt 0.75468 0.00000
vt 0.50000 1.43750
vt 1.14487 0.00000
vt -0.14487 0.00000
vt 0.50000 1.43750
vt 0.24532 0.00000
vt -0.23331 0.00000
vt 0.01981 0.00000
vt 0.50000 1.43750
vt 1.23331 0.00000
vt 0.50000 1.43750
vt 0.98026 0.00000
vn 0.7025 0.6138 -0.3601
vn 0.7841 0.6078 0.1258
vn 0.6753 0.7157 0.1782
vn 0.7025 0.6138 -0.3601
vn 0.7240 0.5221 -0.4506
vn 0.7841 0.6078 0.1258
vn -0.3134 0.5049 -0.8043
vn 0.2923 0.4564 -0.8404
vn 0.3134 0.5049 -0.8043
vn -0.3134 0.5049 -0.8043
vn -0.2923 0.4564 -0.8404
vn 0.2923 0.4564 -0.8404
vn -0.6753 0.7157 0.1782
vn -0.7240 0.5221 -0.4506
vn -0.7025 0.6138 -0.3601
vn -0.6753 0.7157 0.1782
vn -0.7841 0.6078 0.1258
vn -0.7240 0.5221 -0.4506
vn 0.3134 0.5049 -0.8043
vn 0.7240 0.5221 -0.4506
vn 0.7025 0.6138 -0.3601
vn 0.3134 0.5049 -0.8043
vn 0.2923 0.4564 -0.8404
vn 0.7240 0.5221 -0.4506
vn -0.7025 0.6138 -0.3601
vn -0.2923 0.4564 -0.8404
vn -0.3134 0.5049 -0.8043
vn -0.7025 0.6138 -0.3601
vn -0.7240 0.5221 -0.4506
vn -0.2923 0.4564 -0.8404
vn -0.6753 0.7157 0.1782
vn -0.6639 0.6212 0.4163
vn -0.7841 0.6078 0.1258
vn -0.6753 0.7157 0.1782
vn -0.5742 0.7215 0.3868
vn -0.6639 0.6212 0.4163
vn 0.7841 0.6078 0.1258
vn 0.5742 0.7215 0.3868
vn 0.6753 0.7157 0.1782
vn 0.7841 0.6078 0.1258
vn 0.6639 0.6213 0.4162
vn 0.5742 0.7215 0.3868
vn 0.7240 0.5221 -0.4506
vn 0.0000 0.8459 -0.5334
vn 0.7841 0.6078 0.1258
vn -0.2923 0.4564 -0.8404
vn 0.0000 0.8459 -0.5334
vn 0.2923 0.4564 -0.8404
vn -0.7841 0.6078 0.1258
vn 0.0000 0.8459 -0.5334
vn -0.7240 0.5221 -0.4506
vn 0.2923 0.4564 -0.8404
vn 0.0000 0.8459 -0.5334
vn 0.7240 0.5221 -0.4506
vn -0.7240 0.5221 -0.4506
vn 0.0000 0.8459 -0.5334
vn -0.2923 0.4564 -0.8404
vn -0.7841 0.6078 0.1258
vn -0.6639 0.6212 0.4163
vn 0.0000 0.8459 -0.5334
vn 0.7841 0.6078 0.1258
vn 0.0000 0.8459 -0.5334
vn 0.6639 0.6213 0.4162
g tower_2
usemtl Tejas
f 271/271/271 272/272/272 273/273/273
f 274/274/274 275/275/275 276/276/276
f 277/277/277 278/278/278 279/279/279
f 280/280/280 281/281/281 282/282/282
f 283/283/283 284/284/284 285/285/285
f 286/286/286 287/287/287 288/288/288
f 289/289/289 290/290/290 291/291/291
f 292/292/292 293/293/293 294/294/294
f 295/295/295 296/296/296 297/297/297
f 298/298/298 299/299/299 300/300/300
f 301/301/301 302/302/302 303/303/303
f 304/304/304 305/305/305 306/306/306
f 307/307/307 308/308/308 309/309/309
f 310/310/310 311/311/311 312/312/312
f 313/313/313 314/314/314 315/315/315
f 316/316/316 317/317/317 318/318/318
f 319/319/319 320/320/320 321/321/321
f 322/322/322 323/323/323 324/324/324
f 325/325/325 326/326/326 327/327/327
f 328/328/328 329/329/329 330/330/330
f 331/331/331 332/332/332 333/333/333
v 2.58742 0.05000 1.00676
v 12.49241 0.05000 5.07328
v 12.49241 0.05000 1.00676
v 2.58742 0.05000 1.00676
v 2.58742 0.05000 5.07328
v 12.49241 0.05000 5.07328
v 12.49241 0.05000 5.07328
v 12.74241 0.05000 0.75676
v 12.49241 0.05000 1.00676
v 12.49241 0.05000 5.07328
v 12.74241 0.05000 4.82328
v 12.74241 0.05000 0.75676
v 12.49241 0.05000 1.00676
v 2.83742 0.05000 0.75676
v 2.58742 0.05000 1.00676
v 12.49241 0.05000 1.00676
v 12.74241 0.05000 0.75676
v 2.83742 0.05000 0.75676
v 3.72697 0.05000 1.11183
v 5.77282 0.05000 0.41666
v 4.55384 0.05000 -0.90242
v 3.72697 0.05000 1.11183
v 4.82978 0.05000 2.30521
v 5.77282 0.05000 0.41666
v 1.87041 0.05000 1.11183
v 4.55384 0.05000 -0.90242
v 2.50172 0.05000 -0.90242
v 1.87041 0.05000 1.11183
v 3.72697 0.05000 1.11183
v 4.55384 0.05000 -0.90242
v 0.26711 0.05000 1.44787
v 2.50172 0.05000 -0.90242
v 0.85579 0.05000 0.17553
v 0.26711 0.05000 1.44787
v 1.87041 0.05000 1.11183
v 2.50172 0.05000 -0.90242
v 0.26711 0.05000 1.44787
v 1.95066 0.05000 3.04030
v 1.87041 0.05000 1.11183
v 0.26711 0.05000 1.44787
v -0.08106 0.05000 3.51140
v 1.95066 0.05000 3.04030
vt 0.17400 0.31949
vt 0.97966 1.00000
vt 0.97966 0.31949
vt 0.17400 0.31949
vt 0.17400 1.00000
vt 0.97966 1.00000
vt 0.97966 1.00000
vt 1.00000 0.27765
vt 0.97966 0.31949
vt 0.97966 1.00000
vt 1.00000 0.95816
vt 1.00000 0.27765
vt 0.97966 0.31949
vt 0.19434 0.27765
vt 0.17400 0.31949
vt 0.97966 0.31949
vt 1.00000 0.27765
vt 0.19434 0.27765
vt 0.26669 0.33707
vt 0.43310 0.22074
vt 0.33395 0.00000
vt 0.26669 0.33707
vt 0.35639 0.53678
vt 0.43310 0.22074
vt 0.11568 0.33707
vt 0.33395 0.00000
vt 0.16703 0.00000
vt 0.11568 0.33707
vt 0.26669 0.33707
vt 0.33395 0.00000
vt 0.00000 0.53678
vt 0.16703 0.00000
vt 0.03917 0.22074
vt 0.00000 0.53678
vt 0.11568 0.33707
vt 0.16703 0.00000
vt 0.00000 0.53678
vt 0.11568 0.33707
vt 0.11568 0.33707
vt 0.00000 0.53678
vt 0.00000 0.53678
vt 0.11568 0.33707
vn 0.0000 1.0000 0.0000
vn 0.0000 1.0000 0.0000
vn 0.0000 1.0000 0.0000
vn 0.0000 1.0000 0.0000
vn 0.0000 1.0000 0.0000
vn 0.0000 1.0000 0.0000
vn 0.0000 1.0000 0.0000
vn 0.0000 1.0000 0.0000
vn 0.0000 1.0000 0.0000
vn 0.0000 1.0000 0.0000
vn 0.0000 1.0000 0.0000
vn 0.0000 1.0000 0.0000
vn 0.0000 1.0000 0.0000
vn 0.0000 1.0000 0.0000
vn 0.0000 1.0000 0.0000
vn 0.0000 1.0000 0.0000
vn 0.0000 1.0000 0.0000
vn 0.0000 1.0000 0.0000
vn 0.0000 1.0000 0.0000
vn 0.0000 1.0000 0.0000
vn 0.0000 1.0000 0.0000
vn 0.0000 1.0000 0.0000
vn 0.0000 1.0000 0.0000
vn 0.0000 1.0000 0.0000
vn 0.0000 1.0000 0.0000
vn 0.0000 1.0000 0.0000
vn 0.0000 1.0000 0.0000
vn 0.0000 1.0000 0.0000
vn 0.0000 1.0000 0.0000
vn 0.0000 1.0000 0.0000
vn 0.0000 1.0000 0.0000
vn 0.0000 1.0000 0.0000
vn 0.0000 1.0000 0.0000
vn 0.0000 1.0000 0.0000
vn 0.0000 1.0000 0.0000
vn 0.0000 1.0000 0.0000
vn 0.0000 1.0000 0.0000
vn 0.0000 1.0000 0.0000
vn 0.0000 1.0000 0.0000
vn 0.0000 1.0000 0.0000
vn 0.0000 1.0000 0.0000
vn 0.0000 1.0000 0.0000
g tower_3
usemtl h_kage
f 334/334/334 335/335/335 336/336/336
f 337/337/337 338/338/338 339/339/339
f 340/340/340 341/341/341 342/342/342
f 343/343/343 344/344/344 345/345/345
f 346/346/346 347/347/347 348/348/348
f 349/349/349 350/350/350 351/351/351
f 352/352/352 353/353/353 354/354/354
f 355/355/355 356/356/356 357/357/357
f 358/358/358 359/359/359 360/360/360
f 361/361/361 362/362/362 363/363/363
f 364/364/364 365/365/365 366/366/366
f 367/367/367 368/368/368 369/369/369
f 370/370/370 371/371/371 372/372/372
f 373/373/373 374/374/374 375/375/375
