# tree_v2
# generated by tools/assets/build-tiles.js — do not edit
mtllib tree_v2.mtl
o tree_v2
v 0.31250 1.85547 0.87402
v 1.68750 2.64453 2.00097
v 1.68750 1.85547 0.87402
v 0.31250 1.85547 0.87402
v 0.31250 2.64453 2.00097
v 1.68750 2.64453 2.00097
v -0.03125 1.14941 0.54492
v 2.03125 2.22558 2.08008
v 2.03125 1.14941 0.54492
v -0.03125 1.14941 0.54492
v -0.03125 2.22558 2.08008
v 2.03125 2.22558 2.08008
v -0.25000 0.45312 0.37988
v 2.25000 1.67187 2.12012
v 2.25000 0.45312 0.37988
v -0.25000 0.45312 0.37988
v -0.25000 1.67187 2.12012
v 2.25000 1.67187 2.12012
v 0.00000 0.05664 0.06250
v 2.00000 0.05664 1.93750
v 2.00000 0.05664 0.06250
v 0.00000 0.05664 0.06250
v 0.00000 0.05664 1.93750
v 2.00000 0.05664 1.93750
vt 0.00000 -1.00000
vt 0.34375 -0.65625
vt 0.34375 -1.00000
vt 0.00000 -1.00000
vt 0.00000 -0.65625
vt 0.34375 -0.65625
vt 0.00000 -0.46875
vt 0.53125 0.00000
vt 0.53125 -0.46875
vt 0.00000 -0.46875
vt 0.00000 0.00000
vt 0.53125 0.00000
vt 0.34375 -1.00000
vt 1.00000 -0.43750
vt 1.00000 -1.00000
vt 0.34375 -1.00000
vt 0.34375 -0.43750
vt 1.00000 -0.43750
vt 0.53125 -0.43750
vt 1.00000 0.00000
vt 1.00000 -0.43750
vt 0.53125 -0.43750
vt 0.53125 0.00000
vt 1.00000 0.00000
vn 0.0000 0.8186 -0.5743
vn 0.0000 0.8186 -0.5743
vn 0.0000 0.8186 -0.5743
vn 0.0000 0.8186 -0.5743
vn 0.0000 0.8186 -0.5743
vn 0.0000 0.8186 -0.5743
vn 0.0000 0.8188 -0.5740
vn 0.0000 0.8188 -0.5740
vn 0.0000 0.8188 -0.5740
vn 0.0000 0.8188 -0.5740
vn 0.0000 0.8188 -0.5740
vn 0.0000 0.8188 -0.5740
vn 0.0000 0.8186 -0.5744
vn 0.0000 0.8186 -0.5744
vn 0.0000 0.8186 -0.5744
vn 0.0000 0.8186 -0.5744
vn 0.0000 0.8186 -0.5744
vn 0.0000 0.8186 -0.5744
vn 0.0000 1.0000 0.0000
vn 0.0000 1.0000 0.0000
vn 0.0000 1.0000 0.0000
vn 0.0000 1.0000 0.0000
vn 0.0000 1.0000 0.0000
vn 0.0000 1.0000 0.0000
g tree_v2_0
usemtl t23
f 1/1/1 2/2/2 3/3/3
f 4/4/4 5/5/5 6/6/6
f 7/7/7 8/8/8 9/9/9
f 10/10/10 11/11/11 12/12/12
f 13/13/13 14/14/14 15/15/15
f 16/16/16 17/17/17 18/18/18
f 19/19/19 20/20/20 21/21/21
f 22/22/22 23/23/23 24/24/24
v 0.00000 -0.00000 0.00000
v 2.00000 -0.00000 2.00000
v 2.00000 -0.00000 0.00000
v 0.00000 -0.00000 0.00000
v 0.00000 -0.00000 2.00000
v 2.00000 -0.00000 2.00000
vt 0.00000 -2.00000
vt 1.00000 -1.00000
vt 1.00000 -2.00000
vt 0.00000 -2.00000
vt 0.00000 -1.00000
vt 1.00000 -1.00000
vn 0.0000 1.0000 0.0000
vn 0.0000 1.0000 0.0000
vn 0.0000 1.0000 0.0000
vn 0.0000 1.0000 0.0000
vn 0.0000 1.0000 0.0000
vn 0.0000 1.0000 0.0000
g tree_v2_1
usemtl tshadow
f 25/25/25 26/26/26 27/27/27
f 28/28/28 29/29/29 30/30/30
