# wood_door_v3
# generated by tools/assets/build-tiles.js — do not edit
mtllib wood_door_v3.mtl
o wood_door_v3
v 2.12500 1.79492 0.50000
v 0.18750 -0.00000 2.50000
v 2.12500 1.79492 2.50000
v 2.12500 1.79492 0.50000
v 0.18750 -0.00000 0.50000
v 0.18750 -0.00000 2.50000
vt 1.43750 -0.00391
vt 1.24219 -0.02344
vt 1.43750 -0.02344
vt 1.43750 -0.00391
vt 1.24219 -0.00391
vt 1.24219 -0.02344
vn -0.6796 0.7336 0.0000
vn -0.6796 0.7336 0.0000
vn -0.6796 0.7336 0.0000
vn -0.6796 0.7336 0.0000
vn -0.6796 0.7336 0.0000
vn -0.6796 0.7336 0.0000
g wood_door_v3_0
usemtl d7ana2
f 1/1/1 2/2/2 3/3/3
f 4/4/4 5/5/5 6/6/6
v 0.93750 1.37500 0.87500
v 1.25000 1.62500 2.12500
v 1.25000 1.62500 0.87500
v 0.93750 1.37500 0.87500
v 0.93750 1.37500 2.12500
v 1.25000 1.62500 2.12500
v 1.81250 1.62500 2.12500
v 1.25000 1.62500 2.37500
v 1.81250 1.62500 2.37500
v 1.81250 1.62500 2.12500
v 1.25000 1.62500 2.12500
v 1.25000 1.62500 2.37500
v 0.93750 1.37500 2.12500
v -0.56250 0.12500 2.37500
v 0.93750 1.37500 2.37500
v 0.93750 1.37500 2.12500
v -0.56250 0.12500 2.12500
v -0.56250 0.12500 2.37500
v 1.25000 1.62500 0.87500
v 1.81250 1.62500 2.12500
v 1.81250 1.62500 0.87500
v 1.25000 1.62500 0.87500
v 1.25000 1.62500 2.12500
v 1.81250 1.62500 2.12500
v 1.81250 1.62500 0.62500
v 1.25000 1.62500 0.87500
v 1.81250 1.62500 0.87500
v 1.81250 1.62500 0.62500
v 1.25000 1.62500 0.62500
v 1.25000 1.62500 0.87500
v 0.93750 1.37500 0.62500
v -0.56250 0.12500 0.87500
v 0.93750 1.37500 0.87500
v 0.93750 1.37500 0.62500
v -0.56250 0.12500 0.62500
v -0.56250 0.12500 0.87500
v 1.25000 1.62500 2.12500
v 0.93750 1.37500 2.37500
v 1.25000 1.62500 2.37500
v 1.25000 1.62500 2.12500
v 0.93750 1.37500 2.12500
v 0.93750 1.37500 2.37500
v 1.25000 1.62500 0.62500
v 0.93750 1.37500 0.87500
v 1.25000 1.62500 0.87500
v 1.25000 1.62500 0.62500
v 0.93750 1.37500 0.62500
v 0.93750 1.37500 0.87500
v 1.81250 1.37500 2.37500
v 1.25000 1.62500 2.37500
v 0.93750 1.37500 2.37500
v 1.25000 1.62500 2.37500
v 1.81250 1.37500 2.37500
v 1.81250 1.62500 2.37500
v 0.93750 1.37500 0.62500
v 1.81250 1.62500 0.62500
v 1.81250 1.37500 0.62500
v 1.81250 1.62500 0.62500
v 0.93750 1.37500 0.62500
v 1.25000 1.62500 0.62500
v 0.37500 0.12500 2.37500
v 0.93750 1.37500 2.37500
v -0.56250 0.12500 2.37500
v 0.93750 1.37500 2.37500
v 0.37500 0.12500 2.37500
v 1.81250 1.37500 2.37500
v 1.74609 1.37500 2.12500
v -0.56250 0.12500 2.12500
v 0.93750 1.37500 2.12500
v -0.56250 0.12500 2.12500
v 1.74609 1.37500 2.12500
v 0.30859 0.12500 2.12500
v 0.93750 1.37500 0.87500
v 0.30859 0.12500 0.87500
v 1.74609 1.37500 0.87500
v 0.30859 0.12500 0.87500
v 0.93750 1.37500 0.87500
v -0.56250 0.12500 0.87500
v -0.56250 0.12500 0.62500
v 1.81250 1.37500 0.62500
v 0.37500 0.12500 0.62500
v 1.81250 1.37500 0.62500
v -0.56250 0.12500 0.62500
v 0.93750 1.37500 0.62500
vt 0.43359 -1.21875
vt -0.48438 -1.90625
vt -0.48438 -1.21875
vt 0.43359 -1.21875
vt 0.43359 -1.90625
vt -0.48438 -1.90625
vt 0.48047 1.76367
vt -0.51953 1.09961
vt -0.51953 1.76367
vt 0.48047 1.76367
vt 0.48047 1.09961
vt -0.51953 1.09961
vt 0.48438 0.00000
vt -0.53516 -1.00000
vt -0.53516 0.00000
vt 0.48438 0.00000
vt 0.48438 -1.00000
vt -0.53516 -1.00000
vt 0.44141 -1.23242
vt -0.49219 -1.90625
vt -0.49219 -1.23242
vt 0.44141 -1.23242
vt 0.44141 -1.90625
vt -0.49219 -1.90625
vt 0.48047 1.76367
vt -0.51953 1.09961
vt -0.51953 1.76367
vt 0.48047 1.76367
vt 0.48047 1.09961
vt -0.51953 1.09961
vt 0.48438 0.00000
vt -0.53516 -1.00000
vt -0.53516 0.00000
vt 0.48438 0.00000
vt 0.48438 -1.00000
vt -0.53516 -1.00000
vt -0.01172 0.44336
vt -0.50000 0.91992
vt -0.50000 0.44336
vt -0.01172 0.44336
vt -0.01172 0.91992
vt -0.50000 0.91992
vt -0.01172 0.44336
vt -0.50000 0.91992
vt -0.50000 0.44336
vt -0.01172 0.44336
vt -0.01172 0.91992
vt -0.50000 0.91992
vt -0.50000 0.91992
vt -0.01172 0.44336
vt -0.01172 0.91992
vt -0.01172 0.44336
vt -0.50000 0.91992
vt -0.50000 0.44336
vt -0.50000 0.91992
vt -0.01172 0.44336
vt -0.01172 0.91992
vt -0.01172 0.44336
vt -0.50000 0.91992
vt -0.50000 0.44336
vt -0.53516 -0.01367
vt 0.48438 0.76367
vt 0.48438 -0.01367
vt 0.48438 0.76367
vt -0.53516 -0.01367
vt -0.53516 0.76367
vt 0.48438 0.00000
vt -0.53516 -1.00000
vt -0.53516 0.00000
vt -0.53516 -1.00000
vt 0.48438 0.00000
vt 0.48438 -1.00000
vt 0.48438 0.00000
vt -0.53516 -1.00000
vt -0.53516 0.00000
vt -0.53516 -1.00000
vt 0.48438 0.00000
vt 0.48438 -1.00000
vt -0.53516 -0.01367
vt 0.48438 0.76367
vt 0.48438 -0.01367
vt 0.48438 0.76367
vt -0.53516 -0.01367
vt -0.53516 0.76367
vn -0.6247 0.7809 0.0000
vn -0.6247 0.7809 0.0000
vn -0.6247 0.7809 0.0000
vn -0.6247 0.7809 0.0000
vn -0.6247 0.7809 0.0000
vn -0.6247 0.7809 0.0000
vn 0.0000 1.0000 0.0000
vn 0.0000 1.0000 0.0000
vn 0.0000 1.0000 0.0000
vn 0.0000 1.0000 0.0000
vn 0.0000 1.0000 0.0000
vn 0.0000 1.0000 0.0000
vn -0.6402 0.7682 0.0000
vn -0.6402 0.7682 0.0000
vn -0.6402 0.7682 0.0000
vn -0.6402 0.7682 0.0000
vn -0.6402 0.7682 0.0000
vn -0.6402 0.7682 0.0000
vn 0.0000 1.0000 0.0000
vn 0.0000 1.0000 0.0000
vn 0.0000 1.0000 0.0000
vn 0.0000 1.0000 0.0000
vn 0.0000 1.0000 0.0000
vn 0.0000 1.0000 0.0000
vn 0.0000 1.0000 0.0000
vn 0.0000 1.0000 0.0000
vn 0.0000 1.0000 0.0000
vn 0.0000 1.0000 0.0000
vn 0.0000 1.0000 0.0000
vn 0.0000 1.0000 0.0000
vn -0.6402 0.7682 0.0000
vn -0.6402 0.7682 0.0000
vn -0.6402 0.7682 0.0000
vn -0.6402 0.7682 0.0000
vn -0.6402 0.7682 0.0000
vn -0.6402 0.7682 0.0000
vn -0.6247 0.7809 0.0000
vn -0.6247 0.7809 0.0000
vn -0.6247 0.7809 0.0000
vn -0.6247 0.7809 0.0000
vn -0.6247 0.7809 0.0000
vn -0.6247 0.7809 0.0000
vn -0.6247 0.7809 0.0000
vn -0.6247 0.7809 0.0000
vn -0.6247 0.7809 0.0000
vn -0.6247 0.7809 0.0000
vn -0.6247 0.7809 0.0000
vn -0.6247 0.7809 0.0000
vn 0.0000 0.0000 1.0000
vn 0.0000 0.0000 1.0000
vn 0.0000 0.0000 1.0000
vn 0.0000 0.0000 1.0000
vn 0.0000 0.0000 1.0000
vn 0.0000 0.0000 1.0000
vn 0.0000 0.0000 -1.0000
vn 0.0000 0.0000 -1.0000
vn 0.0000 0.0000 -1.0000
vn 0.0000 0.0000 -1.0000
vn 0.0000 0.0000 -1.0000
vn 0.0000 0.0000 -1.0000
vn 0.0000 0.0000 1.0000
vn 0.0000 0.0000 1.0000
vn 0.0000 0.0000 1.0000
vn 0.0000 0.0000 1.0000
vn 0.0000 0.0000 1.0000
vn 0.0000 0.0000 1.0000
vn 0.0000 0.0000 -1.0000
vn 0.0000 0.0000 -1.0000
vn 0.0000 0.0000 -1.0000
vn 0.0000 0.0000 -1.0000
vn 0.0000 0.0000 -1.0000
vn 0.0000 0.0000 -1.0000
vn 0.0000 0.0000 1.0000
vn 0.0000 0.0000 1.0000
vn 0.0000 0.0000 1.0000
vn 0.0000 0.0000 1.0000
vn 0.0000 0.0000 1.0000
vn 0.0000 0.0000 1.0000
vn 0.0000 0.0000 -1.0000
vn 0.0000 0.0000 -1.0000
vn 0.0000 0.0000 -1.0000
vn 0.0000 0.0000 -1.0000
vn 0.0000 0.0000 -1.0000
vn 0.0000 0.0000 -1.0000
g wood_door_v3_1
usemtl d7cave02
f 7/7/7 8/8/8 9/9/9
f 10/10/10 11/11/11 12/12/12
f 13/13/13 14/14/14 15/15/15
f 16/16/16 17/17/17 18/18/18
f 19/19/19 20/20/20 21/21/21
f 22/22/22 23/23/23 24/24/24
f 25/25/25 26/26/26 27/27/27
f 28/28/28 29/29/29 30/30/30
f 31/31/31 32/32/32 33/33/33
f 34/34/34 35/35/35 36/36/36
f 37/37/37 38/38/38 39/39/39
f 40/40/40 41/41/41 42/42/42
f 43/43/43 44/44/44 45/45/45
f 46/46/46 47/47/47 48/48/48
f 49/49/49 50/50/50 51/51/51
f 52/52/52 53/53/53 54/54/54
f 55/55/55 56/56/56 57/57/57
f 58/58/58 59/59/59 60/60/60
f 61/61/61 62/62/62 63/63/63
f 64/64/64 65/65/65 66/66/66
f 67/67/67 68/68/68 69/69/69
f 70/70/70 71/71/71 72/72/72
f 73/73/73 74/74/74 75/75/75
f 76/76/76 77/77/77 78/78/78
f 79/79/79 80/80/80 81/81/81
f 82/82/82 83/83/83 84/84/84
f 85/85/85 86/86/86 87/87/87
f 88/88/88 89/89/89 90/90/90
v 0.62500 0.87500 0.75000
v 0.31250 0.18750 0.00000
v 0.31250 0.18750 0.75000
v 0.62500 0.87500 0.75000
v 0.62500 0.87500 0.00000
v 0.31250 0.18750 0.00000
v 1.00000 1.00000 3.00000
v 1.31250 1.18750 2.25000
v 1.00000 1.00000 2.25000
v 1.00000 1.00000 3.00000
v 1.31250 1.18750 3.00000
v 1.31250 1.18750 2.25000
v 0.00000 -0.00000 0.62500
v 0.31250 0.18750 0.00000
v 0.00000 -0.00000 0.00000
v 0.00000 -0.00000 0.62500
v 0.31250 0.18750 0.75000
v 0.31250 0.18750 0.00000
v 1.00000 1.00000 0.75000
v 1.31250 1.18750 0.00000
v 1.00000 1.00000 0.00000
v 1.00000 1.00000 0.75000
v 1.31250 1.18750 0.75000
v 1.31250 1.18750 0.00000
v 0.62500 0.87500 3.00000
v 0.31250 0.18750 2.37500
v 0.31250 0.18750 3.00000
v 0.62500 0.87500 3.00000
v 0.62500 0.87500 2.25000
v 0.31250 0.18750 2.37500
v 1.31250 1.18750 3.00000
v 1.62500 1.87500 0.00000
v 1.31250 1.18750 0.00000
v 1.31250 1.18750 3.00000
v 1.62500 1.87500 3.00000
v 1.62500 1.87500 0.00000
v 0.00000 -0.00000 3.00000
v 0.31250 0.18750 2.37500
v 0.00000 -0.00000 2.37500
v 0.00000 -0.00000 3.00000
v 0.31250 0.18750 3.00000
v 0.31250 0.18750 2.37500
vt 2.00391 -0.01953
vt 3.00000 -0.62891
vt 2.00391 -0.62891
vt 2.00391 -0.01953
vt 3.00000 -0.01953
vt 3.00000 -0.62891
vt 0.00000 -0.98438
vt 1.01563 -0.62891
vt 1.01563 -0.98438
vt 0.00000 -0.98438
vt 0.00000 -0.62891
vt 1.01563 -0.62891
vt 1.99609 -0.98438
vt 3.00000 -0.62891
vt 3.00000 -0.98438
vt 1.99609 -0.98438
vt 2.00391 -0.62891
vt 3.00000 -0.62891
vt 2.00781 -0.98438
vt 3.00000 -0.62891
vt 3.00000 -0.98438
vt 2.00781 -0.98438
vt 2.00781 -0.62891
vt 3.00000 -0.62891
vt 0.00000 -0.01953
vt 1.00781 -0.62891
vt 0.00000 -0.62891
vt 0.00000 -0.01953
vt 1.00781 -0.01953
vt 1.00781 -0.62891
vt 0.00000 -0.62891
vt 3.00000 -0.01953
vt 3.00000 -0.62891
vt 0.00000 -0.62891
vt 0.00000 -0.01953
vt 3.00000 -0.01953
vt 0.00000 -0.98438
vt 1.00781 -0.62891
vt 0.99609 -0.98438
vt 0.00000 -0.98438
vt 0.00000 -0.62891
vt 1.00781 -0.62891
vn -0.9104 0.4138 0.0000
vn -0.9104 0.4138 0.0000
vn -0.9104 0.4138 0.0000
vn -0.9104 0.4138 0.0000
vn -0.9104 0.4138 0.0000
vn -0.9104 0.4138 0.0000
vn -0.5145 0.8575 0.0000
vn -0.5145 0.8575 0.0000
vn -0.5145 0.8575 0.0000
vn -0.5145 0.8575 0.0000
vn -0.5145 0.8575 0.0000
vn -0.5145 0.8575 0.0000
vn -0.5145 0.8575 0.0000
vn -0.5145 0.8575 0.0000
vn -0.5145 0.8575 0.0000
vn -0.5145 0.8575 0.0000
vn -0.5145 0.8575 0.0000
vn -0.5145 0.8575 0.0000
vn -0.5145 0.8575 0.0000
vn -0.5145 0.8575 0.0000
vn -0.5145 0.8575 0.0000
vn -0.5145 0.8575 0.0000
vn -0.5145 0.8575 0.0000
vn -0.5145 0.8575 0.0000
vn -0.9104 0.4138 0.0000
vn -0.9104 0.4138 0.0000
vn -0.9104 0.4138 0.0000
vn -0.9104 0.4138 0.0000
vn -0.9104 0.4138 0.0000
vn -0.9104 0.4138 0.0000
vn -0.9104 0.4138 0.0000
vn -0.9104 0.4138 0.0000
vn -0.9104 0.4138 0.0000
vn -0.9104 0.4138 0.0000
vn -0.9104 0.4138 0.0000
vn -0.9104 0.4138 0.0000
vn -0.5145 0.8575 0.0000
vn -0.5145 0.8575 0.0000
vn -0.5145 0.8575 0.0000
vn -0.5145 0.8575 0.0000
vn -0.5145 0.8575 0.0000
vn -0.5145 0.8575 0.0000
g wood_door_v3_2
usemtl d7cliff2
f 91/91/91 92/92/92 93/93/93
f 94/94/94 95/95/95 96/96/96
f 97/97/97 98/98/98 99/99/99
f 100/100/100 101/101/101 102/102/102
f 103/103/103 104/104/104 105/105/105
f 106/106/106 107/107/107 108/108/108
f 109/109/109 110/110/110 111/111/111
f 112/112/112 113/113/113 114/114/114
f 115/115/115 116/116/116 117/117/117
f 118/118/118 119/119/119 120/120/120
f 121/121/121 122/122/122 123/123/123
f 124/124/124 125/125/125 126/126/126
f 127/127/127 128/128/128 129/129/129
f 130/130/130 131/131/131 132/132/132
v -1.00000 0.12500 0.87500
v 0.00000 0.12500 2.12500
v 0.00000 0.12500 0.87500
v -1.00000 0.12500 0.87500
v -1.00000 0.12500 2.12500
v 0.00000 0.12500 2.12500
v 0.00000 0.12500 0.87500
v 0.31250 0.12500 2.12500
v 0.31250 0.12500 0.87500
v 0.00000 0.12500 0.87500
v 0.00000 0.12500 2.12500
v 0.31250 0.12500 2.12500
vt -9.12500 -10.00000
vt -7.87500 -11.00000
vt -9.12500 -11.00000
vt -9.12500 -10.00000
vt -7.87500 -10.00000
vt -7.87500 -11.00000
vt -9.12500 -11.00000
vt -7.87500 -11.31250
vt -9.12500 -11.31250
vt -9.12500 -11.00000
vt -7.87500 -11.00000
vt -7.87500 -11.31250
vn 0.0000 1.0000 0.0000
vn 0.0000 1.0000 0.0000
vn 0.0000 1.0000 0.0000
vn 0.0000 1.0000 0.0000
vn 0.0000 1.0000 0.0000
vn 0.0000 1.0000 0.0000
vn 0.0000 1.0000 0.0000
vn 0.0000 1.0000 0.0000
vn 0.0000 1.0000 0.0000
vn 0.0000 1.0000 0.0000
vn 0.0000 1.0000 0.0000
vn 0.0000 1.0000 0.0000
g wood_door_v3_3
usemtl d7bedrock4
f 133/133/133 134/134/134 135/135/135
f 136/136/136 137/137/137 138/138/138
f 139/139/139 140/140/140 141/141/141
f 142/142/142 143/143/143 144/144/144
v 0.62500 0.87500 3.00000
v 1.00000 1.00000 2.25000
v 0.62500 0.87500 2.25000
v 0.62500 0.87500 3.00000
v 1.00000 1.00000 3.00000
v 1.00000 1.00000 2.25000
v 1.62500 1.87500 3.00000
v 2.00000 2.00000 0.00000
v 1.62500 1.87500 0.00000
v 1.62500 1.87500 3.00000
v 2.00000 2.00000 3.00000
v 2.00000 2.00000 0.00000
v 0.62500 0.87500 0.75000
v 1.00000 1.00000 0.00000
v 0.62500 0.87500 0.00000
v 0.62500 0.87500 0.75000
v 1.00000 1.00000 0.75000
v 1.00000 1.00000 0.00000
vt 0.00000 -0.97656
vt 1.01563 -0.01563
vt 1.00781 -0.97656
vt 0.00000 -0.97656
vt 0.00000 -0.01563
vt 1.01563 -0.01563
vt 0.00000 -0.97656
vt 3.00000 -0.01563
vt 3.00000 -0.97656
vt 0.00000 -0.97656
vt 0.00000 -0.01563
vt 3.00000 -0.01563
vt 2.00391 -0.97656
vt 3.00000 -0.01563
vt 3.00000 -0.97656
vt 2.00391 -0.97656
vt 2.00781 -0.01563
vt 3.00000 -0.01563
vn -0.3162 0.9487 0.0000
vn -0.3162 0.9487 0.0000
vn -0.3162 0.9487 0.0000
vn -0.3162 0.9487 0.0000
vn -0.3162 0.9487 0.0000
vn -0.3162 0.9487 0.0000
vn -0.3162 0.9487 0.0000
vn -0.3162 0.9487 0.0000
vn -0.3162 0.9487 0.0000
vn -0.3162 0.9487 0.0000
vn -0.3162 0.9487 0.0000
vn -0.3162 0.9487 0.0000
vn -0.3162 0.9487 0.0000
vn -0.3162 0.9487 0.0000
vn -0.3162 0.9487 0.0000
vn -0.3162 0.9487 0.0000
vn -0.3162 0.9487 0.0000
vn -0.3162 0.9487 0.0000
g wood_door_v3_4
usemtl d7cliffue2
f 145/145/145 146/146/146 147/147/147
f 148/148/148 149/149/149 150/150/150
f 151/151/151 152/152/152 153/153/153
f 154/154/154 155/155/155 156/156/156
f 157/157/157 158/158/158 159/159/159
f 160/160/160 161/161/161 162/162/162
