# Blender 5.2.1 LTS
# www.blender.org
mtllib tree_mush.mtl
o sylvan-town__tree_mush
v 0.000000 0.847000 0.000000
v 1.694000 0.847000 0.000000
v 1.694000 0.847000 3.833084
v 0.000000 0.847000 3.833084
v 0.847000 0.000000 0.000000
v 0.847000 1.694000 0.000000
v 0.847000 1.694000 3.833084
v 0.847000 0.000000 3.833084
v 0.142296 0.142296 0.229985
v 1.551704 0.142296 0.229985
v 1.551704 1.551704 0.229985
v 0.142296 1.551704 0.229985
v 0.015811 0.015811 1.648226
v 1.678189 0.015811 1.648226
v 1.678189 1.678189 1.648226
v 0.015811 1.678189 1.648226
v 0.350093 0.350093 3.066468
v 1.343907 0.350093 3.066468
v 1.343907 1.343907 3.066468
v 0.350093 1.343907 3.066468
vn -0.0000 -1.0000 -0.0000
vn 1.0000 -0.0000 -0.0000
vn -0.0000 -0.0000 1.0000
vt 0.489899 0.011416
vt 0.010101 0.957062
vt 0.010101 0.011416
vt 0.449596 0.020872
vt 0.050404 0.115437
vt 0.050404 0.020872
vt 0.485421 0.370762
vt 0.014579 0.465326
vt 0.014579 0.370762
vt 0.390741 0.720651
vt 0.109259 0.815215
vt 0.109259 0.720651
vt 0.489899 0.957062
vt 0.449596 0.115437
vt 0.485421 0.465326
vt 0.390741 0.815215
s 0
usemtl TreeMushroom.001
f 2/1/1 4/2/1 1/3/1
f 6/1/2 8/2/2 5/3/2
f 10/4/3 12/5/3 9/6/3
f 14/7/3 16/8/3 13/9/3
f 18/10/3 20/11/3 17/12/3
f 2/1/1 3/13/1 4/2/1
f 6/1/2 7/13/2 8/2/2
f 10/4/3 11/14/3 12/5/3
f 14/7/3 15/15/3 16/8/3
f 18/10/3 19/16/3 20/11/3
