# cave_jump_s_v4
# generated by tools/assets/build-tiles.js — do not edit
mtllib cave_jump_s_v4.mtl
o cave_jump_s_v4
v 0.87500 0.25000 0.00000
v 1.00000 -0.00000 1.00000
v 1.00000 -0.00000 0.00000
v 0.87500 0.25000 0.00000
v 0.87500 0.25000 1.00000
v 1.00000 -0.00000 1.00000
v 0.37500 -0.00000 0.00000
v 0.87500 0.25000 1.00000
v 0.87500 0.25000 0.00000
v 0.37500 -0.00000 0.00000
v 0.37500 -0.00000 1.00000
v 0.87500 0.25000 1.00000
vt -1.00000 -0.37500
vt 0.00000 -1.00000
vt -1.00000 -1.00000
vt -1.00000 -0.37500
vt 0.00000 -0.37500
vt 0.00000 -1.00000
vt -1.00000 0.00000
vt 0.00000 -0.37500
vt -1.00000 -0.37500
vt -1.00000 0.00000
vt 0.00000 0.00000
vt 0.00000 -0.37500
vn 0.3162 0.9487 0.0000
vn 0.8944 0.4472 0.0000
vn 0.8944 0.4472 0.0000
vn 0.3162 0.9487 0.0000
vn 0.3162 0.9487 0.0000
vn 0.8944 0.4472 0.0000
vn -0.4472 0.8944 0.0000
vn 0.3162 0.9487 0.0000
vn 0.3162 0.9487 0.0000
vn -0.4472 0.8944 0.0000
vn -0.4472 0.8944 0.0000
vn 0.3162 0.9487 0.0000
g cave_jump_s_v4_0
usemtl d0dan_001
f 1/1/1 2/2/2 3/3/3
f 4/4/4 5/5/5 6/6/6
f 7/7/7 8/8/8 9/9/9
f 10/10/10 11/11/11 12/12/12
