# cave_jump_se_v3
# generated by tools/assets/build-tiles.js — do not edit
mtllib cave_jump_se_v3.mtl
o cave_jump_se_v3
v 0.62500 -0.00000 0.00000
v 0.25000 0.25000 0.50000
v 0.75000 -0.00000 1.00000
v 0.62500 -0.00000 0.00000
v 0.12500 0.25000 0.00000
v 0.25000 0.25000 0.50000
v 0.00000 -0.00000 0.00000
v 0.25000 0.25000 0.50000
v 0.12500 0.25000 0.00000
v 0.00000 -0.00000 0.00000
v 0.25000 -0.00000 0.75000
v 0.25000 0.25000 0.50000
v 0.25000 0.25000 0.50000
v 0.25000 -0.00000 0.75000
v 0.75000 -0.00000 1.00000
vt -1.00000 0.00000
vt 0.00000 -0.37500
vt 1.00000 0.00000
vt -1.00000 0.00000
vt -1.00000 -0.37500
vt 0.00000 -0.37500
vt -1.00000 -1.00000
vt 0.00000 -0.37500
vt -1.00000 -0.37500
vt -1.00000 -1.00000
vt 0.00000 -1.00000
vt 0.00000 -0.37500
vt 1.00000 -0.37500
vt 1.00000 -1.00000
vt 0.00000 -0.37500
vn 0.4773 0.8751 -0.0796
vn -0.2769 0.9516 0.1333
vn 0.4773 0.8751 -0.0796
vn 0.4773 0.8751 -0.0796
vn -0.4265 0.8882 0.1708
vn -0.2769 0.9516 0.1333
vn -0.8944 0.3578 0.2683
vn -0.2769 0.9516 0.1333
vn -0.4265 0.8882 0.1708
vn -0.8944 0.3578 0.2683
vn -0.8944 0.3578 0.2683
vn -0.2769 0.9516 0.1333
vn -0.3333 0.6667 0.6667
vn -0.3333 0.6667 0.6667
vn -0.3333 0.6667 0.6667
g cave_jump_se_v3_0
usemtl d0dan_001
f 1/1/1 2/2/2 3/3/3
f 4/4/4 5/5/5 6/6/6
f 7/7/7 8/8/8 9/9/9
f 10/10/10 11/11/11 12/12/12
f 13/13/13 14/14/14 15/15/15
